<?xml version="1.0" encoding="utf-8"?>
<!-- Generator: Adobe Illustrator 27.0.0, SVG Export Plug-In . SVG Version: 6.00 Build 0)  -->
<svg version="1.1" id="Calque_1" xmlns="http://www.w3.org/2000/svg" xmlns:xlink="http://www.w3.org/1999/xlink" x="0px" y="0px"
	 viewBox="0 0 229.1 294.7" style="enable-background:new 0 0 229.1 294.7;" xml:space="preserve">
<style type="text/css">
	.st0{fill:none;stroke:#000000;stroke-width:0.1;stroke-miterlimit:10;}
	.st1{fill:none;stroke:#000000;stroke-width:0.5;stroke-miterlimit:10;}
	.st2{fill:none;stroke:#000000;stroke-width:1.65;stroke-miterlimit:10;}
	.st3{fill:none;stroke:#000000;stroke-width:2;stroke-miterlimit:10;}
	.st4{fill:none;stroke:#FF0000;stroke-width:0.5;stroke-miterlimit:10;}
	.st5{fill:none;stroke:#000000;stroke-miterlimit:10;}
</style>
<g>
	<path class="st0" d="M19.2,17c0-3.7,3-6.7,6.7-6.7h19v11.4h145.6V10.3H207c3.7,0,6.7,3,6.7,6.7v259c0,3.7-3,6.7-6.7,6.7H25.9
		c-3.7,0-6.7-3-6.7-6.7v-44.2c6.7-8.7,10.8-19.6,10.8-31.5c0-11.9-4-22.8-10.8-31.5V148c4.6-4.2,7.4-10.2,7.4-16.9
		c0-6.7-2.9-12.7-7.4-16.8V17z"/>
</g>
<g>
	<polyline class="st1" points="182.5,79.9 178.9,83.5 173.6,83.5 166.6,90.5 166.6,168.9 158.6,176.9 158.6,242.6 154.1,247.1 
		144.9,247.1 139.2,252.7 	"/>
	<polyline class="st1" points="182,94.8 178.9,97.9 173.6,97.9 168.6,102.9 168.6,169.6 160.6,177.6 160.6,243.3 154.9,249 
		151.1,249 146.8,253.2 	"/>
	<polyline class="st1" points="182.7,86.9 178.8,90.7 173.4,90.7 167.6,96.6 167.6,169.3 159.6,177.3 159.6,242.9 154.5,248 
		146.4,248 143.3,251.1 143.3,261 	"/>
	<polyline class="st1" points="182.8,65.3 178.9,69.1 173.5,69.1 164.6,78 164.6,168.1 156.6,176.1 156.6,241.8 153.3,245.1 
		140,245.1 136.3,248.8 129.5,248.8 127.4,250.9 127.4,259.7 	"/>
	<polyline class="st1" points="182.8,101.2 178.9,105.1 173.6,105.1 169.6,109.1 169.6,170 161.6,178 161.6,246.5 154.8,253.3 	"/>
	<polyline class="st1" points="182.4,72.8 178.9,76.3 173.6,76.3 165.6,84.3 165.6,168.5 157.6,176.5 157.6,242.2 153.7,246.1 
		140.4,246.1 135.4,251.1 135.4,258.3 	"/>
	<polyline class="st1" points="182.4,116.1 178.9,119.5 173.4,119.5 171.6,121.3 171.6,170.7 163.6,178.7 163.6,247.7 167.1,251.2 
		167.1,258.1 161.1,264 123.5,264 119.6,260.1 	"/>
	<polyline class="st1" points="182.6,108.6 178.9,112.3 173.7,112.3 170.6,115.4 170.6,170.4 162.6,178.4 162.6,248.3 163.2,248.9 
		163.2,252.7 	"/>
	<path class="st1" d="M123.3,252.8"/>
	<polyline class="st1" points="123.6,252.4 128.2,247.9 135.9,247.9 139.6,244.2 152.9,244.2 155.6,241.5 155.6,175.8 163.6,167.8 
		163.6,77.6 171.6,69.6 171.6,61.9 	"/>
	<polyline class="st1" points="182.9,79.5 188.1,74.3 188.1,55.9 184.8,52.7 173.2,52.7 162.1,63.7 118.1,63.7 117.2,64.7 	"/>
	<polyline class="st1" points="181.9,94.8 190.1,86.7 190.1,55 185.6,50.7 172.4,50.7 161.3,61.8 114.4,61.8 113.4,62.8 	"/>
	<polyline class="st1" points="181.4,88.1 189.1,80.5 189.1,55.5 185.2,51.7 172.8,51.7 161.7,62.8 116.3,62.8 115.4,63.7 	"/>
	<polyline class="st1" points="183.1,64.8 186,61.9 186,56.8 183.9,54.7 174.1,54.7 163.1,65.7 121.9,65.7 121.2,66.3 	"/>
	<polyline class="st1" points="181,103 191,93 191,54.6 186,49.7 171.9,49.7 160.8,60.8 112.6,60.8 112.1,61.3 	"/>
	<polyline class="st1" points="182.6,72.6 187,68.2 187,56.3 184.4,53.7 173.7,53.7 162.6,64.7 120,64.7 119.1,65.6 	"/>
	<polyline class="st1" points="181.8,116.6 192.9,105.5 192.9,53.8 186.8,47.7 171.1,47.7 163.9,54.8 134.7,54.8 127.1,47.2 	"/>
	<polyline class="st1" points="181.1,110 192,99.2 192,54.2 186.4,48.7 171.5,48.7 160.3,59.8 110.7,59.8 109.6,60.9 	"/>
	<polyline class="st1" points="183.3,179.9 187,176.2 187,114.1 194.9,106.3 194.9,53 187.5,45.7 170.2,45.7 163.1,52.8 142.7,52.8 
		135.5,45.6 132.3,45.6 130.7,47.2 	"/>
	<polyline class="st1" points="183,165.9 186,162.8 186,113.8 193.9,105.9 193.9,53.4 187.1,46.7 170.6,46.7 163.5,53.8 141.7,53.8 
		134.9,47 	"/>
	<polyline class="st1" points="182.2,188.1 188,182.4 188,114.4 195.8,106.6 195.8,52.6 187.9,44.7 169.8,44.7 162.6,51.9 
		143.8,51.9 139.3,47.4 	"/>
	<polyline class="st1" points="182.5,202.2 189.9,194.9 189.9,115.2 197.7,107.3 197.7,51.8 188.6,42.7 169,42.7 161.7,50 151.9,50 
		147.5,45.6 144.3,45.6 142.9,47.1 	"/>
	<polyline class="st1" points="183.1,194.5 188.9,188.6 188.9,114.8 196.8,107 196.8,52.2 188.2,43.7 169.4,43.7 162.1,50.9 
		150.8,50.9 146.9,47 	"/>
	<polyline class="st1" points="182.5,216.7 191.9,207.3 191.9,115.8 199.7,108 199.7,51 189.3,40.7 168.3,40.7 160.9,48.1 
		155.9,48.1 155.2,47.4 	"/>
	<polyline class="st1" points="182.4,209.5 190.9,201 190.9,115.5 198.7,107.7 198.7,51.4 188.9,41.7 168.6,41.7 161.3,49 152.9,49 
		151.2,47.3 	"/>
	<polyline class="st1" points="173,243.9 173,240.6 193.9,219.7 193.9,116.6 201.7,108.8 201.7,50.3 189.4,38 189.4,31.5 
		187.1,29.2 173,29.2 171.4,30.9 171.4,34.9 168.9,37.3 	"/>
	<polyline class="st1" points="181.9,224.6 192.9,213.5 192.9,116.2 200.7,108.4 200.7,50.7 188.4,38.4 188.4,36.6 186.7,34.9 
		177.1,34.9 174.1,31.9 	"/>
	<polyline class="st1" points="183.4,179.7 178.9,184.3 173.8,184.3 165.6,192.6 165.6,246.8 169.1,250.4 169.1,258.9 161.9,266.1 
		122.7,266.1 121.9,265.3 108.3,265.3 	"/>
	<polyline class="st1" points="182.3,166.5 178.9,169.9 173.9,169.9 164.6,179.1 164.6,247.3 168.1,250.8 168.1,258.5 161.5,265.1 
		123.2,265.1 121.9,263.8 99.8,263.8 95.7,259.6 	"/>
	<polyline class="st1" points="183.1,187.2 178.9,191.5 173.9,191.5 166.6,198.8 166.6,246.4 170,249.9 170,259.2 162.2,267 
		100,267 97.5,264.5 	"/>
	<polyline class="st1" points="183.1,201.7 178.9,205.9 173.8,205.9 168.5,211.3 168.5,245.6 172,249.1 172,260 163.1,269 90.7,269 
		84.1,262.3 84.1,257.4 76.3,252.7 	"/>
	<polyline class="st1" points="182.6,194.9 178.9,198.7 173.9,198.7 167.5,205 167.5,246 171,249.5 171,259.6 162.7,268 98.4,268 
		91.9,261.5 91.9,252.6 	"/>
	<polyline class="st1" points="182.3,216.8 178.9,220.3 173.8,220.3 170.4,223.6 170.4,244.8 174,248.4 174,260.8 163.9,270.9 
		114.1,270.9 113,272 111,272 109,269.9 90.3,269.9 79.3,259 	"/>
	<polyline class="st1" points="182.3,209.6 178.8,213.1 173.8,213.1 169.4,217.4 169.4,245.2 173,248.8 173,260.4 163.5,270 
		113.6,270 113,270.5 112.1,270.5 	"/>
	<polyline class="st1" points="182.2,224.2 179,227.4 173.8,227.4 171.4,229.8 171.4,244.4 175,248 175,261.2 164.3,271.9 
		114.5,271.9 113.5,272.9 110.5,272.9 108.6,270.9 77.7,270.9 68.4,261.7 68.4,253.6 	"/>
	<line class="st1" x1="71.4" y1="140" x2="71.4" y2="135.2"/>
	<rect x="26.6" y="66.7" width="5.7" height="5.7"/>
	<circle cx="185.6" cy="37.7" r="2.1"/>
	<circle cx="179.9" cy="37.7" r="2.1"/>
	<circle cx="185.6" cy="32" r="2.1"/>
	<circle cx="179.9" cy="32" r="2.1"/>
	<circle cx="174.2" cy="37.7" r="2.1"/>
	<circle cx="168.6" cy="37.7" r="2.1"/>
	<circle cx="174.2" cy="32" r="2.1"/>
	<circle cx="168.6" cy="32" r="2.1"/>
	<circle cx="162.9" cy="37.7" r="2.1"/>
	<circle cx="157.2" cy="37.7" r="2.1"/>
	<circle cx="162.9" cy="32" r="2.1"/>
	<circle cx="157.2" cy="32" r="2.1"/>
	<circle cx="151.5" cy="37.7" r="2.1"/>
	<circle cx="145.9" cy="37.7" r="2.1"/>
	<circle cx="151.5" cy="32" r="2.1"/>
	<circle cx="145.9" cy="32" r="2.1"/>
	<circle cx="140.2" cy="37.7" r="2.1"/>
	<circle cx="134.5" cy="37.7" r="2.1"/>
	<circle cx="140.2" cy="32" r="2.1"/>
	<circle cx="134.5" cy="32" r="2.1"/>
	<circle cx="128.9" cy="37.7" r="2.1"/>
	<circle cx="128.9" cy="32" r="2.1"/>
	<circle cx="123.2" cy="32" r="2.1"/>
	<circle cx="117.5" cy="37.7" r="2.1"/>
	<circle cx="111.9" cy="37.7" r="2.1"/>
	<circle cx="117.5" cy="32" r="2.1"/>
	<circle cx="111.9" cy="32" r="2.1"/>
	<circle cx="106.2" cy="37.7" r="2.1"/>
	<circle cx="100.5" cy="37.7" r="2.1"/>
	<circle cx="106.2" cy="32" r="2.1"/>
	<circle cx="100.5" cy="32" r="2.1"/>
	<circle cx="94.8" cy="37.7" r="2.1"/>
	<circle cx="89.2" cy="37.7" r="2.1"/>
	<circle cx="94.8" cy="32" r="2.1"/>
	<circle cx="89.2" cy="32" r="2.1"/>
	<circle cx="83.5" cy="37.7" r="2.1"/>
	<circle cx="77.8" cy="37.7" r="2.1"/>
	<circle cx="83.5" cy="32" r="2.1"/>
	<circle cx="77.8" cy="32" r="2.1"/>
	<circle cx="66.5" cy="37.7" r="2.1"/>
	<circle cx="66.5" cy="32" r="2.1"/>
	<circle cx="60.8" cy="37.7" r="2.1"/>
	<circle cx="55.2" cy="37.7" r="2.1"/>
	<circle cx="60.8" cy="32" r="2.1"/>
	<circle cx="55.2" cy="32" r="2.1"/>
	<circle cx="49.5" cy="37.7" r="2.1"/>
	<circle cx="49.5" cy="32" r="2.1"/>
	<path d="M185.3,195.1c0,1.6-1.3,2.8-2.8,2.8c-1.6,0-2.8-1.3-2.8-2.8c0-1.6,1.3-2.8,2.8-2.8C184,192.3,185.3,193.5,185.3,195.1z"/>
	<path d="M185.3,187.9c0,1.6-1.3,2.8-2.8,2.8c-1.6,0-2.8-1.3-2.8-2.8c0-1.6,1.3-2.8,2.8-2.8C184,185.1,185.3,186.3,185.3,187.9z"/>
	<path d="M178.1,195.1c0,1.6-1.3,2.8-2.8,2.8c-1.6,0-2.8-1.3-2.8-2.8c0-1.6,1.3-2.8,2.8-2.8C176.8,192.3,178.1,193.5,178.1,195.1z"
		/>
	<path d="M178.1,187.9c0,1.6-1.3,2.8-2.8,2.8c-1.6,0-2.8-1.3-2.8-2.8c0-1.6,1.3-2.8,2.8-2.8C176.8,185.1,178.1,186.3,178.1,187.9z"
		/>
	<path d="M185.3,180.7c0,1.6-1.3,2.8-2.8,2.8c-1.6,0-2.8-1.3-2.8-2.8c0-1.6,1.3-2.8,2.8-2.8C184,177.9,185.3,179.1,185.3,180.7z"/>
	<path d="M185.3,173.5c0,1.6-1.3,2.8-2.8,2.8c-1.6,0-2.8-1.3-2.8-2.8c0-1.6,1.3-2.8,2.8-2.8C184,170.7,185.3,171.9,185.3,173.5z"/>
	<path d="M178.1,180.7c0,1.6-1.3,2.8-2.8,2.8c-1.6,0-2.8-1.3-2.8-2.8c0-1.6,1.3-2.8,2.8-2.8C176.8,177.9,178.1,179.1,178.1,180.7z"
		/>
	<path d="M178.1,173.5c0,1.6-1.3,2.8-2.8,2.8c-1.6,0-2.8-1.3-2.8-2.8c0-1.6,1.3-2.8,2.8-2.8C176.8,170.7,178.1,171.9,178.1,173.5z"
		/>
	<path d="M185.3,166.3c0,1.6-1.3,2.8-2.8,2.8c-1.6,0-2.8-1.3-2.8-2.8c0-1.6,1.3-2.8,2.8-2.8C184,163.5,185.3,164.7,185.3,166.3z"/>
	<path d="M185.3,159.1c0,1.6-1.3,2.8-2.8,2.8c-1.6,0-2.8-1.3-2.8-2.8c0-1.6,1.3-2.8,2.8-2.8C184,156.3,185.3,157.5,185.3,159.1z"/>
	<path d="M178.1,166.3c0,1.6-1.3,2.8-2.8,2.8c-1.6,0-2.8-1.3-2.8-2.8c0-1.6,1.3-2.8,2.8-2.8C176.8,163.5,178.1,164.7,178.1,166.3z"
		/>
	<path d="M178.1,159.1c0,1.6-1.3,2.8-2.8,2.8c-1.6,0-2.8-1.3-2.8-2.8c0-1.6,1.3-2.8,2.8-2.8C176.8,156.3,178.1,157.5,178.1,159.1z"
		/>
	<path d="M185.3,151.9c0,1.6-1.3,2.8-2.8,2.8c-1.6,0-2.8-1.3-2.8-2.8c0-1.6,1.3-2.8,2.8-2.8C184,149.1,185.3,150.3,185.3,151.9z"/>
	<path d="M185.3,144.7c0,1.6-1.3,2.8-2.8,2.8c-1.6,0-2.8-1.3-2.8-2.8c0-1.6,1.3-2.8,2.8-2.8C184,141.9,185.3,143.1,185.3,144.7z"/>
	<path d="M178.1,151.9c0,1.6-1.3,2.8-2.8,2.8c-1.6,0-2.8-1.3-2.8-2.8c0-1.6,1.3-2.8,2.8-2.8C176.8,149.1,178.1,150.3,178.1,151.9z"
		/>
	<path d="M178.1,144.7c0,1.6-1.3,2.8-2.8,2.8c-1.6,0-2.8-1.3-2.8-2.8c0-1.6,1.3-2.8,2.8-2.8C176.8,141.9,178.1,143.1,178.1,144.7z"
		/>
	<path d="M185.3,137.5c0,1.6-1.3,2.8-2.8,2.8c-1.6,0-2.8-1.3-2.8-2.8c0-1.6,1.3-2.8,2.8-2.8C184,134.7,185.3,135.9,185.3,137.5z"/>
	<path d="M185.3,130.3c0,1.6-1.3,2.8-2.8,2.8c-1.6,0-2.8-1.3-2.8-2.8c0-1.6,1.3-2.8,2.8-2.8C184,127.5,185.3,128.7,185.3,130.3z"/>
	<path d="M178.1,137.5c0,1.6-1.3,2.8-2.8,2.8c-1.6,0-2.8-1.3-2.8-2.8c0-1.6,1.3-2.8,2.8-2.8C176.8,134.7,178.1,135.9,178.1,137.5z"
		/>
	<path d="M178.1,130.3c0,1.6-1.3,2.8-2.8,2.8c-1.6,0-2.8-1.3-2.8-2.8c0-1.6,1.3-2.8,2.8-2.8C176.8,127.5,178.1,128.7,178.1,130.3z"
		/>
	<path d="M185.3,123.1c0,1.6-1.3,2.8-2.8,2.8c-1.6,0-2.8-1.3-2.8-2.8c0-1.6,1.3-2.8,2.8-2.8C184,120.3,185.3,121.5,185.3,123.1z"/>
	<path d="M185.3,115.9c0,1.6-1.3,2.8-2.8,2.8c-1.6,0-2.8-1.3-2.8-2.8c0-1.6,1.3-2.8,2.8-2.8C184,113.1,185.3,114.3,185.3,115.9z"/>
	<path d="M178.1,123.1c0,1.6-1.3,2.8-2.8,2.8c-1.6,0-2.8-1.3-2.8-2.8c0-1.6,1.3-2.8,2.8-2.8C176.8,120.3,178.1,121.5,178.1,123.1z"
		/>
	<path d="M178.1,115.9c0,1.6-1.3,2.8-2.8,2.8c-1.6,0-2.8-1.3-2.8-2.8c0-1.6,1.3-2.8,2.8-2.8C176.8,113.1,178.1,114.3,178.1,115.9z"
		/>
	<path d="M185.3,108.7c0,1.6-1.3,2.8-2.8,2.8c-1.6,0-2.8-1.3-2.8-2.8c0-1.6,1.3-2.8,2.8-2.8C184,105.9,185.3,107.1,185.3,108.7z"/>
	<path d="M185.3,101.5c0,1.6-1.3,2.8-2.8,2.8c-1.6,0-2.8-1.3-2.8-2.8c0-1.6,1.3-2.8,2.8-2.8C184,98.7,185.3,99.9,185.3,101.5z"/>
	<path d="M178.1,108.7c0,1.6-1.3,2.8-2.8,2.8c-1.6,0-2.8-1.3-2.8-2.8c0-1.6,1.3-2.8,2.8-2.8C176.8,105.9,178.1,107.1,178.1,108.7z"
		/>
	<path d="M178.1,101.5c0,1.6-1.3,2.8-2.8,2.8c-1.6,0-2.8-1.3-2.8-2.8c0-1.6,1.3-2.8,2.8-2.8C176.8,98.7,178.1,99.9,178.1,101.5z"/>
	<path d="M185.3,94.3c0,1.6-1.3,2.8-2.8,2.8c-1.6,0-2.8-1.3-2.8-2.8c0-1.6,1.3-2.8,2.8-2.8C184,91.5,185.3,92.7,185.3,94.3z"/>
	<path d="M185.3,87.1c0,1.6-1.3,2.8-2.8,2.8c-1.6,0-2.8-1.3-2.8-2.8c0-1.6,1.3-2.8,2.8-2.8C184,84.3,185.3,85.5,185.3,87.1z"/>
	<path d="M178.1,94.3c0,1.6-1.3,2.8-2.8,2.8c-1.6,0-2.8-1.3-2.8-2.8c0-1.6,1.3-2.8,2.8-2.8C176.8,91.5,178.1,92.7,178.1,94.3z"/>
	<path d="M178.1,87.1c0,1.6-1.3,2.8-2.8,2.8c-1.6,0-2.8-1.3-2.8-2.8c0-1.6,1.3-2.8,2.8-2.8C176.8,84.3,178.1,85.5,178.1,87.1z"/>
	<path d="M185.3,79.9c0,1.6-1.3,2.8-2.8,2.8c-1.6,0-2.8-1.3-2.8-2.8c0-1.6,1.3-2.8,2.8-2.8C184,77.1,185.3,78.3,185.3,79.9z"/>
	<path d="M185.3,72.7c0,1.6-1.3,2.8-2.8,2.8c-1.6,0-2.8-1.3-2.8-2.8c0-1.6,1.3-2.8,2.8-2.8C184,69.9,185.3,71.1,185.3,72.7z"/>
	<path d="M178.1,79.9c0,1.6-1.3,2.8-2.8,2.8c-1.6,0-2.8-1.3-2.8-2.8c0-1.6,1.3-2.8,2.8-2.8C176.8,77.1,178.1,78.3,178.1,79.9z"/>
	<path d="M178.1,72.7c0,1.6-1.3,2.8-2.8,2.8c-1.6,0-2.8-1.3-2.8-2.8c0-1.6,1.3-2.8,2.8-2.8C176.8,69.9,178.1,71.1,178.1,72.7z"/>
	<path d="M185.3,65.5c0,1.6-1.3,2.8-2.8,2.8c-1.6,0-2.8-1.3-2.8-2.8c0-1.6,1.3-2.8,2.8-2.8C184,62.7,185.3,63.9,185.3,65.5z"/>
	<path d="M185.3,58.3c0,1.6-1.3,2.8-2.8,2.8c-1.6,0-2.8-1.3-2.8-2.8c0-1.6,1.3-2.8,2.8-2.8C184,55.5,185.3,56.7,185.3,58.3z"/>
	<path d="M178.1,65.5c0,1.6-1.3,2.8-2.8,2.8c-1.6,0-2.8-1.3-2.8-2.8c0-1.6,1.3-2.8,2.8-2.8C176.8,62.7,178.1,63.9,178.1,65.5z"/>
	<path d="M178.1,58.3c0,1.6-1.3,2.8-2.8,2.8c-1.6,0-2.8-1.3-2.8-2.8c0-1.6,1.3-2.8,2.8-2.8C176.8,55.5,178.1,56.7,178.1,58.3z"/>
	<path d="M185.3,231.1c0,1.6-1.3,2.8-2.8,2.8c-1.6,0-2.8-1.3-2.8-2.8c0-1.6,1.3-2.8,2.8-2.8C184,228.2,185.3,229.5,185.3,231.1z"/>
	<path d="M185.3,223.9c0,1.6-1.3,2.8-2.8,2.8c-1.6,0-2.8-1.3-2.8-2.8c0-1.6,1.3-2.8,2.8-2.8C184,221.1,185.3,222.3,185.3,223.9z"/>
	<path d="M178.1,231.1c0,1.6-1.3,2.8-2.8,2.8c-1.6,0-2.8-1.3-2.8-2.8c0-1.6,1.3-2.8,2.8-2.8C176.8,228.3,178.1,229.5,178.1,231.1z"
		/>
	<path d="M178.1,223.9c0,1.6-1.3,2.8-2.8,2.8c-1.6,0-2.8-1.3-2.8-2.8c0-1.6,1.3-2.8,2.8-2.8C176.8,221.1,178.1,222.3,178.1,223.9z"
		/>
	<path d="M185.3,216.7c0,1.6-1.3,2.8-2.8,2.8c-1.6,0-2.8-1.3-2.8-2.8c0-1.6,1.3-2.8,2.8-2.8C184,213.9,185.3,215.1,185.3,216.7z"/>
	<path d="M185.3,209.5c0,1.6-1.3,2.8-2.8,2.8c-1.6,0-2.8-1.3-2.8-2.8c0-1.6,1.3-2.8,2.8-2.8C184,206.6,185.3,207.9,185.3,209.5z"/>
	<path d="M178.1,216.7c0,1.6-1.3,2.8-2.8,2.8c-1.6,0-2.8-1.3-2.8-2.8c0-1.6,1.3-2.8,2.8-2.8C176.8,213.9,178.1,215.1,178.1,216.7z"
		/>
	<path d="M178.1,209.5c0,1.6-1.3,2.8-2.8,2.8c-1.6,0-2.8-1.3-2.8-2.8c0-1.6,1.3-2.8,2.8-2.8C176.8,206.7,178.1,207.9,178.1,209.5z"
		/>
	<path d="M185.3,202.3c0,1.6-1.3,2.8-2.8,2.8c-1.6,0-2.8-1.3-2.8-2.8c0-1.6,1.3-2.8,2.8-2.8C184,199.5,185.3,200.7,185.3,202.3z"/>
	<path d="M178.1,202.3c0,1.6-1.3,2.8-2.8,2.8c-1.6,0-2.8-1.3-2.8-2.8c0-1.6,1.3-2.8,2.8-2.8C176.8,199.5,178.1,200.7,178.1,202.3z"
		/>
	<path d="M185.3,195.1c0,1.6-1.3,2.8-2.8,2.8c-1.6,0-2.8-1.3-2.8-2.8c0-1.6,1.3-2.8,2.8-2.8C184,192.3,185.3,193.5,185.3,195.1z"/>
	<path d="M185.3,187.9c0,1.6-1.3,2.8-2.8,2.8c-1.6,0-2.8-1.3-2.8-2.8c0-1.6,1.3-2.8,2.8-2.8C184,185.1,185.3,186.3,185.3,187.9z"/>
	<path d="M178.1,195.1c0,1.6-1.3,2.8-2.8,2.8c-1.6,0-2.8-1.3-2.8-2.8c0-1.6,1.3-2.8,2.8-2.8C176.8,192.3,178.1,193.5,178.1,195.1z"
		/>
	<path d="M178.1,187.9c0,1.6-1.3,2.8-2.8,2.8c-1.6,0-2.8-1.3-2.8-2.8c0-1.6,1.3-2.8,2.8-2.8C176.8,185.1,178.1,186.3,178.1,187.9z"
		/>
	<path d="M185.3,180.7c0,1.6-1.3,2.8-2.8,2.8c-1.6,0-2.8-1.3-2.8-2.8c0-1.6,1.3-2.8,2.8-2.8C184,177.9,185.3,179.1,185.3,180.7z"/>
	<path d="M185.3,173.5c0,1.6-1.3,2.8-2.8,2.8c-1.6,0-2.8-1.3-2.8-2.8c0-1.6,1.3-2.8,2.8-2.8C184,170.7,185.3,171.9,185.3,173.5z"/>
	<path d="M178.1,180.7c0,1.6-1.3,2.8-2.8,2.8c-1.6,0-2.8-1.3-2.8-2.8c0-1.6,1.3-2.8,2.8-2.8C176.8,177.9,178.1,179.1,178.1,180.7z"
		/>
	<path d="M178.1,173.5c0,1.6-1.3,2.8-2.8,2.8c-1.6,0-2.8-1.3-2.8-2.8c0-1.6,1.3-2.8,2.8-2.8C176.8,170.7,178.1,171.9,178.1,173.5z"
		/>
	<path d="M185.3,166.3c0,1.6-1.3,2.8-2.8,2.8c-1.6,0-2.8-1.3-2.8-2.8c0-1.6,1.3-2.8,2.8-2.8C184,163.5,185.3,164.7,185.3,166.3z"/>
	<path d="M185.3,159.1c0,1.6-1.3,2.8-2.8,2.8c-1.6,0-2.8-1.3-2.8-2.8c0-1.6,1.3-2.8,2.8-2.8C184,156.3,185.3,157.5,185.3,159.1z"/>
	<path d="M178.1,166.3c0,1.6-1.3,2.8-2.8,2.8c-1.6,0-2.8-1.3-2.8-2.8c0-1.6,1.3-2.8,2.8-2.8C176.8,163.5,178.1,164.7,178.1,166.3z"
		/>
	<path d="M178.1,159.1c0,1.6-1.3,2.8-2.8,2.8c-1.6,0-2.8-1.3-2.8-2.8c0-1.6,1.3-2.8,2.8-2.8C176.8,156.3,178.1,157.5,178.1,159.1z"
		/>
	<path d="M185.3,151.9c0,1.6-1.3,2.8-2.8,2.8c-1.6,0-2.8-1.3-2.8-2.8c0-1.6,1.3-2.8,2.8-2.8C184,149.1,185.3,150.3,185.3,151.9z"/>
	<path d="M185.3,144.7c0,1.6-1.3,2.8-2.8,2.8c-1.6,0-2.8-1.3-2.8-2.8c0-1.6,1.3-2.8,2.8-2.8C184,141.9,185.3,143.1,185.3,144.7z"/>
	<path d="M178.1,151.9c0,1.6-1.3,2.8-2.8,2.8c-1.6,0-2.8-1.3-2.8-2.8c0-1.6,1.3-2.8,2.8-2.8C176.8,149.1,178.1,150.3,178.1,151.9z"
		/>
	<path d="M178.1,144.7c0,1.6-1.3,2.8-2.8,2.8c-1.6,0-2.8-1.3-2.8-2.8c0-1.6,1.3-2.8,2.8-2.8C176.8,141.9,178.1,143.1,178.1,144.7z"
		/>
	<path d="M185.3,137.5c0,1.6-1.3,2.8-2.8,2.8c-1.6,0-2.8-1.3-2.8-2.8c0-1.6,1.3-2.8,2.8-2.8C184,134.7,185.3,135.9,185.3,137.5z"/>
	<path d="M185.3,130.3c0,1.6-1.3,2.8-2.8,2.8c-1.6,0-2.8-1.3-2.8-2.8c0-1.6,1.3-2.8,2.8-2.8C184,127.5,185.3,128.7,185.3,130.3z"/>
	<path d="M178.1,137.5c0,1.6-1.3,2.8-2.8,2.8c-1.6,0-2.8-1.3-2.8-2.8c0-1.6,1.3-2.8,2.8-2.8C176.8,134.7,178.1,135.9,178.1,137.5z"
		/>
	<path d="M178.1,130.3c0,1.6-1.3,2.8-2.8,2.8c-1.6,0-2.8-1.3-2.8-2.8c0-1.6,1.3-2.8,2.8-2.8C176.8,127.5,178.1,128.7,178.1,130.3z"
		/>
	<path d="M185.3,123.1c0,1.6-1.3,2.8-2.8,2.8c-1.6,0-2.8-1.3-2.8-2.8c0-1.6,1.3-2.8,2.8-2.8C184,120.3,185.3,121.5,185.3,123.1z"/>
	<path d="M185.3,115.9c0,1.6-1.3,2.8-2.8,2.8c-1.6,0-2.8-1.3-2.8-2.8c0-1.6,1.3-2.8,2.8-2.8C184,113.1,185.3,114.3,185.3,115.9z"/>
	<path d="M178.1,123.1c0,1.6-1.3,2.8-2.8,2.8c-1.6,0-2.8-1.3-2.8-2.8c0-1.6,1.3-2.8,2.8-2.8C176.8,120.3,178.1,121.5,178.1,123.1z"
		/>
	<path d="M178.1,115.9c0,1.6-1.3,2.8-2.8,2.8c-1.6,0-2.8-1.3-2.8-2.8c0-1.6,1.3-2.8,2.8-2.8C176.8,113.1,178.1,114.3,178.1,115.9z"
		/>
	<path d="M185.3,108.7c0,1.6-1.3,2.8-2.8,2.8c-1.6,0-2.8-1.3-2.8-2.8c0-1.6,1.3-2.8,2.8-2.8C184,105.9,185.3,107.1,185.3,108.7z"/>
	<path d="M185.3,101.5c0,1.6-1.3,2.8-2.8,2.8c-1.6,0-2.8-1.3-2.8-2.8c0-1.6,1.3-2.8,2.8-2.8C184,98.7,185.3,99.9,185.3,101.5z"/>
	<path d="M178.1,108.7c0,1.6-1.3,2.8-2.8,2.8c-1.6,0-2.8-1.3-2.8-2.8c0-1.6,1.3-2.8,2.8-2.8C176.8,105.9,178.1,107.1,178.1,108.7z"
		/>
	<path d="M178.1,101.5c0,1.6-1.3,2.8-2.8,2.8c-1.6,0-2.8-1.3-2.8-2.8c0-1.6,1.3-2.8,2.8-2.8C176.8,98.7,178.1,99.9,178.1,101.5z"/>
	<path d="M185.3,94.3c0,1.6-1.3,2.8-2.8,2.8c-1.6,0-2.8-1.3-2.8-2.8c0-1.6,1.3-2.8,2.8-2.8C184,91.5,185.3,92.7,185.3,94.3z"/>
	<path d="M185.3,87.1c0,1.6-1.3,2.8-2.8,2.8c-1.6,0-2.8-1.3-2.8-2.8c0-1.6,1.3-2.8,2.8-2.8C184,84.3,185.3,85.5,185.3,87.1z"/>
	<path d="M178.1,94.3c0,1.6-1.3,2.8-2.8,2.8c-1.6,0-2.8-1.3-2.8-2.8c0-1.6,1.3-2.8,2.8-2.8C176.8,91.5,178.1,92.7,178.1,94.3z"/>
	<path d="M178.1,87.1c0,1.6-1.3,2.8-2.8,2.8c-1.6,0-2.8-1.3-2.8-2.8c0-1.6,1.3-2.8,2.8-2.8C176.8,84.3,178.1,85.5,178.1,87.1z"/>
	<path d="M185.3,79.9c0,1.6-1.3,2.8-2.8,2.8c-1.6,0-2.8-1.3-2.8-2.8c0-1.6,1.3-2.8,2.8-2.8C184,77.1,185.3,78.3,185.3,79.9z"/>
	<path d="M185.3,72.7c0,1.6-1.3,2.8-2.8,2.8c-1.6,0-2.8-1.3-2.8-2.8c0-1.6,1.3-2.8,2.8-2.8C184,69.9,185.3,71.1,185.3,72.7z"/>
	<path d="M178.1,79.9c0,1.6-1.3,2.8-2.8,2.8c-1.6,0-2.8-1.3-2.8-2.8c0-1.6,1.3-2.8,2.8-2.8C176.8,77.1,178.1,78.3,178.1,79.9z"/>
	<path d="M178.1,72.7c0,1.6-1.3,2.8-2.8,2.8c-1.6,0-2.8-1.3-2.8-2.8c0-1.6,1.3-2.8,2.8-2.8C176.8,69.9,178.1,71.1,178.1,72.7z"/>
	<path d="M185.3,65.5c0,1.6-1.3,2.8-2.8,2.8c-1.6,0-2.8-1.3-2.8-2.8c0-1.6,1.3-2.8,2.8-2.8C184,62.7,185.3,63.9,185.3,65.5z"/>
	<path d="M185.3,58.3c0,1.6-1.3,2.8-2.8,2.8c-1.6,0-2.8-1.3-2.8-2.8c0-1.6,1.3-2.8,2.8-2.8C184,55.5,185.3,56.7,185.3,58.3z"/>
	<path d="M178.1,65.5c0,1.6-1.3,2.8-2.8,2.8c-1.6,0-2.8-1.3-2.8-2.8c0-1.6,1.3-2.8,2.8-2.8C176.8,62.7,178.1,63.9,178.1,65.5z"/>
	<path d="M178.1,58.3c0,1.6-1.3,2.8-2.8,2.8c-1.6,0-2.8-1.3-2.8-2.8c0-1.6,1.3-2.8,2.8-2.8C176.8,55.5,178.1,56.7,178.1,58.3z"/>
	<path d="M185.3,223.9c0,1.6-1.3,2.8-2.8,2.8c-1.6,0-2.8-1.3-2.8-2.8c0-1.6,1.3-2.8,2.8-2.8C184,221.1,185.3,222.3,185.3,223.9z"/>
	<path d="M178.1,231.1c0,1.6-1.3,2.8-2.8,2.8c-1.6,0-2.8-1.3-2.8-2.8c0-1.6,1.3-2.8,2.8-2.8C176.8,228.3,178.1,229.5,178.1,231.1z"
		/>
	<path d="M178.1,223.9c0,1.6-1.3,2.8-2.8,2.8c-1.6,0-2.8-1.3-2.8-2.8c0-1.6,1.3-2.8,2.8-2.8C176.8,221.1,178.1,222.3,178.1,223.9z"
		/>
	<path d="M185.3,216.7c0,1.6-1.3,2.8-2.8,2.8c-1.6,0-2.8-1.3-2.8-2.8c0-1.6,1.3-2.8,2.8-2.8C184,213.9,185.3,215.1,185.3,216.7z"/>
	<path d="M185.3,209.5c0,1.6-1.3,2.8-2.8,2.8c-1.6,0-2.8-1.3-2.8-2.8c0-1.6,1.3-2.8,2.8-2.8C184,206.6,185.3,207.9,185.3,209.5z"/>
	<path d="M178.1,216.7c0,1.6-1.3,2.8-2.8,2.8c-1.6,0-2.8-1.3-2.8-2.8c0-1.6,1.3-2.8,2.8-2.8C176.8,213.9,178.1,215.1,178.1,216.7z"
		/>
	<path d="M178.1,209.5c0,1.6-1.3,2.8-2.8,2.8c-1.6,0-2.8-1.3-2.8-2.8c0-1.6,1.3-2.8,2.8-2.8C176.8,206.7,178.1,207.9,178.1,209.5z"
		/>
	<path d="M185.3,202.3c0,1.6-1.3,2.8-2.8,2.8c-1.6,0-2.8-1.3-2.8-2.8c0-1.6,1.3-2.8,2.8-2.8C184,199.5,185.3,200.7,185.3,202.3z"/>
	<path d="M178.1,202.3c0,1.6-1.3,2.8-2.8,2.8c-1.6,0-2.8-1.3-2.8-2.8c0-1.6,1.3-2.8,2.8-2.8C176.8,199.5,178.1,200.7,178.1,202.3z"
		/>
	<path d="M36.8,83c0.1,0,3.1,0,3.2,0c0.9-0.1,1.5-0.8,1.5-1.7s-0.7-1.6-1.5-1.8c-0.1,0-3.1,0-3.2,0c-1,0-1.8,0.8-1.8,1.8
		C35,82.2,35.8,83,36.8,83z"/>
	<path d="M25.4,83c0.1,0,2.3,0,2.4,0c0.9-0.1,1.5-0.8,1.5-1.7s-0.6-1.6-1.5-1.8c-0.1,0-2.3,0-2.4,0c-1,0-1.8,0.8-1.8,1.8
		C23.6,82.2,24.4,83,25.4,83z"/>
	<path d="M36.8,107.5c0.1,0,3.1,0,3.2,0c0.9-0.1,1.5-0.8,1.5-1.7s-0.7-1.6-1.5-1.8c-0.1,0-3.1,0-3.2,0c-1,0-1.8,0.8-1.8,1.8
		C35,106.8,35.8,107.5,36.8,107.5z"/>
	<path d="M25.4,107.5c0.1,0,2.3,0,2.4,0c0.9-0.1,1.5-0.8,1.5-1.7s-0.6-1.6-1.5-1.8c-0.1,0-2.3,0-2.4,0c-1,0-1.8,0.8-1.8,1.8
		C23.6,106.8,24.4,107.5,25.4,107.5z"/>
	<path d="M201.1,23.5c0,1.6-1.3,2.8-2.8,2.8c-1.6,0-2.8-1.3-2.8-2.8c0-1.6,1.3-2.8,2.8-2.8C199.8,20.7,201.1,22,201.1,23.5z"/>
	<path d="M201.1,16.5c0,1.6-1.3,2.8-2.8,2.8c-1.6,0-2.8-1.3-2.8-2.8c0-1.6,1.3-2.8,2.8-2.8C199.8,13.6,201.1,14.9,201.1,16.5z"/>
	<path d="M201.1,23.5c0,1.6-1.3,2.8-2.8,2.8c-1.6,0-2.8-1.3-2.8-2.8c0-1.6,1.3-2.8,2.8-2.8C199.8,20.7,201.1,22,201.1,23.5z"/>
	<path d="M201.1,16.5c0,1.6-1.3,2.8-2.8,2.8c-1.6,0-2.8-1.3-2.8-2.8c0-1.6,1.3-2.8,2.8-2.8C199.8,13.6,201.1,14.9,201.1,16.5z"/>
	<path d="M201.1,37.7c0,1.6-1.3,2.8-2.8,2.8c-1.6,0-2.8-1.3-2.8-2.8c0-1.6,1.3-2.8,2.8-2.8C199.8,34.9,201.1,36.2,201.1,37.7z"/>
	<path d="M201.1,30.6c0,1.6-1.3,2.8-2.8,2.8c-1.6,0-2.8-1.3-2.8-2.8c0-1.6,1.3-2.8,2.8-2.8C199.8,27.8,201.1,29.1,201.1,30.6z"/>
	<path d="M201.1,37.7c0,1.6-1.3,2.8-2.8,2.8c-1.6,0-2.8-1.3-2.8-2.8c0-1.6,1.3-2.8,2.8-2.8C199.8,34.9,201.1,36.2,201.1,37.7z"/>
	<path d="M201.1,30.6c0,1.6-1.3,2.8-2.8,2.8c-1.6,0-2.8-1.3-2.8-2.8c0-1.6,1.3-2.8,2.8-2.8C199.8,27.8,201.1,29.1,201.1,30.6z"/>
	<path d="M108.6,259.9c0-1.7,1.4-3.1,3.1-3.1s3.1,1.4,3.1,3.1c0,1.7-1.4,3.1-3.1,3.1C110,263,108.6,261.6,108.6,259.9z"/>
	<path d="M116.3,259.9c0-1.7,1.4-3.1,3.1-3.1s3.1,1.4,3.1,3.1c0,1.7-1.4,3.1-3.1,3.1C117.7,263,116.3,261.6,116.3,259.9z"/>
	<circle cx="127.4" cy="259.9" r="3.1"/>
	<path d="M132.2,259.9c0-1.7,1.4-3.1,3.1-3.1c1.7,0,3.1,1.4,3.1,3.1c0,1.7-1.4,3.1-3.1,3.1C133.6,263,132.2,261.6,132.2,259.9z"/>
	<path d="M104.8,252.7c0-1.7,1.4-3.1,3.1-3.1s3.1,1.4,3.1,3.1c0,1.7-1.4,3.1-3.1,3.1S104.8,254.4,104.8,252.7z"/>
	<path d="M112.6,252.7c0-1.7,1.4-3.1,3.1-3.1c1.7,0,3.1,1.4,3.1,3.1c0,1.7-1.4,3.1-3.1,3.1C114,255.8,112.6,254.4,112.6,252.7z"/>
	<path d="M120.3,252.7c0-1.7,1.4-3.1,3.1-3.1s3.1,1.4,3.1,3.1c0,1.7-1.4,3.1-3.1,3.1C121.7,255.8,120.3,254.4,120.3,252.7z"/>
	<path d="M128.2,252.7c0-1.7,1.4-3.1,3.1-3.1c1.7,0,3.1,1.4,3.1,3.1c0,1.7-1.4,3.1-3.1,3.1C129.6,255.8,128.2,254.4,128.2,252.7z"/>
	<path d="M136.2,252.7c0-1.7,1.4-3.1,3.1-3.1s3.1,1.4,3.1,3.1c0,1.7-1.4,3.1-3.1,3.1S136.2,254.4,136.2,252.7z"/>
	<path d="M140.2,260c0-1.7,1.4-3.1,3.1-3.1s3.1,1.4,3.1,3.1c0,1.7-1.4,3.1-3.1,3.1S140.2,261.7,140.2,260z"/>
	<circle cx="151.3" cy="260" r="3.1"/>
	<path d="M156.1,260c0-1.7,1.4-3.1,3.1-3.1c1.7,0,3.1,1.4,3.1,3.1c0,1.7-1.4,3.1-3.1,3.1C157.5,263.1,156.1,261.7,156.1,260z"/>
	<path d="M144.1,252.8c0-1.7,1.4-3.1,3.1-3.1s3.1,1.4,3.1,3.1c0,1.7-1.4,3.1-3.1,3.1C145.5,255.9,144.1,254.5,144.1,252.8z"/>
	<path d="M152.1,252.8c0-1.7,1.4-3.1,3.1-3.1c1.7,0,3.1,1.4,3.1,3.1c0,1.7-1.4,3.1-3.1,3.1C153.5,255.9,152.1,254.5,152.1,252.8z"/>
	<path d="M160.1,252.8c0-1.7,1.4-3.1,3.1-3.1s3.1,1.4,3.1,3.1c0,1.7-1.4,3.1-3.1,3.1C161.4,255.9,160.1,254.5,160.1,252.8z"/>
	<circle cx="182.8" cy="255.9" r="7.1"/>
	<path d="M77.1,259.9c0-1.7,1.4-3.1,3.1-3.1s3.1,1.4,3.1,3.1c0,1.7-1.4,3.1-3.1,3.1C78.5,263,77.1,261.6,77.1,259.9z"/>
	<path d="M84.8,259.9c0-1.7,1.4-3.1,3.1-3.1s3.1,1.4,3.1,3.1c0,1.7-1.4,3.1-3.1,3.1C86.2,263,84.8,261.6,84.8,259.9z"/>
	<circle cx="95.9" cy="259.9" r="3.1"/>
	<path d="M100.7,259.9c0-1.7,1.4-3.1,3.1-3.1c1.7,0,3.1,1.4,3.1,3.1c0,1.7-1.4,3.1-3.1,3.1C102.1,263,100.7,261.6,100.7,259.9z"/>
	<path d="M73.2,252.7c0-1.7,1.4-3.1,3.1-3.1s3.1,1.4,3.1,3.1c0,1.7-1.4,3.1-3.1,3.1C74.6,255.8,73.2,254.4,73.2,252.7z"/>
	<path d="M81.1,252.7c0-1.7,1.4-3.1,3.1-3.1c1.7,0,3.1,1.4,3.1,3.1c0,1.7-1.4,3.1-3.1,3.1C82.5,255.8,81.1,254.4,81.1,252.7z"/>
	<path d="M88.7,252.6c0-1.7,1.4-3.1,3.1-3.1s3.1,1.4,3.1,3.1c0,1.7-1.4,3.1-3.1,3.1S88.7,254.4,88.7,252.6z"/>
	<path d="M96.7,252.6c0-1.7,1.4-3.1,3.1-3.1c1.7,0,3.1,1.4,3.1,3.1c0,1.7-1.4,3.1-3.1,3.1C98.1,255.8,96.7,254.4,96.7,252.6z"/>
	<path d="M69.2,259.9c0-1.7,1.4-3.1,3.1-3.1s3.1,1.4,3.1,3.1c0,1.7-1.4,3.1-3.1,3.1C70.6,263,69.2,261.6,69.2,259.9z"/>
	<path d="M65.3,252.7c0-1.7,1.4-3.1,3.1-3.1s3.1,1.4,3.1,3.1c0,1.7-1.4,3.1-3.1,3.1C66.7,255.8,65.3,254.4,65.3,252.7z"/>
	<circle cx="48.9" cy="255.9" r="7.1"/>
	<circle cx="115.1" cy="148.9" r="0.9"/>
	<circle cx="90.8" cy="141.7" r="0.9"/>
	<circle cx="90.8" cy="137.7" r="0.9"/>
	<circle cx="103.8" cy="119.3" r="0.8"/>
	<circle cx="115.1" cy="119.3" r="0.8"/>
	<circle cx="124.8" cy="134.7" r="0.9"/>
	<circle cx="124.8" cy="138.7" r="0.9"/>
	<circle cx="124.8" cy="143.7" r="0.9"/>
	<circle cx="124.8" cy="147.7" r="0.9"/>
	<circle cx="123.1" cy="153.5" r="0.9"/>
	<circle cx="104.8" cy="148.9" r="0.9"/>
	<circle cx="130" cy="201.2" r="0.9"/>
	<circle cx="129.5" cy="183.4" r="0.9"/>
	<circle cx="129.5" cy="210.3" r="0.9"/>
	<circle cx="129.5" cy="217.4" r="0.9"/>
	<circle cx="129.5" cy="224.5" r="0.9"/>
	<circle cx="107.9" cy="265.3" r="0.9"/>
	<circle cx="97.4" cy="264.5" r="0.9"/>
	<circle cx="111.8" cy="270.5" r="0.9"/>
	<circle cx="173" cy="243.8" r="0.9"/>
	<circle cx="71.4" cy="135.3" r="0.9"/>
	<circle cx="71.4" cy="140" r="0.9"/>
	<circle cx="90.6" cy="119.4" r="0.8"/>
	<circle cx="92.7" cy="119.4" r="0.8"/>
	<circle cx="90.6" cy="114.4" r="0.8"/>
	<circle cx="92.7" cy="115.4" r="0.8"/>
	<line class="st1" x1="90.6" y1="119.4" x2="90.6" y2="114.4"/>
	<line class="st1" x1="92.7" y1="115.4" x2="92.7" y2="119.4"/>
	<circle cx="71.4" cy="130.6" r="0.9"/>
	<circle cx="109.8" cy="60.7" r="0.8"/>
	<circle cx="113.8" cy="47.1" r="0.8"/>
	<circle cx="109.8" cy="47.1" r="0.8"/>
	<circle cx="111.7" cy="61.7" r="0.8"/>
	<circle cx="113.5" cy="62.7" r="0.8"/>
	<circle cx="115.4" cy="63.7" r="0.8"/>
	<circle cx="117.2" cy="64.7" r="0.8"/>
	<circle cx="119.1" cy="65.7" r="0.8"/>
	<circle cx="120.9" cy="66.7" r="0.8"/>
	<circle cx="122.8" cy="67.7" r="0.8"/>
	<circle cx="126.9" cy="47" r="0.8"/>
	<circle cx="130.9" cy="47" r="0.9"/>
	<circle cx="134.9" cy="47" r="0.9"/>
	<circle cx="138.9" cy="47" r="0.9"/>
	<circle cx="142.9" cy="47" r="0.9"/>
	<circle cx="146.9" cy="47" r="0.9"/>
	<circle cx="150.9" cy="47" r="0.9"/>
	<circle cx="154.9" cy="47" r="0.9"/>
	<circle cx="105.8" cy="47.1" r="0.8"/>
	<circle cx="101.8" cy="43.1" r="0.8"/>
	<circle cx="97.8" cy="43.1" r="0.8"/>
	<circle cx="93.8" cy="47.1" r="0.8"/>
	<circle cx="89.8" cy="47.1" r="0.8"/>
	<circle cx="85.8" cy="47.1" r="0.8"/>
	<circle cx="151.1" cy="56.3" r="0.9"/>
	<circle cx="104" cy="69.5" r="0.8"/>
	<circle cx="165.9" cy="67.7" r="0.9"/>
	<polyline class="st1" points="122.9,67.5 123.7,66.7 163.5,66.7 168.2,62 178.9,62 181.4,59.5 	"/>
	<polyline class="st1" points="111.7,61.7 110.8,62.5 109.7,62.5 108.1,60.9 108.1,51.4 109.8,49.7 109.8,47.1 	"/>
	<polyline class="st1" points="113.5,62.7 112.7,63.5 109.2,63.5 107.1,61.4 107.1,49.6 105.8,48.3 105.8,47.1 	"/>
	<polyline class="st1" points="115.4,63.7 114.5,64.5 108.8,64.5 106.1,61.8 106.1,50 101.8,45.7 101.8,43.1 	"/>
	<polyline class="st1" points="117.2,64.7 116.3,65.5 108.5,65.5 105.2,62.2 105.2,50.5 98.1,43.4 	"/>
	<polyline class="st1" points="119.1,65.7 118.2,66.5 108.1,66.5 104.2,62.7 104.2,50.9 101.2,47.9 94.6,47.9 93.9,47.2 	"/>
	<polyline class="st1" points="120.9,66.7 120,67.5 107.7,67.5 103.2,63.1 103.2,51.3 100.8,48.9 91.6,48.9 89.8,47.1 	"/>
	<polyline class="st1" points="122.8,67.7 121.9,68.5 107.3,68.5 102.3,63.5 102.3,51.7 100.4,49.8 88.5,49.8 85.8,47.1 	"/>
	<polyline class="st1" points="109.8,60.7 109,59.8 109,51.8 113.9,46.9 	"/>
	<polyline class="st1" points="104.1,69.5 123,69.5 124.8,67.7 165.4,67.7 	"/>
	<circle cx="145.3" cy="70.3" r="0.9"/>
	<line class="st1" x1="145.3" y1="70.3" x2="145.3" y2="67.7"/>
	<line class="st1" x1="151.1" y1="56.3" x2="151.1" y2="54.8"/>
	<circle cx="130" cy="196.3" r="0.9"/>
	<path d="M153.3,231.1c0,1.6-1.3,2.8-2.8,2.8c-1.6,0-2.8-1.3-2.8-2.8c0-1.6,1.3-2.8,2.8-2.8C152,228.2,153.3,229.5,153.3,231.1z"/>
	<path d="M146.1,231.1c0,1.6-1.3,2.8-2.8,2.8c-1.6,0-2.8-1.3-2.8-2.8c0-1.6,1.3-2.8,2.8-2.8C144.8,228.3,146.1,229.5,146.1,231.1z"
		/>
	<path d="M153.3,223.9c0,1.6-1.3,2.8-2.8,2.8c-1.6,0-2.8-1.3-2.8-2.8c0-1.6,1.3-2.8,2.8-2.8C152,221.1,153.3,222.3,153.3,223.9z"/>
	<path d="M153.3,216.7c0,1.6-1.3,2.8-2.8,2.8c-1.6,0-2.8-1.3-2.8-2.8c0-1.6,1.3-2.8,2.8-2.8C152,213.9,153.3,215.1,153.3,216.7z"/>
	<path d="M146.1,223.9c0,1.6-1.3,2.8-2.8,2.8c-1.6,0-2.8-1.3-2.8-2.8c0-1.6,1.3-2.8,2.8-2.8C144.8,221.1,146.1,222.3,146.1,223.9z"
		/>
	<path d="M146.1,216.7c0,1.6-1.3,2.8-2.8,2.8c-1.6,0-2.8-1.3-2.8-2.8c0-1.6,1.3-2.8,2.8-2.8C144.8,213.9,146.1,215.1,146.1,216.7z"
		/>
	<path d="M153.3,209.5c0,1.6-1.3,2.8-2.8,2.8c-1.6,0-2.8-1.3-2.8-2.8c0-1.6,1.3-2.8,2.8-2.8C152,206.7,153.3,207.9,153.3,209.5z"/>
	<path d="M153.3,202.3c0,1.6-1.3,2.8-2.8,2.8c-1.6,0-2.8-1.3-2.8-2.8c0-1.6,1.3-2.8,2.8-2.8C152,199.5,153.3,200.7,153.3,202.3z"/>
	<path d="M146.1,209.5c0,1.6-1.3,2.8-2.8,2.8c-1.6,0-2.8-1.3-2.8-2.8c0-1.6,1.3-2.8,2.8-2.8C144.8,206.7,146.1,207.9,146.1,209.5z"
		/>
	<path d="M146.1,202.3c0,1.6-1.3,2.8-2.8,2.8c-1.6,0-2.8-1.3-2.8-2.8c0-1.6,1.3-2.8,2.8-2.8C144.8,199.5,146.1,200.7,146.1,202.3z"
		/>
	<path d="M153.3,231.1c0,1.6-1.3,2.8-2.8,2.8c-1.6,0-2.8-1.3-2.8-2.8c0-1.6,1.3-2.8,2.8-2.8C152,228.2,153.3,229.5,153.3,231.1z"/>
	<path d="M146.1,231.1c0,1.6-1.3,2.8-2.8,2.8c-1.6,0-2.8-1.3-2.8-2.8c0-1.6,1.3-2.8,2.8-2.8C144.8,228.3,146.1,229.5,146.1,231.1z"
		/>
	<path d="M153.3,223.9c0,1.6-1.3,2.8-2.8,2.8c-1.6,0-2.8-1.3-2.8-2.8c0-1.6,1.3-2.8,2.8-2.8C152,221.1,153.3,222.3,153.3,223.9z"/>
	<path d="M153.3,216.7c0,1.6-1.3,2.8-2.8,2.8c-1.6,0-2.8-1.3-2.8-2.8c0-1.6,1.3-2.8,2.8-2.8C152,213.9,153.3,215.1,153.3,216.7z"/>
	<path d="M146.1,223.9c0,1.6-1.3,2.8-2.8,2.8c-1.6,0-2.8-1.3-2.8-2.8c0-1.6,1.3-2.8,2.8-2.8C144.8,221.1,146.1,222.3,146.1,223.9z"
		/>
	<path d="M146.1,216.7c0,1.6-1.3,2.8-2.8,2.8c-1.6,0-2.8-1.3-2.8-2.8c0-1.6,1.3-2.8,2.8-2.8C144.8,213.9,146.1,215.1,146.1,216.7z"
		/>
	<path d="M153.3,209.5c0,1.6-1.3,2.8-2.8,2.8c-1.6,0-2.8-1.3-2.8-2.8c0-1.6,1.3-2.8,2.8-2.8C152,206.7,153.3,207.9,153.3,209.5z"/>
	<path d="M153.3,202.3c0,1.6-1.3,2.8-2.8,2.8c-1.6,0-2.8-1.3-2.8-2.8c0-1.6,1.3-2.8,2.8-2.8C152,199.5,153.3,200.7,153.3,202.3z"/>
	<path d="M146.1,209.5c0,1.6-1.3,2.8-2.8,2.8c-1.6,0-2.8-1.3-2.8-2.8c0-1.6,1.3-2.8,2.8-2.8C144.8,206.7,146.1,207.9,146.1,209.5z"
		/>
	<path d="M146.1,202.3c0,1.6-1.3,2.8-2.8,2.8c-1.6,0-2.8-1.3-2.8-2.8c0-1.6,1.3-2.8,2.8-2.8C144.8,199.5,146.1,200.7,146.1,202.3z"
		/>
	<circle cx="135.6" cy="209.5" r="0.9"/>
	<circle cx="134.6" cy="211.9" r="0.9"/>
	<circle cx="133.6" cy="214.2" r="0.9"/>
	<circle cx="132" cy="226.1" r="0.9"/>
	<circle cx="132.8" cy="220.7" r="0.9"/>
	<circle cx="127" cy="69.2" r="0.8"/>
	<circle cx="127" cy="72.5" r="0.8"/>
	<circle cx="128.2" cy="80.1" r="0.9"/>
	<circle cx="135.5" cy="174.9" r="0.9"/>
	<circle cx="154.1" cy="190" r="0.9"/>
	<circle cx="154" cy="173.6" r="0.9"/>
	<circle cx="156" cy="170.6" r="0.9"/>
	<circle cx="160.5" cy="130.6" r="0.9"/>
	<circle cx="160.6" cy="140.3" r="0.9"/>
	<circle cx="158.1" cy="117.7" r="0.9"/>
	<circle cx="135.4" cy="178.3" r="0.9"/>
	<circle cx="137.5" cy="170.4" r="0.9"/>
	<circle cx="99.3" cy="119.8" r="0.8"/>
	<circle cx="99.3" cy="117.6" r="0.8"/>
	<circle cx="128.1" cy="122.3" r="0.9"/>
	<circle cx="132.1" cy="122.3" r="0.9"/>
	<line class="st1" x1="143.3" y1="209.5" x2="135.6" y2="209.5"/>
	<line class="st1" x1="133.6" y1="214.2" x2="143.2" y2="223.8"/>
	<polyline class="st1" points="134.6,211.9 139.4,216.7 143.5,216.7 	"/>
	<polyline class="st1" points="132,226.1 140.6,234.7 146.9,234.7 150.5,231.1 	"/>
	<polyline class="st1" points="132.8,220.7 139.6,227.5 146.9,227.5 149.9,224.6 	"/>
	<line class="st1" x1="127" y1="69.2" x2="127" y2="72.5"/>
	<polyline class="st1" points="154.1,173.6 154.9,172.7 155.9,172.7 161.6,167 161.6,141.4 160.6,140.4 	"/>
	<polyline class="st1" points="154.1,190.3 154.1,188.8 154.6,188.3 154.6,175.4 162.6,167.4 162.6,132.7 160.6,130.7 	"/>
	<polyline class="st1" points="156.2,170.5 156.9,169.8 157.5,169.8 160.6,166.7 160.6,142.4 158.1,139.9 158.1,117.6 	"/>
	<polyline class="st1" points="99.3,119.8 101.3,121.7 126.2,121.7 126.9,122.4 128.2,122.4 	"/>
	<polyline class="st1" points="99.3,117.6 100.8,119.1 100.8,120 101.7,120.8 130.5,120.8 132.2,122.4 	"/>
	<polyline class="st2" points="124.8,143.7 92.8,143.7 90.7,141.7 	"/>
	<polyline class="st2" points="124.8,134.7 122.3,137.2 122.3,143.5 	"/>
	<line class="st3" x1="140.2" y1="32" x2="140.2" y2="27.2"/>
	<circle cx="183.2" cy="237.7" r="1.1"/>
	<circle cx="181.2" cy="237.7" r="1.1"/>
	<circle cx="179.2" cy="237.7" r="1.1"/>
	<circle cx="195.8" cy="145.7" r="1.1"/>
	<circle cx="195.8" cy="143.7" r="1.1"/>
	<circle cx="44.3" cy="36.8" r="1.1"/>
	<circle cx="44.3" cy="34.8" r="1.1"/>
	<circle cx="44.3" cy="32.8" r="1.1"/>
	<polyline class="st3" points="179.1,237.7 183.2,237.7 195.7,225.2 195.7,117.3 203.5,109.5 203.5,49.5 191.3,37.3 191.3,30.8 
		187.6,27.1 47.5,27.1 44.3,30.3 44.3,36.8 	"/>
	<circle cx="115.9" cy="163.9" r="0.9"/>
	<circle cx="106.9" cy="163.9" r="0.9"/>
	<line class="st1" x1="115.9" y1="163.9" x2="106.9" y2="163.9"/>
	<circle cx="114.4" cy="162.4" r="0.9"/>
	<circle cx="140.3" cy="162.4" r="0.9"/>
	<circle cx="151.2" cy="153.6" r="0.9"/>
	<polyline class="st1" points="140.3,162.4 149.1,153.6 151.2,153.6 	"/>
	<circle cx="74.1" cy="156" r="2.1"/>
	<circle cx="74.1" cy="150.3" r="2.1"/>
	<circle cx="74.1" cy="144.7" r="2.1"/>
	<circle cx="94.8" cy="148.9" r="0.9"/>
	<circle cx="50.3" cy="79.7" r="0.8"/>
	<circle cx="42.9" cy="79.7" r="0.8"/>
	<line class="st1" x1="42.9" y1="79.7" x2="50.4" y2="79.7"/>
	<circle cx="59.3" cy="170.7" r="0.9"/>
	<circle cx="60.8" cy="172.2" r="0.9"/>
	<line class="st1" x1="59.3" y1="170.7" x2="36.7" y2="170.7"/>
	<circle cx="36.6" cy="170.7" r="0.9"/>
	<circle cx="117.5" cy="165.5" r="0.9"/>
	<circle cx="105.3" cy="165.5" r="0.9"/>
	<line class="st1" x1="105.3" y1="165.5" x2="117.5" y2="165.5"/>
	<polyline class="st1" points="60.7,172.2 58.7,172.2 58.1,171.6 37.7,171.6 36.5,172.8 	"/>
	<circle cx="36.6" cy="172.7" r="0.9"/>
	<circle cx="33.3" cy="177.2" r="0.9"/>
	<circle cx="65.8" cy="177.2" r="0.9"/>
	<circle cx="67.4" cy="178.7" r="0.9"/>
	<line class="st1" x1="65.8" y1="177.2" x2="33.3" y2="177.2"/>
	<polyline class="st1" points="67.3,178.7 65.2,178.7 64.7,178.2 34.3,178.2 33.2,179.3 	"/>
	<circle cx="33.3" cy="179.2" r="0.9"/>
	<circle cx="97.9" cy="162.9" r="0.9"/>
	<polyline class="st1" points="114.4,162.4 103.2,162.4 102.7,162.9 98,162.9 	"/>
	<circle cx="36.6" cy="174.7" r="0.9"/>
	<circle cx="62.4" cy="173.7" r="0.9"/>
	<circle cx="70.1" cy="95.2" r="0.8"/>
	<circle cx="70.1" cy="102.3" r="0.8"/>
	<line class="st1" x1="70.1" y1="102.4" x2="70.1" y2="95.2"/>
	<polyline class="st1" points="36.6,174.7 38.6,172.6 57.7,172.6 58.8,173.7 61.9,173.7 	"/>
	<circle cx="114.4" cy="160" r="0.9"/>
	<circle cx="114.4" cy="157.6" r="0.9"/>
	<polyline class="st1" points="114.4,160 113,161.4 100.9,161.4 	"/>
	<circle cx="100.9" cy="161.4" r="0.9"/>
	<circle cx="99.4" cy="159.8" r="0.9"/>
	<polyline class="st1" points="99.4,159.8 101.8,159.8 102.3,160.4 111.6,160.4 114.4,157.6 	"/>
	<circle cx="129.5" cy="155.2" r="0.9"/>
	<circle cx="133.9" cy="155.2" r="0.9"/>
	<line class="st1" x1="129.5" y1="155.2" x2="133.9" y2="155.2"/>
	<circle cx="135.5" cy="153.5" r="0.9"/>
	<circle cx="127.9" cy="153.5" r="0.9"/>
	<line class="st1" x1="127.9" y1="153.5" x2="127.9" y2="169.5"/>
	<circle cx="127.9" cy="169.5" r="0.9"/>
	<circle cx="129.5" cy="151.8" r="0.9"/>
	<polyline class="st1" points="135.5,153.5 131.1,153.5 129.6,151.9 	"/>
	<circle cx="90.7" cy="166.4" r="0.9"/>
	<polyline class="st1" points="129.5,151.8 127.6,151.8 126.5,152.9 126.5,161.4 118.9,168.9 103.1,168.9 102.6,169.4 100.8,169.4 	
		"/>
	<circle cx="101.9" cy="167.9" r="0.9"/>
	<polyline class="st1" points="136.1,150.4 127.6,150.4 125.5,152.5 125.5,161 118.5,167.9 101.9,167.9 	"/>
	<circle cx="136.1" cy="150.4" r="0.9"/>
	<circle cx="47.5" cy="73.8" r="0.8"/>
	<circle cx="51.9" cy="78.2" r="0.8"/>
	<path class="st4" d="M51.9,78.2"/>
	<line class="st1" x1="51.9" y1="78.2" x2="47.5" y2="73.8"/>
	<circle cx="97.8" cy="114.6" r="0.8"/>
	<polyline class="st1" points="97.8,114.6 97.8,120.4 100.1,122.7 125.8,122.7 136.1,133 136.1,138.4 	"/>
	<circle cx="136.1" cy="138.5" r="0.9"/>
	<polyline class="st1" points="137.4,148.8 135.4,148.8 134.8,149.4 127.2,149.4 124.5,152.1 124.5,160.6 118.1,167 103.3,167 
		102.7,166.4 90.7,166.4 	"/>
	<circle cx="138" cy="148.8" r="0.9"/>
	<circle cx="100.4" cy="169.4" r="0.9"/>
	<circle cx="74.2" cy="128.2" r="0.9"/>
	<line class="st1" x1="135.5" y1="174.9" x2="135.5" y2="178.3"/>
	<circle cx="141.2" cy="138.2" r="0.9"/>
	<circle cx="132.1" cy="118.1" r="0.9"/>
	<circle cx="128.2" cy="82.1" r="0.9"/>
	<circle cx="67.4" cy="53" r="0.8"/>
	<polygon points="136.3,128.1 136.3,120.6 132.9,117.2 104.6,117.2 102.6,115.2 102.6,112.4 81.2,91 81.2,84.6 82.7,83.1 95.2,83.1 
		99.2,87.1 106.8,87.1 110.8,83.1 128.6,83.1 129.2,82.4 129.2,79.6 128.6,78.9 109.4,78.9 105.4,82.9 100.8,82.9 96.8,78.9 
		82.5,78.9 81.2,77.6 81.2,63.9 80.5,63.2 69.1,63.2 68.4,63.9 68.4,83.4 99,114 99,115.7 103.5,120.2 131.6,120.2 133.3,121.8 
		133.3,129.1 136.9,132.7 136.9,137.5 137.3,137.9 137.3,139.1 136.7,139.8 127.1,139.8 125.1,137.9 124.4,137.9 123.9,138.4 
		123.9,141 126,143.1 126,144.2 125.2,145 92.2,145 89.5,142.4 89.5,140.2 91.6,138.1 91.6,137.4 91.1,136.8 84.1,136.8 74.6,127.3 
		73.5,127.3 70.5,130.3 70.5,131 71,131.5 72.3,131.5 81.2,140.4 83.7,140.4 84.6,141.2 84.6,143.8 90.6,149.8 118.1,149.8 
		122.7,154.4 123.3,154.4 123.7,154 123.7,151.7 131.5,143.8 145.1,143.8 147.1,145.8 147.1,149.8 136.6,160.2 136.6,178.9 
		136.1,179.4 132.2,179.4 128.6,183.1 128.6,224.7 129.3,225.3 130.3,225.3 130.9,224.7 133.9,224.7 130.9,221.8 130.9,184.3 
		133.3,181.9 137.6,181.9 139,180.5 139,161.8 139.8,161.1 140.6,161.1 142.4,159.2 150.4,151.2 150.4,142.3 	"/>
	<circle cx="96.3" cy="80.1" r="0.8"/>
	<polyline class="st1" points="67.4,53 69.2,54.9 69.2,63.9 	"/>
	<polyline class="st2" points="143,231.2 140.1,231.2 130.1,221.1 	"/>
	<line class="st5" x1="150.6" y1="220.4" x2="150.6" y2="197.1"/>
	<line class="st5" x1="146.9" y1="202.2" x2="154.2" y2="202.2"/>
	<line class="st5" x1="146.9" y1="209.5" x2="154.4" y2="209.5"/>
	<line class="st5" x1="146.8" y1="216.7" x2="154.3" y2="216.7"/>
	<line class="st3" x1="182.8" y1="255.9" x2="194.9" y2="255.9"/>
	<line class="st3" x1="38.4" y1="255.9" x2="63.4" y2="255.9"/>
	<line class="st3" x1="48.9" y1="264.8" x2="48.9" y2="246.6"/>
	<line class="st3" x1="182.8" y1="265.2" x2="182.8" y2="246.6"/>
	<line class="st5" x1="70.4" y1="150.3" x2="78.1" y2="150.3"/>
	<line class="st5" x1="74.1" y1="153.1" x2="74.1" y2="147.5"/>
	<line class="st5" x1="43.1" y1="105.8" x2="21.8" y2="105.8"/>
	<line class="st5" x1="38.4" y1="105.8" x2="38.4" y2="109.1"/>
	<line class="st5" x1="26.5" y1="101.9" x2="26.5" y2="109.2"/>
	<line class="st5" x1="22.2" y1="81.3" x2="38.2" y2="81.3"/>
	<line class="st5" x1="26.5" y1="84.2" x2="26.5" y2="77.4"/>
	<line class="st5" x1="38.3" y1="81.3" x2="38.3" y2="77.8"/>
	<line class="st5" x1="24.7" y1="69.6" x2="33.3" y2="69.6"/>
	<line class="st5" x1="29.5" y1="66" x2="29.5" y2="73.4"/>
	<line class="st5" x1="80.7" y1="37.7" x2="120.3" y2="37.7"/>
	<line class="st5" x1="126.1" y1="37.7" x2="143" y2="37.7"/>
	<line class="st5" x1="151.5" y1="37.7" x2="151.5" y2="43.2"/>
	<line class="st5" x1="162.9" y1="37.7" x2="162.9" y2="41.7"/>
	<line class="st5" x1="174.2" y1="37.7" x2="179.9" y2="37.7"/>
	<line class="st5" x1="193.7" y1="23.5" x2="203.7" y2="23.5"/>
	<line class="st5" x1="194.1" y1="30.6" x2="203.3" y2="30.6"/>
	<line class="st5" x1="198.3" y1="20" x2="198.3" y2="34.2"/>
	<line class="st5" x1="148.7" y1="37.7" x2="154.4" y2="37.7"/>
	<line class="st5" x1="160.1" y1="37.7" x2="165.7" y2="37.7"/>
	<line class="st5" x1="140.2" y1="34.9" x2="140.2" y2="40.8"/>
	<line class="st5" x1="134.5" y1="34.9" x2="134.5" y2="40.8"/>
	<line class="st5" x1="128.9" y1="34.9" x2="128.9" y2="41.3"/>
	<line class="st5" x1="117.5" y1="34.9" x2="117.5" y2="40.9"/>
	<line class="st5" x1="111.9" y1="34.9" x2="111.9" y2="40.9"/>
	<line class="st5" x1="106.2" y1="34.9" x2="106.2" y2="40.9"/>
	<line class="st5" x1="100.5" y1="34.9" x2="100.5" y2="41"/>
	<line class="st5" x1="94.8" y1="34.9" x2="94.8" y2="41.2"/>
	<line class="st5" x1="89.2" y1="34.9" x2="89.2" y2="40.9"/>
	<line class="st5" x1="83.5" y1="28.9" x2="83.5" y2="41.1"/>
	<line class="st5" x1="80.7" y1="32" x2="86.3" y2="32"/>
	<circle cx="129.4" cy="147.7" r="0.9"/>
	<path d="M32.3,62.4c0,1.6-1.3,2.8-2.8,2.8c-1.6,0-2.8-1.3-2.8-2.8c0-1.6,1.3-2.8,2.8-2.8C31,59.5,32.3,60.8,32.3,62.4z"/>
	<path d="M198.3,19.9c1.9,0,3.4-1.5,3.4-3.4c0-1.9-1.5-3.4-3.4-3.4c-1.9,0-3.4,1.5-3.4,3.4C194.9,18.3,196.4,19.9,198.3,19.9z
		 M198.3,27.2c-1.9,0-3.4,1.5-3.4,3.4c0,1.9,1.5,3.4,3.4,3.4c1.9,0,3.4-1.5,3.4-3.4C201.7,28.8,200.1,27.2,198.3,27.2z M198.3,20.1
		c-1.9,0-3.4,1.5-3.4,3.4c0,1.9,1.5,3.4,3.4,3.4c1.9,0,3.4-1.5,3.4-3.4C201.7,21.7,200.1,20.1,198.3,20.1z M160.2,32
		c0,1.5,1.2,2.7,2.7,2.7c1.5,0,2.7-1.2,2.7-2.7c0-1.5-1.2-2.7-2.7-2.7C161.4,29.4,160.2,30.6,160.2,32z M162.9,35
		c-1.5,0-2.7,1.2-2.7,2.7c0,1.5,1.2,2.7,2.7,2.7c1.5,0,2.7-1.2,2.7-2.7C165.6,36.2,164.4,35,162.9,35z M154.5,32
		c0,1.5,1.2,2.7,2.7,2.7c1.5,0,2.7-1.2,2.7-2.7c0-1.5-1.2-2.7-2.7-2.7C155.7,29.4,154.5,30.6,154.5,32z M157.2,35
		c-1.5,0-2.7,1.2-2.7,2.7c0,1.5,1.2,2.7,2.7,2.7c1.5,0,2.7-1.2,2.7-2.7C159.9,36.2,158.7,35,157.2,35z M148.9,32
		c0,1.5,1.2,2.7,2.7,2.7c1.5,0,2.7-1.2,2.7-2.7c0-1.5-1.2-2.7-2.7-2.7C150.1,29.4,148.9,30.6,148.9,32z M151.5,35
		c-1.5,0-2.7,1.2-2.7,2.7c0,1.5,1.2,2.7,2.7,2.7c1.5,0,2.7-1.2,2.7-2.7C154.2,36.2,153,35,151.5,35z M145.9,35
		c-1.5,0-2.7,1.2-2.7,2.7c0,1.5,1.2,2.7,2.7,2.7c1.5,0,2.7-1.2,2.7-2.7C148.6,36.2,147.4,35,145.9,35z M143.2,32
		c0,1.5,1.2,2.7,2.7,2.7c1.5,0,2.7-1.2,2.7-2.7c0-1.5-1.2-2.7-2.7-2.7C144.4,29.4,143.2,30.6,143.2,32z M137.5,32
		c0,1.5,1.2,2.7,2.7,2.7c1.5,0,2.7-1.2,2.7-2.7c0-0.9-0.4-1.7-1.1-2.2v-1.2h30.6l-1.7,1.7c-0.5-0.6-1.2-1-2.1-1
		c-1.5,0-2.7,1.2-2.7,2.7c0,1.5,1.2,2.7,2.7,2.7c0.8,0,1.5-0.3,2-0.9v0.7l-0.8,0.8c-0.4-0.2-0.8-0.3-1.2-0.3c-1.5,0-2.7,1.2-2.7,2.7
		c0,1.1,0.7,2.1,1.7,2.5l-7,7h-4.2c0-0.1,0-0.2,0-0.2c0-0.8-0.6-1.4-1.4-1.4s-1.4,0.6-1.4,1.4c0,0.5,0.2,0.9,0.6,1.2h-0.9l-0.9-0.9
		c0-0.1,0-0.2,0-0.2c0-0.8-0.6-1.4-1.4-1.4c-0.6,0-1.1,0.4-1.3,0.9l-1.7-1.7H144l-0.8,0.8c-0.1,0-0.2,0-0.3,0
		c-0.8,0-1.4,0.6-1.4,1.4s0.6,1.4,1.4,1.4s1.4-0.6,1.4-1.4c0-0.1,0-0.2,0-0.2l0.4-0.4h0.9c-0.1,0.2-0.1,0.4-0.1,0.6
		c0,0.8,0.6,1.4,1.4,1.4c0.1,0,0.2,0,0.2,0l2.6,2.7h-5.7l-3.8-3.8c0-0.1,0-0.1,0-0.2c0-0.8-0.6-1.4-1.4-1.4c-0.6,0-1.1,0.4-1.3,0.9
		l-1.7-1.7h-3.9l-0.8,0.8c-0.1,0-0.1,0-0.2,0c-0.8,0-1.4,0.6-1.4,1.4s0.6,1.4,1.4,1.4s1.4-0.6,1.4-1.4c0-0.1,0-0.2,0-0.2l0.3-0.3h1
		c-0.1,0.2-0.1,0.4-0.1,0.6c0,0.8,0.6,1.4,1.4,1.4c0.1,0,0.2,0,0.2,0l5.5,5.5H135l-6.7-6.8c0,0,0-0.1,0-0.2c0-0.8-0.6-1.4-1.4-1.4
		s-1.4,0.6-1.4,1.4s0.6,1.4,1.4,1.4c0.1,0,0.2,0,0.3,0l7.2,7.2h15.5c-0.1,0.2-0.2,0.4-0.2,0.7c0,0.8,0.6,1.4,1.4,1.4
		s1.4-0.6,1.4-1.4c0-0.2-0.1-0.5-0.2-0.7h11.1L160,59h-49.7l-0.2,0.2c-0.1,0-0.1,0-0.2,0c0,0,0,0,0,0v-7.1l3.7-3.7
		c0.1,0,0.2,0,0.2,0c0.8,0,1.4-0.6,1.4-1.4s-0.6-1.4-1.4-1.4c-0.8,0-1.4,0.6-1.4,1.4c0,0.1,0,0.2,0,0.2l-1.8,1.8v-0.9
		c0.3-0.3,0.6-0.7,0.6-1.2c0-0.8-0.6-1.4-1.4-1.4c-0.8,0-1.4,0.6-1.4,1.4c0,0.5,0.2,0.9,0.6,1.2v1.1l-1.1,1.1v-1.2l-1.2-1.2
		c0.3-0.3,0.4-0.6,0.4-1c0-0.8-0.6-1.4-1.4-1.4c-0.8,0-1.4,0.6-1.4,1.4c0,0,0,0,0,0.1l-1.8-1.8v-1.1c0.4-0.3,0.6-0.7,0.6-1.2
		c0-0.8-0.6-1.4-1.4-1.4c-0.8,0-1.4,0.6-1.4,1.4c0,0.5,0.2,0.9,0.6,1.2v0.9l-1.8-1.8c0-0.1,0-0.2,0-0.2c0-0.8-0.6-1.4-1.4-1.4
		c-0.8,0-1.4,0.6-1.4,1.4s0.6,1.4,1.4,1.4c0.1,0,0.2,0,0.2,0l2.6,2.6h-5.4c0,0,0,0,0,0c0-0.8-0.6-1.4-1.4-1.4
		c-0.8,0-1.4,0.6-1.4,1.4c0,0.4,0.2,0.7,0.4,1h-0.8l-0.8-0.8c0-0.1,0-0.2,0-0.2c0-0.8-0.6-1.4-1.4-1.4c-0.8,0-1.4,0.6-1.4,1.4
		s0.6,1.4,1.4,1.4c0.1,0,0.2,0,0.2,0l0.5,0.5h-1.7l-1.7-1.7c0-0.1,0-0.2,0-0.2c0-0.8-0.6-1.4-1.4-1.4c-0.8,0-1.4,0.6-1.4,1.4
		s0.6,1.4,1.4,1.4c0.1,0,0.2,0,0.2,0l2.2,2.2h11.9l1.4,1.4v11.9l4.9,4.9h-1.2c-0.2-0.4-0.7-0.6-1.2-0.6c-0.8,0-1.4,0.6-1.4,1.4
		s0.6,1.4,1.4,1.4c0.5,0,0.9-0.2,1.2-0.6h18.2l1.9-1.9h0.6c-0.1,0.2-0.2,0.4-0.2,0.7c0,0.5,0.2,0.9,0.6,1.2v1.1
		c-0.4,0.2-0.6,0.7-0.6,1.2c0,0.8,0.6,1.4,1.4,1.4s1.4-0.6,1.4-1.4c0-0.5-0.2-0.9-0.6-1.2v-1.1c0.4-0.2,0.6-0.7,0.6-1.2
		c0-0.2-0.1-0.5-0.2-0.7h16.2v0.6c-0.4,0.3-0.6,0.7-0.6,1.2c0,0.8,0.6,1.4,1.4,1.4s1.4-0.6,1.4-1.4c0-0.5-0.2-0.9-0.6-1.2v-0.6h18.6
		c0.2,0.4,0.7,0.6,1.1,0.6c0.8,0,1.4-0.6,1.4-1.4s-0.6-1.4-1.4-1.4c-0.5,0-0.9,0.2-1.2,0.6h-0.3l4.1-4.1h2.2v6.5l-8,8v54.5l-0.9-0.9
		c0-0.1,0-0.1,0-0.2c0-0.8-0.6-1.4-1.4-1.4c-0.8,0-1.4,0.6-1.4,1.4s0.6,1.4,1.4,1.4c0.1,0,0.2,0,0.2,0l1,1v6.5
		c-0.3-0.4-0.7-0.6-1.2-0.6c-0.6,0-1.2,0.4-1.3,1l-0.3-0.3v-20.8c0.4-0.2,0.6-0.7,0.6-1.1c0-0.8-0.6-1.4-1.4-1.4s-1.4,0.6-1.4,1.4
		c0,0.5,0.2,0.9,0.6,1.2v21.4l2.5,2.5v23.6l-2.6,2.6h-0.6l-0.3,0.3c-0.1,0-0.2,0-0.3,0c-0.8,0-1.4,0.6-1.4,1.4
		c0,0.6,0.3,1.1,0.8,1.3h-0.9l-0.3,0.3c-0.1,0-0.1,0-0.2,0c-0.8,0-1.4,0.6-1.4,1.4c0,0.7,0.6,1.3,1.3,1.4l-0.1,0.1V188l-0.5,0.5v0.4
		c-0.4,0.3-0.6,0.7-0.6,1.2c0,0.8,0.6,1.4,1.4,1.4c0.2,0,0.5-0.1,0.7-0.2v49.8l-2.2,2.2h-13.3l-3.7,3.7h-7.7l-1.9,1.9h-2.3
		c-0.1,0-0.1,0-0.2,0c-0.1,0-0.1,0-0.2,0h-22.9c-0.2,0-0.3,0-0.5,0s-0.3,0-0.5,0h-6.9c-0.2,0-0.3,0-0.5,0s-0.3,0-0.5,0h-7.1h-7.9
		h-7.9c-2,0-3.7,1.6-3.7,3.7c0,1.7,1.2,3.2,2.8,3.6v5.8l9.7,9.8h30.9l2,2h3.6l1-1h49.8l11.2-11.2V259c1.2,2.7,3.9,4.5,7,4.5
		c4.2,0,7.7-3.4,7.7-7.6s-3.4-7.6-7.7-7.6c-3.1,0-5.8,1.9-7,4.6v-5.2l-2.5-2.5c0.6-0.1,1.1-0.7,1.1-1.4c0-0.5-0.2-0.9-0.6-1.1V241
		l3.7-3.7c-0.1,0.1-0.1,0.3-0.1,0.5c0,0.9,0.8,1.7,1.7,1.7c0.2,0,0.5-0.1,0.7-0.1h0.7c0.2,0.1,0.4,0.1,0.7,0.1
		c0.2,0,0.5-0.1,0.7-0.1h0.7c0.2,0.1,0.4,0.1,0.7,0.1c0.2,0,0.5-0.1,0.7-0.1h0l0,0c0.4-0.2,0.7-0.5,0.9-0.9l12.5-12.5v-79.2
		c0.2-0.3,0.3-0.6,0.3-0.9s-0.1-0.7-0.3-0.9v-0.1c0.2-0.3,0.3-0.6,0.3-0.9s-0.1-0.7-0.3-0.9V118l7.8-7.8V48.9l-7.9-7.9
		c0.4,0.1,0.7,0.2,1.1,0.2c1.9,0,3.4-1.5,3.4-3.4c0-1.9-1.5-3.4-3.4-3.4c-1.9,0-3.4,1.5-3.4,3.4c0,0.4,0.1,0.8,0.2,1.1l-2.2-2.2
		v-6.5l-4.6-4.6H46.8l-4.1,4.1v2.5c-0.1,0.2-0.1,0.4-0.1,0.7c0,0.2,0,0.5,0.1,0.7v0.7c-0.1,0.2-0.1,0.4-0.1,0.7c0,0.2,0,0.5,0.1,0.7
		v0.7c-0.1,0.2-0.1,0.4-0.1,0.7c0,0.9,0.8,1.7,1.7,1.7c0.9,0,1.7-0.8,1.7-1.7c0-0.2,0-0.5-0.1-0.7v-0.7C46,35.3,46,35,46,34.8
		c0-0.2,0-0.5-0.1-0.7v-0.7C46,33.3,46,33,46,32.8c0-0.2,0-0.5-0.1-0.7v-1.2l2.3-2.3h90.5v1.2C138,30.4,137.5,31.1,137.5,32z
		 M140.2,35c-1.5,0-2.7,1.2-2.7,2.7c0,1.5,1.2,2.7,2.7,2.7c1.5,0,2.7-1.2,2.7-2.7C142.9,36.2,141.7,35,140.2,35z M131.8,32
		c0,1.5,1.2,2.7,2.7,2.7c1.5,0,2.7-1.2,2.7-2.7c0-1.5-1.2-2.7-2.7-2.7C133.1,29.4,131.8,30.6,131.8,32z M134.5,35
		c-1.5,0-2.7,1.2-2.7,2.7c0,1.5,1.2,2.7,2.7,2.7c1.5,0,2.7-1.2,2.7-2.7C137.2,36.2,136,35,134.5,35z M128.9,35
		c-1.5,0-2.7,1.2-2.7,2.7c0,1.5,1.2,2.7,2.7,2.7c1.5,0,2.7-1.2,2.7-2.7C131.6,36.2,130.4,35,128.9,35z M126.2,32
		c0,1.5,1.2,2.7,2.7,2.7c1.5,0,2.7-1.2,2.7-2.7c0-1.5-1.2-2.7-2.7-2.7C127.4,29.4,126.2,30.6,126.2,32z M120.5,32
		c0,1.5,1.2,2.7,2.7,2.7c1.5,0,2.7-1.2,2.7-2.7c0-1.5-1.2-2.7-2.7-2.7C121.7,29.4,120.5,30.6,120.5,32z M114.8,32
		c0,1.5,1.2,2.7,2.7,2.7c1.5,0,2.7-1.2,2.7-2.7c0-1.5-1.2-2.7-2.7-2.7C116,29.4,114.8,30.6,114.8,32z M117.5,35
		c-1.5,0-2.7,1.2-2.7,2.7c0,1.5,1.2,2.7,2.7,2.7c1.5,0,2.7-1.2,2.7-2.7C120.2,36.2,119,35,117.5,35z M109.2,32
		c0,1.5,1.2,2.7,2.7,2.7c1.5,0,2.7-1.2,2.7-2.7c0-1.5-1.2-2.7-2.7-2.7C110.4,29.4,109.2,30.6,109.2,32z M111.9,35
		c-1.5,0-2.7,1.2-2.7,2.7c0,1.5,1.2,2.7,2.7,2.7c1.5,0,2.7-1.2,2.7-2.7C114.6,36.2,113.3,35,111.9,35z M108.9,32
		c0-1.5-1.2-2.7-2.7-2.7c-1.5,0-2.7,1.2-2.7,2.7c0,1.5,1.2,2.7,2.7,2.7C107.7,34.7,108.9,33.5,108.9,32z M106.2,35
		c-1.5,0-2.7,1.2-2.7,2.7c0,1.5,1.2,2.7,2.7,2.7c1.5,0,2.7-1.2,2.7-2.7C108.9,36.2,107.7,35,106.2,35z M100.5,34.7
		c1.5,0,2.7-1.2,2.7-2.7c0-1.5-1.2-2.7-2.7-2.7c-1.5,0-2.7,1.2-2.7,2.7C97.8,33.5,99,34.7,100.5,34.7z M99.5,161.2
		c0,0.1,0,0.1,0,0.2c0,0.2,0.1,0.5,0.2,0.7h-0.6c-0.3-0.4-0.7-0.6-1.2-0.6c-0.8,0-1.4,0.6-1.4,1.4c0,0.8,0.6,1.4,1.4,1.4
		c0.5,0,0.9-0.2,1.2-0.6h4l0.5-0.5h2.1c-0.1,0.2-0.2,0.5-0.2,0.7c0,0.1,0,0.1,0,0.2c-0.1,0-0.1,0-0.2,0c-0.8,0-1.4,0.6-1.4,1.4
		c0,0.2,0.1,0.4,0.1,0.6h-0.4l-0.6-0.6H91.9c-0.3-0.4-0.7-0.6-1.2-0.6c-0.8,0-1.4,0.6-1.4,1.4s0.6,1.4,1.4,1.4
		c0.5,0,0.9-0.2,1.2-0.6h8.8c-0.1,0.2-0.2,0.5-0.2,0.7c0,0,0,0.1,0,0.1c0,0-0.1,0-0.1,0c-0.8,0-1.4,0.6-1.4,1.4s0.6,1.4,1.4,1.4
		c0.5,0,0.9-0.2,1.2-0.6h1.3l0.6-0.5h15.8l7.8-7.8v6.4c-0.4,0.3-0.6,0.7-0.6,1.2c0,0.8,0.6,1.4,1.4,1.4s1.4-0.6,1.4-1.4
		c0-0.5-0.2-0.9-0.6-1.1v-11.9c0.2,0.1,0.5,0.2,0.7,0.2c0.5,0,0.9-0.2,1.1-0.6h2.1c0.2,0.4,0.7,0.6,1.1,0.6c0.8,0,1.4-0.6,1.4-1.4
		c0-0.1,0-0.2,0-0.3c0.1,0,0.2,0,0.2,0c0.8,0,1.4-0.6,1.4-1.4s-0.6-1.4-1.4-1.4c-0.5,0-0.9,0.2-1.2,0.6h-2.9l-0.6-0.6
		c0-0.1,0-0.2,0-0.3c0-0.2-0.1-0.4-0.1-0.6h4.2c0.3,0.4,0.7,0.6,1.2,0.6c0.8,0,1.4-0.6,1.4-1.4c0-0.1,0-0.1,0-0.2
		c0.1,0.1,0.3,0.1,0.4,0.1c0.8,0,1.4-0.6,1.4-1.4s-0.6-1.4-1.4-1.4c-0.5,0-0.9,0.2-1.1,0.6h-1.7l-0.6,0.6h-4
		c0.2-0.2,0.3-0.5,0.3-0.8c0-0.6-0.4-1.2-1-1.4l1.9-1.9h13.1l1.6,1.6v3.5L136.1,160v13.7c-0.2-0.1-0.4-0.1-0.6-0.1
		c-0.8,0-1.4,0.6-1.4,1.4c0,0.5,0.2,0.9,0.6,1.1v1c-0.4,0.2-0.6,0.7-0.6,1.2c0,0.2,0,0.4,0.1,0.6H132l-3.9,3.9v42.1l0.3,0.3
		c0.1,0.2,0.3,0.4,0.5,0.5l0.2,0.2h1.5l0.1-0.1c0,0.1-0.1,0.2-0.1,0.4c0,0.8,0.6,1.4,1.4,1.4c0.1,0,0.2,0,0.2,0l8,8h6.9l1.5-1.5
		c0.5,0.3,1.1,0.5,1.7,0.5c1.9,0,3.4-1.5,3.4-3.4c0-1.9-1.5-3.4-3.4-3.4c-1.9,0-3.4,1.5-3.4,3.4c0,0.6,0.2,1.3,0.5,1.8l-1,1h-1.3
		c0.9-0.6,1.5-1.6,1.5-2.8c0-1.2-0.6-2.2-1.5-2.8h2.1l1.5-1.5c0.5,0.3,1.1,0.5,1.7,0.5c1.9,0,3.4-1.5,3.4-3.4c0-1.9-1.5-3.4-3.4-3.4
		c-1.9,0-3.4,1.5-3.4,3.4c0,0.6,0.2,1.3,0.5,1.8l-1,1h-1.4c0.9-0.6,1.4-1.6,1.4-2.8c0-1.9-1.5-3.4-3.4-3.4c-0.6,0-1.2,0.2-1.7,0.5
		l-6.6-6.6c0-0.1,0-0.1,0-0.2c0-0.3-0.1-0.6-0.3-0.9c0.1,0,0.1,0,0.1,0l4.3,4.3h0.9c0.4,1.5,1.7,2.6,3.3,2.6c1.9,0,3.4-1.5,3.4-3.4
		c0-1.9-1.5-3.4-3.4-3.4c-1.6,0-2.9,1.1-3.3,2.6h-0.2l-3.8-3.8c0-0.1,0-0.2,0-0.2c0-0.4-0.1-0.7-0.4-0.9c0.4,0,0.9-0.2,1.1-0.6h3.2
		c0.4,1.5,1.7,2.6,3.3,2.6c1.9,0,3.4-1.5,3.4-3.4c0-1.9-1.5-3.4-3.4-3.4c-1.6,0-2.9,1.1-3.3,2.6h-3.2c-0.2-0.4-0.7-0.6-1.1-0.6
		c-0.8,0-1.4,0.6-1.4,1.4c0,0.4,0.1,0.7,0.4,0.9c-0.8,0-1.4,0.6-1.4,1.4c0,0.3,0.1,0.6,0.3,0.9c-0.7,0-1.3,0.7-1.3,1.4
		c0,0.8,0.6,1.4,1.4,1.4c0.1,0,0.2,0,0.2,0l6.6,6.6c-0.3,0.5-0.5,1.1-0.5,1.8c0,1.1,0.6,2.1,1.4,2.8h-1.4l-5.7-5.7
		c0-0.1,0-0.2,0-0.2c0-0.8-0.6-1.4-1.4-1.4c-0.6,0-1.1,0.4-1.3,0.9v-35.7l2.1-2.1h4.3l1.7-1.7v-17.1c0.2,0.1,0.4,0.2,0.6,0.2
		c0.8,0,1.4-0.6,1.4-1.4c0-0.1,0-0.2,0-0.2l7.7-7.7h0.7c0.2,0.4,0.7,0.6,1.1,0.6c0.8,0,1.4-0.6,1.4-1.4s-0.6-1.4-1.4-1.4
		c-0.5,0-0.9,0.2-1.1,0.6h-0.4l1.3-1.3V142l-14.1-14.1v-7.6l-3.6-3.7H132h-27.2l-1.7-1.7v-2.8L81.7,90.8v-5.9l1.2-1.2H95l4,4h8.1
		l4-4h17.8l1-1v-3.3l-1-1h-19.7l-4,4h-4.1l-4-4H82.8l-1-1V63.7l-1-1H70.1v-8.1l-1.3-1.3c0-0.1,0-0.2,0-0.2c0-0.8-0.6-1.4-1.4-1.4
		S66,52.3,66,53s0.6,1.4,1.4,1.4c0.1,0,0.2,0,0.2,0l0.8,0.8v7.8l-0.6,0.6v20l29.6,29.6c-0.6,0.2-1,0.7-1,1.3c0,0.5,0.2,0.9,0.6,1.2
		v5l2.8,2.8h25.7l9.9,9.8v4.1c-0.4,0.2-0.6,0.7-0.6,1.1c0,0.2,0.1,0.5,0.2,0.7h-7.6l-1.9-1.9h-0.6h-0.6l1.4-1.4l0,0
		c0.2-0.1,0.3-0.2,0.4-0.4l0.2-0.2l-0.1-0.1c0.1-0.2,0.1-0.3,0.1-0.5c0-0.8-0.6-1.4-1.4-1.4c-0.2,0-0.3,0-0.5,0.1l-0.1-0.1l-0.2,0.2
		c-0.1,0.1-0.2,0.2-0.3,0.3l0,0.1l-2.7,2.7v5.7H93.3l-1.4-1.4v0c-0.1-0.1-0.2-0.3-0.4-0.4l-0.3-0.1c-0.2-0.1-0.3-0.1-0.5-0.1
		c-0.2,0-0.5,0.1-0.7,0.2l2.1-2.1v-1.2l-0.4-0.4c0,0-0.1-0.1-0.1-0.1l-0.4-0.4h-0.6h-6.5l-9.1-9.1l-0.4-0.4h-1.6l-3.3,3.3v1.2
		l0.8,0.8h1.3l8.8,8.9h2.6l0.5,0.5v2.5l6.3,6.4h27.5l4.6,4.6h0.4c0.1,0,0.1,0,0.2,0c0.1,0,0.1,0,0.2,0h0.3l0.1-0.1v5.4l-4.8,4.8
		c-0.2-0.6-0.7-1-1.3-1c-0.1,0-0.1,0-0.2,0c0-0.1,0-0.1,0-0.2c0-0.8-0.6-1.4-1.4-1.4c0,0-0.1,0-0.1,0c0-0.1,0-0.1,0-0.1
		c0-0.5-0.2-0.9-0.6-1.2c0.4-0.2,0.6-0.7,0.6-1.2s-0.3-0.9-0.7-1.2c0.4-0.2,0.7-0.7,0.7-1.2c0-0.8-0.6-1.4-1.4-1.4
		c-0.8,0-1.4,0.6-1.4,1.4c0,0.1,0,0.2,0,0.2l-1.7,1.7h-8.6l-0.6-0.6h-1.6c-0.2-0.4-0.7-0.6-1.2-0.6c-0.8,0-1.4,0.6-1.4,1.4
		s0.6,1.4,1.4,1.4C99.4,161.2,99.5,161.2,99.5,161.2z M100.5,35c-1.5,0-2.7,1.2-2.7,2.7c0,1.5,1.2,2.7,2.7,2.7
		c1.5,0,2.7-1.2,2.7-2.7C103.2,36.2,102,35,100.5,35z M94.8,34.7c1.5,0,2.7-1.2,2.7-2.7c0-1.5-1.2-2.7-2.7-2.7s-2.7,1.2-2.7,2.7
		C92.2,33.5,93.4,34.7,94.8,34.7z M94.8,35c-1.5,0-2.7,1.2-2.7,2.7c0,1.5,1.2,2.7,2.7,2.7s2.7-1.2,2.7-2.7
		C97.5,36.2,96.3,35,94.8,35z M89.2,34.7c1.5,0,2.7-1.2,2.7-2.7c0-1.5-1.2-2.7-2.7-2.7c-1.5,0-2.7,1.2-2.7,2.7
		C86.5,33.5,87.7,34.7,89.2,34.7z M89.2,35c-1.5,0-2.7,1.2-2.7,2.7c0,1.5,1.2,2.7,2.7,2.7c1.5,0,2.7-1.2,2.7-2.7
		C91.9,36.2,90.7,35,89.2,35z M80.8,32c0,1.5,1.2,2.7,2.7,2.7c1.5,0,2.7-1.2,2.7-2.7c0-1.5-1.2-2.7-2.7-2.7
		C82,29.4,80.8,30.6,80.8,32z M83.5,35c-1.5,0-2.7,1.2-2.7,2.7c0,1.5,1.2,2.7,2.7,2.7c1.5,0,2.7-1.2,2.7-2.7
		C86.2,36.2,85,35,83.5,35z M77.8,35c-1.5,0-2.7,1.2-2.7,2.7c0,1.5,1.2,2.7,2.7,2.7c1.5,0,2.7-1.2,2.7-2.7
		C80.5,36.2,79.3,35,77.8,35z M77.8,34.7c1.5,0,2.7-1.2,2.7-2.7c0-1.5-1.2-2.7-2.7-2.7c-1.5,0-2.7,1.2-2.7,2.7
		C75.2,33.5,76.4,34.7,77.8,34.7z M74.1,153.3c-1.5,0-2.7,1.2-2.7,2.7c0,1.5,1.2,2.7,2.7,2.7c1.5,0,2.7-1.2,2.7-2.7
		C76.8,154.5,75.6,153.3,74.1,153.3z M74.1,147.6c-1.5,0-2.7,1.2-2.7,2.7s1.2,2.7,2.7,2.7c1.5,0,2.7-1.2,2.7-2.7
		S75.6,147.6,74.1,147.6z M74.1,147.4c1.5,0,2.7-1.2,2.7-2.7c0-1.5-1.2-2.7-2.7-2.7c-1.5,0-2.7,1.2-2.7,2.7
		C71.4,146.1,72.7,147.4,74.1,147.4z M63.8,32c0,1.5,1.2,2.7,2.7,2.7c1.5,0,2.7-1.2,2.7-2.7c0-1.5-1.2-2.7-2.7-2.7
		C65,29.4,63.8,30.6,63.8,32z M66.5,35c-1.5,0-2.7,1.2-2.7,2.7c0,1.5,1.2,2.7,2.7,2.7c1.5,0,2.7-1.2,2.7-2.7
		C69.2,36.2,68,35,66.5,35z M53.8,169.7c2,0,3.5-1.6,3.5-3.6c0-1.9-1.6-3.5-3.5-3.5c-2,0-3.5,1.6-3.5,3.5
		C50.2,168.1,51.8,169.7,53.8,169.7z M57.9,37.7c0-1.5-1.2-2.7-2.7-2.7c-1.5,0-2.7,1.2-2.7,2.7c0,1.5,1.2,2.7,2.7,2.7
		C56.7,40.4,57.9,39.2,57.9,37.7z M55.2,34.7c1.5,0,2.7-1.2,2.7-2.7c0-1.5-1.2-2.7-2.7-2.7c-1.5,0-2.7,1.2-2.7,2.7
		C52.5,33.5,53.7,34.7,55.2,34.7z M58.1,32c0,1.5,1.2,2.7,2.7,2.7c1.5,0,2.7-1.2,2.7-2.7c0-1.5-1.2-2.7-2.7-2.7
		C59.3,29.4,58.1,30.6,58.1,32z M60.8,35c-1.5,0-2.7,1.2-2.7,2.7c0,1.5,1.2,2.7,2.7,2.7c1.5,0,2.7-1.2,2.7-2.7
		C63.5,36.2,62.3,35,60.8,35z M49.5,35c-1.5,0-2.7,1.2-2.7,2.7c0,1.5,1.2,2.7,2.7,2.7c1.5,0,2.7-1.2,2.7-2.7
		C52.2,36.2,51,35,49.5,35z M49.5,34.7c1.5,0,2.7-1.2,2.7-2.7c0-1.5-1.2-2.7-2.7-2.7c-1.5,0-2.7,1.2-2.7,2.7
		C46.8,33.5,48,34.7,49.5,34.7z M58.2,169.9H37.7c-0.2-0.4-0.7-0.6-1.2-0.6c-0.8,0-1.4,0.6-1.4,1.4c0,0.4,0.2,0.7,0.4,1c0,0,0,0,0,0
		c-0.3,0.3-0.4,0.6-0.4,1s0.2,0.7,0.4,1c-0.2,0.2-0.4,0.6-0.4,1c0,0.8,0.6,1.4,1.4,1.4c0.8,0,1.4-0.6,1.4-1.4c0-0.1,0-0.2,0-0.2l1-1
		h18.4l1.1,1.1h2.7c0.3,0.4,0.7,0.6,1.2,0.6c0.8,0,1.4-0.6,1.4-1.4c0-0.8-0.6-1.4-1.4-1.4c0,0-0.1,0-0.1,0c0,0,0-0.1,0-0.1
		c0-0.8-0.6-1.4-1.4-1.4c0,0-0.1,0-0.1,0c0,0,0-0.1,0-0.1c0-0.8-0.6-1.4-1.4-1.4C58.8,169.3,58.4,169.5,58.2,169.9z M211.5,17v259
		c0,2.5-2,4.5-4.5,4.5H25.9c-2.5,0-4.5-2-4.5-4.5v-43.4c7-9.4,10.8-20.5,10.8-32.2s-3.7-22.9-10.8-32.2V149
		c4.7-4.7,7.4-11.1,7.4-17.8c0-6.7-2.7-13.1-7.4-17.8V17c0-2.5,2-4.5,4.5-4.5h16.7v11.4h150.1V12.5H207
		C209.5,12.5,211.5,14.5,211.5,17z M210.4,273c0-3.1-2.6-5.7-5.7-5.7c-3.1,0-5.7,2.5-5.7,5.7s2.5,5.7,5.7,5.7
		C207.9,278.7,210.4,276.1,210.4,273z M153.9,216.7c0-1.9-1.5-3.4-3.4-3.4c-1.9,0-3.4,1.5-3.4,3.4c0,1.9,1.5,3.4,3.4,3.4
		C152.3,220.1,153.9,218.6,153.9,216.7z M153.9,202.3c0-1.9-1.5-3.4-3.4-3.4c-1.9,0-3.4,1.5-3.4,3.4c0,1.9,1.5,3.4,3.4,3.4
		C152.3,205.7,153.9,204.2,153.9,202.3z M153.9,209.5c0-1.9-1.5-3.4-3.4-3.4c-1.9,0-3.4,1.5-3.4,3.4c0,1.9,1.5,3.4,3.4,3.4
		C152.3,212.9,153.9,211.4,153.9,209.5z M146.7,202.3c0-1.9-1.5-3.4-3.4-3.4c-1.9,0-3.4,1.5-3.4,3.4c0,1.9,1.5,3.4,3.4,3.4
		C145.1,205.7,146.7,204.2,146.7,202.3z M93.5,116.5c0.4-0.3,0.6-0.7,0.6-1.2c0-0.8-0.6-1.4-1.4-1.4c-0.3,0-0.5,0.1-0.7,0.2
		c-0.1-0.7-0.7-1.2-1.4-1.2c-0.8,0-1.4,0.6-1.4,1.4c0,0.5,0.2,0.9,0.6,1.2v2.7c-0.4,0.2-0.6,0.7-0.6,1.2c0,0.8,0.6,1.4,1.4,1.4
		c0.4,0,0.8-0.2,1.1-0.5c0.2,0.3,0.6,0.5,1.1,0.5c0.8,0,1.4-0.6,1.4-1.4c0-0.5-0.2-0.9-0.6-1.2C93.5,118.2,93.5,116.5,93.5,116.5z
		 M72.2,136.5c0.4-0.2,0.6-0.7,0.6-1.1c0-0.8-0.6-1.4-1.4-1.4s-1.4,0.6-1.4,1.4c0,0.5,0.2,0.9,0.6,1.2v2.3c-0.4,0.3-0.6,0.7-0.6,1.2
		c0,0.8,0.6,1.4,1.4,1.4c0.8,0,1.4-0.6,1.4-1.4c0-0.5-0.2-0.9-0.6-1.1V136.5z M70.9,96.4c0.3-0.3,0.6-0.7,0.6-1.1
		c0-0.8-0.6-1.4-1.4-1.4s-1.4,0.6-1.4,1.4c0,0.5,0.2,0.9,0.6,1.2v4.7c-0.4,0.2-0.6,0.7-0.6,1.2c0,0.8,0.6,1.4,1.4,1.4
		s1.4-0.6,1.4-1.4c0-0.5-0.2-0.9-0.6-1.1V96.4z M68.8,178.7c0-0.8-0.6-1.4-1.4-1.4c0,0-0.1,0-0.1,0c0,0,0-0.1,0-0.1
		c0-0.8-0.6-1.4-1.4-1.4c-0.5,0-0.9,0.2-1.2,0.6H34.4c-0.3-0.4-0.7-0.6-1.2-0.6c-0.8,0-1.4,0.6-1.4,1.4c0,0.4,0.2,0.7,0.4,1
		c0,0,0,0,0,0c-0.3,0.3-0.4,0.6-0.4,1c0,0.8,0.6,1.4,1.4,1.4s1.4-0.6,1.4-1.4c0-0.1,0-0.1,0-0.2l0,0h29.6l0.6,0.6h1.3
		c0.2,0.4,0.7,0.6,1.2,0.6C68.1,180.1,68.8,179.5,68.8,178.7z M57.3,234.8c0-2-1.6-3.6-3.5-3.6c-2,0-3.5,1.6-3.5,3.6
		c0,1.9,1.6,3.5,3.5,3.5C55.7,238.3,57.3,236.7,57.3,234.8z M56.6,255.9c0-4.2-3.4-7.7-7.7-7.7s-7.7,3.4-7.7,7.7s3.4,7.6,7.7,7.6
		S56.6,260.1,56.6,255.9z M53.3,78.2c0-0.8-0.6-1.4-1.4-1.4c-0.1,0-0.2,0-0.2,0l-2.7-2.7c0-0.1,0-0.2,0-0.2c0-0.8-0.6-1.4-1.4-1.4
		s-1.4,0.6-1.4,1.4s0.6,1.4,1.4,1.4c0.1,0,0.2,0,0.2,0l2.7,2.7c0,0.1,0,0.2,0,0.2c0,0.1,0,0.1,0,0.2c0,0-0.1,0-0.2,0
		c-0.5,0-0.9,0.2-1.2,0.6H44c-0.3-0.4-0.7-0.6-1.2-0.6c-0.8,0-1.4,0.6-1.4,1.4v0c-0.3-0.4-0.8-0.7-1.4-0.7c-0.2,0-3.2,0-3.3,0
		c-1.3,0-2.3,1.1-2.3,2.3c0,0.9,0.5,1.7,1.2,2.1c-0.7,0.4-1.1,1.1-1.1,2c0,1.2,1,2.3,2.3,2.3s2.3-1,2.3-2.3c0-0.7-0.3-1.3-0.8-1.7
		c0.8,0,1.7,0,1.7,0c1.1-0.2,2-1.2,2-2.3c0-0.2,0-0.3,0-0.4c0.2,0.2,0.5,0.3,0.8,0.3c0.5,0,0.9-0.2,1.2-0.6h5.1
		c0.2,0.4,0.7,0.6,1.2,0.6c0.8,0,1.4-0.6,1.4-1.4c0-0.1,0-0.1,0-0.2c0,0,0.1,0,0.2,0C52.7,79.6,53.3,78.9,53.3,78.2z M40.1,108.1
		c1.1-0.2,2-1.2,2-2.3c0-1.1-0.8-2.1-2-2.3c-0.1,0-1,0-1.8,0c0.5-0.4,0.8-1.1,0.8-1.8c0-1.2-1-2.3-2.3-2.3s-2.3,1-2.3,2.3
		c0,0.9,0.5,1.6,1.2,2c-0.8,0.4-1.3,1.2-1.3,2.1c0,1.3,1,2.3,2.3,2.3C36.8,108.1,40,108.1,40.1,108.1z M40.9,119.7
		c0-1.6-1.3-2.8-2.8-2.8c-1.6,0-2.8,1.3-2.8,2.8s1.3,2.8,2.8,2.8C39.6,122.6,40.9,121.3,40.9,119.7z M40.9,142.3
		c0-1.6-1.3-2.8-2.8-2.8c-1.6,0-2.8,1.3-2.8,2.8s1.3,2.8,2.8,2.8C39.6,145.1,40.9,143.8,40.9,142.3z M32.9,73v-6.8h-6.8V73H32.9z
		 M33.8,19.7c0-3.1-2.5-5.7-5.7-5.7s-5.7,2.5-5.7,5.7c0,3.1,2.5,5.7,5.7,5.7S33.8,22.9,33.8,19.7z M33.8,273c0-3.1-2.5-5.7-5.7-5.7
		s-5.7,2.5-5.7,5.7s2.5,5.7,5.7,5.7S33.8,276.1,33.8,273z M32.9,62.4c0-1.9-1.5-3.4-3.4-3.4c-1.9,0-3.4,1.5-3.4,3.4
		c0,1.9,1.5,3.4,3.4,3.4C31.4,65.8,32.9,64.2,32.9,62.4z M27.8,83.6c1.1-0.2,2-1.2,2-2.3s-0.9-2.1-2-2.3c-0.1,0-2.4,0-2.5,0
		c-1.3,0-2.3,1.1-2.3,2.3c0,1.3,1,2.3,2.3,2.3C25.4,83.6,27.7,83.6,27.8,83.6z M27.8,108.1c1.1-0.2,2-1.2,2-2.3c0-1.1-0.9-2.1-2-2.3
		c-0.1,0-2.4,0-2.5,0c-1.3,0-2.3,1.1-2.3,2.3c0,1.3,1,2.3,2.3,2.3C25.4,108.1,27.7,108.1,27.8,108.1z"/>
</g>
</svg>
