<?xml version="1.0" encoding="utf-8"?>
<!-- Generator: Adobe Illustrator 27.0.0, SVG Export Plug-In . SVG Version: 6.00 Build 0)  -->
<svg version="1.1" id="Calque_1" xmlns="http://www.w3.org/2000/svg" xmlns:xlink="http://www.w3.org/1999/xlink" x="0px" y="0px"
	 viewBox="0 0 229.1 294.7" style="enable-background:new 0 0 229.1 294.7;" xml:space="preserve">
<style type="text/css">
	.st0{fill:none;stroke:#000000;stroke-width:0.1;stroke-miterlimit:10;}
</style>
<g>
	<path class="st0" d="M19.2,17c0-3.7,3-6.7,6.7-6.7h19v11.4h145.6V10.3H207c3.7,0,6.7,3,6.7,6.7v259c0,3.7-3,6.7-6.7,6.7H25.9
		c-3.7,0-6.7-3-6.7-6.7v-44.2c6.7-8.7,10.8-19.6,10.8-31.5c0-11.9-4-22.8-10.8-31.5V148c4.6-4.2,7.4-10.2,7.4-16.9
		c0-6.7-2.9-12.7-7.4-16.8V17z"/>
</g>
<g>
	<rect x="26.6" y="66.7" width="5.7" height="5.7"/>
	<circle cx="185.6" cy="37.7" r="2.1"/>
	<circle cx="179.9" cy="37.7" r="2.1"/>
	<circle cx="185.6" cy="32" r="2.1"/>
	<circle cx="179.9" cy="32" r="2.1"/>
	<circle cx="174.2" cy="37.7" r="2.1"/>
	<circle cx="168.6" cy="37.7" r="2.1"/>
	<circle cx="174.2" cy="32" r="2.1"/>
	<circle cx="168.6" cy="32" r="2.1"/>
	<circle cx="162.9" cy="37.7" r="2.1"/>
	<circle cx="157.2" cy="37.7" r="2.1"/>
	<circle cx="162.9" cy="32" r="2.1"/>
	<circle cx="157.2" cy="32" r="2.1"/>
	<circle cx="151.5" cy="37.7" r="2.1"/>
	<circle cx="145.9" cy="37.7" r="2.1"/>
	<circle cx="151.5" cy="32" r="2.1"/>
	<circle cx="145.9" cy="32" r="2.1"/>
	<circle cx="140.2" cy="37.7" r="2.1"/>
	<circle cx="134.5" cy="37.7" r="2.1"/>
	<circle cx="140.2" cy="32" r="2.1"/>
	<circle cx="134.5" cy="32" r="2.1"/>
	<circle cx="128.9" cy="37.7" r="2.1"/>
	<circle cx="128.9" cy="32" r="2.1"/>
	<circle cx="123.2" cy="32" r="2.1"/>
	<circle cx="117.5" cy="37.7" r="2.1"/>
	<circle cx="111.9" cy="37.7" r="2.1"/>
	<circle cx="117.5" cy="32" r="2.1"/>
	<circle cx="111.9" cy="32" r="2.1"/>
	<circle cx="106.2" cy="37.7" r="2.1"/>
	<circle cx="100.5" cy="37.7" r="2.1"/>
	<circle cx="106.2" cy="32" r="2.1"/>
	<circle cx="100.5" cy="32" r="2.1"/>
	<circle cx="94.8" cy="37.7" r="2.1"/>
	<circle cx="89.2" cy="37.7" r="2.1"/>
	<circle cx="94.8" cy="32" r="2.1"/>
	<circle cx="89.2" cy="32" r="2.1"/>
	<circle cx="83.5" cy="37.7" r="2.1"/>
	<circle cx="77.8" cy="37.7" r="2.1"/>
	<circle cx="83.5" cy="32" r="2.1"/>
	<circle cx="77.8" cy="32" r="2.1"/>
	<circle cx="66.5" cy="37.7" r="2.1"/>
	<circle cx="66.5" cy="32" r="2.1"/>
	<circle cx="60.8" cy="37.7" r="2.1"/>
	<circle cx="55.2" cy="37.7" r="2.1"/>
	<circle cx="60.8" cy="32" r="2.1"/>
	<circle cx="55.2" cy="32" r="2.1"/>
	<circle cx="49.5" cy="37.7" r="2.1"/>
	<circle cx="49.5" cy="32" r="2.1"/>
	<path d="M185.3,195.1c0,1.6-1.3,2.8-2.8,2.8c-1.6,0-2.8-1.3-2.8-2.8c0-1.6,1.3-2.8,2.8-2.8C184,192.3,185.3,193.5,185.3,195.1z"/>
	<path d="M185.3,187.9c0,1.6-1.3,2.8-2.8,2.8c-1.6,0-2.8-1.3-2.8-2.8c0-1.6,1.3-2.8,2.8-2.8C184,185.1,185.3,186.3,185.3,187.9z"/>
	<path d="M178.1,195.1c0,1.6-1.3,2.8-2.8,2.8c-1.6,0-2.8-1.3-2.8-2.8c0-1.6,1.3-2.8,2.8-2.8C176.8,192.3,178.1,193.5,178.1,195.1z"
		/>
	<path d="M178.1,187.9c0,1.6-1.3,2.8-2.8,2.8c-1.6,0-2.8-1.3-2.8-2.8c0-1.6,1.3-2.8,2.8-2.8C176.8,185.1,178.1,186.3,178.1,187.9z"
		/>
	<path d="M185.3,180.7c0,1.6-1.3,2.8-2.8,2.8c-1.6,0-2.8-1.3-2.8-2.8c0-1.6,1.3-2.8,2.8-2.8C184,177.9,185.3,179.1,185.3,180.7z"/>
	<path d="M185.3,173.5c0,1.6-1.3,2.8-2.8,2.8c-1.6,0-2.8-1.3-2.8-2.8c0-1.6,1.3-2.8,2.8-2.8C184,170.7,185.3,171.9,185.3,173.5z"/>
	<path d="M178.1,180.7c0,1.6-1.3,2.8-2.8,2.8c-1.6,0-2.8-1.3-2.8-2.8c0-1.6,1.3-2.8,2.8-2.8C176.8,177.9,178.1,179.1,178.1,180.7z"
		/>
	<path d="M178.1,173.5c0,1.6-1.3,2.8-2.8,2.8c-1.6,0-2.8-1.3-2.8-2.8c0-1.6,1.3-2.8,2.8-2.8C176.8,170.7,178.1,171.9,178.1,173.5z"
		/>
	<path d="M185.3,166.3c0,1.6-1.3,2.8-2.8,2.8c-1.6,0-2.8-1.3-2.8-2.8c0-1.6,1.3-2.8,2.8-2.8C184,163.5,185.3,164.7,185.3,166.3z"/>
	<path d="M185.3,159.1c0,1.6-1.3,2.8-2.8,2.8c-1.6,0-2.8-1.3-2.8-2.8c0-1.6,1.3-2.8,2.8-2.8C184,156.3,185.3,157.5,185.3,159.1z"/>
	<path d="M178.1,166.3c0,1.6-1.3,2.8-2.8,2.8c-1.6,0-2.8-1.3-2.8-2.8c0-1.6,1.3-2.8,2.8-2.8C176.8,163.5,178.1,164.7,178.1,166.3z"
		/>
	<path d="M178.1,159.1c0,1.6-1.3,2.8-2.8,2.8c-1.6,0-2.8-1.3-2.8-2.8c0-1.6,1.3-2.8,2.8-2.8C176.8,156.3,178.1,157.5,178.1,159.1z"
		/>
	<path d="M185.3,151.9c0,1.6-1.3,2.8-2.8,2.8c-1.6,0-2.8-1.3-2.8-2.8c0-1.6,1.3-2.8,2.8-2.8C184,149.1,185.3,150.3,185.3,151.9z"/>
	<path d="M185.3,144.7c0,1.6-1.3,2.8-2.8,2.8c-1.6,0-2.8-1.3-2.8-2.8c0-1.6,1.3-2.8,2.8-2.8C184,141.9,185.3,143.1,185.3,144.7z"/>
	<path d="M178.1,151.9c0,1.6-1.3,2.8-2.8,2.8c-1.6,0-2.8-1.3-2.8-2.8c0-1.6,1.3-2.8,2.8-2.8C176.8,149.1,178.1,150.3,178.1,151.9z"
		/>
	<path d="M178.1,144.7c0,1.6-1.3,2.8-2.8,2.8c-1.6,0-2.8-1.3-2.8-2.8c0-1.6,1.3-2.8,2.8-2.8C176.8,141.9,178.1,143.1,178.1,144.7z"
		/>
	<path d="M185.3,137.5c0,1.6-1.3,2.8-2.8,2.8c-1.6,0-2.8-1.3-2.8-2.8c0-1.6,1.3-2.8,2.8-2.8C184,134.7,185.3,135.9,185.3,137.5z"/>
	<path d="M185.3,130.3c0,1.6-1.3,2.8-2.8,2.8c-1.6,0-2.8-1.3-2.8-2.8c0-1.6,1.3-2.8,2.8-2.8C184,127.5,185.3,128.7,185.3,130.3z"/>
	<path d="M178.1,137.5c0,1.6-1.3,2.8-2.8,2.8c-1.6,0-2.8-1.3-2.8-2.8c0-1.6,1.3-2.8,2.8-2.8C176.8,134.7,178.1,135.9,178.1,137.5z"
		/>
	<path d="M178.1,130.3c0,1.6-1.3,2.8-2.8,2.8c-1.6,0-2.8-1.3-2.8-2.8c0-1.6,1.3-2.8,2.8-2.8C176.8,127.5,178.1,128.7,178.1,130.3z"
		/>
	<path d="M185.3,123.1c0,1.6-1.3,2.8-2.8,2.8c-1.6,0-2.8-1.3-2.8-2.8c0-1.6,1.3-2.8,2.8-2.8C184,120.3,185.3,121.5,185.3,123.1z"/>
	<path d="M185.3,115.9c0,1.6-1.3,2.8-2.8,2.8c-1.6,0-2.8-1.3-2.8-2.8c0-1.6,1.3-2.8,2.8-2.8C184,113.1,185.3,114.3,185.3,115.9z"/>
	<path d="M178.1,123.1c0,1.6-1.3,2.8-2.8,2.8c-1.6,0-2.8-1.3-2.8-2.8c0-1.6,1.3-2.8,2.8-2.8C176.8,120.3,178.1,121.5,178.1,123.1z"
		/>
	<path d="M178.1,115.9c0,1.6-1.3,2.8-2.8,2.8c-1.6,0-2.8-1.3-2.8-2.8c0-1.6,1.3-2.8,2.8-2.8C176.8,113.1,178.1,114.3,178.1,115.9z"
		/>
	<path d="M185.3,108.7c0,1.6-1.3,2.8-2.8,2.8c-1.6,0-2.8-1.3-2.8-2.8c0-1.6,1.3-2.8,2.8-2.8C184,105.9,185.3,107.1,185.3,108.7z"/>
	<path d="M185.3,101.5c0,1.6-1.3,2.8-2.8,2.8c-1.6,0-2.8-1.3-2.8-2.8c0-1.6,1.3-2.8,2.8-2.8C184,98.7,185.3,99.9,185.3,101.5z"/>
	<path d="M178.1,108.7c0,1.6-1.3,2.8-2.8,2.8c-1.6,0-2.8-1.3-2.8-2.8c0-1.6,1.3-2.8,2.8-2.8C176.8,105.9,178.1,107.1,178.1,108.7z"
		/>
	<path d="M178.1,101.5c0,1.6-1.3,2.8-2.8,2.8c-1.6,0-2.8-1.3-2.8-2.8c0-1.6,1.3-2.8,2.8-2.8C176.8,98.7,178.1,99.9,178.1,101.5z"/>
	<path d="M185.3,94.3c0,1.6-1.3,2.8-2.8,2.8c-1.6,0-2.8-1.3-2.8-2.8c0-1.6,1.3-2.8,2.8-2.8C184,91.5,185.3,92.7,185.3,94.3z"/>
	<path d="M185.3,87.1c0,1.6-1.3,2.8-2.8,2.8c-1.6,0-2.8-1.3-2.8-2.8c0-1.6,1.3-2.8,2.8-2.8C184,84.3,185.3,85.5,185.3,87.1z"/>
	<path d="M178.1,94.3c0,1.6-1.3,2.8-2.8,2.8c-1.6,0-2.8-1.3-2.8-2.8c0-1.6,1.3-2.8,2.8-2.8C176.8,91.5,178.1,92.7,178.1,94.3z"/>
	<path d="M178.1,87.1c0,1.6-1.3,2.8-2.8,2.8c-1.6,0-2.8-1.3-2.8-2.8c0-1.6,1.3-2.8,2.8-2.8C176.8,84.3,178.1,85.5,178.1,87.1z"/>
	<path d="M185.3,79.9c0,1.6-1.3,2.8-2.8,2.8c-1.6,0-2.8-1.3-2.8-2.8c0-1.6,1.3-2.8,2.8-2.8C184,77.1,185.3,78.3,185.3,79.9z"/>
	<path d="M185.3,72.7c0,1.6-1.3,2.8-2.8,2.8c-1.6,0-2.8-1.3-2.8-2.8c0-1.6,1.3-2.8,2.8-2.8C184,69.9,185.3,71.1,185.3,72.7z"/>
	<path d="M178.1,79.9c0,1.6-1.3,2.8-2.8,2.8c-1.6,0-2.8-1.3-2.8-2.8c0-1.6,1.3-2.8,2.8-2.8C176.8,77.1,178.1,78.3,178.1,79.9z"/>
	<path d="M178.1,72.7c0,1.6-1.3,2.8-2.8,2.8c-1.6,0-2.8-1.3-2.8-2.8c0-1.6,1.3-2.8,2.8-2.8C176.8,69.9,178.1,71.1,178.1,72.7z"/>
	<path d="M185.3,65.5c0,1.6-1.3,2.8-2.8,2.8c-1.6,0-2.8-1.3-2.8-2.8c0-1.6,1.3-2.8,2.8-2.8C184,62.7,185.3,63.9,185.3,65.5z"/>
	<path d="M185.3,58.3c0,1.6-1.3,2.8-2.8,2.8c-1.6,0-2.8-1.3-2.8-2.8c0-1.6,1.3-2.8,2.8-2.8C184,55.5,185.3,56.7,185.3,58.3z"/>
	<path d="M178.1,65.5c0,1.6-1.3,2.8-2.8,2.8c-1.6,0-2.8-1.3-2.8-2.8c0-1.6,1.3-2.8,2.8-2.8C176.8,62.7,178.1,63.9,178.1,65.5z"/>
	<path d="M178.1,58.3c0,1.6-1.3,2.8-2.8,2.8c-1.6,0-2.8-1.3-2.8-2.8c0-1.6,1.3-2.8,2.8-2.8C176.8,55.5,178.1,56.7,178.1,58.3z"/>
	<path d="M185.3,231.1c0,1.6-1.3,2.8-2.8,2.8c-1.6,0-2.8-1.3-2.8-2.8c0-1.6,1.3-2.8,2.8-2.8C184,228.2,185.3,229.5,185.3,231.1z"/>
	<path d="M185.3,223.9c0,1.6-1.3,2.8-2.8,2.8c-1.6,0-2.8-1.3-2.8-2.8c0-1.6,1.3-2.8,2.8-2.8C184,221.1,185.3,222.3,185.3,223.9z"/>
	<path d="M178.1,231.1c0,1.6-1.3,2.8-2.8,2.8c-1.6,0-2.8-1.3-2.8-2.8c0-1.6,1.3-2.8,2.8-2.8C176.8,228.3,178.1,229.5,178.1,231.1z"
		/>
	<path d="M178.1,223.9c0,1.6-1.3,2.8-2.8,2.8c-1.6,0-2.8-1.3-2.8-2.8c0-1.6,1.3-2.8,2.8-2.8C176.8,221.1,178.1,222.3,178.1,223.9z"
		/>
	<path d="M185.3,216.7c0,1.6-1.3,2.8-2.8,2.8c-1.6,0-2.8-1.3-2.8-2.8c0-1.6,1.3-2.8,2.8-2.8C184,213.9,185.3,215.1,185.3,216.7z"/>
	<path d="M185.3,209.5c0,1.6-1.3,2.8-2.8,2.8c-1.6,0-2.8-1.3-2.8-2.8c0-1.6,1.3-2.8,2.8-2.8C184,206.6,185.3,207.9,185.3,209.5z"/>
	<path d="M178.1,216.7c0,1.6-1.3,2.8-2.8,2.8c-1.6,0-2.8-1.3-2.8-2.8c0-1.6,1.3-2.8,2.8-2.8C176.8,213.9,178.1,215.1,178.1,216.7z"
		/>
	<path d="M178.1,209.5c0,1.6-1.3,2.8-2.8,2.8c-1.6,0-2.8-1.3-2.8-2.8c0-1.6,1.3-2.8,2.8-2.8C176.8,206.7,178.1,207.9,178.1,209.5z"
		/>
	<path d="M185.3,202.3c0,1.6-1.3,2.8-2.8,2.8c-1.6,0-2.8-1.3-2.8-2.8c0-1.6,1.3-2.8,2.8-2.8C184,199.5,185.3,200.7,185.3,202.3z"/>
	<path d="M178.1,202.3c0,1.6-1.3,2.8-2.8,2.8c-1.6,0-2.8-1.3-2.8-2.8c0-1.6,1.3-2.8,2.8-2.8C176.8,199.5,178.1,200.7,178.1,202.3z"
		/>
	<path d="M185.3,195.1c0,1.6-1.3,2.8-2.8,2.8c-1.6,0-2.8-1.3-2.8-2.8c0-1.6,1.3-2.8,2.8-2.8C184,192.3,185.3,193.5,185.3,195.1z"/>
	<path d="M185.3,187.9c0,1.6-1.3,2.8-2.8,2.8c-1.6,0-2.8-1.3-2.8-2.8c0-1.6,1.3-2.8,2.8-2.8C184,185.1,185.3,186.3,185.3,187.9z"/>
	<path d="M178.1,195.1c0,1.6-1.3,2.8-2.8,2.8c-1.6,0-2.8-1.3-2.8-2.8c0-1.6,1.3-2.8,2.8-2.8C176.8,192.3,178.1,193.5,178.1,195.1z"
		/>
	<path d="M178.1,187.9c0,1.6-1.3,2.8-2.8,2.8c-1.6,0-2.8-1.3-2.8-2.8c0-1.6,1.3-2.8,2.8-2.8C176.8,185.1,178.1,186.3,178.1,187.9z"
		/>
	<path d="M185.3,180.7c0,1.6-1.3,2.8-2.8,2.8c-1.6,0-2.8-1.3-2.8-2.8c0-1.6,1.3-2.8,2.8-2.8C184,177.9,185.3,179.1,185.3,180.7z"/>
	<path d="M185.3,173.5c0,1.6-1.3,2.8-2.8,2.8c-1.6,0-2.8-1.3-2.8-2.8c0-1.6,1.3-2.8,2.8-2.8C184,170.7,185.3,171.9,185.3,173.5z"/>
	<path d="M178.1,180.7c0,1.6-1.3,2.8-2.8,2.8c-1.6,0-2.8-1.3-2.8-2.8c0-1.6,1.3-2.8,2.8-2.8C176.8,177.9,178.1,179.1,178.1,180.7z"
		/>
	<path d="M178.1,173.5c0,1.6-1.3,2.8-2.8,2.8c-1.6,0-2.8-1.3-2.8-2.8c0-1.6,1.3-2.8,2.8-2.8C176.8,170.7,178.1,171.9,178.1,173.5z"
		/>
	<path d="M185.3,166.3c0,1.6-1.3,2.8-2.8,2.8c-1.6,0-2.8-1.3-2.8-2.8c0-1.6,1.3-2.8,2.8-2.8C184,163.5,185.3,164.7,185.3,166.3z"/>
	<path d="M185.3,159.1c0,1.6-1.3,2.8-2.8,2.8c-1.6,0-2.8-1.3-2.8-2.8c0-1.6,1.3-2.8,2.8-2.8C184,156.3,185.3,157.5,185.3,159.1z"/>
	<path d="M178.1,166.3c0,1.6-1.3,2.8-2.8,2.8c-1.6,0-2.8-1.3-2.8-2.8c0-1.6,1.3-2.8,2.8-2.8C176.8,163.5,178.1,164.7,178.1,166.3z"
		/>
	<path d="M178.1,159.1c0,1.6-1.3,2.8-2.8,2.8c-1.6,0-2.8-1.3-2.8-2.8c0-1.6,1.3-2.8,2.8-2.8C176.8,156.3,178.1,157.5,178.1,159.1z"
		/>
	<path d="M185.3,151.9c0,1.6-1.3,2.8-2.8,2.8c-1.6,0-2.8-1.3-2.8-2.8c0-1.6,1.3-2.8,2.8-2.8C184,149.1,185.3,150.3,185.3,151.9z"/>
	<path d="M185.3,144.7c0,1.6-1.3,2.8-2.8,2.8c-1.6,0-2.8-1.3-2.8-2.8c0-1.6,1.3-2.8,2.8-2.8C184,141.9,185.3,143.1,185.3,144.7z"/>
	<path d="M178.1,151.9c0,1.6-1.3,2.8-2.8,2.8c-1.6,0-2.8-1.3-2.8-2.8c0-1.6,1.3-2.8,2.8-2.8C176.8,149.1,178.1,150.3,178.1,151.9z"
		/>
	<path d="M178.1,144.7c0,1.6-1.3,2.8-2.8,2.8c-1.6,0-2.8-1.3-2.8-2.8c0-1.6,1.3-2.8,2.8-2.8C176.8,141.9,178.1,143.1,178.1,144.7z"
		/>
	<path d="M185.3,137.5c0,1.6-1.3,2.8-2.8,2.8c-1.6,0-2.8-1.3-2.8-2.8c0-1.6,1.3-2.8,2.8-2.8C184,134.7,185.3,135.9,185.3,137.5z"/>
	<path d="M185.3,130.3c0,1.6-1.3,2.8-2.8,2.8c-1.6,0-2.8-1.3-2.8-2.8c0-1.6,1.3-2.8,2.8-2.8C184,127.5,185.3,128.7,185.3,130.3z"/>
	<path d="M178.1,137.5c0,1.6-1.3,2.8-2.8,2.8c-1.6,0-2.8-1.3-2.8-2.8c0-1.6,1.3-2.8,2.8-2.8C176.8,134.7,178.1,135.9,178.1,137.5z"
		/>
	<path d="M178.1,130.3c0,1.6-1.3,2.8-2.8,2.8c-1.6,0-2.8-1.3-2.8-2.8c0-1.6,1.3-2.8,2.8-2.8C176.8,127.5,178.1,128.7,178.1,130.3z"
		/>
	<path d="M185.3,123.1c0,1.6-1.3,2.8-2.8,2.8c-1.6,0-2.8-1.3-2.8-2.8c0-1.6,1.3-2.8,2.8-2.8C184,120.3,185.3,121.5,185.3,123.1z"/>
	<path d="M185.3,115.9c0,1.6-1.3,2.8-2.8,2.8c-1.6,0-2.8-1.3-2.8-2.8c0-1.6,1.3-2.8,2.8-2.8C184,113.1,185.3,114.3,185.3,115.9z"/>
	<path d="M178.1,123.1c0,1.6-1.3,2.8-2.8,2.8c-1.6,0-2.8-1.3-2.8-2.8c0-1.6,1.3-2.8,2.8-2.8C176.8,120.3,178.1,121.5,178.1,123.1z"
		/>
	<path d="M178.1,115.9c0,1.6-1.3,2.8-2.8,2.8c-1.6,0-2.8-1.3-2.8-2.8c0-1.6,1.3-2.8,2.8-2.8C176.8,113.1,178.1,114.3,178.1,115.9z"
		/>
	<path d="M185.3,108.7c0,1.6-1.3,2.8-2.8,2.8c-1.6,0-2.8-1.3-2.8-2.8c0-1.6,1.3-2.8,2.8-2.8C184,105.9,185.3,107.1,185.3,108.7z"/>
	<path d="M185.3,101.5c0,1.6-1.3,2.8-2.8,2.8c-1.6,0-2.8-1.3-2.8-2.8c0-1.6,1.3-2.8,2.8-2.8C184,98.7,185.3,99.9,185.3,101.5z"/>
	<path d="M178.1,108.7c0,1.6-1.3,2.8-2.8,2.8c-1.6,0-2.8-1.3-2.8-2.8c0-1.6,1.3-2.8,2.8-2.8C176.8,105.9,178.1,107.1,178.1,108.7z"
		/>
	<path d="M178.1,101.5c0,1.6-1.3,2.8-2.8,2.8c-1.6,0-2.8-1.3-2.8-2.8c0-1.6,1.3-2.8,2.8-2.8C176.8,98.7,178.1,99.9,178.1,101.5z"/>
	<path d="M185.3,94.3c0,1.6-1.3,2.8-2.8,2.8c-1.6,0-2.8-1.3-2.8-2.8c0-1.6,1.3-2.8,2.8-2.8C184,91.5,185.3,92.7,185.3,94.3z"/>
	<path d="M185.3,87.1c0,1.6-1.3,2.8-2.8,2.8c-1.6,0-2.8-1.3-2.8-2.8c0-1.6,1.3-2.8,2.8-2.8C184,84.3,185.3,85.5,185.3,87.1z"/>
	<path d="M178.1,94.3c0,1.6-1.3,2.8-2.8,2.8c-1.6,0-2.8-1.3-2.8-2.8c0-1.6,1.3-2.8,2.8-2.8C176.8,91.5,178.1,92.7,178.1,94.3z"/>
	<path d="M178.1,87.1c0,1.6-1.3,2.8-2.8,2.8c-1.6,0-2.8-1.3-2.8-2.8c0-1.6,1.3-2.8,2.8-2.8C176.8,84.3,178.1,85.5,178.1,87.1z"/>
	<path d="M185.3,79.9c0,1.6-1.3,2.8-2.8,2.8c-1.6,0-2.8-1.3-2.8-2.8c0-1.6,1.3-2.8,2.8-2.8C184,77.1,185.3,78.3,185.3,79.9z"/>
	<path d="M185.3,72.7c0,1.6-1.3,2.8-2.8,2.8c-1.6,0-2.8-1.3-2.8-2.8c0-1.6,1.3-2.8,2.8-2.8C184,69.9,185.3,71.1,185.3,72.7z"/>
	<path d="M178.1,79.9c0,1.6-1.3,2.8-2.8,2.8c-1.6,0-2.8-1.3-2.8-2.8c0-1.6,1.3-2.8,2.8-2.8C176.8,77.1,178.1,78.3,178.1,79.9z"/>
	<path d="M178.1,72.7c0,1.6-1.3,2.8-2.8,2.8c-1.6,0-2.8-1.3-2.8-2.8c0-1.6,1.3-2.8,2.8-2.8C176.8,69.9,178.1,71.1,178.1,72.7z"/>
	<path d="M185.3,65.5c0,1.6-1.3,2.8-2.8,2.8c-1.6,0-2.8-1.3-2.8-2.8c0-1.6,1.3-2.8,2.8-2.8C184,62.7,185.3,63.9,185.3,65.5z"/>
	<path d="M185.3,58.3c0,1.6-1.3,2.8-2.8,2.8c-1.6,0-2.8-1.3-2.8-2.8c0-1.6,1.3-2.8,2.8-2.8C184,55.5,185.3,56.7,185.3,58.3z"/>
	<path d="M178.1,65.5c0,1.6-1.3,2.8-2.8,2.8c-1.6,0-2.8-1.3-2.8-2.8c0-1.6,1.3-2.8,2.8-2.8C176.8,62.7,178.1,63.9,178.1,65.5z"/>
	<path d="M178.1,58.3c0,1.6-1.3,2.8-2.8,2.8c-1.6,0-2.8-1.3-2.8-2.8c0-1.6,1.3-2.8,2.8-2.8C176.8,55.5,178.1,56.7,178.1,58.3z"/>
	<path d="M185.3,223.9c0,1.6-1.3,2.8-2.8,2.8c-1.6,0-2.8-1.3-2.8-2.8c0-1.6,1.3-2.8,2.8-2.8C184,221.1,185.3,222.3,185.3,223.9z"/>
	<path d="M178.1,231.1c0,1.6-1.3,2.8-2.8,2.8c-1.6,0-2.8-1.3-2.8-2.8c0-1.6,1.3-2.8,2.8-2.8C176.8,228.3,178.1,229.5,178.1,231.1z"
		/>
	<path d="M178.1,223.9c0,1.6-1.3,2.8-2.8,2.8c-1.6,0-2.8-1.3-2.8-2.8c0-1.6,1.3-2.8,2.8-2.8C176.8,221.1,178.1,222.3,178.1,223.9z"
		/>
	<path d="M185.3,216.7c0,1.6-1.3,2.8-2.8,2.8c-1.6,0-2.8-1.3-2.8-2.8c0-1.6,1.3-2.8,2.8-2.8C184,213.9,185.3,215.1,185.3,216.7z"/>
	<path d="M185.3,209.5c0,1.6-1.3,2.8-2.8,2.8c-1.6,0-2.8-1.3-2.8-2.8c0-1.6,1.3-2.8,2.8-2.8C184,206.6,185.3,207.9,185.3,209.5z"/>
	<path d="M178.1,216.7c0,1.6-1.3,2.8-2.8,2.8c-1.6,0-2.8-1.3-2.8-2.8c0-1.6,1.3-2.8,2.8-2.8C176.8,213.9,178.1,215.1,178.1,216.7z"
		/>
	<path d="M178.1,209.5c0,1.6-1.3,2.8-2.8,2.8c-1.6,0-2.8-1.3-2.8-2.8c0-1.6,1.3-2.8,2.8-2.8C176.8,206.7,178.1,207.9,178.1,209.5z"
		/>
	<path d="M185.3,202.3c0,1.6-1.3,2.8-2.8,2.8c-1.6,0-2.8-1.3-2.8-2.8c0-1.6,1.3-2.8,2.8-2.8C184,199.5,185.3,200.7,185.3,202.3z"/>
	<path d="M178.1,202.3c0,1.6-1.3,2.8-2.8,2.8c-1.6,0-2.8-1.3-2.8-2.8c0-1.6,1.3-2.8,2.8-2.8C176.8,199.5,178.1,200.7,178.1,202.3z"
		/>
	<path d="M36.8,83c0.1,0,3.1,0,3.2,0c0.9-0.1,1.5-0.8,1.5-1.7s-0.7-1.6-1.5-1.8c-0.1,0-3.1,0-3.2,0c-1,0-1.8,0.8-1.8,1.8
		C35,82.2,35.8,83,36.8,83z"/>
	<path d="M25.4,83c0.1,0,2.3,0,2.4,0c0.9-0.1,1.5-0.8,1.5-1.7s-0.6-1.6-1.5-1.8c-0.1,0-2.3,0-2.4,0c-1,0-1.8,0.8-1.8,1.8
		C23.6,82.2,24.4,83,25.4,83z"/>
	<path d="M36.8,107.5c0.1,0,3.1,0,3.2,0c0.9-0.1,1.5-0.8,1.5-1.7s-0.7-1.6-1.5-1.8c-0.1,0-3.1,0-3.2,0c-1,0-1.8,0.8-1.8,1.8
		C35,106.8,35.8,107.5,36.8,107.5z"/>
	<path d="M25.4,107.5c0.1,0,2.3,0,2.4,0c0.9-0.1,1.5-0.8,1.5-1.7s-0.6-1.6-1.5-1.8c-0.1,0-2.3,0-2.4,0c-1,0-1.8,0.8-1.8,1.8
		C23.6,106.8,24.4,107.5,25.4,107.5z"/>
	<path d="M201.1,23.5c0,1.6-1.3,2.8-2.8,2.8c-1.6,0-2.8-1.3-2.8-2.8c0-1.6,1.3-2.8,2.8-2.8C199.8,20.7,201.1,22,201.1,23.5z"/>
	<path d="M201.1,16.5c0,1.6-1.3,2.8-2.8,2.8c-1.6,0-2.8-1.3-2.8-2.8c0-1.6,1.3-2.8,2.8-2.8C199.8,13.6,201.1,14.9,201.1,16.5z"/>
	<path d="M201.1,23.5c0,1.6-1.3,2.8-2.8,2.8c-1.6,0-2.8-1.3-2.8-2.8c0-1.6,1.3-2.8,2.8-2.8C199.8,20.7,201.1,22,201.1,23.5z"/>
	<path d="M201.1,16.5c0,1.6-1.3,2.8-2.8,2.8c-1.6,0-2.8-1.3-2.8-2.8c0-1.6,1.3-2.8,2.8-2.8C199.8,13.6,201.1,14.9,201.1,16.5z"/>
	<path d="M201.1,37.7c0,1.6-1.3,2.8-2.8,2.8c-1.6,0-2.8-1.3-2.8-2.8c0-1.6,1.3-2.8,2.8-2.8C199.8,34.9,201.1,36.2,201.1,37.7z"/>
	<path d="M201.1,30.6c0,1.6-1.3,2.8-2.8,2.8c-1.6,0-2.8-1.3-2.8-2.8c0-1.6,1.3-2.8,2.8-2.8C199.8,27.8,201.1,29.1,201.1,30.6z"/>
	<path d="M201.1,37.7c0,1.6-1.3,2.8-2.8,2.8c-1.6,0-2.8-1.3-2.8-2.8c0-1.6,1.3-2.8,2.8-2.8C199.8,34.9,201.1,36.2,201.1,37.7z"/>
	<path d="M201.1,30.6c0,1.6-1.3,2.8-2.8,2.8c-1.6,0-2.8-1.3-2.8-2.8c0-1.6,1.3-2.8,2.8-2.8C199.8,27.8,201.1,29.1,201.1,30.6z"/>
	<path d="M32.3,62.4c0,1.6-1.3,2.8-2.8,2.8c-1.6,0-2.8-1.3-2.8-2.8c0-1.6,1.3-2.8,2.8-2.8C31,59.5,32.3,60.8,32.3,62.4z"/>
	<path d="M108.6,259.9c0-1.7,1.4-3.1,3.1-3.1s3.1,1.4,3.1,3.1c0,1.7-1.4,3.1-3.1,3.1C110,263,108.6,261.6,108.6,259.9z"/>
	<path d="M116.3,259.9c0-1.7,1.4-3.1,3.1-3.1s3.1,1.4,3.1,3.1c0,1.7-1.4,3.1-3.1,3.1C117.7,263,116.3,261.6,116.3,259.9z"/>
	<circle cx="127.4" cy="259.9" r="3.1"/>
	<path d="M132.2,259.9c0-1.7,1.4-3.1,3.1-3.1c1.7,0,3.1,1.4,3.1,3.1c0,1.7-1.4,3.1-3.1,3.1C133.6,263,132.2,261.6,132.2,259.9z"/>
	<path d="M104.8,252.7c0-1.7,1.4-3.1,3.1-3.1s3.1,1.4,3.1,3.1c0,1.7-1.4,3.1-3.1,3.1S104.8,254.4,104.8,252.7z"/>
	<path d="M112.6,252.7c0-1.7,1.4-3.1,3.1-3.1c1.7,0,3.1,1.4,3.1,3.1c0,1.7-1.4,3.1-3.1,3.1C114,255.8,112.6,254.4,112.6,252.7z"/>
	<path d="M120.3,252.7c0-1.7,1.4-3.1,3.1-3.1s3.1,1.4,3.1,3.1c0,1.7-1.4,3.1-3.1,3.1C121.7,255.8,120.3,254.4,120.3,252.7z"/>
	<path d="M128.2,252.7c0-1.7,1.4-3.1,3.1-3.1c1.7,0,3.1,1.4,3.1,3.1c0,1.7-1.4,3.1-3.1,3.1C129.6,255.8,128.2,254.4,128.2,252.7z"/>
	<path d="M136.2,252.7c0-1.7,1.4-3.1,3.1-3.1s3.1,1.4,3.1,3.1c0,1.7-1.4,3.1-3.1,3.1S136.2,254.4,136.2,252.7z"/>
	<path d="M140.2,260c0-1.7,1.4-3.1,3.1-3.1s3.1,1.4,3.1,3.1c0,1.7-1.4,3.1-3.1,3.1S140.2,261.7,140.2,260z"/>
	<circle cx="151.3" cy="260" r="3.1"/>
	<path d="M156.1,260c0-1.7,1.4-3.1,3.1-3.1c1.7,0,3.1,1.4,3.1,3.1c0,1.7-1.4,3.1-3.1,3.1C157.5,263.1,156.1,261.7,156.1,260z"/>
	<path d="M144.1,252.8c0-1.7,1.4-3.1,3.1-3.1s3.1,1.4,3.1,3.1c0,1.7-1.4,3.1-3.1,3.1C145.5,255.9,144.1,254.5,144.1,252.8z"/>
	<path d="M152.1,252.8c0-1.7,1.4-3.1,3.1-3.1c1.7,0,3.1,1.4,3.1,3.1c0,1.7-1.4,3.1-3.1,3.1C153.5,255.9,152.1,254.5,152.1,252.8z"/>
	<path d="M160.1,252.8c0-1.7,1.4-3.1,3.1-3.1s3.1,1.4,3.1,3.1c0,1.7-1.4,3.1-3.1,3.1C161.4,255.9,160.1,254.5,160.1,252.8z"/>
	<circle cx="182.8" cy="255.9" r="7.1"/>
	<path d="M77.1,259.9c0-1.7,1.4-3.1,3.1-3.1s3.1,1.4,3.1,3.1c0,1.7-1.4,3.1-3.1,3.1C78.5,263,77.1,261.6,77.1,259.9z"/>
	<path d="M84.8,259.9c0-1.7,1.4-3.1,3.1-3.1s3.1,1.4,3.1,3.1c0,1.7-1.4,3.1-3.1,3.1C86.2,263,84.8,261.6,84.8,259.9z"/>
	<circle cx="95.9" cy="259.9" r="3.1"/>
	<path d="M100.7,259.9c0-1.7,1.4-3.1,3.1-3.1c1.7,0,3.1,1.4,3.1,3.1c0,1.7-1.4,3.1-3.1,3.1C102.1,263,100.7,261.6,100.7,259.9z"/>
	<path d="M73.2,252.7c0-1.7,1.4-3.1,3.1-3.1s3.1,1.4,3.1,3.1c0,1.7-1.4,3.1-3.1,3.1C74.6,255.8,73.2,254.4,73.2,252.7z"/>
	<path d="M81.1,252.7c0-1.7,1.4-3.1,3.1-3.1c1.7,0,3.1,1.4,3.1,3.1c0,1.7-1.4,3.1-3.1,3.1C82.5,255.8,81.1,254.4,81.1,252.7z"/>
	<path d="M88.7,252.6c0-1.7,1.4-3.1,3.1-3.1s3.1,1.4,3.1,3.1c0,1.7-1.4,3.1-3.1,3.1S88.7,254.4,88.7,252.6z"/>
	<path d="M96.7,252.6c0-1.7,1.4-3.1,3.1-3.1c1.7,0,3.1,1.4,3.1,3.1c0,1.7-1.4,3.1-3.1,3.1C98.1,255.8,96.7,254.4,96.7,252.6z"/>
	<path d="M69.2,259.9c0-1.7,1.4-3.1,3.1-3.1s3.1,1.4,3.1,3.1c0,1.7-1.4,3.1-3.1,3.1C70.6,263,69.2,261.6,69.2,259.9z"/>
	<path d="M65.3,252.7c0-1.7,1.4-3.1,3.1-3.1s3.1,1.4,3.1,3.1c0,1.7-1.4,3.1-3.1,3.1C66.7,255.8,65.3,254.4,65.3,252.7z"/>
	<circle cx="48.9" cy="255.9" r="7.1"/>
	<path d="M153.3,231.1c0,1.6-1.3,2.8-2.8,2.8c-1.6,0-2.8-1.3-2.8-2.8c0-1.6,1.3-2.8,2.8-2.8C152,228.2,153.3,229.5,153.3,231.1z"/>
	<path d="M146.1,231.1c0,1.6-1.3,2.8-2.8,2.8c-1.6,0-2.8-1.3-2.8-2.8c0-1.6,1.3-2.8,2.8-2.8C144.8,228.3,146.1,229.5,146.1,231.1z"
		/>
	<path d="M153.3,223.9c0,1.6-1.3,2.8-2.8,2.8c-1.6,0-2.8-1.3-2.8-2.8c0-1.6,1.3-2.8,2.8-2.8C152,221.1,153.3,222.3,153.3,223.9z"/>
	<path d="M153.3,216.7c0,1.6-1.3,2.8-2.8,2.8c-1.6,0-2.8-1.3-2.8-2.8c0-1.6,1.3-2.8,2.8-2.8C152,213.9,153.3,215.1,153.3,216.7z"/>
	<path d="M146.1,223.9c0,1.6-1.3,2.8-2.8,2.8c-1.6,0-2.8-1.3-2.8-2.8c0-1.6,1.3-2.8,2.8-2.8C144.8,221.1,146.1,222.3,146.1,223.9z"
		/>
	<path d="M146.1,216.7c0,1.6-1.3,2.8-2.8,2.8c-1.6,0-2.8-1.3-2.8-2.8c0-1.6,1.3-2.8,2.8-2.8C144.8,213.9,146.1,215.1,146.1,216.7z"
		/>
	<path d="M153.3,209.5c0,1.6-1.3,2.8-2.8,2.8c-1.6,0-2.8-1.3-2.8-2.8c0-1.6,1.3-2.8,2.8-2.8C152,206.7,153.3,207.9,153.3,209.5z"/>
	<path d="M153.3,202.3c0,1.6-1.3,2.8-2.8,2.8c-1.6,0-2.8-1.3-2.8-2.8c0-1.6,1.3-2.8,2.8-2.8C152,199.5,153.3,200.7,153.3,202.3z"/>
	<path d="M146.1,209.5c0,1.6-1.3,2.8-2.8,2.8c-1.6,0-2.8-1.3-2.8-2.8c0-1.6,1.3-2.8,2.8-2.8C144.8,206.7,146.1,207.9,146.1,209.5z"
		/>
	<path d="M146.1,202.3c0,1.6-1.3,2.8-2.8,2.8c-1.6,0-2.8-1.3-2.8-2.8c0-1.6,1.3-2.8,2.8-2.8C144.8,199.5,146.1,200.7,146.1,202.3z"
		/>
	<path d="M153.3,231.1c0,1.6-1.3,2.8-2.8,2.8c-1.6,0-2.8-1.3-2.8-2.8c0-1.6,1.3-2.8,2.8-2.8C152,228.2,153.3,229.5,153.3,231.1z"/>
	<path d="M146.1,231.1c0,1.6-1.3,2.8-2.8,2.8c-1.6,0-2.8-1.3-2.8-2.8c0-1.6,1.3-2.8,2.8-2.8C144.8,228.3,146.1,229.5,146.1,231.1z"
		/>
	<path d="M153.3,223.9c0,1.6-1.3,2.8-2.8,2.8c-1.6,0-2.8-1.3-2.8-2.8c0-1.6,1.3-2.8,2.8-2.8C152,221.1,153.3,222.3,153.3,223.9z"/>
	<path d="M153.3,216.7c0,1.6-1.3,2.8-2.8,2.8c-1.6,0-2.8-1.3-2.8-2.8c0-1.6,1.3-2.8,2.8-2.8C152,213.9,153.3,215.1,153.3,216.7z"/>
	<path d="M146.1,223.9c0,1.6-1.3,2.8-2.8,2.8c-1.6,0-2.8-1.3-2.8-2.8c0-1.6,1.3-2.8,2.8-2.8C144.8,221.1,146.1,222.3,146.1,223.9z"
		/>
	<path d="M146.1,216.7c0,1.6-1.3,2.8-2.8,2.8c-1.6,0-2.8-1.3-2.8-2.8c0-1.6,1.3-2.8,2.8-2.8C144.8,213.9,146.1,215.1,146.1,216.7z"
		/>
	<path d="M153.3,209.5c0,1.6-1.3,2.8-2.8,2.8c-1.6,0-2.8-1.3-2.8-2.8c0-1.6,1.3-2.8,2.8-2.8C152,206.7,153.3,207.9,153.3,209.5z"/>
	<path d="M153.3,202.3c0,1.6-1.3,2.8-2.8,2.8c-1.6,0-2.8-1.3-2.8-2.8c0-1.6,1.3-2.8,2.8-2.8C152,199.5,153.3,200.7,153.3,202.3z"/>
	<path d="M146.1,209.5c0,1.6-1.3,2.8-2.8,2.8c-1.6,0-2.8-1.3-2.8-2.8c0-1.6,1.3-2.8,2.8-2.8C144.8,206.7,146.1,207.9,146.1,209.5z"
		/>
	<path d="M146.1,202.3c0,1.6-1.3,2.8-2.8,2.8c-1.6,0-2.8-1.3-2.8-2.8c0-1.6,1.3-2.8,2.8-2.8C144.8,199.5,146.1,200.7,146.1,202.3z"
		/>
	<circle cx="74.1" cy="156" r="2.1"/>
	<circle cx="74.1" cy="150.3" r="2.1"/>
	<circle cx="74.1" cy="144.7" r="2.1"/>
</g>
</svg>
