<?xml version="1.0" encoding="utf-8"?>
<!-- Generator: Adobe Illustrator 27.0.0, SVG Export Plug-In . SVG Version: 6.00 Build 0)  -->
<svg version="1.1" id="Calque_1" xmlns="http://www.w3.org/2000/svg" xmlns:xlink="http://www.w3.org/1999/xlink" x="0px" y="0px"
	 viewBox="0 0 229.1 294.7" style="enable-background:new 0 0 229.1 294.7;" xml:space="preserve">
<style type="text/css">
	.st0{fill:none;stroke:#000000;stroke-width:0.1;stroke-miterlimit:10;}
</style>
<g>
	<path class="st0" d="M19.2,17c0-3.7,3-6.7,6.7-6.7h19v11.4h145.6V10.3H207c3.7,0,6.7,3,6.7,6.7v259c0,3.7-3,6.7-6.7,6.7H25.9
		c-3.7,0-6.7-3-6.7-6.7v-44.2c6.7-8.7,10.8-19.6,10.8-31.5c0-11.9-4-22.8-10.8-31.5V148c4.6-4.2,7.4-10.2,7.4-16.9
		c0-6.7-2.9-12.7-7.4-16.8V17z"/>
</g>
<g>
	<circle cx="53.8" cy="234.8" r="2.1"/>
	<circle cx="38" cy="119.7" r="1.4"/>
	<circle cx="38" cy="142.3" r="1.4"/>
	<circle cx="53.8" cy="166.2" r="2.1"/>
	<circle cx="185.6" cy="32" r="1.1"/>
	<circle cx="185.6" cy="37.7" r="1.1"/>
	<circle cx="179.9" cy="32" r="1.1"/>
	<circle cx="179.9" cy="37.7" r="1.1"/>
	<circle cx="174.2" cy="32" r="1.1"/>
	<circle cx="174.2" cy="37.7" r="1.1"/>
	<circle cx="168.6" cy="32" r="1.1"/>
	<circle cx="168.6" cy="37.7" r="1.1"/>
	<circle cx="162.9" cy="32" r="1.1"/>
	<circle cx="162.9" cy="37.7" r="1.1"/>
	<circle cx="157.2" cy="32" r="1.1"/>
	<circle cx="157.2" cy="37.7" r="1.1"/>
	<circle cx="151.5" cy="32" r="1.1"/>
	<circle cx="151.5" cy="37.7" r="1.1"/>
	<circle cx="145.9" cy="32" r="1.1"/>
	<circle cx="145.9" cy="37.7" r="1.1"/>
	<circle cx="140.2" cy="32" r="1.1"/>
	<circle cx="140.2" cy="37.7" r="1.1"/>
	<circle cx="134.5" cy="32" r="1.1"/>
	<circle cx="134.5" cy="37.7" r="1.1"/>
	<circle cx="128.9" cy="32" r="1.1"/>
	<circle cx="128.9" cy="37.7" r="1.1"/>
	<circle cx="123.2" cy="32" r="1.1"/>
	<circle cx="117.5" cy="32" r="1.1"/>
	<circle cx="117.5" cy="37.7" r="1.1"/>
	<circle cx="111.9" cy="32" r="1.1"/>
	<circle cx="111.9" cy="37.7" r="1.1"/>
	<circle cx="106.2" cy="32" r="1.1"/>
	<circle cx="106.2" cy="37.7" r="1.1"/>
	<circle cx="100.5" cy="32" r="1.1"/>
	<circle cx="100.5" cy="37.7" r="1.1"/>
	<circle cx="94.8" cy="32" r="1.1"/>
	<circle cx="94.8" cy="37.7" r="1.1"/>
	<circle cx="89.2" cy="32" r="1.1"/>
	<circle cx="89.2" cy="37.7" r="1.1"/>
	<circle cx="83.5" cy="32" r="1.1"/>
	<circle cx="83.5" cy="37.7" r="1.1"/>
	<circle cx="77.8" cy="32" r="1.1"/>
	<circle cx="77.8" cy="37.7" r="1.1"/>
	<circle cx="66.5" cy="32" r="1.1"/>
	<circle cx="66.5" cy="37.7" r="1.1"/>
	<circle cx="60.8" cy="32" r="1.1"/>
	<circle cx="60.8" cy="37.7" r="1.1"/>
	<circle cx="55.2" cy="32" r="1.1"/>
	<circle cx="55.2" cy="37.7" r="1.1"/>
	<circle cx="49.5" cy="32" r="1.1"/>
	<circle cx="49.5" cy="37.7" r="1.1"/>
	<path d="M181.1,195.1c0,0.8,0.6,1.4,1.4,1.4c0.8,0,1.4-0.6,1.4-1.4c0-0.8-0.6-1.4-1.4-1.4C181.7,193.7,181.1,194.3,181.1,195.1z"/>
	<path d="M181.1,187.9c0,0.8,0.6,1.4,1.4,1.4c0.8,0,1.4-0.6,1.4-1.4c0-0.8-0.6-1.4-1.4-1.4C181.7,186.5,181.1,187.1,181.1,187.9z"/>
	<path d="M173.9,195.1c0,0.8,0.6,1.4,1.4,1.4c0.8,0,1.4-0.6,1.4-1.4s-0.6-1.4-1.4-1.4C174.5,193.7,173.9,194.3,173.9,195.1z"/>
	<path d="M173.9,187.9c0,0.8,0.6,1.4,1.4,1.4c0.8,0,1.4-0.6,1.4-1.4c0-0.8-0.6-1.4-1.4-1.4C174.5,186.5,173.9,187.1,173.9,187.9z"/>
	<path d="M181,180.7c0,0.8,0.6,1.4,1.4,1.4c0.8,0,1.4-0.6,1.4-1.4c0-0.8-0.6-1.4-1.4-1.4C181.7,179.3,181,179.9,181,180.7z"/>
	<path d="M181,173.5c0,0.8,0.6,1.4,1.4,1.4c0.8,0,1.4-0.6,1.4-1.4c0-0.8-0.6-1.4-1.4-1.4C181.7,172.1,181,172.7,181,173.5z"/>
	<path d="M173.8,180.7c0,0.8,0.6,1.4,1.4,1.4c0.8,0,1.4-0.6,1.4-1.4c0-0.8-0.6-1.4-1.4-1.4C174.5,179.3,173.8,179.9,173.8,180.7z"/>
	<path d="M173.8,173.5c0,0.8,0.6,1.4,1.4,1.4c0.8,0,1.4-0.6,1.4-1.4c0-0.8-0.6-1.4-1.4-1.4C174.5,172.1,173.8,172.7,173.8,173.5z"/>
	<path d="M181,166.3c0,0.8,0.6,1.4,1.4,1.4s1.4-0.6,1.4-1.4c0-0.8-0.6-1.4-1.4-1.4S181,165.5,181,166.3z"/>
	<path d="M181,159.1c0,0.8,0.6,1.4,1.4,1.4s1.4-0.6,1.4-1.4c0-0.8-0.6-1.4-1.4-1.4S181,158.3,181,159.1z"/>
	<path d="M173.8,166.3c0,0.8,0.6,1.4,1.4,1.4c0.8,0,1.4-0.6,1.4-1.4c0-0.8-0.6-1.4-1.4-1.4S173.8,165.5,173.8,166.3z"/>
	<path d="M173.8,159.1c0,0.8,0.6,1.4,1.4,1.4c0.8,0,1.4-0.6,1.4-1.4c0-0.8-0.6-1.4-1.4-1.4C174.5,157.7,173.8,158.3,173.8,159.1z"/>
	<path d="M181,151.9c0,0.8,0.6,1.4,1.4,1.4c0.8,0,1.4-0.6,1.4-1.4c0-0.8-0.6-1.4-1.4-1.4C181.7,150.5,181,151.1,181,151.9z"/>
	<path d="M181,144.7c0,0.8,0.6,1.4,1.4,1.4c0.8,0,1.4-0.6,1.4-1.4c0-0.8-0.6-1.4-1.4-1.4C181.7,143.3,181,143.9,181,144.7z"/>
	<path d="M173.8,151.9c0,0.8,0.6,1.4,1.4,1.4c0.8,0,1.4-0.6,1.4-1.4c0-0.8-0.6-1.4-1.4-1.4C174.5,150.5,173.8,151.1,173.8,151.9z"/>
	<path d="M173.8,144.7c0,0.8,0.6,1.4,1.4,1.4c0.8,0,1.4-0.6,1.4-1.4c0-0.8-0.6-1.4-1.4-1.4C174.5,143.3,173.8,143.9,173.8,144.7z"/>
	<path d="M181,137.5c0,0.8,0.6,1.4,1.4,1.4s1.4-0.6,1.4-1.4c0-0.8-0.6-1.4-1.4-1.4S181,136.7,181,137.5z"/>
	<path d="M181,130.3c0,0.8,0.6,1.4,1.4,1.4s1.4-0.6,1.4-1.4c0-0.8-0.6-1.4-1.4-1.4S181,129.5,181,130.3z"/>
	<path d="M173.8,137.5c0,0.8,0.6,1.4,1.4,1.4c0.8,0,1.4-0.6,1.4-1.4s-0.6-1.4-1.4-1.4S173.8,136.7,173.8,137.5z"/>
	<path d="M173.8,130.3c0,0.8,0.6,1.4,1.4,1.4c0.8,0,1.4-0.6,1.4-1.4c0-0.8-0.6-1.4-1.4-1.4S173.8,129.5,173.8,130.3z"/>
	<path d="M181,123.1c0,0.8,0.6,1.4,1.4,1.4c0.8,0,1.4-0.6,1.4-1.4c0-0.8-0.6-1.4-1.4-1.4S181,122.3,181,123.1z"/>
	<path d="M181,115.9c0,0.8,0.6,1.4,1.4,1.4c0.8,0,1.4-0.6,1.4-1.4c0-0.8-0.6-1.4-1.4-1.4S181,115.1,181,115.9z"/>
	<path d="M173.8,123.1c0,0.8,0.6,1.4,1.4,1.4c0.8,0,1.4-0.6,1.4-1.4c0-0.8-0.6-1.4-1.4-1.4S173.8,122.3,173.8,123.1z"/>
	<path d="M173.8,115.9c0,0.8,0.6,1.4,1.4,1.4c0.8,0,1.4-0.6,1.4-1.4c0-0.8-0.6-1.4-1.4-1.4S173.8,115.1,173.8,115.9z"/>
	<path d="M181,108.7c0,0.8,0.6,1.4,1.4,1.4s1.4-0.6,1.4-1.4c0-0.8-0.6-1.4-1.4-1.4S181,107.9,181,108.7z"/>
	<path d="M181,101.5c0,0.8,0.6,1.4,1.4,1.4s1.4-0.6,1.4-1.4c0-0.8-0.6-1.4-1.4-1.4S181,100.7,181,101.5z"/>
	<path d="M173.8,108.7c0,0.8,0.6,1.4,1.4,1.4c0.8,0,1.4-0.6,1.4-1.4c0-0.8-0.6-1.4-1.4-1.4C174.5,107.3,173.8,107.9,173.8,108.7z"/>
	<path d="M173.8,101.5c0,0.8,0.6,1.4,1.4,1.4c0.8,0,1.4-0.6,1.4-1.4c0-0.8-0.6-1.4-1.4-1.4C174.5,100.1,173.8,100.7,173.8,101.5z"/>
	<path d="M181,94.3c0,0.8,0.6,1.4,1.4,1.4c0.8,0,1.4-0.6,1.4-1.4c0-0.8-0.6-1.4-1.4-1.4C181.6,92.9,181,93.5,181,94.3z"/>
	<path d="M181,87.1c0,0.8,0.6,1.4,1.4,1.4c0.8,0,1.4-0.6,1.4-1.4c0-0.8-0.6-1.4-1.4-1.4C181.6,85.7,181,86.3,181,87.1z"/>
	<path d="M173.8,94.3c0,0.8,0.6,1.4,1.4,1.4s1.4-0.6,1.4-1.4c0-0.8-0.6-1.4-1.4-1.4S173.8,93.5,173.8,94.3z"/>
	<path d="M173.8,87.1c0,0.8,0.6,1.4,1.4,1.4s1.4-0.6,1.4-1.4c0-0.8-0.6-1.4-1.4-1.4S173.8,86.3,173.8,87.1z"/>
	<path d="M181,79.9c0,0.8,0.6,1.4,1.4,1.4c0.8,0,1.4-0.6,1.4-1.4c0-0.8-0.6-1.4-1.4-1.4C181.6,78.5,181,79.1,181,79.9z"/>
	<path d="M181,72.7c0,0.8,0.6,1.4,1.4,1.4c0.8,0,1.4-0.6,1.4-1.4c0-0.8-0.6-1.4-1.4-1.4C181.6,71.3,181,71.9,181,72.7z"/>
	<path d="M173.8,79.9c0,0.8,0.6,1.4,1.4,1.4c0.8,0,1.4-0.6,1.4-1.4c0-0.8-0.6-1.4-1.4-1.4C174.4,78.5,173.8,79.1,173.8,79.9z"/>
	<path d="M173.8,72.7c0,0.8,0.6,1.4,1.4,1.4c0.8,0,1.4-0.6,1.4-1.4c0-0.8-0.6-1.4-1.4-1.4C174.4,71.3,173.8,71.9,173.8,72.7z"/>
	<path d="M181,65.5c0,0.8,0.6,1.4,1.4,1.4c0.8,0,1.4-0.6,1.4-1.4c0-0.8-0.6-1.4-1.4-1.4C181.6,64.1,181,64.7,181,65.5z"/>
	<path d="M181,58.3c0,0.8,0.6,1.4,1.4,1.4c0.8,0,1.4-0.6,1.4-1.4c0-0.8-0.6-1.4-1.4-1.4C181.6,56.9,181,57.5,181,58.3z"/>
	<path d="M173.8,65.5c0,0.8,0.6,1.4,1.4,1.4s1.4-0.6,1.4-1.4c0-0.8-0.6-1.4-1.4-1.4S173.8,64.7,173.8,65.5z"/>
	<path d="M173.8,58.3c0,0.8,0.6,1.4,1.4,1.4s1.4-0.6,1.4-1.4c0-0.8-0.6-1.4-1.4-1.4S173.8,57.5,173.8,58.3z"/>
	<path d="M181.1,231.1c0,0.8,0.6,1.4,1.4,1.4c0.8,0,1.4-0.6,1.4-1.4c0-0.8-0.6-1.4-1.4-1.4C181.7,229.7,181.1,230.3,181.1,231.1z"/>
	<path d="M181.1,223.9c0,0.8,0.6,1.4,1.4,1.4c0.8,0,1.4-0.6,1.4-1.4c0-0.8-0.6-1.4-1.4-1.4C181.7,222.5,181.1,223.1,181.1,223.9z"/>
	<path d="M173.9,231.1c0,0.8,0.6,1.4,1.4,1.4c0.8,0,1.4-0.6,1.4-1.4s-0.6-1.4-1.4-1.4C174.5,229.7,173.9,230.3,173.9,231.1z"/>
	<path d="M173.9,223.9c0,0.8,0.6,1.4,1.4,1.4c0.8,0,1.4-0.6,1.4-1.4c0-0.8-0.6-1.4-1.4-1.4C174.5,222.5,173.9,223.1,173.9,223.9z"/>
	<path d="M181.1,216.7c0,0.8,0.6,1.4,1.4,1.4c0.8,0,1.4-0.6,1.4-1.4c0-0.8-0.6-1.4-1.4-1.4C181.7,215.3,181.1,215.9,181.1,216.7z"/>
	<path d="M181.1,209.5c0,0.8,0.6,1.4,1.4,1.4c0.8,0,1.4-0.6,1.4-1.4c0-0.8-0.6-1.4-1.4-1.4C181.7,208.1,181.1,208.7,181.1,209.5z"/>
	<path d="M173.9,216.7c0,0.8,0.6,1.4,1.4,1.4c0.8,0,1.4-0.6,1.4-1.4c0-0.8-0.6-1.4-1.4-1.4C174.5,215.3,173.9,215.9,173.9,216.7z"/>
	<path d="M173.9,209.5c0,0.8,0.6,1.4,1.4,1.4c0.8,0,1.4-0.6,1.4-1.4c0-0.8-0.6-1.4-1.4-1.4C174.5,208.1,173.9,208.7,173.9,209.5z"/>
	<path d="M181,202.3c0,0.8,0.6,1.4,1.4,1.4s1.4-0.6,1.4-1.4c0-0.8-0.6-1.4-1.4-1.4S181,201.5,181,202.3z"/>
	<path d="M173.8,202.3c0,0.8,0.6,1.4,1.4,1.4c0.8,0,1.4-0.6,1.4-1.4c0-0.8-0.6-1.4-1.4-1.4C174.5,200.9,173.8,201.5,173.8,202.3z"/>
	<circle cx="36.8" cy="101.7" r="0.8"/>
	<circle cx="36.8" cy="85.3" r="0.8"/>
	<path d="M196.9,23.5c0,0.8,0.6,1.4,1.4,1.4c0.8,0,1.4-0.6,1.4-1.4c0-0.8-0.6-1.4-1.4-1.4S196.9,22.8,196.9,23.5z"/>
	<path d="M196.9,16.5c0,0.8,0.6,1.4,1.4,1.4c0.8,0,1.4-0.6,1.4-1.4c0-0.8-0.6-1.4-1.4-1.4C197.5,15,196.9,15.7,196.9,16.5z"/>
	<path d="M196.9,37.7c0,0.8,0.6,1.4,1.4,1.4c0.8,0,1.4-0.6,1.4-1.4c0-0.8-0.6-1.4-1.4-1.4C197.5,36.3,196.9,36.9,196.9,37.7z"/>
	<path d="M196.9,30.6c0,0.8,0.6,1.4,1.4,1.4c0.8,0,1.4-0.6,1.4-1.4c0-0.8-0.6-1.4-1.4-1.4C197.5,29.2,196.9,29.9,196.9,30.6z"/>
	<circle cx="115.1" cy="148.9" r="0.4"/>
	<circle cx="90.8" cy="141.7" r="0.4"/>
	<circle cx="90.8" cy="137.7" r="0.4"/>
	<circle cx="103.8" cy="119.3" r="0.4"/>
	<circle cx="115.1" cy="119.3" r="0.4"/>
	<circle cx="124.8" cy="134.7" r="0.4"/>
	<circle cx="124.8" cy="138.7" r="0.4"/>
	<circle cx="124.8" cy="143.7" r="0.4"/>
	<circle cx="124.8" cy="147.7" r="0.4"/>
	<circle cx="123.1" cy="153.5" r="0.4"/>
	<circle cx="104.8" cy="148.9" r="0.4"/>
	<path d="M28.1,69.6c0,0.8,0.6,1.4,1.4,1.4c0.8,0,1.4-0.6,1.4-1.4c0-0.8-0.6-1.4-1.4-1.4C28.7,68.1,28.1,68.8,28.1,69.6z"/>
	<path d="M28.1,62.4c0,0.8,0.6,1.4,1.4,1.4c0.8,0,1.4-0.6,1.4-1.4c0-0.8-0.6-1.4-1.4-1.4C28.7,60.9,28.1,61.6,28.1,62.4z"/>
	<circle cx="71.4" cy="130.6" r="0.4"/>
	<circle cx="130" cy="201.2" r="0.4"/>
	<circle cx="129.5" cy="183.4" r="0.4"/>
	<circle cx="129.5" cy="210.3" r="0.4"/>
	<circle cx="129.5" cy="217.4" r="0.4"/>
	<circle cx="129.5" cy="224.5" r="0.4"/>
	<circle cx="107.9" cy="265.3" r="0.4"/>
	<circle cx="97.4" cy="264.5" r="0.4"/>
	<circle cx="111.8" cy="270.5" r="0.4"/>
	<circle cx="173" cy="243.8" r="0.4"/>
	<path d="M117.2,252.7c0,0.8-0.6,1.4-1.4,1.4c-0.8,0-1.4-0.6-1.4-1.4c0-0.8,0.6-1.4,1.4-1.4C116.5,251.3,117.2,251.9,117.2,252.7z"
		/>
	<path d="M113.2,259.9c0,0.8-0.6,1.4-1.4,1.4c-0.8,0-1.4-0.6-1.4-1.4c0-0.8,0.6-1.4,1.4-1.4S113.2,259.1,113.2,259.9z"/>
	<path d="M109.3,252.7c0,0.8-0.6,1.4-1.4,1.4c-0.8,0-1.4-0.6-1.4-1.4c0-0.8,0.6-1.4,1.4-1.4C108.7,251.3,109.3,251.9,109.3,252.7z"
		/>
	<path d="M124.8,252.7c0,0.8-0.6,1.4-1.4,1.4c-0.8,0-1.4-0.6-1.4-1.4s0.6-1.4,1.4-1.4C124.2,251.2,124.8,251.9,124.8,252.7z"/>
	<path d="M132.8,252.7c0,0.8-0.6,1.4-1.4,1.4s-1.4-0.6-1.4-1.4s0.6-1.4,1.4-1.4S132.8,251.9,132.8,252.7z"/>
	<path d="M140.7,252.7c0,0.8-0.6,1.4-1.4,1.4s-1.4-0.6-1.4-1.4c0-0.8,0.6-1.4,1.4-1.4S140.7,251.9,140.7,252.7z"/>
	<path d="M136.8,259.9c0,0.8-0.6,1.4-1.4,1.4c-0.8,0-1.4-0.6-1.4-1.4s0.6-1.4,1.4-1.4C136.1,258.5,136.8,259.1,136.8,259.9z"/>
	<path d="M128.8,259.9c0,0.8-0.6,1.4-1.4,1.4c-0.8,0-1.4-0.6-1.4-1.4s0.6-1.4,1.4-1.4C128.2,258.5,128.8,259.1,128.8,259.9z"/>
	<path d="M120.9,259.9c0,0.8-0.6,1.4-1.4,1.4c-0.8,0-1.4-0.6-1.4-1.4c0-0.8,0.6-1.4,1.4-1.4C120.2,258.5,120.9,259.1,120.9,259.9z"
		/>
	<path d="M148.7,252.8c0,0.8-0.6,1.4-1.4,1.4c-0.8,0-1.4-0.6-1.4-1.4c0-0.8,0.6-1.4,1.4-1.4C148.1,251.3,148.7,252,148.7,252.8z"/>
	<path d="M156.6,252.8c0,0.8-0.6,1.4-1.4,1.4s-1.4-0.6-1.4-1.4c0-0.8,0.6-1.4,1.4-1.4S156.6,252,156.6,252.8z"/>
	<path d="M164.6,252.8c0,0.8-0.6,1.4-1.4,1.4s-1.4-0.6-1.4-1.4s0.6-1.4,1.4-1.4S164.6,252,164.6,252.8z"/>
	<path d="M160.6,260c0,0.8-0.6,1.4-1.4,1.4c-0.8,0-1.4-0.6-1.4-1.4s0.6-1.4,1.4-1.4S160.6,259.2,160.6,260z"/>
	<path d="M152.7,260c0,0.8-0.6,1.4-1.4,1.4s-1.4-0.6-1.4-1.4s0.6-1.4,1.4-1.4S152.7,259.2,152.7,260z"/>
	<path d="M144.7,260c0,0.8-0.6,1.4-1.4,1.4c-0.8,0-1.4-0.6-1.4-1.4s0.6-1.4,1.4-1.4C144.1,258.5,144.7,259.2,144.7,260z"/>
	<path d="M85.6,252.7c0,0.8-0.6,1.4-1.4,1.4c-0.8,0-1.4-0.6-1.4-1.4s0.6-1.4,1.4-1.4C85,251.3,85.6,251.9,85.6,252.7z"/>
	<path d="M81.6,259.9c0,0.8-0.6,1.4-1.4,1.4c-0.8,0-1.4-0.6-1.4-1.4s0.6-1.4,1.4-1.4C81,258.4,81.6,259.1,81.6,259.9z"/>
	<path d="M77.8,252.7c0,0.8-0.6,1.4-1.4,1.4s-1.4-0.6-1.4-1.4s0.6-1.4,1.4-1.4S77.8,251.9,77.8,252.7z"/>
	<path d="M93.3,252.6c0,0.8-0.6,1.4-1.4,1.4c-0.8,0-1.4-0.6-1.4-1.4c0-0.8,0.6-1.4,1.4-1.4C92.6,251.2,93.3,251.9,93.3,252.6z"/>
	<path d="M101.2,252.6c0,0.8-0.6,1.4-1.4,1.4s-1.4-0.6-1.4-1.4c0-0.8,0.6-1.4,1.4-1.4S101.2,251.9,101.2,252.6z"/>
	<path d="M105.2,259.9c0,0.8-0.6,1.4-1.4,1.4c-0.8,0-1.4-0.6-1.4-1.4s0.6-1.4,1.4-1.4C104.6,258.5,105.2,259.1,105.2,259.9z"/>
	<path d="M97.3,259.9c0,0.8-0.6,1.4-1.4,1.4c-0.8,0-1.4-0.6-1.4-1.4s0.6-1.4,1.4-1.4C96.7,258.5,97.3,259.1,97.3,259.9z"/>
	<path d="M89.3,259.9c0,0.8-0.6,1.4-1.4,1.4c-0.8,0-1.4-0.6-1.4-1.4s0.6-1.4,1.4-1.4C88.7,258.4,89.3,259.1,89.3,259.9z"/>
	<path d="M73.8,259.9c0,0.8-0.6,1.4-1.4,1.4c-0.8,0-1.4-0.6-1.4-1.4s0.6-1.4,1.4-1.4C73.1,258.5,73.8,259.1,73.8,259.9z"/>
	<path d="M69.9,252.7c0,0.8-0.6,1.4-1.4,1.4c-0.8,0-1.4-0.6-1.4-1.4s0.6-1.4,1.4-1.4C69.2,251.3,69.9,251.9,69.9,252.7z"/>
	<path d="M36.8,82.2c0,0,3.1,0,3.1,0c0.5-0.1,0.8-0.4,0.8-0.9c0-0.5-0.3-0.8-0.8-0.9c0,0-3.1,0-3.1,0c-0.5,0-0.9,0.4-0.9,0.9
		C35.9,81.8,36.3,82.2,36.8,82.2z"/>
	<path d="M25.4,82.2c0,0,2.2,0,2.3,0c0.5-0.1,0.8-0.4,0.8-0.9c0-0.5-0.3-0.8-0.8-0.9c0,0-2.2,0-2.3,0c-0.5,0-0.9,0.4-0.9,0.9
		C24.5,81.8,24.9,82.2,25.4,82.2z"/>
	<path d="M36.8,106.7c0,0,3.1,0,3.1,0c0.5-0.1,0.8-0.4,0.8-0.9c0-0.5-0.3-0.8-0.8-0.9c0,0-3.1,0-3.1,0c-0.5,0-0.9,0.4-0.9,0.9
		C35.9,106.3,36.3,106.7,36.8,106.7z"/>
	<path d="M25.4,106.7c0,0,2.2,0,2.3,0c0.5-0.1,0.8-0.4,0.8-0.9c0-0.5-0.3-0.8-0.8-0.9c0,0-2.2,0-2.3,0c-0.5,0-0.9,0.4-0.9,0.9
		C24.5,106.3,24.9,106.7,25.4,106.7z"/>
	<circle cx="71.4" cy="135.3" r="0.4"/>
	<circle cx="71.4" cy="140" r="0.4"/>
	<circle cx="64.5" cy="124.4" r="0.4"/>
	<circle cx="64.5" cy="126.1" r="0.4"/>
	<circle cx="58.8" cy="75.9" r="0.4"/>
	<circle cx="63.4" cy="67.7" r="0.4"/>
	<circle cx="63.4" cy="66" r="0.4"/>
	<circle cx="63.4" cy="64.4" r="0.4"/>
	<circle cx="60" cy="64.4" r="0.4"/>
	<circle cx="61.7" cy="64.4" r="0.4"/>
	<circle cx="65" cy="64.4" r="0.4"/>
	<circle cx="66.7" cy="64.4" r="0.4"/>
	<circle cx="58.4" cy="64.4" r="0.4"/>
	<circle cx="58.4" cy="67.7" r="0.4"/>
	<circle cx="58.4" cy="66" r="0.4"/>
	<circle cx="75.5" cy="67.6" r="0.4"/>
	<circle cx="75.5" cy="66" r="0.4"/>
	<circle cx="75.5" cy="64.3" r="0.4"/>
	<circle cx="73.8" cy="64.3" r="0.4"/>
	<circle cx="75.5" cy="69.3" r="0.4"/>
	<circle cx="73.8" cy="67.6" r="0.4"/>
	<circle cx="73.8" cy="66" r="0.4"/>
	<circle cx="73.8" cy="69.2" r="0.4"/>
	<circle cx="70.5" cy="64.3" r="0.4"/>
	<circle cx="72.1" cy="64.3" r="0.4"/>
	<circle cx="107.7" cy="133.1" r="0.4"/>
	<circle cx="107.7" cy="136.1" r="0.4"/>
	<circle cx="107.7" cy="139.1" r="0.4"/>
	<circle cx="110.7" cy="133.1" r="0.4"/>
	<circle cx="110.7" cy="136.1" r="0.4"/>
	<circle cx="110.7" cy="139.1" r="0.4"/>
	<circle cx="104.7" cy="133.1" r="0.4"/>
	<circle cx="104.7" cy="136.1" r="0.4"/>
	<circle cx="104.7" cy="139.1" r="0.4"/>
	<circle cx="90.6" cy="119.4" r="0.4"/>
	<circle cx="92.7" cy="119.4" r="0.4"/>
	<circle cx="90.6" cy="114.4" r="0.4"/>
	<circle cx="92.7" cy="115.4" r="0.4"/>
	<circle cx="103.8" cy="114.7" r="0.4"/>
	<circle cx="127.4" cy="132.2" r="0.4"/>
	<circle cx="129.4" cy="147.7" r="0.4"/>
	<circle cx="119.1" cy="153.5" r="0.4"/>
	<circle cx="115.1" cy="153.5" r="0.4"/>
	<circle cx="104.8" cy="153.5" r="0.4"/>
	<circle cx="91.8" cy="133.5" r="0.4"/>
	<circle cx="80.5" cy="124.2" r="0.4"/>
	<circle cx="118" cy="183.6" r="0.4"/>
	<circle cx="118" cy="185.6" r="0.4"/>
	<circle cx="127" cy="202.4" r="0.4"/>
	<circle cx="127" cy="204.4" r="0.4"/>
	<circle cx="118" cy="202.4" r="0.4"/>
	<circle cx="118" cy="204.4" r="0.4"/>
	<circle cx="109.8" cy="60.7" r="0.4"/>
	<circle cx="113.8" cy="47.1" r="0.4"/>
	<circle cx="109.8" cy="47.1" r="0.4"/>
	<circle cx="111.7" cy="61.7" r="0.4"/>
	<circle cx="113.5" cy="62.7" r="0.4"/>
	<circle cx="115.4" cy="63.7" r="0.4"/>
	<circle cx="117.2" cy="64.7" r="0.4"/>
	<circle cx="119.1" cy="65.7" r="0.4"/>
	<circle cx="120.9" cy="66.7" r="0.4"/>
	<circle cx="122.8" cy="67.7" r="0.4"/>
	<circle cx="126.9" cy="47" r="0.4"/>
	<circle cx="130.9" cy="47" r="0.4"/>
	<circle cx="134.9" cy="47" r="0.4"/>
	<circle cx="138.9" cy="47" r="0.4"/>
	<circle cx="142.9" cy="47" r="0.4"/>
	<circle cx="146.9" cy="47" r="0.4"/>
	<circle cx="150.9" cy="47" r="0.4"/>
	<circle cx="154.9" cy="47" r="0.4"/>
	<circle cx="105.8" cy="47.1" r="0.4"/>
	<circle cx="101.8" cy="43.1" r="0.4"/>
	<circle cx="97.8" cy="43.1" r="0.4"/>
	<circle cx="93.8" cy="47.1" r="0.4"/>
	<circle cx="89.8" cy="47.1" r="0.4"/>
	<circle cx="85.8" cy="47.1" r="0.4"/>
	<circle cx="151.1" cy="56.3" r="0.4"/>
	<circle cx="104" cy="69.5" r="0.4"/>
	<circle cx="165.9" cy="67.7" r="0.4"/>
	<circle cx="145.3" cy="70.3" r="0.4"/>
	<circle cx="32.6" cy="31.5" r="0.4"/>
	<circle cx="32.6" cy="37.5" r="0.4"/>
	<circle cx="32.6" cy="43.5" r="0.4"/>
	<circle cx="162.4" cy="70.6" r="0.4"/>
	<circle cx="130" cy="196.3" r="0.4"/>
	<path d="M149.1,231.1c0,0.8,0.6,1.4,1.4,1.4c0.8,0,1.4-0.6,1.4-1.4c0-0.8-0.6-1.4-1.4-1.4C149.7,229.7,149.1,230.3,149.1,231.1z"/>
	<path d="M141.9,231.1c0,0.8,0.6,1.4,1.4,1.4c0.8,0,1.4-0.6,1.4-1.4c0-0.8-0.6-1.4-1.4-1.4C142.5,229.7,141.9,230.3,141.9,231.1z"/>
	<path d="M149,223.9c0,0.8,0.6,1.4,1.4,1.4s1.4-0.6,1.4-1.4s-0.6-1.4-1.4-1.4S149,223.1,149,223.9z"/>
	<path d="M149,216.7c0,0.8,0.6,1.4,1.4,1.4s1.4-0.6,1.4-1.4c0-0.8-0.6-1.4-1.4-1.4S149,215.9,149,216.7z"/>
	<path d="M141.8,216.7c0,0.8,0.6,1.4,1.4,1.4c0.8,0,1.4-0.6,1.4-1.4c0-0.8-0.6-1.4-1.4-1.4C142.5,215.3,141.8,215.9,141.8,216.7z"/>
	<path d="M149,209.5c0,0.8,0.6,1.4,1.4,1.4c0.8,0,1.4-0.6,1.4-1.4c0-0.8-0.6-1.4-1.4-1.4C149.7,208.1,149,208.7,149,209.5z"/>
	<path d="M149,202.3c0,0.8,0.6,1.4,1.4,1.4c0.8,0,1.4-0.6,1.4-1.4c0-0.8-0.6-1.4-1.4-1.4C149.7,200.9,149,201.5,149,202.3z"/>
	<path d="M141.8,209.5c0,0.8,0.6,1.4,1.4,1.4s1.4-0.6,1.4-1.4c0-0.8-0.6-1.4-1.4-1.4S141.8,208.7,141.8,209.5z"/>
	<path d="M141.8,202.3c0,0.8,0.6,1.4,1.4,1.4s1.4-0.6,1.4-1.4c0-0.8-0.6-1.4-1.4-1.4S141.8,201.5,141.8,202.3z"/>
	<path d="M141.8,223.9c0,0.8,0.6,1.4,1.4,1.4c0.8,0,1.4-0.6,1.4-1.4c0-0.8-0.6-1.4-1.4-1.4C142.5,222.5,141.8,223.1,141.8,223.9z"/>
	<circle cx="135.6" cy="209.5" r="0.4"/>
	<circle cx="134.6" cy="211.9" r="0.4"/>
	<circle cx="133.6" cy="214.2" r="0.4"/>
	<circle cx="132" cy="226.1" r="0.4"/>
	<circle cx="132.8" cy="220.7" r="0.4"/>
	<circle cx="127" cy="69.2" r="0.4"/>
	<circle cx="127" cy="72.5" r="0.4"/>
	<path d="M128.2,79.6c0.2,0,0.4,0.2,0.4,0.4s-0.2,0.4-0.4,0.4c-0.2,0-0.4-0.2-0.4-0.4S128,79.6,128.2,79.6z"/>
	<circle cx="135.5" cy="174.9" r="0.4"/>
	<circle cx="154.1" cy="190" r="0.4"/>
	<circle cx="154" cy="173.6" r="0.4"/>
	<circle cx="156" cy="170.6" r="0.4"/>
	<circle cx="160.5" cy="130.6" r="0.4"/>
	<circle cx="160.6" cy="140.3" r="0.4"/>
	<circle cx="158.1" cy="117.7" r="0.4"/>
	<circle cx="135.4" cy="178.3" r="0.4"/>
	<circle cx="137.5" cy="170.4" r="0.4"/>
	<circle cx="99.3" cy="119.8" r="0.4"/>
	<circle cx="99.3" cy="117.6" r="0.4"/>
	<path d="M128.1,121.9c0.2,0,0.4,0.2,0.4,0.4s-0.2,0.4-0.4,0.4c-0.2,0-0.4-0.2-0.4-0.4S127.8,121.9,128.1,121.9z"/>
	<circle cx="132.1" cy="122.3" r="0.4"/>
	<path d="M182.6,237.7c0-0.3,0.2-0.6,0.6-0.6c0.3,0,0.6,0.2,0.6,0.6c0,0.3-0.2,0.6-0.6,0.6S182.6,238,182.6,237.7"/>
	<path d="M180.6,237.7c0-0.3,0.2-0.6,0.6-0.6c0.3,0,0.6,0.2,0.6,0.6c0,0.3-0.2,0.6-0.6,0.6S180.6,238,180.6,237.7"/>
	<path d="M178.6,237.7c0-0.3,0.2-0.6,0.6-0.6s0.6,0.2,0.6,0.6c0,0.3-0.2,0.6-0.6,0.6S178.6,238,178.6,237.7"/>
	<path d="M195.3,145.7c0-0.3,0.2-0.6,0.6-0.6c0.3,0,0.6,0.2,0.6,0.6s-0.2,0.6-0.6,0.6C195.5,146.3,195.3,146,195.3,145.7"/>
	<path d="M195.3,143.7c0-0.3,0.2-0.6,0.6-0.6c0.3,0,0.6,0.2,0.6,0.6s-0.2,0.6-0.6,0.6C195.5,144.3,195.3,144,195.3,143.7"/>
	<path d="M43.7,36.8c0-0.3,0.2-0.6,0.6-0.6s0.6,0.2,0.6,0.6s-0.2,0.6-0.6,0.6S43.7,37.1,43.7,36.8"/>
	<path d="M43.7,34.8c0-0.3,0.2-0.6,0.6-0.6s0.6,0.2,0.6,0.6s-0.2,0.6-0.6,0.6S43.7,35.1,43.7,34.8"/>
	<path d="M43.7,32.8c0-0.3,0.2-0.6,0.6-0.6s0.6,0.2,0.6,0.6s-0.2,0.6-0.6,0.6S43.7,33.1,43.7,32.8"/>
	<circle cx="115.9" cy="163.9" r="0.4"/>
	<circle cx="106.9" cy="163.9" r="0.4"/>
	<circle cx="114.4" cy="162.4" r="0.4"/>
	<circle cx="140.3" cy="162.4" r="0.4"/>
	<circle cx="151.2" cy="153.6" r="0.4"/>
	<circle cx="74.1" cy="156" r="1.1"/>
	<circle cx="74.1" cy="150.3" r="1.1"/>
	<circle cx="74.1" cy="144.7" r="1.1"/>
	<circle cx="94.8" cy="148.1" r="0.4"/>
	<circle cx="50.3" cy="79.7" r="0.4"/>
	<circle cx="42.9" cy="79.7" r="0.4"/>
	<circle cx="59.3" cy="170.7" r="0.4"/>
	<circle cx="60.8" cy="172.2" r="0.4"/>
	<circle cx="36.6" cy="170.7" r="0.4"/>
	<circle cx="117.5" cy="165.5" r="0.4"/>
	<circle cx="105.3" cy="165.5" r="0.4"/>
	<circle cx="36.6" cy="172.7" r="0.4"/>
	<circle cx="36.6" cy="174.7" r="0.4"/>
	<circle cx="33.3" cy="177.2" r="0.4"/>
	<circle cx="33.3" cy="179.2" r="0.4"/>
	<circle cx="62.4" cy="173.7" r="0.4"/>
	<circle cx="65.8" cy="177.2" r="0.4"/>
	<circle cx="67.4" cy="178.7" r="0.4"/>
	<circle cx="97.9" cy="162.9" r="0.4"/>
	<circle cx="70.1" cy="102.3" r="0.4"/>
	<circle cx="70.1" cy="95.2" r="0.4"/>
	<circle cx="114.4" cy="160" r="0.4"/>
	<circle cx="114.4" cy="157.6" r="0.4"/>
	<circle cx="100.9" cy="161.4" r="0.4"/>
	<circle cx="99.4" cy="159.8" r="0.4"/>
	<circle cx="129.5" cy="155.2" r="0.4"/>
	<circle cx="133.9" cy="155.2" r="0.4"/>
	<circle cx="135.5" cy="153.5" r="0.4"/>
	<path d="M127.9,153.1c0.2,0,0.4,0.2,0.4,0.4s-0.2,0.4-0.4,0.4c-0.2,0-0.4-0.2-0.4-0.4S127.7,153.1,127.9,153.1z"/>
	<path d="M127.9,169.1c0.2,0,0.4,0.2,0.4,0.4s-0.2,0.4-0.4,0.4c-0.2,0-0.4-0.2-0.4-0.4S127.7,169.1,127.9,169.1z"/>
	<circle cx="129.5" cy="151.8" r="0.4"/>
	<circle cx="90.7" cy="166.4" r="0.4"/>
	<circle cx="101.9" cy="167.9" r="0.4"/>
	<circle cx="136.1" cy="150.4" r="0.4"/>
	<circle cx="47.5" cy="73.8" r="0.4"/>
	<circle cx="51.9" cy="78.2" r="0.4"/>
	<circle cx="97.8" cy="114.6" r="0.4"/>
	<circle cx="136.1" cy="138.5" r="0.4"/>
	<circle cx="138" cy="148.8" r="0.4"/>
	<circle cx="100.4" cy="169.4" r="0.4"/>
	<path d="M74.2,127.8c0.2,0,0.4,0.2,0.4,0.4c0,0.2-0.2,0.4-0.4,0.4s-0.4-0.2-0.4-0.4C73.8,128,74,127.8,74.2,127.8z"/>
	<circle cx="75.2" cy="122.4" r="0.4"/>
	<circle cx="204.8" cy="273" r="4.2"/>
	<circle cx="28.2" cy="273" r="4.2"/>
	<circle cx="28.2" cy="19.7" r="4.2"/>
	<circle cx="141.2" cy="138.2" r="0.4"/>
	<circle cx="132.1" cy="118.1" r="0.4"/>
	<path d="M128.2,81.6c0.2,0,0.4,0.2,0.4,0.4s-0.2,0.4-0.4,0.4c-0.2,0-0.4-0.2-0.4-0.4S128,81.6,128.2,81.6z"/>
	<circle cx="140.9" cy="80.1" r="0.4"/>
	<circle cx="67.4" cy="53" r="0.4"/>
	<circle cx="96.3" cy="80.1" r="0.4"/>
	<circle cx="83.1" cy="141.7" r="0.4"/>
	<circle cx="49" cy="91.6" r="0.4"/>
	<circle cx="48.3" cy="87.6" r="0.4"/>
	<circle cx="49" cy="97.2" r="0.4"/>
	<circle cx="102.2" cy="81.6" r="0.4"/>
	<circle cx="142.1" cy="179.7" r="0.4"/>
	<circle cx="146.1" cy="171.8" r="0.4"/>
	<circle cx="142.1" cy="171.8" r="0.4"/>
	<circle cx="140.2" cy="151.6" r="0.4"/>
	<circle cx="132.5" cy="132.7" r="0.4"/>
	<circle cx="150.5" cy="131.7" r="0.4"/>
	<circle cx="155.5" cy="131.7" r="0.4"/>
	<circle cx="137.2" cy="118.7" r="0.4"/>
	<circle cx="141.6" cy="130.4" r="0.4"/>
	<circle cx="162" cy="120.7" r="0.4"/>
	<circle cx="116.4" cy="113.8" r="0.4"/>
	<circle cx="116.4" cy="111.8" r="0.4"/>
	<circle cx="127.8" cy="94.7" r="0.4"/>
	<circle cx="132.2" cy="90.7" r="0.4"/>
	<circle cx="132.2" cy="106.8" r="0.4"/>
	<circle cx="127.8" cy="102.8" r="0.4"/>
	<circle cx="132.2" cy="94.7" r="0.4"/>
	<circle cx="132.2" cy="102.8" r="0.4"/>
	<circle cx="157.8" cy="150.5" r="0.4"/>
	<circle cx="44.3" cy="102.5" r="0.4"/>
	<circle cx="44.3" cy="100.5" r="0.4"/>
	<circle cx="44.3" cy="104.5" r="0.4"/>
	<circle cx="82.6" cy="49.4" r="0.4"/>
	<circle cx="98" cy="62" r="0.4"/>
	<circle cx="98" cy="67" r="0.4"/>
	<circle cx="93" cy="62" r="0.4"/>
	<circle cx="93" cy="67" r="0.4"/>
	<circle cx="88" cy="62" r="0.4"/>
	<circle cx="88" cy="67" r="0.4"/>
	<circle cx="122.7" cy="46.2" r="0.4"/>
	<circle cx="122.7" cy="51.2" r="0.4"/>
	<circle cx="117.7" cy="46.2" r="0.4"/>
	<circle cx="117.7" cy="51.2" r="0.4"/>
	<circle cx="150.1" cy="72.2" r="0.4"/>
	<circle cx="150.1" cy="77.2" r="0.4"/>
	<circle cx="122.4" cy="85.6" r="0.4"/>
	<circle cx="117.4" cy="85.6" r="0.4"/>
	<circle cx="93.6" cy="85.5" r="0.4"/>
	<circle cx="88.6" cy="85.5" r="0.4"/>
	<circle cx="66.5" cy="88.5" r="0.4"/>
	<circle cx="66.5" cy="93.5" r="0.4"/>
	<circle cx="61.5" cy="88.5" r="0.4"/>
	<circle cx="61.5" cy="93.5" r="0.4"/>
	<circle cx="85.7" cy="111.5" r="0.4"/>
	<circle cx="80.7" cy="106.5" r="0.4"/>
	<circle cx="80.7" cy="111.5" r="0.4"/>
	<circle cx="93.6" cy="94.6" r="0.4"/>
	<circle cx="93.6" cy="99.6" r="0.4"/>
	<circle cx="88.6" cy="94.6" r="0.4"/>
	<circle cx="142.8" cy="191.6" r="0.4"/>
	<circle cx="142.8" cy="196.6" r="0.4"/>
	<circle cx="137.8" cy="191.6" r="0.4"/>
	<circle cx="137.8" cy="196.6" r="0.4"/>
	<circle cx="151.4" cy="178.8" r="0.4"/>
	<circle cx="150.5" cy="136" r="0.4"/>
	<circle cx="155.5" cy="136" r="0.4"/>
	<circle cx="127.8" cy="98.6" r="0.4"/>
	<circle cx="132.2" cy="98.6" r="0.4"/>
	<circle cx="160.7" cy="90.2" r="0.4"/>
	<circle cx="150.7" cy="90.2" r="0.4"/>
	<circle cx="160.7" cy="110.2" r="0.4"/>
	<circle cx="150.7" cy="110.2" r="0.4"/>
	<circle cx="138.7" cy="114.2" r="0.4"/>
	<circle cx="131.7" cy="114.2" r="0.4"/>
	<circle cx="209.2" cy="16.7" r="0.4"/>
	<circle cx="209.2" cy="26.7" r="0.4"/>
	<circle cx="209.2" cy="36.7" r="0.4"/>
	<circle cx="209.2" cy="46.7" r="0.4"/>
	<circle cx="209.2" cy="56.7" r="0.4"/>
	<circle cx="209.2" cy="66.7" r="0.4"/>
	<circle cx="209.2" cy="76.7" r="0.4"/>
	<circle cx="209.2" cy="86.7" r="0.4"/>
	<circle cx="209.2" cy="96.7" r="0.4"/>
	<circle cx="209.2" cy="106.7" r="0.4"/>
	<circle cx="209.2" cy="116.7" r="0.4"/>
	<circle cx="209.2" cy="126.7" r="0.4"/>
	<circle cx="209.2" cy="136.7" r="0.4"/>
	<circle cx="209.2" cy="146.7" r="0.4"/>
	<circle cx="209.2" cy="156.7" r="0.4"/>
	<circle cx="209.2" cy="166.7" r="0.4"/>
	<circle cx="209.2" cy="176.7" r="0.4"/>
	<circle cx="209.2" cy="186.7" r="0.4"/>
	<circle cx="209.2" cy="196.7" r="0.4"/>
	<circle cx="209.2" cy="206.7" r="0.4"/>
	<circle cx="209.2" cy="216.7" r="0.4"/>
	<circle cx="209.2" cy="226.7" r="0.4"/>
	<circle cx="209.2" cy="236.7" r="0.4"/>
	<circle cx="209.2" cy="246.7" r="0.4"/>
	<circle cx="209.2" cy="256.7" r="0.4"/>
	<circle cx="209.2" cy="266.7" r="0.4"/>
	<circle cx="24.2" cy="26.7" r="0.4"/>
	<circle cx="24.2" cy="36.7" r="0.4"/>
	<circle cx="24.2" cy="46.7" r="0.4"/>
	<circle cx="24.2" cy="56.7" r="0.4"/>
	<circle cx="24.2" cy="66.7" r="0.4"/>
	<circle cx="24.2" cy="76.7" r="0.4"/>
	<circle cx="24.2" cy="88.9" r="0.4"/>
	<circle cx="24.2" cy="98.9" r="0.4"/>
	<circle cx="24.2" cy="153.7" r="0.4"/>
	<circle cx="24.2" cy="163.7" r="0.4"/>
	<circle cx="24.2" cy="236.7" r="0.4"/>
	<circle cx="24.2" cy="246.7" r="0.4"/>
	<circle cx="24.2" cy="256.7" r="0.4"/>
	<circle cx="24.2" cy="266.7" r="0.4"/>
	<circle cx="40.7" cy="278.1" r="0.4"/>
	<circle cx="50.7" cy="278.1" r="0.4"/>
	<circle cx="60.7" cy="278.1" r="0.4"/>
	<circle cx="70.7" cy="278.1" r="0.4"/>
	<circle cx="80.7" cy="278.1" r="0.4"/>
	<circle cx="90.7" cy="278.1" r="0.4"/>
	<circle cx="100.7" cy="278.1" r="0.4"/>
	<circle cx="110.7" cy="278.1" r="0.4"/>
	<circle cx="120.7" cy="278.1" r="0.4"/>
	<circle cx="130.7" cy="278.1" r="0.4"/>
	<circle cx="140.7" cy="278.1" r="0.4"/>
	<circle cx="150.7" cy="278.1" r="0.4"/>
	<circle cx="160.7" cy="278.1" r="0.4"/>
	<circle cx="170.7" cy="278.1" r="0.4"/>
	<circle cx="180.7" cy="278.1" r="0.4"/>
	<circle cx="190.7" cy="278.1" r="0.4"/>
	<circle cx="51.6" cy="113.4" r="0.4"/>
	<circle cx="35.6" cy="129.4" r="0.4"/>
	<circle cx="42.6" cy="122.4" r="0.4"/>
	<circle cx="53.8" cy="100.5" r="0.4"/>
	<circle cx="53.8" cy="104.5" r="0.4"/>
	<circle cx="56.9" cy="121" r="0.4"/>
	<circle cx="56.9" cy="131" r="0.4"/>
	<path d="M49.9,127.6c0.2,0,0.4,0.2,0.4,0.4c0,0.2-0.2,0.4-0.4,0.4s-0.4-0.2-0.4-0.4C49.4,127.8,49.6,127.6,49.9,127.6z"/>
	<circle cx="49.9" cy="138" r="0.4"/>
	<circle cx="42.9" cy="135" r="0.4"/>
	<circle cx="42.9" cy="145" r="0.4"/>
	<circle cx="40.1" cy="163.7" r="0.4"/>
	<circle cx="61" cy="145.6" r="0.4"/>
	<circle cx="61" cy="150.6" r="0.4"/>
	<circle cx="56" cy="150.6" r="0.4"/>
	<circle cx="83.2" cy="164.8" r="0.4"/>
	<circle cx="83.2" cy="154.8" r="0.4"/>
	<circle cx="73.2" cy="164.8" r="0.4"/>
	<circle cx="63.2" cy="164.8" r="0.4"/>
	<path d="M95.8,159.2c0,0.2-0.2,0.4-0.4,0.4c-0.2,0-0.4-0.2-0.4-0.4c0-0.2,0.2-0.4,0.4-0.4C95.6,158.8,95.8,159,95.8,159.2z"/>
	<path d="M95.8,169.2c0,0.2-0.2,0.4-0.4,0.4c-0.2,0-0.4-0.2-0.4-0.4s0.2-0.4,0.4-0.4C95.6,168.8,95.8,169,95.8,169.2z"/>
	<circle cx="150.9" cy="239.2" r="0.4"/>
	<circle cx="140.9" cy="239.2" r="0.4"/>
	<circle cx="130.9" cy="239.2" r="0.4"/>
	<circle cx="148.8" cy="150.5" r="0.4"/>
	<path d="M52.4,257c0,0-7.2,0-7.2,0c-0.5-0.1-1-0.5-1-1.1s0.4-1,1-1.1c0,0,7.2,0,7.2,0c0.6,0,1.1,0.5,1.1,1.1
		C53.6,256.5,53.1,257,52.4,257z"/>
	<path d="M186.3,257.1c-0.1,0-7.1,0-7.2,0c-0.6-0.1-1-0.5-1-1.1s0.4-1,1-1.1c0.1,0,7.1,0,7.2,0c0.6,0,1.1,0.5,1.1,1.1
		C187.4,256.5,186.9,257.1,186.3,257.1z"/>
	<circle cx="88.5" cy="124.2" r="0.4"/>
	<circle cx="75.8" cy="140" r="0.4"/>
</g>
</svg>
