<?xml version="1.0" encoding="utf-8"?>
<!-- Generator: Adobe Illustrator 27.0.0, SVG Export Plug-In . SVG Version: 6.00 Build 0)  -->
<svg version="1.1" id="Calque_1" xmlns="http://www.w3.org/2000/svg" xmlns:xlink="http://www.w3.org/1999/xlink" x="0px" y="0px"
	 viewBox="0 0 229.1 294.7" style="enable-background:new 0 0 229.1 294.7;" xml:space="preserve">
<style type="text/css">
	.st0{fill:none;stroke:#000000;stroke-width:0.1;stroke-miterlimit:10;}
</style>
<g>
	<path class="st0" d="M19.2,17c0-3.7,3-6.7,6.7-6.7h19v11.4h145.6V10.3H207c3.7,0,6.7,3,6.7,6.7v259c0,3.7-3,6.7-6.7,6.7H25.9
		c-3.7,0-6.7-3-6.7-6.7v-44.2c6.7-8.7,10.8-19.6,10.8-31.5c0-11.9-4-22.8-10.8-31.5V148c4.6-4.2,7.4-10.2,7.4-16.9
		c0-6.7-2.9-12.7-7.4-16.8V17z"/>
</g>
</svg>
