<?xml version="1.0" encoding="utf-8"?>
<!-- Generator: Adobe Illustrator 27.0.0, SVG Export Plug-In . SVG Version: 6.00 Build 0)  -->
<svg version="1.1" id="Calque_1" xmlns="http://www.w3.org/2000/svg" xmlns:xlink="http://www.w3.org/1999/xlink" x="0px" y="0px"
	 viewBox="0 0 229.1 294.7" style="enable-background:new 0 0 229.1 294.7;" xml:space="preserve">
<style type="text/css">
	.st0{fill:none;stroke:#000000;stroke-width:0.1;stroke-miterlimit:10;}
</style>
<g>
	<path class="st0" d="M19.2,17c0-3.7,3-6.7,6.7-6.7h19v11.4h145.6V10.3H207c3.7,0,6.7,3,6.7,6.7v259c0,3.7-3,6.7-6.7,6.7H25.9
		c-3.7,0-6.7-3-6.7-6.7v-44.2c6.7-8.7,10.8-19.6,10.8-31.5c0-11.9-4-22.8-10.8-31.5V148c4.6-4.2,7.4-10.2,7.4-16.9
		c0-6.7-2.9-12.7-7.4-16.8V17z"/>
</g>
<g>
	<g>
		<path d="M125.4,161.4c0.2,0,0.3,0.1,0.3,0.3v3.4c0,0.2-0.1,0.3-0.3,0.3h-5.7c-0.2,0-0.3-0.1-0.3-0.3v-3.4c0-0.2,0.1-0.3,0.3-0.3
			H125.4z"/>
	</g>
	<g>
		<path d="M125.4,170.9c0.2,0,0.3,0.1,0.3,0.3v3.4c0,0.2-0.1,0.3-0.3,0.3h-5.7c-0.2,0-0.3-0.1-0.3-0.3v-3.4c0-0.2,0.1-0.3,0.3-0.3
			H125.4z"/>
	</g>
	<g>
		<path d="M125.4,175.7c0.2,0,0.3,0.1,0.3,0.3v3.4c0,0.2-0.1,0.3-0.3,0.3h-5.7c-0.2,0-0.3-0.1-0.3-0.3V176c0-0.2,0.1-0.3,0.3-0.3
			H125.4z"/>
	</g>
	<g>
		<path d="M125.4,182.6c0.2,0,0.3,0.1,0.3,0.3v3.4c0,0.2-0.1,0.3-0.3,0.3h-5.7c-0.2,0-0.3-0.1-0.3-0.3v-3.4c0-0.2,0.1-0.3,0.3-0.3
			H125.4z"/>
	</g>
	<g>
		<path d="M125.4,189.7c0.2,0,0.3,0.1,0.3,0.3v3.4c0,0.2-0.1,0.3-0.3,0.3h-5.7c-0.2,0-0.3-0.1-0.3-0.3v-3.4c0-0.2,0.1-0.3,0.3-0.3
			H125.4z"/>
	</g>
	<g>
		<path d="M125.4,196.8c0.2,0,0.3,0.1,0.3,0.3v3.4c0,0.2-0.1,0.3-0.3,0.3h-5.7c-0.2,0-0.3-0.1-0.3-0.3v-3.4c0-0.2,0.1-0.3,0.3-0.3
			H125.4z"/>
	</g>
	<g>
		<path d="M125.4,201.5c0.2,0,0.3,0.1,0.3,0.3v3.4c0,0.2-0.1,0.3-0.3,0.3h-5.7c-0.2,0-0.3-0.1-0.3-0.3v-3.4c0-0.2,0.1-0.3,0.3-0.3
			H125.4z"/>
	</g>
	<g>
		<path d="M125.4,206.2c0.2,0,0.3,0.1,0.3,0.3v3.4c0,0.2-0.1,0.3-0.3,0.3h-5.7c-0.2,0-0.3-0.1-0.3-0.3v-3.4c0-0.2,0.1-0.3,0.3-0.3
			H125.4z"/>
	</g>
	<g>
		<path d="M125.4,210.9c0.2,0,0.3,0.1,0.3,0.3v3.4c0,0.2-0.1,0.3-0.3,0.3h-5.7c-0.2,0-0.3-0.1-0.3-0.3v-3.4c0-0.2,0.1-0.3,0.3-0.3
			H125.4z"/>
	</g>
	<g>
		<path d="M125.4,218.1c0.2,0,0.3,0.1,0.3,0.3v3.4c0,0.2-0.1,0.3-0.3,0.3h-5.7c-0.2,0-0.3-0.1-0.3-0.3v-3.4c0-0.2,0.1-0.3,0.3-0.3
			H125.4z"/>
	</g>
	<g>
		<path d="M125.4,225.1c0.2,0,0.3,0.1,0.3,0.3v3.4c0,0.2-0.1,0.3-0.3,0.3h-5.7c-0.2,0-0.3-0.1-0.3-0.3v-3.4c0-0.2,0.1-0.3,0.3-0.3
			H125.4z"/>
	</g>
	<g>
		<path d="M63.1,156.4c0.2,0,0.3,0.1,0.3,0.3v5.9c0,0.2-0.1,0.3-0.3,0.3h-6.7c-0.2,0-0.3-0.1-0.3-0.3v-5.9c0-0.2,0.1-0.3,0.3-0.3
			H63.1z"/>
	</g>
	<g>
		<path d="M66.5,238.9c0.2,0,0.3,0.1,0.3,0.3v5.9c0,0.2-0.1,0.3-0.3,0.3h-6.7c-0.2,0-0.3-0.1-0.3-0.3v-5.9c0-0.2,0.1-0.3,0.3-0.3
			H66.5z"/>
	</g>
	<g>
		<path d="M66,116c-0.2,0-0.3-0.1-0.3-0.3v-1.4c0-0.2,0.1-0.3,0.3-0.3h4c0.2,0,0.3,0.1,0.3,0.3v1.4c0,0.2-0.1,0.3-0.3,0.3H66z"/>
	</g>
	<g>
		<path d="M66,119.2c-0.2,0-0.3-0.1-0.3-0.3v-1.4c0-0.2,0.1-0.3,0.3-0.3h4c0.2,0,0.3,0.1,0.3,0.3v1.4c0,0.2-0.1,0.3-0.3,0.3H66z"/>
	</g>
	<g>
		<path d="M66,122.3c-0.2,0-0.3-0.1-0.3-0.3v-1.4c0-0.2,0.1-0.3,0.3-0.3h4c0.2,0,0.3,0.1,0.3,0.3v1.4c0,0.2-0.1,0.3-0.3,0.3H66z"/>
	</g>
	<g>
		<path d="M66,125.4c-0.2,0-0.3-0.1-0.3-0.3v-1.4c0-0.2,0.1-0.3,0.3-0.3h4c0.2,0,0.3,0.1,0.3,0.3v1.4c0,0.2-0.1,0.3-0.3,0.3H66z"/>
	</g>
	<g>
		<path d="M66,128.5c-0.2,0-0.3-0.1-0.3-0.3v-1.4c0-0.2,0.1-0.3,0.3-0.3h4c0.2,0,0.3,0.1,0.3,0.3v1.4c0,0.2-0.1,0.3-0.3,0.3H66z"/>
	</g>
	<g>
		<path d="M66,131.6c-0.2,0-0.3-0.1-0.3-0.3v-1.4c0-0.2,0.1-0.3,0.3-0.3h4c0.2,0,0.3,0.1,0.3,0.3v1.4c0,0.2-0.1,0.3-0.3,0.3H66z"/>
	</g>
	<g>
		<path d="M66,134.7c-0.2,0-0.3-0.1-0.3-0.3V133c0-0.2,0.1-0.3,0.3-0.3h4c0.2,0,0.3,0.1,0.3,0.3v1.4c0,0.2-0.1,0.3-0.3,0.3H66z"/>
	</g>
	<g>
		<path d="M66,137.9c-0.2,0-0.3-0.1-0.3-0.3v-1.4c0-0.2,0.1-0.3,0.3-0.3h4c0.2,0,0.3,0.1,0.3,0.3v1.4c0,0.2-0.1,0.3-0.3,0.3H66z"/>
	</g>
	<g>
		<path d="M66,141c-0.2,0-0.3-0.1-0.3-0.3v-1.4c0-0.2,0.1-0.3,0.3-0.3h4c0.2,0,0.3,0.1,0.3,0.3v1.4c0,0.2-0.1,0.3-0.3,0.3H66z"/>
	</g>
	<g>
		<path d="M68.5,112.7c0,0.2-0.1,0.3-0.3,0.3h-3.4c-0.2,0-0.3-0.1-0.3-0.3v-2.3c0-0.2,0.1-0.3,0.3-0.3h3.4c0.2,0,0.3,0.1,0.3,0.3
			V112.7z"/>
	</g>
	<g>
		<path d="M42.2,157c0,0.2-0.1,0.3-0.3,0.3h-5.7c-0.2,0-0.3-0.1-0.3-0.3v-2.8c0-0.2,0.1-0.3,0.3-0.3h5.7c0.2,0,0.3,0.1,0.3,0.3V157z
			"/>
	</g>
	<g>
		<path d="M42.2,113.1c0,0.2-0.1,0.3-0.3,0.3h-5.7c-0.2,0-0.3-0.1-0.3-0.3v-2.8c0-0.2,0.1-0.3,0.3-0.3h5.7c0.2,0,0.3,0.1,0.3,0.3
			V113.1z"/>
	</g>
	<g>
		<path d="M68.5,155c0,0.2-0.1,0.3-0.3,0.3h-3.4c-0.2,0-0.3-0.1-0.3-0.3v-4c0-0.2,0.1-0.3,0.3-0.3h3.4c0.2,0,0.3,0.1,0.3,0.3V155z"
			/>
	</g>
	<g>
		<path d="M31.2,29.7c0-0.2-0.1-0.3-0.3-0.3h-3c-0.2,0-0.3,0.1-0.3,0.3v3.7c0,0.2,0.1,0.3,0.3,0.3h3c0.2,0,0.3-0.1,0.3-0.3V29.7z"/>
	</g>
	<g>
		<path d="M39.8,29.7c0-0.2-0.1-0.3-0.3-0.3h-3c-0.2,0-0.3,0.1-0.3,0.3v3.7c0,0.2,0.1,0.3,0.3,0.3h3c0.2,0,0.3-0.1,0.3-0.3V29.7z"/>
	</g>
	<g>
		<path d="M31.2,35.7c0-0.2-0.1-0.3-0.3-0.3h-3c-0.2,0-0.3,0.1-0.3,0.3v3.8c0,0.2,0.1,0.3,0.3,0.3h3c0.2,0,0.3-0.1,0.3-0.3V35.7z"/>
	</g>
	<g>
		<path d="M39.8,35.7c0-0.2-0.1-0.3-0.3-0.3h-3c-0.2,0-0.3,0.1-0.3,0.3v3.8c0,0.2,0.1,0.3,0.3,0.3h3c0.2,0,0.3-0.1,0.3-0.3V35.7z"/>
	</g>
	<g>
		<path d="M72.8,129.3c-0.2,0-0.3,0.1-0.3,0.3v2c0,0.2,0.1,0.3,0.3,0.3h2.8c0.2,0,0.3-0.1,0.3-0.3v-2c0-0.2-0.1-0.3-0.3-0.3H72.8z"
			/>
	</g>
	<g>
		<path d="M72.8,123.7c-0.2,0-0.3,0.1-0.3,0.3v2c0,0.2,0.1,0.3,0.3,0.3h2.8c0.2,0,0.3-0.1,0.3-0.3v-2c0-0.2-0.1-0.3-0.3-0.3H72.8z"
			/>
	</g>
	<g>
		<path d="M128.6,203.1c-0.2,0-0.3,0.1-0.3,0.3v2c0,0.2,0.1,0.3,0.3,0.3h2.8c0.2,0,0.3-0.1,0.3-0.3v-2c0-0.2-0.1-0.3-0.3-0.3H128.6z
			"/>
	</g>
	<g>
		<path d="M128.6,197.5c-0.2,0-0.3,0.1-0.3,0.3v2c0,0.2,0.1,0.3,0.3,0.3h2.8c0.2,0,0.3-0.1,0.3-0.3v-2c0-0.2-0.1-0.3-0.3-0.3H128.6z
			"/>
	</g>
	<g>
		<path d="M115.1,147.1c-0.2,0-0.3-0.1-0.3-0.3v-1.9c0-0.2,0.1-0.3,0.3-0.3l0,0c0.2,0,0.3,0.1,0.3,0.3v1.9
			C115.3,147,115.2,147.1,115.1,147.1L115.1,147.1z"/>
	</g>
	<g>
		<path d="M113.9,147.1c-0.2,0-0.3-0.1-0.3-0.3v-1.9c0-0.2,0.1-0.3,0.3-0.3l0,0c0.2,0,0.3,0.1,0.3,0.3v1.9
			C114.2,147,114.1,147.1,113.9,147.1L113.9,147.1z"/>
	</g>
	<g>
		<path d="M112.8,147.1c-0.2,0-0.3-0.1-0.3-0.3v-1.9c0-0.2,0.1-0.3,0.3-0.3l0,0c0.2,0,0.3,0.1,0.3,0.3v1.9
			C113.1,147,112.9,147.1,112.8,147.1L112.8,147.1z"/>
	</g>
	<g>
		<path d="M111.7,147.1c-0.2,0-0.3-0.1-0.3-0.3v-1.9c0-0.2,0.1-0.3,0.3-0.3l0,0c0.2,0,0.3,0.1,0.3,0.3v1.9
			C111.9,147,111.8,147.1,111.7,147.1L111.7,147.1z"/>
	</g>
	<g>
		<path d="M110.5,147.1c-0.2,0-0.3-0.1-0.3-0.3v-1.9c0-0.2,0.1-0.3,0.3-0.3l0,0c0.2,0,0.3,0.1,0.3,0.3v1.9
			C110.8,147,110.7,147.1,110.5,147.1L110.5,147.1z"/>
	</g>
	<g>
		<path d="M109.4,147.1c-0.2,0-0.3-0.1-0.3-0.3v-1.9c0-0.2,0.1-0.3,0.3-0.3c0.2,0,0.3,0.1,0.3,0.3v1.9
			C109.7,147,109.5,147.1,109.4,147.1z"/>
	</g>
	<g>
		<path d="M108.2,147.1c-0.2,0-0.3-0.1-0.3-0.3v-1.9c0-0.2,0.1-0.3,0.3-0.3l0,0c0.2,0,0.3,0.1,0.3,0.3v1.9
			C108.5,147,108.4,147.1,108.2,147.1L108.2,147.1z"/>
	</g>
	<g>
		<path d="M107.1,147.1c-0.2,0-0.3-0.1-0.3-0.3v-1.9c0-0.2,0.1-0.3,0.3-0.3l0,0c0.2,0,0.3,0.1,0.3,0.3v1.9
			C107.4,147,107.3,147.1,107.1,147.1L107.1,147.1z"/>
	</g>
	<g>
		<path d="M106,147.1c-0.2,0-0.3-0.1-0.3-0.3v-1.9c0-0.2,0.1-0.3,0.3-0.3l0,0c0.2,0,0.3,0.1,0.3,0.3v1.9
			C106.3,147,106.1,147.1,106,147.1L106,147.1z"/>
	</g>
	<g>
		<path d="M104.8,147.1c-0.2,0-0.3-0.1-0.3-0.3v-1.9c0-0.2,0.1-0.3,0.3-0.3l0,0c0.2,0,0.3,0.1,0.3,0.3v1.9
			C105.1,147,105,147.1,104.8,147.1L104.8,147.1z"/>
	</g>
	<g>
		<path d="M103.7,147.1c-0.2,0-0.3-0.1-0.3-0.3v-1.9c0-0.2,0.1-0.3,0.3-0.3l0,0c0.2,0,0.3,0.1,0.3,0.3v1.9
			C104,147,103.9,147.1,103.7,147.1L103.7,147.1z"/>
	</g>
	<g>
		<path d="M102.6,147.1c-0.2,0-0.3-0.1-0.3-0.3v-1.9c0-0.2,0.1-0.3,0.3-0.3l0,0c0.2,0,0.3,0.1,0.3,0.3v1.9
			C102.9,147,102.7,147.1,102.6,147.1L102.6,147.1z"/>
	</g>
	<g>
		<path d="M101.4,147.1c-0.2,0-0.3-0.1-0.3-0.3v-1.9c0-0.2,0.1-0.3,0.3-0.3l0,0c0.2,0,0.3,0.1,0.3,0.3v1.9
			C101.7,147,101.6,147.1,101.4,147.1L101.4,147.1z"/>
	</g>
	<g>
		<path d="M100.3,147.1c-0.2,0-0.3-0.1-0.3-0.3v-1.9c0-0.2,0.1-0.3,0.3-0.3l0,0c0.2,0,0.3,0.1,0.3,0.3v1.9
			C100.6,147,100.5,147.1,100.3,147.1L100.3,147.1z"/>
	</g>
	<g>
		<path d="M118.7,128.8c0,0.2-0.1,0.3-0.3,0.3h-1.9c-0.2,0-0.3-0.1-0.3-0.3l0,0c0-0.2,0.1-0.3,0.3-0.3h1.9
			C118.5,128.5,118.7,128.6,118.7,128.8L118.7,128.8z"/>
	</g>
	<g>
		<path d="M118.7,129.9c0,0.2-0.1,0.3-0.3,0.3h-1.9c-0.2,0-0.3-0.1-0.3-0.3l0,0c0-0.2,0.1-0.3,0.3-0.3h1.9
			C118.5,129.6,118.7,129.8,118.7,129.9L118.7,129.9z"/>
	</g>
	<g>
		<path d="M118.7,131c0,0.2-0.1,0.3-0.3,0.3h-1.9c-0.2,0-0.3-0.1-0.3-0.3l0,0c0-0.2,0.1-0.3,0.3-0.3h1.9
			C118.5,130.8,118.7,130.9,118.7,131L118.7,131z"/>
	</g>
	<g>
		<path d="M118.7,132.2c0,0.2-0.1,0.3-0.3,0.3h-1.9c-0.2,0-0.3-0.1-0.3-0.3l0,0c0-0.2,0.1-0.3,0.3-0.3h1.9
			C118.5,131.9,118.7,132,118.7,132.2L118.7,132.2z"/>
	</g>
	<g>
		<path d="M118.7,133.3c0,0.2-0.1,0.3-0.3,0.3h-1.9c-0.2,0-0.3-0.1-0.3-0.3l0,0c0-0.2,0.1-0.3,0.3-0.3h1.9
			C118.5,133,118.7,133.1,118.7,133.3L118.7,133.3z"/>
	</g>
	<g>
		<path d="M118.7,134.4c0,0.2-0.1,0.3-0.3,0.3h-1.9c-0.2,0-0.3-0.1-0.3-0.3l0,0c0-0.2,0.1-0.3,0.3-0.3h1.9
			C118.5,134.1,118.7,134.3,118.7,134.4L118.7,134.4z"/>
	</g>
	<g>
		<path d="M118.7,135.6c0,0.2-0.1,0.3-0.3,0.3h-1.9c-0.2,0-0.3-0.1-0.3-0.3l0,0c0-0.2,0.1-0.3,0.3-0.3h1.9
			C118.5,135.3,118.7,135.4,118.7,135.6L118.7,135.6z"/>
	</g>
	<g>
		<path d="M118.7,136.7c0,0.2-0.1,0.3-0.3,0.3h-1.9c-0.2,0-0.3-0.1-0.3-0.3l0,0c0-0.2,0.1-0.3,0.3-0.3h1.9
			C118.5,136.4,118.7,136.6,118.7,136.7L118.7,136.7z"/>
	</g>
	<g>
		<path d="M118.7,137.8c0,0.2-0.1,0.3-0.3,0.3h-1.9c-0.2,0-0.3-0.1-0.3-0.3l0,0c0-0.2,0.1-0.3,0.3-0.3h1.9
			C118.5,137.6,118.7,137.7,118.7,137.8L118.7,137.8z"/>
	</g>
	<g>
		<path d="M118.7,139c0,0.2-0.1,0.3-0.3,0.3h-1.9c-0.2,0-0.3-0.1-0.3-0.3l0,0c0-0.2,0.1-0.3,0.3-0.3h1.9
			C118.5,138.7,118.7,138.8,118.7,139L118.7,139z"/>
	</g>
	<g>
		<path d="M118.7,140.1c0,0.2-0.1,0.3-0.3,0.3h-1.9c-0.2,0-0.3-0.1-0.3-0.3l0,0c0-0.2,0.1-0.3,0.3-0.3h1.9
			C118.5,139.8,118.7,139.9,118.7,140.1L118.7,140.1z"/>
	</g>
	<g>
		<path d="M118.7,141.2c0,0.2-0.1,0.3-0.3,0.3h-1.9c-0.2,0-0.3-0.1-0.3-0.3l0,0c0-0.2,0.1-0.3,0.3-0.3h1.9
			C118.5,141,118.7,141.1,118.7,141.2L118.7,141.2z"/>
	</g>
	<g>
		<path d="M118.7,142.4c0,0.2-0.1,0.3-0.3,0.3h-1.9c-0.2,0-0.3-0.1-0.3-0.3l0,0c0-0.2,0.1-0.3,0.3-0.3h1.9
			C118.5,142.1,118.7,142.2,118.7,142.4L118.7,142.4z"/>
	</g>
	<g>
		<path d="M118.7,143.5c0,0.2-0.1,0.3-0.3,0.3h-1.9c-0.2,0-0.3-0.1-0.3-0.3l0,0c0-0.2,0.1-0.3,0.3-0.3h1.9
			C118.5,143.2,118.7,143.4,118.7,143.5L118.7,143.5z"/>
	</g>
	<g>
		<path d="M100.3,125.2c0.2,0,0.3,0.1,0.3,0.3v1.9c0,0.2-0.1,0.3-0.3,0.3s-0.3-0.1-0.3-0.3v-1.9C100,125.3,100.2,125.2,100.3,125.2z
			"/>
	</g>
	<g>
		<path d="M101.4,125.2c0.2,0,0.3,0.1,0.3,0.3v1.9c0,0.2-0.1,0.3-0.3,0.3s-0.3-0.1-0.3-0.3v-1.9
			C101.2,125.3,101.3,125.2,101.4,125.2z"/>
	</g>
	<g>
		<path d="M102.6,125.2c0.2,0,0.3,0.1,0.3,0.3v1.9c0,0.2-0.1,0.3-0.3,0.3s-0.3-0.1-0.3-0.3v-1.9
			C102.3,125.3,102.4,125.2,102.6,125.2z"/>
	</g>
	<g>
		<path d="M103.7,125.2c0.2,0,0.3,0.1,0.3,0.3v1.9c0,0.2-0.1,0.3-0.3,0.3s-0.3-0.1-0.3-0.3v-1.9
			C103.4,125.3,103.6,125.2,103.7,125.2z"/>
	</g>
	<g>
		<path d="M104.8,125.2c0.2,0,0.3,0.1,0.3,0.3v1.9c0,0.2-0.1,0.3-0.3,0.3s-0.3-0.1-0.3-0.3v-1.9
			C104.6,125.3,104.7,125.2,104.8,125.2z"/>
	</g>
	<g>
		<path d="M106,125.2c0.2,0,0.3,0.1,0.3,0.3v1.9c0,0.2-0.1,0.3-0.3,0.3c-0.2,0-0.3-0.1-0.3-0.3v-1.9
			C105.7,125.3,105.8,125.2,106,125.2z"/>
	</g>
	<g>
		<path d="M107.1,125.2c0.2,0,0.3,0.1,0.3,0.3v1.9c0,0.2-0.1,0.3-0.3,0.3c-0.2,0-0.3-0.1-0.3-0.3v-1.9
			C106.8,125.3,107,125.2,107.1,125.2z"/>
	</g>
	<g>
		<path d="M108.2,125.2c0.2,0,0.3,0.1,0.3,0.3v1.9c0,0.2-0.1,0.3-0.3,0.3c-0.2,0-0.3-0.1-0.3-0.3v-1.9
			C108,125.3,108.1,125.2,108.2,125.2z"/>
	</g>
	<g>
		<path d="M109.4,125.2c0.2,0,0.3,0.1,0.3,0.3v1.9c0,0.2-0.1,0.3-0.3,0.3c-0.2,0-0.3-0.1-0.3-0.3v-1.9
			C109.1,125.3,109.2,125.2,109.4,125.2z"/>
	</g>
	<g>
		<path d="M110.5,125.2c0.2,0,0.3,0.1,0.3,0.3v1.9c0,0.2-0.1,0.3-0.3,0.3s-0.3-0.1-0.3-0.3v-1.9
			C110.2,125.3,110.4,125.2,110.5,125.2z"/>
	</g>
	<g>
		<path d="M111.7,125.2c0.2,0,0.3,0.1,0.3,0.3v1.9c0,0.2-0.1,0.3-0.3,0.3s-0.3-0.1-0.3-0.3v-1.9
			C111.4,125.3,111.5,125.2,111.7,125.2z"/>
	</g>
	<g>
		<path d="M112.8,125.2c0.2,0,0.3,0.1,0.3,0.3v1.9c0,0.2-0.1,0.3-0.3,0.3s-0.3-0.1-0.3-0.3v-1.9
			C112.5,125.3,112.6,125.2,112.8,125.2z"/>
	</g>
	<g>
		<path d="M113.9,125.2c0.2,0,0.3,0.1,0.3,0.3v1.9c0,0.2-0.1,0.3-0.3,0.3s-0.3-0.1-0.3-0.3v-1.9
			C113.6,125.3,113.8,125.2,113.9,125.2z"/>
	</g>
	<g>
		<path d="M115.1,125.2c0.2,0,0.3,0.1,0.3,0.3v1.9c0,0.2-0.1,0.3-0.3,0.3s-0.3-0.1-0.3-0.3v-1.9
			C114.8,125.3,114.9,125.2,115.1,125.2z"/>
	</g>
	<g>
		<path d="M96.7,143.5c0-0.2,0.1-0.3,0.3-0.3h1.9c0.2,0,0.3,0.1,0.3,0.3c0,0.2-0.1,0.3-0.3,0.3H97C96.8,143.8,96.7,143.7,96.7,143.5
			z"/>
	</g>
	<g>
		<path d="M96.7,142.4c0-0.2,0.1-0.3,0.3-0.3h1.9c0.2,0,0.3,0.1,0.3,0.3c0,0.2-0.1,0.3-0.3,0.3H97C96.8,142.7,96.7,142.5,96.7,142.4
			z"/>
	</g>
	<g>
		<path d="M96.7,141.2c0-0.2,0.1-0.3,0.3-0.3h1.9c0.2,0,0.3,0.1,0.3,0.3c0,0.2-0.1,0.3-0.3,0.3H97C96.8,141.5,96.7,141.4,96.7,141.2
			z"/>
	</g>
	<g>
		<path d="M96.7,140.1c0-0.2,0.1-0.3,0.3-0.3h1.9c0.2,0,0.3,0.1,0.3,0.3c0,0.2-0.1,0.3-0.3,0.3H97C96.8,140.4,96.7,140.3,96.7,140.1
			z"/>
	</g>
	<g>
		<path d="M96.7,139c0-0.2,0.1-0.3,0.3-0.3h1.9c0.2,0,0.3,0.1,0.3,0.3c0,0.2-0.1,0.3-0.3,0.3H97C96.8,139.3,96.7,139.1,96.7,139z"/>
	</g>
	<g>
		<path d="M96.7,137.8c0-0.2,0.1-0.3,0.3-0.3h1.9c0.2,0,0.3,0.1,0.3,0.3c0,0.2-0.1,0.3-0.3,0.3H97C96.8,138.1,96.7,138,96.7,137.8z"
			/>
	</g>
	<g>
		<path d="M96.7,136.7c0-0.2,0.1-0.3,0.3-0.3h1.9c0.2,0,0.3,0.1,0.3,0.3c0,0.2-0.1,0.3-0.3,0.3H97C96.8,137,96.7,136.9,96.7,136.7z"
			/>
	</g>
	<g>
		<path d="M96.7,135.6c0-0.2,0.1-0.3,0.3-0.3h1.9c0.2,0,0.3,0.1,0.3,0.3c0,0.2-0.1,0.3-0.3,0.3H97C96.8,135.9,96.7,135.7,96.7,135.6
			z"/>
	</g>
	<g>
		<path d="M96.7,134.4c0-0.2,0.1-0.3,0.3-0.3h1.9c0.2,0,0.3,0.1,0.3,0.3c0,0.2-0.1,0.3-0.3,0.3H97C96.8,134.7,96.7,134.6,96.7,134.4
			z"/>
	</g>
	<g>
		<path d="M96.7,133.3c0-0.2,0.1-0.3,0.3-0.3h1.9c0.2,0,0.3,0.1,0.3,0.3s-0.1,0.3-0.3,0.3H97C96.8,133.6,96.7,133.5,96.7,133.3z"/>
	</g>
	<g>
		<path d="M96.7,132.2c0-0.2,0.1-0.3,0.3-0.3h1.9c0.2,0,0.3,0.1,0.3,0.3c0,0.2-0.1,0.3-0.3,0.3H97C96.8,132.4,96.7,132.3,96.7,132.2
			z"/>
	</g>
	<g>
		<path d="M96.7,131c0-0.2,0.1-0.3,0.3-0.3h1.9c0.2,0,0.3,0.1,0.3,0.3s-0.1,0.3-0.3,0.3H97C96.8,131.3,96.7,131.2,96.7,131z"/>
	</g>
	<g>
		<path d="M96.7,129.9c0-0.2,0.1-0.3,0.3-0.3h1.9c0.2,0,0.3,0.1,0.3,0.3c0,0.2-0.1,0.3-0.3,0.3H97C96.8,130.2,96.7,130.1,96.7,129.9
			z"/>
	</g>
	<g>
		<path d="M96.7,128.8c0-0.2,0.1-0.3,0.3-0.3h1.9c0.2,0,0.3,0.1,0.3,0.3c0,0.2-0.1,0.3-0.3,0.3H97C96.8,129.1,96.7,128.9,96.7,128.8
			z"/>
	</g>
	<g>
		<path d="M69.9,71.9c0-0.2-0.1-0.3-0.3-0.3h-3c-0.2,0-0.3,0.1-0.3,0.3v7.8c0,0.2,0.1,0.3,0.3,0.3h3c0.2,0,0.3-0.1,0.3-0.3V71.9z"/>
	</g>
	<g>
		<path d="M76.5,71.9c0-0.2-0.1-0.3-0.3-0.3h-3c-0.2,0-0.3,0.1-0.3,0.3v7.8c0,0.2,0.1,0.3,0.3,0.3h3c0.2,0,0.3-0.1,0.3-0.3V71.9z"/>
	</g>
	<g>
		<path d="M59.6,68.5c0,0.2,0.1,0.3,0.3,0.3h2c0.2,0,0.3-0.1,0.3-0.3v-2.8c0-0.2-0.1-0.3-0.3-0.3h-2c-0.2,0-0.3,0.1-0.3,0.3V68.5z"
			/>
	</g>
	<g>
		<path d="M54,68.5c0,0.2,0.1,0.3,0.3,0.3h2c0.2,0,0.3-0.1,0.3-0.3v-2.8c0-0.2-0.1-0.3-0.3-0.3h-2c-0.2,0-0.3,0.1-0.3,0.3V68.5z"/>
	</g>
	<g>
		<path d="M70.2,68.5c0,0.2,0.1,0.3,0.3,0.3h2c0.2,0,0.3-0.1,0.3-0.3v-2.8c0-0.2-0.1-0.3-0.3-0.3h-2c-0.2,0-0.3,0.1-0.3,0.3V68.5z"
			/>
	</g>
	<g>
		<path d="M64.6,68.5c0,0.2,0.1,0.3,0.3,0.3h2c0.2,0,0.3-0.1,0.3-0.3v-2.8c0-0.2-0.1-0.3-0.3-0.3h-2c-0.2,0-0.3,0.1-0.3,0.3V68.5z"
			/>
	</g>
	<g>
		<path d="M56.5,59.7c0-0.2-0.1-0.3-0.3-0.3h-2c-0.2,0-0.3,0.1-0.3,0.3v2.8c0,0.2,0.1,0.3,0.3,0.3h2c0.2,0,0.3-0.1,0.3-0.3V59.7z"/>
	</g>
	<g>
		<path d="M62.2,59.7c0-0.2-0.1-0.3-0.3-0.3h-2c-0.2,0-0.3,0.1-0.3,0.3v2.8c0,0.2,0.1,0.3,0.3,0.3h2c0.2,0,0.3-0.1,0.3-0.3V59.7z"/>
	</g>
	<g>
		<path d="M42.4,92.6c0-0.2-0.1-0.3-0.3-0.3h-3.7c-0.2,0-0.3,0.1-0.3,0.3v0.4c0,0.2,0.1,0.3,0.3,0.3h3.7c0.2,0,0.3-0.1,0.3-0.3
			C42.4,92.9,42.4,92.6,42.4,92.6z"/>
	</g>
	<g>
		<path d="M42.4,91.2c0-0.2-0.1-0.3-0.3-0.3h-3.7c-0.2,0-0.3,0.1-0.3,0.3v0.4c0,0.2,0.1,0.3,0.3,0.3h3.7c0.2,0,0.3-0.1,0.3-0.3
			C42.4,91.5,42.4,91.2,42.4,91.2z"/>
	</g>
	<g>
		<path d="M42.4,89.8c0-0.2-0.1-0.3-0.3-0.3h-3.7c-0.2,0-0.3,0.1-0.3,0.3v0.4c0,0.2,0.1,0.3,0.3,0.3h3.7c0.2,0,0.3-0.1,0.3-0.3
			C42.4,90.1,42.4,89.8,42.4,89.8z"/>
	</g>
	<g>
		<path d="M42.4,88.3c0-0.2-0.1-0.3-0.3-0.3h-3.7c-0.2,0-0.3,0.1-0.3,0.3v0.4c0,0.2,0.1,0.3,0.3,0.3h3.7c0.2,0,0.3-0.1,0.3-0.3
			C42.4,88.7,42.4,88.3,42.4,88.3z"/>
	</g>
	<g>
		<path d="M42.4,95.4c0-0.2-0.1-0.3-0.3-0.3h-3.7c-0.2,0-0.3,0.1-0.3,0.3v0.4c0,0.2,0.1,0.3,0.3,0.3h3.7c0.2,0,0.3-0.1,0.3-0.3
			C42.4,95.8,42.4,95.4,42.4,95.4z"/>
	</g>
	<g>
		<path d="M42.4,94c0-0.2-0.1-0.3-0.3-0.3h-3.7c-0.2,0-0.3,0.1-0.3,0.3v0.4c0,0.2,0.1,0.3,0.3,0.3h3.7c0.2,0,0.3-0.1,0.3-0.3
			C42.4,94.4,42.4,94,42.4,94z"/>
	</g>
	<g>
		<path d="M42.4,98.3c0-0.2-0.1-0.3-0.3-0.3h-3.7c-0.2,0-0.3,0.1-0.3,0.3v0.4c0,0.2,0.1,0.3,0.3,0.3h3.7c0.2,0,0.3-0.1,0.3-0.3
			C42.4,98.6,42.4,98.3,42.4,98.3z"/>
	</g>
	<g>
		<path d="M42.4,96.8c0-0.2-0.1-0.3-0.3-0.3h-3.7c-0.2,0-0.3,0.1-0.3,0.3v0.4c0,0.2,0.1,0.3,0.3,0.3h3.7c0.2,0,0.3-0.1,0.3-0.3
			C42.4,97.2,42.4,96.8,42.4,96.8z"/>
	</g>
	<g>
		<path d="M42.4,86.1c0-0.2-0.1-0.3-0.3-0.3h-3.7c-0.2,0-0.3,0.1-0.3,0.3v1.2c0,0.2,0.1,0.3,0.3,0.3h3.7c0.2,0,0.3-0.1,0.3-0.3
			C42.4,87.3,42.4,86.1,42.4,86.1z"/>
	</g>
	<g>
		<path d="M42.4,99.7c0-0.2-0.1-0.3-0.3-0.3h-3.7c-0.2,0-0.3,0.1-0.3,0.3v1.2c0,0.2,0.1,0.3,0.3,0.3h3.7c0.2,0,0.3-0.1,0.3-0.3
			C42.4,100.8,42.4,99.7,42.4,99.7z"/>
	</g>
	<g>
		<path d="M42.4,101.9c0-0.2-0.1-0.3-0.3-0.3h-3.7c-0.2,0-0.3,0.1-0.3,0.3v1.2c0,0.2,0.1,0.3,0.3,0.3h3.7c0.2,0,0.3-0.1,0.3-0.3
			C42.4,103.1,42.4,101.9,42.4,101.9z"/>
	</g>
	<g>
		<path d="M42.4,83.9c0-0.2-0.1-0.3-0.3-0.3h-3.7c-0.2,0-0.3,0.1-0.3,0.3V85c0,0.2,0.1,0.3,0.3,0.3h3.7c0.2,0,0.3-0.1,0.3-0.3
			C42.4,85,42.4,83.9,42.4,83.9z"/>
	</g>
	<g>
		<path d="M84.7,128.7c0,0.2-0.1,0.3-0.3,0.3H82c-0.2,0-0.3-0.1-0.3-0.3v-1.8c0-0.2,0.1-0.3,0.3-0.3h2.4c0.2,0,0.3,0.1,0.3,0.3
			V128.7z"/>
	</g>
	<g>
		<path d="M89.9,128.7c0,0.2-0.1,0.3-0.3,0.3h-2.4c-0.2,0-0.3-0.1-0.3-0.3v-1.8c0-0.2,0.1-0.3,0.3-0.3h2.4c0.2,0,0.3,0.1,0.3,0.3
			V128.7z"/>
	</g>
	<g>
		<path d="M84.7,132.5c0,0.2-0.1,0.3-0.3,0.3H82c-0.2,0-0.3-0.1-0.3-0.3v-1.8c0-0.2,0.1-0.3,0.3-0.3h2.4c0.2,0,0.3,0.1,0.3,0.3
			V132.5z"/>
	</g>
	<g>
		<path d="M89.9,132.5c0,0.2-0.1,0.3-0.3,0.3h-2.4c-0.2,0-0.3-0.1-0.3-0.3v-1.8c0-0.2,0.1-0.3,0.3-0.3h2.4c0.2,0,0.3,0.1,0.3,0.3
			V132.5z"/>
	</g>
	<g>
		<path d="M135.3,88.7c0-0.2,0.1-0.3,0.3-0.3h1.4c0.2,0,0.3,0.1,0.3,0.3v5.1c0,0.2-0.1,0.3-0.3,0.3h-1.4c-0.2,0-0.3-0.1-0.3-0.3
			V88.7z"/>
	</g>
	<g>
		<path d="M138.9,88.7c0-0.2,0.1-0.3,0.3-0.3h1.4c0.2,0,0.3,0.1,0.3,0.3v5.1c0,0.2-0.1,0.3-0.3,0.3h-1.4c-0.2,0-0.3-0.1-0.3-0.3
			V88.7z"/>
	</g>
	<g>
		<path d="M142.5,88.7c0-0.2,0.1-0.3,0.3-0.3h1.4c0.2,0,0.3,0.1,0.3,0.3v5.1c0,0.2-0.1,0.3-0.3,0.3h-1.4c-0.2,0-0.3-0.1-0.3-0.3
			V88.7z"/>
	</g>
	<g>
		<path d="M146.1,88.7c0-0.2,0.1-0.3,0.3-0.3h1.4c0.2,0,0.3,0.1,0.3,0.3v5.1c0,0.2-0.1,0.3-0.3,0.3h-1.4c-0.2,0-0.3-0.1-0.3-0.3
			V88.7z"/>
	</g>
	<g>
		<path d="M135.3,104c0-0.2,0.1-0.3,0.3-0.3h1.4c0.2,0,0.3,0.1,0.3,0.3v5.1c0,0.2-0.1,0.3-0.3,0.3h-1.4c-0.2,0-0.3-0.1-0.3-0.3V104z
			"/>
	</g>
	<g>
		<path d="M138.9,104c0-0.2,0.1-0.3,0.3-0.3h1.4c0.2,0,0.3,0.1,0.3,0.3v5.1c0,0.2-0.1,0.3-0.3,0.3h-1.4c-0.2,0-0.3-0.1-0.3-0.3V104z
			"/>
	</g>
	<g>
		<path d="M142.5,104c0-0.2,0.1-0.3,0.3-0.3h1.4c0.2,0,0.3,0.1,0.3,0.3v5.1c0,0.2-0.1,0.3-0.3,0.3h-1.4c-0.2,0-0.3-0.1-0.3-0.3V104z
			"/>
	</g>
	<g>
		<path d="M146.1,104c0-0.2,0.1-0.3,0.3-0.3h1.4c0.2,0,0.3,0.1,0.3,0.3v5.1c0,0.2-0.1,0.3-0.3,0.3h-1.4c-0.2,0-0.3-0.1-0.3-0.3V104z
			"/>
	</g>
	<g>
		<path d="M105.7,151.7c0.2,0,0.3-0.1,0.3-0.3v-1c0-0.2-0.1-0.3-0.3-0.3H104c-0.2,0-0.3,0.1-0.3,0.3v1c0,0.2,0.1,0.3,0.3,0.3H105.7z
			"/>
	</g>
	<g>
		<path d="M105.7,156.3c0.2,0,0.3-0.1,0.3-0.3v-1c0-0.2-0.1-0.3-0.3-0.3H104c-0.2,0-0.3,0.1-0.3,0.3v1c0,0.2,0.1,0.3,0.3,0.3H105.7z
			"/>
	</g>
	<g>
		<path d="M115.9,151.7c0.2,0,0.3-0.1,0.3-0.3v-1c0-0.2-0.1-0.3-0.3-0.3h-1.8c-0.2,0-0.3,0.1-0.3,0.3v1c0,0.2,0.1,0.3,0.3,0.3H115.9
			z"/>
	</g>
	<g>
		<path d="M115.9,156.3c0.2,0,0.3-0.1,0.3-0.3v-1c0-0.2-0.1-0.3-0.3-0.3h-1.8c-0.2,0-0.3,0.1-0.3,0.3v1c0,0.2,0.1,0.3,0.3,0.3H115.9
			z"/>
	</g>
	<g>
		<path d="M115.9,117.5c0.2,0,0.3-0.1,0.3-0.3v-1c0-0.2-0.1-0.3-0.3-0.3h-1.8c-0.2,0-0.3,0.1-0.3,0.3v1c0,0.2,0.1,0.3,0.3,0.3H115.9
			z"/>
	</g>
	<g>
		<path d="M115.9,122.1c0.2,0,0.3-0.1,0.3-0.3v-1c0-0.2-0.1-0.3-0.3-0.3h-1.8c-0.2,0-0.3,0.1-0.3,0.3v1c0,0.2,0.1,0.3,0.3,0.3H115.9
			z"/>
	</g>
	<g>
		<path d="M104.7,117.5c0.2,0,0.3-0.1,0.3-0.3v-1c0-0.2-0.1-0.3-0.3-0.3H103c-0.2,0-0.3,0.1-0.3,0.3v1c0,0.2,0.1,0.3,0.3,0.3H104.7z
			"/>
	</g>
	<g>
		<path d="M104.7,122.1c0.2,0,0.3-0.1,0.3-0.3v-1c0-0.2-0.1-0.3-0.3-0.3H103c-0.2,0-0.3,0.1-0.3,0.3v1c0,0.2,0.1,0.3,0.3,0.3H104.7z
			"/>
	</g>
	<g>
		<path d="M127.2,128.2c-0.2,0-0.3,0.1-0.3,0.3v1c0,0.2,0.1,0.3,0.3,0.3h1.8c0.2,0,0.3-0.1,0.3-0.3v-1c0-0.2-0.1-0.3-0.3-0.3H127.2z
			"/>
	</g>
	<g>
		<path d="M127.2,123.5c-0.2,0-0.3,0.1-0.3,0.3v1c0,0.2,0.1,0.3,0.3,0.3h1.8c0.2,0,0.3-0.1,0.3-0.3v-1c0-0.2-0.1-0.3-0.3-0.3H127.2z
			"/>
	</g>
	<g>
		<path d="M131.2,128.2c-0.2,0-0.3,0.1-0.3,0.3v1c0,0.2,0.1,0.3,0.3,0.3h1.8c0.2,0,0.3-0.1,0.3-0.3v-1c0-0.2-0.1-0.3-0.3-0.3H131.2z
			"/>
	</g>
	<g>
		<path d="M131.2,123.5c-0.2,0-0.3,0.1-0.3,0.3v1c0,0.2,0.1,0.3,0.3,0.3h1.8c0.2,0,0.3-0.1,0.3-0.3v-1c0-0.2-0.1-0.3-0.3-0.3H131.2z
			"/>
	</g>
	<g>
		<path d="M47.1,90.7c0-0.2-0.1-0.3-0.3-0.3h-1c-0.2,0-0.3,0.1-0.3,0.3v1.8c0,0.2,0.1,0.3,0.3,0.3h1c0.2,0,0.3-0.1,0.3-0.3V90.7z"/>
	</g>
	<g>
		<path d="M51.8,90.7c0-0.2-0.1-0.3-0.3-0.3h-1c-0.2,0-0.3,0.1-0.3,0.3v1.8c0,0.2,0.1,0.3,0.3,0.3h1c0.2,0,0.3-0.1,0.3-0.3V90.7z"/>
	</g>
	<g>
		<path d="M47.1,96.4c0-0.2-0.1-0.3-0.3-0.3h-1c-0.2,0-0.3,0.1-0.3,0.3v1.8c0,0.2,0.1,0.3,0.3,0.3h1c0.2,0,0.3-0.1,0.3-0.3V96.4z"/>
	</g>
	<g>
		<path d="M51.8,96.4c0-0.2-0.1-0.3-0.3-0.3h-1c-0.2,0-0.3,0.1-0.3,0.3v1.8c0,0.2,0.1,0.3,0.3,0.3h1c0.2,0,0.3-0.1,0.3-0.3V96.4z"/>
	</g>
	<g>
		<path d="M59,84.5c0,0.2,0.1,0.3,0.3,0.3h1c0.2,0,0.3-0.1,0.3-0.3v-1.8c0-0.2-0.1-0.3-0.3-0.3h-1c-0.2,0-0.3,0.1-0.3,0.3V84.5z"/>
	</g>
	<g>
		<path d="M54.4,84.5c0,0.2,0.1,0.3,0.3,0.3h1c0.2,0,0.3-0.1,0.3-0.3v-1.8c0-0.2-0.1-0.3-0.3-0.3h-1c-0.2,0-0.3,0.1-0.3,0.3V84.5z"
			/>
	</g>
	<g>
		<path d="M67.7,84.5c0,0.2,0.1,0.3,0.3,0.3h1c0.2,0,0.3-0.1,0.3-0.3v-1.8c0-0.2-0.1-0.3-0.3-0.3h-1c-0.2,0-0.3,0.1-0.3,0.3V84.5z"
			/>
	</g>
	<g>
		<path d="M63,84.5c0,0.2,0.1,0.3,0.3,0.3h1c0.2,0,0.3-0.1,0.3-0.3v-1.8c0-0.2-0.1-0.3-0.3-0.3h-1c-0.2,0-0.3,0.1-0.3,0.3V84.5z"/>
	</g>
	<g>
		<path d="M84.3,122.7c0,0.2,0.1,0.3,0.3,0.3h1c0.2,0,0.3-0.1,0.3-0.3v-1.8c0-0.2-0.1-0.3-0.3-0.3h-1c-0.2,0-0.3,0.1-0.3,0.3V122.7z
			"/>
	</g>
	<g>
		<path d="M79.7,122.7c0,0.2,0.1,0.3,0.3,0.3h1c0.2,0,0.3-0.1,0.3-0.3v-1.8c0-0.2-0.1-0.3-0.3-0.3h-1c-0.2,0-0.3,0.1-0.3,0.3
			L79.7,122.7L79.7,122.7z"/>
	</g>
	<g>
		<path d="M81.3,136.8c0-0.2-0.1-0.3-0.3-0.3h-1c-0.2,0-0.3,0.1-0.3,0.3v1.8c0,0.2,0.1,0.3,0.3,0.3h1c0.2,0,0.3-0.1,0.3-0.3V136.8z"
			/>
	</g>
	<g>
		<path d="M85.9,136.8c0-0.2-0.1-0.3-0.3-0.3h-1c-0.2,0-0.3,0.1-0.3,0.3v1.8c0,0.2,0.1,0.3,0.3,0.3h1c0.2,0,0.3-0.1,0.3-0.3V136.8z"
			/>
	</g>
	<g>
		<path d="M81.3,140.8c0-0.2-0.1-0.3-0.3-0.3h-1c-0.2,0-0.3,0.1-0.3,0.3v1.8c0,0.2,0.1,0.3,0.3,0.3h1c0.2,0,0.3-0.1,0.3-0.3V140.8z"
			/>
	</g>
	<g>
		<path d="M85.9,140.8c0-0.2-0.1-0.3-0.3-0.3h-1c-0.2,0-0.3,0.1-0.3,0.3v1.8c0,0.2,0.1,0.3,0.3,0.3h1c0.2,0,0.3-0.1,0.3-0.3V140.8z"
			/>
	</g>
	<g>
		<path d="M88.9,136.8c0-0.2-0.1-0.3-0.3-0.3h-1c-0.2,0-0.3,0.1-0.3,0.3v1.8c0,0.2,0.1,0.3,0.3,0.3h1c0.2,0,0.3-0.1,0.3-0.3V136.8z"
			/>
	</g>
	<g>
		<path d="M93.6,136.8c0-0.2-0.1-0.3-0.3-0.3h-1c-0.2,0-0.3,0.1-0.3,0.3v1.8c0,0.2,0.1,0.3,0.3,0.3h1c0.2,0,0.3-0.1,0.3-0.3V136.8z"
			/>
	</g>
	<g>
		<path d="M88.9,140.8c0-0.2-0.1-0.3-0.3-0.3h-1c-0.2,0-0.3,0.1-0.3,0.3v1.8c0,0.2,0.1,0.3,0.3,0.3h1c0.2,0,0.3-0.1,0.3-0.3V140.8z"
			/>
	</g>
	<g>
		<path d="M93.6,140.8c0-0.2-0.1-0.3-0.3-0.3h-1c-0.2,0-0.3,0.1-0.3,0.3v1.8c0,0.2,0.1,0.3,0.3,0.3h1c0.2,0,0.3-0.1,0.3-0.3V140.8z"
			/>
	</g>
	<g>
		<path d="M123.6,137.8c0-0.2-0.1-0.3-0.3-0.3h-1c-0.2,0-0.3,0.1-0.3,0.3v1.8c0,0.2,0.1,0.3,0.3,0.3h1c0.2,0,0.3-0.1,0.3-0.3V137.8z
			"/>
	</g>
	<g>
		<path d="M128.2,137.8c0-0.2-0.1-0.3-0.3-0.3h-1c-0.2,0-0.3,0.1-0.3,0.3v1.8c0,0.2,0.1,0.3,0.3,0.3h1c0.2,0,0.3-0.1,0.3-0.3V137.8z
			"/>
	</g>
	<g>
		<path d="M123.6,133.8c0-0.2-0.1-0.3-0.3-0.3h-1c-0.2,0-0.3,0.1-0.3,0.3v1.8c0,0.2,0.1,0.3,0.3,0.3h1c0.2,0,0.3-0.1,0.3-0.3V133.8z
			"/>
	</g>
	<g>
		<path d="M128.2,133.8c0-0.2-0.1-0.3-0.3-0.3h-1c-0.2,0-0.3,0.1-0.3,0.3v1.8c0,0.2,0.1,0.3,0.3,0.3h1c0.2,0,0.3-0.1,0.3-0.3V133.8z
			"/>
	</g>
	<g>
		<path d="M123.6,146.8c0-0.2-0.1-0.3-0.3-0.3h-1c-0.2,0-0.3,0.1-0.3,0.3v1.8c0,0.2,0.1,0.3,0.3,0.3h1c0.2,0,0.3-0.1,0.3-0.3V146.8z
			"/>
	</g>
	<g>
		<path d="M128.2,146.8c0-0.2-0.1-0.3-0.3-0.3h-1c-0.2,0-0.3,0.1-0.3,0.3v1.8c0,0.2,0.1,0.3,0.3,0.3h1c0.2,0,0.3-0.1,0.3-0.3V146.8z
			"/>
	</g>
	<g>
		<path d="M123.6,142.8c0-0.2-0.1-0.3-0.3-0.3h-1c-0.2,0-0.3,0.1-0.3,0.3v1.8c0,0.2,0.1,0.3,0.3,0.3h1c0.2,0,0.3-0.1,0.3-0.3V142.8z
			"/>
	</g>
	<g>
		<path d="M128.2,142.8c0-0.2-0.1-0.3-0.3-0.3h-1c-0.2,0-0.3,0.1-0.3,0.3v1.8c0,0.2,0.1,0.3,0.3,0.3h1c0.2,0,0.3-0.1,0.3-0.3V142.8z
			"/>
	</g>
	<g>
		<path d="M123.9,151.7c0.2,0,0.3-0.1,0.3-0.3v-1c0-0.2-0.1-0.3-0.3-0.3h-1.8c-0.2,0-0.3,0.1-0.3,0.3v1c0,0.2,0.1,0.3,0.3,0.3H123.9
			z"/>
	</g>
	<g>
		<path d="M123.9,156.3c0.2,0,0.3-0.1,0.3-0.3v-1c0-0.2-0.1-0.3-0.3-0.3h-1.8c-0.2,0-0.3,0.1-0.3,0.3v1c0,0.2,0.1,0.3,0.3,0.3H123.9
			z"/>
	</g>
	<g>
		<path d="M119.9,151.7c0.2,0,0.3-0.1,0.3-0.3v-1c0-0.2-0.1-0.3-0.3-0.3h-1.8c-0.2,0-0.3,0.1-0.3,0.3v1c0,0.2,0.1,0.3,0.3,0.3H119.9
			z"/>
	</g>
	<g>
		<path d="M119.9,156.3c0.2,0,0.3-0.1,0.3-0.3v-1c0-0.2-0.1-0.3-0.3-0.3h-1.8c-0.2,0-0.3,0.1-0.3,0.3v1c0,0.2,0.1,0.3,0.3,0.3H119.9
			z"/>
	</g>
	<g>
		<path d="M146.3,113.4c0,0.2,0.1,0.3,0.3,0.3h1c0.2,0,0.3-0.1,0.3-0.3v-1.8c0-0.2-0.1-0.3-0.3-0.3h-1c-0.2,0-0.3,0.1-0.3,0.3V113.4
			z"/>
	</g>
	<g>
		<path d="M141.7,113.4c0,0.2,0.1,0.3,0.3,0.3h1c0.2,0,0.3-0.1,0.3-0.3v-1.8c0-0.2-0.1-0.3-0.3-0.3h-1c-0.2,0-0.3,0.1-0.3,0.3V113.4
			z"/>
	</g>
	<g>
		<path d="M119.9,117.5c0.2,0,0.3-0.1,0.3-0.3v-1c0-0.2-0.1-0.3-0.3-0.3h-1.8c-0.2,0-0.3,0.1-0.3,0.3v1c0,0.2,0.1,0.3,0.3,0.3H119.9
			z"/>
	</g>
	<g>
		<path d="M119.9,122.1c0.2,0,0.3-0.1,0.3-0.3v-1c0-0.2-0.1-0.3-0.3-0.3h-1.8c-0.2,0-0.3,0.1-0.3,0.3v1c0,0.2,0.1,0.3,0.3,0.3H119.9
			z"/>
	</g>
	<g>
		<path d="M128.6,176.8c-0.2,0-0.3,0.1-0.3,0.3v1c0,0.2,0.1,0.3,0.3,0.3h1.8c0.2,0,0.3-0.1,0.3-0.3v-1c0-0.2-0.1-0.3-0.3-0.3H128.6z
			"/>
	</g>
	<g>
		<path d="M128.6,172.1c-0.2,0-0.3,0.1-0.3,0.3v1c0,0.2,0.1,0.3,0.3,0.3h1.8c0.2,0,0.3-0.1,0.3-0.3v-1c0-0.2-0.1-0.3-0.3-0.3H128.6z
			"/>
	</g>
	<g>
		<path d="M128.6,185c-0.2,0-0.3,0.1-0.3,0.3v1c0,0.2,0.1,0.3,0.3,0.3h1.8c0.2,0,0.3-0.1,0.3-0.3v-1c0-0.2-0.1-0.3-0.3-0.3H128.6z"
			/>
	</g>
	<g>
		<path d="M128.6,180.4c-0.2,0-0.3,0.1-0.3,0.3v1c0,0.2,0.1,0.3,0.3,0.3h1.8c0.2,0,0.3-0.1,0.3-0.3v-1c0-0.2-0.1-0.3-0.3-0.3H128.6z
			"/>
	</g>
	<g>
		<path d="M128.6,212.1c-0.2,0-0.3,0.1-0.3,0.3v1c0,0.2,0.1,0.3,0.3,0.3h1.8c0.2,0,0.3-0.1,0.3-0.3v-1c0-0.2-0.1-0.3-0.3-0.3H128.6z
			"/>
	</g>
	<g>
		<path d="M128.6,207.5c-0.2,0-0.3,0.1-0.3,0.3v1c0,0.2,0.1,0.3,0.3,0.3h1.8c0.2,0,0.3-0.1,0.3-0.3v-1c0-0.2-0.1-0.3-0.3-0.3H128.6z
			"/>
	</g>
	<g>
		<path d="M128.6,219.2c-0.2,0-0.3,0.1-0.3,0.3v1c0,0.2,0.1,0.3,0.3,0.3h1.8c0.2,0,0.3-0.1,0.3-0.3v-1c0-0.2-0.1-0.3-0.3-0.3H128.6z
			"/>
	</g>
	<g>
		<path d="M128.6,214.6c-0.2,0-0.3,0.1-0.3,0.3v1c0,0.2,0.1,0.3,0.3,0.3h1.8c0.2,0,0.3-0.1,0.3-0.3v-1c0-0.2-0.1-0.3-0.3-0.3H128.6z
			"/>
	</g>
	<g>
		<path d="M128.6,226.3c-0.2,0-0.3,0.1-0.3,0.3v1c0,0.2,0.1,0.3,0.3,0.3h1.8c0.2,0,0.3-0.1,0.3-0.3v-1c0-0.2-0.1-0.3-0.3-0.3H128.6z
			"/>
	</g>
	<g>
		<path d="M128.6,221.7c-0.2,0-0.3,0.1-0.3,0.3v1c0,0.2,0.1,0.3,0.3,0.3h1.8c0.2,0,0.3-0.1,0.3-0.3v-1c0-0.2-0.1-0.3-0.3-0.3H128.6z
			"/>
	</g>
	<g>
		<path d="M44.1,51.7c0-0.2-0.1-0.3-0.3-0.3h-1c-0.2,0-0.3,0.1-0.3,0.3v1.8c0,0.2,0.1,0.3,0.3,0.3h1c0.2,0,0.3-0.1,0.3-0.3V51.7z"/>
	</g>
	<g>
		<path d="M48.8,51.7c0-0.2-0.1-0.3-0.3-0.3h-1c-0.2,0-0.3,0.1-0.3,0.3v1.8c0,0.2,0.1,0.3,0.3,0.3h1c0.2,0,0.3-0.1,0.3-0.3V51.7z"/>
	</g>
	<g>
		<path d="M44.1,47.7c0-0.2-0.1-0.3-0.3-0.3h-1c-0.2,0-0.3,0.1-0.3,0.3v1.8c0,0.2,0.1,0.3,0.3,0.3h1c0.2,0,0.3-0.1,0.3-0.3V47.7z"/>
	</g>
	<g>
		<path d="M48.8,47.7c0-0.2-0.1-0.3-0.3-0.3h-1c-0.2,0-0.3,0.1-0.3,0.3v1.8c0,0.2,0.1,0.3,0.3,0.3h1c0.2,0,0.3-0.1,0.3-0.3V47.7z"/>
	</g>
	<g>
		<path d="M44.1,43.7c0-0.2-0.1-0.3-0.3-0.3h-1c-0.2,0-0.3,0.1-0.3,0.3v1.8c0,0.2,0.1,0.3,0.3,0.3h1c0.2,0,0.3-0.1,0.3-0.3V43.7z"/>
	</g>
	<g>
		<path d="M48.8,43.7c0-0.2-0.1-0.3-0.3-0.3h-1c-0.2,0-0.3,0.1-0.3,0.3v1.8c0,0.2,0.1,0.3,0.3,0.3h1c0.2,0,0.3-0.1,0.3-0.3V43.7z"/>
	</g>
	<g>
		<path d="M31.2,49.7c0-0.2-0.1-0.3-0.3-0.3h-3c-0.2,0-0.3,0.1-0.3,0.3v3.8c0,0.2,0.1,0.3,0.3,0.3h3c0.2,0,0.3-0.1,0.3-0.3V49.7z"/>
	</g>
	<g>
		<path d="M39.8,49.7c0-0.2-0.1-0.3-0.3-0.3h-3c-0.2,0-0.3,0.1-0.3,0.3v3.8c0,0.2,0.1,0.3,0.3,0.3h3c0.2,0,0.3-0.1,0.3-0.3V49.7z"/>
	</g>
	<g>
		<path d="M67.2,59.7c0-0.2-0.1-0.3-0.3-0.3h-2c-0.2,0-0.3,0.1-0.3,0.3v2.8c0,0.2,0.1,0.3,0.3,0.3h2c0.2,0,0.3-0.1,0.3-0.3V59.7z"/>
	</g>
	<g>
		<path d="M72.8,59.7c0-0.2-0.1-0.3-0.3-0.3h-2c-0.2,0-0.3,0.1-0.3,0.3v2.8c0,0.2,0.1,0.3,0.3,0.3h2c0.2,0,0.3-0.1,0.3-0.3V59.7z"/>
	</g>
	<g>
		<path d="M50.2,88.4c0,0.2,0.1,0.3,0.3,0.3h1c0.2,0,0.3-0.1,0.3-0.3v-1.8c0-0.2-0.1-0.3-0.3-0.3h-1c-0.2,0-0.3,0.1-0.3,0.3V88.4z"
			/>
	</g>
	<g>
		<path d="M45.5,88.4c0,0.2,0.1,0.3,0.3,0.3h1c0.2,0,0.3-0.1,0.3-0.3v-1.8c0-0.2-0.1-0.3-0.3-0.3h-1c-0.2,0-0.3,0.1-0.3,0.3V88.4z"
			/>
	</g>
	<g>
		<path d="M50.2,84.4c0,0.2,0.1,0.3,0.3,0.3h1c0.2,0,0.3-0.1,0.3-0.3v-1.8c0-0.2-0.1-0.3-0.3-0.3h-1c-0.2,0-0.3,0.1-0.3,0.3V84.4z"
			/>
	</g>
	<g>
		<path d="M45.5,84.4c0,0.2,0.1,0.3,0.3,0.3h1c0.2,0,0.3-0.1,0.3-0.3v-1.8c0-0.2-0.1-0.3-0.3-0.3h-1c-0.2,0-0.3,0.1-0.3,0.3V84.4z"
			/>
	</g>
	<g>
		<path d="M124,72.1c0-0.2,0.1-0.3,0.3-0.3h0.6c0.2,0,0.3,0.1,0.3,0.3v5c0,0.2-0.1,0.3-0.3,0.3h-0.6c-0.2,0-0.3-0.1-0.3-0.3V72.1z"
			/>
	</g>
	<g>
		<path d="M122.2,72.1c0-0.2,0.1-0.3,0.3-0.3h0.6c0.2,0,0.3,0.1,0.3,0.3v5c0,0.2-0.1,0.3-0.3,0.3h-0.6c-0.2,0-0.3-0.1-0.3-0.3V72.1z
			"/>
	</g>
	<g>
		<path d="M120.3,72.1c0-0.2,0.1-0.3,0.3-0.3h0.6c0.2,0,0.3,0.1,0.3,0.3v5c0,0.2-0.1,0.3-0.3,0.3h-0.6c-0.2,0-0.3-0.1-0.3-0.3V72.1z
			"/>
	</g>
	<g>
		<path d="M118.5,72.1c0-0.2,0.1-0.3,0.3-0.3h0.6c0.2,0,0.3,0.1,0.3,0.3v5c0,0.2-0.1,0.3-0.3,0.3h-0.6c-0.2,0-0.3-0.1-0.3-0.3V72.1z
			"/>
	</g>
	<g>
		<path d="M116.6,72.1c0-0.2,0.1-0.3,0.3-0.3h0.6c0.2,0,0.3,0.1,0.3,0.3v5c0,0.2-0.1,0.3-0.3,0.3h-0.6c-0.2,0-0.3-0.1-0.3-0.3V72.1z
			"/>
	</g>
	<g>
		<path d="M114.8,72.1c0-0.2,0.1-0.3,0.3-0.3h0.6c0.2,0,0.3,0.1,0.3,0.3v5c0,0.2-0.1,0.3-0.3,0.3h-0.6c-0.2,0-0.3-0.1-0.3-0.3V72.1z
			"/>
	</g>
	<g>
		<path d="M124,54.2c0-0.2,0.1-0.3,0.3-0.3h0.6c0.2,0,0.3,0.1,0.3,0.3v5c0,0.2-0.1,0.3-0.3,0.3h-0.6c-0.2,0-0.3-0.1-0.3-0.3V54.2z"
			/>
	</g>
	<g>
		<path d="M122.2,54.2c0-0.2,0.1-0.3,0.3-0.3h0.6c0.2,0,0.3,0.1,0.3,0.3v5c0,0.2-0.1,0.3-0.3,0.3h-0.6c-0.2,0-0.3-0.1-0.3-0.3V54.2z
			"/>
	</g>
	<g>
		<path d="M120.3,54.2c0-0.2,0.1-0.3,0.3-0.3h0.6c0.2,0,0.3,0.1,0.3,0.3v5c0,0.2-0.1,0.3-0.3,0.3h-0.6c-0.2,0-0.3-0.1-0.3-0.3V54.2z
			"/>
	</g>
	<g>
		<path d="M118.5,54.2c0-0.2,0.1-0.3,0.3-0.3h0.6c0.2,0,0.3,0.1,0.3,0.3v5c0,0.2-0.1,0.3-0.3,0.3h-0.6c-0.2,0-0.3-0.1-0.3-0.3V54.2z
			"/>
	</g>
	<g>
		<path d="M116.6,54.2c0-0.2,0.1-0.3,0.3-0.3h0.6c0.2,0,0.3,0.1,0.3,0.3v5c0,0.2-0.1,0.3-0.3,0.3h-0.6c-0.2,0-0.3-0.1-0.3-0.3V54.2z
			"/>
	</g>
	<g>
		<path d="M114.8,54.2c0-0.2,0.1-0.3,0.3-0.3h0.6c0.2,0,0.3,0.1,0.3,0.3v5c0,0.2-0.1,0.3-0.3,0.3h-0.6c-0.2,0-0.3-0.1-0.3-0.3V54.2z
			"/>
	</g>
	<g>
		<path d="M112.9,72.1c0-0.2,0.1-0.3,0.3-0.3h0.6c0.2,0,0.3,0.1,0.3,0.3v5c0,0.2-0.1,0.3-0.3,0.3h-0.6c-0.2,0-0.3-0.1-0.3-0.3V72.1z
			"/>
	</g>
	<g>
		<path d="M111.1,72.1c0-0.2,0.1-0.3,0.3-0.3h0.6c0.2,0,0.3,0.1,0.3,0.3v5c0,0.2-0.1,0.3-0.3,0.3h-0.6c-0.2,0-0.3-0.1-0.3-0.3V72.1z
			"/>
	</g>
	<g>
		<path d="M109.3,72.1c0-0.2,0.1-0.3,0.3-0.3h0.6c0.2,0,0.3,0.1,0.3,0.3v5c0,0.2-0.1,0.3-0.3,0.3h-0.6c-0.2,0-0.3-0.1-0.3-0.3V72.1z
			"/>
	</g>
	<g>
		<path d="M107.4,72.1c0-0.2,0.1-0.3,0.3-0.3h0.6c0.2,0,0.3,0.1,0.3,0.3v5c0,0.2-0.1,0.3-0.3,0.3h-0.6c-0.2,0-0.3-0.1-0.3-0.3V72.1z
			"/>
	</g>
	<g>
		<path d="M112.9,54.2c0-0.2,0.1-0.3,0.3-0.3h0.6c0.2,0,0.3,0.1,0.3,0.3v5c0,0.2-0.1,0.3-0.3,0.3h-0.6c-0.2,0-0.3-0.1-0.3-0.3V54.2z
			"/>
	</g>
	<g>
		<path d="M111.1,54.2c0-0.2,0.1-0.3,0.3-0.3h0.6c0.2,0,0.3,0.1,0.3,0.3v5c0,0.2-0.1,0.3-0.3,0.3h-0.6c-0.2,0-0.3-0.1-0.3-0.3V54.2z
			"/>
	</g>
	<g>
		<path d="M109.3,54.2c0-0.2,0.1-0.3,0.3-0.3h0.6c0.2,0,0.3,0.1,0.3,0.3v5c0,0.2-0.1,0.3-0.3,0.3h-0.6c-0.2,0-0.3-0.1-0.3-0.3V54.2z
			"/>
	</g>
	<g>
		<path d="M107.4,54.2c0-0.2,0.1-0.3,0.3-0.3h0.6c0.2,0,0.3,0.1,0.3,0.3v5c0,0.2-0.1,0.3-0.3,0.3h-0.6c-0.2,0-0.3-0.1-0.3-0.3V54.2z
			"/>
	</g>
	<g>
		<path d="M53.9,77.7c-0.2,0-0.3,0.1-0.3,0.3v1.2c0,0.2,0.1,0.3,0.3,0.3h2.7c0.2,0,0.3-0.1,0.3-0.3V78c0-0.2-0.1-0.3-0.3-0.3H53.9z"
			/>
	</g>
	<g>
		<path d="M60.3,77.8c-0.2,0-0.3,0.1-0.3,0.3v1.1c0,0.2,0.1,0.3,0.3,0.3H63c0.2,0,0.3-0.1,0.3-0.3v-1.1c0-0.2-0.1-0.3-0.3-0.3H60.3z
			"/>
	</g>
	<g>
		<path d="M60.3,72.4c-0.2,0-0.3,0.1-0.3,0.3v1.1c0,0.2,0.1,0.3,0.3,0.3H63c0.2,0,0.3-0.1,0.3-0.3v-1.1c0-0.2-0.1-0.3-0.3-0.3H60.3z
			"/>
	</g>
	<g>
		<path d="M53.9,72.4c-0.2,0-0.3,0.1-0.3,0.3v1.2c0,0.2,0.1,0.3,0.3,0.3h2.7c0.2,0,0.3-0.1,0.3-0.3v-1.2c0-0.2-0.1-0.3-0.3-0.3H53.9
			z"/>
	</g>
	<g>
		<path d="M60.3,75.1c-0.2,0-0.3,0.1-0.3,0.3v1c0,0.2,0.1,0.3,0.3,0.3H63c0.2,0,0.3-0.1,0.3-0.3v-1c0-0.2-0.1-0.3-0.3-0.3H60.3z"/>
	</g>
	<g>
		<path d="M54,54.8c0-0.2,0.1-0.3,0.3-0.3h2.2c0.2,0,0.3,0.1,0.3,0.3v2.4c0,0.2-0.1,0.3-0.3,0.3h-2.2c-0.2,0-0.3-0.1-0.3-0.3V54.8z"
			/>
	</g>
	<g>
		<path d="M54,44.3c0-0.2,0.1-0.3,0.3-0.3h2.2c0.2,0,0.3,0.1,0.3,0.3v2.4c0,0.2-0.1,0.3-0.3,0.3h-2.2c-0.2,0-0.3-0.1-0.3-0.3V44.3z"
			/>
	</g>
	<g>
		<path d="M101.4,72.1c0-0.2,0.1-0.3,0.3-0.3h0.6c0.2,0,0.3,0.1,0.3,0.3v5c0,0.2-0.1,0.3-0.3,0.3h-0.6c-0.2,0-0.3-0.1-0.3-0.3V72.1z
			"/>
	</g>
	<g>
		<path d="M99.6,72.1c0-0.2,0.1-0.3,0.3-0.3h0.6c0.2,0,0.3,0.1,0.3,0.3v5c0,0.2-0.1,0.3-0.3,0.3h-0.6c-0.2,0-0.3-0.1-0.3-0.3V72.1z"
			/>
	</g>
	<g>
		<path d="M97.7,72.1c0-0.2,0.1-0.3,0.3-0.3h0.6c0.2,0,0.3,0.1,0.3,0.3v5c0,0.2-0.1,0.3-0.3,0.3H98c-0.2,0-0.3-0.1-0.3-0.3V72.1z"/>
	</g>
	<g>
		<path d="M95.9,72.1c0-0.2,0.1-0.3,0.3-0.3h0.6c0.2,0,0.3,0.1,0.3,0.3v5c0,0.2-0.1,0.3-0.3,0.3h-0.6c-0.2,0-0.3-0.1-0.3-0.3V72.1z"
			/>
	</g>
	<g>
		<path d="M94,72.1c0-0.2,0.1-0.3,0.3-0.3h0.6c0.2,0,0.3,0.1,0.3,0.3v5c0,0.2-0.1,0.3-0.3,0.3h-0.6c-0.2,0-0.3-0.1-0.3-0.3V72.1z"/>
	</g>
	<g>
		<path d="M92.2,72.1c0-0.2,0.1-0.3,0.3-0.3h0.6c0.2,0,0.3,0.1,0.3,0.3v5c0,0.2-0.1,0.3-0.3,0.3h-0.6c-0.2,0-0.3-0.1-0.3-0.3V72.1z"
			/>
	</g>
	<g>
		<path d="M101.4,54.2c0-0.2,0.1-0.3,0.3-0.3h0.6c0.2,0,0.3,0.1,0.3,0.3v5c0,0.2-0.1,0.3-0.3,0.3h-0.6c-0.2,0-0.3-0.1-0.3-0.3V54.2z
			"/>
	</g>
	<g>
		<path d="M99.6,54.2c0-0.2,0.1-0.3,0.3-0.3h0.6c0.2,0,0.3,0.1,0.3,0.3v5c0,0.2-0.1,0.3-0.3,0.3h-0.6c-0.2,0-0.3-0.1-0.3-0.3V54.2z"
			/>
	</g>
	<g>
		<path d="M97.7,54.2c0-0.2,0.1-0.3,0.3-0.3h0.6c0.2,0,0.3,0.1,0.3,0.3v5c0,0.2-0.1,0.3-0.3,0.3H98c-0.2,0-0.3-0.1-0.3-0.3V54.2z"/>
	</g>
	<g>
		<path d="M95.9,54.2c0-0.2,0.1-0.3,0.3-0.3h0.6c0.2,0,0.3,0.1,0.3,0.3v5c0,0.2-0.1,0.3-0.3,0.3h-0.6c-0.2,0-0.3-0.1-0.3-0.3V54.2z"
			/>
	</g>
	<g>
		<path d="M94,54.2c0-0.2,0.1-0.3,0.3-0.3h0.6c0.2,0,0.3,0.1,0.3,0.3v5c0,0.2-0.1,0.3-0.3,0.3h-0.6c-0.2,0-0.3-0.1-0.3-0.3V54.2z"/>
	</g>
	<g>
		<path d="M92.2,54.2c0-0.2,0.1-0.3,0.3-0.3h0.6c0.2,0,0.3,0.1,0.3,0.3v5c0,0.2-0.1,0.3-0.3,0.3h-0.6c-0.2,0-0.3-0.1-0.3-0.3V54.2z"
			/>
	</g>
	<g>
		<path d="M90.4,72.1c0-0.2,0.1-0.3,0.3-0.3h0.6c0.2,0,0.3,0.1,0.3,0.3v5c0,0.2-0.1,0.3-0.3,0.3h-0.6c-0.2,0-0.3-0.1-0.3-0.3V72.1z"
			/>
	</g>
	<g>
		<path d="M88.5,72.1c0-0.2,0.1-0.3,0.3-0.3h0.6c0.2,0,0.3,0.1,0.3,0.3v5c0,0.2-0.1,0.3-0.3,0.3h-0.6c-0.2,0-0.3-0.1-0.3-0.3
			C88.5,77,88.5,72.1,88.5,72.1z"/>
	</g>
	<g>
		<path d="M86.7,72.1c0-0.2,0.1-0.3,0.3-0.3h0.6c0.2,0,0.3,0.1,0.3,0.3v5c0,0.2-0.1,0.3-0.3,0.3h-0.6c-0.2,0-0.3-0.1-0.3-0.3V72.1z"
			/>
	</g>
	<g>
		<path d="M84.8,72.1c0-0.2,0.1-0.3,0.3-0.3h0.6c0.2,0,0.3,0.1,0.3,0.3v5c0,0.2-0.1,0.3-0.3,0.3h-0.6c-0.2,0-0.3-0.1-0.3-0.3V72.1z"
			/>
	</g>
	<g>
		<path d="M90.4,54.2c0-0.2,0.1-0.3,0.3-0.3h0.6c0.2,0,0.3,0.1,0.3,0.3v5c0,0.2-0.1,0.3-0.3,0.3h-0.6c-0.2,0-0.3-0.1-0.3-0.3V54.2z"
			/>
	</g>
	<g>
		<path d="M88.5,54.2c0-0.2,0.1-0.3,0.3-0.3h0.6c0.2,0,0.3,0.1,0.3,0.3v5c0,0.2-0.1,0.3-0.3,0.3h-0.6c-0.2,0-0.3-0.1-0.3-0.3
			C88.5,59.2,88.5,54.2,88.5,54.2z"/>
	</g>
	<g>
		<path d="M86.7,54.2c0-0.2,0.1-0.3,0.3-0.3h0.6c0.2,0,0.3,0.1,0.3,0.3v5c0,0.2-0.1,0.3-0.3,0.3h-0.6c-0.2,0-0.3-0.1-0.3-0.3V54.2z"
			/>
	</g>
	<g>
		<path d="M84.8,54.2c0-0.2,0.1-0.3,0.3-0.3h0.6c0.2,0,0.3,0.1,0.3,0.3v5c0,0.2-0.1,0.3-0.3,0.3h-0.6c-0.2,0-0.3-0.1-0.3-0.3V54.2z"
			/>
	</g>
	<g>
		<path d="M62,54.8c0-0.2,0.1-0.3,0.3-0.3h2.2c0.2,0,0.3,0.1,0.3,0.3v2.4c0,0.2-0.1,0.3-0.3,0.3h-2.2c-0.2,0-0.3-0.1-0.3-0.3
			C61.9,57.2,61.9,54.8,62,54.8z"/>
	</g>
	<g>
		<path d="M62,44.3c0-0.2,0.1-0.3,0.3-0.3h2.2c0.2,0,0.3,0.1,0.3,0.3v2.4c0,0.2-0.1,0.3-0.3,0.3h-2.2c-0.2,0-0.3-0.1-0.3-0.3
			C61.9,46.7,61.9,44.3,62,44.3z"/>
	</g>
	<g>
		<path d="M69.9,54.8c0-0.2,0.1-0.3,0.3-0.3h2.2c0.2,0,0.3,0.1,0.3,0.3v2.4c0,0.2-0.1,0.3-0.3,0.3h-2.2c-0.2,0-0.3-0.1-0.3-0.3V54.8
			z"/>
	</g>
	<g>
		<path d="M69.9,44.3c0-0.2,0.1-0.3,0.3-0.3h2.2c0.2,0,0.3,0.1,0.3,0.3v2.4c0,0.2-0.1,0.3-0.3,0.3h-2.2c-0.2,0-0.3-0.1-0.3-0.3V44.3
			z"/>
	</g>
	<g>
		<path d="M77.9,54.8c0-0.2,0.1-0.3,0.3-0.3h2.2c0.2,0,0.3,0.1,0.3,0.3v2.4c0,0.2-0.1,0.3-0.3,0.3h-2.2c-0.2,0-0.3-0.1-0.3-0.3V54.8
			z"/>
	</g>
	<g>
		<path d="M77.9,44.3c0-0.2,0.1-0.3,0.3-0.3h2.2c0.2,0,0.3,0.1,0.3,0.3v2.4c0,0.2-0.1,0.3-0.3,0.3h-2.2c-0.2,0-0.3-0.1-0.3-0.3V44.3
			z"/>
	</g>
	<g>
		<path d="M102.6,96.5c0,0.2-0.1,0.3-0.3,0.3h-5.7c-0.2,0-0.3-0.1-0.3-0.3V94c0-0.2,0.1-0.3,0.3-0.3h5.7c0.2,0,0.3,0.1,0.3,0.3V96.5
			z"/>
	</g>
	<g>
		<path d="M77.6,96.5c0,0.2-0.1,0.3-0.3,0.3h-5.7c-0.2,0-0.3-0.1-0.3-0.3V94c0-0.2,0.1-0.3,0.3-0.3h5.7c0.2,0,0.3,0.1,0.3,0.3V96.5z
			"/>
	</g>
	<g>
		<path d="M77.6,103.7c0,0.2-0.1,0.3-0.3,0.3h-5.7c-0.2,0-0.3-0.1-0.3-0.3v-2.6c0-0.2,0.1-0.3,0.3-0.3h5.7c0.2,0,0.3,0.1,0.3,0.3
			V103.7z"/>
	</g>
	<g>
		<path d="M77.6,110.9c0,0.2-0.1,0.3-0.3,0.3h-5.7c-0.2,0-0.3-0.1-0.3-0.3v-2.6c0-0.2,0.1-0.3,0.3-0.3h5.7c0.2,0,0.3,0.1,0.3,0.3
			V110.9z"/>
	</g>
	<g>
		<path d="M102.6,103.7c0,0.2-0.1,0.3-0.3,0.3h-5.7c-0.2,0-0.3-0.1-0.3-0.3v-2.6c0-0.2,0.1-0.3,0.3-0.3h5.7c0.2,0,0.3,0.1,0.3,0.3
			V103.7z"/>
	</g>
	<g>
		<path d="M102.6,110.9c0,0.2-0.1,0.3-0.3,0.3h-5.7c-0.2,0-0.3-0.1-0.3-0.3v-2.6c0-0.2,0.1-0.3,0.3-0.3h5.7c0.2,0,0.3,0.1,0.3,0.3
			V110.9z"/>
	</g>
	<g>
		<path d="M102.6,89.3c0,0.2-0.1,0.3-0.3,0.3h-5.7c-0.2,0-0.3-0.1-0.3-0.3v-2.6c0-0.2,0.1-0.3,0.3-0.3h5.7c0.2,0,0.3,0.1,0.3,0.3
			V89.3z"/>
	</g>
	<g>
		<path d="M77.6,89.3c0,0.2-0.1,0.3-0.3,0.3h-5.7c-0.2,0-0.3-0.1-0.3-0.3v-2.6c0-0.2,0.1-0.3,0.3-0.3h5.7c0.2,0,0.3,0.1,0.3,0.3
			V89.3z"/>
	</g>
	<g>
		<path d="M86.7,45.9c0.2,0,0.3-0.1,0.3-0.3v-1c0-0.2-0.1-0.3-0.3-0.3h-1.8c-0.2,0-0.3,0.1-0.3,0.3v1c0,0.2,0.1,0.3,0.3,0.3H86.7z"
			/>
	</g>
	<g>
		<path d="M86.7,50.5c0.2,0,0.3-0.1,0.3-0.3v-1c0-0.2-0.1-0.3-0.3-0.3h-1.8c-0.2,0-0.3,0.1-0.3,0.3v1c0,0.2,0.1,0.3,0.3,0.3H86.7z"
			/>
	</g>
	<g>
		<path d="M163.6,72.1c0-0.2,0.1-0.3,0.3-0.3h0.6c0.2,0,0.3,0.1,0.3,0.3v5c0,0.2-0.1,0.3-0.3,0.3h-0.6c-0.2,0-0.3-0.1-0.3-0.3V72.1z
			"/>
	</g>
	<g>
		<path d="M161.8,72.1c0-0.2,0.1-0.3,0.3-0.3h0.6c0.2,0,0.3,0.1,0.3,0.3v5c0,0.2-0.1,0.3-0.3,0.3h-0.6c-0.2,0-0.3-0.1-0.3-0.3V72.1z
			"/>
	</g>
	<g>
		<path d="M159.9,72.1c0-0.2,0.1-0.3,0.3-0.3h0.6c0.2,0,0.3,0.1,0.3,0.3v5c0,0.2-0.1,0.3-0.3,0.3h-0.6c-0.2,0-0.3-0.1-0.3-0.3V72.1z
			"/>
	</g>
	<g>
		<path d="M158.1,72.1c0-0.2,0.1-0.3,0.3-0.3h0.6c0.2,0,0.3,0.1,0.3,0.3v5c0,0.2-0.1,0.3-0.3,0.3h-0.6c-0.2,0-0.3-0.1-0.3-0.3V72.1z
			"/>
	</g>
	<g>
		<path d="M156.3,72.1c0-0.2,0.1-0.3,0.3-0.3h0.6c0.2,0,0.3,0.1,0.3,0.3v5c0,0.2-0.1,0.3-0.3,0.3h-0.6c-0.2,0-0.3-0.1-0.3-0.3V72.1z
			"/>
	</g>
	<g>
		<path d="M154.4,72.1c0-0.2,0.1-0.3,0.3-0.3h0.6c0.2,0,0.3,0.1,0.3,0.3v5c0,0.2-0.1,0.3-0.3,0.3h-0.6c-0.2,0-0.3-0.1-0.3-0.3V72.1z
			"/>
	</g>
	<g>
		<path d="M163.6,54.2c0-0.2,0.1-0.3,0.3-0.3h0.6c0.2,0,0.3,0.1,0.3,0.3v5c0,0.2-0.1,0.3-0.3,0.3h-0.6c-0.2,0-0.3-0.1-0.3-0.3V54.2z
			"/>
	</g>
	<g>
		<path d="M161.8,54.2c0-0.2,0.1-0.3,0.3-0.3h0.6c0.2,0,0.3,0.1,0.3,0.3v5c0,0.2-0.1,0.3-0.3,0.3h-0.6c-0.2,0-0.3-0.1-0.3-0.3V54.2z
			"/>
	</g>
	<g>
		<path d="M159.9,54.2c0-0.2,0.1-0.3,0.3-0.3h0.6c0.2,0,0.3,0.1,0.3,0.3v5c0,0.2-0.1,0.3-0.3,0.3h-0.6c-0.2,0-0.3-0.1-0.3-0.3V54.2z
			"/>
	</g>
	<g>
		<path d="M158.1,54.2c0-0.2,0.1-0.3,0.3-0.3h0.6c0.2,0,0.3,0.1,0.3,0.3v5c0,0.2-0.1,0.3-0.3,0.3h-0.6c-0.2,0-0.3-0.1-0.3-0.3V54.2z
			"/>
	</g>
	<g>
		<path d="M156.3,54.2c0-0.2,0.1-0.3,0.3-0.3h0.6c0.2,0,0.3,0.1,0.3,0.3v5c0,0.2-0.1,0.3-0.3,0.3h-0.6c-0.2,0-0.3-0.1-0.3-0.3V54.2z
			"/>
	</g>
	<g>
		<path d="M154.4,54.2c0-0.2,0.1-0.3,0.3-0.3h0.6c0.2,0,0.3,0.1,0.3,0.3v5c0,0.2-0.1,0.3-0.3,0.3h-0.6c-0.2,0-0.3-0.1-0.3-0.3V54.2z
			"/>
	</g>
	<g>
		<path d="M152.6,72.1c0-0.2,0.1-0.3,0.3-0.3h0.6c0.2,0,0.3,0.1,0.3,0.3v5c0,0.2-0.1,0.3-0.3,0.3h-0.6c-0.2,0-0.3-0.1-0.3-0.3V72.1z
			"/>
	</g>
	<g>
		<path d="M152.6,54.2c0-0.2,0.1-0.3,0.3-0.3h0.6c0.2,0,0.3,0.1,0.3,0.3v5c0,0.2-0.1,0.3-0.3,0.3h-0.6c-0.2,0-0.3-0.1-0.3-0.3V54.2z
			"/>
	</g>
	<g>
		<path d="M86.2,79.2c0-0.2-0.1-0.3-0.3-0.3h-1c-0.2,0-0.3,0.1-0.3,0.3v1.8c0,0.2,0.1,0.3,0.3,0.3h1c0.2,0,0.3-0.1,0.3-0.3V79.2z"/>
	</g>
	<g>
		<path d="M90.9,79.2c0-0.2-0.1-0.3-0.3-0.3h-1c-0.2,0-0.3,0.1-0.3,0.3v1.8c0,0.2,0.1,0.3,0.3,0.3h1c0.2,0,0.3-0.1,0.3-0.3V79.2z"/>
	</g>
	<g>
		<path d="M146.6,72.1c0-0.2,0.1-0.3,0.3-0.3h0.6c0.2,0,0.3,0.1,0.3,0.3v5c0,0.2-0.1,0.3-0.3,0.3h-0.6c-0.2,0-0.3-0.1-0.3-0.3V72.1z
			"/>
	</g>
	<g>
		<path d="M144.7,72.1c0-0.2,0.1-0.3,0.3-0.3h0.6c0.2,0,0.3,0.1,0.3,0.3v5c0,0.2-0.1,0.3-0.3,0.3H145c-0.2,0-0.3-0.1-0.3-0.3V72.1z"
			/>
	</g>
	<g>
		<path d="M142.9,72.1c0-0.2,0.1-0.3,0.3-0.3h0.6c0.2,0,0.3,0.1,0.3,0.3v5c0,0.2-0.1,0.3-0.3,0.3h-0.6c-0.2,0-0.3-0.1-0.3-0.3V72.1z
			"/>
	</g>
	<g>
		<path d="M141.1,72.1c0-0.2,0.1-0.3,0.3-0.3h0.6c0.2,0,0.3,0.1,0.3,0.3v5c0,0.2-0.1,0.3-0.3,0.3h-0.6c-0.2,0-0.3-0.1-0.3-0.3V72.1z
			"/>
	</g>
	<g>
		<path d="M139.2,72.1c0-0.2,0.1-0.3,0.3-0.3h0.6c0.2,0,0.3,0.1,0.3,0.3v5c0,0.2-0.1,0.3-0.3,0.3h-0.6c-0.2,0-0.3-0.1-0.3-0.3V72.1z
			"/>
	</g>
	<g>
		<path d="M137.4,72.1c0-0.2,0.1-0.3,0.3-0.3h0.6c0.2,0,0.3,0.1,0.3,0.3v5c0,0.2-0.1,0.3-0.3,0.3h-0.6c-0.2,0-0.3-0.1-0.3-0.3V72.1z
			"/>
	</g>
	<g>
		<path d="M146.6,54.2c0-0.2,0.1-0.3,0.3-0.3h0.6c0.2,0,0.3,0.1,0.3,0.3v5c0,0.2-0.1,0.3-0.3,0.3h-0.6c-0.2,0-0.3-0.1-0.3-0.3V54.2z
			"/>
	</g>
	<g>
		<path d="M144.7,54.2c0-0.2,0.1-0.3,0.3-0.3h0.6c0.2,0,0.3,0.1,0.3,0.3v5c0,0.2-0.1,0.3-0.3,0.3H145c-0.2,0-0.3-0.1-0.3-0.3V54.2z"
			/>
	</g>
	<g>
		<path d="M142.9,54.2c0-0.2,0.1-0.3,0.3-0.3h0.6c0.2,0,0.3,0.1,0.3,0.3v5c0,0.2-0.1,0.3-0.3,0.3h-0.6c-0.2,0-0.3-0.1-0.3-0.3V54.2z
			"/>
	</g>
	<g>
		<path d="M141.1,54.2c0-0.2,0.1-0.3,0.3-0.3h0.6c0.2,0,0.3,0.1,0.3,0.3v5c0,0.2-0.1,0.3-0.3,0.3h-0.6c-0.2,0-0.3-0.1-0.3-0.3V54.2z
			"/>
	</g>
	<g>
		<path d="M139.2,54.2c0-0.2,0.1-0.3,0.3-0.3h0.6c0.2,0,0.3,0.1,0.3,0.3v5c0,0.2-0.1,0.3-0.3,0.3h-0.6c-0.2,0-0.3-0.1-0.3-0.3V54.2z
			"/>
	</g>
	<g>
		<path d="M137.4,54.2c0-0.2,0.1-0.3,0.3-0.3h0.6c0.2,0,0.3,0.1,0.3,0.3v5c0,0.2-0.1,0.3-0.3,0.3h-0.6c-0.2,0-0.3-0.1-0.3-0.3V54.2z
			"/>
	</g>
	<g>
		<path d="M135.5,72.1c0-0.2,0.1-0.3,0.3-0.3h0.6c0.2,0,0.3,0.1,0.3,0.3v5c0,0.2-0.1,0.3-0.3,0.3h-0.6c-0.2,0-0.3-0.1-0.3-0.3V72.1z
			"/>
	</g>
	<g>
		<path d="M133.7,72.1c0-0.2,0.1-0.3,0.3-0.3h0.6c0.2,0,0.3,0.1,0.3,0.3v5c0,0.2-0.1,0.3-0.3,0.3H134c-0.2,0-0.3-0.1-0.3-0.3V72.1z"
			/>
	</g>
	<g>
		<path d="M131.8,72.1c0-0.2,0.1-0.3,0.3-0.3h0.6c0.2,0,0.3,0.1,0.3,0.3v5c0,0.2-0.1,0.3-0.3,0.3h-0.6c-0.2,0-0.3-0.1-0.3-0.3V72.1z
			"/>
	</g>
	<g>
		<path d="M130,72.1c0-0.2,0.1-0.3,0.3-0.3h0.6c0.2,0,0.3,0.1,0.3,0.3v5c0,0.2-0.1,0.3-0.3,0.3h-0.6c-0.2,0-0.3-0.1-0.3-0.3V72.1z"
			/>
	</g>
	<g>
		<path d="M135.5,54.2c0-0.2,0.1-0.3,0.3-0.3h0.6c0.2,0,0.3,0.1,0.3,0.3v5c0,0.2-0.1,0.3-0.3,0.3h-0.6c-0.2,0-0.3-0.1-0.3-0.3V54.2z
			"/>
	</g>
	<g>
		<path d="M133.7,54.2c0-0.2,0.1-0.3,0.3-0.3h0.6c0.2,0,0.3,0.1,0.3,0.3v5c0,0.2-0.1,0.3-0.3,0.3H134c-0.2,0-0.3-0.1-0.3-0.3V54.2z"
			/>
	</g>
	<g>
		<path d="M131.8,54.2c0-0.2,0.1-0.3,0.3-0.3h0.6c0.2,0,0.3,0.1,0.3,0.3v5c0,0.2-0.1,0.3-0.3,0.3h-0.6c-0.2,0-0.3-0.1-0.3-0.3V54.2z
			"/>
	</g>
	<g>
		<path d="M130,54.2c0-0.2,0.1-0.3,0.3-0.3h0.6c0.2,0,0.3,0.1,0.3,0.3v5c0,0.2-0.1,0.3-0.3,0.3h-0.6c-0.2,0-0.3-0.1-0.3-0.3V54.2z"
			/>
	</g>
	<g>
		<path d="M90.7,45.9c0.2,0,0.3-0.1,0.3-0.3v-1c0-0.2-0.1-0.3-0.3-0.3h-1.8c-0.2,0-0.3,0.1-0.3,0.3v1c0,0.2,0.1,0.3,0.3,0.3H90.7z"
			/>
	</g>
	<g>
		<path d="M90.7,50.5c0.2,0,0.3-0.1,0.3-0.3v-1c0-0.2-0.1-0.3-0.3-0.3h-1.8c-0.2,0-0.3,0.1-0.3,0.3v1c0,0.2,0.1,0.3,0.3,0.3H90.7z"
			/>
	</g>
	<g>
		<path d="M94.7,45.9c0.2,0,0.3-0.1,0.3-0.3v-1c0-0.2-0.1-0.3-0.3-0.3h-1.8c-0.2,0-0.3,0.1-0.3,0.3v1c0,0.2,0.1,0.3,0.3,0.3H94.7z"
			/>
	</g>
	<g>
		<path d="M94.7,50.5c0.2,0,0.3-0.1,0.3-0.3v-1c0-0.2-0.1-0.3-0.3-0.3h-1.8c-0.2,0-0.3,0.1-0.3,0.3v1c0,0.2,0.1,0.3,0.3,0.3H94.7z"
			/>
	</g>
	<g>
		<path d="M98.7,45.9c0.2,0,0.3-0.1,0.3-0.3v-1c0-0.2-0.1-0.3-0.3-0.3h-1.8c-0.2,0-0.3,0.1-0.3,0.3v1c0,0.2,0.1,0.3,0.3,0.3H98.7z"
			/>
	</g>
	<g>
		<path d="M98.7,50.5c0.2,0,0.3-0.1,0.3-0.3v-1c0-0.2-0.1-0.3-0.3-0.3h-1.8c-0.2,0-0.3,0.1-0.3,0.3v1c0,0.2,0.1,0.3,0.3,0.3H98.7z"
			/>
	</g>
	<g>
		<path d="M102.7,45.9c0.2,0,0.3-0.1,0.3-0.3v-1c0-0.2-0.1-0.3-0.3-0.3h-1.8c-0.2,0-0.3,0.1-0.3,0.3v1c0,0.2,0.1,0.3,0.3,0.3H102.7z
			"/>
	</g>
	<g>
		<path d="M102.7,50.5c0.2,0,0.3-0.1,0.3-0.3v-1c0-0.2-0.1-0.3-0.3-0.3h-1.8c-0.2,0-0.3,0.1-0.3,0.3v1c0,0.2,0.1,0.3,0.3,0.3H102.7z
			"/>
	</g>
	<g>
		<path d="M106.7,45.9c0.2,0,0.3-0.1,0.3-0.3v-1c0-0.2-0.1-0.3-0.3-0.3h-1.8c-0.2,0-0.3,0.1-0.3,0.3v1c0,0.2,0.1,0.3,0.3,0.3H106.7z
			"/>
	</g>
	<g>
		<path d="M106.7,50.5c0.2,0,0.3-0.1,0.3-0.3v-1c0-0.2-0.1-0.3-0.3-0.3h-1.8c-0.2,0-0.3,0.1-0.3,0.3v1c0,0.2,0.1,0.3,0.3,0.3H106.7z
			"/>
	</g>
	<g>
		<path d="M110.7,45.9c0.2,0,0.3-0.1,0.3-0.3v-1c0-0.2-0.1-0.3-0.3-0.3h-1.8c-0.2,0-0.3,0.1-0.3,0.3v1c0,0.2,0.1,0.3,0.3,0.3H110.7z
			"/>
	</g>
	<g>
		<path d="M110.7,50.5c0.2,0,0.3-0.1,0.3-0.3v-1c0-0.2-0.1-0.3-0.3-0.3h-1.8c-0.2,0-0.3,0.1-0.3,0.3v1c0,0.2,0.1,0.3,0.3,0.3H110.7z
			"/>
	</g>
	<g>
		<path d="M114.7,45.9c0.2,0,0.3-0.1,0.3-0.3v-1c0-0.2-0.1-0.3-0.3-0.3h-1.8c-0.2,0-0.3,0.1-0.3,0.3v1c0,0.2,0.1,0.3,0.3,0.3H114.7z
			"/>
	</g>
	<g>
		<path d="M114.7,50.5c0.2,0,0.3-0.1,0.3-0.3v-1c0-0.2-0.1-0.3-0.3-0.3h-1.8c-0.2,0-0.3,0.1-0.3,0.3v1c0,0.2,0.1,0.3,0.3,0.3H114.7z
			"/>
	</g>
	<g>
		<path d="M127.8,45.8c0.2,0,0.3-0.1,0.3-0.3v-1c0-0.2-0.1-0.3-0.3-0.3H126c-0.2,0-0.3,0.1-0.3,0.3v1c0,0.2,0.1,0.3,0.3,0.3H127.8z"
			/>
	</g>
	<g>
		<path d="M127.8,50.5c0.2,0,0.3-0.1,0.3-0.3v-1c0-0.2-0.1-0.3-0.3-0.3H126c-0.2,0-0.3,0.1-0.3,0.3v1c0,0.2,0.1,0.3,0.3,0.3H127.8z"
			/>
	</g>
	<g>
		<path d="M131.8,45.8c0.2,0,0.3-0.1,0.3-0.3v-1c0-0.2-0.1-0.3-0.3-0.3H130c-0.2,0-0.3,0.1-0.3,0.3v1c0,0.2,0.1,0.3,0.3,0.3H131.8z"
			/>
	</g>
	<g>
		<path d="M131.8,50.5c0.2,0,0.3-0.1,0.3-0.3v-1c0-0.2-0.1-0.3-0.3-0.3H130c-0.2,0-0.3,0.1-0.3,0.3v1c0,0.2,0.1,0.3,0.3,0.3H131.8z"
			/>
	</g>
	<g>
		<path d="M135.8,45.8c0.2,0,0.3-0.1,0.3-0.3v-1c0-0.2-0.1-0.3-0.3-0.3H134c-0.2,0-0.3,0.1-0.3,0.3v1c0,0.2,0.1,0.3,0.3,0.3H135.8z"
			/>
	</g>
	<g>
		<path d="M135.8,50.5c0.2,0,0.3-0.1,0.3-0.3v-1c0-0.2-0.1-0.3-0.3-0.3H134c-0.2,0-0.3,0.1-0.3,0.3v1c0,0.2,0.1,0.3,0.3,0.3H135.8z"
			/>
	</g>
	<g>
		<path d="M139.8,45.8c0.2,0,0.3-0.1,0.3-0.3v-1c0-0.2-0.1-0.3-0.3-0.3H138c-0.2,0-0.3,0.1-0.3,0.3v1c0,0.2,0.1,0.3,0.3,0.3H139.8z"
			/>
	</g>
	<g>
		<path d="M139.8,50.5c0.2,0,0.3-0.1,0.3-0.3v-1c0-0.2-0.1-0.3-0.3-0.3H138c-0.2,0-0.3,0.1-0.3,0.3v1c0,0.2,0.1,0.3,0.3,0.3H139.8z"
			/>
	</g>
	<g>
		<path d="M143.8,45.8c0.2,0,0.3-0.1,0.3-0.3v-1c0-0.2-0.1-0.3-0.3-0.3H142c-0.2,0-0.3,0.1-0.3,0.3v1c0,0.2,0.1,0.3,0.3,0.3H143.8z"
			/>
	</g>
	<g>
		<path d="M143.8,50.5c0.2,0,0.3-0.1,0.3-0.3v-1c0-0.2-0.1-0.3-0.3-0.3H142c-0.2,0-0.3,0.1-0.3,0.3v1c0,0.2,0.1,0.3,0.3,0.3H143.8z"
			/>
	</g>
	<g>
		<path d="M147.8,45.8c0.2,0,0.3-0.1,0.3-0.3v-1c0-0.2-0.1-0.3-0.3-0.3H146c-0.2,0-0.3,0.1-0.3,0.3v1c0,0.2,0.1,0.3,0.3,0.3H147.8z"
			/>
	</g>
	<g>
		<path d="M147.8,50.5c0.2,0,0.3-0.1,0.3-0.3v-1c0-0.2-0.1-0.3-0.3-0.3H146c-0.2,0-0.3,0.1-0.3,0.3v1c0,0.2,0.1,0.3,0.3,0.3H147.8z"
			/>
	</g>
	<g>
		<path d="M151.8,45.8c0.2,0,0.3-0.1,0.3-0.3v-1c0-0.2-0.1-0.3-0.3-0.3H150c-0.2,0-0.3,0.1-0.3,0.3v1c0,0.2,0.1,0.3,0.3,0.3H151.8z"
			/>
	</g>
	<g>
		<path d="M151.8,50.5c0.2,0,0.3-0.1,0.3-0.3v-1c0-0.2-0.1-0.3-0.3-0.3H150c-0.2,0-0.3,0.1-0.3,0.3v1c0,0.2,0.1,0.3,0.3,0.3H151.8z"
			/>
	</g>
	<g>
		<path d="M155.8,45.8c0.2,0,0.3-0.1,0.3-0.3v-1c0-0.2-0.1-0.3-0.3-0.3H154c-0.2,0-0.3,0.1-0.3,0.3v1c0,0.2,0.1,0.3,0.3,0.3H155.8z"
			/>
	</g>
	<g>
		<path d="M155.8,50.5c0.2,0,0.3-0.1,0.3-0.3v-1c0-0.2-0.1-0.3-0.3-0.3H154c-0.2,0-0.3,0.1-0.3,0.3v1c0,0.2,0.1,0.3,0.3,0.3H155.8z"
			/>
	</g>
	<g>
		<path d="M159.8,45.8c0.2,0,0.3-0.1,0.3-0.3v-1c0-0.2-0.1-0.3-0.3-0.3H158c-0.2,0-0.3,0.1-0.3,0.3v1c0,0.2,0.1,0.3,0.3,0.3H159.8z"
			/>
	</g>
	<g>
		<path d="M159.8,50.5c0.2,0,0.3-0.1,0.3-0.3v-1c0-0.2-0.1-0.3-0.3-0.3H158c-0.2,0-0.3,0.1-0.3,0.3v1c0,0.2,0.1,0.3,0.3,0.3H159.8z"
			/>
	</g>
	<g>
		<path d="M163.8,45.8c0.2,0,0.3-0.1,0.3-0.3v-1c0-0.2-0.1-0.3-0.3-0.3H162c-0.2,0-0.3,0.1-0.3,0.3v1c0,0.2,0.1,0.3,0.3,0.3H163.8z"
			/>
	</g>
	<g>
		<path d="M163.8,50.5c0.2,0,0.3-0.1,0.3-0.3v-1c0-0.2-0.1-0.3-0.3-0.3H162c-0.2,0-0.3,0.1-0.3,0.3v1c0,0.2,0.1,0.3,0.3,0.3H163.8z"
			/>
	</g>
	<g>
		<path d="M163.4,83.4c-0.2,0-0.3,0.1-0.3,0.3v1c0,0.2,0.1,0.3,0.3,0.3h1.8c0.2,0,0.3-0.1,0.3-0.3v-1c0-0.2-0.1-0.3-0.3-0.3H163.4z"
			/>
	</g>
	<g>
		<path d="M163.4,78.8c-0.2,0-0.3,0.1-0.3,0.3v1c0,0.2,0.1,0.3,0.3,0.3h1.8c0.2,0,0.3-0.1,0.3-0.3v-1c0-0.2-0.1-0.3-0.3-0.3H163.4z"
			/>
	</g>
	<g>
		<path d="M146.6,142c0-0.2,0.1-0.3,0.3-0.3h0.6c0.2,0,0.3,0.1,0.3,0.3v5c0,0.2-0.1,0.3-0.3,0.3h-0.6c-0.2,0-0.3-0.1-0.3-0.3V142z"
			/>
	</g>
	<g>
		<path d="M144.7,142c0-0.2,0.1-0.3,0.3-0.3h0.6c0.2,0,0.3,0.1,0.3,0.3v5c0,0.2-0.1,0.3-0.3,0.3H145c-0.2,0-0.3-0.1-0.3-0.3V142z"/>
	</g>
	<g>
		<path d="M142.9,142c0-0.2,0.1-0.3,0.3-0.3h0.6c0.2,0,0.3,0.1,0.3,0.3v5c0,0.2-0.1,0.3-0.3,0.3h-0.6c-0.2,0-0.3-0.1-0.3-0.3V142z"
			/>
	</g>
	<g>
		<path d="M141.1,142c0-0.2,0.1-0.3,0.3-0.3h0.6c0.2,0,0.3,0.1,0.3,0.3v5c0,0.2-0.1,0.3-0.3,0.3h-0.6c-0.2,0-0.3-0.1-0.3-0.3V142z"
			/>
	</g>
	<g>
		<path d="M139.2,142c0-0.2,0.1-0.3,0.3-0.3h0.6c0.2,0,0.3,0.1,0.3,0.3v5c0,0.2-0.1,0.3-0.3,0.3h-0.6c-0.2,0-0.3-0.1-0.3-0.3V142z"
			/>
	</g>
	<g>
		<path d="M137.4,142c0-0.2,0.1-0.3,0.3-0.3h0.6c0.2,0,0.3,0.1,0.3,0.3v5c0,0.2-0.1,0.3-0.3,0.3h-0.6c-0.2,0-0.3-0.1-0.3-0.3V142z"
			/>
	</g>
	<g>
		<path d="M146.6,124.2c0-0.2,0.1-0.3,0.3-0.3h0.6c0.2,0,0.3,0.1,0.3,0.3v5c0,0.2-0.1,0.3-0.3,0.3h-0.6c-0.2,0-0.3-0.1-0.3-0.3
			V124.2z"/>
	</g>
	<g>
		<path d="M144.7,124.2c0-0.2,0.1-0.3,0.3-0.3h0.6c0.2,0,0.3,0.1,0.3,0.3v5c0,0.2-0.1,0.3-0.3,0.3H145c-0.2,0-0.3-0.1-0.3-0.3V124.2
			z"/>
	</g>
	<g>
		<path d="M142.9,124.2c0-0.2,0.1-0.3,0.3-0.3h0.6c0.2,0,0.3,0.1,0.3,0.3v5c0,0.2-0.1,0.3-0.3,0.3h-0.6c-0.2,0-0.3-0.1-0.3-0.3
			V124.2z"/>
	</g>
	<g>
		<path d="M141.1,124.2c0-0.2,0.1-0.3,0.3-0.3h0.6c0.2,0,0.3,0.1,0.3,0.3v5c0,0.2-0.1,0.3-0.3,0.3h-0.6c-0.2,0-0.3-0.1-0.3-0.3
			V124.2z"/>
	</g>
	<g>
		<path d="M139.2,124.2c0-0.2,0.1-0.3,0.3-0.3h0.6c0.2,0,0.3,0.1,0.3,0.3v5c0,0.2-0.1,0.3-0.3,0.3h-0.6c-0.2,0-0.3-0.1-0.3-0.3
			V124.2z"/>
	</g>
	<g>
		<path d="M137.4,124.2c0-0.2,0.1-0.3,0.3-0.3h0.6c0.2,0,0.3,0.1,0.3,0.3v5c0,0.2-0.1,0.3-0.3,0.3h-0.6c-0.2,0-0.3-0.1-0.3-0.3
			V124.2z"/>
	</g>
	<g>
		<path d="M135.5,142c0-0.2,0.1-0.3,0.3-0.3h0.6c0.2,0,0.3,0.1,0.3,0.3v5c0,0.2-0.1,0.3-0.3,0.3h-0.6c-0.2,0-0.3-0.1-0.3-0.3V142z"
			/>
	</g>
	<g>
		<path d="M135.5,124.2c0-0.2,0.1-0.3,0.3-0.3h0.6c0.2,0,0.3,0.1,0.3,0.3v5c0,0.2-0.1,0.3-0.3,0.3h-0.6c-0.2,0-0.3-0.1-0.3-0.3
			V124.2z"/>
	</g>
	<g>
		<path d="M158.1,180.9c0-0.2,0.1-0.3,0.3-0.3h0.6c0.2,0,0.3,0.1,0.3,0.3v5c0,0.2-0.1,0.3-0.3,0.3h-0.6c-0.2,0-0.3-0.1-0.3-0.3
			V180.9z"/>
	</g>
	<g>
		<path d="M156.3,180.9c0-0.2,0.1-0.3,0.3-0.3h0.6c0.2,0,0.3,0.1,0.3,0.3v5c0,0.2-0.1,0.3-0.3,0.3h-0.6c-0.2,0-0.3-0.1-0.3-0.3
			V180.9z"/>
	</g>
	<g>
		<path d="M154.4,180.9c0-0.2,0.1-0.3,0.3-0.3h0.6c0.2,0,0.3,0.1,0.3,0.3v5c0,0.2-0.1,0.3-0.3,0.3h-0.6c-0.2,0-0.3-0.1-0.3-0.3
			V180.9z"/>
	</g>
	<g>
		<path d="M152.6,180.9c0-0.2,0.1-0.3,0.3-0.3h0.6c0.2,0,0.3,0.1,0.3,0.3v5c0,0.2-0.1,0.3-0.3,0.3h-0.6c-0.2,0-0.3-0.1-0.3-0.3
			V180.9z"/>
	</g>
	<g>
		<path d="M150.8,180.9c0-0.2,0.1-0.3,0.3-0.3h0.6c0.2,0,0.3,0.1,0.3,0.3v5c0,0.2-0.1,0.3-0.3,0.3H151c-0.2,0-0.3-0.1-0.3-0.3V180.9
			z"/>
	</g>
	<g>
		<path d="M148.9,180.9c0-0.2,0.1-0.3,0.3-0.3h0.6c0.2,0,0.3,0.1,0.3,0.3v5c0,0.2-0.1,0.3-0.3,0.3h-0.6c-0.2,0-0.3-0.1-0.3-0.3
			V180.9z"/>
	</g>
	<g>
		<path d="M158.1,163.1c0-0.2,0.1-0.3,0.3-0.3h0.6c0.2,0,0.3,0.1,0.3,0.3v5c0,0.2-0.1,0.3-0.3,0.3h-0.6c-0.2,0-0.3-0.1-0.3-0.3
			V163.1z"/>
	</g>
	<g>
		<path d="M156.3,163.1c0-0.2,0.1-0.3,0.3-0.3h0.6c0.2,0,0.3,0.1,0.3,0.3v5c0,0.2-0.1,0.3-0.3,0.3h-0.6c-0.2,0-0.3-0.1-0.3-0.3
			V163.1z"/>
	</g>
	<g>
		<path d="M154.4,163.1c0-0.2,0.1-0.3,0.3-0.3h0.6c0.2,0,0.3,0.1,0.3,0.3v5c0,0.2-0.1,0.3-0.3,0.3h-0.6c-0.2,0-0.3-0.1-0.3-0.3
			V163.1z"/>
	</g>
	<g>
		<path d="M152.6,163.1c0-0.2,0.1-0.3,0.3-0.3h0.6c0.2,0,0.3,0.1,0.3,0.3v5c0,0.2-0.1,0.3-0.3,0.3h-0.6c-0.2,0-0.3-0.1-0.3-0.3
			V163.1z"/>
	</g>
	<g>
		<path d="M150.8,163.1c0-0.2,0.1-0.3,0.3-0.3h0.6c0.2,0,0.3,0.1,0.3,0.3v5c0,0.2-0.1,0.3-0.3,0.3H151c-0.2,0-0.3-0.1-0.3-0.3V163.1
			z"/>
	</g>
	<g>
		<path d="M148.9,163.1c0-0.2,0.1-0.3,0.3-0.3h0.6c0.2,0,0.3,0.1,0.3,0.3v5c0,0.2-0.1,0.3-0.3,0.3h-0.6c-0.2,0-0.3-0.1-0.3-0.3
			V163.1z"/>
	</g>
	<g>
		<path d="M147.1,180.9c0-0.2,0.1-0.3,0.3-0.3h0.6c0.2,0,0.3,0.1,0.3,0.3v5c0,0.2-0.1,0.3-0.3,0.3h-0.6c-0.2,0-0.3-0.1-0.3-0.3
			V180.9z"/>
	</g>
	<g>
		<path d="M145.2,180.9c0-0.2,0.1-0.3,0.3-0.3h0.6c0.2,0,0.3,0.1,0.3,0.3v5c0,0.2-0.1,0.3-0.3,0.3h-0.6c-0.2,0-0.3-0.1-0.3-0.3
			V180.9z"/>
	</g>
	<g>
		<path d="M143.4,180.9c0-0.2,0.1-0.3,0.3-0.3h0.6c0.2,0,0.3,0.1,0.3,0.3v5c0,0.2-0.1,0.3-0.3,0.3h-0.6c-0.2,0-0.3-0.1-0.3-0.3
			V180.9z"/>
	</g>
	<g>
		<path d="M141.6,180.9c0-0.2,0.1-0.3,0.3-0.3h0.6c0.2,0,0.3,0.1,0.3,0.3v5c0,0.2-0.1,0.3-0.3,0.3h-0.6c-0.2,0-0.3-0.1-0.3-0.3
			V180.9z"/>
	</g>
	<g>
		<path d="M147.1,163.1c0-0.2,0.1-0.3,0.3-0.3h0.6c0.2,0,0.3,0.1,0.3,0.3v5c0,0.2-0.1,0.3-0.3,0.3h-0.6c-0.2,0-0.3-0.1-0.3-0.3
			V163.1z"/>
	</g>
	<g>
		<path d="M145.2,163.1c0-0.2,0.1-0.3,0.3-0.3h0.6c0.2,0,0.3,0.1,0.3,0.3v5c0,0.2-0.1,0.3-0.3,0.3h-0.6c-0.2,0-0.3-0.1-0.3-0.3
			V163.1z"/>
	</g>
	<g>
		<path d="M143.4,163.1c0-0.2,0.1-0.3,0.3-0.3h0.6c0.2,0,0.3,0.1,0.3,0.3v5c0,0.2-0.1,0.3-0.3,0.3h-0.6c-0.2,0-0.3-0.1-0.3-0.3
			V163.1z"/>
	</g>
	<g>
		<path d="M141.6,163.1c0-0.2,0.1-0.3,0.3-0.3h0.6c0.2,0,0.3,0.1,0.3,0.3v5c0,0.2-0.1,0.3-0.3,0.3h-0.6c-0.2,0-0.3-0.1-0.3-0.3
			V163.1z"/>
	</g>
	<g>
		<path d="M158.6,80.3c0.2,0,0.3-0.1,0.3-0.3v-1c0-0.2-0.1-0.3-0.3-0.3h-1.8c-0.2,0-0.3,0.1-0.3,0.3v1c0,0.2,0.1,0.3,0.3,0.3H158.6z
			"/>
	</g>
	<g>
		<path d="M158.6,85c0.2,0,0.3-0.1,0.3-0.3v-1c0-0.2-0.1-0.3-0.3-0.3h-1.8c-0.2,0-0.3,0.1-0.3,0.3v1c0,0.2,0.1,0.3,0.3,0.3H158.6z"
			/>
	</g>
	<g>
		<path d="M118.3,105.3c0.2,0,0.3,0.1,0.3,0.3v2.6c0,0.2-0.1,0.3-0.3,0.3h-2c-0.2,0-0.3-0.1-0.3-0.3v-2.6c0-0.2,0.1-0.3,0.3-0.3
			H118.3z"/>
	</g>
	<g>
		<path d="M116.3,89.1c-0.2,0-0.3,0.1-0.3,0.3v2.6c0,0.2,0.1,0.3,0.3,0.3h2c0.2,0,0.3-0.1,0.3-0.3v-2.6c0-0.2-0.1-0.3-0.3-0.3H116.3
			z"/>
	</g>
	<g>
		<path d="M128.8,108.4c0.2,0,0.3-0.1,0.3-0.3v-2.6c0-0.2-0.1-0.3-0.3-0.3h-2c-0.2,0-0.3,0.1-0.3,0.3v2.6c0,0.2,0.1,0.3,0.3,0.3
			H128.8z"/>
	</g>
	<g>
		<path d="M128.8,89.1c0.2,0,0.3,0.1,0.3,0.3v2.6c0,0.2-0.1,0.3-0.3,0.3h-2c-0.2,0-0.3-0.1-0.3-0.3v-2.6c0-0.2,0.1-0.3,0.3-0.3
			H128.8z"/>
	</g>
	<g>
		<path d="M163.6,142c0-0.2,0.1-0.3,0.3-0.3h0.6c0.2,0,0.3,0.1,0.3,0.3v5c0,0.2-0.1,0.3-0.3,0.3h-0.6c-0.2,0-0.3-0.1-0.3-0.3V142z"
			/>
	</g>
	<g>
		<path d="M161.8,142c0-0.2,0.1-0.3,0.3-0.3h0.6c0.2,0,0.3,0.1,0.3,0.3v5c0,0.2-0.1,0.3-0.3,0.3h-0.6c-0.2,0-0.3-0.1-0.3-0.3V142z"
			/>
	</g>
	<g>
		<path d="M159.9,142c0-0.2,0.1-0.3,0.3-0.3h0.6c0.2,0,0.3,0.1,0.3,0.3v5c0,0.2-0.1,0.3-0.3,0.3h-0.6c-0.2,0-0.3-0.1-0.3-0.3V142z"
			/>
	</g>
	<g>
		<path d="M158.1,142c0-0.2,0.1-0.3,0.3-0.3h0.6c0.2,0,0.3,0.1,0.3,0.3v5c0,0.2-0.1,0.3-0.3,0.3h-0.6c-0.2,0-0.3-0.1-0.3-0.3V142z"
			/>
	</g>
	<g>
		<path d="M156.3,142c0-0.2,0.1-0.3,0.3-0.3h0.6c0.2,0,0.3,0.1,0.3,0.3v5c0,0.2-0.1,0.3-0.3,0.3h-0.6c-0.2,0-0.3-0.1-0.3-0.3V142z"
			/>
	</g>
	<g>
		<path d="M154.4,142c0-0.2,0.1-0.3,0.3-0.3h0.6c0.2,0,0.3,0.1,0.3,0.3v5c0,0.2-0.1,0.3-0.3,0.3h-0.6c-0.2,0-0.3-0.1-0.3-0.3V142z"
			/>
	</g>
	<g>
		<path d="M163.6,124.2c0-0.2,0.1-0.3,0.3-0.3h0.6c0.2,0,0.3,0.1,0.3,0.3v5c0,0.2-0.1,0.3-0.3,0.3h-0.6c-0.2,0-0.3-0.1-0.3-0.3
			V124.2z"/>
	</g>
	<g>
		<path d="M161.8,124.2c0-0.2,0.1-0.3,0.3-0.3h0.6c0.2,0,0.3,0.1,0.3,0.3v5c0,0.2-0.1,0.3-0.3,0.3h-0.6c-0.2,0-0.3-0.1-0.3-0.3
			V124.2z"/>
	</g>
	<g>
		<path d="M159.9,124.2c0-0.2,0.1-0.3,0.3-0.3h0.6c0.2,0,0.3,0.1,0.3,0.3v5c0,0.2-0.1,0.3-0.3,0.3h-0.6c-0.2,0-0.3-0.1-0.3-0.3
			V124.2z"/>
	</g>
	<g>
		<path d="M158.1,124.2c0-0.2,0.1-0.3,0.3-0.3h0.6c0.2,0,0.3,0.1,0.3,0.3v5c0,0.2-0.1,0.3-0.3,0.3h-0.6c-0.2,0-0.3-0.1-0.3-0.3
			V124.2z"/>
	</g>
	<g>
		<path d="M156.3,124.2c0-0.2,0.1-0.3,0.3-0.3h0.6c0.2,0,0.3,0.1,0.3,0.3v5c0,0.2-0.1,0.3-0.3,0.3h-0.6c-0.2,0-0.3-0.1-0.3-0.3
			V124.2z"/>
	</g>
	<g>
		<path d="M154.4,124.2c0-0.2,0.1-0.3,0.3-0.3h0.6c0.2,0,0.3,0.1,0.3,0.3v5c0,0.2-0.1,0.3-0.3,0.3h-0.6c-0.2,0-0.3-0.1-0.3-0.3
			V124.2z"/>
	</g>
	<g>
		<path d="M152.6,142c0-0.2,0.1-0.3,0.3-0.3h0.6c0.2,0,0.3,0.1,0.3,0.3v5c0,0.2-0.1,0.3-0.3,0.3h-0.6c-0.2,0-0.3-0.1-0.3-0.3V142z"
			/>
	</g>
	<g>
		<path d="M152.6,124.2c0-0.2,0.1-0.3,0.3-0.3h0.6c0.2,0,0.3,0.1,0.3,0.3v5c0,0.2-0.1,0.3-0.3,0.3h-0.6c-0.2,0-0.3-0.1-0.3-0.3
			V124.2z"/>
	</g>
	<g>
		<path d="M143.8,158.7c0-0.2-0.1-0.3-0.3-0.3h-1c-0.2,0-0.3,0.1-0.3,0.3v1.8c0,0.2,0.1,0.3,0.3,0.3h1c0.2,0,0.3-0.1,0.3-0.3V158.7z
			"/>
	</g>
	<g>
		<path d="M148.5,158.7c0-0.2-0.1-0.3-0.3-0.3h-1c-0.2,0-0.3,0.1-0.3,0.3v1.8c0,0.2,0.1,0.3,0.3,0.3h1c0.2,0,0.3-0.1,0.3-0.3V158.7z
			"/>
	</g>
	<g>
		<path d="M136.6,185c-0.2,0-0.3,0.1-0.3,0.3v1c0,0.2,0.1,0.3,0.3,0.3h1.8c0.2,0,0.3-0.1,0.3-0.3v-1c0-0.2-0.1-0.3-0.3-0.3H136.6z"
			/>
	</g>
	<g>
		<path d="M136.6,180.4c-0.2,0-0.3,0.1-0.3,0.3v1c0,0.2,0.1,0.3,0.3,0.3h1.8c0.2,0,0.3-0.1,0.3-0.3v-1c0-0.2-0.1-0.3-0.3-0.3H136.6z
			"/>
	</g>
	<g>
		<path d="M136.6,164c-0.2,0-0.3,0.1-0.3,0.3v1c0,0.2,0.1,0.3,0.3,0.3h1.8c0.2,0,0.3-0.1,0.3-0.3v-1c0-0.2-0.1-0.3-0.3-0.3H136.6z"
			/>
	</g>
	<g>
		<path d="M136.6,159.3c-0.2,0-0.3,0.1-0.3,0.3v1c0,0.2,0.1,0.3,0.3,0.3h1.8c0.2,0,0.3-0.1,0.3-0.3v-1c0-0.2-0.1-0.3-0.3-0.3H136.6z
			"/>
	</g>
	<g>
		<path d="M143.3,149.6c0-0.2-0.1-0.3-0.3-0.3h-1c-0.2,0-0.3,0.1-0.3,0.3v1.8c0,0.2,0.1,0.3,0.3,0.3h1c0.2,0,0.3-0.1,0.3-0.3V149.6z
			"/>
	</g>
	<g>
		<path d="M148,149.6c0-0.2-0.1-0.3-0.3-0.3h-1c-0.2,0-0.3,0.1-0.3,0.3v1.8c0,0.2,0.1,0.3,0.3,0.3h1c0.2,0,0.3-0.1,0.3-0.3V149.6z"
			/>
	</g>
	<g>
		<path d="M136.6,185c-0.2,0-0.3,0.1-0.3,0.3v1c0,0.2,0.1,0.3,0.3,0.3h1.8c0.2,0,0.3-0.1,0.3-0.3v-1c0-0.2-0.1-0.3-0.3-0.3H136.6z"
			/>
	</g>
	<g>
		<path d="M136.6,180.4c-0.2,0-0.3,0.1-0.3,0.3v1c0,0.2,0.1,0.3,0.3,0.3h1.8c0.2,0,0.3-0.1,0.3-0.3v-1c0-0.2-0.1-0.3-0.3-0.3H136.6z
			"/>
	</g>
	<g>
		<path d="M136.6,171.6c-0.2,0-0.3,0.1-0.3,0.3v1c0,0.2,0.1,0.3,0.3,0.3h1.8c0.2,0,0.3-0.1,0.3-0.3v-1c0-0.2-0.1-0.3-0.3-0.3H136.6z
			"/>
	</g>
	<g>
		<path d="M136.6,167c-0.2,0-0.3,0.1-0.3,0.3v1c0,0.2,0.1,0.3,0.3,0.3h1.8c0.2,0,0.3-0.1,0.3-0.3v-1c0-0.2-0.1-0.3-0.3-0.3H136.6z"
			/>
	</g>
	<g>
		<path d="M122.8,79.2c0-0.2-0.1-0.3-0.3-0.3h-1c-0.2,0-0.3,0.1-0.3,0.3v1.8c0,0.2,0.1,0.3,0.3,0.3h1c0.2,0,0.3-0.1,0.3-0.3V79.2z"
			/>
	</g>
	<g>
		<path d="M127.4,79.2c0-0.2-0.1-0.3-0.3-0.3h-1c-0.2,0-0.3,0.1-0.3,0.3v1.8c0,0.2,0.1,0.3,0.3,0.3h1c0.2,0,0.3-0.1,0.3-0.3V79.2z"
			/>
	</g>
	<g>
		<path d="M139.6,79.2c0-0.2-0.1-0.3-0.3-0.3h-1c-0.2,0-0.3,0.1-0.3,0.3v1.8c0,0.2,0.1,0.3,0.3,0.3h1c0.2,0,0.3-0.1,0.3-0.3V79.2z"
			/>
	</g>
	<g>
		<path d="M144.3,79.2c0-0.2-0.1-0.3-0.3-0.3h-1c-0.2,0-0.3,0.1-0.3,0.3v1.8c0,0.2,0.1,0.3,0.3,0.3h1c0.2,0,0.3-0.1,0.3-0.3V79.2z"
			/>
	</g>
	<g>
		<path d="M94.5,79.2c0-0.2-0.1-0.3-0.3-0.3h-1c-0.2,0-0.3,0.1-0.3,0.3v1.8c0,0.2,0.1,0.3,0.3,0.3h1c0.2,0,0.3-0.1,0.3-0.3V79.2z"/>
	</g>
	<g>
		<path d="M99.1,79.2c0-0.2-0.1-0.3-0.3-0.3h-1c-0.2,0-0.3,0.1-0.3,0.3v1.8c0,0.2,0.1,0.3,0.3,0.3h1c0.2,0,0.3-0.1,0.3-0.3V79.2z"/>
	</g>
	<g>
		<path d="M131.2,79.2c0-0.2-0.1-0.3-0.3-0.3h-1c-0.2,0-0.3,0.1-0.3,0.3v1.8c0,0.2,0.1,0.3,0.3,0.3h1c0.2,0,0.3-0.1,0.3-0.3V79.2z"
			/>
	</g>
	<g>
		<path d="M135.8,79.2c0-0.2-0.1-0.3-0.3-0.3h-1c-0.2,0-0.3,0.1-0.3,0.3v1.8c0,0.2,0.1,0.3,0.3,0.3h1c0.2,0,0.3-0.1,0.3-0.3V79.2z"
			/>
	</g>
	<g>
		<path d="M160.4,119.8c0-0.2-0.1-0.3-0.3-0.3h-1c-0.2,0-0.3,0.1-0.3,0.3v1.8c0,0.2,0.1,0.3,0.3,0.3h1c0.2,0,0.3-0.1,0.3-0.3V119.8z
			"/>
	</g>
	<g>
		<path d="M165,119.8c0-0.2-0.1-0.3-0.3-0.3h-1c-0.2,0-0.3,0.1-0.3,0.3v1.8c0,0.2,0.1,0.3,0.3,0.3h1c0.2,0,0.3-0.1,0.3-0.3V119.8z"
			/>
	</g>
	<g>
		<path d="M152.8,119.8c0-0.2-0.1-0.3-0.3-0.3h-1c-0.2,0-0.3,0.1-0.3,0.3v1.8c0,0.2,0.1,0.3,0.3,0.3h1c0.2,0,0.3-0.1,0.3-0.3V119.8z
			"/>
	</g>
	<g>
		<path d="M157.4,119.8c0-0.2-0.1-0.3-0.3-0.3h-1c-0.2,0-0.3,0.1-0.3,0.3v1.8c0,0.2,0.1,0.3,0.3,0.3h1c0.2,0,0.3-0.1,0.3-0.3V119.8z
			"/>
	</g>
	<g>
		<path d="M143.3,119.8c0-0.2-0.1-0.3-0.3-0.3h-1c-0.2,0-0.3,0.1-0.3,0.3v1.8c0,0.2,0.1,0.3,0.3,0.3h1c0.2,0,0.3-0.1,0.3-0.3V119.8z
			"/>
	</g>
	<g>
		<path d="M148,119.8c0-0.2-0.1-0.3-0.3-0.3h-1c-0.2,0-0.3,0.1-0.3,0.3v1.8c0,0.2,0.1,0.3,0.3,0.3h1c0.2,0,0.3-0.1,0.3-0.3V119.8z"
			/>
	</g>
	<g>
		<path d="M135.7,119.8c0-0.2-0.1-0.3-0.3-0.3h-1c-0.2,0-0.3,0.1-0.3,0.3v1.8c0,0.2,0.1,0.3,0.3,0.3h1c0.2,0,0.3-0.1,0.3-0.3V119.8z
			"/>
	</g>
	<g>
		<path d="M140.3,119.8c0-0.2-0.1-0.3-0.3-0.3h-1c-0.2,0-0.3,0.1-0.3,0.3v1.8c0,0.2,0.1,0.3,0.3,0.3h1c0.2,0,0.3-0.1,0.3-0.3V119.8z
			"/>
	</g>
	<g>
		<path d="M160.4,149.6c0-0.2-0.1-0.3-0.3-0.3h-1c-0.2,0-0.3,0.1-0.3,0.3v1.8c0,0.2,0.1,0.3,0.3,0.3h1c0.2,0,0.3-0.1,0.3-0.3V149.6z
			"/>
	</g>
	<g>
		<path d="M165,149.6c0-0.2-0.1-0.3-0.3-0.3h-1c-0.2,0-0.3,0.1-0.3,0.3v1.8c0,0.2,0.1,0.3,0.3,0.3h1c0.2,0,0.3-0.1,0.3-0.3V149.6z"
			/>
	</g>
	<g>
		<path d="M160.4,153.6c0-0.2-0.1-0.3-0.3-0.3h-1c-0.2,0-0.3,0.1-0.3,0.3v1.8c0,0.2,0.1,0.3,0.3,0.3h1c0.2,0,0.3-0.1,0.3-0.3V153.6z
			"/>
	</g>
	<g>
		<path d="M165,153.6c0-0.2-0.1-0.3-0.3-0.3h-1c-0.2,0-0.3,0.1-0.3,0.3v1.8c0,0.2,0.1,0.3,0.3,0.3h1c0.2,0,0.3-0.1,0.3-0.3V153.6z"
			/>
	</g>
	<g>
		<path d="M151.8,149.6c0-0.2-0.1-0.3-0.3-0.3h-1c-0.2,0-0.3,0.1-0.3,0.3v1.8c0,0.2,0.1,0.3,0.3,0.3h1c0.2,0,0.3-0.1,0.3-0.3V149.6z
			"/>
	</g>
	<g>
		<path d="M156.4,149.6c0-0.2-0.1-0.3-0.3-0.3h-1c-0.2,0-0.3,0.1-0.3,0.3v1.8c0,0.2,0.1,0.3,0.3,0.3h1c0.2,0,0.3-0.1,0.3-0.3V149.6z
			"/>
	</g>
	<g>
		<path d="M132.6,164c-0.2,0-0.3,0.1-0.3,0.3v1c0,0.2,0.1,0.3,0.3,0.3h1.8c0.2,0,0.3-0.1,0.3-0.3v-1c0-0.2-0.1-0.3-0.3-0.3H132.6z"
			/>
	</g>
	<g>
		<path d="M132.6,159.3c-0.2,0-0.3,0.1-0.3,0.3v1c0,0.2,0.1,0.3,0.3,0.3h1.8c0.2,0,0.3-0.1,0.3-0.3v-1c0-0.2-0.1-0.3-0.3-0.3H132.6z
			"/>
	</g>
	<g>
		<path d="M132.6,185c-0.2,0-0.3,0.1-0.3,0.3v1c0,0.2,0.1,0.3,0.3,0.3h1.8c0.2,0,0.3-0.1,0.3-0.3v-1c0-0.2-0.1-0.3-0.3-0.3H132.6z"
			/>
	</g>
	<g>
		<path d="M132.6,180.4c-0.2,0-0.3,0.1-0.3,0.3v1c0,0.2,0.1,0.3,0.3,0.3h1.8c0.2,0,0.3-0.1,0.3-0.3v-1c0-0.2-0.1-0.3-0.3-0.3H132.6z
			"/>
	</g>
	<g>
		<path d="M128.6,164c-0.2,0-0.3,0.1-0.3,0.3v1c0,0.2,0.1,0.3,0.3,0.3h1.8c0.2,0,0.3-0.1,0.3-0.3v-1c0-0.2-0.1-0.3-0.3-0.3H128.6z"
			/>
	</g>
	<g>
		<path d="M128.6,159.3c-0.2,0-0.3,0.1-0.3,0.3v1c0,0.2,0.1,0.3,0.3,0.3h1.8c0.2,0,0.3-0.1,0.3-0.3v-1c0-0.2-0.1-0.3-0.3-0.3H128.6z
			"/>
	</g>
	<g>
		<path d="M97.7,151.7c0.2,0,0.3-0.1,0.3-0.3v-1c0-0.2-0.1-0.3-0.3-0.3h-1.8c-0.2,0-0.3,0.1-0.3,0.3v1c0,0.2,0.1,0.3,0.3,0.3H97.7z"
			/>
	</g>
	<g>
		<path d="M97.7,156.3c0.2,0,0.3-0.1,0.3-0.3v-1c0-0.2-0.1-0.3-0.3-0.3h-1.8c-0.2,0-0.3,0.1-0.3,0.3v1c0,0.2,0.1,0.3,0.3,0.3H97.7z"
			/>
	</g>
	<g>
		<path d="M93.7,151.7c0.2,0,0.3-0.1,0.3-0.3v-1c0-0.2-0.1-0.3-0.3-0.3h-1.8c-0.2,0-0.3,0.1-0.3,0.3v1c0,0.2,0.1,0.3,0.3,0.3H93.7z"
			/>
	</g>
	<g>
		<path d="M93.7,156.3c0.2,0,0.3-0.1,0.3-0.3v-1c0-0.2-0.1-0.3-0.3-0.3h-1.8c-0.2,0-0.3,0.1-0.3,0.3v1c0,0.2,0.1,0.3,0.3,0.3H93.7z"
			/>
	</g>
	<g>
		<path d="M47.1,107.4c0-0.2-0.1-0.3-0.3-0.3h-1c-0.2,0-0.3,0.1-0.3,0.3v1.8c0,0.2,0.1,0.3,0.3,0.3h1c0.2,0,0.3-0.1,0.3-0.3V107.4z"
			/>
	</g>
	<g>
		<path d="M51.8,107.4c0-0.2-0.1-0.3-0.3-0.3h-1c-0.2,0-0.3,0.1-0.3,0.3v1.8c0,0.2,0.1,0.3,0.3,0.3h1c0.2,0,0.3-0.1,0.3-0.3V107.4z"
			/>
	</g>
	<g>
		<path d="M146.3,117.4c0,0.2,0.1,0.3,0.3,0.3h1c0.2,0,0.3-0.1,0.3-0.3v-1.8c0-0.2-0.1-0.3-0.3-0.3h-1c-0.2,0-0.3,0.1-0.3,0.3V117.4
			z"/>
	</g>
	<g>
		<path d="M141.7,117.4c0,0.2,0.1,0.3,0.3,0.3h1c0.2,0,0.3-0.1,0.3-0.3v-1.8c0-0.2-0.1-0.3-0.3-0.3h-1c-0.2,0-0.3,0.1-0.3,0.3V117.4
			z"/>
	</g>
	<g>
		<path d="M107.3,135.5c0,0.2-0.1,0.3-0.3,0.3h-2.8c-0.2,0-0.3-0.1-0.3-0.3v-2.8c0-0.2,0.1-0.3,0.3-0.3h2.8c0.2,0,0.3,0.1,0.3,0.3
			V135.5z"/>
	</g>
	<g>
		<path d="M111.4,135.5c0,0.2-0.1,0.3-0.3,0.3h-2.8c-0.2,0-0.3-0.1-0.3-0.3v-2.8c0-0.2,0.1-0.3,0.3-0.3h2.8c0.2,0,0.3,0.1,0.3,0.3
			V135.5z"/>
	</g>
	<g>
		<path d="M107.3,139.5c0,0.2-0.1,0.3-0.3,0.3h-2.8c-0.2,0-0.3-0.1-0.3-0.3v-2.8c0-0.2,0.1-0.3,0.3-0.3h2.8c0.2,0,0.3,0.1,0.3,0.3
			V139.5z"/>
	</g>
	<g>
		<path d="M111.4,139.5c0,0.2-0.1,0.3-0.3,0.3h-2.8c-0.2,0-0.3-0.1-0.3-0.3v-2.8c0-0.2,0.1-0.3,0.3-0.3h2.8c0.2,0,0.3,0.1,0.3,0.3
			V139.5z"/>
	</g>
	<g>
		<path d="M31.2,41.7c0-0.2-0.1-0.3-0.3-0.3h-3c-0.2,0-0.3,0.1-0.3,0.3v3.8c0,0.2,0.1,0.3,0.3,0.3h3c0.2,0,0.3-0.1,0.3-0.3V41.7z"/>
	</g>
	<g>
		<path d="M39.8,41.7c0-0.2-0.1-0.3-0.3-0.3h-3c-0.2,0-0.3,0.1-0.3,0.3v3.8c0,0.2,0.1,0.3,0.3,0.3h3c0.2,0,0.3-0.1,0.3-0.3V41.7z"/>
	</g>
</g>
</svg>
