<?xml version="1.0" encoding="utf-8"?>
<!-- Generator: Adobe Illustrator 27.0.0, SVG Export Plug-In . SVG Version: 6.00 Build 0)  -->
<svg version="1.1" id="Calque_1" xmlns="http://www.w3.org/2000/svg" xmlns:xlink="http://www.w3.org/1999/xlink" x="0px" y="0px"
	 viewBox="0 0 148.69 114.36" style="enable-background:new 0 0 148.69 114.36;" xml:space="preserve">
<style type="text/css">
	.st0{fill:none;stroke:#000000;stroke-width:0.1;stroke-miterlimit:10;}
</style>
<g>
	<path class="st0" d="M12.12,97.55c0,3.72,2.75,6.42,6.29,6.42h111.13c3.14,0,6.17-2.7,6.17-6.42V16.56c0-3.72-3.01-6.73-6.73-6.73
		H18.85c-3.71,0-6.73,3.01-6.73,6.73C12.12,16.56,12.12,97.55,12.12,97.55z"/>
</g>
<g>
	<path d="M128.25,71.58c0,1.56-1.27,2.83-2.84,2.83c-1.56,0-2.83-1.27-2.83-2.83c0-1.57,1.27-2.84,2.83-2.84
		C126.98,68.75,128.25,70.02,128.25,71.58z"/>
	<path d="M121.05,71.59c0,1.56-1.27,2.83-2.84,2.83c-1.56,0-2.83-1.27-2.83-2.83c0-1.57,1.27-2.84,2.83-2.84
		C119.78,68.75,121.05,70.02,121.05,71.59z"/>
	<path d="M128.25,64.39c0,1.57-1.27,2.84-2.84,2.84c-1.56,0-2.83-1.27-2.83-2.84c0-1.56,1.27-2.83,2.83-2.83
		C126.98,61.55,128.25,62.82,128.25,64.39z"/>
	<path d="M128.25,57.19c0,1.56-1.27,2.83-2.84,2.83c-1.56,0-2.83-1.27-2.83-2.83c0-1.57,1.27-2.84,2.83-2.84
		C126.98,54.35,128.25,55.62,128.25,57.19z"/>
	<path d="M121.05,64.39c0,1.57-1.27,2.84-2.84,2.84c-1.56,0-2.83-1.27-2.83-2.84c0-1.56,1.27-2.83,2.83-2.83
		C119.78,61.55,121.05,62.82,121.05,64.39z"/>
	<path d="M121.05,57.19c0,1.56-1.27,2.83-2.84,2.83c-1.56,0-2.83-1.27-2.83-2.83c0-1.57,1.27-2.84,2.83-2.84
		C119.78,54.35,121.05,55.62,121.05,57.19z"/>
	<path d="M128.25,49.99c0,1.57-1.27,2.84-2.84,2.84c-1.56,0-2.83-1.27-2.83-2.84c0-1.56,1.27-2.83,2.83-2.83
		C126.98,47.15,128.25,48.42,128.25,49.99z"/>
	<path d="M128.25,42.79c0,1.56-1.27,2.83-2.84,2.83c-1.56,0-2.83-1.27-2.83-2.83c0-1.57,1.27-2.84,2.83-2.84
		C126.98,39.95,128.25,41.22,128.25,42.79z"/>
	<path d="M121.04,49.99c0,1.57-1.27,2.84-2.84,2.84c-1.56,0-2.83-1.27-2.83-2.84c0-1.56,1.27-2.83,2.83-2.83
		C119.77,47.15,121.04,48.42,121.04,49.99z"/>
	<path d="M121.04,42.79c0,1.56-1.27,2.83-2.84,2.83c-1.56,0-2.83-1.27-2.83-2.83c0-1.57,1.27-2.84,2.83-2.84
		C119.77,39.95,121.04,41.22,121.04,42.79z"/>
</g>
</svg>
