<?xml version="1.0" encoding="utf-8"?>
<!-- Generator: Adobe Illustrator 27.0.0, SVG Export Plug-In . SVG Version: 6.00 Build 0)  -->
<svg version="1.1" id="Calque_1" xmlns="http://www.w3.org/2000/svg" xmlns:xlink="http://www.w3.org/1999/xlink" x="0px" y="0px"
	 viewBox="0 0 148.69 114.36" style="enable-background:new 0 0 148.69 114.36;" xml:space="preserve">
<style type="text/css">
	.st0{fill:none;stroke:#000000;stroke-width:0.1;stroke-miterlimit:10;}
	.st1{enable-background:new    ;}
</style>
<g>
	<path class="st0" d="M12.12,97.55c0,3.72,2.75,6.42,6.29,6.42h111.13c3.14,0,6.17-2.7,6.17-6.42V16.56c0-3.72-3.01-6.73-6.73-6.73
		H18.85c-3.71,0-6.73,3.01-6.73,6.73C12.12,16.56,12.12,97.55,12.12,97.55z"/>
</g>
<g>
	<g class="st1">
		<path d="M116.51,81.84c-0.17,0.25-0.39,0.44-0.69,0.57c-0.29,0.13-0.65,0.19-1.09,0.19c-0.34,0-0.65-0.06-0.92-0.19
			c-0.27-0.12-0.48-0.3-0.63-0.53c-0.14-0.22-0.22-0.46-0.22-0.72s0.07-0.48,0.2-0.68s0.34-0.36,0.62-0.49
			c0.19-0.09,0.54-0.19,1.06-0.3s0.83-0.23,0.95-0.34c0.12-0.11,0.19-0.25,0.19-0.42c0-0.2-0.09-0.37-0.26-0.51
			c-0.18-0.14-0.45-0.21-0.84-0.21c-0.37,0-0.64,0.08-0.83,0.23s-0.3,0.38-0.33,0.68l-0.61-0.05c0.01-0.28,0.09-0.53,0.23-0.75
			s0.35-0.39,0.62-0.5s0.58-0.17,0.94-0.17c0.32,0,0.61,0.05,0.88,0.16c0.26,0.11,0.46,0.27,0.6,0.48c0.14,0.21,0.21,0.44,0.21,0.68
			c0,0.22-0.06,0.42-0.17,0.59c-0.11,0.18-0.28,0.33-0.51,0.44c-0.18,0.09-0.48,0.19-0.92,0.3c-0.44,0.1-0.72,0.18-0.85,0.23
			c-0.2,0.08-0.34,0.17-0.43,0.28c-0.09,0.11-0.13,0.24-0.13,0.39s0.04,0.28,0.14,0.41c0.09,0.12,0.23,0.22,0.41,0.29
			s0.4,0.11,0.64,0.11c0.27,0,0.52-0.05,0.73-0.14c0.22-0.09,0.38-0.22,0.48-0.37c0.1-0.15,0.17-0.35,0.2-0.59l0.6,0.05
			C116.76,81.3,116.67,81.58,116.51,81.84z"/>
		<path d="M109.19,81.75c0.25,0.2,0.55,0.31,0.9,0.31c0.29,0,0.56-0.07,0.81-0.22s0.43-0.38,0.55-0.68s0.18-0.66,0.18-1.06
			c0-0.32-0.05-0.62-0.15-0.92c-0.1-0.3-0.27-0.53-0.52-0.71s-0.55-0.26-0.92-0.26c-0.32,0-0.58,0.08-0.8,0.24
			c-0.21,0.16-0.37,0.41-0.48,0.76l-0.62-0.15c0.13-0.44,0.36-0.78,0.68-1.03c0.33-0.24,0.73-0.36,1.21-0.36
			c0.42,0,0.81,0.1,1.16,0.29c0.35,0.19,0.62,0.47,0.81,0.84c0.19,0.37,0.29,0.8,0.29,1.3c0,0.46-0.08,0.88-0.25,1.28
			s-0.41,0.7-0.74,0.91c-0.32,0.21-0.74,0.31-1.26,0.31c-0.5,0-0.92-0.14-1.26-0.41c-0.34-0.27-0.58-0.67-0.72-1.19l0.63-0.16
			C108.78,81.24,108.95,81.54,109.19,81.75z"/>
		<path d="M107.24,81.84c-0.17,0.25-0.4,0.44-0.69,0.57s-0.66,0.19-1.09,0.19c-0.34,0-0.65-0.06-0.92-0.19
			c-0.27-0.12-0.48-0.3-0.63-0.53c-0.15-0.22-0.22-0.46-0.22-0.72s0.07-0.48,0.2-0.68s0.34-0.36,0.62-0.49
			c0.19-0.09,0.54-0.19,1.06-0.3s0.83-0.23,0.95-0.34c0.12-0.11,0.19-0.25,0.19-0.42c0-0.2-0.09-0.37-0.26-0.51
			c-0.17-0.14-0.45-0.21-0.84-0.21c-0.37,0-0.64,0.08-0.83,0.23s-0.3,0.38-0.33,0.68l-0.61-0.05c0.01-0.28,0.09-0.53,0.23-0.75
			c0.15-0.22,0.35-0.39,0.62-0.5c0.27-0.11,0.58-0.17,0.94-0.17c0.32,0,0.61,0.05,0.88,0.16c0.26,0.11,0.46,0.27,0.6,0.48
			c0.14,0.21,0.21,0.44,0.21,0.68c0,0.22-0.05,0.42-0.17,0.59c-0.11,0.18-0.28,0.33-0.51,0.44c-0.18,0.09-0.48,0.19-0.92,0.3
			c-0.44,0.1-0.72,0.18-0.85,0.23c-0.2,0.08-0.34,0.17-0.43,0.28c-0.09,0.11-0.13,0.24-0.13,0.39s0.04,0.28,0.13,0.41
			s0.23,0.22,0.41,0.29s0.4,0.11,0.64,0.11c0.27,0,0.52-0.05,0.73-0.14c0.22-0.09,0.38-0.22,0.48-0.37s0.17-0.35,0.2-0.59l0.6,0.05
			C107.49,81.3,107.4,81.58,107.24,81.84z"/>
		<path d="M102.09,82.51v-4.78h0.63v4.78H102.09z"/>
		<path d="M100.46,82.51v-1.37l-0.41-0.4l-1.14,1.77h-0.72l1.46-2.18l-1.32-1.28h0.76l1.39,1.41v-2.72h0.59v4.78L100.46,82.51
			L100.46,82.51z"/>
		<path d="M97.13,82.51v-1.89c0-0.44-0.09-0.74-0.27-0.9s-0.4-0.24-0.65-0.24c-0.16,0-0.29,0.04-0.41,0.11s-0.2,0.17-0.24,0.28
			c-0.05,0.12-0.07,0.3-0.07,0.54v2.11H94.9v-2.13c0-0.27,0.01-0.46,0.03-0.57c0.03-0.17,0.1-0.31,0.18-0.43
			c0.09-0.12,0.22-0.22,0.39-0.29c0.18-0.08,0.37-0.11,0.58-0.11c0.48,0,0.85,0.19,1.1,0.57v-0.49h0.53v3.46h-0.58V82.51z"/>
		<path d="M93.42,78.41v-0.67H94v0.67H93.42z M93.42,82.51v-3.46H94v3.46H93.42z"/>
		<path d="M91.8,82.51v-3h-0.67v-0.46h0.67v-0.32c0-0.21-0.04-0.35-0.11-0.43s-0.2-0.11-0.38-0.11c-0.11,0-0.22,0.01-0.35,0.03
			l-0.09-0.51c0.2-0.04,0.38-0.06,0.55-0.06c0.26,0,0.46,0.05,0.6,0.14s0.24,0.22,0.3,0.37c0.04,0.11,0.06,0.29,0.06,0.52v0.37h0.52
			v0.46h-0.52v3H91.8z"/>
		<path d="M88.66,81.94c0.15,0.11,0.34,0.17,0.55,0.17c0.29,0,0.53-0.1,0.72-0.3s0.3-0.49,0.32-0.87h-2.58c0-0.07,0-0.12,0-0.16
			c0-0.57,0.15-1.01,0.44-1.33s0.67-0.47,1.13-0.47c0.48,0,0.87,0.16,1.17,0.48c0.3,0.32,0.45,0.77,0.45,1.36
			c0,0.56-0.15,1-0.45,1.31c-0.3,0.31-0.7,0.47-1.2,0.47c-0.4,0-0.73-0.1-0.99-0.29c-0.26-0.2-0.44-0.47-0.53-0.82l0.61-0.08
			C88.39,81.64,88.51,81.82,88.66,81.94z M89.92,79.72c-0.18-0.18-0.41-0.27-0.68-0.27c-0.3,0-0.54,0.11-0.73,0.34
			c-0.12,0.15-0.2,0.36-0.22,0.66h1.93C90.21,80.15,90.1,79.91,89.92,79.72z"/>
		<path d="M84.98,81.84c-0.17,0.25-0.4,0.44-0.69,0.57s-0.66,0.19-1.09,0.19c-0.34,0-0.65-0.06-0.92-0.19
			c-0.27-0.12-0.48-0.3-0.63-0.53c-0.15-0.22-0.22-0.46-0.22-0.72s0.07-0.48,0.2-0.68s0.34-0.36,0.62-0.49
			c0.19-0.09,0.54-0.19,1.06-0.3s0.83-0.23,0.95-0.34c0.12-0.11,0.19-0.25,0.19-0.42c0-0.2-0.09-0.37-0.26-0.51
			c-0.17-0.14-0.45-0.21-0.84-0.21c-0.37,0-0.64,0.08-0.83,0.23s-0.3,0.38-0.33,0.68l-0.61-0.05c0.01-0.28,0.09-0.53,0.24-0.75
			s0.35-0.39,0.62-0.5s0.58-0.17,0.94-0.17c0.32,0,0.61,0.05,0.88,0.16c0.26,0.11,0.46,0.27,0.6,0.48c0.14,0.21,0.21,0.44,0.21,0.68
			c0,0.22-0.06,0.42-0.17,0.59c-0.11,0.18-0.28,0.33-0.51,0.44c-0.18,0.09-0.48,0.19-0.92,0.3c-0.44,0.1-0.72,0.18-0.85,0.23
			c-0.2,0.08-0.34,0.17-0.43,0.28c-0.09,0.11-0.13,0.24-0.13,0.39s0.04,0.28,0.13,0.41s0.23,0.22,0.41,0.29
			c0.19,0.07,0.4,0.11,0.64,0.11c0.27,0,0.52-0.05,0.73-0.14c0.22-0.09,0.38-0.22,0.48-0.37c0.1-0.15,0.17-0.35,0.2-0.59l0.6,0.05
			C85.23,81.3,85.15,81.58,84.98,81.84z"/>
		<path d="M78.85,82.51c-0.29,0-0.54-0.03-0.77-0.08c-0.22-0.05-0.41-0.13-0.57-0.24c-0.16-0.11-0.3-0.25-0.43-0.43
			s-0.24-0.42-0.33-0.7c-0.08-0.28-0.13-0.6-0.13-0.96c0-0.43,0.06-0.8,0.19-1.14c0.12-0.33,0.31-0.6,0.56-0.82
			c0.19-0.17,0.43-0.28,0.7-0.34c0.2-0.05,0.48-0.07,0.85-0.07h1.65v4.78C80.57,82.51,78.85,82.51,78.85,82.51z M79.94,78.3h-1
			c-0.38,0-0.65,0.03-0.82,0.1c-0.23,0.09-0.43,0.27-0.6,0.54c-0.16,0.27-0.25,0.65-0.25,1.15c0,0.36,0.04,0.67,0.12,0.92
			s0.2,0.46,0.35,0.6c0.11,0.11,0.25,0.19,0.43,0.25s0.43,0.09,0.74,0.09h1.02V78.3H79.94z"/>
		<path d="M72.01,81.89c0.15,0.14,0.35,0.21,0.58,0.21c0.29,0,0.52-0.11,0.7-0.32s0.27-0.55,0.27-1.01s-0.09-0.79-0.28-1.01
			s-0.42-0.32-0.72-0.32c-0.2,0-0.36,0.06-0.5,0.18s-0.23,0.29-0.29,0.52l-0.57-0.09c0.07-0.35,0.22-0.62,0.46-0.81
			c0.24-0.19,0.55-0.29,0.92-0.29c0.3,0,0.57,0.07,0.83,0.21c0.25,0.14,0.44,0.35,0.57,0.63c0.12,0.28,0.19,0.61,0.19,0.98
			c0,0.58-0.14,1.02-0.43,1.33c-0.29,0.31-0.67,0.46-1.14,0.46c-0.38,0-0.7-0.11-0.96-0.34c-0.26-0.23-0.42-0.54-0.48-0.93
			l0.58-0.08C71.76,81.54,71.86,81.75,72.01,81.89z"/>
		<path d="M68.26,82.51h-0.61c0.07-0.13,0.12-0.27,0.15-0.42s0.04-0.49,0.04-1.04v-0.78c0-0.26,0.01-0.44,0.03-0.54
			c0.03-0.16,0.1-0.29,0.18-0.4c0.09-0.1,0.22-0.19,0.41-0.26c0.18-0.07,0.42-0.1,0.72-0.1s0.56,0.04,0.79,0.12s0.4,0.2,0.52,0.35
			c0.12,0.15,0.21,0.35,0.26,0.59l-0.57,0.08C70.1,79.87,70,79.7,69.87,79.6s-0.33-0.15-0.61-0.15c-0.3,0-0.52,0.07-0.67,0.2
			c-0.11,0.1-0.17,0.27-0.17,0.5c0,0.02,0,0.07,0,0.15c0.22,0.08,0.57,0.15,1.05,0.2c0.23,0.03,0.41,0.06,0.52,0.09
			c0.16,0.04,0.3,0.11,0.42,0.19c0.12,0.08,0.23,0.2,0.3,0.34c0.08,0.14,0.12,0.29,0.12,0.46c0,0.29-0.1,0.53-0.31,0.71
			s-0.5,0.28-0.88,0.28c-0.23,0-0.45-0.04-0.65-0.11c-0.2-0.08-0.41-0.21-0.63-0.39C68.36,82.25,68.32,82.39,68.26,82.51z
			 M68.43,80.99c0,0.26,0.03,0.45,0.09,0.59c0.08,0.17,0.21,0.31,0.39,0.41c0.18,0.1,0.38,0.15,0.6,0.15c0.23,0,0.4-0.05,0.52-0.16
			c0.12-0.1,0.18-0.23,0.18-0.39c0-0.1-0.03-0.2-0.08-0.28S70,81.16,69.9,81.12c-0.1-0.04-0.27-0.08-0.51-0.12
			c-0.43-0.06-0.75-0.13-0.96-0.22L68.43,80.99L68.43,80.99z"/>
		<path d="M66.35,82.51V80.7c0-0.25-0.03-0.48-0.1-0.68c-0.04-0.14-0.12-0.24-0.22-0.32s-0.22-0.12-0.35-0.12
			c-0.14,0-0.29,0.04-0.43,0.13l-0.2-0.54c0.2-0.13,0.4-0.19,0.6-0.19c0.14,0,0.26,0.04,0.38,0.12s0.24,0.24,0.37,0.49v-0.52h0.53
			v3.46h-0.58V82.51z"/>
		<path d="M61.92,82.51v-4.78h0.58v1.71c0.1-0.14,0.23-0.26,0.4-0.34s0.35-0.13,0.56-0.13c0.28,0,0.54,0.08,0.77,0.22
			c0.23,0.15,0.4,0.37,0.52,0.65s0.17,0.59,0.17,0.94c0,0.35-0.06,0.67-0.19,0.94c-0.13,0.27-0.31,0.49-0.54,0.64
			c-0.23,0.15-0.48,0.23-0.76,0.23c-0.43,0-0.75-0.17-0.97-0.51v0.44h-0.54V82.51z M64.05,79.78c-0.17-0.21-0.39-0.32-0.65-0.32
			c-0.27,0-0.49,0.11-0.67,0.33c-0.18,0.22-0.27,0.57-0.27,1.04c0,0.43,0.09,0.75,0.27,0.96s0.4,0.31,0.65,0.31s0.48-0.11,0.66-0.33
			c0.19-0.22,0.28-0.55,0.28-0.99C64.31,80.33,64.23,79.99,64.05,79.78z"/>
		<path d="M57.13,81.94c0.15,0.11,0.34,0.17,0.55,0.17c0.29,0,0.53-0.1,0.72-0.3s0.3-0.49,0.32-0.87h-2.58c0-0.07,0-0.12,0-0.16
			c0-0.57,0.15-1.01,0.44-1.33c0.29-0.32,0.67-0.47,1.13-0.47c0.48,0,0.87,0.16,1.17,0.48s0.45,0.77,0.45,1.36
			c0,0.56-0.15,1-0.44,1.31c-0.3,0.31-0.7,0.47-1.2,0.47c-0.4,0-0.73-0.1-0.99-0.29c-0.26-0.2-0.44-0.47-0.53-0.82l0.61-0.08
			C56.86,81.64,56.98,81.82,57.13,81.94z M58.39,79.72c-0.18-0.18-0.41-0.27-0.68-0.27c-0.3,0-0.54,0.11-0.73,0.34
			c-0.12,0.15-0.2,0.36-0.22,0.66h1.93C58.68,80.15,58.58,79.91,58.39,79.72z"/>
		<path d="M55.11,82.51l-0.91-1.37l-0.19,0.29l-0.71,1.08h-0.72l1.29-1.83l-1.2-1.63h0.7l0.58,0.82c0.08,0.11,0.17,0.24,0.26,0.38
			c0.06-0.1,0.14-0.23,0.24-0.39l0.53-0.81h0.73l-1.17,1.66l1.26,1.8C55.8,82.51,55.11,82.51,55.11,82.51z"/>
		<path d="M51.07,82.01c0.09,0,0.15-0.01,0.2-0.04s0.08-0.07,0.1-0.11s0.03-0.16,0.03-0.32v-2.02h-0.59v-0.46h0.59v-1.21l0.58,0.35
			v0.86h0.43v0.46h-0.43v1.99c0,0.35-0.02,0.58-0.07,0.69s-0.13,0.2-0.25,0.27s-0.28,0.1-0.5,0.1c-0.13,0-0.28-0.02-0.44-0.05
			L50.8,82C50.92,82,51,82.01,51.07,82.01z"/>
		<path d="M48.23,81.94c0.15,0.11,0.34,0.17,0.55,0.17c0.29,0,0.53-0.1,0.72-0.3s0.3-0.49,0.32-0.87h-2.58c0-0.07,0-0.12,0-0.16
			c0-0.57,0.15-1.01,0.44-1.33c0.29-0.32,0.67-0.47,1.13-0.47c0.48,0,0.87,0.16,1.17,0.48s0.45,0.77,0.45,1.36
			c0,0.56-0.15,1-0.44,1.31c-0.3,0.31-0.7,0.47-1.2,0.47c-0.4,0-0.73-0.1-0.99-0.29c-0.26-0.2-0.44-0.47-0.53-0.82l0.61-0.08
			C47.96,81.64,48.08,81.82,48.23,81.94z M49.49,79.72c-0.18-0.18-0.41-0.27-0.68-0.27c-0.3,0-0.54,0.11-0.73,0.34
			c-0.12,0.15-0.2,0.36-0.22,0.66h1.93C49.77,80.15,49.67,79.91,49.49,79.72z"/>
		<path d="M45.94,82.51v-1.89c0-0.44-0.09-0.74-0.27-0.9s-0.4-0.24-0.65-0.24c-0.16,0-0.29,0.04-0.41,0.11s-0.2,0.17-0.24,0.28
			c-0.05,0.12-0.07,0.3-0.07,0.54v2.11h-0.59v-2.13c0-0.27,0.01-0.46,0.03-0.57c0.03-0.17,0.1-0.31,0.18-0.43
			c0.09-0.12,0.22-0.22,0.39-0.29s0.37-0.11,0.58-0.11c0.48,0,0.85,0.19,1.1,0.57v-0.49h0.53v3.46h-0.58V82.51z"/>
		<path d="M40.02,82.51v-4.78h0.58v1.71c0.1-0.14,0.23-0.26,0.4-0.34s0.35-0.13,0.56-0.13c0.28,0,0.54,0.08,0.77,0.22
			c0.23,0.15,0.4,0.37,0.52,0.65s0.17,0.59,0.17,0.94c0,0.35-0.06,0.67-0.19,0.94c-0.13,0.27-0.31,0.49-0.54,0.64
			s-0.48,0.23-0.76,0.23c-0.43,0-0.75-0.17-0.97-0.51v0.44h-0.54V82.51z M42.16,79.78c-0.17-0.21-0.39-0.32-0.65-0.32
			c-0.27,0-0.49,0.11-0.67,0.33c-0.18,0.22-0.27,0.57-0.27,1.04c0,0.43,0.09,0.75,0.27,0.96s0.4,0.31,0.65,0.31s0.48-0.11,0.66-0.33
			c0.19-0.22,0.28-0.55,0.28-0.99C42.42,80.33,42.33,79.99,42.16,79.78z"/>
		<path d="M37.09,81.94c0.15,0.11,0.34,0.17,0.55,0.17c0.29,0,0.53-0.1,0.72-0.3s0.3-0.49,0.32-0.87H36.1c0-0.07,0-0.12,0-0.16
			c0-0.57,0.15-1.01,0.44-1.33c0.29-0.32,0.67-0.47,1.13-0.47c0.48,0,0.87,0.16,1.17,0.48s0.45,0.77,0.45,1.36
			c0,0.56-0.15,1-0.44,1.31c-0.3,0.31-0.7,0.47-1.2,0.47c-0.4,0-0.73-0.1-0.99-0.29c-0.26-0.2-0.44-0.47-0.53-0.82l0.61-0.08
			C36.82,81.64,36.94,81.82,37.09,81.94z M38.35,79.72c-0.18-0.18-0.41-0.27-0.68-0.27c-0.3,0-0.54,0.11-0.73,0.34
			c-0.12,0.15-0.2,0.36-0.22,0.66h1.93C38.64,80.15,38.54,79.91,38.35,79.72z"/>
		<path d="M34.81,82.51V80.7c0-0.25-0.03-0.48-0.1-0.68c-0.04-0.14-0.12-0.24-0.22-0.32s-0.22-0.12-0.35-0.12
			c-0.14,0-0.29,0.04-0.43,0.13l-0.2-0.54c0.2-0.13,0.4-0.19,0.6-0.19c0.14,0,0.26,0.04,0.38,0.12s0.24,0.24,0.37,0.49v-0.52h0.53
			v3.46h-0.58V82.51z"/>
	</g>
	<g class="st1">
		<path d="M110.67,85.98c0.39,0.21,0.7,0.52,0.92,0.91c0.22,0.39,0.33,0.8,0.33,1.23c0,0.42-0.11,0.83-0.33,1.22
			s-0.52,0.7-0.91,0.91c-0.39,0.22-0.8,0.32-1.22,0.32s-0.83-0.11-1.22-0.32s-0.69-0.52-0.91-0.91c-0.22-0.39-0.32-0.8-0.32-1.22
			c0-0.43,0.11-0.84,0.33-1.23c0.22-0.39,0.53-0.7,0.92-0.91c0.39-0.21,0.8-0.32,1.21-0.32C109.87,85.66,110.28,85.77,110.67,85.98z
			 M108.45,86.34c-0.33,0.18-0.58,0.43-0.77,0.76c-0.18,0.33-0.28,0.67-0.28,1.03s0.09,0.69,0.27,1.02
			c0.18,0.32,0.43,0.58,0.76,0.76s0.67,0.27,1.02,0.27s0.7-0.09,1.02-0.27c0.33-0.18,0.58-0.43,0.76-0.76s0.27-0.66,0.27-1.02
			s-0.09-0.7-0.28-1.03c-0.18-0.33-0.44-0.58-0.77-0.76c-0.33-0.18-0.66-0.27-1.01-0.27C109.12,86.07,108.78,86.16,108.45,86.34z
			 M108.96,88.98c0.15,0.11,0.32,0.17,0.51,0.17c0.24,0,0.44-0.09,0.6-0.26c0.15-0.17,0.23-0.42,0.23-0.75s-0.08-0.59-0.24-0.77
			c-0.16-0.18-0.37-0.27-0.62-0.27c-0.17,0-0.32,0.04-0.45,0.13s-0.22,0.21-0.29,0.37l-0.39-0.09c0.07-0.24,0.2-0.43,0.39-0.56
			c0.19-0.14,0.43-0.21,0.72-0.21c0.26,0,0.49,0.05,0.69,0.16s0.36,0.27,0.46,0.48c0.11,0.21,0.16,0.46,0.16,0.75
			c0,0.44-0.12,0.78-0.36,1.03s-0.55,0.37-0.93,0.37c-0.3,0-0.56-0.08-0.77-0.24s-0.35-0.38-0.42-0.65l0.4-0.12
			C108.72,88.71,108.82,88.87,108.96,88.98z"/>
		<path d="M106,89.96c-0.07-0.11-0.15-0.21-0.25-0.32s-0.33-0.31-0.68-0.6c-0.42-0.36-0.72-0.64-0.9-0.84
			c-0.18-0.21-0.31-0.4-0.39-0.58s-0.12-0.37-0.12-0.56c0-0.38,0.13-0.69,0.4-0.95c0.27-0.25,0.63-0.38,1.09-0.38
			c0.45,0,0.82,0.12,1.08,0.35c0.27,0.24,0.42,0.58,0.47,1.03l-0.6,0.06c0-0.3-0.09-0.53-0.26-0.7s-0.4-0.25-0.68-0.25
			c-0.27,0-0.48,0.08-0.65,0.24c-0.17,0.16-0.25,0.36-0.25,0.59c0,0.22,0.09,0.46,0.27,0.71s0.53,0.59,1.05,1.01
			c0.33,0.27,0.59,0.52,0.77,0.72c0.18,0.21,0.31,0.42,0.39,0.64c0.05,0.13,0.07,0.27,0.07,0.41h-3.16v-0.56H106V89.96z"/>
		<path d="M102.55,90.11c-0.26,0.33-0.62,0.5-1.08,0.5c-0.35,0-0.64-0.09-0.87-0.28s-0.4-0.46-0.52-0.8s-0.17-0.8-0.17-1.36
			c0-0.47,0.04-0.85,0.11-1.13s0.17-0.52,0.3-0.71c0.13-0.19,0.29-0.34,0.48-0.45c0.19-0.1,0.42-0.16,0.68-0.16
			c0.35,0,0.63,0.09,0.87,0.28c0.23,0.19,0.4,0.45,0.52,0.8c0.12,0.34,0.17,0.8,0.17,1.36C103.02,89.06,102.87,89.71,102.55,90.11z
			 M102.12,86.55c-0.16-0.23-0.38-0.34-0.64-0.34c-0.27,0-0.5,0.13-0.69,0.39c-0.18,0.26-0.28,0.78-0.28,1.57
			c0,0.78,0.09,1.3,0.28,1.56c0.18,0.26,0.41,0.39,0.68,0.39s0.5-0.13,0.68-0.39s0.28-0.78,0.28-1.57
			C102.42,87.38,102.32,86.84,102.12,86.55z"/>
		<path d="M98.57,89.96c-0.07-0.11-0.15-0.21-0.25-0.32s-0.33-0.31-0.68-0.6c-0.42-0.36-0.72-0.64-0.9-0.84
			c-0.18-0.21-0.31-0.4-0.39-0.58s-0.12-0.37-0.12-0.56c0-0.38,0.13-0.69,0.4-0.95c0.27-0.25,0.63-0.38,1.09-0.38
			c0.45,0,0.82,0.12,1.09,0.35c0.27,0.24,0.42,0.58,0.46,1.03l-0.6,0.06c0-0.3-0.09-0.53-0.26-0.7c-0.17-0.17-0.4-0.25-0.68-0.25
			c-0.27,0-0.48,0.08-0.65,0.24c-0.17,0.16-0.25,0.36-0.25,0.59c0,0.22,0.09,0.46,0.27,0.71s0.53,0.59,1.05,1.01
			c0.33,0.27,0.59,0.52,0.77,0.72c0.18,0.21,0.31,0.42,0.39,0.64c0.05,0.13,0.07,0.27,0.07,0.41h-3.16v-0.56h2.35V89.96z"/>
		<path d="M93.13,90.52v-1.14h-0.64v-0.54h0.64v-3.1h0.48l2.18,3.1v0.54h-2.07v1.14H93.13z M95.21,88.84l-1.5-2.15v2.15H95.21z"/>
		<path d="M90.02,90.52l-0.52-1.45h-2l-0.56,1.45h-0.72l1.96-4.78h0.68l1.83,4.78H90.02z M88.79,87.16c-0.11-0.3-0.2-0.61-0.26-0.91
			c-0.07,0.26-0.19,0.59-0.34,0.99l-0.5,1.32h1.62L88.79,87.16z"/>
		<path d="M85.2,90.52v-1.89c0-0.44-0.09-0.74-0.27-0.9s-0.4-0.24-0.65-0.24c-0.16,0-0.29,0.04-0.41,0.11s-0.2,0.16-0.24,0.28
			c-0.05,0.12-0.07,0.3-0.07,0.54v2.11h-0.59V88.4c0-0.27,0.01-0.46,0.03-0.57c0.04-0.17,0.1-0.31,0.18-0.43
			c0.09-0.12,0.22-0.22,0.39-0.29c0.17-0.08,0.37-0.11,0.57-0.11c0.48,0,0.85,0.19,1.1,0.57v-0.49h0.53v3.46H85.2V90.52z"/>
		<path d="M81.05,90.02c0.09,0,0.15-0.01,0.2-0.04c0.05-0.03,0.08-0.07,0.1-0.12s0.03-0.15,0.03-0.32v-2.02h-0.59v-0.46h0.59v-1.21
			l0.58,0.35v0.86h0.43v0.46h-0.43v1.99c0,0.35-0.02,0.58-0.07,0.69s-0.13,0.2-0.25,0.27s-0.28,0.1-0.5,0.1
			c-0.13,0-0.28-0.02-0.44-0.05L80.79,90C80.9,90.01,80.99,90.02,81.05,90.02z"/>
		<path d="M79.99,90.13c-0.3,0.31-0.69,0.46-1.17,0.46c-0.3,0-0.58-0.07-0.84-0.21c-0.26-0.14-0.45-0.34-0.58-0.6
			c-0.13-0.25-0.2-0.61-0.2-1.05c0-0.55,0.15-0.98,0.45-1.29c0.3-0.31,0.69-0.47,1.17-0.47c0.43,0,0.79,0.13,1.09,0.38
			c0.36,0.31,0.53,0.78,0.53,1.42C80.44,89.38,80.29,89.82,79.99,90.13z M79.55,87.8c-0.19-0.22-0.44-0.33-0.73-0.33
			s-0.53,0.11-0.73,0.33s-0.29,0.54-0.29,0.97c0,0.46,0.1,0.79,0.29,1.01s0.44,0.33,0.73,0.33s0.54-0.11,0.73-0.33s0.29-0.55,0.29-1
			S79.74,88.02,79.55,87.8z"/>
		<path d="M75.92,86.42v-0.68h0.59v0.68H75.92z M75.92,90.52v-3.46h0.59v3.46H75.92z"/>
		<path d="M74.44,90.52v-1.89c0-0.44-0.09-0.74-0.27-0.9s-0.4-0.24-0.65-0.24c-0.16,0-0.29,0.04-0.41,0.11s-0.2,0.16-0.24,0.28
			c-0.05,0.12-0.07,0.3-0.07,0.54v2.11h-0.59V88.4c0-0.27,0.01-0.46,0.03-0.57c0.03-0.17,0.1-0.31,0.18-0.43s0.22-0.22,0.39-0.29
			c0.17-0.08,0.37-0.11,0.58-0.11c0.48,0,0.85,0.19,1.1,0.57v-0.49h0.53v3.46h-0.58V90.52z"/>
		<path d="M69.31,89.95c0.15,0.11,0.34,0.17,0.55,0.17c0.29,0,0.53-0.1,0.72-0.3c0.19-0.2,0.3-0.49,0.32-0.87h-2.58
			c0-0.07,0-0.12,0-0.16c0-0.57,0.15-1.01,0.44-1.33c0.29-0.31,0.67-0.47,1.13-0.47c0.48,0,0.87,0.16,1.17,0.48
			c0.3,0.32,0.45,0.77,0.45,1.36c0,0.56-0.15,1-0.44,1.31c-0.3,0.31-0.7,0.47-1.2,0.47c-0.4,0-0.73-0.1-0.99-0.29
			c-0.26-0.2-0.44-0.47-0.53-0.82l0.61-0.07C69.04,89.65,69.16,89.84,69.31,89.95z M70.57,87.74c-0.18-0.18-0.41-0.27-0.68-0.27
			c-0.3,0-0.54,0.11-0.73,0.34c-0.12,0.14-0.2,0.36-0.22,0.65h1.93C70.85,88.16,70.75,87.92,70.57,87.74z"/>
		<path d="M63.88,90.52c-0.3,0-0.56-0.03-0.77-0.08s-0.38-0.13-0.52-0.24c-0.14-0.1-0.26-0.25-0.35-0.44s-0.14-0.4-0.14-0.62
			c0-0.28,0.08-0.52,0.23-0.72c0.16-0.21,0.38-0.35,0.67-0.43c-0.22-0.11-0.39-0.26-0.5-0.44s-0.17-0.37-0.17-0.58
			c0-0.22,0.06-0.43,0.19-0.63c0.12-0.2,0.3-0.35,0.52-0.45s0.51-0.15,0.88-0.15h1.79v4.78C65.71,90.52,63.88,90.52,63.88,90.52z
			 M65.07,88.32h-1.1c-0.3,0-0.54,0.03-0.7,0.08s-0.29,0.14-0.38,0.28c-0.09,0.13-0.14,0.29-0.14,0.46c0,0.15,0.03,0.29,0.09,0.4
			c0.06,0.12,0.14,0.21,0.24,0.27s0.22,0.11,0.36,0.13c0.08,0.02,0.23,0.02,0.43,0.02h1.19L65.07,88.32L65.07,88.32z M65.07,86.31
			h-0.95c-0.34,0-0.59,0.02-0.73,0.07c-0.14,0.04-0.25,0.13-0.33,0.25s-0.11,0.26-0.11,0.42c0,0.17,0.04,0.31,0.12,0.42
			s0.2,0.19,0.36,0.24c0.12,0.04,0.32,0.05,0.6,0.05h1.03v-1.45H65.07z"/>
		<path d="M59.29,89.95c0.15,0.11,0.34,0.17,0.55,0.17c0.29,0,0.53-0.1,0.72-0.3c0.19-0.2,0.3-0.49,0.32-0.87H58.3
			c0-0.07,0-0.12,0-0.16c0-0.57,0.15-1.01,0.44-1.33c0.29-0.31,0.67-0.47,1.13-0.47c0.48,0,0.87,0.16,1.17,0.48s0.45,0.77,0.45,1.36
			c0,0.56-0.15,1-0.44,1.31c-0.3,0.31-0.7,0.47-1.2,0.47c-0.4,0-0.73-0.1-0.99-0.29c-0.26-0.2-0.44-0.47-0.53-0.82l0.61-0.07
			C59.02,89.65,59.14,89.84,59.29,89.95z M60.55,87.74c-0.18-0.18-0.41-0.27-0.68-0.27c-0.3,0-0.54,0.11-0.73,0.34
			c-0.12,0.14-0.2,0.36-0.22,0.65h1.93C60.84,88.16,60.73,87.92,60.55,87.74z"/>
		<path d="M57.01,90.52v-1.81c0-0.25-0.03-0.48-0.1-0.69c-0.04-0.14-0.12-0.24-0.22-0.32c-0.1-0.08-0.22-0.12-0.35-0.12
			c-0.14,0-0.29,0.04-0.43,0.13l-0.2-0.54c0.2-0.12,0.4-0.19,0.6-0.19c0.14,0,0.26,0.04,0.38,0.12s0.24,0.24,0.37,0.49v-0.53h0.53
			v3.46C57.59,90.52,57.01,90.52,57.01,90.52z"/>
		<path d="M53.4,89.91c0.15,0.14,0.35,0.21,0.58,0.21c0.29,0,0.52-0.11,0.7-0.31c0.18-0.21,0.27-0.55,0.27-1.01
			s-0.09-0.79-0.28-1.01c-0.18-0.21-0.42-0.32-0.72-0.32c-0.2,0-0.36,0.06-0.5,0.18s-0.23,0.29-0.29,0.53l-0.57-0.09
			c0.07-0.35,0.22-0.62,0.46-0.81c0.24-0.19,0.55-0.29,0.92-0.29c0.3,0,0.57,0.07,0.83,0.21c0.25,0.14,0.44,0.35,0.57,0.63
			c0.12,0.28,0.19,0.61,0.19,0.98c0,0.58-0.14,1.02-0.43,1.33c-0.29,0.31-0.67,0.46-1.14,0.46c-0.38,0-0.7-0.11-0.96-0.34
			c-0.26-0.23-0.42-0.54-0.48-0.93l0.58-0.08C53.15,89.55,53.25,89.76,53.4,89.91z"/>
		<path d="M51.8,90.13c-0.3,0.31-0.69,0.46-1.17,0.46c-0.3,0-0.58-0.07-0.84-0.21s-0.45-0.34-0.58-0.6c-0.13-0.25-0.2-0.61-0.2-1.05
			c0-0.55,0.15-0.98,0.45-1.29s0.69-0.47,1.17-0.47c0.43,0,0.79,0.13,1.09,0.38c0.36,0.31,0.53,0.78,0.53,1.42
			C52.25,89.38,52.1,89.82,51.8,90.13z M51.35,87.8c-0.19-0.22-0.44-0.33-0.73-0.33s-0.53,0.11-0.73,0.33
			c-0.19,0.22-0.29,0.54-0.29,0.97c0,0.46,0.1,0.79,0.29,1.01c0.19,0.22,0.44,0.33,0.73,0.33s0.54-0.11,0.73-0.33s0.29-0.55,0.29-1
			S51.55,88.02,51.35,87.8z"/>
		<path d="M46.81,90.52l-1.31-3.46h0.6l0.77,2.11c0.09,0.26,0.17,0.47,0.22,0.66c0.07-0.24,0.14-0.47,0.22-0.7l0.74-2.07h0.62
			l-1.32,3.46C47.35,90.52,46.81,90.52,46.81,90.52z"/>
		<path d="M44.39,86.42v-0.68h0.59v0.68H44.39z M44.39,90.52v-3.46h0.59v3.46H44.39z"/>
		<path d="M41.53,89.91c0.15,0.14,0.35,0.21,0.58,0.21c0.29,0,0.52-0.11,0.7-0.31c0.18-0.21,0.27-0.55,0.27-1.01
			s-0.09-0.79-0.28-1.01c-0.18-0.21-0.42-0.32-0.72-0.32c-0.2,0-0.36,0.06-0.5,0.18s-0.23,0.29-0.29,0.53l-0.57-0.09
			c0.07-0.35,0.22-0.62,0.46-0.81c0.24-0.19,0.55-0.29,0.92-0.29c0.3,0,0.57,0.07,0.83,0.21c0.25,0.14,0.44,0.35,0.57,0.63
			c0.12,0.28,0.19,0.61,0.19,0.98c0,0.58-0.14,1.02-0.43,1.33c-0.29,0.31-0.67,0.46-1.14,0.46c-0.38,0-0.7-0.11-0.96-0.34
			c-0.26-0.23-0.42-0.54-0.48-0.93l0.58-0.08C41.28,89.55,41.38,89.76,41.53,89.91z"/>
		<path d="M39.57,86.42v-0.68h0.59v0.68H39.57z M39.57,90.52v-3.46h0.59v3.46H39.57z"/>
	</g>
	<g class="st1">
		<path d="M108.82,97.77c0.25,0.2,0.55,0.31,0.9,0.31c0.29,0,0.56-0.07,0.81-0.22s0.43-0.38,0.55-0.68s0.18-0.66,0.18-1.06
			c0-0.32-0.05-0.62-0.15-0.92c-0.1-0.3-0.27-0.53-0.52-0.71s-0.55-0.26-0.92-0.26c-0.32,0-0.58,0.08-0.79,0.24
			c-0.21,0.16-0.37,0.41-0.48,0.76l-0.62-0.15c0.13-0.44,0.36-0.78,0.68-1.03c0.33-0.24,0.73-0.36,1.21-0.36
			c0.42,0,0.81,0.1,1.16,0.29c0.35,0.19,0.62,0.47,0.81,0.84c0.19,0.37,0.29,0.8,0.29,1.3c0,0.46-0.08,0.88-0.25,1.28
			s-0.41,0.7-0.74,0.91c-0.32,0.21-0.74,0.31-1.26,0.31c-0.5,0-0.92-0.14-1.26-0.41c-0.34-0.27-0.58-0.67-0.72-1.19l0.63-0.16
			C108.4,97.26,108.57,97.56,108.82,97.77z"/>
		<path d="M103.33,98.53v-0.56h2.93v-1.63h-2.64v-0.56h2.64v-1.46h-2.82v-0.56h3.46v4.78h-3.57V98.53z"/>
		<path d="M101.81,98.53v-2.12h-0.73c-0.16,0-0.28,0.01-0.35,0.02c-0.1,0.02-0.19,0.07-0.29,0.13s-0.2,0.17-0.32,0.32
			s-0.27,0.37-0.46,0.66l-0.63,0.99h-0.79l0.83-1.3c0.17-0.25,0.34-0.47,0.52-0.64c0.09-0.08,0.21-0.16,0.38-0.24
			c-0.46-0.06-0.8-0.21-1.02-0.44c-0.22-0.23-0.33-0.52-0.33-0.86c0-0.26,0.07-0.5,0.2-0.72s0.31-0.37,0.53-0.45
			c0.22-0.09,0.54-0.13,0.97-0.13h2.12v4.78C102.44,98.53,101.81,98.53,101.81,98.53z M101.81,94.28h-1.51
			c-0.35,0-0.61,0.07-0.78,0.22s-0.25,0.33-0.25,0.56c0,0.15,0.04,0.3,0.13,0.43c0.08,0.13,0.21,0.23,0.37,0.29s0.39,0.09,0.68,0.09
			h1.36V94.28z"/>
		<path d="M97.04,98.53v-3.75l-2.51,3.75h-0.65v-4.78h0.61v3.75L97,93.75h0.65v4.78H97.04z"/>
		<path d="M90.88,97.4c-0.18,0.38-0.45,0.67-0.8,0.89c-0.35,0.22-0.76,0.33-1.21,0.33c-0.42,0-0.8-0.1-1.16-0.29
			c-0.36-0.2-0.64-0.49-0.83-0.87c-0.2-0.38-0.29-0.82-0.29-1.3s0.09-0.91,0.28-1.28s0.46-0.67,0.81-0.88s0.75-0.32,1.19-0.32
			c0.67,0,1.22,0.22,1.65,0.67s0.64,1.07,0.64,1.86C91.15,96.62,91.06,97.02,90.88,97.4z M90.02,94.67
			c-0.32-0.31-0.71-0.46-1.16-0.46c-0.32,0-0.6,0.08-0.85,0.24c-0.25,0.16-0.45,0.38-0.58,0.67c-0.13,0.29-0.2,0.63-0.2,1.02
			c0,0.62,0.15,1.09,0.46,1.42s0.7,0.5,1.17,0.5s0.85-0.17,1.17-0.5c0.31-0.33,0.46-0.79,0.46-1.36
			C90.5,95.5,90.34,94.98,90.02,94.67z"/>
		<path d="M85.12,98.53v-2.25h-2.48v2.25H82v-4.78h0.63v1.96h2.48v-1.96h0.63v4.78H85.12z"/>
		<path d="M77.99,98.53v-0.56h2.35v-4.21h0.63v4.78h-2.98V98.53z"/>
		<path d="M75.74,97.1v-0.59h1.8v0.59H75.74z"/>
		<path d="M74.97,97.86c-0.17,0.25-0.4,0.44-0.69,0.57s-0.65,0.19-1.09,0.19c-0.34,0-0.65-0.06-0.92-0.19
			c-0.27-0.12-0.48-0.3-0.63-0.53c-0.15-0.22-0.22-0.46-0.22-0.72s0.07-0.48,0.2-0.68s0.34-0.36,0.62-0.49
			c0.19-0.09,0.54-0.19,1.06-0.3s0.83-0.23,0.95-0.34c0.12-0.11,0.19-0.25,0.19-0.42c0-0.2-0.09-0.37-0.26-0.51
			c-0.17-0.14-0.45-0.21-0.84-0.21c-0.37,0-0.64,0.08-0.83,0.23s-0.3,0.38-0.33,0.68l-0.61-0.05c0.01-0.28,0.09-0.53,0.23-0.75
			s0.35-0.39,0.62-0.5s0.58-0.17,0.94-0.17c0.32,0,0.61,0.05,0.88,0.16c0.26,0.11,0.46,0.27,0.6,0.48c0.14,0.21,0.21,0.44,0.21,0.68
			c0,0.22-0.06,0.42-0.17,0.59c-0.11,0.18-0.28,0.33-0.51,0.44c-0.18,0.09-0.48,0.19-0.92,0.3c-0.44,0.1-0.72,0.18-0.85,0.23
			c-0.2,0.08-0.34,0.17-0.43,0.28c-0.09,0.11-0.13,0.24-0.13,0.39s0.04,0.28,0.14,0.41c0.09,0.12,0.23,0.22,0.41,0.29
			s0.4,0.11,0.64,0.11c0.27,0,0.52-0.05,0.73-0.14c0.22-0.09,0.38-0.22,0.48-0.37s0.17-0.35,0.2-0.59l0.6,0.05
			C75.22,97.32,75.13,97.6,74.97,97.86z"/>
		<path d="M66.7,98.53l-1.87-4.78h0.65l1.29,3.47c0.1,0.26,0.18,0.52,0.26,0.78c0.07-0.24,0.15-0.5,0.25-0.78l1.24-3.47h0.68
			l-1.85,4.78H66.7z"/>
		<path d="M63.76,97.97c-0.07-0.11-0.15-0.21-0.25-0.32s-0.33-0.31-0.68-0.6c-0.42-0.36-0.72-0.64-0.9-0.84s-0.31-0.4-0.39-0.58
			c-0.08-0.18-0.12-0.37-0.12-0.56c0-0.38,0.13-0.69,0.4-0.95c0.27-0.25,0.63-0.38,1.09-0.38c0.45,0,0.82,0.12,1.08,0.35
			c0.26,0.23,0.42,0.58,0.47,1.03l-0.6,0.06c0-0.3-0.09-0.53-0.26-0.7s-0.4-0.25-0.68-0.25c-0.27,0-0.48,0.08-0.65,0.24
			c-0.17,0.16-0.25,0.36-0.25,0.59c0,0.22,0.09,0.46,0.27,0.71s0.53,0.59,1.05,1.01c0.33,0.27,0.59,0.52,0.77,0.72
			c0.18,0.21,0.31,0.42,0.39,0.64c0.05,0.13,0.07,0.27,0.07,0.41h-3.16v-0.56h2.35V97.97z"/>
		<path d="M58.61,97.4c-0.18,0.38-0.45,0.67-0.81,0.89c-0.35,0.22-0.76,0.33-1.21,0.33c-0.42,0-0.8-0.1-1.16-0.29
			c-0.36-0.2-0.64-0.49-0.83-0.87c-0.2-0.38-0.29-0.82-0.29-1.3s0.09-0.91,0.28-1.28c0.19-0.38,0.46-0.67,0.81-0.88
			c0.35-0.21,0.75-0.32,1.19-0.32c0.67,0,1.22,0.22,1.65,0.67s0.64,1.07,0.64,1.86C58.88,96.62,58.79,97.02,58.61,97.4z
			 M57.75,94.67c-0.32-0.31-0.71-0.46-1.15-0.46c-0.32,0-0.6,0.08-0.85,0.24c-0.25,0.16-0.45,0.38-0.58,0.67s-0.2,0.63-0.2,1.02
			c0,0.62,0.15,1.09,0.46,1.42c0.31,0.33,0.7,0.5,1.17,0.5c0.47,0,0.85-0.17,1.16-0.5s0.46-0.79,0.46-1.36
			C58.23,95.5,58.07,94.98,57.75,94.67z"/>
		<path d="M53.45,97.86c-0.17,0.25-0.4,0.44-0.69,0.57c-0.29,0.13-0.65,0.19-1.09,0.19c-0.34,0-0.65-0.06-0.92-0.19
			c-0.27-0.12-0.48-0.3-0.63-0.53c-0.15-0.22-0.22-0.46-0.22-0.72s0.07-0.48,0.2-0.68s0.34-0.36,0.62-0.49
			c0.19-0.09,0.54-0.19,1.06-0.3s0.83-0.23,0.95-0.34c0.12-0.11,0.19-0.25,0.19-0.42c0-0.2-0.09-0.37-0.26-0.51
			s-0.45-0.21-0.84-0.21c-0.37,0-0.64,0.08-0.83,0.23s-0.3,0.38-0.33,0.68l-0.61-0.05c0.01-0.28,0.09-0.53,0.23-0.75
			s0.35-0.39,0.62-0.5s0.58-0.17,0.94-0.17c0.32,0,0.61,0.05,0.88,0.16c0.26,0.11,0.46,0.27,0.6,0.48c0.14,0.21,0.21,0.44,0.21,0.68
			c0,0.22-0.06,0.42-0.17,0.59c-0.11,0.18-0.28,0.33-0.51,0.44c-0.18,0.09-0.48,0.19-0.92,0.3c-0.44,0.1-0.72,0.18-0.85,0.23
			c-0.2,0.08-0.34,0.17-0.43,0.28s-0.13,0.24-0.13,0.39s0.04,0.28,0.14,0.41c0.09,0.12,0.23,0.22,0.41,0.29s0.4,0.11,0.64,0.11
			c0.27,0,0.52-0.05,0.73-0.14c0.22-0.09,0.38-0.22,0.48-0.37s0.17-0.35,0.2-0.59l0.6,0.05C53.71,97.32,53.62,97.6,53.45,97.86z"/>
		<path d="M48.4,98.53v-2.25h-2.48v2.25h-0.63v-4.78h0.63v1.96h2.48v-1.96h0.63v4.78H48.4z"/>
		<path d="M42.75,98.53l-1.01-3.64c-0.04-0.15-0.09-0.34-0.14-0.56c-0.02,0.07-0.06,0.26-0.15,0.56l-1.01,3.64h-0.61l-1.31-4.78
			h0.64l0.75,3.07c0.1,0.39,0.18,0.74,0.24,1.04c0.08-0.53,0.2-1.09,0.37-1.69l0.68-2.42h0.76l0.91,3.23
			c0.02,0.08,0.09,0.37,0.21,0.88c0.06-0.32,0.12-0.65,0.2-0.98l0.73-3.13h0.65l-1.27,4.78H42.75z"/>
	</g>
</g>
</svg>
