<?xml version="1.0" encoding="utf-8"?>
<!-- Generator: Adobe Illustrator 27.0.0, SVG Export Plug-In . SVG Version: 6.00 Build 0)  -->
<svg version="1.1" id="Calque_1" xmlns="http://www.w3.org/2000/svg" xmlns:xlink="http://www.w3.org/1999/xlink" x="0px" y="0px"
	 viewBox="0 0 148.69 114.36" style="enable-background:new 0 0 148.69 114.36;" xml:space="preserve">
<style type="text/css">
	.st0{fill:none;stroke:#000000;stroke-width:0.1;stroke-miterlimit:10;}
	.st1{fill:none;stroke:#000000;stroke-width:1.5;stroke-miterlimit:10;}
	.st2{fill:none;stroke:#000000;stroke-miterlimit:10;}
</style>
<g>
	<path class="st0" d="M12.12,97.55c0,3.72,2.75,6.42,6.29,6.42h111.13c3.14,0,6.17-2.7,6.17-6.42V16.56c0-3.72-3.01-6.73-6.73-6.73
		H18.85c-3.71,0-6.73,3.01-6.73,6.73C12.12,16.56,12.12,97.55,12.12,97.55z"/>
</g>
<g>
	<polyline class="st1" points="118.22,71.59 108.95,62.32 108.95,54.87 	"/>
	<path d="M128.25,71.58c0,1.56-1.27,2.83-2.84,2.83c-1.56,0-2.83-1.27-2.83-2.83c0-1.57,1.27-2.84,2.83-2.84
		C126.98,68.75,128.25,70.02,128.25,71.58z"/>
	<path d="M121.05,71.59c0,1.56-1.27,2.83-2.84,2.83c-1.56,0-2.83-1.27-2.83-2.83c0-1.57,1.27-2.84,2.83-2.84
		C119.78,68.75,121.05,70.02,121.05,71.59z"/>
	<path d="M128.25,64.39c0,1.57-1.27,2.84-2.84,2.84c-1.56,0-2.83-1.27-2.83-2.84c0-1.56,1.27-2.83,2.83-2.83
		C126.98,61.55,128.25,62.82,128.25,64.39z"/>
	<path d="M128.25,57.19c0,1.56-1.27,2.83-2.84,2.83c-1.56,0-2.83-1.27-2.83-2.83c0-1.57,1.27-2.84,2.83-2.84
		C126.98,54.35,128.25,55.62,128.25,57.19z"/>
	<path d="M121.05,64.39c0,1.57-1.27,2.84-2.84,2.84c-1.56,0-2.83-1.27-2.83-2.84c0-1.56,1.27-2.83,2.83-2.83
		C119.78,61.55,121.05,62.82,121.05,64.39z"/>
	<path d="M121.05,57.19c0,1.56-1.27,2.83-2.84,2.83c-1.56,0-2.83-1.27-2.83-2.83c0-1.57,1.27-2.84,2.83-2.84
		C119.78,54.35,121.05,55.62,121.05,57.19z"/>
	<path d="M128.25,49.99c0,1.57-1.27,2.84-2.84,2.84c-1.56,0-2.83-1.27-2.83-2.84c0-1.56,1.27-2.83,2.83-2.83
		C126.98,47.15,128.25,48.42,128.25,49.99z"/>
	<path d="M128.25,42.79c0,1.56-1.27,2.83-2.84,2.83c-1.56,0-2.83-1.27-2.83-2.83c0-1.57,1.27-2.84,2.83-2.84
		C126.98,39.95,128.25,41.22,128.25,42.79z"/>
	<path d="M121.04,49.99c0,1.57-1.27,2.84-2.84,2.84c-1.56,0-2.83-1.27-2.83-2.84c0-1.56,1.27-2.83,2.83-2.83
		C119.77,47.15,121.04,48.42,121.04,49.99z"/>
	<path d="M121.04,42.79c0,1.56-1.27,2.83-2.84,2.83c-1.56,0-2.83-1.27-2.83-2.83c0-1.57,1.27-2.84,2.83-2.84
		C119.77,39.95,121.04,41.22,121.04,42.79z"/>
	<circle cx="108.94" cy="54.99" r="0.85"/>
	<circle cx="108.94" cy="56.99" r="0.85"/>
	<line class="st2" x1="125.41" y1="57.19" x2="125.41" y2="35.3"/>
	<line class="st2" x1="125.41" y1="42.79" x2="131.63" y2="42.79"/>
	<line class="st2" x1="125.41" y1="49.99" x2="131.63" y2="49.99"/>
	<line class="st2" x1="125.41" y1="57.19" x2="130.78" y2="57.19"/>
	<path d="M128.98,12.1H18.85c-2.46,0-4.46,2-4.46,4.46v80.99c0,2.41,1.69,4.15,4.03,4.15h111.12c1.88,0,3.9-1.67,3.9-4.15V16.56
		C133.44,14.1,131.44,12.1,128.98,12.1z M28.71,18.86c1.95,0,3.54,1.59,3.54,3.55c0,1.95-1.59,3.54-3.54,3.54
		c-1.96,0-3.55-1.59-3.55-3.54C25.16,20.45,26.75,18.86,28.71,18.86z M24.31,41.26c1.57,0,2.84,1.27,2.84,2.83
		c0,1.57-1.27,2.84-2.84,2.84c-1.56,0-2.83-1.27-2.83-2.84C21.48,42.53,22.75,41.26,24.31,41.26z M21.48,66.64
		c0-1.57,1.27-2.84,2.83-2.84c1.57,0,2.84,1.27,2.84,2.84c0,1.56-1.27,2.83-2.84,2.83C22.75,69.47,21.48,68.2,21.48,66.64z
		 M28.71,94.53c-1.96,0-3.55-1.59-3.55-3.54s1.59-3.54,3.55-3.54c1.95,0,3.54,1.59,3.54,3.54S30.66,94.53,28.71,94.53z
		 M118.21,75.27c-2.03,0-3.68-1.65-3.68-3.68c0-0.42,0.07-0.83,0.21-1.21l-7.39-7.4v-5.39c-0.07-0.18-0.11-0.39-0.11-0.6
		s0.04-0.42,0.11-0.6v-0.8c-0.07-0.18-0.11-0.39-0.11-0.6c0-0.94,0.76-1.7,1.7-1.7s1.7,0.76,1.7,1.7c0,0.19-0.03,0.36-0.09,0.53
		v0.94c0.06,0.17,0.09,0.34,0.09,0.53s-0.03,0.36-0.09,0.53v4.13l4.33,4.33c-0.23-0.48-0.36-1.02-0.36-1.59
		c0-1.77,1.25-3.24,2.9-3.6c-1.65-0.37-2.9-1.84-2.9-3.6c0-1.77,1.25-3.24,2.9-3.6c-1.66-0.37-2.9-1.84-2.9-3.6s1.24-3.24,2.9-3.6
		c-1.66-0.37-2.9-1.84-2.9-3.6c0-2.03,1.65-3.69,3.69-3.69c1.76,0,3.23,1.25,3.6,2.9c0.36-1.66,1.83-2.9,3.6-2.9
		c2.03,0,3.68,1.65,3.68,3.69c0,1.76-1.24,3.23-2.89,3.6c1.65,0.36,2.89,1.83,2.89,3.6c0,1.76-1.24,3.23-2.89,3.6
		c1.65,0.36,2.9,1.83,2.9,3.6c0,1.76-1.25,3.23-2.9,3.6c1.65,0.36,2.9,1.83,2.9,3.59c0,1.77-1.25,3.24-2.9,3.61
		c1.66,0.36,2.9,1.83,2.9,3.59c0,2.03-1.65,3.69-3.69,3.69c-1.75,0-3.23-1.24-3.59-2.89C121.45,74.03,119.98,75.27,118.21,75.27z
		 M126.71,100.22c-3.13,0-5.67-2.55-5.67-5.67c0-3.13,2.54-5.67,5.67-5.67c3.12,0,5.66,2.54,5.66,5.67
		C132.37,97.67,129.83,100.22,126.71,100.22z M126.71,25.23c-3.13,0-5.67-2.55-5.67-5.67c0-3.13,2.54-5.67,5.67-5.67
		c3.12,0,5.66,2.54,5.66,5.67C132.37,22.68,129.83,25.23,126.71,25.23z"/>
</g>
</svg>
