<?xml version="1.0" encoding="utf-8"?>
<!-- Generator: Adobe Illustrator 27.0.0, SVG Export Plug-In . SVG Version: 6.00 Build 0)  -->
<svg version="1.1" id="Calque_1" xmlns="http://www.w3.org/2000/svg" xmlns:xlink="http://www.w3.org/1999/xlink" x="0px" y="0px"
	 viewBox="0 0 148.69 114.36" style="enable-background:new 0 0 148.69 114.36;" xml:space="preserve">
<style type="text/css">
	.st0{fill:none;stroke:#000000;stroke-width:0.1;stroke-miterlimit:10;}
</style>
<g>
	<path class="st0" d="M12.12,97.55c0,3.72,2.75,6.42,6.29,6.42h111.13c3.14,0,6.17-2.7,6.17-6.42V16.56c0-3.72-3.01-6.73-6.73-6.73
		H18.85c-3.71,0-6.73,3.01-6.73,6.73C12.12,16.56,12.12,97.55,12.12,97.55z"/>
</g>
<g>
	<circle cx="28.71" cy="90.99" r="2.13"/>
	<circle cx="28.71" cy="22.41" r="2.13"/>
	<path d="M124,71.58c0,0.78,0.63,1.42,1.42,1.42c0.78,0,1.42-0.63,1.42-1.42c0-0.78-0.63-1.42-1.42-1.42
		C124.64,70.17,124,70.8,124,71.58z"/>
	<path d="M116.8,71.59c0,0.78,0.63,1.42,1.42,1.42c0.78,0,1.42-0.63,1.42-1.42c0-0.78-0.63-1.42-1.42-1.42
		C117.44,70.17,116.8,70.8,116.8,71.59z"/>
	<path d="M124,64.39c0,0.78,0.63,1.42,1.42,1.42c0.78,0,1.42-0.63,1.42-1.42c0-0.78-0.63-1.42-1.42-1.42S124,63.6,124,64.39z"/>
	<path d="M124,57.19c0,0.78,0.63,1.42,1.42,1.42c0.78,0,1.42-0.63,1.42-1.42c0-0.78-0.63-1.42-1.42-1.42S124,56.4,124,57.19z"/>
	<path d="M116.8,57.19c0,0.78,0.63,1.42,1.42,1.42c0.78,0,1.42-0.63,1.42-1.42c0-0.78-0.63-1.42-1.42-1.42S116.8,56.4,116.8,57.19z"
		/>
	<path d="M123.99,49.99c0,0.78,0.63,1.42,1.42,1.42c0.78,0,1.42-0.63,1.42-1.42c0-0.78-0.63-1.42-1.42-1.42
		C124.63,48.57,123.99,49.2,123.99,49.99z"/>
	<path d="M123.99,42.79c0,0.78,0.63,1.42,1.42,1.42c0.78,0,1.42-0.63,1.42-1.42c0-0.78-0.63-1.42-1.42-1.42
		C124.63,41.37,123.99,42,123.99,42.79z"/>
	<path d="M116.79,49.99c0,0.78,0.63,1.42,1.42,1.42c0.78,0,1.42-0.63,1.42-1.42c0-0.78-0.63-1.42-1.42-1.42
		C117.43,48.57,116.79,49.21,116.79,49.99z"/>
	<path d="M116.79,42.79c0,0.78,0.63,1.42,1.42,1.42c0.78,0,1.42-0.63,1.42-1.42c0-0.78-0.63-1.42-1.42-1.42
		C117.43,41.37,116.79,42.01,116.79,42.79z"/>
	<path d="M116.8,64.39c0,0.78,0.63,1.42,1.42,1.42c0.78,0,1.42-0.63,1.42-1.42c0-0.78-0.63-1.42-1.42-1.42S116.8,63.61,116.8,64.39z
		"/>
	<circle cx="126.71" cy="94.55" r="4.25"/>
	<circle cx="126.71" cy="19.56" r="4.25"/>
	<circle cx="24.32" cy="44.09" r="1.42"/>
	<circle cx="24.32" cy="66.64" r="1.42"/>
	<circle cx="108.94" cy="56.99" r="0.43"/>
	<circle cx="104.94" cy="63.63" r="0.43"/>
	<circle cx="92.48" cy="58.66" r="0.43"/>
	<circle cx="92.48" cy="60.66" r="0.43"/>
	<circle cx="92.48" cy="39.82" r="0.43"/>
	<circle cx="92.48" cy="41.82" r="0.43"/>
	<circle cx="102.48" cy="39.82" r="0.43"/>
	<circle cx="102.48" cy="41.82" r="0.43"/>
	<circle cx="58.27" cy="48.78" r="0.43"/>
	<circle cx="50.27" cy="48.78" r="0.43"/>
	<circle cx="108.94" cy="54.99" r="0.43"/>
	<circle cx="104.94" cy="72.62" r="0.43"/>
	<circle cx="104.94" cy="50.88" r="0.43"/>
	<circle cx="104.94" cy="79.82" r="0.43"/>
	<circle cx="92.33" cy="79.82" r="0.43"/>
	<circle cx="92.33" cy="72.67" r="0.43"/>
	<circle cx="103.39" cy="31.54" r="0.43"/>
	<circle cx="16.85" cy="17.27" r="0.43"/>
	<circle cx="16.85" cy="27.27" r="0.43"/>
	<circle cx="16.85" cy="37.28" r="0.43"/>
	<circle cx="16.85" cy="47.28" r="0.43"/>
	<circle cx="16.85" cy="57.28" r="0.43"/>
	<circle cx="16.85" cy="67.28" r="0.43"/>
	<circle cx="16.85" cy="77.28" r="0.43"/>
	<circle cx="16.85" cy="87.28" r="0.43"/>
	<circle cx="16.85" cy="97.28" r="0.43"/>
	<circle cx="131.2" cy="27.27" r="0.43"/>
	<circle cx="131.2" cy="37.28" r="0.43"/>
	<circle cx="131.2" cy="47.28" r="0.43"/>
	<circle cx="131.2" cy="57.28" r="0.43"/>
	<circle cx="131.2" cy="67.28" r="0.43"/>
	<circle cx="131.2" cy="77.28" r="0.43"/>
	<circle cx="131.2" cy="87.28" r="0.43"/>
	<circle cx="48.91" cy="99.26" r="0.43"/>
	<circle cx="58.92" cy="99.26" r="0.43"/>
	<circle cx="68.92" cy="99.26" r="0.43"/>
	<circle cx="78.92" cy="99.26" r="0.43"/>
	<circle cx="88.92" cy="99.26" r="0.43"/>
	<circle cx="98.92" cy="99.26" r="0.43"/>
	<circle cx="108.92" cy="99.26" r="0.43"/>
	<circle cx="118.92" cy="99.26" r="0.43"/>
	<circle cx="48.91" cy="14.55" r="0.43"/>
	<circle cx="58.92" cy="14.55" r="0.43"/>
	<circle cx="68.92" cy="14.55" r="0.43"/>
	<circle cx="78.92" cy="14.55" r="0.43"/>
	<circle cx="88.92" cy="14.55" r="0.43"/>
	<circle cx="98.92" cy="14.55" r="0.43"/>
	<circle cx="108.92" cy="14.55" r="0.43"/>
	<circle cx="118.92" cy="14.55" r="0.43"/>
</g>
</svg>
