<?xml version="1.0" encoding="utf-8"?>
<!-- Generator: Adobe Illustrator 27.0.0, SVG Export Plug-In . SVG Version: 6.00 Build 0)  -->
<svg version="1.1" id="Calque_1" xmlns="http://www.w3.org/2000/svg" xmlns:xlink="http://www.w3.org/1999/xlink" x="0px" y="0px"
	 viewBox="0 0 148.69 114.36" style="enable-background:new 0 0 148.69 114.36;" xml:space="preserve">
<style type="text/css">
	.st0{fill:none;stroke:#000000;stroke-width:0.1;stroke-miterlimit:10;}
	.st1{fill:none;stroke:#000000;stroke-width:0.5;stroke-miterlimit:10;}
	.st2{fill:none;stroke:#000000;stroke-width:1.5;stroke-linejoin:bevel;stroke-miterlimit:10;}
	.st3{fill:none;stroke:#000000;stroke-miterlimit:10;}
</style>
<g>
	<path class="st0" d="M12.12,97.55c0,3.72,2.75,6.42,6.29,6.42h111.13c3.14,0,6.17-2.7,6.17-6.42V16.56c0-3.72-3.01-6.73-6.73-6.73
		H18.85c-3.71,0-6.73,3.01-6.73,6.73C12.12,16.56,12.12,97.55,12.12,97.55z"/>
</g>
<g>
	<circle cx="108.94" cy="54.99" r="0.85"/>
	<circle cx="108.94" cy="56.99" r="0.85"/>
	<polyline class="st1" points="118.21,42.79 104.64,29.22 93.23,29.22 79.91,42.53 54.27,42.53 	"/>
	<polyline class="st1" points="118.21,49.99 114.36,46.14 114.36,40.49 107.75,33.88 93.19,33.88 81.43,45.64 54.27,45.64 	"/>
	<polyline class="st1" points="118.21,57.19 108.97,47.94 92.91,47.94 88.97,51.87 53.91,51.87 	"/>
	<polyline class="st1" points="118.21,64.39 113.52,69.08 88.11,69.08 77.15,58.12 53.55,58.12 	"/>
	<polyline class="st1" points="125.41,64.39 121.74,67.91 116.13,67.91 107.78,76.27 90.33,76.27 75.28,61.22 54.51,61.22 	"/>
	<polyline class="st1" points="125.42,71.58 121.78,75.22 115.21,75.22 107.04,83.39 92.63,83.39 73.59,64.36 53.64,64.36 	"/>
	<polyline class="st2" points="108.94,56.99 108.94,54.99 55.01,54.99 	"/>
	<path d="M100.35,17.64c0.16,0,0.28,0.13,0.28,0.28v3.38c0,0.16-0.13,0.28-0.28,0.28h-5.74c-0.16,0-0.28-0.13-0.28-0.28v-3.38
		c0-0.16,0.13-0.28,0.28-0.28C94.61,17.64,100.35,17.64,100.35,17.64z"/>
	<path d="M100.35,27.14c0.16,0,0.28,0.13,0.28,0.28v3.38c0,0.16-0.13,0.28-0.28,0.28h-5.74c-0.16,0-0.28-0.13-0.28-0.28v-3.38
		c0-0.16,0.13-0.28,0.28-0.28C94.61,27.14,100.35,27.14,100.35,27.14z"/>
	<path d="M100.35,31.94c0.16,0,0.28,0.13,0.28,0.28v3.38c0,0.16-0.13,0.28-0.28,0.28h-5.74c-0.16,0-0.28-0.13-0.28-0.28v-3.38
		c0-0.16,0.13-0.28,0.28-0.28H100.35z"/>
	<path d="M100.35,38.85c0.16,0,0.28,0.13,0.28,0.28v3.38c0,0.16-0.13,0.28-0.28,0.28h-5.74c-0.16,0-0.28-0.13-0.28-0.28v-3.38
		c0-0.16,0.13-0.28,0.28-0.28H100.35z"/>
	<path d="M100.35,45.89c0.16,0,0.28,0.13,0.28,0.28v3.38c0,0.16-0.13,0.28-0.28,0.28h-5.74c-0.16,0-0.28-0.13-0.28-0.28v-3.38
		c0-0.16,0.13-0.28,0.28-0.28H100.35z"/>
	<path d="M100.35,53.02c0.16,0,0.28,0.13,0.28,0.28v3.38c0,0.16-0.13,0.28-0.28,0.28h-5.74c-0.16,0-0.28-0.13-0.28-0.28V53.3
		c0-0.16,0.13-0.28,0.28-0.28H100.35z"/>
	<path d="M100.35,57.69c0.16,0,0.28,0.13,0.28,0.28v3.38c0,0.16-0.13,0.28-0.28,0.28h-5.74c-0.16,0-0.28-0.13-0.28-0.28v-3.38
		c0-0.16,0.13-0.28,0.28-0.28H100.35z"/>
	<path d="M100.35,62.39c0.16,0,0.28,0.13,0.28,0.28v3.38c0,0.16-0.13,0.28-0.28,0.28h-5.74c-0.16,0-0.28-0.13-0.28-0.28v-3.38
		c0-0.16,0.13-0.28,0.28-0.28C94.61,62.39,100.35,62.39,100.35,62.39z"/>
	<path d="M100.35,67.14c0.16,0,0.28,0.13,0.28,0.28v3.38c0,0.16-0.13,0.28-0.28,0.28h-5.74c-0.16,0-0.28-0.13-0.28-0.28v-3.38
		c0-0.16,0.13-0.28,0.28-0.28H100.35z"/>
	<path d="M100.35,74.27c0.16,0,0.28,0.13,0.28,0.28v3.38c0,0.16-0.13,0.28-0.28,0.28h-5.74c-0.16,0-0.28-0.13-0.28-0.28v-3.38
		c0-0.16,0.13-0.28,0.28-0.28H100.35z"/>
	<path d="M100.35,81.35c0.16,0,0.28,0.13,0.28,0.28v3.38c0,0.16-0.13,0.28-0.28,0.28h-5.74c-0.16,0-0.28-0.13-0.28-0.28v-3.38
		c0-0.16,0.13-0.28,0.28-0.28H100.35z"/>
	<path d="M128.25,71.58c0,1.56-1.27,2.83-2.84,2.83c-1.56,0-2.83-1.27-2.83-2.83c0-1.57,1.27-2.84,2.83-2.84
		C126.98,68.75,128.25,70.02,128.25,71.58z"/>
	<path d="M121.05,71.59c0,1.56-1.27,2.83-2.84,2.83c-1.56,0-2.83-1.27-2.83-2.83c0-1.57,1.27-2.84,2.83-2.84
		C119.78,68.75,121.05,70.02,121.05,71.59z"/>
	<path d="M128.25,64.39c0,1.57-1.27,2.84-2.84,2.84c-1.56,0-2.83-1.27-2.83-2.84c0-1.56,1.27-2.83,2.83-2.83
		C126.98,61.55,128.25,62.82,128.25,64.39z"/>
	<path d="M128.25,57.19c0,1.56-1.27,2.83-2.84,2.83c-1.56,0-2.83-1.27-2.83-2.83c0-1.57,1.27-2.84,2.83-2.84
		C126.98,54.35,128.25,55.62,128.25,57.19z"/>
	<path d="M121.05,64.39c0,1.57-1.27,2.84-2.84,2.84c-1.56,0-2.83-1.27-2.83-2.84c0-1.56,1.27-2.83,2.83-2.83
		C119.78,61.55,121.05,62.82,121.05,64.39z"/>
	<path d="M121.05,57.19c0,1.56-1.27,2.83-2.84,2.83c-1.56,0-2.83-1.27-2.83-2.83c0-1.57,1.27-2.84,2.83-2.84
		C119.78,54.35,121.05,55.62,121.05,57.19z"/>
	<path d="M128.25,49.99c0,1.57-1.27,2.84-2.84,2.84c-1.56,0-2.83-1.27-2.83-2.84c0-1.56,1.27-2.83,2.83-2.83
		C126.98,47.15,128.25,48.42,128.25,49.99z"/>
	<path d="M128.25,42.79c0,1.56-1.27,2.83-2.84,2.83c-1.56,0-2.83-1.27-2.83-2.83c0-1.57,1.27-2.84,2.83-2.84
		C126.98,39.95,128.25,41.22,128.25,42.79z"/>
	<path d="M121.04,49.99c0,1.57-1.27,2.84-2.84,2.84c-1.56,0-2.83-1.27-2.83-2.84c0-1.56,1.27-2.83,2.83-2.83
		C119.77,47.15,121.04,48.42,121.04,49.99z"/>
	<path d="M121.04,42.79c0,1.56-1.27,2.83-2.84,2.83c-1.56,0-2.83-1.27-2.83-2.83c0-1.57,1.27-2.84,2.83-2.84
		C119.77,39.95,121.04,41.22,121.04,42.79z"/>
	<path d="M52.29,40.41c-0.16,0-0.28-0.13-0.28-0.28v-1.42c0-0.16,0.13-0.28,0.28-0.28h3.97c0.16,0,0.28,0.13,0.28,0.28v1.42
		c0,0.16-0.13,0.28-0.28,0.28H52.29z"/>
	<path d="M52.29,43.53c-0.16,0-0.28-0.13-0.28-0.28v-1.42c0-0.16,0.13-0.28,0.28-0.28h3.97c0.16,0,0.28,0.13,0.28,0.28v1.42
		c0,0.16-0.13,0.28-0.28,0.28H52.29z"/>
	<path d="M52.29,46.65c-0.16,0-0.28-0.13-0.28-0.28v-1.42c0-0.16,0.13-0.28,0.28-0.28h3.97c0.16,0,0.28,0.13,0.28,0.28v1.42
		c0,0.16-0.13,0.28-0.28,0.28H52.29z"/>
	<path d="M52.29,49.77c-0.16,0-0.28-0.13-0.28-0.28v-1.42c0-0.16,0.13-0.28,0.28-0.28h3.97c0.16,0,0.28,0.13,0.28,0.28v1.42
		c0,0.16-0.13,0.28-0.28,0.28H52.29z"/>
	<path d="M52.29,52.89c-0.16,0-0.28-0.13-0.28-0.28v-1.42c0-0.16,0.13-0.28,0.28-0.28h3.97c0.16,0,0.28,0.13,0.28,0.28v1.42
		c0,0.16-0.13,0.28-0.28,0.28H52.29z"/>
	<path d="M52.29,56C52.13,56,52,55.88,52,55.72V54.3c0-0.16,0.13-0.28,0.28-0.28h3.97c0.16,0,0.28,0.13,0.28,0.28v1.42
		c0,0.16-0.13,0.28-0.28,0.28C56.25,56,52.29,56,52.29,56z"/>
	<path d="M52.29,59.12c-0.16,0-0.28-0.13-0.28-0.28v-1.42c0-0.16,0.13-0.28,0.28-0.28h3.97c0.16,0,0.28,0.13,0.28,0.28v1.42
		c0,0.16-0.13,0.28-0.28,0.28H52.29z"/>
	<path d="M52.29,62.24c-0.16,0-0.28-0.13-0.28-0.28v-1.42c0-0.16,0.13-0.28,0.28-0.28h3.97c0.16,0,0.28,0.13,0.28,0.28v1.42
		c0,0.16-0.13,0.28-0.28,0.28H52.29z"/>
	<path d="M52.29,65.36c-0.16,0-0.28-0.13-0.28-0.28v-1.42c0-0.16,0.13-0.28,0.28-0.28h3.97c0.16,0,0.28,0.13,0.28,0.28v1.42
		c0,0.16-0.13,0.28-0.28,0.28H52.29z"/>
	<path d="M54.8,37.1c0,0.16-0.13,0.28-0.28,0.28h-3.4c-0.16,0-0.28-0.13-0.28-0.28v-2.27c0-0.16,0.13-0.28,0.28-0.28h3.4
		c0.16,0,0.28,0.13,0.28,0.28V37.1z"/>
	<path d="M28.43,81.39c0,0.16-0.13,0.28-0.28,0.28h-5.67c-0.16,0-0.28-0.13-0.28-0.28v-2.83c0-0.16,0.13-0.28,0.28-0.28h5.67
		c0.16,0,0.28,0.13,0.28,0.28V81.39z"/>
	<path d="M28.43,37.51c0,0.16-0.13,0.28-0.28,0.28h-5.67c-0.16,0-0.28-0.13-0.28-0.28v-2.83c0-0.16,0.13-0.28,0.28-0.28h5.67
		c0.16,0,0.28,0.13,0.28,0.28V37.51z"/>
	<path d="M54.8,79.42c0,0.16-0.13,0.28-0.28,0.28h-3.4c-0.16,0-0.28-0.13-0.28-0.28v-3.97c0-0.16,0.13-0.28,0.28-0.28h3.4
		c0.16,0,0.28,0.13,0.28,0.28V79.42z"/>
	<path d="M103.57,59.33c-0.16,0-0.28,0.13-0.28,0.28v2.03c0,0.16,0.13,0.28,0.28,0.28h2.75c0.16,0,0.28-0.13,0.28-0.28v-2.03
		c0-0.16-0.13-0.28-0.28-0.28H103.57z"/>
	<path d="M103.57,53.69c-0.16,0-0.28,0.13-0.28,0.28V56c0,0.16,0.13,0.28,0.28,0.28h2.75c0.16,0,0.28-0.13,0.28-0.28v-2.03
		c0-0.16-0.13-0.28-0.28-0.28H103.57z"/>
	<line class="st3" x1="125.41" y1="57.19" x2="125.41" y2="34.53"/>
	<line class="st3" x1="125.41" y1="42.79" x2="130.57" y2="42.79"/>
	<line class="st3" x1="125.41" y1="49.99" x2="130.57" y2="49.99"/>
	<line class="st3" x1="125.41" y1="57.19" x2="130.78" y2="57.19"/>
	<line class="st1" x1="102.05" y1="60.63" x2="110.87" y2="60.63"/>
	<line class="st1" x1="104.94" y1="63.63" x2="104.94" y2="57.54"/>
	<line class="st3" x1="91.74" y1="40.82" x2="106.5" y2="40.82"/>
	<line class="st3" x1="101.84" y1="59.66" x2="90.61" y2="59.66"/>
	<line class="st3" x1="58.27" y1="48.78" x2="47.06" y2="48.78"/>
	<line class="st3" x1="97.48" y1="44.27" x2="97.48" y2="37.21"/>
	<line class="st3" x1="17.91" y1="36.09" x2="34.57" y2="36.09"/>
	<line class="st3" x1="27.86" y1="14.82" x2="42.05" y2="14.82"/>
	<line class="st3" x1="47.2" y1="35.97" x2="58.14" y2="35.97"/>
	<line class="st3" x1="19.04" y1="79.97" x2="36.33" y2="79.97"/>
	<line class="st3" x1="47.41" y1="77.43" x2="62.73" y2="77.43"/>
	<line class="st3" x1="29.84" y1="98.98" x2="46.5" y2="98.98"/>
	<line class="st3" x1="25.32" y1="84.08" x2="25.32" y2="76.03"/>
	<line class="st3" x1="52.82" y1="82.67" x2="52.82" y2="73.84"/>
	<line class="st3" x1="38.04" y1="98.36" x2="38.04" y2="88.78"/>
	<line class="st3" x1="25.39" y1="39.61" x2="25.39" y2="30.93"/>
	<line class="st3" x1="52.82" y1="35.97" x2="52.82" y2="31.42"/>
	<line class="st3" x1="34.67" y1="16.05" x2="34.67" y2="22.03"/>
	<polygon points="107.32,33.06 101.2,33.06 101.2,30.04 104.3,30.04 	"/>
	<polygon points="93.76,33.06 92.85,33.06 81.09,44.82 57.09,44.82 57.1,43.35 80.25,43.35 93.57,30.04 93.76,30.04 	"/>
	<path d="M116.32,74.41h-1.44l-8.17,8.17h-5.51v-0.94c0-0.47-0.38-0.85-0.85-0.85h-5.74c-0.47,0-0.85,0.38-0.85,0.85v0.94h-0.79
		L73.93,63.54H57.1v-1.5h17.85L90,77.09h3.76v0.84c0,0.47,0.38,0.85,0.85,0.85h5.74c0.47,0,0.85-0.38,0.85-0.85v-0.84h6.92
		l7.11-7.12c-0.26,0.48-0.41,1.03-0.41,1.62C114.82,72.76,115.41,73.79,116.32,74.41z"/>
	<path d="M113,69.9l-5.56,5.55h-6.24v-0.9c0-0.47-0.38-0.85-0.85-0.85h-5.74c-0.47,0-0.85,0.38-0.85,0.85v0.9h-3.09L75.62,60.41
		H57.09l0.01-1.47h19.71L87.77,69.9h5.99v0.91c0,0.47,0.38,0.85,0.85,0.85h5.74c0.47,0,0.85-0.38,0.85-0.85V69.9H113z"/>
	<polygon points="93.76,68.26 88.45,68.26 77.49,57.3 57.1,57.3 57.1,56.31 93.76,56.31 	"/>
	<path d="M133.44,16.56v80.99c0,2.49-2.01,4.16-3.89,4.16H42.27v-5.16c0-0.47-0.39-0.85-0.85-0.85h-6.75
		c-0.47,0-0.85,0.38-0.85,0.85v5.16h-15.4c-2.33,0-4.03-1.75-4.03-4.16V16.56c0-2.46,2.01-4.46,4.47-4.46h11.59v5.17
		c0,0.46,0.38,0.85,0.85,0.85h6.74c0.47,0,0.85-0.39,0.85-0.85V12.1h90.09C131.44,12.1,133.44,14.1,133.44,16.56z M132.38,19.56
		c0-3.12-2.54-5.67-5.67-5.67c-3.12,0-5.67,2.55-5.67,5.67c0,3.13,2.55,5.67,5.67,5.67C129.84,25.23,132.38,22.69,132.38,19.56z
		 M132.38,94.55c0-3.13-2.54-5.67-5.67-5.67c-3.12,0-5.67,2.54-5.67,5.67s2.55,5.67,5.67,5.67
		C129.84,100.22,132.38,97.68,132.38,94.55z M128.82,71.59c0-1.88-1.52-3.41-3.4-3.41c-1.88,0-3.4,1.53-3.4,3.41
		c0,0.64,0.18,1.24,0.49,1.75l-1.07,1.07h-1.32c0.9-0.62,1.5-1.65,1.5-2.82c0-1.2-0.62-2.25-1.55-2.86h2l1.53-1.47
		c0.53,0.34,1.14,0.53,1.81,0.53c1.88,0,3.41-1.53,3.41-3.4c0-1.88-1.53-3.4-3.41-3.4c-1.87,0-3.4,1.52-3.4,3.4
		c0,0.61,0.17,1.2,0.46,1.7l-1.05,1.01h-1.16c0.83-0.62,1.36-1.61,1.36-2.71c0-1.88-1.53-3.4-3.41-3.4c-1.87,0-3.4,1.52-3.4,3.4
		c0,0.64,0.18,1.24,0.49,1.75l-2.12,2.12H101.2V56.31h1.58c0.12,0.32,0.43,0.55,0.79,0.55h2.75c0.36,0,0.67-0.23,0.79-0.55h0.52
		v0.16c-0.06,0.16-0.1,0.34-0.1,0.52s0.04,0.36,0.1,0.52v0.05h0.02c0.22,0.5,0.72,0.85,1.3,0.85s1.07-0.35,1.29-0.85h0.02v-0.05
		c0.06-0.16,0.1-0.34,0.1-0.52s-0.04-0.36-0.1-0.52v-0.96c0.06-0.16,0.1-0.34,0.1-0.52c0-0.78-0.63-1.41-1.41-1.41
		c-0.17,0-0.34,0.03-0.49,0.09h-1.35c-0.12-0.32-0.43-0.54-0.79-0.54h-2.75c-0.36,0-0.67,0.22-0.79,0.54h-1.58V53.3
		c0-0.47-0.38-0.85-0.85-0.85h-5.74c-0.47,0-0.85,0.38-0.85,0.85v0.37H57.1v-0.98h32.21l3.94-3.93h0.51v0.8
		c0,0.47,0.38,0.85,0.85,0.85h5.74c0.47,0,0.85-0.38,0.85-0.85v-0.8h7.43l6.67,6.67c-0.31,0.51-0.49,1.12-0.49,1.76
		c0,1.87,1.53,3.4,3.4,3.4c1.88,0,3.41-1.53,3.41-3.4c0-1.88-1.53-3.4-3.41-3.4c-0.64,0-1.24,0.18-1.75,0.49l-7.15-7.16h-8.11v-0.94
		c0-0.47-0.38-0.85-0.85-0.85h-5.74c-0.47,0-0.85,0.38-0.85,0.85v0.94h-1.19l-3.93,3.94H57.11l-0.02-4.6h24.67l11.76-11.77h0.23
		v0.91c0,0.47,0.38,0.85,0.85,0.85h5.74c0.47,0,0.85-0.38,0.85-0.85v-0.91h6.21l6.14,6.14v5.65l1.75,1.76
		c-0.31,0.51-0.49,1.11-0.49,1.75c0,1.88,1.52,3.4,3.4,3.4c1.88,0,3.4-1.52,3.4-3.4c0-1.87-1.52-3.4-3.4-3.4
		c-0.64,0-1.24,0.18-1.75,0.49l-1.28-1.27v-1.48c0.56,1.11,1.71,1.86,3.03,1.86c1.88,0,3.4-1.52,3.4-3.4c0-1.87-1.52-3.4-3.4-3.4
		c-0.64,0-1.24,0.18-1.75,0.49L104.98,28.4h-3.78v-0.97c0-0.47-0.38-0.85-0.85-0.85h-5.74c-0.47,0-0.85,0.38-0.85,0.85v0.97h-0.87
		L79.58,41.71H57.1l0.01-3c0-0.46-0.39-0.85-0.85-0.85h-1.35c0.27-0.14,0.46-0.43,0.46-0.76v-2.26c0-0.47-0.38-0.85-0.85-0.85h-3.4
		c-0.47,0-0.85,0.38-0.85,0.85v2.26c0,0.47,0.38,0.86,0.85,0.86h0.78c-0.27,0.14-0.46,0.43-0.46,0.75v26.37
		c0,0.46,0.38,0.85,0.85,0.85h3.97c0.43,0,0.79-0.33,0.84-0.75h16.16l19.03,19.03h1.47v0.8c0,0.47,0.38,0.86,0.85,0.86h5.74
		c0.47,0,0.85-0.39,0.85-0.86v-0.8h6.18l8.17-8.17h6.57l1.54-1.54c0.51,0.31,1.12,0.49,1.76,0.49
		C127.3,74.99,128.82,73.46,128.82,71.59z M128.82,57.19c0-1.88-1.53-3.41-3.41-3.41c-1.87,0-3.4,1.53-3.4,3.41
		c0,1.87,1.53,3.4,3.4,3.4C127.29,60.59,128.82,59.06,128.82,57.19z M128.81,42.79c0-1.88-1.52-3.4-3.4-3.4
		c-1.87,0-3.4,1.52-3.4,3.4c0,1.87,1.53,3.4,3.4,3.4C127.29,46.19,128.81,44.66,128.81,42.79z M128.81,49.99
		c0-1.88-1.52-3.4-3.4-3.4c-1.87,0-3.4,1.52-3.4,3.4c0,1.87,1.53,3.4,3.4,3.4C127.29,53.39,128.81,51.86,128.81,49.99z
		 M107.17,61.65v-2.03c0-0.47-0.38-0.85-0.85-0.85h-2.75c-0.47,0-0.85,0.38-0.85,0.85v2.03c0,0.47,0.38,0.85,0.85,0.85h2.75
		C106.79,62.5,107.17,62.12,107.17,61.65z M101.2,42.51v-3.37c0-0.47-0.38-0.85-0.85-0.85h-5.74c-0.47,0-0.85,0.38-0.85,0.85v3.37
		c0,0.47,0.38,0.86,0.85,0.86h5.74C100.82,43.37,101.2,42.98,101.2,42.51z M101.2,21.31v-3.38c0-0.47-0.38-0.85-0.85-0.85h-5.74
		c-0.47,0-0.85,0.38-0.85,0.85v3.38c0,0.47,0.38,0.85,0.85,0.85h5.74C100.82,22.16,101.2,21.78,101.2,21.31z M55.37,79.42v-3.97
		c0-0.47-0.38-0.85-0.85-0.85h-3.4c-0.47,0-0.85,0.38-0.85,0.85v3.97c0,0.47,0.38,0.85,0.85,0.85h3.4
		C54.99,80.27,55.37,79.89,55.37,79.42z M32.25,22.41c0-1.95-1.59-3.54-3.54-3.54s-3.54,1.59-3.54,3.54s1.59,3.54,3.54,3.54
		S32.25,24.36,32.25,22.41z M32.25,90.99c0-1.95-1.59-3.54-3.54-3.54s-3.54,1.59-3.54,3.54c0,1.96,1.59,3.55,3.54,3.55
		S32.25,92.95,32.25,90.99z M29,81.39v-2.84c0-0.47-0.38-0.85-0.85-0.85h-5.67c-0.47,0-0.85,0.38-0.85,0.85v2.84
		c0,0.47,0.38,0.85,0.85,0.85h5.67C28.62,82.24,29,81.86,29,81.39z M29,37.51v-2.83c0-0.47-0.38-0.85-0.85-0.85h-5.67
		c-0.47,0-0.85,0.38-0.85,0.85v2.83c0,0.47,0.38,0.85,0.85,0.85h5.67C28.62,38.36,29,37.98,29,37.51z M27.15,44.1
		c0-1.57-1.27-2.84-2.83-2.84s-2.84,1.27-2.84,2.84c0,1.56,1.28,2.83,2.84,2.83S27.15,45.66,27.15,44.1z M27.15,66.64
		c0-1.57-1.27-2.84-2.83-2.84s-2.84,1.27-2.84,2.84c0,1.56,1.28,2.83,2.84,2.83S27.15,68.2,27.15,66.64z"/>
	<path d="M41.7,96.55v4.88c0,0.16-0.13,0.28-0.28,0.28h-6.75c-0.15,0-0.28-0.12-0.28-0.28v-4.88c0-0.15,0.13-0.28,0.28-0.28h6.75
		C41.57,96.27,41.7,96.4,41.7,96.55z"/>
	<path d="M38.32,12.39v4.87c0,0.16-0.12,0.29-0.28,0.29H31.3c-0.16,0-0.29-0.13-0.29-0.29v-4.87c0-0.16,0.13-0.29,0.29-0.29h6.74
		C38.2,12.1,38.32,12.23,38.32,12.39z"/>
</g>
</svg>
