<?xml version="1.0" encoding="utf-8"?>
<!-- Generator: Adobe Illustrator 27.0.0, SVG Export Plug-In . SVG Version: 6.00 Build 0)  -->
<svg version="1.1" id="Calque_1" xmlns="http://www.w3.org/2000/svg" xmlns:xlink="http://www.w3.org/1999/xlink" x="0px" y="0px"
	 viewBox="0 0 148.69 114.36" style="enable-background:new 0 0 148.69 114.36;" xml:space="preserve">
<style type="text/css">
	.st0{fill:none;stroke:#000000;stroke-width:0.1;stroke-miterlimit:10;}
</style>
<g>
	<path class="st0" d="M12.12,97.55c0,3.72,2.75,6.42,6.29,6.42h111.13c3.14,0,6.17-2.7,6.17-6.42V16.56c0-3.72-3.01-6.73-6.73-6.73
		H18.85c-3.71,0-6.73,3.01-6.73,6.73C12.12,16.56,12.12,97.55,12.12,97.55z"/>
</g>
<g>
	<path d="M100.35,17.64c0.16,0,0.28,0.13,0.28,0.28v3.38c0,0.16-0.13,0.28-0.28,0.28h-5.74c-0.16,0-0.28-0.13-0.28-0.28v-3.38
		c0-0.16,0.13-0.28,0.28-0.28C94.61,17.64,100.35,17.64,100.35,17.64z"/>
	<path d="M100.35,27.14c0.16,0,0.28,0.13,0.28,0.28v3.38c0,0.16-0.13,0.28-0.28,0.28h-5.74c-0.16,0-0.28-0.13-0.28-0.28v-3.38
		c0-0.16,0.13-0.28,0.28-0.28C94.61,27.14,100.35,27.14,100.35,27.14z"/>
	<path d="M100.35,31.94c0.16,0,0.28,0.13,0.28,0.28v3.38c0,0.16-0.13,0.28-0.28,0.28h-5.74c-0.16,0-0.28-0.13-0.28-0.28v-3.38
		c0-0.16,0.13-0.28,0.28-0.28H100.35z"/>
	<path d="M100.35,38.85c0.16,0,0.28,0.13,0.28,0.28v3.38c0,0.16-0.13,0.28-0.28,0.28h-5.74c-0.16,0-0.28-0.13-0.28-0.28v-3.38
		c0-0.16,0.13-0.28,0.28-0.28H100.35z"/>
	<path d="M100.35,45.89c0.16,0,0.28,0.13,0.28,0.28v3.38c0,0.16-0.13,0.28-0.28,0.28h-5.74c-0.16,0-0.28-0.13-0.28-0.28v-3.38
		c0-0.16,0.13-0.28,0.28-0.28H100.35z"/>
	<path d="M100.35,53.02c0.16,0,0.28,0.13,0.28,0.28v3.38c0,0.16-0.13,0.28-0.28,0.28h-5.74c-0.16,0-0.28-0.13-0.28-0.28V53.3
		c0-0.16,0.13-0.28,0.28-0.28H100.35z"/>
	<path d="M100.35,57.69c0.16,0,0.28,0.13,0.28,0.28v3.38c0,0.16-0.13,0.28-0.28,0.28h-5.74c-0.16,0-0.28-0.13-0.28-0.28v-3.38
		c0-0.16,0.13-0.28,0.28-0.28H100.35z"/>
	<path d="M100.35,62.39c0.16,0,0.28,0.13,0.28,0.28v3.38c0,0.16-0.13,0.28-0.28,0.28h-5.74c-0.16,0-0.28-0.13-0.28-0.28v-3.38
		c0-0.16,0.13-0.28,0.28-0.28C94.61,62.39,100.35,62.39,100.35,62.39z"/>
	<path d="M100.35,67.14c0.16,0,0.28,0.13,0.28,0.28v3.38c0,0.16-0.13,0.28-0.28,0.28h-5.74c-0.16,0-0.28-0.13-0.28-0.28v-3.38
		c0-0.16,0.13-0.28,0.28-0.28H100.35z"/>
	<path d="M100.35,74.27c0.16,0,0.28,0.13,0.28,0.28v3.38c0,0.16-0.13,0.28-0.28,0.28h-5.74c-0.16,0-0.28-0.13-0.28-0.28v-3.38
		c0-0.16,0.13-0.28,0.28-0.28H100.35z"/>
	<path d="M100.35,81.35c0.16,0,0.28,0.13,0.28,0.28v3.38c0,0.16-0.13,0.28-0.28,0.28h-5.74c-0.16,0-0.28-0.13-0.28-0.28v-3.38
		c0-0.16,0.13-0.28,0.28-0.28H100.35z"/>
	<path d="M38.04,12.1c0.16,0,0.28,0.13,0.28,0.28v4.88c0,0.16-0.13,0.28-0.28,0.28H31.3c-0.16,0-0.28-0.13-0.28-0.28v-4.88
		c0-0.16,0.13-0.28,0.28-0.28H38.04z"/>
	<path d="M41.41,96.26c0.16,0,0.28,0.13,0.28,0.28v4.88c0,0.16-0.13,0.28-0.28,0.28h-6.74c-0.16,0-0.28-0.13-0.28-0.28v-4.88
		c0-0.16,0.13-0.28,0.28-0.28H41.41z"/>
	<path d="M128.25,71.58c0,1.56-1.27,2.83-2.84,2.83c-1.56,0-2.83-1.27-2.83-2.83c0-1.57,1.27-2.84,2.83-2.84
		C126.98,68.75,128.25,70.02,128.25,71.58z"/>
	<path d="M121.05,71.59c0,1.56-1.27,2.83-2.84,2.83c-1.56,0-2.83-1.27-2.83-2.83c0-1.57,1.27-2.84,2.83-2.84
		C119.78,68.75,121.05,70.02,121.05,71.59z"/>
	<path d="M128.25,64.39c0,1.57-1.27,2.84-2.84,2.84c-1.56,0-2.83-1.27-2.83-2.84c0-1.56,1.27-2.83,2.83-2.83
		C126.98,61.55,128.25,62.82,128.25,64.39z"/>
	<path d="M128.25,57.19c0,1.56-1.27,2.83-2.84,2.83c-1.56,0-2.83-1.27-2.83-2.83c0-1.57,1.27-2.84,2.83-2.84
		C126.98,54.35,128.25,55.62,128.25,57.19z"/>
	<path d="M121.05,64.39c0,1.57-1.27,2.84-2.84,2.84c-1.56,0-2.83-1.27-2.83-2.84c0-1.56,1.27-2.83,2.83-2.83
		C119.78,61.55,121.05,62.82,121.05,64.39z"/>
	<path d="M121.05,57.19c0,1.56-1.27,2.83-2.84,2.83c-1.56,0-2.83-1.27-2.83-2.83c0-1.57,1.27-2.84,2.83-2.84
		C119.78,54.35,121.05,55.62,121.05,57.19z"/>
	<path d="M128.25,49.99c0,1.57-1.27,2.84-2.84,2.84c-1.56,0-2.83-1.27-2.83-2.84c0-1.56,1.27-2.83,2.83-2.83
		C126.98,47.15,128.25,48.42,128.25,49.99z"/>
	<path d="M128.25,42.79c0,1.56-1.27,2.83-2.84,2.83c-1.56,0-2.83-1.27-2.83-2.83c0-1.57,1.27-2.84,2.83-2.84
		C126.98,39.95,128.25,41.22,128.25,42.79z"/>
	<path d="M121.04,49.99c0,1.57-1.27,2.84-2.84,2.84c-1.56,0-2.83-1.27-2.83-2.84c0-1.56,1.27-2.83,2.83-2.83
		C119.77,47.15,121.04,48.42,121.04,49.99z"/>
	<path d="M121.04,42.79c0,1.56-1.27,2.83-2.84,2.83c-1.56,0-2.83-1.27-2.83-2.83c0-1.57,1.27-2.84,2.83-2.84
		C119.77,39.95,121.04,41.22,121.04,42.79z"/>
	<path d="M52.29,40.41c-0.16,0-0.28-0.13-0.28-0.28v-1.42c0-0.16,0.13-0.28,0.28-0.28h3.97c0.16,0,0.28,0.13,0.28,0.28v1.42
		c0,0.16-0.13,0.28-0.28,0.28H52.29z"/>
	<path d="M52.29,43.53c-0.16,0-0.28-0.13-0.28-0.28v-1.42c0-0.16,0.13-0.28,0.28-0.28h3.97c0.16,0,0.28,0.13,0.28,0.28v1.42
		c0,0.16-0.13,0.28-0.28,0.28H52.29z"/>
	<path d="M52.29,46.65c-0.16,0-0.28-0.13-0.28-0.28v-1.42c0-0.16,0.13-0.28,0.28-0.28h3.97c0.16,0,0.28,0.13,0.28,0.28v1.42
		c0,0.16-0.13,0.28-0.28,0.28H52.29z"/>
	<path d="M52.29,49.77c-0.16,0-0.28-0.13-0.28-0.28v-1.42c0-0.16,0.13-0.28,0.28-0.28h3.97c0.16,0,0.28,0.13,0.28,0.28v1.42
		c0,0.16-0.13,0.28-0.28,0.28H52.29z"/>
	<path d="M52.29,52.89c-0.16,0-0.28-0.13-0.28-0.28v-1.42c0-0.16,0.13-0.28,0.28-0.28h3.97c0.16,0,0.28,0.13,0.28,0.28v1.42
		c0,0.16-0.13,0.28-0.28,0.28H52.29z"/>
	<path d="M52.29,56C52.13,56,52,55.88,52,55.72V54.3c0-0.16,0.13-0.28,0.28-0.28h3.97c0.16,0,0.28,0.13,0.28,0.28v1.42
		c0,0.16-0.13,0.28-0.28,0.28C56.25,56,52.29,56,52.29,56z"/>
	<path d="M52.29,59.12c-0.16,0-0.28-0.13-0.28-0.28v-1.42c0-0.16,0.13-0.28,0.28-0.28h3.97c0.16,0,0.28,0.13,0.28,0.28v1.42
		c0,0.16-0.13,0.28-0.28,0.28H52.29z"/>
	<path d="M52.29,62.24c-0.16,0-0.28-0.13-0.28-0.28v-1.42c0-0.16,0.13-0.28,0.28-0.28h3.97c0.16,0,0.28,0.13,0.28,0.28v1.42
		c0,0.16-0.13,0.28-0.28,0.28H52.29z"/>
	<path d="M52.29,65.36c-0.16,0-0.28-0.13-0.28-0.28v-1.42c0-0.16,0.13-0.28,0.28-0.28h3.97c0.16,0,0.28,0.13,0.28,0.28v1.42
		c0,0.16-0.13,0.28-0.28,0.28H52.29z"/>
	<path d="M54.8,37.1c0,0.16-0.13,0.28-0.28,0.28h-3.4c-0.16,0-0.28-0.13-0.28-0.28v-2.27c0-0.16,0.13-0.28,0.28-0.28h3.4
		c0.16,0,0.28,0.13,0.28,0.28V37.1z"/>
	<path d="M28.43,81.39c0,0.16-0.13,0.28-0.28,0.28h-5.67c-0.16,0-0.28-0.13-0.28-0.28v-2.83c0-0.16,0.13-0.28,0.28-0.28h5.67
		c0.16,0,0.28,0.13,0.28,0.28V81.39z"/>
	<path d="M28.43,37.51c0,0.16-0.13,0.28-0.28,0.28h-5.67c-0.16,0-0.28-0.13-0.28-0.28v-2.83c0-0.16,0.13-0.28,0.28-0.28h5.67
		c0.16,0,0.28,0.13,0.28,0.28V37.51z"/>
	<path d="M54.8,79.42c0,0.16-0.13,0.28-0.28,0.28h-3.4c-0.16,0-0.28-0.13-0.28-0.28v-3.97c0-0.16,0.13-0.28,0.28-0.28h3.4
		c0.16,0,0.28,0.13,0.28,0.28V79.42z"/>
	<path d="M103.57,59.33c-0.16,0-0.28,0.13-0.28,0.28v2.03c0,0.16,0.13,0.28,0.28,0.28h2.75c0.16,0,0.28-0.13,0.28-0.28v-2.03
		c0-0.16-0.13-0.28-0.28-0.28H103.57z"/>
	<path d="M103.57,53.69c-0.16,0-0.28,0.13-0.28,0.28V56c0,0.16,0.13,0.28,0.28,0.28h2.75c0.16,0,0.28-0.13,0.28-0.28v-2.03
		c0-0.16-0.13-0.28-0.28-0.28H103.57z"/>
</g>
</svg>
