<?xml version="1.0" encoding="utf-8"?>
<!-- Generator: Adobe Illustrator 27.0.0, SVG Export Plug-In . SVG Version: 6.00 Build 0)  -->
<svg version="1.1" id="Calque_1" xmlns="http://www.w3.org/2000/svg" xmlns:xlink="http://www.w3.org/1999/xlink" x="0px" y="0px"
	 viewBox="0 0 148.69 114.36" style="enable-background:new 0 0 148.69 114.36;" xml:space="preserve">
<style type="text/css">
	.st0{fill:none;stroke:#000000;stroke-width:0.1;stroke-miterlimit:10;}
	.st1{fill:none;stroke:#000000;stroke-width:0.5;}
</style>
<g>
	<path class="st0" d="M12.12,97.55c0,3.72,2.75,6.42,6.29,6.42h111.13c3.14,0,6.17-2.7,6.17-6.42V16.56c0-3.72-3.01-6.73-6.73-6.73
		H18.85c-3.71,0-6.73,3.01-6.73,6.73C12.12,16.56,12.12,97.55,12.12,97.55z"/>
</g>
<g>
	<polygon class="st1" points="114.63,41.94 117.67,38.92 128.92,38.92 128.92,75.74 114.63,75.74 	"/>
	<rect x="109.59" y="29.31" class="st1" width="24.38" height="56.04"/>
	<polyline class="st1" points="114.56,53.19 112.64,53.19 112.64,61.19 114.56,61.19 	"/>
	<rect x="103.55" y="56.96" class="st1" width="2.83" height="1.62"/>
	<path class="st1" d="M14.69,37.22h36.87V78.8H12.32v-8.46c0,0,2.29-4.62,2.29-12.04S14.69,37.22,14.69,37.22z"/>
	<path class="st1" d="M13.21,88.23v9.84h80.57v-81.5H13.21v8.91h2c17.33,0,31.37,14.05,31.37,31.37S32.54,88.23,15.21,88.23H13.21z"
		/>
</g>
</svg>
