%FSLAX46Y46*%
%MOMM*%
%LPD*%
G01*
%ADD10C,0.050000*%
D10*
%LPD*%
%ADD11C,0.0305514*%
D11*
X0006759216Y0097962770D02*
G01*
X0006759216Y0097962770D01*
X0006759346Y0097993497D01*
X0006760897Y0098054636D01*
X0006763981Y0098115381D01*
X0006768578Y0098175712D01*
X0006774670Y0098235612D01*
X0006782238Y0098295061D01*
X0006791263Y0098354040D01*
X0006801727Y0098412533D01*
X0006813610Y0098470519D01*
X0006826893Y0098527980D01*
X0006841559Y0098584898D01*
X0006857588Y0098641254D01*
X0006874961Y0098697030D01*
X0006893659Y0098752206D01*
X0006913664Y0098806765D01*
X0006934957Y0098860688D01*
X0006957519Y0098913956D01*
X0006981331Y0098966551D01*
X0007006374Y0099018454D01*
X0007032630Y0099069646D01*
X0007060080Y0099120109D01*
X0007088705Y0099169825D01*
X0007118486Y0099218774D01*
X0007149404Y0099266939D01*
X0007181441Y0099314300D01*
X0007214578Y0099360840D01*
X0007248795Y0099406539D01*
X0007284074Y0099451379D01*
X0007320397Y0099495341D01*
X0007357744Y0099538408D01*
X0007396097Y0099580559D01*
X0007435436Y0099621777D01*
X0007475744Y0099662043D01*
X0007517001Y0099701339D01*
X0007559188Y0099739646D01*
X0007602287Y0099776945D01*
X0007646278Y0099813218D01*
X0007691144Y0099848446D01*
X0007736864Y0099882611D01*
X0007783421Y0099915694D01*
X0007830795Y0099947677D01*
X0007878968Y0099978540D01*
X0007927921Y0100008266D01*
X0007977635Y0100036836D01*
X0008028091Y0100064231D01*
X0008079271Y0100090432D01*
X0008131155Y0100115422D01*
X0008183725Y0100139181D01*
X0008236962Y0100161691D01*
X0008290847Y0100182934D01*
X0008345362Y0100202891D01*
X0008400487Y0100221542D01*
X0008456204Y0100238871D01*
X0008512493Y0100254857D01*
X0008569337Y0100269483D01*
X0008626717Y0100282730D01*
X0008684612Y0100294579D01*
X0008743005Y0100305013D01*
X0008801878Y0100314011D01*
X0008861210Y0100321556D01*
X0008920983Y0100327630D01*
X0008981179Y0100332212D01*
X0009041779Y0100335286D01*
X0009102763Y0100336832D01*
X0009133408Y0100336962D01*
X0015839707Y0100336962D01*
X0015839707Y0096325882D01*
X0067200576Y0096325882D01*
X0067200576Y0100336962D01*
X0073031987Y0100336962D01*
X0073031987Y0100336962D01*
X0073062715Y0100336832D01*
X0073123854Y0100335286D01*
X0073184599Y0100332212D01*
X0073244930Y0100327630D01*
X0073304829Y0100321556D01*
X0073364278Y0100314011D01*
X0073423258Y0100305013D01*
X0073481750Y0100294579D01*
X0073539736Y0100282730D01*
X0073597198Y0100269483D01*
X0073654116Y0100254857D01*
X0073710472Y0100238871D01*
X0073766247Y0100221542D01*
X0073821424Y0100202891D01*
X0073875983Y0100182934D01*
X0073929906Y0100161691D01*
X0073983174Y0100139181D01*
X0074035768Y0100115422D01*
X0074087671Y0100090432D01*
X0074138864Y0100064231D01*
X0074189327Y0100036836D01*
X0074239043Y0100008266D01*
X0074287992Y0099978540D01*
X0074336157Y0099947677D01*
X0074383518Y0099915694D01*
X0074430058Y0099882611D01*
X0074475757Y0099848446D01*
X0074520597Y0099813218D01*
X0074564559Y0099776945D01*
X0074607625Y0099739646D01*
X0074649777Y0099701339D01*
X0074690995Y0099662043D01*
X0074731261Y0099621777D01*
X0074770557Y0099580559D01*
X0074808864Y0099538408D01*
X0074846163Y0099495341D01*
X0074882436Y0099451379D01*
X0074917664Y0099406539D01*
X0074951829Y0099360840D01*
X0074984912Y0099314300D01*
X0075016894Y0099266939D01*
X0075047758Y0099218774D01*
X0075077484Y0099169825D01*
X0075106053Y0099120109D01*
X0075133448Y0099069646D01*
X0075159650Y0099018454D01*
X0075184640Y0098966551D01*
X0075208399Y0098913956D01*
X0075230909Y0098860688D01*
X0075252152Y0098806765D01*
X0075272108Y0098752206D01*
X0075290760Y0098697030D01*
X0075308088Y0098641254D01*
X0075324075Y0098584898D01*
X0075338701Y0098527980D01*
X0075351948Y0098470519D01*
X0075363797Y0098412533D01*
X0075374230Y0098354040D01*
X0075383229Y0098295061D01*
X0075390774Y0098235612D01*
X0075396847Y0098175712D01*
X0075401430Y0098115381D01*
X0075404504Y0098054636D01*
X0075406050Y0097993497D01*
X0075406180Y0097962770D01*
X0075406180Y0006593411D01*
X0075406180Y0006593411D01*
X0075406050Y0006562683D01*
X0075404504Y0006501544D01*
X0075401430Y0006440799D01*
X0075396847Y0006380468D01*
X0075390774Y0006320569D01*
X0075383229Y0006261120D01*
X0075374230Y0006202140D01*
X0075363797Y0006143648D01*
X0075351948Y0006085661D01*
X0075338701Y0006028200D01*
X0075324075Y0005971282D01*
X0075308088Y0005914926D01*
X0075290760Y0005859151D01*
X0075272108Y0005803974D01*
X0075252152Y0005749415D01*
X0075230909Y0005695492D01*
X0075208399Y0005642224D01*
X0075184640Y0005589630D01*
X0075159650Y0005537727D01*
X0075133448Y0005486534D01*
X0075106053Y0005436071D01*
X0075077484Y0005386355D01*
X0075047758Y0005337406D01*
X0075016894Y0005289241D01*
X0074984912Y0005241880D01*
X0074951829Y0005195340D01*
X0074917664Y0005149641D01*
X0074882436Y0005104801D01*
X0074846163Y0005060839D01*
X0074808864Y0005017773D01*
X0074770557Y0004975621D01*
X0074731261Y0004934403D01*
X0074690995Y0004894137D01*
X0074649777Y0004854841D01*
X0074607625Y0004816534D01*
X0074564559Y0004779235D01*
X0074520597Y0004742962D01*
X0074475757Y0004707734D01*
X0074430058Y0004673569D01*
X0074383518Y0004640486D01*
X0074336157Y0004608504D01*
X0074287992Y0004577640D01*
X0074239043Y0004547914D01*
X0074189327Y0004519345D01*
X0074138864Y0004491950D01*
X0074087671Y0004465748D01*
X0074035768Y0004440758D01*
X0073983174Y0004416999D01*
X0073929906Y0004394489D01*
X0073875983Y0004373246D01*
X0073821424Y0004353290D01*
X0073766247Y0004334638D01*
X0073710472Y0004317310D01*
X0073654116Y0004301323D01*
X0073597198Y0004286697D01*
X0073539736Y0004273450D01*
X0073481750Y0004261601D01*
X0073423258Y0004251168D01*
X0073364278Y0004242169D01*
X0073304829Y0004234624D01*
X0073244930Y0004228551D01*
X0073184599Y0004223968D01*
X0073123854Y0004220894D01*
X0073062715Y0004219348D01*
X0073031987Y0004219218D01*
X0009133408Y0004219218D01*
X0009133408Y0004219218D01*
X0009102763Y0004219348D01*
X0009041779Y0004220894D01*
X0008981179Y0004223968D01*
X0008920983Y0004228551D01*
X0008861210Y0004234624D01*
X0008801878Y0004242169D01*
X0008743005Y0004251168D01*
X0008684612Y0004261601D01*
X0008626717Y0004273450D01*
X0008569337Y0004286697D01*
X0008512493Y0004301323D01*
X0008456204Y0004317310D01*
X0008400487Y0004334638D01*
X0008345362Y0004353290D01*
X0008290847Y0004373246D01*
X0008236962Y0004394489D01*
X0008183725Y0004416999D01*
X0008131155Y0004440758D01*
X0008079271Y0004465748D01*
X0008028091Y0004491950D01*
X0007977635Y0004519345D01*
X0007927921Y0004547914D01*
X0007878968Y0004577640D01*
X0007830795Y0004608504D01*
X0007783421Y0004640486D01*
X0007736864Y0004673569D01*
X0007691144Y0004707734D01*
X0007646278Y0004742962D01*
X0007602287Y0004779235D01*
X0007559188Y0004816534D01*
X0007517001Y0004854841D01*
X0007475744Y0004894137D01*
X0007435436Y0004934403D01*
X0007396097Y0004975621D01*
X0007357744Y0005017773D01*
X0007320397Y0005060839D01*
X0007284074Y0005104801D01*
X0007248795Y0005149641D01*
X0007214578Y0005195340D01*
X0007181441Y0005241880D01*
X0007149404Y0005289241D01*
X0007118486Y0005337406D01*
X0007088705Y0005386355D01*
X0007060080Y0005436071D01*
X0007032630Y0005486534D01*
X0007006374Y0005537727D01*
X0006981331Y0005589630D01*
X0006957519Y0005642224D01*
X0006934957Y0005695492D01*
X0006913664Y0005749415D01*
X0006893659Y0005803974D01*
X0006874961Y0005859151D01*
X0006857588Y0005914926D01*
X0006841559Y0005971282D01*
X0006826893Y0006028200D01*
X0006813610Y0006085661D01*
X0006801727Y0006143648D01*
X0006791263Y0006202140D01*
X0006782238Y0006261120D01*
X0006774670Y0006320569D01*
X0006768578Y0006380468D01*
X0006763981Y0006440799D01*
X0006760897Y0006501544D01*
X0006759346Y0006562683D01*
X0006759216Y0006593411D01*
X0006759216Y0022193229D01*
X0006759216Y0022193229D01*
X0006814826Y0022265176D01*
X0006924866Y0022410025D01*
X0007033479Y0022556010D01*
X0007140656Y0022703122D01*
X0007246386Y0022851349D01*
X0007350659Y0023000682D01*
X0007453464Y0023151109D01*
X0007554791Y0023302620D01*
X0007654629Y0023455205D01*
X0007752970Y0023608853D01*
X0007849801Y0023763554D01*
X0007945113Y0023919296D01*
X0008038895Y0024076071D01*
X0008131137Y0024233867D01*
X0008221829Y0024392673D01*
X0008310961Y0024552480D01*
X0008398521Y0024713276D01*
X0008484500Y0024875051D01*
X0008568888Y0025037795D01*
X0008651674Y0025201498D01*
X0008732847Y0025366148D01*
X0008812397Y0025531735D01*
X0008890315Y0025698249D01*
X0008966589Y0025865679D01*
X0009041210Y0026034015D01*
X0009114167Y0026203246D01*
X0009185449Y0026373361D01*
X0009255047Y0026544351D01*
X0009322950Y0026716205D01*
X0009389147Y0026888912D01*
X0009453629Y0027062462D01*
X0009516385Y0027236844D01*
X0009577404Y0027412047D01*
X0009636677Y0027588062D01*
X0009694193Y0027764878D01*
X0009749941Y0027942483D01*
X0009803912Y0028120869D01*
X0009856095Y0028300024D01*
X0009906480Y0028479937D01*
X0009955055Y0028660599D01*
X0010001812Y0028841999D01*
X0010046740Y0029024126D01*
X0010089827Y0029206969D01*
X0010131065Y0029390519D01*
X0010170443Y0029574765D01*
X0010207949Y0029759696D01*
X0010243575Y0029945302D01*
X0010277309Y0030131572D01*
X0010309142Y0030318496D01*
X0010339063Y0030506063D01*
X0010367061Y0030694263D01*
X0010393126Y0030883085D01*
X0010417249Y0031072519D01*
X0010439418Y0031262554D01*
X0010459624Y0031453180D01*
X0010477855Y0031644387D01*
X0010494102Y0031836163D01*
X0010508354Y0032028498D01*
X0010520602Y0032221383D01*
X0010530834Y0032414805D01*
X0010539040Y0032608756D01*
X0010545210Y0032803224D01*
X0010549334Y0032998198D01*
X0010551401Y0033193669D01*
X0010551573Y0033291608D01*
X0010551573Y0033291608D01*
X0010551401Y0033389546D01*
X0010549334Y0033585017D01*
X0010545210Y0033779992D01*
X0010539040Y0033974460D01*
X0010530834Y0034168410D01*
X0010520602Y0034361833D01*
X0010508354Y0034554717D01*
X0010494102Y0034747053D01*
X0010477855Y0034938829D01*
X0010459624Y0035130036D01*
X0010439418Y0035320662D01*
X0010417249Y0035510697D01*
X0010393126Y0035700131D01*
X0010367061Y0035888953D01*
X0010339063Y0036077153D01*
X0010309142Y0036264720D01*
X0010277309Y0036451644D01*
X0010243575Y0036637914D01*
X0010207949Y0036823520D01*
X0010170443Y0037008451D01*
X0010131065Y0037192696D01*
X0010089827Y0037376246D01*
X0010046740Y0037559090D01*
X0010001812Y0037741217D01*
X0009955055Y0037922616D01*
X0009906480Y0038103278D01*
X0009856095Y0038283192D01*
X0009803912Y0038462347D01*
X0009749941Y0038640732D01*
X0009694193Y0038818338D01*
X0009636677Y0038995154D01*
X0009577404Y0039171169D01*
X0009516385Y0039346372D01*
X0009453629Y0039520754D01*
X0009389147Y0039694304D01*
X0009322950Y0039867011D01*
X0009255047Y0040038864D01*
X0009185449Y0040209854D01*
X0009114167Y0040379970D01*
X0009041210Y0040549201D01*
X0008966589Y0040717537D01*
X0008890315Y0040884967D01*
X0008812397Y0041051481D01*
X0008732847Y0041217068D01*
X0008651674Y0041381718D01*
X0008568888Y0041545420D01*
X0008484500Y0041708164D01*
X0008398521Y0041869940D01*
X0008310961Y0042030736D01*
X0008221829Y0042190543D01*
X0008131137Y0042349349D01*
X0008038895Y0042507145D01*
X0007945113Y0042663919D01*
X0007849801Y0042819662D01*
X0007752970Y0042974363D01*
X0007654629Y0043128011D01*
X0007554791Y0043280596D01*
X0007453464Y0043432107D01*
X0007350659Y0043582534D01*
X0007246386Y0043731866D01*
X0007140656Y0043880094D01*
X0007033479Y0044027205D01*
X0006924866Y0044173191D01*
X0006814826Y0044318040D01*
X0006759216Y0044389986D01*
X0006759216Y0051755980D01*
X0006759216Y0051755980D01*
X0006834329Y0051825253D01*
X0006981590Y0051966933D01*
X0007125225Y0052112301D01*
X0007265158Y0052261282D01*
X0007401315Y0052413800D01*
X0007533621Y0052569778D01*
X0007662000Y0052729140D01*
X0007786379Y0052891810D01*
X0007906681Y0053057712D01*
X0008022833Y0053226769D01*
X0008134759Y0053398906D01*
X0008242384Y0053574046D01*
X0008345634Y0053752112D01*
X0008420013Y0053887624D01*
X0008468286Y0053978781D01*
X0008515422Y0054070627D01*
X0008561414Y0054163152D01*
X0008606250Y0054256347D01*
X0008649922Y0054350202D01*
X0008692421Y0054444707D01*
X0008733737Y0054539854D01*
X0008773860Y0054635633D01*
X0008812782Y0054732034D01*
X0008850493Y0054829047D01*
X0008886983Y0054926664D01*
X0008922244Y0055024874D01*
X0008956266Y0055123668D01*
X0008989039Y0055223036D01*
X0009020554Y0055322970D01*
X0009050802Y0055423458D01*
X0009079774Y0055524493D01*
X0009107459Y0055626065D01*
X0009133850Y0055728163D01*
X0009158935Y0055830778D01*
X0009182707Y0055933901D01*
X0009205155Y0056037523D01*
X0009226271Y0056141633D01*
X0009246044Y0056246222D01*
X0009264466Y0056351282D01*
X0009281527Y0056456801D01*
X0009297218Y0056562771D01*
X0009311529Y0056669182D01*
X0009324451Y0056776024D01*
X0009335975Y0056883289D01*
X0009346091Y0056990966D01*
X0009354790Y0057099047D01*
X0009362062Y0057207520D01*
X0009367899Y0057316378D01*
X0009372291Y0057425610D01*
X0009375228Y0057535207D01*
X0009376701Y0057645159D01*
X0009376825Y0057700280D01*
X0009376825Y0057700280D01*
X0009376701Y0057755400D01*
X0009375228Y0057865347D01*
X0009372291Y0057974934D01*
X0009367899Y0058084152D01*
X0009362062Y0058192990D01*
X0009354790Y0058301441D01*
X0009346091Y0058409495D01*
X0009335975Y0058517142D01*
X0009324451Y0058624373D01*
X0009311529Y0058731179D01*
X0009297218Y0058837550D01*
X0009281527Y0058943478D01*
X0009264466Y0059048953D01*
X0009246044Y0059153965D01*
X0009226271Y0059258506D01*
X0009205155Y0059362566D01*
X0009182707Y0059466136D01*
X0009158935Y0059569206D01*
X0009133850Y0059671768D01*
X0009107459Y0059773811D01*
X0009079774Y0059875328D01*
X0009050802Y0059976307D01*
X0009020554Y0060076741D01*
X0008989039Y0060176620D01*
X0008956266Y0060275934D01*
X0008922244Y0060374675D01*
X0008886983Y0060472832D01*
X0008850493Y0060570398D01*
X0008812782Y0060667361D01*
X0008773860Y0060763714D01*
X0008733737Y0060859446D01*
X0008692421Y0060954550D01*
X0008649922Y0061049014D01*
X0008606250Y0061142830D01*
X0008561414Y0061235990D01*
X0008515422Y0061328482D01*
X0008444432Y0061466037D01*
X0008345634Y0061646911D01*
X0008242384Y0061824952D01*
X0008134759Y0062000085D01*
X0008022833Y0062172235D01*
X0007906681Y0062341330D01*
X0007786379Y0062507294D01*
X0007662000Y0062670053D01*
X0007533621Y0062829533D01*
X0007401315Y0062985659D01*
X0007265158Y0063138357D01*
X0007125225Y0063287554D01*
X0006981590Y0063433174D01*
X0006834329Y0063575144D01*
X0006759216Y0063644580D01*
X0006759216Y0097962770D01*
X0006759216Y0097962770D01*
M02*
