%FSLAX46Y46*%
%MOMM*%
%LPD*%
G01*
%ADD10C,0.050000*%
D10*
%LPD*%
%ADD11C,0.0305514*%
D11*
X0004275663Y0005930189D02*
G01*
X0004275663Y0005930189D01*
X0004275781Y0005899475D01*
X0004277194Y0005838493D01*
X0004280005Y0005778059D01*
X0004284197Y0005718186D01*
X0004289755Y0005658887D01*
X0004296662Y0005600177D01*
X0004304904Y0005542068D01*
X0004314464Y0005484574D01*
X0004325326Y0005427710D01*
X0004337475Y0005371487D01*
X0004350895Y0005315921D01*
X0004365570Y0005261024D01*
X0004381484Y0005206811D01*
X0004398621Y0005153294D01*
X0004416965Y0005100487D01*
X0004436501Y0005048404D01*
X0004457213Y0004997058D01*
X0004479085Y0004946463D01*
X0004502101Y0004896633D01*
X0004526245Y0004847581D01*
X0004551502Y0004799320D01*
X0004577856Y0004751865D01*
X0004605290Y0004705228D01*
X0004633789Y0004659424D01*
X0004663338Y0004614466D01*
X0004693920Y0004570367D01*
X0004725519Y0004527141D01*
X0004758120Y0004484801D01*
X0004791707Y0004443362D01*
X0004826265Y0004402836D01*
X0004861776Y0004363238D01*
X0004898226Y0004324580D01*
X0004935598Y0004286877D01*
X0004973877Y0004250142D01*
X0005013047Y0004214389D01*
X0005053092Y0004179630D01*
X0005093997Y0004145880D01*
X0005135745Y0004113153D01*
X0005178320Y0004081461D01*
X0005221708Y0004050818D01*
X0005265891Y0004021239D01*
X0005310854Y0003992736D01*
X0005356582Y0003965323D01*
X0005403058Y0003939013D01*
X0005450267Y0003913821D01*
X0005498193Y0003889759D01*
X0005546820Y0003866842D01*
X0005596132Y0003845083D01*
X0005646113Y0003824495D01*
X0005696748Y0003805092D01*
X0005748021Y0003786888D01*
X0005799916Y0003769896D01*
X0005852416Y0003754129D01*
X0005905507Y0003739602D01*
X0005959172Y0003726328D01*
X0006013396Y0003714320D01*
X0006068163Y0003703592D01*
X0006123456Y0003694157D01*
X0006179261Y0003686030D01*
X0006235561Y0003679223D01*
X0006292341Y0003673751D01*
X0006349584Y0003669626D01*
X0006407274Y0003666862D01*
X0006465397Y0003665474D01*
X0006494633Y0003665358D01*
X0045698791Y0003665358D01*
X0045698791Y0003665358D01*
X0045724748Y0003665474D01*
X0045776604Y0003666862D01*
X0045828368Y0003669626D01*
X0045880015Y0003673751D01*
X0045931524Y0003679223D01*
X0045982869Y0003686030D01*
X0046059558Y0003698549D01*
X0046160989Y0003720005D01*
X0046261343Y0003746554D01*
X0046360432Y0003778087D01*
X0046458068Y0003814496D01*
X0046554062Y0003855671D01*
X0046648226Y0003901506D01*
X0046740370Y0003951890D01*
X0046830306Y0004006716D01*
X0046917846Y0004065875D01*
X0047002801Y0004129259D01*
X0047084982Y0004196759D01*
X0047164200Y0004268266D01*
X0047240268Y0004343672D01*
X0047312996Y0004422869D01*
X0047382196Y0004505747D01*
X0047447679Y0004592199D01*
X0047509256Y0004682116D01*
X0047552631Y0004751865D01*
X0047580314Y0004799320D01*
X0047606914Y0004847581D01*
X0047632409Y0004896633D01*
X0047656773Y0004946463D01*
X0047679985Y0004997058D01*
X0047702020Y0005048404D01*
X0047722854Y0005100487D01*
X0047742465Y0005153294D01*
X0047760828Y0005206811D01*
X0047777920Y0005261024D01*
X0047793717Y0005315921D01*
X0047808196Y0005371487D01*
X0047821333Y0005427710D01*
X0047833105Y0005484574D01*
X0047843488Y0005542068D01*
X0047852459Y0005600177D01*
X0047859993Y0005658887D01*
X0047866067Y0005718186D01*
X0047870659Y0005778059D01*
X0047873743Y0005838493D01*
X0047875297Y0005899475D01*
X0047875428Y0005930189D01*
X0047875428Y0034501634D01*
X0047875428Y0034501634D01*
X0047875298Y0034532362D01*
X0047873752Y0034593501D01*
X0047870678Y0034654246D01*
X0047866095Y0034714577D01*
X0047860022Y0034774476D01*
X0047852477Y0034833925D01*
X0047843478Y0034892905D01*
X0047833045Y0034951397D01*
X0047821196Y0035009384D01*
X0047807949Y0035066845D01*
X0047793323Y0035123763D01*
X0047777336Y0035180119D01*
X0047760008Y0035235895D01*
X0047741356Y0035291071D01*
X0047721400Y0035345630D01*
X0047700157Y0035399553D01*
X0047677647Y0035452821D01*
X0047653888Y0035505415D01*
X0047628898Y0035557318D01*
X0047602696Y0035608511D01*
X0047575301Y0035658974D01*
X0047546732Y0035708690D01*
X0047517006Y0035757639D01*
X0047486142Y0035805804D01*
X0047454160Y0035853165D01*
X0047421077Y0035899705D01*
X0047386912Y0035945404D01*
X0047351684Y0035990244D01*
X0047315411Y0036034206D01*
X0047278112Y0036077272D01*
X0047239805Y0036119424D01*
X0047200509Y0036160642D01*
X0047160243Y0036200908D01*
X0047119025Y0036240204D01*
X0047076873Y0036278511D01*
X0047033807Y0036315810D01*
X0046989845Y0036352083D01*
X0046945005Y0036387311D01*
X0046899306Y0036421476D01*
X0046852766Y0036454559D01*
X0046805405Y0036486541D01*
X0046757240Y0036517405D01*
X0046708290Y0036547131D01*
X0046658575Y0036575700D01*
X0046608111Y0036603095D01*
X0046556919Y0036629297D01*
X0046505016Y0036654287D01*
X0046452422Y0036678046D01*
X0046399154Y0036700556D01*
X0046345231Y0036721799D01*
X0046290672Y0036741755D01*
X0046235495Y0036760407D01*
X0046179720Y0036777735D01*
X0046123364Y0036793722D01*
X0046066446Y0036808348D01*
X0046008984Y0036821595D01*
X0045950998Y0036833444D01*
X0045892506Y0036843877D01*
X0045833526Y0036852876D01*
X0045774077Y0036860421D01*
X0045714178Y0036866494D01*
X0045653847Y0036871077D01*
X0045593102Y0036874151D01*
X0045531963Y0036875697D01*
X0045501235Y0036875827D01*
X0006649855Y0036875827D01*
X0006649855Y0036875827D01*
X0006619210Y0036875697D01*
X0006558225Y0036874151D01*
X0006497626Y0036871077D01*
X0006437430Y0036866494D01*
X0006377657Y0036860421D01*
X0006318324Y0036852876D01*
X0006259452Y0036843877D01*
X0006201059Y0036833444D01*
X0006143163Y0036821595D01*
X0006085784Y0036808348D01*
X0006028940Y0036793722D01*
X0005972651Y0036777735D01*
X0005916934Y0036760407D01*
X0005861809Y0036741755D01*
X0005807294Y0036721799D01*
X0005753409Y0036700556D01*
X0005700172Y0036678046D01*
X0005647602Y0036654287D01*
X0005595718Y0036629297D01*
X0005544538Y0036603095D01*
X0005494082Y0036575700D01*
X0005444368Y0036547131D01*
X0005395415Y0036517405D01*
X0005347242Y0036486541D01*
X0005299868Y0036454559D01*
X0005253311Y0036421476D01*
X0005207590Y0036387311D01*
X0005162725Y0036352083D01*
X0005118733Y0036315810D01*
X0005075635Y0036278511D01*
X0005033448Y0036240204D01*
X0004992191Y0036200908D01*
X0004951883Y0036160642D01*
X0004912544Y0036119424D01*
X0004874191Y0036077272D01*
X0004836844Y0036034206D01*
X0004800521Y0035990244D01*
X0004765242Y0035945404D01*
X0004731024Y0035899705D01*
X0004697888Y0035853165D01*
X0004665851Y0035805804D01*
X0004634933Y0035757639D01*
X0004605152Y0035708690D01*
X0004576527Y0035658974D01*
X0004549077Y0035608511D01*
X0004522821Y0035557318D01*
X0004497778Y0035505415D01*
X0004473966Y0035452821D01*
X0004451404Y0035399553D01*
X0004430111Y0035345630D01*
X0004410106Y0035291071D01*
X0004391407Y0035235895D01*
X0004374034Y0035180119D01*
X0004358006Y0035123763D01*
X0004343340Y0035066845D01*
X0004330056Y0035009384D01*
X0004318173Y0034951397D01*
X0004307710Y0034892905D01*
X0004298685Y0034833925D01*
X0004291117Y0034774476D01*
X0004285025Y0034714577D01*
X0004280428Y0034654246D01*
X0004277344Y0034593501D01*
X0004275793Y0034532362D01*
X0004275663Y0034501634D01*
X0004275663Y0034501634D01*
X0004275663Y0005930189D01*
X0004275663Y0005930189D01*
X0004275663Y0005930189D01*
M02*
