%FSLAX46Y46*%
%MOMM*%
%LPD*%
G01*
%ADD10C,0.050000*%
D10*
%LPD*%
%LPD*%
G36*
X0006498742Y0036853472D02*
G01*
X0006438992Y0036848923D01*
X0006379660Y0036842895D01*
X0006320771Y0036835406D01*
X0006262336Y0036826474D01*
X0006204380Y0036816119D01*
X0006146915Y0036804358D01*
X0006089967Y0036791211D01*
X0006033548Y0036776694D01*
X0005977679Y0036760827D01*
X0005922381Y0036743629D01*
X0005867668Y0036725117D01*
X0005813561Y0036705309D01*
X0005760079Y0036684225D01*
X0005707240Y0036661884D01*
X0005655062Y0036638301D01*
X0005603565Y0036613498D01*
X0005552767Y0036587492D01*
X0005502685Y0036560301D01*
X0005453341Y0036531943D01*
X0005404752Y0036502439D01*
X0005356936Y0036471804D01*
X0005309912Y0036440057D01*
X0005263700Y0036407220D01*
X0005218318Y0036373308D01*
X0005173784Y0036338340D01*
X0005130117Y0036302334D01*
X0005087336Y0036265310D01*
X0005045461Y0036227287D01*
X0005004509Y0036188281D01*
X0004964498Y0036148312D01*
X0004925449Y0036107397D01*
X0004887379Y0036065557D01*
X0004850308Y0036022809D01*
X0004814254Y0035979172D01*
X0004779234Y0035934662D01*
X0004745270Y0035889301D01*
X0004712380Y0035843107D01*
X0004680580Y0035796097D01*
X0004649891Y0035748289D01*
X0004620332Y0035699703D01*
X0004591920Y0035650358D01*
X0004564674Y0035600270D01*
X0004538614Y0035549460D01*
X0004513758Y0035497944D01*
X0004490123Y0035445743D01*
X0004467730Y0035392872D01*
X0004446597Y0035339354D01*
X0004426741Y0035285203D01*
X0004408183Y0035230441D01*
X0004390940Y0035175082D01*
X0004375032Y0035119149D01*
X0004360476Y0035062657D01*
X0004347292Y0035005627D01*
X0004335497Y0034948073D01*
X0004325112Y0034890018D01*
X0004316154Y0034831477D01*
X0004308643Y0034772470D01*
X0004302596Y0034713015D01*
X0004298032Y0034653128D01*
X0004294971Y0034592830D01*
X0004293431Y0034532102D01*
X0004293302Y0034501593D01*
X0004293302Y0005930220D01*
X0004293419Y0005899714D01*
X0004294824Y0005839107D01*
X0004297615Y0005779085D01*
X0004301778Y0005719625D01*
X0004307297Y0005660742D01*
X0004314156Y0005602445D01*
X0004322339Y0005544754D01*
X0004331829Y0005487676D01*
X0004342612Y0005431228D01*
X0004354671Y0005375422D01*
X0004367991Y0005320270D01*
X0004382555Y0005265786D01*
X0004398348Y0005211985D01*
X0004415353Y0005158879D01*
X0004433556Y0005106479D01*
X0004452940Y0005054801D01*
X0004473490Y0005003857D01*
X0004495189Y0004953662D01*
X0004518023Y0004904227D01*
X0004541974Y0004855568D01*
X0004567029Y0004807692D01*
X0004593170Y0004760620D01*
X0004620382Y0004714361D01*
X0004648650Y0004668929D01*
X0004677958Y0004624336D01*
X0004708289Y0004580600D01*
X0004739630Y0004537727D01*
X0004771962Y0004495737D01*
X0004805272Y0004454639D01*
X0004839543Y0004414449D01*
X0004874761Y0004375178D01*
X0004910909Y0004336840D01*
X0004947970Y0004299452D01*
X0004985932Y0004263021D01*
X0005024776Y0004227565D01*
X0005064488Y0004193095D01*
X0005105052Y0004159627D01*
X0005146454Y0004127170D01*
X0005188676Y0004095741D01*
X0005231703Y0004065353D01*
X0005275521Y0004036019D01*
X0005320113Y0004007751D01*
X0005365463Y0003980564D01*
X0005411556Y0003954472D01*
X0005458379Y0003929486D01*
X0005505912Y0003905621D01*
X0005554141Y0003882892D01*
X0005603052Y0003861309D01*
X0005652630Y0003840888D01*
X0005702855Y0003821642D01*
X0005753717Y0003803583D01*
X0005805199Y0003786726D01*
X0005857281Y0003771085D01*
X0005909953Y0003756673D01*
X0005963198Y0003743503D01*
X0006016999Y0003731588D01*
X0006071342Y0003720943D01*
X0006126212Y0003711581D01*
X0006181591Y0003703515D01*
X0006237465Y0003696760D01*
X0006293821Y0003691328D01*
X0006350640Y0003687234D01*
X0006407907Y0003684491D01*
X0006465642Y0003683112D01*
X0006494668Y0003682997D01*
X0045698751Y0003682997D01*
X0045724472Y0003683112D01*
X0045775898Y0003684489D01*
X0045827195Y0003687227D01*
X0045878381Y0003691315D01*
X0045929432Y0003696739D01*
X0045980289Y0003703481D01*
X0046056311Y0003715892D01*
X0046156905Y0003737171D01*
X0046256410Y0003763495D01*
X0046354673Y0003794765D01*
X0046451506Y0003830874D01*
X0046546722Y0003871716D01*
X0046640130Y0003917183D01*
X0046731543Y0003967167D01*
X0046820772Y0004021562D01*
X0046907628Y0004080259D01*
X0046991923Y0004143151D01*
X0047073468Y0004210128D01*
X0047152075Y0004281083D01*
X0047227556Y0004355908D01*
X0047299723Y0004434494D01*
X0047368388Y0004516731D01*
X0047433364Y0004602514D01*
X0047494483Y0004691761D01*
X0047537521Y0004760969D01*
X0047564969Y0004808022D01*
X0047591363Y0004855907D01*
X0047616658Y0004904576D01*
X0047640832Y0004954016D01*
X0047663861Y0005004214D01*
X0047685724Y0005055159D01*
X0047706395Y0005106832D01*
X0047725853Y0005159228D01*
X0047744072Y0005212326D01*
X0047761030Y0005266115D01*
X0047776704Y0005320584D01*
X0047791071Y0005375719D01*
X0047804106Y0005431505D01*
X0047815787Y0005487930D01*
X0047826090Y0005544981D01*
X0047834992Y0005602646D01*
X0047842469Y0005660909D01*
X0047848497Y0005719760D01*
X0047853054Y0005779183D01*
X0047856116Y0005839167D01*
X0047857659Y0005899738D01*
X0047857789Y0005930222D01*
X0047857789Y0034501594D01*
X0047857660Y0034532103D01*
X0047856124Y0034592832D01*
X0047853073Y0034653131D01*
X0047848524Y0034713019D01*
X0047842495Y0034772476D01*
X0047835006Y0034831485D01*
X0047826075Y0034890025D01*
X0047815719Y0034948083D01*
X0047803958Y0035005636D01*
X0047790810Y0035062668D01*
X0047776293Y0035119160D01*
X0047760427Y0035175095D01*
X0047743228Y0035230453D01*
X0047724716Y0035285216D01*
X0047704909Y0035339367D01*
X0047683825Y0035392885D01*
X0047661483Y0035445756D01*
X0047637901Y0035497957D01*
X0047613098Y0035549474D01*
X0047587092Y0035600283D01*
X0047559901Y0035650371D01*
X0047531544Y0035699717D01*
X0047502040Y0035748301D01*
X0047471405Y0035796109D01*
X0047439660Y0035843119D01*
X0047406823Y0035889312D01*
X0047372911Y0035934673D01*
X0047337944Y0035979180D01*
X0047301939Y0036022818D01*
X0047264916Y0036065565D01*
X0047226893Y0036107405D01*
X0047187887Y0036148319D01*
X0047147920Y0036188286D01*
X0047107005Y0036227292D01*
X0047065166Y0036265315D01*
X0047022419Y0036302338D01*
X0046978781Y0036338343D01*
X0046934274Y0036373310D01*
X0046888913Y0036407222D01*
X0046842719Y0036440059D01*
X0046795710Y0036471804D01*
X0046747902Y0036502439D01*
X0046699318Y0036531943D01*
X0046649972Y0036560300D01*
X0046599883Y0036587492D01*
X0046549074Y0036613497D01*
X0046497558Y0036638301D01*
X0046445357Y0036661882D01*
X0046392486Y0036684225D01*
X0046338968Y0036705308D01*
X0046284817Y0036725115D01*
X0046230054Y0036743627D01*
X0046174695Y0036760826D01*
X0046118761Y0036776693D01*
X0046062268Y0036791209D01*
X0046005236Y0036804357D01*
X0045947684Y0036816118D01*
X0045889626Y0036826474D01*
X0045831086Y0036835405D01*
X0045772077Y0036842895D01*
X0045712620Y0036848923D01*
X0045652732Y0036853472D01*
X0045592433Y0036856523D01*
X0045531703Y0036858059D01*
X0045501194Y0036858188D01*
X0006649896Y0036858188D01*
X0045599205Y0036891504D01*
X0045654960Y0036888682D01*
X0045715736Y0036884066D01*
X0045776078Y0036877948D01*
X0045835967Y0036870347D01*
X0045895385Y0036861281D01*
X0045954313Y0036850770D01*
X0046012732Y0036838832D01*
X0046070623Y0036825486D01*
X0046127966Y0036810751D01*
X0046184744Y0036794645D01*
X0046240937Y0036777187D01*
X0046296527Y0036758396D01*
X0046351494Y0036738290D01*
X0046405820Y0036716888D01*
X0046459487Y0036694210D01*
X0046512474Y0036670273D01*
X0046564765Y0036645096D01*
X0046616339Y0036618699D01*
X0046667178Y0036591100D01*
X0046717264Y0036562318D01*
X0046766577Y0036532371D01*
X0046815100Y0036501278D01*
X0046862813Y0036469058D01*
X0046909698Y0036435730D01*
X0046955735Y0036401312D01*
X0047000908Y0036365823D01*
X0047045195Y0036329281D01*
X0047088580Y0036291706D01*
X0047131044Y0036253116D01*
X0047172566Y0036213530D01*
X0047213130Y0036172966D01*
X0047252717Y0036131443D01*
X0047291307Y0036088979D01*
X0047328882Y0036045595D01*
X0047365423Y0036001307D01*
X0047400913Y0035956135D01*
X0047435331Y0035910097D01*
X0047468659Y0035863212D01*
X0047500879Y0035815499D01*
X0047531972Y0035766977D01*
X0047561919Y0035717663D01*
X0047590701Y0035667577D01*
X0047618300Y0035616738D01*
X0047644697Y0035565164D01*
X0047669874Y0035512873D01*
X0047693810Y0035459886D01*
X0047716489Y0035406219D01*
X0047737891Y0035351893D01*
X0047757996Y0035296926D01*
X0047776788Y0035241336D01*
X0047794246Y0035185143D01*
X0047810352Y0035128365D01*
X0047825087Y0035071022D01*
X0047838433Y0035013131D01*
X0047850371Y0034954712D01*
X0047860882Y0034895784D01*
X0047869947Y0034836366D01*
X0047877548Y0034776477D01*
X0047883667Y0034716135D01*
X0047888283Y0034655360D01*
X0047891379Y0034594170D01*
X0047892936Y0034532622D01*
X0047893066Y0034501672D01*
X0047893066Y0005930151D01*
X0047892935Y0005899213D01*
X0047891371Y0005837819D01*
X0047888263Y0005776935D01*
X0047883637Y0005716613D01*
X0047877517Y0005656866D01*
X0047869925Y0005597708D01*
X0047860886Y0005539155D01*
X0047850423Y0005481219D01*
X0047838561Y0005423915D01*
X0047825321Y0005367256D01*
X0047810730Y0005311258D01*
X0047794809Y0005255933D01*
X0047777584Y0005201296D01*
X0047759077Y0005147360D01*
X0047739313Y0005094140D01*
X0047718315Y0005041649D01*
X0047696108Y0004989901D01*
X0047672715Y0004938911D01*
X0047648160Y0004888691D01*
X0047622466Y0004839255D01*
X0047595658Y0004790618D01*
X0047567741Y0004742762D01*
X0047524030Y0004672471D01*
X0047461994Y0004581885D01*
X0047396004Y0004494764D01*
X0047326269Y0004411245D01*
X0047252980Y0004331437D01*
X0047176325Y0004255449D01*
X0047096495Y0004183390D01*
X0047013678Y0004115368D01*
X0046928064Y0004051492D01*
X0046839840Y0003991870D01*
X0046749197Y0003936613D01*
X0046656322Y0003885829D01*
X0046561403Y0003839627D01*
X0046464630Y0003798117D01*
X0046366192Y0003761409D01*
X0046266276Y0003729614D01*
X0046165072Y0003702840D01*
X0046062806Y0003681207D01*
X0045985450Y0003668579D01*
X0045933615Y0003661707D01*
X0045881650Y0003656186D01*
X0045829540Y0003652024D01*
X0045777310Y0003649236D01*
X0045725024Y0003647836D01*
X0045698830Y0003647719D01*
X0006494598Y0003647719D01*
X0006465152Y0003647836D01*
X0006406642Y0003649234D01*
X0006348528Y0003652017D01*
X0006290860Y0003656173D01*
X0006233656Y0003661686D01*
X0006176931Y0003668544D01*
X0006120702Y0003676734D01*
X0006064984Y0003686240D01*
X0006009793Y0003697051D01*
X0005955147Y0003709153D01*
X0005901061Y0003722531D01*
X0005847551Y0003737173D01*
X0005794634Y0003753065D01*
X0005742325Y0003770193D01*
X0005690641Y0003788543D01*
X0005639598Y0003808102D01*
X0005589212Y0003828857D01*
X0005539499Y0003850793D01*
X0005490475Y0003873897D01*
X0005442157Y0003898156D01*
X0005394560Y0003923555D01*
X0005347701Y0003950081D01*
X0005301596Y0003977720D01*
X0005256261Y0004006459D01*
X0005211712Y0004036283D01*
X0005167965Y0004067180D01*
X0005125036Y0004099135D01*
X0005082941Y0004132134D01*
X0005041697Y0004166165D01*
X0005001319Y0004201212D01*
X0004961823Y0004237263D01*
X0004923226Y0004274303D01*
X0004885543Y0004312319D01*
X0004848791Y0004351297D01*
X0004812986Y0004391224D01*
X0004778143Y0004432084D01*
X0004744279Y0004473865D01*
X0004711409Y0004516553D01*
X0004679550Y0004560134D01*
X0004648718Y0004604594D01*
X0004618929Y0004649919D01*
X0004590198Y0004696096D01*
X0004562541Y0004743110D01*
X0004535975Y0004790948D01*
X0004510516Y0004839595D01*
X0004486179Y0004889039D01*
X0004462980Y0004939265D01*
X0004440936Y0004990258D01*
X0004420062Y0005042006D01*
X0004400374Y0005094494D01*
X0004381888Y0005147709D01*
X0004364619Y0005201636D01*
X0004348585Y0005256262D01*
X0004333799Y0005311572D01*
X0004320279Y0005367554D01*
X0004308041Y0005424192D01*
X0004297099Y0005481473D01*
X0004287470Y0005539382D01*
X0004279169Y0005597907D01*
X0004272212Y0005657033D01*
X0004266616Y0005716747D01*
X0004262395Y0005777033D01*
X0004259565Y0005837879D01*
X0004258143Y0005899237D01*
X0004258024Y0005930155D01*
X0004258024Y0034501672D01*
X0004258155Y0034532623D01*
X0004259716Y0034594172D01*
X0004262823Y0034655363D01*
X0004267454Y0034716140D01*
X0004273591Y0034776483D01*
X0004281215Y0034836373D01*
X0004290308Y0034895793D01*
X0004300849Y0034954722D01*
X0004312821Y0035013141D01*
X0004326204Y0035071033D01*
X0004340979Y0035128377D01*
X0004357128Y0035185155D01*
X0004374631Y0035241349D01*
X0004393470Y0035296939D01*
X0004413625Y0035351906D01*
X0004435077Y0035406233D01*
X0004457808Y0035459899D01*
X0004481798Y0035512887D01*
X0004507028Y0035565177D01*
X0004533480Y0035616751D01*
X0004561134Y0035667590D01*
X0004589972Y0035717676D01*
X0004619974Y0035766989D01*
X0004651122Y0035815511D01*
X0004683396Y0035863223D01*
X0004716778Y0035910108D01*
X0004751249Y0035956145D01*
X0004786789Y0036001316D01*
X0004823380Y0036045603D01*
X0004861003Y0036088988D01*
X0004899639Y0036131450D01*
X0004939268Y0036172972D01*
X0004979873Y0036213536D01*
X0005021434Y0036253121D01*
X0005063933Y0036291711D01*
X0005107350Y0036329285D01*
X0005151666Y0036365826D01*
X0005196863Y0036401314D01*
X0005242922Y0036435732D01*
X0005289823Y0036469060D01*
X0005337548Y0036501279D01*
X0005386078Y0036532371D01*
X0005435395Y0036562318D01*
X0005485478Y0036591100D01*
X0005536310Y0036618699D01*
X0005587870Y0036645096D01*
X0005640141Y0036670272D01*
X0005693104Y0036694208D01*
X0005746739Y0036716887D01*
X0005801027Y0036738288D01*
X0005855949Y0036758394D01*
X0005911487Y0036777185D01*
X0005967621Y0036794643D01*
X0006024332Y0036810750D01*
X0006081602Y0036825485D01*
X0006139410Y0036838831D01*
X0006197739Y0036850769D01*
X0006256568Y0036861280D01*
X0006269795Y0036863302D01*
X0006619469Y0036858059D01*
X0006558896Y0036856523D01*
G37*
G36*
X0045532223Y0036893335D02*
G01*
X0045593771Y0036891779D01*
X0045599205Y0036891504D01*
X0006649896Y0036858188D01*
X0006619469Y0036858059D01*
X0006269795Y0036863302D01*
X0006315879Y0036870346D01*
X0006375652Y0036877947D01*
X0006435869Y0036884065D01*
X0006496509Y0036888682D01*
X0006557555Y0036891778D01*
X0006618949Y0036893335D01*
X0006649818Y0036893466D01*
X0045501273Y0036893466D01*
G37*
%LPD*%
%LPD*%
G36*
X0045391874Y0013712459D02*
G01*
X0045391874Y0026525336D01*
X0041547683Y0026525336D01*
X0045568263Y0026701725D01*
X0045568263Y0013536071D01*
X0040350685Y0013536071D01*
X0040350685Y0025584845D01*
X0040494956Y0025728168D01*
X0040527073Y0025511441D01*
X0040527073Y0013712459D01*
G37*
G36*
X0041547683Y0026525336D02*
G01*
X0040527073Y0025511441D01*
X0040494956Y0025728168D01*
X0041474961Y0026701725D01*
X0045568263Y0026701725D01*
G37*
%LPD*%
%LPD*%
G36*
X0038749075Y0010322268D02*
G01*
X0047173400Y0010322268D01*
X0047349789Y0030091916D01*
X0047349789Y0010145879D01*
X0038572686Y0010145879D01*
X0038572686Y0030091916D01*
X0038749075Y0029915528D01*
G37*
G36*
X0047173400Y0010322268D02*
G01*
X0047173400Y0029915528D01*
X0038749075Y0029915528D01*
X0038572686Y0030091916D01*
X0047349789Y0030091916D01*
G37*
%LPD*%
%LPD*%
G36*
X0040414185Y0021491202D02*
G01*
X0039825046Y0021491202D01*
X0039825046Y0018845371D01*
X0040414185Y0018845371D01*
X0040414185Y0018668983D01*
X0039648657Y0018668983D01*
X0039648657Y0021667591D01*
X0040414185Y0021667591D01*
G37*
%LPD*%
%LPD*%
G36*
X0036618299Y0019766120D02*
G01*
X0037440271Y0019766120D01*
X0037616659Y0020337620D01*
X0037616659Y0019589732D01*
X0036441910Y0019589732D01*
X0036441910Y0020337620D01*
X0036618299Y0020161231D01*
G37*
G36*
X0037440271Y0019766120D02*
G01*
X0037440271Y0020161231D01*
X0036618299Y0020161231D01*
X0036441910Y0020337620D01*
X0037616659Y0020337620D01*
G37*
%LPD*%
%LPD*%
G36*
X0005244808Y0021431302D02*
G01*
X0005242493Y0020284598D01*
X0005242273Y0019776542D01*
X0005241876Y0019653499D01*
X0005237261Y0019412413D01*
X0005228323Y0019177176D01*
X0005215362Y0018948050D01*
X0005198676Y0018725152D01*
X0005178561Y0018508602D01*
X0005155316Y0018298517D01*
X0005129238Y0018095016D01*
X0005100624Y0017898215D01*
X0005069771Y0017708234D01*
X0005036977Y0017525189D01*
X0005002539Y0017349199D01*
X0004966754Y0017180380D01*
X0004929920Y0017018850D01*
X0004892333Y0016864727D01*
X0004854290Y0016718127D01*
X0004816089Y0016579168D01*
X0004778026Y0016447968D01*
X0004740399Y0016324642D01*
X0004703474Y0016209217D01*
X0004649972Y0016050434D01*
X0004584167Y0015869217D01*
X0004526598Y0015721982D01*
X0004479601Y0015609598D01*
X0004434413Y0015509046D01*
X0004434413Y0012632960D01*
X0018101011Y0012632960D01*
X0018101011Y0027125058D01*
X0005269980Y0027125058D01*
X0018277400Y0027301447D01*
X0018277400Y0012456572D01*
X0004258024Y0012456572D01*
X0004258024Y0015549922D01*
X0004272769Y0015579670D01*
X0004317762Y0015679787D01*
X0004363070Y0015788133D01*
X0004419106Y0015931446D01*
X0004483474Y0016108706D01*
X0004535886Y0016264254D01*
X0004572035Y0016377254D01*
X0004608960Y0016498279D01*
X0004646339Y0016627122D01*
X0004683875Y0016763660D01*
X0004721274Y0016907779D01*
X0004758240Y0017059355D01*
X0004794480Y0017218278D01*
X0004829699Y0017384427D01*
X0004863601Y0017557680D01*
X0004895894Y0017737928D01*
X0004926281Y0017925044D01*
X0004954470Y0018118917D01*
X0004980165Y0018319428D01*
X0005003072Y0018526459D01*
X0005022897Y0018739895D01*
X0005039345Y0018959615D01*
X0005052123Y0019185507D01*
X0005060936Y0019417449D01*
X0005065492Y0019655472D01*
X0005065884Y0019776863D01*
X0005066105Y0020284811D01*
X0005068420Y0021431785D01*
X0005074704Y0023287089D01*
X0005090580Y0026611354D01*
X0005091279Y0026730735D01*
X0005266966Y0026610404D01*
X0005251092Y0023286390D01*
G37*
G36*
X0005269980Y0027125058D02*
G01*
X0005266966Y0026610404D01*
X0005091279Y0026730735D01*
X0005094621Y0027301447D01*
X0018277400Y0027301447D01*
G37*
%LPD*%
%LPD*%
G36*
X0004748384Y0031443054D02*
G01*
X0005365838Y0031443054D01*
X0005438005Y0031442902D01*
X0005581887Y0031441079D01*
X0005725420Y0031437442D01*
X0005868500Y0031432003D01*
X0006011116Y0031424773D01*
X0006153257Y0031415763D01*
X0006294912Y0031404983D01*
X0006436069Y0031392446D01*
X0006576717Y0031378160D01*
X0006716847Y0031362138D01*
X0006856445Y0031344391D01*
X0006995501Y0031324928D01*
X0007134005Y0031303763D01*
X0007271945Y0031280904D01*
X0007409309Y0031256364D01*
X0007546088Y0031230152D01*
X0007682269Y0031202281D01*
X0007817843Y0031172762D01*
X0007952797Y0031141604D01*
X0008087120Y0031108819D01*
X0008220803Y0031074419D01*
X0008353833Y0031038413D01*
X0008486199Y0031000813D01*
X0008617891Y0030961631D01*
X0008748898Y0030920877D01*
X0008879208Y0030878561D01*
X0009008811Y0030834696D01*
X0009137695Y0030789291D01*
X0009265850Y0030742359D01*
X0009393265Y0030693909D01*
X0009519928Y0030643953D01*
X0009645828Y0030592503D01*
X0009770956Y0030539568D01*
X0009895299Y0030485160D01*
X0010018846Y0030429290D01*
X0010141588Y0030371970D01*
X0010263512Y0030313209D01*
X0010384609Y0030253018D01*
X0010504866Y0030191410D01*
X0010624273Y0030128395D01*
X0010742819Y0030063983D01*
X0010860494Y0029998187D01*
X0010977285Y0029931016D01*
X0011093183Y0029862481D01*
X0011208176Y0029792595D01*
X0011322254Y0029721367D01*
X0011435405Y0029648810D01*
X0011547618Y0029574932D01*
X0011658883Y0029499747D01*
X0011769189Y0029423264D01*
X0011878525Y0029345494D01*
X0011986880Y0029266449D01*
X0012094243Y0029186140D01*
X0012200603Y0029104577D01*
X0012305949Y0029021772D01*
X0012410270Y0028937734D01*
X0012513556Y0028852477D01*
X0012615796Y0028766009D01*
X0012716977Y0028678343D01*
X0012817091Y0028589488D01*
X0012916125Y0028499457D01*
X0013014070Y0028408260D01*
X0013110913Y0028315908D01*
X0013206644Y0028222412D01*
X0013301252Y0028127783D01*
X0013394727Y0028032032D01*
X0013487057Y0027935169D01*
X0013578231Y0027837206D01*
X0013668239Y0027738154D01*
X0013757069Y0027638023D01*
X0013844712Y0027536825D01*
X0013931154Y0027434570D01*
X0014016387Y0027331270D01*
X0014100399Y0027226935D01*
X0014183178Y0027121576D01*
X0014264715Y0027015204D01*
X0014344998Y0026907831D01*
X0014424016Y0026799466D01*
X0014501758Y0026690122D01*
X0014578214Y0026579808D01*
X0014653372Y0026468537D01*
X0014727222Y0026356318D01*
X0014799752Y0026243163D01*
X0014870952Y0026129082D01*
X0014940811Y0026014088D01*
X0015009317Y0025898190D01*
X0015076460Y0025781399D01*
X0015142229Y0025663727D01*
X0015206612Y0025545185D01*
X0015269600Y0025425783D01*
X0015331181Y0025305532D01*
X0015391344Y0025184444D01*
X0015450077Y0025062529D01*
X0015507371Y0024939799D01*
X0015563214Y0024816264D01*
X0015617596Y0024691935D01*
X0015670504Y0024566823D01*
X0015721929Y0024440940D01*
X0015771859Y0024314296D01*
X0015820284Y0024186903D01*
X0015867192Y0024058770D01*
X0015912572Y0023929910D01*
X0015956414Y0023800334D01*
X0015998706Y0023670051D01*
X0016039438Y0023539074D01*
X0016078599Y0023407414D01*
X0016116177Y0023275081D01*
X0016152162Y0023142087D01*
X0016186543Y0023008442D01*
X0016219308Y0022874158D01*
X0016250447Y0022739245D01*
X0016279950Y0022603715D01*
X0016307804Y0022467580D01*
X0016333999Y0022330849D01*
X0016358524Y0022193534D01*
X0016381368Y0022055646D01*
X0016402520Y0021917197D01*
X0016421970Y0021778197D01*
X0016439706Y0021638657D01*
X0016455718Y0021498589D01*
X0016469994Y0021358004D01*
X0016482523Y0021216912D01*
X0016493296Y0021075325D01*
X0016502300Y0020933255D01*
X0016509525Y0020790712D01*
X0016514960Y0020647707D01*
X0016518594Y0020504252D01*
X0016520416Y0020360450D01*
X0016520568Y0020288231D01*
X0016520416Y0020216012D01*
X0016518594Y0020072209D01*
X0016514960Y0019928751D01*
X0016509525Y0019785743D01*
X0016502300Y0019643195D01*
X0016493296Y0019501118D01*
X0016482523Y0019359524D01*
X0016469994Y0019218424D01*
X0016455718Y0019077829D01*
X0016439706Y0018937751D01*
X0016421970Y0018798199D01*
X0016402521Y0018659186D01*
X0016381368Y0018520723D01*
X0016358524Y0018382820D01*
X0016333999Y0018245490D01*
X0016307804Y0018108742D01*
X0016279950Y0017972588D01*
X0016250448Y0017837040D01*
X0016219309Y0017702108D01*
X0016186544Y0017567803D01*
X0016152163Y0017434137D01*
X0016116178Y0017301120D01*
X0016078600Y0017168764D01*
X0016039440Y0017037079D01*
X0015998708Y0016906077D01*
X0015956416Y0016775769D01*
X0015912574Y0016646166D01*
X0015867194Y0016517279D01*
X0015820286Y0016389119D01*
X0015771862Y0016261697D01*
X0015721932Y0016135023D01*
X0015670507Y0016009110D01*
X0015617599Y0015883968D01*
X0015563218Y0015759608D01*
X0015507375Y0015636041D01*
X0015450081Y0015513278D01*
X0015391348Y0015391330D01*
X0015331185Y0015270208D01*
X0015269605Y0015149923D01*
X0015206618Y0015030486D01*
X0015142234Y0014911909D01*
X0015076466Y0014794201D01*
X0015009323Y0014677375D01*
X0014940817Y0014561440D01*
X0014870959Y0014446408D01*
X0014799759Y0014332290D01*
X0014727229Y0014219098D01*
X0014653380Y0014106841D01*
X0014578222Y0013995530D01*
X0014501767Y0013885178D01*
X0014424025Y0013775794D01*
X0014345007Y0013667390D01*
X0014264725Y0013559977D01*
X0014183188Y0013453566D01*
X0014100409Y0013348167D01*
X0014016398Y0013243791D01*
X0013931166Y0013140450D01*
X0013844723Y0013038155D01*
X0013757081Y0012936916D01*
X0013668251Y0012836744D01*
X0013578244Y0012737650D01*
X0013487070Y0012639646D01*
X0013394740Y0012542742D01*
X0013301266Y0012446950D01*
X0013206658Y0012352279D01*
X0013110927Y0012258742D01*
X0013014084Y0012166348D01*
X0012916140Y0012075110D01*
X0012817106Y0011985038D01*
X0012716993Y0011896142D01*
X0012615811Y0011808435D01*
X0012513572Y0011721926D01*
X0012410287Y0011636628D01*
X0012305965Y0011552550D01*
X0012200619Y0011469704D01*
X0012094260Y0011388101D01*
X0011986897Y0011307751D01*
X0011878543Y0011228667D01*
X0011769207Y0011150858D01*
X0011658901Y0011074335D01*
X0011547636Y0010999111D01*
X0011435422Y0010925195D01*
X0011322271Y0010852599D01*
X0011208194Y0010781333D01*
X0011093201Y0010711409D01*
X0010977303Y0010642838D01*
X0010860512Y0010575630D01*
X0010742837Y0010509797D01*
X0010624291Y0010445350D01*
X0010504884Y0010382299D01*
X0010384627Y0010320656D01*
X0010263530Y0010260432D01*
X0010141606Y0010201637D01*
X0010018864Y0010144283D01*
X0009895316Y0010088380D01*
X0009770973Y0010033941D01*
X0009645845Y0009980974D01*
X0009519944Y0009929493D01*
X0009393281Y0009879508D01*
X0009265866Y0009831029D01*
X0009137711Y0009784068D01*
X0009008827Y0009738635D01*
X0008879223Y0009694743D01*
X0008748913Y0009652401D01*
X0008617906Y0009611621D01*
X0008486213Y0009572414D01*
X0008353846Y0009534790D01*
X0008220816Y0009498762D01*
X0008087133Y0009464339D01*
X0007952809Y0009431533D01*
X0007817855Y0009400355D01*
X0007682281Y0009370816D01*
X0007546099Y0009342927D01*
X0007409320Y0009316698D01*
X0007271954Y0009292141D01*
X0007134014Y0009269268D01*
X0006995510Y0009248087D01*
X0006856453Y0009228612D01*
X0006716854Y0009210852D01*
X0006576724Y0009194820D01*
X0006436075Y0009180524D01*
X0006294917Y0009167978D01*
X0006153261Y0009157191D01*
X0006011120Y0009148174D01*
X0005868503Y0009140939D01*
X0005725422Y0009135496D01*
X0005581888Y0009131857D01*
X0005438006Y0009130033D01*
X0005365838Y0009129880D01*
X0004748384Y0009129880D01*
X0004748384Y0005834939D01*
X0032995275Y0005834939D01*
X0032995275Y0034409912D01*
X0031611292Y0034409912D01*
X0033171664Y0034586301D01*
X0033171664Y0005658550D01*
X0004571996Y0005658550D01*
X0004571996Y0009306269D01*
X0005365659Y0009306269D01*
X0005436701Y0009306419D01*
X0005578534Y0009308217D01*
X0005719835Y0009311800D01*
X0005860682Y0009317158D01*
X0006001068Y0009324280D01*
X0006140979Y0009333155D01*
X0006280411Y0009343772D01*
X0006419350Y0009356122D01*
X0006557780Y0009370192D01*
X0006695695Y0009385971D01*
X0006833091Y0009403450D01*
X0006969944Y0009422617D01*
X0007106253Y0009443461D01*
X0007242005Y0009465973D01*
X0007377189Y0009490139D01*
X0007511795Y0009515951D01*
X0007645809Y0009543397D01*
X0007779223Y0009572465D01*
X0007912031Y0009603147D01*
X0008044216Y0009635431D01*
X0008175767Y0009669304D01*
X0008306676Y0009704758D01*
X0008436932Y0009741782D01*
X0008566527Y0009780365D01*
X0008695444Y0009820494D01*
X0008823675Y0009862160D01*
X0008951214Y0009905354D01*
X0009078044Y0009950062D01*
X0009204155Y0009996274D01*
X0009329542Y0010043981D01*
X0009454189Y0010093171D01*
X0009578082Y0010143831D01*
X0009701221Y0010195955D01*
X0009823584Y0010249528D01*
X0009945168Y0010304542D01*
X0010065960Y0010360985D01*
X0010185945Y0010418845D01*
X0010305120Y0010478114D01*
X0010423469Y0010538778D01*
X0010540985Y0010600831D01*
X0010657649Y0010664254D01*
X0010773462Y0010729046D01*
X0010888401Y0010795188D01*
X0011002466Y0010862675D01*
X0011115641Y0010931493D01*
X0011227916Y0011001633D01*
X0011339278Y0011073082D01*
X0011449721Y0011145831D01*
X0011559229Y0011219868D01*
X0011667796Y0011295184D01*
X0011775408Y0011371766D01*
X0011882056Y0011449605D01*
X0011987725Y0011528687D01*
X0012092411Y0011609006D01*
X0012196100Y0011690549D01*
X0012298779Y0011773303D01*
X0012400440Y0011857260D01*
X0012501071Y0011942408D01*
X0012600663Y0012028738D01*
X0012699202Y0012116235D01*
X0012796681Y0012204893D01*
X0012893085Y0012294697D01*
X0012988406Y0012385638D01*
X0013082634Y0012477707D01*
X0013175756Y0012570891D01*
X0013267763Y0012665180D01*
X0013358642Y0012760561D01*
X0013448381Y0012857023D01*
X0013536975Y0012954561D01*
X0013624411Y0013053160D01*
X0013710674Y0013152806D01*
X0013795759Y0013253495D01*
X0013879650Y0013355210D01*
X0013962341Y0013457945D01*
X0014043817Y0013561685D01*
X0014124070Y0013666422D01*
X0014203089Y0013772144D01*
X0014280862Y0013878841D01*
X0014357379Y0013986501D01*
X0014432630Y0014095114D01*
X0014506602Y0014204668D01*
X0014579287Y0014315155D01*
X0014650670Y0014426559D01*
X0014720745Y0014538874D01*
X0014789501Y0014652091D01*
X0014856923Y0014766191D01*
X0014923003Y0014881169D01*
X0014987730Y0014997012D01*
X0015051095Y0015113713D01*
X0015113084Y0015231258D01*
X0015173688Y0015349635D01*
X0015232897Y0015468837D01*
X0015290697Y0015588848D01*
X0015347082Y0015709663D01*
X0015402037Y0015831265D01*
X0015455554Y0015953650D01*
X0015507621Y0016076803D01*
X0015558228Y0016200714D01*
X0015607363Y0016325370D01*
X0015655017Y0016450764D01*
X0015701178Y0016576886D01*
X0015745835Y0016703718D01*
X0015788979Y0016831260D01*
X0015830597Y0016959488D01*
X0015870681Y0017088408D01*
X0015909216Y0017217991D01*
X0015946196Y0017348240D01*
X0015981609Y0017479141D01*
X0016015441Y0017610677D01*
X0016047685Y0017742844D01*
X0016078329Y0017875629D01*
X0016107362Y0018009022D01*
X0016134773Y0018143013D01*
X0016160552Y0018277586D01*
X0016184688Y0018412743D01*
X0016207170Y0018548455D01*
X0016227987Y0018684726D01*
X0016247129Y0018821539D01*
X0016264585Y0018958887D01*
X0016280344Y0019096756D01*
X0016294395Y0019235136D01*
X0016306727Y0019374016D01*
X0016317331Y0019513385D01*
X0016326194Y0019653239D01*
X0016333306Y0019793558D01*
X0016338656Y0019934334D01*
X0016342234Y0020075561D01*
X0016344029Y0020217315D01*
X0016344179Y0020288231D01*
X0016344029Y0020359147D01*
X0016342234Y0020500900D01*
X0016338656Y0020642124D01*
X0016333306Y0020782896D01*
X0016326194Y0020923213D01*
X0016317331Y0021063054D01*
X0016306727Y0021202421D01*
X0016294395Y0021341292D01*
X0016280344Y0021479662D01*
X0016264585Y0021617519D01*
X0016247130Y0021754852D01*
X0016227987Y0021891654D01*
X0016207170Y0022027912D01*
X0016184688Y0022163610D01*
X0016160552Y0022298748D01*
X0016134774Y0022433303D01*
X0016107362Y0022567278D01*
X0016078330Y0022700649D01*
X0016047686Y0022833415D01*
X0016015442Y0022965561D01*
X0015981609Y0023097079D01*
X0015946198Y0023227951D01*
X0015909218Y0023358178D01*
X0015870682Y0023487738D01*
X0015830599Y0023616628D01*
X0015788980Y0023744836D01*
X0015745837Y0023872347D01*
X0015701180Y0023999152D01*
X0015655020Y0024125243D01*
X0015607366Y0024250610D01*
X0015558230Y0024375239D01*
X0015507624Y0024499118D01*
X0015455558Y0024622237D01*
X0015402040Y0024744590D01*
X0015347085Y0024866161D01*
X0015290703Y0024986939D01*
X0015232900Y0025106920D01*
X0015173692Y0025226088D01*
X0015113089Y0025344430D01*
X0015051099Y0025461940D01*
X0014987737Y0025578601D01*
X0014923009Y0025694411D01*
X0014856928Y0025809353D01*
X0014789506Y0025923417D01*
X0014720753Y0026036593D01*
X0014650678Y0026148871D01*
X0014579294Y0026260238D01*
X0014506611Y0026370684D01*
X0014432638Y0026480201D01*
X0014357388Y0026588775D01*
X0014280871Y0026696395D01*
X0014203098Y0026803052D01*
X0014124080Y0026908734D01*
X0014043829Y0027013429D01*
X0013962351Y0027117131D01*
X0013879660Y0027219825D01*
X0013795772Y0027321497D01*
X0013710685Y0027422147D01*
X0013624423Y0027521752D01*
X0013536988Y0027620310D01*
X0013448396Y0027717804D01*
X0013358654Y0027814228D01*
X0013267775Y0027909569D01*
X0013175770Y0028003814D01*
X0013082647Y0028096957D01*
X0012988423Y0028188982D01*
X0012893100Y0028279884D01*
X0012796696Y0028369647D01*
X0012699217Y0028458264D01*
X0012600678Y0028545721D01*
X0012501088Y0028632008D01*
X0012400456Y0028717116D01*
X0012298796Y0028801032D01*
X0012196116Y0028883747D01*
X0012092428Y0028965249D01*
X0011987742Y0029045529D01*
X0011882072Y0029124571D01*
X0011775426Y0029202370D01*
X0011667814Y0029278913D01*
X0011559247Y0029354190D01*
X0011449738Y0029428189D01*
X0011339298Y0029500899D01*
X0011227931Y0029572312D01*
X0011115660Y0029642412D01*
X0011002485Y0029711193D01*
X0010888420Y0029778644D01*
X0010773477Y0029844752D01*
X0010657670Y0029909504D01*
X0010540999Y0029972897D01*
X0010423489Y0030034911D01*
X0010305138Y0030095543D01*
X0010185966Y0030154777D01*
X0010065976Y0030212605D01*
X0009945186Y0030269015D01*
X0009823601Y0030323997D01*
X0009701236Y0030377539D01*
X0009578101Y0030429631D01*
X0009454205Y0030480262D01*
X0009329558Y0030529423D01*
X0009204173Y0030577101D01*
X0009078058Y0030623286D01*
X0008951229Y0030667967D01*
X0008823694Y0030711132D01*
X0008695457Y0030752774D01*
X0008566541Y0030792879D01*
X0008436946Y0030831437D01*
X0008306692Y0030868437D01*
X0008175779Y0030903869D01*
X0008044229Y0030937721D01*
X0007912042Y0030969984D01*
X0007779238Y0031000646D01*
X0007645822Y0031029696D01*
X0007511803Y0031057124D01*
X0007377200Y0031082919D01*
X0007242016Y0031107069D01*
X0007106262Y0031129566D01*
X0006969952Y0031150396D01*
X0006833097Y0031169550D01*
X0006695704Y0031187018D01*
X0006557787Y0031202787D01*
X0006419352Y0031216847D01*
X0006280417Y0031229188D01*
X0006140984Y0031239798D01*
X0006001073Y0031248667D01*
X0005860684Y0031255784D01*
X0005719836Y0031261138D01*
X0005578534Y0031264719D01*
X0005436702Y0031266515D01*
X0005365659Y0031266665D01*
X0004571996Y0031266665D01*
X0004571996Y0034586301D01*
X0004748384Y0034409912D01*
G37*
G36*
X0031611292Y0034409912D02*
G01*
X0004748384Y0034409912D01*
X0004571996Y0034586301D01*
X0033171664Y0034586301D01*
G37*
M02*
