%FSLAX46Y46*%
%MOMM*%
%LPD*%
G01*
%ADD10C,0.050000*%
D10*
%LPD*%
%LPD*%
G36*
X0006498742Y0036853472D02*
G01*
X0006438992Y0036848923D01*
X0006379660Y0036842895D01*
X0006320771Y0036835406D01*
X0006262336Y0036826474D01*
X0006204380Y0036816119D01*
X0006146915Y0036804358D01*
X0006089967Y0036791211D01*
X0006033548Y0036776694D01*
X0005977679Y0036760827D01*
X0005922381Y0036743629D01*
X0005867668Y0036725117D01*
X0005813561Y0036705309D01*
X0005760079Y0036684225D01*
X0005707240Y0036661884D01*
X0005655062Y0036638301D01*
X0005603565Y0036613498D01*
X0005552767Y0036587492D01*
X0005502685Y0036560301D01*
X0005453341Y0036531943D01*
X0005404752Y0036502439D01*
X0005356936Y0036471804D01*
X0005309912Y0036440057D01*
X0005263700Y0036407220D01*
X0005218318Y0036373308D01*
X0005173784Y0036338340D01*
X0005130117Y0036302334D01*
X0005087336Y0036265310D01*
X0005045461Y0036227287D01*
X0005004509Y0036188281D01*
X0004964498Y0036148312D01*
X0004925449Y0036107397D01*
X0004887379Y0036065557D01*
X0004850308Y0036022809D01*
X0004814254Y0035979172D01*
X0004779234Y0035934662D01*
X0004745270Y0035889301D01*
X0004712380Y0035843107D01*
X0004680580Y0035796097D01*
X0004649891Y0035748289D01*
X0004620332Y0035699703D01*
X0004591920Y0035650358D01*
X0004564674Y0035600270D01*
X0004538614Y0035549460D01*
X0004513758Y0035497944D01*
X0004490123Y0035445743D01*
X0004467730Y0035392872D01*
X0004446597Y0035339354D01*
X0004426741Y0035285203D01*
X0004408183Y0035230441D01*
X0004390940Y0035175082D01*
X0004375032Y0035119149D01*
X0004360476Y0035062657D01*
X0004347292Y0035005627D01*
X0004335497Y0034948073D01*
X0004325112Y0034890018D01*
X0004316154Y0034831477D01*
X0004308643Y0034772470D01*
X0004302596Y0034713015D01*
X0004298032Y0034653128D01*
X0004294971Y0034592830D01*
X0004293431Y0034532102D01*
X0004293302Y0034501593D01*
X0004293302Y0005930220D01*
X0004293419Y0005899714D01*
X0004294824Y0005839107D01*
X0004297615Y0005779085D01*
X0004301778Y0005719625D01*
X0004307297Y0005660742D01*
X0004314156Y0005602445D01*
X0004322339Y0005544754D01*
X0004331829Y0005487676D01*
X0004342612Y0005431228D01*
X0004354671Y0005375422D01*
X0004367991Y0005320270D01*
X0004382555Y0005265786D01*
X0004398348Y0005211985D01*
X0004415353Y0005158879D01*
X0004433556Y0005106479D01*
X0004452940Y0005054801D01*
X0004473490Y0005003857D01*
X0004495189Y0004953662D01*
X0004518023Y0004904227D01*
X0004541974Y0004855568D01*
X0004567029Y0004807692D01*
X0004593170Y0004760620D01*
X0004620382Y0004714361D01*
X0004648650Y0004668929D01*
X0004677958Y0004624336D01*
X0004708289Y0004580600D01*
X0004739630Y0004537727D01*
X0004771962Y0004495737D01*
X0004805272Y0004454639D01*
X0004839543Y0004414449D01*
X0004874761Y0004375178D01*
X0004910909Y0004336840D01*
X0004947970Y0004299452D01*
X0004985932Y0004263021D01*
X0005024776Y0004227565D01*
X0005064488Y0004193095D01*
X0005105052Y0004159627D01*
X0005146454Y0004127170D01*
X0005188676Y0004095741D01*
X0005231703Y0004065353D01*
X0005275521Y0004036019D01*
X0005320113Y0004007751D01*
X0005365463Y0003980564D01*
X0005411556Y0003954472D01*
X0005458379Y0003929486D01*
X0005505912Y0003905621D01*
X0005554141Y0003882892D01*
X0005603052Y0003861309D01*
X0005652630Y0003840888D01*
X0005702855Y0003821642D01*
X0005753717Y0003803583D01*
X0005805199Y0003786726D01*
X0005857281Y0003771085D01*
X0005909953Y0003756673D01*
X0005963198Y0003743503D01*
X0006016999Y0003731588D01*
X0006071342Y0003720943D01*
X0006126212Y0003711581D01*
X0006181591Y0003703515D01*
X0006237465Y0003696760D01*
X0006293821Y0003691328D01*
X0006350640Y0003687234D01*
X0006407907Y0003684491D01*
X0006465642Y0003683112D01*
X0006494668Y0003682997D01*
X0045698751Y0003682997D01*
X0045724472Y0003683112D01*
X0045775898Y0003684489D01*
X0045827195Y0003687227D01*
X0045878381Y0003691315D01*
X0045929432Y0003696739D01*
X0045980289Y0003703481D01*
X0046056311Y0003715892D01*
X0046156905Y0003737171D01*
X0046256410Y0003763495D01*
X0046354673Y0003794765D01*
X0046451506Y0003830874D01*
X0046546722Y0003871716D01*
X0046640130Y0003917183D01*
X0046731543Y0003967167D01*
X0046820772Y0004021562D01*
X0046907628Y0004080259D01*
X0046991923Y0004143151D01*
X0047073468Y0004210128D01*
X0047152075Y0004281083D01*
X0047227556Y0004355908D01*
X0047299723Y0004434494D01*
X0047368388Y0004516731D01*
X0047433364Y0004602514D01*
X0047494483Y0004691761D01*
X0047537521Y0004760969D01*
X0047564969Y0004808022D01*
X0047591363Y0004855907D01*
X0047616658Y0004904576D01*
X0047640832Y0004954016D01*
X0047663861Y0005004214D01*
X0047685724Y0005055159D01*
X0047706395Y0005106832D01*
X0047725853Y0005159228D01*
X0047744072Y0005212326D01*
X0047761030Y0005266115D01*
X0047776704Y0005320584D01*
X0047791071Y0005375719D01*
X0047804106Y0005431505D01*
X0047815787Y0005487930D01*
X0047826090Y0005544981D01*
X0047834992Y0005602646D01*
X0047842469Y0005660909D01*
X0047848497Y0005719760D01*
X0047853054Y0005779183D01*
X0047856116Y0005839167D01*
X0047857659Y0005899738D01*
X0047857789Y0005930222D01*
X0047857789Y0034501594D01*
X0047857660Y0034532103D01*
X0047856124Y0034592832D01*
X0047853073Y0034653131D01*
X0047848524Y0034713019D01*
X0047842495Y0034772476D01*
X0047835006Y0034831485D01*
X0047826075Y0034890025D01*
X0047815719Y0034948083D01*
X0047803958Y0035005636D01*
X0047790810Y0035062668D01*
X0047776293Y0035119160D01*
X0047760427Y0035175095D01*
X0047743228Y0035230453D01*
X0047724716Y0035285216D01*
X0047704909Y0035339367D01*
X0047683825Y0035392885D01*
X0047661483Y0035445756D01*
X0047637901Y0035497957D01*
X0047613098Y0035549474D01*
X0047587092Y0035600283D01*
X0047559901Y0035650371D01*
X0047531544Y0035699717D01*
X0047502040Y0035748301D01*
X0047471405Y0035796109D01*
X0047439660Y0035843119D01*
X0047406823Y0035889312D01*
X0047372911Y0035934673D01*
X0047337944Y0035979180D01*
X0047301939Y0036022818D01*
X0047264916Y0036065565D01*
X0047226893Y0036107405D01*
X0047187887Y0036148319D01*
X0047147920Y0036188286D01*
X0047107005Y0036227292D01*
X0047065166Y0036265315D01*
X0047022419Y0036302338D01*
X0046978781Y0036338343D01*
X0046934274Y0036373310D01*
X0046888913Y0036407222D01*
X0046842719Y0036440059D01*
X0046795710Y0036471804D01*
X0046747902Y0036502439D01*
X0046699318Y0036531943D01*
X0046649972Y0036560300D01*
X0046599883Y0036587492D01*
X0046549074Y0036613497D01*
X0046497558Y0036638301D01*
X0046445357Y0036661882D01*
X0046392486Y0036684225D01*
X0046338968Y0036705308D01*
X0046284817Y0036725115D01*
X0046230054Y0036743627D01*
X0046174695Y0036760826D01*
X0046118761Y0036776693D01*
X0046062268Y0036791209D01*
X0046005236Y0036804357D01*
X0045947684Y0036816118D01*
X0045889626Y0036826474D01*
X0045831086Y0036835405D01*
X0045772077Y0036842895D01*
X0045712620Y0036848923D01*
X0045652732Y0036853472D01*
X0045592433Y0036856523D01*
X0045531703Y0036858059D01*
X0045501194Y0036858188D01*
X0006649896Y0036858188D01*
X0045599205Y0036891504D01*
X0045654960Y0036888682D01*
X0045715736Y0036884066D01*
X0045776078Y0036877948D01*
X0045835967Y0036870347D01*
X0045895385Y0036861281D01*
X0045954313Y0036850770D01*
X0046012732Y0036838832D01*
X0046070623Y0036825486D01*
X0046127966Y0036810751D01*
X0046184744Y0036794645D01*
X0046240937Y0036777187D01*
X0046296527Y0036758396D01*
X0046351494Y0036738290D01*
X0046405820Y0036716888D01*
X0046459487Y0036694210D01*
X0046512474Y0036670273D01*
X0046564765Y0036645096D01*
X0046616339Y0036618699D01*
X0046667178Y0036591100D01*
X0046717264Y0036562318D01*
X0046766577Y0036532371D01*
X0046815100Y0036501278D01*
X0046862813Y0036469058D01*
X0046909698Y0036435730D01*
X0046955735Y0036401312D01*
X0047000908Y0036365823D01*
X0047045195Y0036329281D01*
X0047088580Y0036291706D01*
X0047131044Y0036253116D01*
X0047172566Y0036213530D01*
X0047213130Y0036172966D01*
X0047252717Y0036131443D01*
X0047291307Y0036088979D01*
X0047328882Y0036045595D01*
X0047365423Y0036001307D01*
X0047400913Y0035956135D01*
X0047435331Y0035910097D01*
X0047468659Y0035863212D01*
X0047500879Y0035815499D01*
X0047531972Y0035766977D01*
X0047561919Y0035717663D01*
X0047590701Y0035667577D01*
X0047618300Y0035616738D01*
X0047644697Y0035565164D01*
X0047669874Y0035512873D01*
X0047693810Y0035459886D01*
X0047716489Y0035406219D01*
X0047737891Y0035351893D01*
X0047757996Y0035296926D01*
X0047776788Y0035241336D01*
X0047794246Y0035185143D01*
X0047810352Y0035128365D01*
X0047825087Y0035071022D01*
X0047838433Y0035013131D01*
X0047850371Y0034954712D01*
X0047860882Y0034895784D01*
X0047869947Y0034836366D01*
X0047877548Y0034776477D01*
X0047883667Y0034716135D01*
X0047888283Y0034655360D01*
X0047891379Y0034594170D01*
X0047892936Y0034532622D01*
X0047893066Y0034501672D01*
X0047893066Y0005930151D01*
X0047892935Y0005899213D01*
X0047891371Y0005837819D01*
X0047888263Y0005776935D01*
X0047883637Y0005716613D01*
X0047877517Y0005656866D01*
X0047869925Y0005597708D01*
X0047860886Y0005539155D01*
X0047850423Y0005481219D01*
X0047838561Y0005423915D01*
X0047825321Y0005367256D01*
X0047810730Y0005311258D01*
X0047794809Y0005255933D01*
X0047777584Y0005201296D01*
X0047759077Y0005147360D01*
X0047739313Y0005094140D01*
X0047718315Y0005041649D01*
X0047696108Y0004989901D01*
X0047672715Y0004938911D01*
X0047648160Y0004888691D01*
X0047622466Y0004839255D01*
X0047595658Y0004790618D01*
X0047567741Y0004742762D01*
X0047524030Y0004672471D01*
X0047461994Y0004581885D01*
X0047396004Y0004494764D01*
X0047326269Y0004411245D01*
X0047252980Y0004331437D01*
X0047176325Y0004255449D01*
X0047096495Y0004183390D01*
X0047013678Y0004115368D01*
X0046928064Y0004051492D01*
X0046839840Y0003991870D01*
X0046749197Y0003936613D01*
X0046656322Y0003885829D01*
X0046561403Y0003839627D01*
X0046464630Y0003798117D01*
X0046366192Y0003761409D01*
X0046266276Y0003729614D01*
X0046165072Y0003702840D01*
X0046062806Y0003681207D01*
X0045985450Y0003668579D01*
X0045933615Y0003661707D01*
X0045881650Y0003656186D01*
X0045829540Y0003652024D01*
X0045777310Y0003649236D01*
X0045725024Y0003647836D01*
X0045698830Y0003647719D01*
X0006494598Y0003647719D01*
X0006465152Y0003647836D01*
X0006406642Y0003649234D01*
X0006348528Y0003652017D01*
X0006290860Y0003656173D01*
X0006233656Y0003661686D01*
X0006176931Y0003668544D01*
X0006120702Y0003676734D01*
X0006064984Y0003686240D01*
X0006009793Y0003697051D01*
X0005955147Y0003709153D01*
X0005901061Y0003722531D01*
X0005847551Y0003737173D01*
X0005794634Y0003753065D01*
X0005742325Y0003770193D01*
X0005690641Y0003788543D01*
X0005639598Y0003808102D01*
X0005589212Y0003828857D01*
X0005539499Y0003850793D01*
X0005490475Y0003873897D01*
X0005442157Y0003898156D01*
X0005394560Y0003923555D01*
X0005347701Y0003950081D01*
X0005301596Y0003977720D01*
X0005256261Y0004006459D01*
X0005211712Y0004036283D01*
X0005167965Y0004067180D01*
X0005125036Y0004099135D01*
X0005082941Y0004132134D01*
X0005041697Y0004166165D01*
X0005001319Y0004201212D01*
X0004961823Y0004237263D01*
X0004923226Y0004274303D01*
X0004885543Y0004312319D01*
X0004848791Y0004351297D01*
X0004812986Y0004391224D01*
X0004778143Y0004432084D01*
X0004744279Y0004473865D01*
X0004711409Y0004516553D01*
X0004679550Y0004560134D01*
X0004648718Y0004604594D01*
X0004618929Y0004649919D01*
X0004590198Y0004696096D01*
X0004562541Y0004743110D01*
X0004535975Y0004790948D01*
X0004510516Y0004839595D01*
X0004486179Y0004889039D01*
X0004462980Y0004939265D01*
X0004440936Y0004990258D01*
X0004420062Y0005042006D01*
X0004400374Y0005094494D01*
X0004381888Y0005147709D01*
X0004364619Y0005201636D01*
X0004348585Y0005256262D01*
X0004333799Y0005311572D01*
X0004320279Y0005367554D01*
X0004308041Y0005424192D01*
X0004297099Y0005481473D01*
X0004287470Y0005539382D01*
X0004279169Y0005597907D01*
X0004272212Y0005657033D01*
X0004266616Y0005716747D01*
X0004262395Y0005777033D01*
X0004259565Y0005837879D01*
X0004258143Y0005899237D01*
X0004258024Y0005930155D01*
X0004258024Y0034501672D01*
X0004258155Y0034532623D01*
X0004259716Y0034594172D01*
X0004262823Y0034655363D01*
X0004267454Y0034716140D01*
X0004273591Y0034776483D01*
X0004281215Y0034836373D01*
X0004290308Y0034895793D01*
X0004300849Y0034954722D01*
X0004312821Y0035013141D01*
X0004326204Y0035071033D01*
X0004340979Y0035128377D01*
X0004357128Y0035185155D01*
X0004374631Y0035241349D01*
X0004393470Y0035296939D01*
X0004413625Y0035351906D01*
X0004435077Y0035406233D01*
X0004457808Y0035459899D01*
X0004481798Y0035512887D01*
X0004507028Y0035565177D01*
X0004533480Y0035616751D01*
X0004561134Y0035667590D01*
X0004589972Y0035717676D01*
X0004619974Y0035766989D01*
X0004651122Y0035815511D01*
X0004683396Y0035863223D01*
X0004716778Y0035910108D01*
X0004751249Y0035956145D01*
X0004786789Y0036001316D01*
X0004823380Y0036045603D01*
X0004861003Y0036088988D01*
X0004899639Y0036131450D01*
X0004939268Y0036172972D01*
X0004979873Y0036213536D01*
X0005021434Y0036253121D01*
X0005063933Y0036291711D01*
X0005107350Y0036329285D01*
X0005151666Y0036365826D01*
X0005196863Y0036401314D01*
X0005242922Y0036435732D01*
X0005289823Y0036469060D01*
X0005337548Y0036501279D01*
X0005386078Y0036532371D01*
X0005435395Y0036562318D01*
X0005485478Y0036591100D01*
X0005536310Y0036618699D01*
X0005587870Y0036645096D01*
X0005640141Y0036670272D01*
X0005693104Y0036694208D01*
X0005746739Y0036716887D01*
X0005801027Y0036738288D01*
X0005855949Y0036758394D01*
X0005911487Y0036777185D01*
X0005967621Y0036794643D01*
X0006024332Y0036810750D01*
X0006081602Y0036825485D01*
X0006139410Y0036838831D01*
X0006197739Y0036850769D01*
X0006256568Y0036861280D01*
X0006269795Y0036863302D01*
X0006619469Y0036858059D01*
X0006558896Y0036856523D01*
G37*
G36*
X0045532223Y0036893335D02*
G01*
X0045593771Y0036891779D01*
X0045599205Y0036891504D01*
X0006649896Y0036858188D01*
X0006619469Y0036858059D01*
X0006269795Y0036863302D01*
X0006315879Y0036870346D01*
X0006375652Y0036877947D01*
X0006435869Y0036884065D01*
X0006496509Y0036888682D01*
X0006557555Y0036891778D01*
X0006618949Y0036893335D01*
X0006649818Y0036893466D01*
X0045501273Y0036893466D01*
G37*
%LPD*%
G36*
X0035411690Y0034120277D02*
G01*
X0035431368Y0034116204D01*
X0035449228Y0034108515D01*
X0035464937Y0034097663D01*
X0035478167Y0034084103D01*
X0035488585Y0034068290D01*
X0035495861Y0034050679D01*
X0035499664Y0034031724D01*
X0035499995Y0034021857D01*
X0035499995Y0032829469D01*
X0035499636Y0032818996D01*
X0035495564Y0032799318D01*
X0035487875Y0032781459D01*
X0035477023Y0032765749D01*
X0035463463Y0032752520D01*
X0035447650Y0032742102D01*
X0035430039Y0032734826D01*
X0035411084Y0032731022D01*
X0035401217Y0032730692D01*
X0033376274Y0032730692D01*
X0033365801Y0032731050D01*
X0033346123Y0032735122D01*
X0033328264Y0032742812D01*
X0033312554Y0032753664D01*
X0033299325Y0032767223D01*
X0033288907Y0032783036D01*
X0033281631Y0032800648D01*
X0033277827Y0032819603D01*
X0033277497Y0032829469D01*
X0033277497Y0034021857D01*
X0033277855Y0034032330D01*
X0033281927Y0034052009D01*
X0033289617Y0034069868D01*
X0033300469Y0034085578D01*
X0033314029Y0034098807D01*
X0033329841Y0034109225D01*
X0033347453Y0034116501D01*
X0033366408Y0034120304D01*
X0033376274Y0034120635D01*
X0035401217Y0034120635D01*
G37*
%LPD*%
G36*
X0035411690Y0030768891D02*
G01*
X0035431368Y0030764819D01*
X0035449228Y0030757129D01*
X0035464937Y0030746277D01*
X0035478167Y0030732717D01*
X0035488585Y0030716904D01*
X0035495861Y0030699293D01*
X0035499664Y0030680338D01*
X0035499995Y0030670471D01*
X0035499995Y0029478084D01*
X0035499636Y0029467611D01*
X0035495564Y0029447932D01*
X0035487875Y0029430073D01*
X0035477023Y0029414363D01*
X0035463463Y0029401134D01*
X0035447650Y0029390716D01*
X0035430039Y0029383440D01*
X0035411084Y0029379637D01*
X0035401217Y0029379306D01*
X0033376274Y0029379306D01*
X0033365801Y0029379664D01*
X0033346123Y0029383736D01*
X0033328264Y0029391426D01*
X0033312554Y0029402278D01*
X0033299325Y0029415838D01*
X0033288907Y0029431651D01*
X0033281631Y0029449262D01*
X0033277827Y0029468217D01*
X0033277497Y0029478084D01*
X0033277497Y0030670471D01*
X0033277855Y0030680944D01*
X0033281927Y0030700623D01*
X0033289617Y0030718482D01*
X0033300469Y0030734192D01*
X0033314029Y0030747421D01*
X0033329841Y0030757839D01*
X0033347453Y0030765115D01*
X0033366408Y0030768918D01*
X0033376274Y0030769249D01*
X0035401217Y0030769249D01*
G37*
%LPD*%
G36*
X0035411690Y0029075559D02*
G01*
X0035431368Y0029071487D01*
X0035449228Y0029063797D01*
X0035464937Y0029052945D01*
X0035478167Y0029039386D01*
X0035488585Y0029023573D01*
X0035495861Y0029005961D01*
X0035499664Y0028987006D01*
X0035499995Y0028977140D01*
X0035499995Y0027784752D01*
X0035499636Y0027774279D01*
X0035495564Y0027754600D01*
X0035487875Y0027736741D01*
X0035477023Y0027721031D01*
X0035463463Y0027707802D01*
X0035447650Y0027697384D01*
X0035430039Y0027690108D01*
X0035411084Y0027686305D01*
X0035401217Y0027685974D01*
X0033376274Y0027685974D01*
X0033365801Y0027686332D01*
X0033346123Y0027690405D01*
X0033328264Y0027698094D01*
X0033312554Y0027708946D01*
X0033299325Y0027722506D01*
X0033288907Y0027738319D01*
X0033281631Y0027755930D01*
X0033277827Y0027774885D01*
X0033277497Y0027784752D01*
X0033277497Y0028977140D01*
X0033277855Y0028987613D01*
X0033281927Y0029007291D01*
X0033289617Y0029025150D01*
X0033300469Y0029040860D01*
X0033314029Y0029054089D01*
X0033329841Y0029064507D01*
X0033347453Y0029071783D01*
X0033366408Y0029075587D01*
X0033376274Y0029075917D01*
X0035401217Y0029075917D01*
G37*
%LPD*%
G36*
X0035411690Y0026637867D02*
G01*
X0035431368Y0026633795D01*
X0035449228Y0026626105D01*
X0035464937Y0026615253D01*
X0035478167Y0026601693D01*
X0035488585Y0026585880D01*
X0035495861Y0026568269D01*
X0035499664Y0026549314D01*
X0035499995Y0026539447D01*
X0035499995Y0025347060D01*
X0035499636Y0025336587D01*
X0035495564Y0025316908D01*
X0035487875Y0025299049D01*
X0035477023Y0025283339D01*
X0035463463Y0025270110D01*
X0035447650Y0025259692D01*
X0035430039Y0025252416D01*
X0035411084Y0025248613D01*
X0035401217Y0025248282D01*
X0033376274Y0025248282D01*
X0033365801Y0025248640D01*
X0033346123Y0025252712D01*
X0033328264Y0025260402D01*
X0033312554Y0025271254D01*
X0033299325Y0025284814D01*
X0033288907Y0025300627D01*
X0033281631Y0025318238D01*
X0033277827Y0025337193D01*
X0033277497Y0025347060D01*
X0033277497Y0026539447D01*
X0033277855Y0026549921D01*
X0033281927Y0026569599D01*
X0033289617Y0026587458D01*
X0033300469Y0026603168D01*
X0033314029Y0026616397D01*
X0033329841Y0026626815D01*
X0033347453Y0026634091D01*
X0033366408Y0026637894D01*
X0033376274Y0026638225D01*
X0035401217Y0026638225D01*
G37*
%LPD*%
G36*
X0035411690Y0024154314D02*
G01*
X0035431368Y0024150242D01*
X0035449228Y0024142552D01*
X0035464937Y0024131700D01*
X0035478167Y0024118140D01*
X0035488585Y0024102327D01*
X0035495861Y0024084716D01*
X0035499664Y0024065761D01*
X0035499995Y0024055894D01*
X0035499995Y0022863506D01*
X0035499636Y0022853033D01*
X0035495564Y0022833355D01*
X0035487875Y0022815496D01*
X0035477023Y0022799786D01*
X0035463463Y0022786557D01*
X0035447650Y0022776139D01*
X0035430039Y0022768863D01*
X0035411084Y0022765060D01*
X0035401217Y0022764729D01*
X0033376274Y0022764729D01*
X0033365801Y0022765087D01*
X0033346123Y0022769159D01*
X0033328264Y0022776849D01*
X0033312554Y0022787701D01*
X0033299325Y0022801261D01*
X0033288907Y0022817074D01*
X0033281631Y0022834685D01*
X0033277827Y0022853640D01*
X0033277497Y0022863506D01*
X0033277497Y0024055894D01*
X0033277855Y0024066367D01*
X0033281927Y0024086046D01*
X0033289617Y0024103905D01*
X0033300469Y0024119615D01*
X0033314029Y0024132844D01*
X0033329841Y0024143262D01*
X0033347453Y0024150538D01*
X0033366408Y0024154341D01*
X0033376274Y0024154672D01*
X0035401217Y0024154672D01*
G37*
%LPD*%
G36*
X0035411690Y0021639010D02*
G01*
X0035431368Y0021634938D01*
X0035449228Y0021627249D01*
X0035464937Y0021616397D01*
X0035478167Y0021602837D01*
X0035488585Y0021587024D01*
X0035495861Y0021569413D01*
X0035499664Y0021550458D01*
X0035499995Y0021540591D01*
X0035499995Y0020348203D01*
X0035499636Y0020337730D01*
X0035495564Y0020318052D01*
X0035487875Y0020300192D01*
X0035477023Y0020284483D01*
X0035463463Y0020271254D01*
X0035447650Y0020260836D01*
X0035430039Y0020253560D01*
X0035411084Y0020249756D01*
X0035401217Y0020249426D01*
X0033376274Y0020249426D01*
X0033365801Y0020249784D01*
X0033346123Y0020253856D01*
X0033328264Y0020261545D01*
X0033312554Y0020272397D01*
X0033299325Y0020285957D01*
X0033288907Y0020301770D01*
X0033281631Y0020319382D01*
X0033277827Y0020338336D01*
X0033277497Y0020348203D01*
X0033277497Y0021540591D01*
X0033277855Y0021551064D01*
X0033281927Y0021570742D01*
X0033289617Y0021588602D01*
X0033300469Y0021604311D01*
X0033314029Y0021617541D01*
X0033329841Y0021627959D01*
X0033347453Y0021635235D01*
X0033366408Y0021639038D01*
X0033376274Y0021639369D01*
X0035401217Y0021639369D01*
G37*
%LPD*%
G36*
X0035411690Y0019991540D02*
G01*
X0035431368Y0019987468D01*
X0035449228Y0019979778D01*
X0035464937Y0019968926D01*
X0035478167Y0019955366D01*
X0035488585Y0019939553D01*
X0035495861Y0019921942D01*
X0035499664Y0019902987D01*
X0035499995Y0019893120D01*
X0035499995Y0018700733D01*
X0035499636Y0018690259D01*
X0035495564Y0018670581D01*
X0035487875Y0018652722D01*
X0035477023Y0018637012D01*
X0035463463Y0018623783D01*
X0035447650Y0018613365D01*
X0035430039Y0018606089D01*
X0035411084Y0018602286D01*
X0035401217Y0018601955D01*
X0033376274Y0018601955D01*
X0033365801Y0018602313D01*
X0033346123Y0018606385D01*
X0033328264Y0018614075D01*
X0033312554Y0018624927D01*
X0033299325Y0018638487D01*
X0033288907Y0018654300D01*
X0033281631Y0018671911D01*
X0033277827Y0018690866D01*
X0033277497Y0018700733D01*
X0033277497Y0019893120D01*
X0033277855Y0019903593D01*
X0033281927Y0019923272D01*
X0033289617Y0019941131D01*
X0033300469Y0019956841D01*
X0033314029Y0019970070D01*
X0033329841Y0019980488D01*
X0033347453Y0019987764D01*
X0033366408Y0019991567D01*
X0033376274Y0019991898D01*
X0035401217Y0019991898D01*
G37*
%LPD*%
G36*
X0035411690Y0018333486D02*
G01*
X0035431368Y0018329414D01*
X0035449228Y0018321724D01*
X0035464937Y0018310872D01*
X0035478167Y0018297312D01*
X0035488585Y0018281499D01*
X0035495861Y0018263888D01*
X0035499664Y0018244933D01*
X0035499995Y0018235066D01*
X0035499995Y0017042679D01*
X0035499636Y0017032205D01*
X0035495564Y0017012527D01*
X0035487875Y0016994668D01*
X0035477023Y0016978958D01*
X0035463463Y0016965729D01*
X0035447650Y0016955311D01*
X0035430039Y0016948035D01*
X0035411084Y0016944232D01*
X0035401217Y0016943901D01*
X0033376274Y0016943901D01*
X0033365801Y0016944259D01*
X0033346123Y0016948331D01*
X0033328264Y0016956021D01*
X0033312554Y0016966873D01*
X0033299325Y0016980433D01*
X0033288907Y0016996246D01*
X0033281631Y0017013857D01*
X0033277827Y0017032812D01*
X0033277497Y0017042679D01*
X0033277497Y0018235066D01*
X0033277855Y0018245539D01*
X0033281927Y0018265218D01*
X0033289617Y0018283077D01*
X0033300469Y0018298787D01*
X0033314029Y0018312016D01*
X0033329841Y0018322434D01*
X0033347453Y0018329710D01*
X0033366408Y0018333513D01*
X0033376274Y0018333844D01*
X0035401217Y0018333844D01*
G37*
%LPD*%
G36*
X0035411690Y0016657793D02*
G01*
X0035431368Y0016653721D01*
X0035449228Y0016646031D01*
X0035464937Y0016635179D01*
X0035478167Y0016621619D01*
X0035488585Y0016605806D01*
X0035495861Y0016588195D01*
X0035499664Y0016569240D01*
X0035499995Y0016559373D01*
X0035499995Y0015366986D01*
X0035499636Y0015356513D01*
X0035495564Y0015336834D01*
X0035487875Y0015318975D01*
X0035477023Y0015303265D01*
X0035463463Y0015290036D01*
X0035447650Y0015279618D01*
X0035430039Y0015272342D01*
X0035411084Y0015268539D01*
X0035401217Y0015268208D01*
X0033376274Y0015268208D01*
X0033365801Y0015268566D01*
X0033346123Y0015272638D01*
X0033328264Y0015280328D01*
X0033312554Y0015291180D01*
X0033299325Y0015304740D01*
X0033288907Y0015320553D01*
X0033281631Y0015338164D01*
X0033277827Y0015357119D01*
X0033277497Y0015366986D01*
X0033277497Y0016559373D01*
X0033277855Y0016569847D01*
X0033281927Y0016589525D01*
X0033289617Y0016607384D01*
X0033300469Y0016623094D01*
X0033314029Y0016636323D01*
X0033329841Y0016646741D01*
X0033347453Y0016654017D01*
X0033366408Y0016657820D01*
X0033376274Y0016658151D01*
X0035401217Y0016658151D01*
G37*
%LPD*%
G36*
X0035411690Y0014142490D02*
G01*
X0035431368Y0014138418D01*
X0035449228Y0014130728D01*
X0035464937Y0014119876D01*
X0035478167Y0014106316D01*
X0035488585Y0014090503D01*
X0035495861Y0014072892D01*
X0035499664Y0014053937D01*
X0035499995Y0014044070D01*
X0035499995Y0012851682D01*
X0035499636Y0012841209D01*
X0035495564Y0012821531D01*
X0035487875Y0012803672D01*
X0035477023Y0012787962D01*
X0035463463Y0012774733D01*
X0035447650Y0012764315D01*
X0035430039Y0012757039D01*
X0035411084Y0012753236D01*
X0035401217Y0012752905D01*
X0033376274Y0012752905D01*
X0033365801Y0012753263D01*
X0033346123Y0012757335D01*
X0033328264Y0012765025D01*
X0033312554Y0012775877D01*
X0033299325Y0012789437D01*
X0033288907Y0012805250D01*
X0033281631Y0012822861D01*
X0033277827Y0012841816D01*
X0033277497Y0012851682D01*
X0033277497Y0014044070D01*
X0033277855Y0014054543D01*
X0033281927Y0014074222D01*
X0033289617Y0014092081D01*
X0033300469Y0014107791D01*
X0033314029Y0014121020D01*
X0033329841Y0014131438D01*
X0033347453Y0014138714D01*
X0033366408Y0014142517D01*
X0033376274Y0014142848D01*
X0035401217Y0014142848D01*
G37*
%LPD*%
G36*
X0035411690Y0011644825D02*
G01*
X0035431368Y0011640753D01*
X0035449228Y0011633064D01*
X0035464937Y0011622212D01*
X0035478167Y0011608652D01*
X0035488585Y0011592839D01*
X0035495861Y0011575228D01*
X0035499664Y0011556273D01*
X0035499995Y0011546406D01*
X0035499995Y0010354018D01*
X0035499636Y0010343545D01*
X0035495564Y0010323867D01*
X0035487875Y0010306007D01*
X0035477023Y0010290298D01*
X0035463463Y0010277069D01*
X0035447650Y0010266651D01*
X0035430039Y0010259375D01*
X0035411084Y0010255571D01*
X0035401217Y0010255240D01*
X0033376274Y0010255240D01*
X0033365801Y0010255599D01*
X0033346123Y0010259671D01*
X0033328264Y0010267360D01*
X0033312554Y0010278212D01*
X0033299325Y0010291772D01*
X0033288907Y0010307585D01*
X0033281631Y0010325196D01*
X0033277827Y0010344151D01*
X0033277497Y0010354018D01*
X0033277497Y0011546406D01*
X0033277855Y0011556879D01*
X0033281927Y0011576557D01*
X0033289617Y0011594417D01*
X0033300469Y0011610126D01*
X0033314029Y0011623355D01*
X0033329841Y0011633773D01*
X0033347453Y0011641049D01*
X0033366408Y0011644853D01*
X0033376274Y0011645184D01*
X0035401217Y0011645184D01*
G37*
%LPD*%
G36*
X0013430127Y0036074664D02*
G01*
X0013449806Y0036070592D01*
X0013467665Y0036062902D01*
X0013483375Y0036052050D01*
X0013496604Y0036038490D01*
X0013507022Y0036022677D01*
X0013514298Y0036005066D01*
X0013518101Y0035986111D01*
X0013518432Y0035976244D01*
X0013518432Y0034254690D01*
X0013518074Y0034244217D01*
X0013514001Y0034224539D01*
X0013506312Y0034206679D01*
X0013495460Y0034190970D01*
X0013481900Y0034177741D01*
X0013466087Y0034167323D01*
X0013448476Y0034160047D01*
X0013429521Y0034156243D01*
X0013419654Y0034155913D01*
X0011041934Y0034155913D01*
X0011031461Y0034156271D01*
X0011011783Y0034160343D01*
X0010993923Y0034168032D01*
X0010978214Y0034178884D01*
X0010964985Y0034192444D01*
X0010954567Y0034208257D01*
X0010947291Y0034225869D01*
X0010943487Y0034244824D01*
X0010943156Y0034254690D01*
X0010943156Y0035976244D01*
X0010943515Y0035986717D01*
X0010947587Y0036006396D01*
X0010955276Y0036024255D01*
X0010966128Y0036039965D01*
X0010979688Y0036053194D01*
X0010995501Y0036063612D01*
X0011013113Y0036070888D01*
X0011032067Y0036074691D01*
X0011041934Y0036075022D01*
X0013419654Y0036075022D01*
G37*
%LPD*%
G36*
X0014618987Y0006384914D02*
G01*
X0014638666Y0006380841D01*
X0014656525Y0006373152D01*
X0014672235Y0006362300D01*
X0014685464Y0006348740D01*
X0014695882Y0006332927D01*
X0014703158Y0006315316D01*
X0014706961Y0006296361D01*
X0014707292Y0006286494D01*
X0014707292Y0004564940D01*
X0014706934Y0004554467D01*
X0014702861Y0004534789D01*
X0014695172Y0004516929D01*
X0014684320Y0004501220D01*
X0014670760Y0004487991D01*
X0014654947Y0004477573D01*
X0014637336Y0004470297D01*
X0014618381Y0004466493D01*
X0014608514Y0004466163D01*
X0012230794Y0004466163D01*
X0012220321Y0004466521D01*
X0012200643Y0004470593D01*
X0012182783Y0004478282D01*
X0012167074Y0004489134D01*
X0012153845Y0004502694D01*
X0012143427Y0004518507D01*
X0012136151Y0004536119D01*
X0012132347Y0004555073D01*
X0012132016Y0004564940D01*
X0012132016Y0006286494D01*
X0012132375Y0006296967D01*
X0012136447Y0006316646D01*
X0012144136Y0006334505D01*
X0012154988Y0006350215D01*
X0012168548Y0006363444D01*
X0012184361Y0006373862D01*
X0012201973Y0006381138D01*
X0012220927Y0006384941D01*
X0012230794Y0006385272D01*
X0014608514Y0006385272D01*
G37*
%LPD*%
G36*
X0044267730Y0016093325D02*
G01*
X0044319003Y0016090421D01*
X0044369562Y0016085007D01*
X0044419344Y0016077144D01*
X0044468287Y0016066897D01*
X0044516328Y0016054327D01*
X0044563404Y0016039497D01*
X0044609452Y0016022470D01*
X0044654411Y0016003308D01*
X0044698216Y0015982075D01*
X0044740807Y0015958832D01*
X0044782119Y0015933643D01*
X0044822091Y0015906570D01*
X0044860659Y0015877675D01*
X0044897761Y0015847022D01*
X0044933335Y0015814673D01*
X0044967318Y0015780690D01*
X0044999646Y0015745137D01*
X0045030258Y0015708076D01*
X0045059090Y0015669570D01*
X0045086081Y0015629681D01*
X0045111167Y0015588472D01*
X0045134286Y0015546006D01*
X0045155374Y0015502345D01*
X0045174371Y0015457552D01*
X0045191212Y0015411689D01*
X0045205835Y0015364820D01*
X0045218177Y0015317007D01*
X0045228177Y0015268312D01*
X0045235770Y0015218799D01*
X0045240895Y0015168529D01*
X0045243489Y0015117566D01*
X0045243708Y0015091819D01*
X0045243489Y0015066072D01*
X0045240895Y0015015110D01*
X0045235770Y0014964842D01*
X0045228177Y0014915331D01*
X0045218177Y0014866642D01*
X0045205835Y0014818836D01*
X0045191212Y0014771979D01*
X0045174371Y0014726132D01*
X0045155374Y0014681360D01*
X0045134286Y0014637725D01*
X0045111167Y0014595291D01*
X0045086081Y0014554121D01*
X0045059090Y0014514278D01*
X0045030258Y0014475827D01*
X0044999646Y0014438829D01*
X0044967318Y0014403349D01*
X0044933335Y0014369449D01*
X0044897761Y0014337193D01*
X0044860659Y0014306645D01*
X0044822091Y0014277867D01*
X0044782119Y0014250923D01*
X0044740807Y0014225876D01*
X0044698216Y0014202789D01*
X0044654411Y0014181727D01*
X0044609452Y0014162751D01*
X0044563404Y0014145926D01*
X0044516328Y0014131314D01*
X0044468287Y0014118980D01*
X0044419344Y0014108986D01*
X0044369562Y0014101395D01*
X0044319003Y0014096271D01*
X0044267730Y0014093678D01*
X0044241820Y0014093459D01*
X0044216073Y0014093678D01*
X0044165110Y0014096271D01*
X0044114842Y0014101395D01*
X0044065332Y0014108986D01*
X0044016642Y0014118980D01*
X0043968837Y0014131314D01*
X0043921979Y0014145926D01*
X0043876133Y0014162751D01*
X0043831360Y0014181727D01*
X0043787725Y0014202789D01*
X0043745291Y0014225876D01*
X0043704121Y0014250923D01*
X0043664279Y0014277867D01*
X0043625827Y0014306645D01*
X0043588830Y0014337193D01*
X0043553349Y0014369449D01*
X0043519449Y0014403349D01*
X0043487194Y0014438829D01*
X0043456645Y0014475827D01*
X0043427867Y0014514278D01*
X0043400923Y0014554121D01*
X0043375876Y0014595291D01*
X0043352790Y0014637725D01*
X0043331727Y0014681360D01*
X0043312752Y0014726132D01*
X0043295927Y0014771979D01*
X0043281315Y0014818836D01*
X0043268980Y0014866642D01*
X0043258986Y0014915331D01*
X0043251396Y0014964842D01*
X0043246272Y0015015110D01*
X0043243678Y0015066072D01*
X0043243460Y0015091819D01*
X0043243678Y0015117730D01*
X0043246272Y0015169003D01*
X0043251396Y0015219562D01*
X0043258986Y0015269344D01*
X0043268980Y0015318287D01*
X0043281315Y0015366327D01*
X0043295927Y0015413403D01*
X0043312752Y0015459452D01*
X0043331727Y0015504410D01*
X0043352790Y0015548216D01*
X0043375876Y0015590806D01*
X0043400923Y0015632118D01*
X0043427867Y0015672090D01*
X0043456645Y0015710658D01*
X0043487194Y0015747761D01*
X0043519449Y0015783335D01*
X0043553349Y0015817317D01*
X0043588830Y0015849645D01*
X0043625827Y0015880257D01*
X0043664279Y0015909090D01*
X0043704121Y0015936080D01*
X0043745291Y0015961166D01*
X0043787725Y0015984285D01*
X0043831360Y0016005374D01*
X0043876133Y0016024370D01*
X0043921979Y0016041211D01*
X0043968837Y0016055834D01*
X0044016642Y0016068177D01*
X0044065332Y0016078176D01*
X0044114842Y0016085770D01*
X0044165110Y0016090895D01*
X0044216073Y0016093488D01*
X0044241820Y0016093707D01*
G37*
%LPD*%
G36*
X0041727733Y0016089961D02*
G01*
X0041779006Y0016087367D01*
X0041829565Y0016082242D01*
X0041879347Y0016074648D01*
X0041928289Y0016064649D01*
X0041976330Y0016052306D01*
X0042023406Y0016037683D01*
X0042069454Y0016020842D01*
X0042114413Y0016001846D01*
X0042158219Y0015980757D01*
X0042200809Y0015957638D01*
X0042242121Y0015932552D01*
X0042282093Y0015905562D01*
X0042320661Y0015876729D01*
X0042357764Y0015846118D01*
X0042393337Y0015813789D01*
X0042427320Y0015779807D01*
X0042459648Y0015744233D01*
X0042490260Y0015707131D01*
X0042519093Y0015668562D01*
X0042546083Y0015628591D01*
X0042571169Y0015587278D01*
X0042594288Y0015544688D01*
X0042615377Y0015500882D01*
X0042634373Y0015455924D01*
X0042651214Y0015409875D01*
X0042665837Y0015362799D01*
X0042678180Y0015314759D01*
X0042688179Y0015265816D01*
X0042695773Y0015216034D01*
X0042700898Y0015165475D01*
X0042703491Y0015114202D01*
X0042703710Y0015088291D01*
X0042703491Y0015062545D01*
X0042700898Y0015011582D01*
X0042695773Y0014961314D01*
X0042688179Y0014911803D01*
X0042678180Y0014863114D01*
X0042665837Y0014815309D01*
X0042651214Y0014768451D01*
X0042634373Y0014722604D01*
X0042615377Y0014677832D01*
X0042594288Y0014634197D01*
X0042571169Y0014591763D01*
X0042546083Y0014550593D01*
X0042519093Y0014510751D01*
X0042490260Y0014472299D01*
X0042459648Y0014435301D01*
X0042427320Y0014399821D01*
X0042393337Y0014365921D01*
X0042357764Y0014333665D01*
X0042320661Y0014303117D01*
X0042282093Y0014274339D01*
X0042242121Y0014247395D01*
X0042200809Y0014222348D01*
X0042158219Y0014199262D01*
X0042114413Y0014178199D01*
X0042069454Y0014159223D01*
X0042023406Y0014142398D01*
X0041976330Y0014127787D01*
X0041928289Y0014115452D01*
X0041879347Y0014105458D01*
X0041829565Y0014097867D01*
X0041779006Y0014092744D01*
X0041727733Y0014090150D01*
X0041701822Y0014089931D01*
X0041676075Y0014090150D01*
X0041625113Y0014092744D01*
X0041574845Y0014097867D01*
X0041525334Y0014105458D01*
X0041476645Y0014115452D01*
X0041428839Y0014127787D01*
X0041381982Y0014142398D01*
X0041336135Y0014159223D01*
X0041291363Y0014178199D01*
X0041247728Y0014199262D01*
X0041205294Y0014222348D01*
X0041164124Y0014247395D01*
X0041124281Y0014274339D01*
X0041085830Y0014303117D01*
X0041048832Y0014333665D01*
X0041013352Y0014365921D01*
X0040979452Y0014399821D01*
X0040947196Y0014435301D01*
X0040916648Y0014472299D01*
X0040887870Y0014510751D01*
X0040860926Y0014550593D01*
X0040835879Y0014591763D01*
X0040812792Y0014634197D01*
X0040791730Y0014677832D01*
X0040772754Y0014722604D01*
X0040755929Y0014768451D01*
X0040741317Y0014815309D01*
X0040728983Y0014863114D01*
X0040718989Y0014911803D01*
X0040711398Y0014961314D01*
X0040706274Y0015011582D01*
X0040703681Y0015062545D01*
X0040703462Y0015088291D01*
X0040703681Y0015114202D01*
X0040706274Y0015165475D01*
X0040711398Y0015216034D01*
X0040718989Y0015265816D01*
X0040728983Y0015314759D01*
X0040741317Y0015362799D01*
X0040755929Y0015409875D01*
X0040772754Y0015455924D01*
X0040791730Y0015500882D01*
X0040812792Y0015544688D01*
X0040835879Y0015587278D01*
X0040860926Y0015628591D01*
X0040887870Y0015668562D01*
X0040916648Y0015707131D01*
X0040947196Y0015744233D01*
X0040979452Y0015779807D01*
X0041013352Y0015813789D01*
X0041048832Y0015846118D01*
X0041085830Y0015876729D01*
X0041124281Y0015905562D01*
X0041164124Y0015932552D01*
X0041205294Y0015957638D01*
X0041247728Y0015980757D01*
X0041291363Y0016001846D01*
X0041336135Y0016020842D01*
X0041381982Y0016037683D01*
X0041428839Y0016052306D01*
X0041476645Y0016064649D01*
X0041525334Y0016074648D01*
X0041574845Y0016082242D01*
X0041625113Y0016087367D01*
X0041676075Y0016089961D01*
X0041701822Y0016090179D01*
G37*
%LPD*%
G36*
X0044267730Y0018626594D02*
G01*
X0044319003Y0018624311D01*
X0044369562Y0018619476D01*
X0044419344Y0018612155D01*
X0044468287Y0018602408D01*
X0044516328Y0018590301D01*
X0044563404Y0018575896D01*
X0044609452Y0018559257D01*
X0044654411Y0018540447D01*
X0044698216Y0018519529D01*
X0044740807Y0018496567D01*
X0044782119Y0018471623D01*
X0044822091Y0018444762D01*
X0044860659Y0018416046D01*
X0044897761Y0018385539D01*
X0044933335Y0018353304D01*
X0044967318Y0018319404D01*
X0044999646Y0018283903D01*
X0045030258Y0018246864D01*
X0045059090Y0018208350D01*
X0045086081Y0018168425D01*
X0045111167Y0018127152D01*
X0045134286Y0018084594D01*
X0045155374Y0018040814D01*
X0045174371Y0017995876D01*
X0045191212Y0017949843D01*
X0045205835Y0017902779D01*
X0045218177Y0017854747D01*
X0045228177Y0017805809D01*
X0045235770Y0017756030D01*
X0045240895Y0017705472D01*
X0045243489Y0017654200D01*
X0045243708Y0017628289D01*
X0045243489Y0017602379D01*
X0045240895Y0017551106D01*
X0045235770Y0017500547D01*
X0045228177Y0017450765D01*
X0045218177Y0017401822D01*
X0045205835Y0017353781D01*
X0045191212Y0017306705D01*
X0045174371Y0017260657D01*
X0045155374Y0017215698D01*
X0045134286Y0017171893D01*
X0045111167Y0017129302D01*
X0045086081Y0017087990D01*
X0045059090Y0017048018D01*
X0045030258Y0017009450D01*
X0044999646Y0016972348D01*
X0044967318Y0016936774D01*
X0044933335Y0016902791D01*
X0044897761Y0016870463D01*
X0044860659Y0016839851D01*
X0044822091Y0016811019D01*
X0044782119Y0016784028D01*
X0044740807Y0016758942D01*
X0044698216Y0016735823D01*
X0044654411Y0016714735D01*
X0044609452Y0016695738D01*
X0044563404Y0016678897D01*
X0044516328Y0016664274D01*
X0044468287Y0016651932D01*
X0044419344Y0016641932D01*
X0044369562Y0016634339D01*
X0044319003Y0016629214D01*
X0044267730Y0016626620D01*
X0044241820Y0016626401D01*
X0044216073Y0016626620D01*
X0044165110Y0016629214D01*
X0044114842Y0016634339D01*
X0044065332Y0016641932D01*
X0044016642Y0016651932D01*
X0043968837Y0016664274D01*
X0043921979Y0016678897D01*
X0043876133Y0016695738D01*
X0043831360Y0016714735D01*
X0043787725Y0016735823D01*
X0043745291Y0016758942D01*
X0043704121Y0016784028D01*
X0043664279Y0016811019D01*
X0043625827Y0016839851D01*
X0043588830Y0016870463D01*
X0043553349Y0016902791D01*
X0043519449Y0016936774D01*
X0043487194Y0016972348D01*
X0043456645Y0017009450D01*
X0043427867Y0017048018D01*
X0043400923Y0017087990D01*
X0043375876Y0017129302D01*
X0043352790Y0017171893D01*
X0043331727Y0017215698D01*
X0043312752Y0017260657D01*
X0043295927Y0017306705D01*
X0043281315Y0017353781D01*
X0043268980Y0017401822D01*
X0043258986Y0017450765D01*
X0043251396Y0017500547D01*
X0043246272Y0017551106D01*
X0043243678Y0017602379D01*
X0043243460Y0017628289D01*
X0043243678Y0017654036D01*
X0043246272Y0017704999D01*
X0043251396Y0017755267D01*
X0043258986Y0017804777D01*
X0043268980Y0017853467D01*
X0043281315Y0017901272D01*
X0043295927Y0017948130D01*
X0043312752Y0017993976D01*
X0043331727Y0018038749D01*
X0043352790Y0018082384D01*
X0043375876Y0018124818D01*
X0043400923Y0018165987D01*
X0043427867Y0018205830D01*
X0043456645Y0018244282D01*
X0043487194Y0018281279D01*
X0043519449Y0018316760D01*
X0043553349Y0018350660D01*
X0043588830Y0018382915D01*
X0043625827Y0018413464D01*
X0043664279Y0018442242D01*
X0043704121Y0018469186D01*
X0043745291Y0018494233D01*
X0043787725Y0018517319D01*
X0043831360Y0018538382D01*
X0043876133Y0018557357D01*
X0043921979Y0018574182D01*
X0043968837Y0018588794D01*
X0044016642Y0018601128D01*
X0044065332Y0018611123D01*
X0044114842Y0018618713D01*
X0044165110Y0018623837D01*
X0044216073Y0018626431D01*
X0044241820Y0018626649D01*
G37*
%LPD*%
G36*
X0044267730Y0021169956D02*
G01*
X0044319003Y0021167362D01*
X0044369562Y0021162237D01*
X0044419344Y0021154644D01*
X0044468287Y0021144644D01*
X0044516328Y0021132302D01*
X0044563404Y0021117678D01*
X0044609452Y0021100837D01*
X0044654411Y0021081841D01*
X0044698216Y0021060752D01*
X0044740807Y0021037634D01*
X0044782119Y0021012548D01*
X0044822091Y0020985557D01*
X0044860659Y0020956725D01*
X0044897761Y0020926113D01*
X0044933335Y0020893784D01*
X0044967318Y0020859802D01*
X0044999646Y0020824228D01*
X0045030258Y0020787126D01*
X0045059090Y0020748558D01*
X0045086081Y0020708586D01*
X0045111167Y0020667274D01*
X0045134286Y0020624683D01*
X0045155374Y0020580877D01*
X0045174371Y0020535919D01*
X0045191212Y0020489870D01*
X0045205835Y0020442795D01*
X0045218177Y0020394754D01*
X0045228177Y0020345811D01*
X0045235770Y0020296029D01*
X0045240895Y0020245470D01*
X0045243489Y0020194197D01*
X0045243708Y0020168287D01*
X0045243489Y0020142540D01*
X0045240895Y0020091577D01*
X0045235770Y0020041309D01*
X0045228177Y0019991799D01*
X0045218177Y0019943109D01*
X0045205835Y0019895304D01*
X0045191212Y0019848446D01*
X0045174371Y0019802600D01*
X0045155374Y0019757827D01*
X0045134286Y0019714192D01*
X0045111167Y0019671758D01*
X0045086081Y0019630588D01*
X0045059090Y0019590746D01*
X0045030258Y0019552294D01*
X0044999646Y0019515296D01*
X0044967318Y0019479816D01*
X0044933335Y0019445916D01*
X0044897761Y0019413661D01*
X0044860659Y0019383112D01*
X0044822091Y0019354334D01*
X0044782119Y0019327390D01*
X0044740807Y0019302343D01*
X0044698216Y0019279257D01*
X0044654411Y0019258194D01*
X0044609452Y0019239219D01*
X0044563404Y0019222393D01*
X0044516328Y0019207782D01*
X0044468287Y0019195447D01*
X0044419344Y0019185453D01*
X0044369562Y0019177863D01*
X0044319003Y0019172739D01*
X0044267730Y0019170145D01*
X0044241820Y0019169927D01*
X0044216073Y0019170145D01*
X0044165110Y0019172739D01*
X0044114842Y0019177863D01*
X0044065332Y0019185453D01*
X0044016642Y0019195447D01*
X0043968837Y0019207782D01*
X0043921979Y0019222393D01*
X0043876133Y0019239219D01*
X0043831360Y0019258194D01*
X0043787725Y0019279257D01*
X0043745291Y0019302343D01*
X0043704121Y0019327390D01*
X0043664279Y0019354334D01*
X0043625827Y0019383112D01*
X0043588830Y0019413661D01*
X0043553349Y0019445916D01*
X0043519449Y0019479816D01*
X0043487194Y0019515296D01*
X0043456645Y0019552294D01*
X0043427867Y0019590746D01*
X0043400923Y0019630588D01*
X0043375876Y0019671758D01*
X0043352790Y0019714192D01*
X0043331727Y0019757827D01*
X0043312752Y0019802600D01*
X0043295927Y0019848446D01*
X0043281315Y0019895304D01*
X0043268980Y0019943109D01*
X0043258986Y0019991799D01*
X0043251396Y0020041309D01*
X0043246272Y0020091577D01*
X0043243678Y0020142540D01*
X0043243460Y0020168287D01*
X0043243678Y0020194197D01*
X0043246272Y0020245470D01*
X0043251396Y0020296029D01*
X0043258986Y0020345811D01*
X0043268980Y0020394754D01*
X0043281315Y0020442795D01*
X0043295927Y0020489870D01*
X0043312752Y0020535919D01*
X0043331727Y0020580877D01*
X0043352790Y0020624683D01*
X0043375876Y0020667274D01*
X0043400923Y0020708586D01*
X0043427867Y0020748558D01*
X0043456645Y0020787126D01*
X0043487194Y0020824228D01*
X0043519449Y0020859802D01*
X0043553349Y0020893784D01*
X0043588830Y0020926113D01*
X0043625827Y0020956725D01*
X0043664279Y0020985557D01*
X0043704121Y0021012548D01*
X0043745291Y0021037634D01*
X0043787725Y0021060752D01*
X0043831360Y0021081841D01*
X0043876133Y0021100837D01*
X0043921979Y0021117678D01*
X0043968837Y0021132302D01*
X0044016642Y0021144644D01*
X0044065332Y0021154644D01*
X0044114842Y0021162237D01*
X0044165110Y0021167362D01*
X0044216073Y0021169956D01*
X0044241820Y0021170175D01*
G37*
%LPD*%
G36*
X0041727733Y0018626594D02*
G01*
X0041779006Y0018624311D01*
X0041829565Y0018619476D01*
X0041879347Y0018612155D01*
X0041928289Y0018602408D01*
X0041976330Y0018590301D01*
X0042023406Y0018575896D01*
X0042069454Y0018559257D01*
X0042114413Y0018540447D01*
X0042158219Y0018519529D01*
X0042200809Y0018496567D01*
X0042242121Y0018471623D01*
X0042282093Y0018444762D01*
X0042320661Y0018416046D01*
X0042357764Y0018385539D01*
X0042393337Y0018353304D01*
X0042427320Y0018319404D01*
X0042459648Y0018283903D01*
X0042490260Y0018246864D01*
X0042519093Y0018208350D01*
X0042546083Y0018168425D01*
X0042571169Y0018127152D01*
X0042594288Y0018084594D01*
X0042615377Y0018040814D01*
X0042634373Y0017995876D01*
X0042651214Y0017949843D01*
X0042665837Y0017902779D01*
X0042678180Y0017854747D01*
X0042688179Y0017805809D01*
X0042695773Y0017756030D01*
X0042700898Y0017705472D01*
X0042703491Y0017654200D01*
X0042703710Y0017628289D01*
X0042703491Y0017602379D01*
X0042700898Y0017551106D01*
X0042695773Y0017500547D01*
X0042688179Y0017450765D01*
X0042678180Y0017401822D01*
X0042665837Y0017353781D01*
X0042651214Y0017306705D01*
X0042634373Y0017260657D01*
X0042615377Y0017215698D01*
X0042594288Y0017171893D01*
X0042571169Y0017129302D01*
X0042546083Y0017087990D01*
X0042519093Y0017048018D01*
X0042490260Y0017009450D01*
X0042459648Y0016972348D01*
X0042427320Y0016936774D01*
X0042393337Y0016902791D01*
X0042357764Y0016870463D01*
X0042320661Y0016839851D01*
X0042282093Y0016811019D01*
X0042242121Y0016784028D01*
X0042200809Y0016758942D01*
X0042158219Y0016735823D01*
X0042114413Y0016714735D01*
X0042069454Y0016695738D01*
X0042023406Y0016678897D01*
X0041976330Y0016664274D01*
X0041928289Y0016651932D01*
X0041879347Y0016641932D01*
X0041829565Y0016634339D01*
X0041779006Y0016629214D01*
X0041727733Y0016626620D01*
X0041701822Y0016626401D01*
X0041676075Y0016626620D01*
X0041625113Y0016629214D01*
X0041574845Y0016634339D01*
X0041525334Y0016641932D01*
X0041476645Y0016651932D01*
X0041428839Y0016664274D01*
X0041381982Y0016678897D01*
X0041336135Y0016695738D01*
X0041291363Y0016714735D01*
X0041247728Y0016735823D01*
X0041205294Y0016758942D01*
X0041164124Y0016784028D01*
X0041124281Y0016811019D01*
X0041085830Y0016839851D01*
X0041048832Y0016870463D01*
X0041013352Y0016902791D01*
X0040979452Y0016936774D01*
X0040947196Y0016972348D01*
X0040916648Y0017009450D01*
X0040887870Y0017048018D01*
X0040860926Y0017087990D01*
X0040835879Y0017129302D01*
X0040812792Y0017171893D01*
X0040791730Y0017215698D01*
X0040772754Y0017260657D01*
X0040755929Y0017306705D01*
X0040741317Y0017353781D01*
X0040728983Y0017401822D01*
X0040718989Y0017450765D01*
X0040711398Y0017500547D01*
X0040706274Y0017551106D01*
X0040703681Y0017602379D01*
X0040703462Y0017628289D01*
X0040703681Y0017654036D01*
X0040706274Y0017704999D01*
X0040711398Y0017755267D01*
X0040718989Y0017804777D01*
X0040728983Y0017853467D01*
X0040741317Y0017901272D01*
X0040755929Y0017948130D01*
X0040772754Y0017993976D01*
X0040791730Y0018038749D01*
X0040812792Y0018082384D01*
X0040835879Y0018124818D01*
X0040860926Y0018165987D01*
X0040887870Y0018205830D01*
X0040916648Y0018244282D01*
X0040947196Y0018281279D01*
X0040979452Y0018316760D01*
X0041013352Y0018350660D01*
X0041048832Y0018382915D01*
X0041085830Y0018413464D01*
X0041124281Y0018442242D01*
X0041164124Y0018469186D01*
X0041205294Y0018494233D01*
X0041247728Y0018517319D01*
X0041291363Y0018538382D01*
X0041336135Y0018557357D01*
X0041381982Y0018574182D01*
X0041428839Y0018588794D01*
X0041476645Y0018601128D01*
X0041525334Y0018611123D01*
X0041574845Y0018618713D01*
X0041625113Y0018623837D01*
X0041676075Y0018626431D01*
X0041701822Y0018626649D01*
G37*
%LPD*%
G36*
X0041727733Y0021169956D02*
G01*
X0041779006Y0021167362D01*
X0041829565Y0021162237D01*
X0041879347Y0021154644D01*
X0041928289Y0021144644D01*
X0041976330Y0021132302D01*
X0042023406Y0021117678D01*
X0042069454Y0021100837D01*
X0042114413Y0021081841D01*
X0042158219Y0021060752D01*
X0042200809Y0021037634D01*
X0042242121Y0021012548D01*
X0042282093Y0020985557D01*
X0042320661Y0020956725D01*
X0042357764Y0020926113D01*
X0042393337Y0020893784D01*
X0042427320Y0020859802D01*
X0042459648Y0020824228D01*
X0042490260Y0020787126D01*
X0042519093Y0020748558D01*
X0042546083Y0020708586D01*
X0042571169Y0020667274D01*
X0042594288Y0020624683D01*
X0042615377Y0020580877D01*
X0042634373Y0020535919D01*
X0042651214Y0020489870D01*
X0042665837Y0020442795D01*
X0042678180Y0020394754D01*
X0042688179Y0020345811D01*
X0042695773Y0020296029D01*
X0042700898Y0020245470D01*
X0042703491Y0020194197D01*
X0042703710Y0020168287D01*
X0042703491Y0020142540D01*
X0042700898Y0020091577D01*
X0042695773Y0020041309D01*
X0042688179Y0019991799D01*
X0042678180Y0019943109D01*
X0042665837Y0019895304D01*
X0042651214Y0019848446D01*
X0042634373Y0019802600D01*
X0042615377Y0019757827D01*
X0042594288Y0019714192D01*
X0042571169Y0019671758D01*
X0042546083Y0019630588D01*
X0042519093Y0019590746D01*
X0042490260Y0019552294D01*
X0042459648Y0019515296D01*
X0042427320Y0019479816D01*
X0042393337Y0019445916D01*
X0042357764Y0019413661D01*
X0042320661Y0019383112D01*
X0042282093Y0019354334D01*
X0042242121Y0019327390D01*
X0042200809Y0019302343D01*
X0042158219Y0019279257D01*
X0042114413Y0019258194D01*
X0042069454Y0019239219D01*
X0042023406Y0019222393D01*
X0041976330Y0019207782D01*
X0041928289Y0019195447D01*
X0041879347Y0019185453D01*
X0041829565Y0019177863D01*
X0041779006Y0019172739D01*
X0041727733Y0019170145D01*
X0041701822Y0019169927D01*
X0041676075Y0019170145D01*
X0041625113Y0019172739D01*
X0041574845Y0019177863D01*
X0041525334Y0019185453D01*
X0041476645Y0019195447D01*
X0041428839Y0019207782D01*
X0041381982Y0019222393D01*
X0041336135Y0019239219D01*
X0041291363Y0019258194D01*
X0041247728Y0019279257D01*
X0041205294Y0019302343D01*
X0041164124Y0019327390D01*
X0041124281Y0019354334D01*
X0041085830Y0019383112D01*
X0041048832Y0019413661D01*
X0041013352Y0019445916D01*
X0040979452Y0019479816D01*
X0040947196Y0019515296D01*
X0040916648Y0019552294D01*
X0040887870Y0019590746D01*
X0040860926Y0019630588D01*
X0040835879Y0019671758D01*
X0040812792Y0019714192D01*
X0040791730Y0019757827D01*
X0040772754Y0019802600D01*
X0040755929Y0019848446D01*
X0040741317Y0019895304D01*
X0040728983Y0019943109D01*
X0040718989Y0019991799D01*
X0040711398Y0020041309D01*
X0040706274Y0020091577D01*
X0040703681Y0020142540D01*
X0040703462Y0020168287D01*
X0040703681Y0020194197D01*
X0040706274Y0020245470D01*
X0040711398Y0020296029D01*
X0040718989Y0020345811D01*
X0040728983Y0020394754D01*
X0040741317Y0020442795D01*
X0040755929Y0020489870D01*
X0040772754Y0020535919D01*
X0040791730Y0020580877D01*
X0040812792Y0020624683D01*
X0040835879Y0020667274D01*
X0040860926Y0020708586D01*
X0040887870Y0020748558D01*
X0040916648Y0020787126D01*
X0040947196Y0020824228D01*
X0040979452Y0020859802D01*
X0041013352Y0020893784D01*
X0041048832Y0020926113D01*
X0041085830Y0020956725D01*
X0041124281Y0020985557D01*
X0041164124Y0021012548D01*
X0041205294Y0021037634D01*
X0041247728Y0021060752D01*
X0041291363Y0021081841D01*
X0041336135Y0021100837D01*
X0041381982Y0021117678D01*
X0041428839Y0021132302D01*
X0041476645Y0021144644D01*
X0041525334Y0021154644D01*
X0041574845Y0021162237D01*
X0041625113Y0021167362D01*
X0041676075Y0021169956D01*
X0041701822Y0021170175D01*
G37*
%LPD*%
G36*
X0044267730Y0023706589D02*
G01*
X0044319003Y0023704306D01*
X0044369562Y0023699472D01*
X0044419344Y0023692150D01*
X0044468287Y0023682404D01*
X0044516328Y0023670296D01*
X0044563404Y0023655892D01*
X0044609452Y0023639253D01*
X0044654411Y0023620442D01*
X0044698216Y0023599524D01*
X0044740807Y0023576562D01*
X0044782119Y0023551618D01*
X0044822091Y0023524757D01*
X0044860659Y0023496041D01*
X0044897761Y0023465534D01*
X0044933335Y0023433299D01*
X0044967318Y0023399399D01*
X0044999646Y0023363898D01*
X0045030258Y0023326859D01*
X0045059090Y0023288345D01*
X0045086081Y0023248420D01*
X0045111167Y0023207147D01*
X0045134286Y0023164589D01*
X0045155374Y0023120809D01*
X0045174371Y0023075871D01*
X0045191212Y0023029839D01*
X0045205835Y0022982774D01*
X0045218177Y0022934742D01*
X0045228177Y0022885804D01*
X0045235770Y0022836025D01*
X0045240895Y0022785468D01*
X0045243489Y0022734195D01*
X0045243708Y0022708284D01*
X0045243489Y0022682374D01*
X0045240895Y0022631101D01*
X0045235770Y0022580542D01*
X0045228177Y0022530760D01*
X0045218177Y0022481817D01*
X0045205835Y0022433777D01*
X0045191212Y0022386701D01*
X0045174371Y0022340652D01*
X0045155374Y0022295694D01*
X0045134286Y0022251888D01*
X0045111167Y0022209298D01*
X0045086081Y0022167985D01*
X0045059090Y0022128013D01*
X0045030258Y0022089445D01*
X0044999646Y0022052343D01*
X0044967318Y0022016769D01*
X0044933335Y0021982787D01*
X0044897761Y0021950458D01*
X0044860659Y0021919846D01*
X0044822091Y0021891014D01*
X0044782119Y0021864023D01*
X0044740807Y0021838937D01*
X0044698216Y0021815819D01*
X0044654411Y0021794730D01*
X0044609452Y0021775734D01*
X0044563404Y0021758893D01*
X0044516328Y0021744270D01*
X0044468287Y0021731927D01*
X0044419344Y0021721928D01*
X0044369562Y0021714334D01*
X0044319003Y0021709209D01*
X0044267730Y0021706615D01*
X0044241820Y0021706396D01*
X0044216073Y0021706615D01*
X0044165110Y0021709209D01*
X0044114842Y0021714334D01*
X0044065332Y0021721928D01*
X0044016642Y0021731927D01*
X0043968837Y0021744270D01*
X0043921979Y0021758893D01*
X0043876133Y0021775734D01*
X0043831360Y0021794730D01*
X0043787725Y0021815819D01*
X0043745291Y0021838937D01*
X0043704121Y0021864023D01*
X0043664279Y0021891014D01*
X0043625827Y0021919846D01*
X0043588830Y0021950458D01*
X0043553349Y0021982787D01*
X0043519449Y0022016769D01*
X0043487194Y0022052343D01*
X0043456645Y0022089445D01*
X0043427867Y0022128013D01*
X0043400923Y0022167985D01*
X0043375876Y0022209298D01*
X0043352790Y0022251888D01*
X0043331727Y0022295694D01*
X0043312752Y0022340652D01*
X0043295927Y0022386701D01*
X0043281315Y0022433777D01*
X0043268980Y0022481817D01*
X0043258986Y0022530760D01*
X0043251396Y0022580542D01*
X0043246272Y0022631101D01*
X0043243678Y0022682374D01*
X0043243460Y0022708284D01*
X0043243678Y0022734031D01*
X0043246272Y0022784994D01*
X0043251396Y0022835262D01*
X0043258986Y0022884773D01*
X0043268980Y0022933462D01*
X0043281315Y0022981267D01*
X0043295927Y0023028125D01*
X0043312752Y0023073971D01*
X0043331727Y0023118744D01*
X0043352790Y0023162379D01*
X0043375876Y0023204813D01*
X0043400923Y0023245983D01*
X0043427867Y0023285825D01*
X0043456645Y0023324277D01*
X0043487194Y0023361275D01*
X0043519449Y0023396755D01*
X0043553349Y0023430655D01*
X0043588830Y0023462911D01*
X0043625827Y0023493459D01*
X0043664279Y0023522237D01*
X0043704121Y0023549181D01*
X0043745291Y0023574228D01*
X0043787725Y0023597314D01*
X0043831360Y0023618377D01*
X0043876133Y0023637353D01*
X0043921979Y0023654178D01*
X0043968837Y0023668789D01*
X0044016642Y0023681124D01*
X0044065332Y0023691118D01*
X0044114842Y0023698709D01*
X0044165110Y0023703832D01*
X0044216073Y0023706426D01*
X0044241820Y0023706645D01*
G37*
%LPD*%
G36*
X0044267730Y0026249951D02*
G01*
X0044319003Y0026247357D01*
X0044369562Y0026242232D01*
X0044419344Y0026234639D01*
X0044468287Y0026224639D01*
X0044516328Y0026212297D01*
X0044563404Y0026197674D01*
X0044609452Y0026180833D01*
X0044654411Y0026161837D01*
X0044698216Y0026140748D01*
X0044740807Y0026117629D01*
X0044782119Y0026092543D01*
X0044822091Y0026065552D01*
X0044860659Y0026036720D01*
X0044897761Y0026006108D01*
X0044933335Y0025973780D01*
X0044967318Y0025939797D01*
X0044999646Y0025904224D01*
X0045030258Y0025867121D01*
X0045059090Y0025828553D01*
X0045086081Y0025788581D01*
X0045111167Y0025747269D01*
X0045134286Y0025704678D01*
X0045155374Y0025660873D01*
X0045174371Y0025615914D01*
X0045191212Y0025569866D01*
X0045205835Y0025522790D01*
X0045218177Y0025474749D01*
X0045228177Y0025425807D01*
X0045235770Y0025376024D01*
X0045240895Y0025325466D01*
X0045243489Y0025274193D01*
X0045243708Y0025248282D01*
X0045243489Y0025222535D01*
X0045240895Y0025171572D01*
X0045235770Y0025121304D01*
X0045228177Y0025071794D01*
X0045218177Y0025023104D01*
X0045205835Y0024975299D01*
X0045191212Y0024928442D01*
X0045174371Y0024882595D01*
X0045155374Y0024837823D01*
X0045134286Y0024794188D01*
X0045111167Y0024751754D01*
X0045086081Y0024710584D01*
X0045059090Y0024670741D01*
X0045030258Y0024632289D01*
X0044999646Y0024595292D01*
X0044967318Y0024559811D01*
X0044933335Y0024525912D01*
X0044897761Y0024493656D01*
X0044860659Y0024463107D01*
X0044822091Y0024434329D01*
X0044782119Y0024407385D01*
X0044740807Y0024382338D01*
X0044698216Y0024359252D01*
X0044654411Y0024338189D01*
X0044609452Y0024319214D01*
X0044563404Y0024302389D01*
X0044516328Y0024287777D01*
X0044468287Y0024275443D01*
X0044419344Y0024265448D01*
X0044369562Y0024257858D01*
X0044319003Y0024252734D01*
X0044267730Y0024250141D01*
X0044241820Y0024249922D01*
X0044216073Y0024250141D01*
X0044165110Y0024252734D01*
X0044114842Y0024257858D01*
X0044065332Y0024265448D01*
X0044016642Y0024275443D01*
X0043968837Y0024287777D01*
X0043921979Y0024302389D01*
X0043876133Y0024319214D01*
X0043831360Y0024338189D01*
X0043787725Y0024359252D01*
X0043745291Y0024382338D01*
X0043704121Y0024407385D01*
X0043664279Y0024434329D01*
X0043625827Y0024463107D01*
X0043588830Y0024493656D01*
X0043553349Y0024525912D01*
X0043519449Y0024559811D01*
X0043487194Y0024595292D01*
X0043456645Y0024632289D01*
X0043427867Y0024670741D01*
X0043400923Y0024710584D01*
X0043375876Y0024751754D01*
X0043352790Y0024794188D01*
X0043331727Y0024837823D01*
X0043312752Y0024882595D01*
X0043295927Y0024928442D01*
X0043281315Y0024975299D01*
X0043268980Y0025023104D01*
X0043258986Y0025071794D01*
X0043251396Y0025121304D01*
X0043246272Y0025171572D01*
X0043243678Y0025222535D01*
X0043243460Y0025248282D01*
X0043243678Y0025274193D01*
X0043246272Y0025325466D01*
X0043251396Y0025376024D01*
X0043258986Y0025425807D01*
X0043268980Y0025474749D01*
X0043281315Y0025522790D01*
X0043295927Y0025569866D01*
X0043312752Y0025615914D01*
X0043331727Y0025660873D01*
X0043352790Y0025704678D01*
X0043375876Y0025747269D01*
X0043400923Y0025788581D01*
X0043427867Y0025828553D01*
X0043456645Y0025867121D01*
X0043487194Y0025904224D01*
X0043519449Y0025939797D01*
X0043553349Y0025973780D01*
X0043588830Y0026006108D01*
X0043625827Y0026036720D01*
X0043664279Y0026065552D01*
X0043704121Y0026092543D01*
X0043745291Y0026117629D01*
X0043787725Y0026140748D01*
X0043831360Y0026161837D01*
X0043876133Y0026180833D01*
X0043921979Y0026197674D01*
X0043968837Y0026212297D01*
X0044016642Y0026224639D01*
X0044065332Y0026234639D01*
X0044114842Y0026242232D01*
X0044165110Y0026247357D01*
X0044216073Y0026249951D01*
X0044241820Y0026250170D01*
G37*
%LPD*%
G36*
X0041724205Y0023706589D02*
G01*
X0041775478Y0023704306D01*
X0041826037Y0023699472D01*
X0041875819Y0023692150D01*
X0041924762Y0023682404D01*
X0041972802Y0023670296D01*
X0042019878Y0023655892D01*
X0042065927Y0023639253D01*
X0042110885Y0023620442D01*
X0042154691Y0023599524D01*
X0042197281Y0023576562D01*
X0042238594Y0023551618D01*
X0042278565Y0023524757D01*
X0042317134Y0023496041D01*
X0042354236Y0023465534D01*
X0042389810Y0023433299D01*
X0042423792Y0023399399D01*
X0042456121Y0023363898D01*
X0042486732Y0023326859D01*
X0042515565Y0023288345D01*
X0042542555Y0023248420D01*
X0042567641Y0023207147D01*
X0042590760Y0023164589D01*
X0042611849Y0023120809D01*
X0042630845Y0023075871D01*
X0042647686Y0023029839D01*
X0042662309Y0022982774D01*
X0042674652Y0022934742D01*
X0042684651Y0022885804D01*
X0042692245Y0022836025D01*
X0042697370Y0022785468D01*
X0042699964Y0022734195D01*
X0042700182Y0022708284D01*
X0042699964Y0022682374D01*
X0042697370Y0022631101D01*
X0042692245Y0022580542D01*
X0042684651Y0022530760D01*
X0042674652Y0022481817D01*
X0042662309Y0022433777D01*
X0042647686Y0022386701D01*
X0042630845Y0022340652D01*
X0042611849Y0022295694D01*
X0042590760Y0022251888D01*
X0042567641Y0022209298D01*
X0042542555Y0022167985D01*
X0042515565Y0022128013D01*
X0042486732Y0022089445D01*
X0042456121Y0022052343D01*
X0042423792Y0022016769D01*
X0042389810Y0021982787D01*
X0042354236Y0021950458D01*
X0042317134Y0021919846D01*
X0042278565Y0021891014D01*
X0042238594Y0021864023D01*
X0042197281Y0021838937D01*
X0042154691Y0021815819D01*
X0042110885Y0021794730D01*
X0042065927Y0021775734D01*
X0042019878Y0021758893D01*
X0041972802Y0021744270D01*
X0041924762Y0021731927D01*
X0041875819Y0021721928D01*
X0041826037Y0021714334D01*
X0041775478Y0021709209D01*
X0041724205Y0021706615D01*
X0041698294Y0021706396D01*
X0041672548Y0021706615D01*
X0041621585Y0021709209D01*
X0041571317Y0021714334D01*
X0041521806Y0021721928D01*
X0041473117Y0021731927D01*
X0041425312Y0021744270D01*
X0041378454Y0021758893D01*
X0041332607Y0021775734D01*
X0041287835Y0021794730D01*
X0041244200Y0021815819D01*
X0041201766Y0021838937D01*
X0041160596Y0021864023D01*
X0041120754Y0021891014D01*
X0041082302Y0021919846D01*
X0041045304Y0021950458D01*
X0041009824Y0021982787D01*
X0040975924Y0022016769D01*
X0040943668Y0022052343D01*
X0040913120Y0022089445D01*
X0040884342Y0022128013D01*
X0040857398Y0022167985D01*
X0040832351Y0022209298D01*
X0040809264Y0022251888D01*
X0040788202Y0022295694D01*
X0040769226Y0022340652D01*
X0040752401Y0022386701D01*
X0040737790Y0022433777D01*
X0040725455Y0022481817D01*
X0040715461Y0022530760D01*
X0040707870Y0022580542D01*
X0040702747Y0022631101D01*
X0040700153Y0022682374D01*
X0040699934Y0022708284D01*
X0040700153Y0022734031D01*
X0040702747Y0022784994D01*
X0040707870Y0022835262D01*
X0040715461Y0022884773D01*
X0040725455Y0022933462D01*
X0040737790Y0022981267D01*
X0040752401Y0023028125D01*
X0040769226Y0023073971D01*
X0040788202Y0023118744D01*
X0040809264Y0023162379D01*
X0040832351Y0023204813D01*
X0040857398Y0023245983D01*
X0040884342Y0023285825D01*
X0040913120Y0023324277D01*
X0040943668Y0023361275D01*
X0040975924Y0023396755D01*
X0041009824Y0023430655D01*
X0041045304Y0023462911D01*
X0041082302Y0023493459D01*
X0041120754Y0023522237D01*
X0041160596Y0023549181D01*
X0041201766Y0023574228D01*
X0041244200Y0023597314D01*
X0041287835Y0023618377D01*
X0041332607Y0023637353D01*
X0041378454Y0023654178D01*
X0041425312Y0023668789D01*
X0041473117Y0023681124D01*
X0041521806Y0023691118D01*
X0041571317Y0023698709D01*
X0041621585Y0023703832D01*
X0041672548Y0023706426D01*
X0041698294Y0023706645D01*
G37*
%LPD*%
G36*
X0041724205Y0026249951D02*
G01*
X0041775478Y0026247357D01*
X0041826037Y0026242232D01*
X0041875819Y0026234639D01*
X0041924762Y0026224639D01*
X0041972802Y0026212297D01*
X0042019878Y0026197674D01*
X0042065927Y0026180833D01*
X0042110885Y0026161837D01*
X0042154691Y0026140748D01*
X0042197281Y0026117629D01*
X0042238594Y0026092543D01*
X0042278565Y0026065552D01*
X0042317134Y0026036720D01*
X0042354236Y0026006108D01*
X0042389810Y0025973780D01*
X0042423792Y0025939797D01*
X0042456121Y0025904224D01*
X0042486732Y0025867121D01*
X0042515565Y0025828553D01*
X0042542555Y0025788581D01*
X0042567641Y0025747269D01*
X0042590760Y0025704678D01*
X0042611849Y0025660873D01*
X0042630845Y0025615914D01*
X0042647686Y0025569866D01*
X0042662309Y0025522790D01*
X0042674652Y0025474749D01*
X0042684651Y0025425807D01*
X0042692245Y0025376024D01*
X0042697370Y0025325466D01*
X0042699964Y0025274193D01*
X0042700182Y0025248282D01*
X0042699964Y0025222535D01*
X0042697370Y0025171572D01*
X0042692245Y0025121304D01*
X0042684651Y0025071794D01*
X0042674652Y0025023104D01*
X0042662309Y0024975299D01*
X0042647686Y0024928442D01*
X0042630845Y0024882595D01*
X0042611849Y0024837823D01*
X0042590760Y0024794188D01*
X0042567641Y0024751754D01*
X0042542555Y0024710584D01*
X0042515565Y0024670741D01*
X0042486732Y0024632289D01*
X0042456121Y0024595292D01*
X0042423792Y0024559811D01*
X0042389810Y0024525912D01*
X0042354236Y0024493656D01*
X0042317134Y0024463107D01*
X0042278565Y0024434329D01*
X0042238594Y0024407385D01*
X0042197281Y0024382338D01*
X0042154691Y0024359252D01*
X0042110885Y0024338189D01*
X0042065927Y0024319214D01*
X0042019878Y0024302389D01*
X0041972802Y0024287777D01*
X0041924762Y0024275443D01*
X0041875819Y0024265448D01*
X0041826037Y0024257858D01*
X0041775478Y0024252734D01*
X0041724205Y0024250141D01*
X0041698294Y0024249922D01*
X0041672548Y0024250141D01*
X0041621585Y0024252734D01*
X0041571317Y0024257858D01*
X0041521806Y0024265448D01*
X0041473117Y0024275443D01*
X0041425312Y0024287777D01*
X0041378454Y0024302389D01*
X0041332607Y0024319214D01*
X0041287835Y0024338189D01*
X0041244200Y0024359252D01*
X0041201766Y0024382338D01*
X0041160596Y0024407385D01*
X0041120754Y0024434329D01*
X0041082302Y0024463107D01*
X0041045304Y0024493656D01*
X0041009824Y0024525912D01*
X0040975924Y0024559811D01*
X0040943668Y0024595292D01*
X0040913120Y0024632289D01*
X0040884342Y0024670741D01*
X0040857398Y0024710584D01*
X0040832351Y0024751754D01*
X0040809264Y0024794188D01*
X0040788202Y0024837823D01*
X0040769226Y0024882595D01*
X0040752401Y0024928442D01*
X0040737790Y0024975299D01*
X0040725455Y0025023104D01*
X0040715461Y0025071794D01*
X0040707870Y0025121304D01*
X0040702747Y0025171572D01*
X0040700153Y0025222535D01*
X0040699934Y0025248282D01*
X0040700153Y0025274193D01*
X0040702747Y0025325466D01*
X0040707870Y0025376024D01*
X0040715461Y0025425807D01*
X0040725455Y0025474749D01*
X0040737790Y0025522790D01*
X0040752401Y0025569866D01*
X0040769226Y0025615914D01*
X0040788202Y0025660873D01*
X0040809264Y0025704678D01*
X0040832351Y0025747269D01*
X0040857398Y0025788581D01*
X0040884342Y0025828553D01*
X0040913120Y0025867121D01*
X0040943668Y0025904224D01*
X0040975924Y0025939797D01*
X0041009824Y0025973780D01*
X0041045304Y0026006108D01*
X0041082302Y0026036720D01*
X0041120754Y0026065552D01*
X0041160596Y0026092543D01*
X0041201766Y0026117629D01*
X0041244200Y0026140748D01*
X0041287835Y0026161837D01*
X0041332607Y0026180833D01*
X0041378454Y0026197674D01*
X0041425312Y0026212297D01*
X0041473117Y0026224639D01*
X0041521806Y0026234639D01*
X0041571317Y0026242232D01*
X0041621585Y0026247357D01*
X0041672548Y0026249951D01*
X0041698294Y0026250170D01*
G37*
%LPD*%
G36*
X0019857732Y0026786033D02*
G01*
X0019877411Y0026781961D01*
X0019895270Y0026774272D01*
X0019910980Y0026763420D01*
X0019924209Y0026749860D01*
X0019934627Y0026734047D01*
X0019941903Y0026716436D01*
X0019945706Y0026697481D01*
X0019946037Y0026687614D01*
X0019946037Y0026186670D01*
X0019945679Y0026176197D01*
X0019941607Y0026156519D01*
X0019933917Y0026138659D01*
X0019923065Y0026122950D01*
X0019909505Y0026109720D01*
X0019893692Y0026099302D01*
X0019876081Y0026092026D01*
X0019857126Y0026088223D01*
X0019847259Y0026087892D01*
X0018446733Y0026087892D01*
X0018436260Y0026088251D01*
X0018416581Y0026092323D01*
X0018398722Y0026100012D01*
X0018383012Y0026110864D01*
X0018369783Y0026124424D01*
X0018359365Y0026140237D01*
X0018352089Y0026157848D01*
X0018348286Y0026176803D01*
X0018347955Y0026186670D01*
X0018347955Y0026687614D01*
X0018348313Y0026698087D01*
X0018352386Y0026717765D01*
X0018360075Y0026735625D01*
X0018370927Y0026751334D01*
X0018384487Y0026764564D01*
X0018400300Y0026774982D01*
X0018417911Y0026782258D01*
X0018436866Y0026786061D01*
X0018446733Y0026786392D01*
X0019847259Y0026786392D01*
G37*
%LPD*%
G36*
X0019857732Y0025685368D02*
G01*
X0019877411Y0025681296D01*
X0019895270Y0025673606D01*
X0019910980Y0025662754D01*
X0019924209Y0025649194D01*
X0019934627Y0025633381D01*
X0019941903Y0025615770D01*
X0019945706Y0025596815D01*
X0019946037Y0025586948D01*
X0019946037Y0025086004D01*
X0019945679Y0025075531D01*
X0019941607Y0025055853D01*
X0019933917Y0025037994D01*
X0019923065Y0025022284D01*
X0019909505Y0025009055D01*
X0019893692Y0024998637D01*
X0019876081Y0024991361D01*
X0019857126Y0024987557D01*
X0019847259Y0024987227D01*
X0018446733Y0024987227D01*
X0018436260Y0024987585D01*
X0018416581Y0024991657D01*
X0018398722Y0024999347D01*
X0018383012Y0025010199D01*
X0018369783Y0025023758D01*
X0018359365Y0025039571D01*
X0018352089Y0025057183D01*
X0018348286Y0025076138D01*
X0018347955Y0025086004D01*
X0018347955Y0025586948D01*
X0018348313Y0025597421D01*
X0018352386Y0025617100D01*
X0018360075Y0025634959D01*
X0018370927Y0025650669D01*
X0018384487Y0025663898D01*
X0018400300Y0025674316D01*
X0018417911Y0025681592D01*
X0018436866Y0025685395D01*
X0018446733Y0025685726D01*
X0019847259Y0025685726D01*
G37*
%LPD*%
G36*
X0019857732Y0024584702D02*
G01*
X0019877411Y0024580630D01*
X0019895270Y0024572941D01*
X0019910980Y0024562089D01*
X0019924209Y0024548529D01*
X0019934627Y0024532716D01*
X0019941903Y0024515104D01*
X0019945706Y0024496149D01*
X0019946037Y0024486283D01*
X0019946037Y0023985339D01*
X0019945679Y0023974866D01*
X0019941607Y0023955187D01*
X0019933917Y0023937328D01*
X0019923065Y0023921618D01*
X0019909505Y0023908389D01*
X0019893692Y0023897971D01*
X0019876081Y0023890695D01*
X0019857126Y0023886892D01*
X0019847259Y0023886561D01*
X0018446733Y0023886561D01*
X0018436260Y0023886919D01*
X0018416581Y0023890991D01*
X0018398722Y0023898681D01*
X0018383012Y0023909533D01*
X0018369783Y0023923093D01*
X0018359365Y0023938906D01*
X0018352089Y0023956517D01*
X0018348286Y0023975472D01*
X0018347955Y0023985339D01*
X0018347955Y0024486283D01*
X0018348313Y0024496756D01*
X0018352386Y0024516434D01*
X0018360075Y0024534294D01*
X0018370927Y0024550003D01*
X0018384487Y0024563232D01*
X0018400300Y0024573650D01*
X0018417911Y0024580926D01*
X0018436866Y0024584730D01*
X0018446733Y0024585060D01*
X0019847259Y0024585060D01*
G37*
%LPD*%
G36*
X0019857732Y0023484036D02*
G01*
X0019877411Y0023479964D01*
X0019895270Y0023472275D01*
X0019910980Y0023461423D01*
X0019924209Y0023447863D01*
X0019934627Y0023432050D01*
X0019941903Y0023414439D01*
X0019945706Y0023395484D01*
X0019946037Y0023385617D01*
X0019946037Y0022884673D01*
X0019945679Y0022874200D01*
X0019941607Y0022854522D01*
X0019933917Y0022836662D01*
X0019923065Y0022820953D01*
X0019909505Y0022807724D01*
X0019893692Y0022797306D01*
X0019876081Y0022790030D01*
X0019857126Y0022786226D01*
X0019847259Y0022785895D01*
X0018446733Y0022785895D01*
X0018436260Y0022786254D01*
X0018416581Y0022790326D01*
X0018398722Y0022798015D01*
X0018383012Y0022808867D01*
X0018369783Y0022822427D01*
X0018359365Y0022838240D01*
X0018352089Y0022855851D01*
X0018348286Y0022874806D01*
X0018347955Y0022884673D01*
X0018347955Y0023385617D01*
X0018348313Y0023396090D01*
X0018352386Y0023415769D01*
X0018360075Y0023433628D01*
X0018370927Y0023449338D01*
X0018384487Y0023462567D01*
X0018400300Y0023472985D01*
X0018417911Y0023480261D01*
X0018436866Y0023484064D01*
X0018446733Y0023484395D01*
X0019847259Y0023484395D01*
G37*
%LPD*%
G36*
X0019857732Y0022383371D02*
G01*
X0019877411Y0022379299D01*
X0019895270Y0022371609D01*
X0019910980Y0022360757D01*
X0019924209Y0022347197D01*
X0019934627Y0022331384D01*
X0019941903Y0022313773D01*
X0019945706Y0022294818D01*
X0019946037Y0022284951D01*
X0019946037Y0021784007D01*
X0019945679Y0021773534D01*
X0019941607Y0021753856D01*
X0019933917Y0021735997D01*
X0019923065Y0021720287D01*
X0019909505Y0021707058D01*
X0019893692Y0021696640D01*
X0019876081Y0021689364D01*
X0019857126Y0021685561D01*
X0019847259Y0021685230D01*
X0018446733Y0021685230D01*
X0018436260Y0021685588D01*
X0018416581Y0021689660D01*
X0018398722Y0021697350D01*
X0018383012Y0021708202D01*
X0018369783Y0021721762D01*
X0018359365Y0021737575D01*
X0018352089Y0021755186D01*
X0018348286Y0021774141D01*
X0018347955Y0021784007D01*
X0018347955Y0022284951D01*
X0018348313Y0022295425D01*
X0018352386Y0022315103D01*
X0018360075Y0022332962D01*
X0018370927Y0022348672D01*
X0018384487Y0022361901D01*
X0018400300Y0022372319D01*
X0018417911Y0022379595D01*
X0018436866Y0022383398D01*
X0018446733Y0022383729D01*
X0019847259Y0022383729D01*
G37*
%LPD*%
G36*
X0019854205Y0021286233D02*
G01*
X0019873883Y0021282161D01*
X0019891742Y0021274471D01*
X0019907452Y0021263619D01*
X0019920681Y0021250059D01*
X0019931099Y0021234247D01*
X0019938375Y0021216635D01*
X0019942178Y0021197680D01*
X0019942509Y0021187814D01*
X0019942509Y0020686870D01*
X0019942151Y0020676397D01*
X0019938079Y0020656718D01*
X0019930389Y0020638859D01*
X0019919537Y0020623149D01*
X0019905977Y0020609920D01*
X0019890164Y0020599502D01*
X0019872553Y0020592226D01*
X0019853598Y0020588423D01*
X0019843731Y0020588092D01*
X0018446733Y0020588092D01*
X0018436232Y0020588423D01*
X0018416264Y0020592226D01*
X0018397909Y0020599502D01*
X0018381579Y0020609920D01*
X0018367689Y0020623149D01*
X0018356651Y0020638859D01*
X0018348878Y0020656718D01*
X0018344786Y0020676397D01*
X0018344427Y0020686870D01*
X0018344427Y0021187814D01*
X0018344786Y0021198287D01*
X0018348858Y0021217965D01*
X0018356547Y0021235824D01*
X0018367399Y0021251534D01*
X0018380959Y0021264763D01*
X0018396772Y0021275181D01*
X0018414383Y0021282457D01*
X0018433338Y0021286261D01*
X0018443205Y0021286591D01*
X0019843731Y0021286591D01*
G37*
%LPD*%
G36*
X0019857732Y0020185567D02*
G01*
X0019877411Y0020181495D01*
X0019895270Y0020173806D01*
X0019910980Y0020162954D01*
X0019924209Y0020149394D01*
X0019934627Y0020133581D01*
X0019941903Y0020115970D01*
X0019945706Y0020097015D01*
X0019946037Y0020087148D01*
X0019946037Y0019586204D01*
X0019945679Y0019575731D01*
X0019941607Y0019556052D01*
X0019933917Y0019538193D01*
X0019923065Y0019522484D01*
X0019909505Y0019509254D01*
X0019893692Y0019498836D01*
X0019876081Y0019491560D01*
X0019857126Y0019487757D01*
X0019847259Y0019487426D01*
X0018446733Y0019487426D01*
X0018436260Y0019487785D01*
X0018416581Y0019491857D01*
X0018398722Y0019499546D01*
X0018383012Y0019510398D01*
X0018369783Y0019523958D01*
X0018359365Y0019539771D01*
X0018352089Y0019557382D01*
X0018348286Y0019576337D01*
X0018347955Y0019586204D01*
X0018347955Y0020087148D01*
X0018348313Y0020097621D01*
X0018352386Y0020117299D01*
X0018360075Y0020135159D01*
X0018370927Y0020150868D01*
X0018384487Y0020164098D01*
X0018400300Y0020174515D01*
X0018417911Y0020181791D01*
X0018436866Y0020185595D01*
X0018446733Y0020185926D01*
X0019847259Y0020185926D01*
G37*
%LPD*%
G36*
X0019857732Y0019084902D02*
G01*
X0019877411Y0019080830D01*
X0019895270Y0019073140D01*
X0019910980Y0019062288D01*
X0019924209Y0019048728D01*
X0019934627Y0019032915D01*
X0019941903Y0019015304D01*
X0019945706Y0018996349D01*
X0019946037Y0018986482D01*
X0019946037Y0018485538D01*
X0019945679Y0018475065D01*
X0019941607Y0018455387D01*
X0019933917Y0018437527D01*
X0019923065Y0018421818D01*
X0019909505Y0018408589D01*
X0019893692Y0018398171D01*
X0019876081Y0018390895D01*
X0019857126Y0018387091D01*
X0019847259Y0018386761D01*
X0018446733Y0018386761D01*
X0018436260Y0018387119D01*
X0018416581Y0018391191D01*
X0018398722Y0018398880D01*
X0018383012Y0018409733D01*
X0018369783Y0018423292D01*
X0018359365Y0018439105D01*
X0018352089Y0018456717D01*
X0018348286Y0018475672D01*
X0018347955Y0018485538D01*
X0018347955Y0018986482D01*
X0018348313Y0018996955D01*
X0018352386Y0019016634D01*
X0018360075Y0019034493D01*
X0018370927Y0019050203D01*
X0018384487Y0019063432D01*
X0018400300Y0019073850D01*
X0018417911Y0019081126D01*
X0018436866Y0019084929D01*
X0018446733Y0019085260D01*
X0019847259Y0019085260D01*
G37*
%LPD*%
G36*
X0019857732Y0017984236D02*
G01*
X0019877411Y0017980164D01*
X0019895270Y0017972474D01*
X0019910980Y0017961622D01*
X0019924209Y0017948063D01*
X0019934627Y0017932250D01*
X0019941903Y0017914638D01*
X0019945706Y0017895683D01*
X0019946037Y0017885817D01*
X0019946037Y0017384873D01*
X0019945679Y0017374400D01*
X0019941607Y0017354721D01*
X0019933917Y0017336862D01*
X0019923065Y0017321152D01*
X0019909505Y0017307923D01*
X0019893692Y0017297505D01*
X0019876081Y0017290229D01*
X0019857126Y0017286426D01*
X0019847259Y0017286095D01*
X0018446733Y0017286095D01*
X0018436260Y0017286453D01*
X0018416581Y0017290525D01*
X0018398722Y0017298215D01*
X0018383012Y0017309067D01*
X0018369783Y0017322627D01*
X0018359365Y0017338440D01*
X0018352089Y0017356051D01*
X0018348286Y0017375006D01*
X0018347955Y0017384873D01*
X0018347955Y0017885817D01*
X0018348313Y0017896290D01*
X0018352386Y0017915968D01*
X0018360075Y0017933827D01*
X0018370927Y0017949537D01*
X0018384487Y0017962766D01*
X0018400300Y0017973184D01*
X0018417911Y0017980460D01*
X0018436866Y0017984264D01*
X0018446733Y0017984594D01*
X0019847259Y0017984594D01*
G37*
%LPD*%
G36*
X0019243900Y0028154810D02*
G01*
X0019263578Y0028150738D01*
X0019281437Y0028143048D01*
X0019297147Y0028132196D01*
X0019310376Y0028118636D01*
X0019320794Y0028102823D01*
X0019328070Y0028085212D01*
X0019331873Y0028066257D01*
X0019332204Y0028056391D01*
X0019332204Y0027255586D01*
X0019331846Y0027245113D01*
X0019327774Y0027225434D01*
X0019320084Y0027207575D01*
X0019309232Y0027191865D01*
X0019295672Y0027178636D01*
X0019279859Y0027168218D01*
X0019262248Y0027160942D01*
X0019243293Y0027157139D01*
X0019233427Y0027156808D01*
X0018033983Y0027156808D01*
X0018023510Y0027157166D01*
X0018003832Y0027161238D01*
X0017985972Y0027168928D01*
X0017970263Y0027179780D01*
X0017957034Y0027193340D01*
X0017946616Y0027209153D01*
X0017939340Y0027226764D01*
X0017935536Y0027245719D01*
X0017935205Y0027255586D01*
X0017935205Y0028056391D01*
X0017935564Y0028066864D01*
X0017939636Y0028086542D01*
X0017947325Y0028104401D01*
X0017958177Y0028120111D01*
X0017971737Y0028133340D01*
X0017987550Y0028143758D01*
X0018005162Y0028151034D01*
X0018024116Y0028154837D01*
X0018033983Y0028155168D01*
X0019233427Y0028155168D01*
G37*
%LPD*%
G36*
X0009941158Y0012727852D02*
G01*
X0009960837Y0012723780D01*
X0009978696Y0012716091D01*
X0009994406Y0012705238D01*
X0010007635Y0012691679D01*
X0010018053Y0012675866D01*
X0010025329Y0012658254D01*
X0010029132Y0012639299D01*
X0010029463Y0012629433D01*
X0010029463Y0011631072D01*
X0010029105Y0011620599D01*
X0010025032Y0011600921D01*
X0010017343Y0011583062D01*
X0010006491Y0011567352D01*
X0009992931Y0011554123D01*
X0009977118Y0011543705D01*
X0009959507Y0011536429D01*
X0009940552Y0011532626D01*
X0009930685Y0011532295D01*
X0007930437Y0011532295D01*
X0007919964Y0011532653D01*
X0007900286Y0011536725D01*
X0007882426Y0011544415D01*
X0007866717Y0011555267D01*
X0007853487Y0011568827D01*
X0007843069Y0011584640D01*
X0007835793Y0011602251D01*
X0007831990Y0011621206D01*
X0007831659Y0011631072D01*
X0007831659Y0012629433D01*
X0007832018Y0012639906D01*
X0007836090Y0012659584D01*
X0007843779Y0012677443D01*
X0007854631Y0012693153D01*
X0007868191Y0012706382D01*
X0007884004Y0012716800D01*
X0007901615Y0012724076D01*
X0007920570Y0012727880D01*
X0007930437Y0012728210D01*
X0009930685Y0012728210D01*
G37*
%LPD*%
G36*
X0009941158Y0028207727D02*
G01*
X0009960837Y0028203654D01*
X0009978696Y0028195965D01*
X0009994406Y0028185113D01*
X0010007635Y0028171553D01*
X0010018053Y0028155740D01*
X0010025329Y0028138129D01*
X0010029132Y0028119174D01*
X0010029463Y0028109307D01*
X0010029463Y0027110947D01*
X0010029105Y0027100474D01*
X0010025032Y0027080795D01*
X0010017343Y0027062936D01*
X0010006491Y0027047227D01*
X0009992931Y0027033997D01*
X0009977118Y0027023579D01*
X0009959507Y0027016303D01*
X0009940552Y0027012500D01*
X0009930685Y0027012169D01*
X0007930437Y0027012169D01*
X0007919964Y0027012528D01*
X0007900286Y0027016600D01*
X0007882426Y0027024289D01*
X0007866717Y0027035141D01*
X0007853487Y0027048701D01*
X0007843069Y0027064514D01*
X0007835793Y0027082125D01*
X0007831990Y0027101080D01*
X0007831659Y0027110947D01*
X0007831659Y0028109307D01*
X0007832018Y0028119780D01*
X0007836090Y0028139459D01*
X0007843779Y0028157318D01*
X0007854631Y0028173028D01*
X0007868191Y0028186257D01*
X0007884004Y0028196675D01*
X0007901615Y0028203951D01*
X0007920570Y0028207754D01*
X0007930437Y0028208085D01*
X0009930685Y0028208085D01*
G37*
%LPD*%
G36*
X0019243900Y0013824990D02*
G01*
X0019263578Y0013820918D01*
X0019281437Y0013813228D01*
X0019297147Y0013802376D01*
X0019310376Y0013788816D01*
X0019320794Y0013773003D01*
X0019328070Y0013755392D01*
X0019331873Y0013736437D01*
X0019332204Y0013726571D01*
X0019332204Y0012326044D01*
X0019331846Y0012315571D01*
X0019327774Y0012295893D01*
X0019320084Y0012278033D01*
X0019309232Y0012262324D01*
X0019295672Y0012249094D01*
X0019279859Y0012238677D01*
X0019262248Y0012231401D01*
X0019243293Y0012227597D01*
X0019233427Y0012227266D01*
X0018033983Y0012227266D01*
X0018023510Y0012227625D01*
X0018003832Y0012231697D01*
X0017985972Y0012239386D01*
X0017970263Y0012250238D01*
X0017957034Y0012263798D01*
X0017946616Y0012279611D01*
X0017939340Y0012297222D01*
X0017935536Y0012316177D01*
X0017935205Y0012326044D01*
X0017935205Y0013726571D01*
X0017935564Y0013737044D01*
X0017939636Y0013756722D01*
X0017947325Y0013774581D01*
X0017958177Y0013790291D01*
X0017971737Y0013803520D01*
X0017987550Y0013813938D01*
X0018005162Y0013821214D01*
X0018024116Y0013825017D01*
X0018033983Y0013825348D01*
X0019233427Y0013825348D01*
G37*
%LPD*%
G36*
X0037517165Y0019413012D02*
G01*
X0037536120Y0019409209D01*
X0037553731Y0019401933D01*
X0037569544Y0019391515D01*
X0037583104Y0019378286D01*
X0037593956Y0019362576D01*
X0037601646Y0019344717D01*
X0037605718Y0019325038D01*
X0037606076Y0019314565D01*
X0037606076Y0018598427D01*
X0037605745Y0018588560D01*
X0037601942Y0018569605D01*
X0037594666Y0018551994D01*
X0037584248Y0018536181D01*
X0037571019Y0018522621D01*
X0037555309Y0018511769D01*
X0037537450Y0018504080D01*
X0037517771Y0018500008D01*
X0037507298Y0018499649D01*
X0036537160Y0018499649D01*
X0036527294Y0018499980D01*
X0036508339Y0018503784D01*
X0036490727Y0018511060D01*
X0036474914Y0018521478D01*
X0036461355Y0018534707D01*
X0036450503Y0018550416D01*
X0036442813Y0018568276D01*
X0036438741Y0018587954D01*
X0036438383Y0018598427D01*
X0036438383Y0019314565D01*
X0036438713Y0019324432D01*
X0036442517Y0019343387D01*
X0036449793Y0019360998D01*
X0036460211Y0019376811D01*
X0036473440Y0019390371D01*
X0036489150Y0019401223D01*
X0036507009Y0019408913D01*
X0036526687Y0019412985D01*
X0036537160Y0019413343D01*
X0037507298Y0019413343D01*
G37*
%LPD*%
G36*
X0037517165Y0021402677D02*
G01*
X0037536120Y0021398874D01*
X0037553731Y0021391598D01*
X0037569544Y0021381180D01*
X0037583104Y0021367951D01*
X0037593956Y0021352241D01*
X0037601646Y0021334382D01*
X0037605718Y0021314703D01*
X0037606076Y0021304230D01*
X0037606076Y0020588092D01*
X0037605745Y0020578225D01*
X0037601942Y0020559270D01*
X0037594666Y0020541659D01*
X0037584248Y0020525846D01*
X0037571019Y0020512286D01*
X0037555309Y0020501434D01*
X0037537450Y0020493745D01*
X0037517771Y0020489673D01*
X0037507298Y0020489314D01*
X0036537160Y0020489314D01*
X0036527294Y0020489645D01*
X0036508339Y0020493448D01*
X0036490727Y0020500724D01*
X0036474914Y0020511142D01*
X0036461355Y0020524371D01*
X0036450503Y0020540081D01*
X0036442813Y0020557940D01*
X0036438741Y0020577619D01*
X0036438383Y0020588092D01*
X0036438383Y0021304230D01*
X0036438713Y0021314097D01*
X0036442517Y0021333052D01*
X0036449793Y0021350663D01*
X0036460211Y0021366476D01*
X0036473440Y0021380036D01*
X0036489150Y0021390888D01*
X0036507009Y0021398577D01*
X0036526687Y0021402650D01*
X0036537160Y0021403008D01*
X0037507298Y0021403008D01*
G37*
M02*
