%FSLAX46Y46*%
%MOMM*%
%LPD*%
G01*
%ADD10C,0.050000*%
D10*
%LPD*%
%LPD*%
G36*
X0006498742Y0036853472D02*
G01*
X0006438992Y0036848923D01*
X0006379660Y0036842895D01*
X0006320771Y0036835406D01*
X0006262336Y0036826474D01*
X0006204380Y0036816119D01*
X0006146915Y0036804358D01*
X0006089967Y0036791211D01*
X0006033548Y0036776694D01*
X0005977679Y0036760827D01*
X0005922381Y0036743629D01*
X0005867668Y0036725117D01*
X0005813561Y0036705309D01*
X0005760079Y0036684225D01*
X0005707240Y0036661884D01*
X0005655062Y0036638301D01*
X0005603565Y0036613498D01*
X0005552767Y0036587492D01*
X0005502685Y0036560301D01*
X0005453341Y0036531943D01*
X0005404752Y0036502439D01*
X0005356936Y0036471804D01*
X0005309912Y0036440057D01*
X0005263700Y0036407220D01*
X0005218318Y0036373308D01*
X0005173784Y0036338340D01*
X0005130117Y0036302334D01*
X0005087336Y0036265310D01*
X0005045461Y0036227287D01*
X0005004509Y0036188281D01*
X0004964498Y0036148312D01*
X0004925449Y0036107397D01*
X0004887379Y0036065557D01*
X0004850308Y0036022809D01*
X0004814254Y0035979172D01*
X0004779234Y0035934662D01*
X0004745270Y0035889301D01*
X0004712380Y0035843107D01*
X0004680580Y0035796097D01*
X0004649891Y0035748289D01*
X0004620332Y0035699703D01*
X0004591920Y0035650358D01*
X0004564674Y0035600270D01*
X0004538614Y0035549460D01*
X0004513758Y0035497944D01*
X0004490123Y0035445743D01*
X0004467730Y0035392872D01*
X0004446597Y0035339354D01*
X0004426741Y0035285203D01*
X0004408183Y0035230441D01*
X0004390940Y0035175082D01*
X0004375032Y0035119149D01*
X0004360476Y0035062657D01*
X0004347292Y0035005627D01*
X0004335497Y0034948073D01*
X0004325112Y0034890018D01*
X0004316154Y0034831477D01*
X0004308643Y0034772470D01*
X0004302596Y0034713015D01*
X0004298032Y0034653128D01*
X0004294971Y0034592830D01*
X0004293431Y0034532102D01*
X0004293302Y0034501593D01*
X0004293302Y0005930220D01*
X0004293419Y0005899714D01*
X0004294824Y0005839107D01*
X0004297615Y0005779085D01*
X0004301778Y0005719625D01*
X0004307297Y0005660742D01*
X0004314156Y0005602445D01*
X0004322339Y0005544754D01*
X0004331829Y0005487676D01*
X0004342612Y0005431228D01*
X0004354671Y0005375422D01*
X0004367991Y0005320270D01*
X0004382555Y0005265786D01*
X0004398348Y0005211985D01*
X0004415353Y0005158879D01*
X0004433556Y0005106479D01*
X0004452940Y0005054801D01*
X0004473490Y0005003857D01*
X0004495189Y0004953662D01*
X0004518023Y0004904227D01*
X0004541974Y0004855568D01*
X0004567029Y0004807692D01*
X0004593170Y0004760620D01*
X0004620382Y0004714361D01*
X0004648650Y0004668929D01*
X0004677958Y0004624336D01*
X0004708289Y0004580600D01*
X0004739630Y0004537727D01*
X0004771962Y0004495737D01*
X0004805272Y0004454639D01*
X0004839543Y0004414449D01*
X0004874761Y0004375178D01*
X0004910909Y0004336840D01*
X0004947970Y0004299452D01*
X0004985932Y0004263021D01*
X0005024776Y0004227565D01*
X0005064488Y0004193095D01*
X0005105052Y0004159627D01*
X0005146454Y0004127170D01*
X0005188676Y0004095741D01*
X0005231703Y0004065353D01*
X0005275521Y0004036019D01*
X0005320113Y0004007751D01*
X0005365463Y0003980564D01*
X0005411556Y0003954472D01*
X0005458379Y0003929486D01*
X0005505912Y0003905621D01*
X0005554141Y0003882892D01*
X0005603052Y0003861309D01*
X0005652630Y0003840888D01*
X0005702855Y0003821642D01*
X0005753717Y0003803583D01*
X0005805199Y0003786726D01*
X0005857281Y0003771085D01*
X0005909953Y0003756673D01*
X0005963198Y0003743503D01*
X0006016999Y0003731588D01*
X0006071342Y0003720943D01*
X0006126212Y0003711581D01*
X0006181591Y0003703515D01*
X0006237465Y0003696760D01*
X0006293821Y0003691328D01*
X0006350640Y0003687234D01*
X0006407907Y0003684491D01*
X0006465642Y0003683112D01*
X0006494668Y0003682997D01*
X0045698751Y0003682997D01*
X0045724472Y0003683112D01*
X0045775898Y0003684489D01*
X0045827195Y0003687227D01*
X0045878381Y0003691315D01*
X0045929432Y0003696739D01*
X0045980289Y0003703481D01*
X0046056311Y0003715892D01*
X0046156905Y0003737171D01*
X0046256410Y0003763495D01*
X0046354673Y0003794765D01*
X0046451506Y0003830874D01*
X0046546722Y0003871716D01*
X0046640130Y0003917183D01*
X0046731543Y0003967167D01*
X0046820772Y0004021562D01*
X0046907628Y0004080259D01*
X0046991923Y0004143151D01*
X0047073468Y0004210128D01*
X0047152075Y0004281083D01*
X0047227556Y0004355908D01*
X0047299723Y0004434494D01*
X0047368388Y0004516731D01*
X0047433364Y0004602514D01*
X0047494483Y0004691761D01*
X0047537521Y0004760969D01*
X0047564969Y0004808022D01*
X0047591363Y0004855907D01*
X0047616658Y0004904576D01*
X0047640832Y0004954016D01*
X0047663861Y0005004214D01*
X0047685724Y0005055159D01*
X0047706395Y0005106832D01*
X0047725853Y0005159228D01*
X0047744072Y0005212326D01*
X0047761030Y0005266115D01*
X0047776704Y0005320584D01*
X0047791071Y0005375719D01*
X0047804106Y0005431505D01*
X0047815787Y0005487930D01*
X0047826090Y0005544981D01*
X0047834992Y0005602646D01*
X0047842469Y0005660909D01*
X0047848497Y0005719760D01*
X0047853054Y0005779183D01*
X0047856116Y0005839167D01*
X0047857659Y0005899738D01*
X0047857789Y0005930222D01*
X0047857789Y0034501594D01*
X0047857660Y0034532103D01*
X0047856124Y0034592832D01*
X0047853073Y0034653131D01*
X0047848524Y0034713019D01*
X0047842495Y0034772476D01*
X0047835006Y0034831485D01*
X0047826075Y0034890025D01*
X0047815719Y0034948083D01*
X0047803958Y0035005636D01*
X0047790810Y0035062668D01*
X0047776293Y0035119160D01*
X0047760427Y0035175095D01*
X0047743228Y0035230453D01*
X0047724716Y0035285216D01*
X0047704909Y0035339367D01*
X0047683825Y0035392885D01*
X0047661483Y0035445756D01*
X0047637901Y0035497957D01*
X0047613098Y0035549474D01*
X0047587092Y0035600283D01*
X0047559901Y0035650371D01*
X0047531544Y0035699717D01*
X0047502040Y0035748301D01*
X0047471405Y0035796109D01*
X0047439660Y0035843119D01*
X0047406823Y0035889312D01*
X0047372911Y0035934673D01*
X0047337944Y0035979180D01*
X0047301939Y0036022818D01*
X0047264916Y0036065565D01*
X0047226893Y0036107405D01*
X0047187887Y0036148319D01*
X0047147920Y0036188286D01*
X0047107005Y0036227292D01*
X0047065166Y0036265315D01*
X0047022419Y0036302338D01*
X0046978781Y0036338343D01*
X0046934274Y0036373310D01*
X0046888913Y0036407222D01*
X0046842719Y0036440059D01*
X0046795710Y0036471804D01*
X0046747902Y0036502439D01*
X0046699318Y0036531943D01*
X0046649972Y0036560300D01*
X0046599883Y0036587492D01*
X0046549074Y0036613497D01*
X0046497558Y0036638301D01*
X0046445357Y0036661882D01*
X0046392486Y0036684225D01*
X0046338968Y0036705308D01*
X0046284817Y0036725115D01*
X0046230054Y0036743627D01*
X0046174695Y0036760826D01*
X0046118761Y0036776693D01*
X0046062268Y0036791209D01*
X0046005236Y0036804357D01*
X0045947684Y0036816118D01*
X0045889626Y0036826474D01*
X0045831086Y0036835405D01*
X0045772077Y0036842895D01*
X0045712620Y0036848923D01*
X0045652732Y0036853472D01*
X0045592433Y0036856523D01*
X0045531703Y0036858059D01*
X0045501194Y0036858188D01*
X0006649896Y0036858188D01*
X0045599205Y0036891504D01*
X0045654960Y0036888682D01*
X0045715736Y0036884066D01*
X0045776078Y0036877948D01*
X0045835967Y0036870347D01*
X0045895385Y0036861281D01*
X0045954313Y0036850770D01*
X0046012732Y0036838832D01*
X0046070623Y0036825486D01*
X0046127966Y0036810751D01*
X0046184744Y0036794645D01*
X0046240937Y0036777187D01*
X0046296527Y0036758396D01*
X0046351494Y0036738290D01*
X0046405820Y0036716888D01*
X0046459487Y0036694210D01*
X0046512474Y0036670273D01*
X0046564765Y0036645096D01*
X0046616339Y0036618699D01*
X0046667178Y0036591100D01*
X0046717264Y0036562318D01*
X0046766577Y0036532371D01*
X0046815100Y0036501278D01*
X0046862813Y0036469058D01*
X0046909698Y0036435730D01*
X0046955735Y0036401312D01*
X0047000908Y0036365823D01*
X0047045195Y0036329281D01*
X0047088580Y0036291706D01*
X0047131044Y0036253116D01*
X0047172566Y0036213530D01*
X0047213130Y0036172966D01*
X0047252717Y0036131443D01*
X0047291307Y0036088979D01*
X0047328882Y0036045595D01*
X0047365423Y0036001307D01*
X0047400913Y0035956135D01*
X0047435331Y0035910097D01*
X0047468659Y0035863212D01*
X0047500879Y0035815499D01*
X0047531972Y0035766977D01*
X0047561919Y0035717663D01*
X0047590701Y0035667577D01*
X0047618300Y0035616738D01*
X0047644697Y0035565164D01*
X0047669874Y0035512873D01*
X0047693810Y0035459886D01*
X0047716489Y0035406219D01*
X0047737891Y0035351893D01*
X0047757996Y0035296926D01*
X0047776788Y0035241336D01*
X0047794246Y0035185143D01*
X0047810352Y0035128365D01*
X0047825087Y0035071022D01*
X0047838433Y0035013131D01*
X0047850371Y0034954712D01*
X0047860882Y0034895784D01*
X0047869947Y0034836366D01*
X0047877548Y0034776477D01*
X0047883667Y0034716135D01*
X0047888283Y0034655360D01*
X0047891379Y0034594170D01*
X0047892936Y0034532622D01*
X0047893066Y0034501672D01*
X0047893066Y0005930151D01*
X0047892935Y0005899213D01*
X0047891371Y0005837819D01*
X0047888263Y0005776935D01*
X0047883637Y0005716613D01*
X0047877517Y0005656866D01*
X0047869925Y0005597708D01*
X0047860886Y0005539155D01*
X0047850423Y0005481219D01*
X0047838561Y0005423915D01*
X0047825321Y0005367256D01*
X0047810730Y0005311258D01*
X0047794809Y0005255933D01*
X0047777584Y0005201296D01*
X0047759077Y0005147360D01*
X0047739313Y0005094140D01*
X0047718315Y0005041649D01*
X0047696108Y0004989901D01*
X0047672715Y0004938911D01*
X0047648160Y0004888691D01*
X0047622466Y0004839255D01*
X0047595658Y0004790618D01*
X0047567741Y0004742762D01*
X0047524030Y0004672471D01*
X0047461994Y0004581885D01*
X0047396004Y0004494764D01*
X0047326269Y0004411245D01*
X0047252980Y0004331437D01*
X0047176325Y0004255449D01*
X0047096495Y0004183390D01*
X0047013678Y0004115368D01*
X0046928064Y0004051492D01*
X0046839840Y0003991870D01*
X0046749197Y0003936613D01*
X0046656322Y0003885829D01*
X0046561403Y0003839627D01*
X0046464630Y0003798117D01*
X0046366192Y0003761409D01*
X0046266276Y0003729614D01*
X0046165072Y0003702840D01*
X0046062806Y0003681207D01*
X0045985450Y0003668579D01*
X0045933615Y0003661707D01*
X0045881650Y0003656186D01*
X0045829540Y0003652024D01*
X0045777310Y0003649236D01*
X0045725024Y0003647836D01*
X0045698830Y0003647719D01*
X0006494598Y0003647719D01*
X0006465152Y0003647836D01*
X0006406642Y0003649234D01*
X0006348528Y0003652017D01*
X0006290860Y0003656173D01*
X0006233656Y0003661686D01*
X0006176931Y0003668544D01*
X0006120702Y0003676734D01*
X0006064984Y0003686240D01*
X0006009793Y0003697051D01*
X0005955147Y0003709153D01*
X0005901061Y0003722531D01*
X0005847551Y0003737173D01*
X0005794634Y0003753065D01*
X0005742325Y0003770193D01*
X0005690641Y0003788543D01*
X0005639598Y0003808102D01*
X0005589212Y0003828857D01*
X0005539499Y0003850793D01*
X0005490475Y0003873897D01*
X0005442157Y0003898156D01*
X0005394560Y0003923555D01*
X0005347701Y0003950081D01*
X0005301596Y0003977720D01*
X0005256261Y0004006459D01*
X0005211712Y0004036283D01*
X0005167965Y0004067180D01*
X0005125036Y0004099135D01*
X0005082941Y0004132134D01*
X0005041697Y0004166165D01*
X0005001319Y0004201212D01*
X0004961823Y0004237263D01*
X0004923226Y0004274303D01*
X0004885543Y0004312319D01*
X0004848791Y0004351297D01*
X0004812986Y0004391224D01*
X0004778143Y0004432084D01*
X0004744279Y0004473865D01*
X0004711409Y0004516553D01*
X0004679550Y0004560134D01*
X0004648718Y0004604594D01*
X0004618929Y0004649919D01*
X0004590198Y0004696096D01*
X0004562541Y0004743110D01*
X0004535975Y0004790948D01*
X0004510516Y0004839595D01*
X0004486179Y0004889039D01*
X0004462980Y0004939265D01*
X0004440936Y0004990258D01*
X0004420062Y0005042006D01*
X0004400374Y0005094494D01*
X0004381888Y0005147709D01*
X0004364619Y0005201636D01*
X0004348585Y0005256262D01*
X0004333799Y0005311572D01*
X0004320279Y0005367554D01*
X0004308041Y0005424192D01*
X0004297099Y0005481473D01*
X0004287470Y0005539382D01*
X0004279169Y0005597907D01*
X0004272212Y0005657033D01*
X0004266616Y0005716747D01*
X0004262395Y0005777033D01*
X0004259565Y0005837879D01*
X0004258143Y0005899237D01*
X0004258024Y0005930155D01*
X0004258024Y0034501672D01*
X0004258155Y0034532623D01*
X0004259716Y0034594172D01*
X0004262823Y0034655363D01*
X0004267454Y0034716140D01*
X0004273591Y0034776483D01*
X0004281215Y0034836373D01*
X0004290308Y0034895793D01*
X0004300849Y0034954722D01*
X0004312821Y0035013141D01*
X0004326204Y0035071033D01*
X0004340979Y0035128377D01*
X0004357128Y0035185155D01*
X0004374631Y0035241349D01*
X0004393470Y0035296939D01*
X0004413625Y0035351906D01*
X0004435077Y0035406233D01*
X0004457808Y0035459899D01*
X0004481798Y0035512887D01*
X0004507028Y0035565177D01*
X0004533480Y0035616751D01*
X0004561134Y0035667590D01*
X0004589972Y0035717676D01*
X0004619974Y0035766989D01*
X0004651122Y0035815511D01*
X0004683396Y0035863223D01*
X0004716778Y0035910108D01*
X0004751249Y0035956145D01*
X0004786789Y0036001316D01*
X0004823380Y0036045603D01*
X0004861003Y0036088988D01*
X0004899639Y0036131450D01*
X0004939268Y0036172972D01*
X0004979873Y0036213536D01*
X0005021434Y0036253121D01*
X0005063933Y0036291711D01*
X0005107350Y0036329285D01*
X0005151666Y0036365826D01*
X0005196863Y0036401314D01*
X0005242922Y0036435732D01*
X0005289823Y0036469060D01*
X0005337548Y0036501279D01*
X0005386078Y0036532371D01*
X0005435395Y0036562318D01*
X0005485478Y0036591100D01*
X0005536310Y0036618699D01*
X0005587870Y0036645096D01*
X0005640141Y0036670272D01*
X0005693104Y0036694208D01*
X0005746739Y0036716887D01*
X0005801027Y0036738288D01*
X0005855949Y0036758394D01*
X0005911487Y0036777185D01*
X0005967621Y0036794643D01*
X0006024332Y0036810750D01*
X0006081602Y0036825485D01*
X0006139410Y0036838831D01*
X0006197739Y0036850769D01*
X0006256568Y0036861280D01*
X0006269795Y0036863302D01*
X0006619469Y0036858059D01*
X0006558896Y0036856523D01*
G37*
G36*
X0045532223Y0036893335D02*
G01*
X0045593771Y0036891779D01*
X0045599205Y0036891504D01*
X0006649896Y0036858188D01*
X0006619469Y0036858059D01*
X0006269795Y0036863302D01*
X0006315879Y0036870346D01*
X0006375652Y0036877947D01*
X0006435869Y0036884065D01*
X0006496509Y0036888682D01*
X0006557555Y0036891778D01*
X0006618949Y0036893335D01*
X0006649818Y0036893466D01*
X0045501273Y0036893466D01*
G37*
%LPD*%
%LPD*%
G36*
X0038699686Y0018468132D02*
G01*
X0041892438Y0015275380D01*
X0041518261Y0014901203D01*
X0038170520Y0018248945D01*
X0038170520Y0020986730D01*
X0038699686Y0020986730D01*
G37*
%LPD*%
G36*
X0044267730Y0016093325D02*
G01*
X0044319003Y0016090421D01*
X0044369562Y0016085007D01*
X0044419344Y0016077144D01*
X0044468287Y0016066897D01*
X0044516328Y0016054327D01*
X0044563404Y0016039497D01*
X0044609452Y0016022470D01*
X0044654411Y0016003308D01*
X0044698216Y0015982075D01*
X0044740807Y0015958832D01*
X0044782119Y0015933643D01*
X0044822091Y0015906570D01*
X0044860659Y0015877675D01*
X0044897761Y0015847022D01*
X0044933335Y0015814673D01*
X0044967318Y0015780690D01*
X0044999646Y0015745137D01*
X0045030258Y0015708076D01*
X0045059090Y0015669570D01*
X0045086081Y0015629681D01*
X0045111167Y0015588472D01*
X0045134286Y0015546006D01*
X0045155374Y0015502345D01*
X0045174371Y0015457552D01*
X0045191212Y0015411689D01*
X0045205835Y0015364820D01*
X0045218177Y0015317007D01*
X0045228177Y0015268312D01*
X0045235770Y0015218799D01*
X0045240895Y0015168529D01*
X0045243489Y0015117566D01*
X0045243708Y0015091819D01*
X0045243489Y0015066072D01*
X0045240895Y0015015110D01*
X0045235770Y0014964842D01*
X0045228177Y0014915331D01*
X0045218177Y0014866642D01*
X0045205835Y0014818836D01*
X0045191212Y0014771979D01*
X0045174371Y0014726132D01*
X0045155374Y0014681360D01*
X0045134286Y0014637725D01*
X0045111167Y0014595291D01*
X0045086081Y0014554121D01*
X0045059090Y0014514278D01*
X0045030258Y0014475827D01*
X0044999646Y0014438829D01*
X0044967318Y0014403349D01*
X0044933335Y0014369449D01*
X0044897761Y0014337193D01*
X0044860659Y0014306645D01*
X0044822091Y0014277867D01*
X0044782119Y0014250923D01*
X0044740807Y0014225876D01*
X0044698216Y0014202789D01*
X0044654411Y0014181727D01*
X0044609452Y0014162751D01*
X0044563404Y0014145926D01*
X0044516328Y0014131314D01*
X0044468287Y0014118980D01*
X0044419344Y0014108986D01*
X0044369562Y0014101395D01*
X0044319003Y0014096271D01*
X0044267730Y0014093678D01*
X0044241820Y0014093459D01*
X0044216073Y0014093678D01*
X0044165110Y0014096271D01*
X0044114842Y0014101395D01*
X0044065332Y0014108986D01*
X0044016642Y0014118980D01*
X0043968837Y0014131314D01*
X0043921979Y0014145926D01*
X0043876133Y0014162751D01*
X0043831360Y0014181727D01*
X0043787725Y0014202789D01*
X0043745291Y0014225876D01*
X0043704121Y0014250923D01*
X0043664279Y0014277867D01*
X0043625827Y0014306645D01*
X0043588830Y0014337193D01*
X0043553349Y0014369449D01*
X0043519449Y0014403349D01*
X0043487194Y0014438829D01*
X0043456645Y0014475827D01*
X0043427867Y0014514278D01*
X0043400923Y0014554121D01*
X0043375876Y0014595291D01*
X0043352790Y0014637725D01*
X0043331727Y0014681360D01*
X0043312752Y0014726132D01*
X0043295927Y0014771979D01*
X0043281315Y0014818836D01*
X0043268980Y0014866642D01*
X0043258986Y0014915331D01*
X0043251396Y0014964842D01*
X0043246272Y0015015110D01*
X0043243678Y0015066072D01*
X0043243460Y0015091819D01*
X0043243678Y0015117730D01*
X0043246272Y0015169003D01*
X0043251396Y0015219562D01*
X0043258986Y0015269344D01*
X0043268980Y0015318287D01*
X0043281315Y0015366327D01*
X0043295927Y0015413403D01*
X0043312752Y0015459452D01*
X0043331727Y0015504410D01*
X0043352790Y0015548216D01*
X0043375876Y0015590806D01*
X0043400923Y0015632118D01*
X0043427867Y0015672090D01*
X0043456645Y0015710658D01*
X0043487194Y0015747761D01*
X0043519449Y0015783335D01*
X0043553349Y0015817317D01*
X0043588830Y0015849645D01*
X0043625827Y0015880257D01*
X0043664279Y0015909090D01*
X0043704121Y0015936080D01*
X0043745291Y0015961166D01*
X0043787725Y0015984285D01*
X0043831360Y0016005374D01*
X0043876133Y0016024370D01*
X0043921979Y0016041211D01*
X0043968837Y0016055834D01*
X0044016642Y0016068177D01*
X0044065332Y0016078176D01*
X0044114842Y0016085770D01*
X0044165110Y0016090895D01*
X0044216073Y0016093488D01*
X0044241820Y0016093707D01*
G37*
%LPD*%
G36*
X0041727733Y0016089961D02*
G01*
X0041779006Y0016087367D01*
X0041829565Y0016082242D01*
X0041879347Y0016074648D01*
X0041928289Y0016064649D01*
X0041976330Y0016052306D01*
X0042023406Y0016037683D01*
X0042069454Y0016020842D01*
X0042114413Y0016001846D01*
X0042158219Y0015980757D01*
X0042200809Y0015957638D01*
X0042242121Y0015932552D01*
X0042282093Y0015905562D01*
X0042320661Y0015876729D01*
X0042357764Y0015846118D01*
X0042393337Y0015813789D01*
X0042427320Y0015779807D01*
X0042459648Y0015744233D01*
X0042490260Y0015707131D01*
X0042519093Y0015668562D01*
X0042546083Y0015628591D01*
X0042571169Y0015587278D01*
X0042594288Y0015544688D01*
X0042615377Y0015500882D01*
X0042634373Y0015455924D01*
X0042651214Y0015409875D01*
X0042665837Y0015362799D01*
X0042678180Y0015314759D01*
X0042688179Y0015265816D01*
X0042695773Y0015216034D01*
X0042700898Y0015165475D01*
X0042703491Y0015114202D01*
X0042703710Y0015088291D01*
X0042703491Y0015062545D01*
X0042700898Y0015011582D01*
X0042695773Y0014961314D01*
X0042688179Y0014911803D01*
X0042678180Y0014863114D01*
X0042665837Y0014815309D01*
X0042651214Y0014768451D01*
X0042634373Y0014722604D01*
X0042615377Y0014677832D01*
X0042594288Y0014634197D01*
X0042571169Y0014591763D01*
X0042546083Y0014550593D01*
X0042519093Y0014510751D01*
X0042490260Y0014472299D01*
X0042459648Y0014435301D01*
X0042427320Y0014399821D01*
X0042393337Y0014365921D01*
X0042357764Y0014333665D01*
X0042320661Y0014303117D01*
X0042282093Y0014274339D01*
X0042242121Y0014247395D01*
X0042200809Y0014222348D01*
X0042158219Y0014199262D01*
X0042114413Y0014178199D01*
X0042069454Y0014159223D01*
X0042023406Y0014142398D01*
X0041976330Y0014127787D01*
X0041928289Y0014115452D01*
X0041879347Y0014105458D01*
X0041829565Y0014097867D01*
X0041779006Y0014092744D01*
X0041727733Y0014090150D01*
X0041701822Y0014089931D01*
X0041676075Y0014090150D01*
X0041625113Y0014092744D01*
X0041574845Y0014097867D01*
X0041525334Y0014105458D01*
X0041476645Y0014115452D01*
X0041428839Y0014127787D01*
X0041381982Y0014142398D01*
X0041336135Y0014159223D01*
X0041291363Y0014178199D01*
X0041247728Y0014199262D01*
X0041205294Y0014222348D01*
X0041164124Y0014247395D01*
X0041124281Y0014274339D01*
X0041085830Y0014303117D01*
X0041048832Y0014333665D01*
X0041013352Y0014365921D01*
X0040979452Y0014399821D01*
X0040947196Y0014435301D01*
X0040916648Y0014472299D01*
X0040887870Y0014510751D01*
X0040860926Y0014550593D01*
X0040835879Y0014591763D01*
X0040812792Y0014634197D01*
X0040791730Y0014677832D01*
X0040772754Y0014722604D01*
X0040755929Y0014768451D01*
X0040741317Y0014815309D01*
X0040728983Y0014863114D01*
X0040718989Y0014911803D01*
X0040711398Y0014961314D01*
X0040706274Y0015011582D01*
X0040703681Y0015062545D01*
X0040703462Y0015088291D01*
X0040703681Y0015114202D01*
X0040706274Y0015165475D01*
X0040711398Y0015216034D01*
X0040718989Y0015265816D01*
X0040728983Y0015314759D01*
X0040741317Y0015362799D01*
X0040755929Y0015409875D01*
X0040772754Y0015455924D01*
X0040791730Y0015500882D01*
X0040812792Y0015544688D01*
X0040835879Y0015587278D01*
X0040860926Y0015628591D01*
X0040887870Y0015668562D01*
X0040916648Y0015707131D01*
X0040947196Y0015744233D01*
X0040979452Y0015779807D01*
X0041013352Y0015813789D01*
X0041048832Y0015846118D01*
X0041085830Y0015876729D01*
X0041124281Y0015905562D01*
X0041164124Y0015932552D01*
X0041205294Y0015957638D01*
X0041247728Y0015980757D01*
X0041291363Y0016001846D01*
X0041336135Y0016020842D01*
X0041381982Y0016037683D01*
X0041428839Y0016052306D01*
X0041476645Y0016064649D01*
X0041525334Y0016074648D01*
X0041574845Y0016082242D01*
X0041625113Y0016087367D01*
X0041676075Y0016089961D01*
X0041701822Y0016090179D01*
G37*
%LPD*%
G36*
X0044267730Y0018626594D02*
G01*
X0044319003Y0018624311D01*
X0044369562Y0018619476D01*
X0044419344Y0018612155D01*
X0044468287Y0018602408D01*
X0044516328Y0018590301D01*
X0044563404Y0018575896D01*
X0044609452Y0018559257D01*
X0044654411Y0018540447D01*
X0044698216Y0018519529D01*
X0044740807Y0018496567D01*
X0044782119Y0018471623D01*
X0044822091Y0018444762D01*
X0044860659Y0018416046D01*
X0044897761Y0018385539D01*
X0044933335Y0018353304D01*
X0044967318Y0018319404D01*
X0044999646Y0018283903D01*
X0045030258Y0018246864D01*
X0045059090Y0018208350D01*
X0045086081Y0018168425D01*
X0045111167Y0018127152D01*
X0045134286Y0018084594D01*
X0045155374Y0018040814D01*
X0045174371Y0017995876D01*
X0045191212Y0017949843D01*
X0045205835Y0017902779D01*
X0045218177Y0017854747D01*
X0045228177Y0017805809D01*
X0045235770Y0017756030D01*
X0045240895Y0017705472D01*
X0045243489Y0017654200D01*
X0045243708Y0017628289D01*
X0045243489Y0017602379D01*
X0045240895Y0017551106D01*
X0045235770Y0017500547D01*
X0045228177Y0017450765D01*
X0045218177Y0017401822D01*
X0045205835Y0017353781D01*
X0045191212Y0017306705D01*
X0045174371Y0017260657D01*
X0045155374Y0017215698D01*
X0045134286Y0017171893D01*
X0045111167Y0017129302D01*
X0045086081Y0017087990D01*
X0045059090Y0017048018D01*
X0045030258Y0017009450D01*
X0044999646Y0016972348D01*
X0044967318Y0016936774D01*
X0044933335Y0016902791D01*
X0044897761Y0016870463D01*
X0044860659Y0016839851D01*
X0044822091Y0016811019D01*
X0044782119Y0016784028D01*
X0044740807Y0016758942D01*
X0044698216Y0016735823D01*
X0044654411Y0016714735D01*
X0044609452Y0016695738D01*
X0044563404Y0016678897D01*
X0044516328Y0016664274D01*
X0044468287Y0016651932D01*
X0044419344Y0016641932D01*
X0044369562Y0016634339D01*
X0044319003Y0016629214D01*
X0044267730Y0016626620D01*
X0044241820Y0016626401D01*
X0044216073Y0016626620D01*
X0044165110Y0016629214D01*
X0044114842Y0016634339D01*
X0044065332Y0016641932D01*
X0044016642Y0016651932D01*
X0043968837Y0016664274D01*
X0043921979Y0016678897D01*
X0043876133Y0016695738D01*
X0043831360Y0016714735D01*
X0043787725Y0016735823D01*
X0043745291Y0016758942D01*
X0043704121Y0016784028D01*
X0043664279Y0016811019D01*
X0043625827Y0016839851D01*
X0043588830Y0016870463D01*
X0043553349Y0016902791D01*
X0043519449Y0016936774D01*
X0043487194Y0016972348D01*
X0043456645Y0017009450D01*
X0043427867Y0017048018D01*
X0043400923Y0017087990D01*
X0043375876Y0017129302D01*
X0043352790Y0017171893D01*
X0043331727Y0017215698D01*
X0043312752Y0017260657D01*
X0043295927Y0017306705D01*
X0043281315Y0017353781D01*
X0043268980Y0017401822D01*
X0043258986Y0017450765D01*
X0043251396Y0017500547D01*
X0043246272Y0017551106D01*
X0043243678Y0017602379D01*
X0043243460Y0017628289D01*
X0043243678Y0017654036D01*
X0043246272Y0017704999D01*
X0043251396Y0017755267D01*
X0043258986Y0017804777D01*
X0043268980Y0017853467D01*
X0043281315Y0017901272D01*
X0043295927Y0017948130D01*
X0043312752Y0017993976D01*
X0043331727Y0018038749D01*
X0043352790Y0018082384D01*
X0043375876Y0018124818D01*
X0043400923Y0018165987D01*
X0043427867Y0018205830D01*
X0043456645Y0018244282D01*
X0043487194Y0018281279D01*
X0043519449Y0018316760D01*
X0043553349Y0018350660D01*
X0043588830Y0018382915D01*
X0043625827Y0018413464D01*
X0043664279Y0018442242D01*
X0043704121Y0018469186D01*
X0043745291Y0018494233D01*
X0043787725Y0018517319D01*
X0043831360Y0018538382D01*
X0043876133Y0018557357D01*
X0043921979Y0018574182D01*
X0043968837Y0018588794D01*
X0044016642Y0018601128D01*
X0044065332Y0018611123D01*
X0044114842Y0018618713D01*
X0044165110Y0018623837D01*
X0044216073Y0018626431D01*
X0044241820Y0018626649D01*
G37*
%LPD*%
G36*
X0044267730Y0021169956D02*
G01*
X0044319003Y0021167362D01*
X0044369562Y0021162237D01*
X0044419344Y0021154644D01*
X0044468287Y0021144644D01*
X0044516328Y0021132302D01*
X0044563404Y0021117678D01*
X0044609452Y0021100837D01*
X0044654411Y0021081841D01*
X0044698216Y0021060752D01*
X0044740807Y0021037634D01*
X0044782119Y0021012548D01*
X0044822091Y0020985557D01*
X0044860659Y0020956725D01*
X0044897761Y0020926113D01*
X0044933335Y0020893784D01*
X0044967318Y0020859802D01*
X0044999646Y0020824228D01*
X0045030258Y0020787126D01*
X0045059090Y0020748558D01*
X0045086081Y0020708586D01*
X0045111167Y0020667274D01*
X0045134286Y0020624683D01*
X0045155374Y0020580877D01*
X0045174371Y0020535919D01*
X0045191212Y0020489870D01*
X0045205835Y0020442795D01*
X0045218177Y0020394754D01*
X0045228177Y0020345811D01*
X0045235770Y0020296029D01*
X0045240895Y0020245470D01*
X0045243489Y0020194197D01*
X0045243708Y0020168287D01*
X0045243489Y0020142540D01*
X0045240895Y0020091577D01*
X0045235770Y0020041309D01*
X0045228177Y0019991799D01*
X0045218177Y0019943109D01*
X0045205835Y0019895304D01*
X0045191212Y0019848446D01*
X0045174371Y0019802600D01*
X0045155374Y0019757827D01*
X0045134286Y0019714192D01*
X0045111167Y0019671758D01*
X0045086081Y0019630588D01*
X0045059090Y0019590746D01*
X0045030258Y0019552294D01*
X0044999646Y0019515296D01*
X0044967318Y0019479816D01*
X0044933335Y0019445916D01*
X0044897761Y0019413661D01*
X0044860659Y0019383112D01*
X0044822091Y0019354334D01*
X0044782119Y0019327390D01*
X0044740807Y0019302343D01*
X0044698216Y0019279257D01*
X0044654411Y0019258194D01*
X0044609452Y0019239219D01*
X0044563404Y0019222393D01*
X0044516328Y0019207782D01*
X0044468287Y0019195447D01*
X0044419344Y0019185453D01*
X0044369562Y0019177863D01*
X0044319003Y0019172739D01*
X0044267730Y0019170145D01*
X0044241820Y0019169927D01*
X0044216073Y0019170145D01*
X0044165110Y0019172739D01*
X0044114842Y0019177863D01*
X0044065332Y0019185453D01*
X0044016642Y0019195447D01*
X0043968837Y0019207782D01*
X0043921979Y0019222393D01*
X0043876133Y0019239219D01*
X0043831360Y0019258194D01*
X0043787725Y0019279257D01*
X0043745291Y0019302343D01*
X0043704121Y0019327390D01*
X0043664279Y0019354334D01*
X0043625827Y0019383112D01*
X0043588830Y0019413661D01*
X0043553349Y0019445916D01*
X0043519449Y0019479816D01*
X0043487194Y0019515296D01*
X0043456645Y0019552294D01*
X0043427867Y0019590746D01*
X0043400923Y0019630588D01*
X0043375876Y0019671758D01*
X0043352790Y0019714192D01*
X0043331727Y0019757827D01*
X0043312752Y0019802600D01*
X0043295927Y0019848446D01*
X0043281315Y0019895304D01*
X0043268980Y0019943109D01*
X0043258986Y0019991799D01*
X0043251396Y0020041309D01*
X0043246272Y0020091577D01*
X0043243678Y0020142540D01*
X0043243460Y0020168287D01*
X0043243678Y0020194197D01*
X0043246272Y0020245470D01*
X0043251396Y0020296029D01*
X0043258986Y0020345811D01*
X0043268980Y0020394754D01*
X0043281315Y0020442795D01*
X0043295927Y0020489870D01*
X0043312752Y0020535919D01*
X0043331727Y0020580877D01*
X0043352790Y0020624683D01*
X0043375876Y0020667274D01*
X0043400923Y0020708586D01*
X0043427867Y0020748558D01*
X0043456645Y0020787126D01*
X0043487194Y0020824228D01*
X0043519449Y0020859802D01*
X0043553349Y0020893784D01*
X0043588830Y0020926113D01*
X0043625827Y0020956725D01*
X0043664279Y0020985557D01*
X0043704121Y0021012548D01*
X0043745291Y0021037634D01*
X0043787725Y0021060752D01*
X0043831360Y0021081841D01*
X0043876133Y0021100837D01*
X0043921979Y0021117678D01*
X0043968837Y0021132302D01*
X0044016642Y0021144644D01*
X0044065332Y0021154644D01*
X0044114842Y0021162237D01*
X0044165110Y0021167362D01*
X0044216073Y0021169956D01*
X0044241820Y0021170175D01*
G37*
%LPD*%
G36*
X0041727733Y0018626594D02*
G01*
X0041779006Y0018624311D01*
X0041829565Y0018619476D01*
X0041879347Y0018612155D01*
X0041928289Y0018602408D01*
X0041976330Y0018590301D01*
X0042023406Y0018575896D01*
X0042069454Y0018559257D01*
X0042114413Y0018540447D01*
X0042158219Y0018519529D01*
X0042200809Y0018496567D01*
X0042242121Y0018471623D01*
X0042282093Y0018444762D01*
X0042320661Y0018416046D01*
X0042357764Y0018385539D01*
X0042393337Y0018353304D01*
X0042427320Y0018319404D01*
X0042459648Y0018283903D01*
X0042490260Y0018246864D01*
X0042519093Y0018208350D01*
X0042546083Y0018168425D01*
X0042571169Y0018127152D01*
X0042594288Y0018084594D01*
X0042615377Y0018040814D01*
X0042634373Y0017995876D01*
X0042651214Y0017949843D01*
X0042665837Y0017902779D01*
X0042678180Y0017854747D01*
X0042688179Y0017805809D01*
X0042695773Y0017756030D01*
X0042700898Y0017705472D01*
X0042703491Y0017654200D01*
X0042703710Y0017628289D01*
X0042703491Y0017602379D01*
X0042700898Y0017551106D01*
X0042695773Y0017500547D01*
X0042688179Y0017450765D01*
X0042678180Y0017401822D01*
X0042665837Y0017353781D01*
X0042651214Y0017306705D01*
X0042634373Y0017260657D01*
X0042615377Y0017215698D01*
X0042594288Y0017171893D01*
X0042571169Y0017129302D01*
X0042546083Y0017087990D01*
X0042519093Y0017048018D01*
X0042490260Y0017009450D01*
X0042459648Y0016972348D01*
X0042427320Y0016936774D01*
X0042393337Y0016902791D01*
X0042357764Y0016870463D01*
X0042320661Y0016839851D01*
X0042282093Y0016811019D01*
X0042242121Y0016784028D01*
X0042200809Y0016758942D01*
X0042158219Y0016735823D01*
X0042114413Y0016714735D01*
X0042069454Y0016695738D01*
X0042023406Y0016678897D01*
X0041976330Y0016664274D01*
X0041928289Y0016651932D01*
X0041879347Y0016641932D01*
X0041829565Y0016634339D01*
X0041779006Y0016629214D01*
X0041727733Y0016626620D01*
X0041701822Y0016626401D01*
X0041676075Y0016626620D01*
X0041625113Y0016629214D01*
X0041574845Y0016634339D01*
X0041525334Y0016641932D01*
X0041476645Y0016651932D01*
X0041428839Y0016664274D01*
X0041381982Y0016678897D01*
X0041336135Y0016695738D01*
X0041291363Y0016714735D01*
X0041247728Y0016735823D01*
X0041205294Y0016758942D01*
X0041164124Y0016784028D01*
X0041124281Y0016811019D01*
X0041085830Y0016839851D01*
X0041048832Y0016870463D01*
X0041013352Y0016902791D01*
X0040979452Y0016936774D01*
X0040947196Y0016972348D01*
X0040916648Y0017009450D01*
X0040887870Y0017048018D01*
X0040860926Y0017087990D01*
X0040835879Y0017129302D01*
X0040812792Y0017171893D01*
X0040791730Y0017215698D01*
X0040772754Y0017260657D01*
X0040755929Y0017306705D01*
X0040741317Y0017353781D01*
X0040728983Y0017401822D01*
X0040718989Y0017450765D01*
X0040711398Y0017500547D01*
X0040706274Y0017551106D01*
X0040703681Y0017602379D01*
X0040703462Y0017628289D01*
X0040703681Y0017654036D01*
X0040706274Y0017704999D01*
X0040711398Y0017755267D01*
X0040718989Y0017804777D01*
X0040728983Y0017853467D01*
X0040741317Y0017901272D01*
X0040755929Y0017948130D01*
X0040772754Y0017993976D01*
X0040791730Y0018038749D01*
X0040812792Y0018082384D01*
X0040835879Y0018124818D01*
X0040860926Y0018165987D01*
X0040887870Y0018205830D01*
X0040916648Y0018244282D01*
X0040947196Y0018281279D01*
X0040979452Y0018316760D01*
X0041013352Y0018350660D01*
X0041048832Y0018382915D01*
X0041085830Y0018413464D01*
X0041124281Y0018442242D01*
X0041164124Y0018469186D01*
X0041205294Y0018494233D01*
X0041247728Y0018517319D01*
X0041291363Y0018538382D01*
X0041336135Y0018557357D01*
X0041381982Y0018574182D01*
X0041428839Y0018588794D01*
X0041476645Y0018601128D01*
X0041525334Y0018611123D01*
X0041574845Y0018618713D01*
X0041625113Y0018623837D01*
X0041676075Y0018626431D01*
X0041701822Y0018626649D01*
G37*
%LPD*%
G36*
X0041727733Y0021169956D02*
G01*
X0041779006Y0021167362D01*
X0041829565Y0021162237D01*
X0041879347Y0021154644D01*
X0041928289Y0021144644D01*
X0041976330Y0021132302D01*
X0042023406Y0021117678D01*
X0042069454Y0021100837D01*
X0042114413Y0021081841D01*
X0042158219Y0021060752D01*
X0042200809Y0021037634D01*
X0042242121Y0021012548D01*
X0042282093Y0020985557D01*
X0042320661Y0020956725D01*
X0042357764Y0020926113D01*
X0042393337Y0020893784D01*
X0042427320Y0020859802D01*
X0042459648Y0020824228D01*
X0042490260Y0020787126D01*
X0042519093Y0020748558D01*
X0042546083Y0020708586D01*
X0042571169Y0020667274D01*
X0042594288Y0020624683D01*
X0042615377Y0020580877D01*
X0042634373Y0020535919D01*
X0042651214Y0020489870D01*
X0042665837Y0020442795D01*
X0042678180Y0020394754D01*
X0042688179Y0020345811D01*
X0042695773Y0020296029D01*
X0042700898Y0020245470D01*
X0042703491Y0020194197D01*
X0042703710Y0020168287D01*
X0042703491Y0020142540D01*
X0042700898Y0020091577D01*
X0042695773Y0020041309D01*
X0042688179Y0019991799D01*
X0042678180Y0019943109D01*
X0042665837Y0019895304D01*
X0042651214Y0019848446D01*
X0042634373Y0019802600D01*
X0042615377Y0019757827D01*
X0042594288Y0019714192D01*
X0042571169Y0019671758D01*
X0042546083Y0019630588D01*
X0042519093Y0019590746D01*
X0042490260Y0019552294D01*
X0042459648Y0019515296D01*
X0042427320Y0019479816D01*
X0042393337Y0019445916D01*
X0042357764Y0019413661D01*
X0042320661Y0019383112D01*
X0042282093Y0019354334D01*
X0042242121Y0019327390D01*
X0042200809Y0019302343D01*
X0042158219Y0019279257D01*
X0042114413Y0019258194D01*
X0042069454Y0019239219D01*
X0042023406Y0019222393D01*
X0041976330Y0019207782D01*
X0041928289Y0019195447D01*
X0041879347Y0019185453D01*
X0041829565Y0019177863D01*
X0041779006Y0019172739D01*
X0041727733Y0019170145D01*
X0041701822Y0019169927D01*
X0041676075Y0019170145D01*
X0041625113Y0019172739D01*
X0041574845Y0019177863D01*
X0041525334Y0019185453D01*
X0041476645Y0019195447D01*
X0041428839Y0019207782D01*
X0041381982Y0019222393D01*
X0041336135Y0019239219D01*
X0041291363Y0019258194D01*
X0041247728Y0019279257D01*
X0041205294Y0019302343D01*
X0041164124Y0019327390D01*
X0041124281Y0019354334D01*
X0041085830Y0019383112D01*
X0041048832Y0019413661D01*
X0041013352Y0019445916D01*
X0040979452Y0019479816D01*
X0040947196Y0019515296D01*
X0040916648Y0019552294D01*
X0040887870Y0019590746D01*
X0040860926Y0019630588D01*
X0040835879Y0019671758D01*
X0040812792Y0019714192D01*
X0040791730Y0019757827D01*
X0040772754Y0019802600D01*
X0040755929Y0019848446D01*
X0040741317Y0019895304D01*
X0040728983Y0019943109D01*
X0040718989Y0019991799D01*
X0040711398Y0020041309D01*
X0040706274Y0020091577D01*
X0040703681Y0020142540D01*
X0040703462Y0020168287D01*
X0040703681Y0020194197D01*
X0040706274Y0020245470D01*
X0040711398Y0020296029D01*
X0040718989Y0020345811D01*
X0040728983Y0020394754D01*
X0040741317Y0020442795D01*
X0040755929Y0020489870D01*
X0040772754Y0020535919D01*
X0040791730Y0020580877D01*
X0040812792Y0020624683D01*
X0040835879Y0020667274D01*
X0040860926Y0020708586D01*
X0040887870Y0020748558D01*
X0040916648Y0020787126D01*
X0040947196Y0020824228D01*
X0040979452Y0020859802D01*
X0041013352Y0020893784D01*
X0041048832Y0020926113D01*
X0041085830Y0020956725D01*
X0041124281Y0020985557D01*
X0041164124Y0021012548D01*
X0041205294Y0021037634D01*
X0041247728Y0021060752D01*
X0041291363Y0021081841D01*
X0041336135Y0021100837D01*
X0041381982Y0021117678D01*
X0041428839Y0021132302D01*
X0041476645Y0021144644D01*
X0041525334Y0021154644D01*
X0041574845Y0021162237D01*
X0041625113Y0021167362D01*
X0041676075Y0021169956D01*
X0041701822Y0021170175D01*
G37*
%LPD*%
G36*
X0044267730Y0023706589D02*
G01*
X0044319003Y0023704306D01*
X0044369562Y0023699472D01*
X0044419344Y0023692150D01*
X0044468287Y0023682404D01*
X0044516328Y0023670296D01*
X0044563404Y0023655892D01*
X0044609452Y0023639253D01*
X0044654411Y0023620442D01*
X0044698216Y0023599524D01*
X0044740807Y0023576562D01*
X0044782119Y0023551618D01*
X0044822091Y0023524757D01*
X0044860659Y0023496041D01*
X0044897761Y0023465534D01*
X0044933335Y0023433299D01*
X0044967318Y0023399399D01*
X0044999646Y0023363898D01*
X0045030258Y0023326859D01*
X0045059090Y0023288345D01*
X0045086081Y0023248420D01*
X0045111167Y0023207147D01*
X0045134286Y0023164589D01*
X0045155374Y0023120809D01*
X0045174371Y0023075871D01*
X0045191212Y0023029839D01*
X0045205835Y0022982774D01*
X0045218177Y0022934742D01*
X0045228177Y0022885804D01*
X0045235770Y0022836025D01*
X0045240895Y0022785468D01*
X0045243489Y0022734195D01*
X0045243708Y0022708284D01*
X0045243489Y0022682374D01*
X0045240895Y0022631101D01*
X0045235770Y0022580542D01*
X0045228177Y0022530760D01*
X0045218177Y0022481817D01*
X0045205835Y0022433777D01*
X0045191212Y0022386701D01*
X0045174371Y0022340652D01*
X0045155374Y0022295694D01*
X0045134286Y0022251888D01*
X0045111167Y0022209298D01*
X0045086081Y0022167985D01*
X0045059090Y0022128013D01*
X0045030258Y0022089445D01*
X0044999646Y0022052343D01*
X0044967318Y0022016769D01*
X0044933335Y0021982787D01*
X0044897761Y0021950458D01*
X0044860659Y0021919846D01*
X0044822091Y0021891014D01*
X0044782119Y0021864023D01*
X0044740807Y0021838937D01*
X0044698216Y0021815819D01*
X0044654411Y0021794730D01*
X0044609452Y0021775734D01*
X0044563404Y0021758893D01*
X0044516328Y0021744270D01*
X0044468287Y0021731927D01*
X0044419344Y0021721928D01*
X0044369562Y0021714334D01*
X0044319003Y0021709209D01*
X0044267730Y0021706615D01*
X0044241820Y0021706396D01*
X0044216073Y0021706615D01*
X0044165110Y0021709209D01*
X0044114842Y0021714334D01*
X0044065332Y0021721928D01*
X0044016642Y0021731927D01*
X0043968837Y0021744270D01*
X0043921979Y0021758893D01*
X0043876133Y0021775734D01*
X0043831360Y0021794730D01*
X0043787725Y0021815819D01*
X0043745291Y0021838937D01*
X0043704121Y0021864023D01*
X0043664279Y0021891014D01*
X0043625827Y0021919846D01*
X0043588830Y0021950458D01*
X0043553349Y0021982787D01*
X0043519449Y0022016769D01*
X0043487194Y0022052343D01*
X0043456645Y0022089445D01*
X0043427867Y0022128013D01*
X0043400923Y0022167985D01*
X0043375876Y0022209298D01*
X0043352790Y0022251888D01*
X0043331727Y0022295694D01*
X0043312752Y0022340652D01*
X0043295927Y0022386701D01*
X0043281315Y0022433777D01*
X0043268980Y0022481817D01*
X0043258986Y0022530760D01*
X0043251396Y0022580542D01*
X0043246272Y0022631101D01*
X0043243678Y0022682374D01*
X0043243460Y0022708284D01*
X0043243678Y0022734031D01*
X0043246272Y0022784994D01*
X0043251396Y0022835262D01*
X0043258986Y0022884773D01*
X0043268980Y0022933462D01*
X0043281315Y0022981267D01*
X0043295927Y0023028125D01*
X0043312752Y0023073971D01*
X0043331727Y0023118744D01*
X0043352790Y0023162379D01*
X0043375876Y0023204813D01*
X0043400923Y0023245983D01*
X0043427867Y0023285825D01*
X0043456645Y0023324277D01*
X0043487194Y0023361275D01*
X0043519449Y0023396755D01*
X0043553349Y0023430655D01*
X0043588830Y0023462911D01*
X0043625827Y0023493459D01*
X0043664279Y0023522237D01*
X0043704121Y0023549181D01*
X0043745291Y0023574228D01*
X0043787725Y0023597314D01*
X0043831360Y0023618377D01*
X0043876133Y0023637353D01*
X0043921979Y0023654178D01*
X0043968837Y0023668789D01*
X0044016642Y0023681124D01*
X0044065332Y0023691118D01*
X0044114842Y0023698709D01*
X0044165110Y0023703832D01*
X0044216073Y0023706426D01*
X0044241820Y0023706645D01*
G37*
%LPD*%
G36*
X0044267730Y0026249951D02*
G01*
X0044319003Y0026247357D01*
X0044369562Y0026242232D01*
X0044419344Y0026234639D01*
X0044468287Y0026224639D01*
X0044516328Y0026212297D01*
X0044563404Y0026197674D01*
X0044609452Y0026180833D01*
X0044654411Y0026161837D01*
X0044698216Y0026140748D01*
X0044740807Y0026117629D01*
X0044782119Y0026092543D01*
X0044822091Y0026065552D01*
X0044860659Y0026036720D01*
X0044897761Y0026006108D01*
X0044933335Y0025973780D01*
X0044967318Y0025939797D01*
X0044999646Y0025904224D01*
X0045030258Y0025867121D01*
X0045059090Y0025828553D01*
X0045086081Y0025788581D01*
X0045111167Y0025747269D01*
X0045134286Y0025704678D01*
X0045155374Y0025660873D01*
X0045174371Y0025615914D01*
X0045191212Y0025569866D01*
X0045205835Y0025522790D01*
X0045218177Y0025474749D01*
X0045228177Y0025425807D01*
X0045235770Y0025376024D01*
X0045240895Y0025325466D01*
X0045243489Y0025274193D01*
X0045243708Y0025248282D01*
X0045243489Y0025222535D01*
X0045240895Y0025171572D01*
X0045235770Y0025121304D01*
X0045228177Y0025071794D01*
X0045218177Y0025023104D01*
X0045205835Y0024975299D01*
X0045191212Y0024928442D01*
X0045174371Y0024882595D01*
X0045155374Y0024837823D01*
X0045134286Y0024794188D01*
X0045111167Y0024751754D01*
X0045086081Y0024710584D01*
X0045059090Y0024670741D01*
X0045030258Y0024632289D01*
X0044999646Y0024595292D01*
X0044967318Y0024559811D01*
X0044933335Y0024525912D01*
X0044897761Y0024493656D01*
X0044860659Y0024463107D01*
X0044822091Y0024434329D01*
X0044782119Y0024407385D01*
X0044740807Y0024382338D01*
X0044698216Y0024359252D01*
X0044654411Y0024338189D01*
X0044609452Y0024319214D01*
X0044563404Y0024302389D01*
X0044516328Y0024287777D01*
X0044468287Y0024275443D01*
X0044419344Y0024265448D01*
X0044369562Y0024257858D01*
X0044319003Y0024252734D01*
X0044267730Y0024250141D01*
X0044241820Y0024249922D01*
X0044216073Y0024250141D01*
X0044165110Y0024252734D01*
X0044114842Y0024257858D01*
X0044065332Y0024265448D01*
X0044016642Y0024275443D01*
X0043968837Y0024287777D01*
X0043921979Y0024302389D01*
X0043876133Y0024319214D01*
X0043831360Y0024338189D01*
X0043787725Y0024359252D01*
X0043745291Y0024382338D01*
X0043704121Y0024407385D01*
X0043664279Y0024434329D01*
X0043625827Y0024463107D01*
X0043588830Y0024493656D01*
X0043553349Y0024525912D01*
X0043519449Y0024559811D01*
X0043487194Y0024595292D01*
X0043456645Y0024632289D01*
X0043427867Y0024670741D01*
X0043400923Y0024710584D01*
X0043375876Y0024751754D01*
X0043352790Y0024794188D01*
X0043331727Y0024837823D01*
X0043312752Y0024882595D01*
X0043295927Y0024928442D01*
X0043281315Y0024975299D01*
X0043268980Y0025023104D01*
X0043258986Y0025071794D01*
X0043251396Y0025121304D01*
X0043246272Y0025171572D01*
X0043243678Y0025222535D01*
X0043243460Y0025248282D01*
X0043243678Y0025274193D01*
X0043246272Y0025325466D01*
X0043251396Y0025376024D01*
X0043258986Y0025425807D01*
X0043268980Y0025474749D01*
X0043281315Y0025522790D01*
X0043295927Y0025569866D01*
X0043312752Y0025615914D01*
X0043331727Y0025660873D01*
X0043352790Y0025704678D01*
X0043375876Y0025747269D01*
X0043400923Y0025788581D01*
X0043427867Y0025828553D01*
X0043456645Y0025867121D01*
X0043487194Y0025904224D01*
X0043519449Y0025939797D01*
X0043553349Y0025973780D01*
X0043588830Y0026006108D01*
X0043625827Y0026036720D01*
X0043664279Y0026065552D01*
X0043704121Y0026092543D01*
X0043745291Y0026117629D01*
X0043787725Y0026140748D01*
X0043831360Y0026161837D01*
X0043876133Y0026180833D01*
X0043921979Y0026197674D01*
X0043968837Y0026212297D01*
X0044016642Y0026224639D01*
X0044065332Y0026234639D01*
X0044114842Y0026242232D01*
X0044165110Y0026247357D01*
X0044216073Y0026249951D01*
X0044241820Y0026250170D01*
G37*
%LPD*%
G36*
X0041724205Y0023706589D02*
G01*
X0041775478Y0023704306D01*
X0041826037Y0023699472D01*
X0041875819Y0023692150D01*
X0041924762Y0023682404D01*
X0041972802Y0023670296D01*
X0042019878Y0023655892D01*
X0042065927Y0023639253D01*
X0042110885Y0023620442D01*
X0042154691Y0023599524D01*
X0042197281Y0023576562D01*
X0042238594Y0023551618D01*
X0042278565Y0023524757D01*
X0042317134Y0023496041D01*
X0042354236Y0023465534D01*
X0042389810Y0023433299D01*
X0042423792Y0023399399D01*
X0042456121Y0023363898D01*
X0042486732Y0023326859D01*
X0042515565Y0023288345D01*
X0042542555Y0023248420D01*
X0042567641Y0023207147D01*
X0042590760Y0023164589D01*
X0042611849Y0023120809D01*
X0042630845Y0023075871D01*
X0042647686Y0023029839D01*
X0042662309Y0022982774D01*
X0042674652Y0022934742D01*
X0042684651Y0022885804D01*
X0042692245Y0022836025D01*
X0042697370Y0022785468D01*
X0042699964Y0022734195D01*
X0042700182Y0022708284D01*
X0042699964Y0022682374D01*
X0042697370Y0022631101D01*
X0042692245Y0022580542D01*
X0042684651Y0022530760D01*
X0042674652Y0022481817D01*
X0042662309Y0022433777D01*
X0042647686Y0022386701D01*
X0042630845Y0022340652D01*
X0042611849Y0022295694D01*
X0042590760Y0022251888D01*
X0042567641Y0022209298D01*
X0042542555Y0022167985D01*
X0042515565Y0022128013D01*
X0042486732Y0022089445D01*
X0042456121Y0022052343D01*
X0042423792Y0022016769D01*
X0042389810Y0021982787D01*
X0042354236Y0021950458D01*
X0042317134Y0021919846D01*
X0042278565Y0021891014D01*
X0042238594Y0021864023D01*
X0042197281Y0021838937D01*
X0042154691Y0021815819D01*
X0042110885Y0021794730D01*
X0042065927Y0021775734D01*
X0042019878Y0021758893D01*
X0041972802Y0021744270D01*
X0041924762Y0021731927D01*
X0041875819Y0021721928D01*
X0041826037Y0021714334D01*
X0041775478Y0021709209D01*
X0041724205Y0021706615D01*
X0041698294Y0021706396D01*
X0041672548Y0021706615D01*
X0041621585Y0021709209D01*
X0041571317Y0021714334D01*
X0041521806Y0021721928D01*
X0041473117Y0021731927D01*
X0041425312Y0021744270D01*
X0041378454Y0021758893D01*
X0041332607Y0021775734D01*
X0041287835Y0021794730D01*
X0041244200Y0021815819D01*
X0041201766Y0021838937D01*
X0041160596Y0021864023D01*
X0041120754Y0021891014D01*
X0041082302Y0021919846D01*
X0041045304Y0021950458D01*
X0041009824Y0021982787D01*
X0040975924Y0022016769D01*
X0040943668Y0022052343D01*
X0040913120Y0022089445D01*
X0040884342Y0022128013D01*
X0040857398Y0022167985D01*
X0040832351Y0022209298D01*
X0040809264Y0022251888D01*
X0040788202Y0022295694D01*
X0040769226Y0022340652D01*
X0040752401Y0022386701D01*
X0040737790Y0022433777D01*
X0040725455Y0022481817D01*
X0040715461Y0022530760D01*
X0040707870Y0022580542D01*
X0040702747Y0022631101D01*
X0040700153Y0022682374D01*
X0040699934Y0022708284D01*
X0040700153Y0022734031D01*
X0040702747Y0022784994D01*
X0040707870Y0022835262D01*
X0040715461Y0022884773D01*
X0040725455Y0022933462D01*
X0040737790Y0022981267D01*
X0040752401Y0023028125D01*
X0040769226Y0023073971D01*
X0040788202Y0023118744D01*
X0040809264Y0023162379D01*
X0040832351Y0023204813D01*
X0040857398Y0023245983D01*
X0040884342Y0023285825D01*
X0040913120Y0023324277D01*
X0040943668Y0023361275D01*
X0040975924Y0023396755D01*
X0041009824Y0023430655D01*
X0041045304Y0023462911D01*
X0041082302Y0023493459D01*
X0041120754Y0023522237D01*
X0041160596Y0023549181D01*
X0041201766Y0023574228D01*
X0041244200Y0023597314D01*
X0041287835Y0023618377D01*
X0041332607Y0023637353D01*
X0041378454Y0023654178D01*
X0041425312Y0023668789D01*
X0041473117Y0023681124D01*
X0041521806Y0023691118D01*
X0041571317Y0023698709D01*
X0041621585Y0023703832D01*
X0041672548Y0023706426D01*
X0041698294Y0023706645D01*
G37*
%LPD*%
G36*
X0041724205Y0026249951D02*
G01*
X0041775478Y0026247357D01*
X0041826037Y0026242232D01*
X0041875819Y0026234639D01*
X0041924762Y0026224639D01*
X0041972802Y0026212297D01*
X0042019878Y0026197674D01*
X0042065927Y0026180833D01*
X0042110885Y0026161837D01*
X0042154691Y0026140748D01*
X0042197281Y0026117629D01*
X0042238594Y0026092543D01*
X0042278565Y0026065552D01*
X0042317134Y0026036720D01*
X0042354236Y0026006108D01*
X0042389810Y0025973780D01*
X0042423792Y0025939797D01*
X0042456121Y0025904224D01*
X0042486732Y0025867121D01*
X0042515565Y0025828553D01*
X0042542555Y0025788581D01*
X0042567641Y0025747269D01*
X0042590760Y0025704678D01*
X0042611849Y0025660873D01*
X0042630845Y0025615914D01*
X0042647686Y0025569866D01*
X0042662309Y0025522790D01*
X0042674652Y0025474749D01*
X0042684651Y0025425807D01*
X0042692245Y0025376024D01*
X0042697370Y0025325466D01*
X0042699964Y0025274193D01*
X0042700182Y0025248282D01*
X0042699964Y0025222535D01*
X0042697370Y0025171572D01*
X0042692245Y0025121304D01*
X0042684651Y0025071794D01*
X0042674652Y0025023104D01*
X0042662309Y0024975299D01*
X0042647686Y0024928442D01*
X0042630845Y0024882595D01*
X0042611849Y0024837823D01*
X0042590760Y0024794188D01*
X0042567641Y0024751754D01*
X0042542555Y0024710584D01*
X0042515565Y0024670741D01*
X0042486732Y0024632289D01*
X0042456121Y0024595292D01*
X0042423792Y0024559811D01*
X0042389810Y0024525912D01*
X0042354236Y0024493656D01*
X0042317134Y0024463107D01*
X0042278565Y0024434329D01*
X0042238594Y0024407385D01*
X0042197281Y0024382338D01*
X0042154691Y0024359252D01*
X0042110885Y0024338189D01*
X0042065927Y0024319214D01*
X0042019878Y0024302389D01*
X0041972802Y0024287777D01*
X0041924762Y0024275443D01*
X0041875819Y0024265448D01*
X0041826037Y0024257858D01*
X0041775478Y0024252734D01*
X0041724205Y0024250141D01*
X0041698294Y0024249922D01*
X0041672548Y0024250141D01*
X0041621585Y0024252734D01*
X0041571317Y0024257858D01*
X0041521806Y0024265448D01*
X0041473117Y0024275443D01*
X0041425312Y0024287777D01*
X0041378454Y0024302389D01*
X0041332607Y0024319214D01*
X0041287835Y0024338189D01*
X0041244200Y0024359252D01*
X0041201766Y0024382338D01*
X0041160596Y0024407385D01*
X0041120754Y0024434329D01*
X0041082302Y0024463107D01*
X0041045304Y0024493656D01*
X0041009824Y0024525912D01*
X0040975924Y0024559811D01*
X0040943668Y0024595292D01*
X0040913120Y0024632289D01*
X0040884342Y0024670741D01*
X0040857398Y0024710584D01*
X0040832351Y0024751754D01*
X0040809264Y0024794188D01*
X0040788202Y0024837823D01*
X0040769226Y0024882595D01*
X0040752401Y0024928442D01*
X0040737790Y0024975299D01*
X0040725455Y0025023104D01*
X0040715461Y0025071794D01*
X0040707870Y0025121304D01*
X0040702747Y0025171572D01*
X0040700153Y0025222535D01*
X0040699934Y0025248282D01*
X0040700153Y0025274193D01*
X0040702747Y0025325466D01*
X0040707870Y0025376024D01*
X0040715461Y0025425807D01*
X0040725455Y0025474749D01*
X0040737790Y0025522790D01*
X0040752401Y0025569866D01*
X0040769226Y0025615914D01*
X0040788202Y0025660873D01*
X0040809264Y0025704678D01*
X0040832351Y0025747269D01*
X0040857398Y0025788581D01*
X0040884342Y0025828553D01*
X0040913120Y0025867121D01*
X0040943668Y0025904224D01*
X0040975924Y0025939797D01*
X0041009824Y0025973780D01*
X0041045304Y0026006108D01*
X0041082302Y0026036720D01*
X0041120754Y0026065552D01*
X0041160596Y0026092543D01*
X0041201766Y0026117629D01*
X0041244200Y0026140748D01*
X0041287835Y0026161837D01*
X0041332607Y0026180833D01*
X0041378454Y0026197674D01*
X0041425312Y0026212297D01*
X0041473117Y0026224639D01*
X0041521806Y0026234639D01*
X0041571317Y0026242232D01*
X0041621585Y0026247357D01*
X0041672548Y0026249951D01*
X0041698294Y0026250170D01*
G37*
%LPD*%
G36*
X0038447040Y0021243996D02*
G01*
X0038477281Y0021240925D01*
X0038506562Y0021234933D01*
X0038534730Y0021226172D01*
X0038561636Y0021214791D01*
X0038587129Y0021200943D01*
X0038611058Y0021184777D01*
X0038633273Y0021166444D01*
X0038653622Y0021146095D01*
X0038671955Y0021123880D01*
X0038688121Y0021099951D01*
X0038701969Y0021074458D01*
X0038713350Y0021047552D01*
X0038722111Y0021019383D01*
X0038728103Y0020990103D01*
X0038731174Y0020959862D01*
X0038731436Y0020944397D01*
X0038731174Y0020928933D01*
X0038728103Y0020898691D01*
X0038722111Y0020869411D01*
X0038713350Y0020841242D01*
X0038701969Y0020814336D01*
X0038688121Y0020788843D01*
X0038671955Y0020764914D01*
X0038653622Y0020742700D01*
X0038633273Y0020722351D01*
X0038611058Y0020704018D01*
X0038587129Y0020687852D01*
X0038561636Y0020674003D01*
X0038534730Y0020662623D01*
X0038506562Y0020653861D01*
X0038477281Y0020647870D01*
X0038447040Y0020644799D01*
X0038431575Y0020644536D01*
X0038416111Y0020644799D01*
X0038385869Y0020647870D01*
X0038356589Y0020653861D01*
X0038328420Y0020662623D01*
X0038301514Y0020674003D01*
X0038276021Y0020687852D01*
X0038252092Y0020704018D01*
X0038229878Y0020722351D01*
X0038209529Y0020742700D01*
X0038191196Y0020764914D01*
X0038175030Y0020788843D01*
X0038161181Y0020814336D01*
X0038149801Y0020841242D01*
X0038141039Y0020869411D01*
X0038135048Y0020898691D01*
X0038131977Y0020928933D01*
X0038131714Y0020944397D01*
X0038131977Y0020959862D01*
X0038135048Y0020990103D01*
X0038141039Y0021019383D01*
X0038149801Y0021047552D01*
X0038161181Y0021074458D01*
X0038175030Y0021099951D01*
X0038191196Y0021123880D01*
X0038209529Y0021146095D01*
X0038229878Y0021166444D01*
X0038252092Y0021184777D01*
X0038276021Y0021200943D01*
X0038301514Y0021214791D01*
X0038328420Y0021226172D01*
X0038356589Y0021234933D01*
X0038385869Y0021240925D01*
X0038416111Y0021243996D01*
X0038431575Y0021244258D01*
G37*
%LPD*%
G36*
X0038447040Y0020538441D02*
G01*
X0038477281Y0020535370D01*
X0038506562Y0020529378D01*
X0038534730Y0020520617D01*
X0038561636Y0020509236D01*
X0038587129Y0020495388D01*
X0038611058Y0020479222D01*
X0038633273Y0020460889D01*
X0038653622Y0020440540D01*
X0038671955Y0020418325D01*
X0038688121Y0020394396D01*
X0038701969Y0020368903D01*
X0038713350Y0020341997D01*
X0038722111Y0020313828D01*
X0038728103Y0020284548D01*
X0038731174Y0020254307D01*
X0038731436Y0020238842D01*
X0038731174Y0020223378D01*
X0038728103Y0020193136D01*
X0038722111Y0020163856D01*
X0038713350Y0020135687D01*
X0038701969Y0020108781D01*
X0038688121Y0020083288D01*
X0038671955Y0020059359D01*
X0038653622Y0020037145D01*
X0038633273Y0020016796D01*
X0038611058Y0019998463D01*
X0038587129Y0019982297D01*
X0038561636Y0019968448D01*
X0038534730Y0019957068D01*
X0038506562Y0019948306D01*
X0038477281Y0019942315D01*
X0038447040Y0019939244D01*
X0038431575Y0019938981D01*
X0038416111Y0019939244D01*
X0038385869Y0019942315D01*
X0038356589Y0019948306D01*
X0038328420Y0019957068D01*
X0038301514Y0019968448D01*
X0038276021Y0019982297D01*
X0038252092Y0019998463D01*
X0038229878Y0020016796D01*
X0038209529Y0020037145D01*
X0038191196Y0020059359D01*
X0038175030Y0020083288D01*
X0038161181Y0020108781D01*
X0038149801Y0020135687D01*
X0038141039Y0020163856D01*
X0038135048Y0020193136D01*
X0038131977Y0020223378D01*
X0038131714Y0020238842D01*
X0038131977Y0020254307D01*
X0038135048Y0020284548D01*
X0038141039Y0020313828D01*
X0038149801Y0020341997D01*
X0038161181Y0020368903D01*
X0038175030Y0020394396D01*
X0038191196Y0020418325D01*
X0038209529Y0020440540D01*
X0038229878Y0020460889D01*
X0038252092Y0020479222D01*
X0038276021Y0020495388D01*
X0038301514Y0020509236D01*
X0038328420Y0020520617D01*
X0038356589Y0020529378D01*
X0038385869Y0020535370D01*
X0038416111Y0020538441D01*
X0038431575Y0020538703D01*
G37*
%LPD*%
%LPD*%
G36*
X0044418209Y0020168287D02*
G01*
X0044065431Y0020168287D01*
X0044065431Y0027890585D01*
X0044418209Y0027890585D01*
G37*
%LPD*%
%LPD*%
G36*
X0046436096Y0025071893D02*
G01*
X0044241820Y0025071893D01*
X0044241820Y0025424671D01*
X0046436096Y0025424671D01*
G37*
%LPD*%
%LPD*%
G36*
X0046436096Y0022531896D02*
G01*
X0044241820Y0022531896D01*
X0044241820Y0022884673D01*
X0046436096Y0022884673D01*
G37*
%LPD*%
%LPD*%
G36*
X0046136235Y0019991898D02*
G01*
X0044241820Y0019991898D01*
X0044241820Y0020344675D01*
X0046136235Y0020344675D01*
G37*
%LPD*%
G36*
X0045266987Y0015891217D02*
G01*
X0045234387Y0015931061D01*
X0045198467Y0015971425D01*
X0045160912Y0016010262D01*
X0045121773Y0016047520D01*
X0045081103Y0016083146D01*
X0045038957Y0016117086D01*
X0044995386Y0016149288D01*
X0044950443Y0016179699D01*
X0044904183Y0016208266D01*
X0044856657Y0016234936D01*
X0044807918Y0016259655D01*
X0044758020Y0016282371D01*
X0044707015Y0016303031D01*
X0044654957Y0016321583D01*
X0044601899Y0016337972D01*
X0044547892Y0016352146D01*
X0044520514Y0016358290D01*
X0044547730Y0016364598D01*
X0044601446Y0016379083D01*
X0044654253Y0016395764D01*
X0044706096Y0016414590D01*
X0044756919Y0016435509D01*
X0044806669Y0016458468D01*
X0044855290Y0016483418D01*
X0044902728Y0016510305D01*
X0044948926Y0016539078D01*
X0044993831Y0016569686D01*
X0045037388Y0016602077D01*
X0045079542Y0016636199D01*
X0045120237Y0016672000D01*
X0045159419Y0016709430D01*
X0045197033Y0016748435D01*
X0045233024Y0016788965D01*
X0045267337Y0016830967D01*
X0045299917Y0016874391D01*
X0045330710Y0016919184D01*
X0045359660Y0016965295D01*
X0045363835Y0016972606D01*
G37*
%LPD*%
G36*
X0009906565Y0009473804D02*
G01*
X0009845432Y0009461293D01*
X0009785418Y0009445853D01*
X0009726602Y0009427563D01*
X0009669064Y0009406504D01*
X0009612881Y0009382753D01*
X0009558134Y0009356391D01*
X0009504899Y0009327498D01*
X0009453257Y0009296152D01*
X0009403286Y0009262433D01*
X0009355065Y0009226421D01*
X0009308672Y0009188194D01*
X0009264187Y0009147834D01*
X0009221689Y0009105418D01*
X0009181255Y0009061026D01*
X0009142965Y0009014738D01*
X0009106899Y0008966634D01*
X0009073133Y0008916792D01*
X0009041748Y0008865292D01*
X0009012822Y0008812214D01*
X0008986434Y0008757637D01*
X0008962663Y0008701640D01*
X0008941588Y0008644304D01*
X0008923287Y0008585707D01*
X0008907839Y0008525928D01*
X0008895323Y0008465048D01*
X0008885817Y0008403146D01*
X0008879402Y0008340301D01*
X0008876155Y0008276593D01*
X0008875881Y0008244409D01*
X0008876155Y0008212225D01*
X0008879402Y0008148517D01*
X0008885817Y0008085672D01*
X0008895323Y0008023770D01*
X0008907839Y0007962890D01*
X0008923287Y0007903111D01*
X0008941588Y0007844514D01*
X0008962663Y0007787178D01*
X0008986434Y0007731181D01*
X0009012822Y0007676604D01*
X0009041748Y0007623526D01*
X0009073133Y0007572026D01*
X0009106899Y0007522184D01*
X0009142965Y0007474080D01*
X0009181255Y0007427792D01*
X0009221689Y0007383400D01*
X0009264187Y0007340984D01*
X0009308672Y0007300623D01*
X0009355065Y0007262397D01*
X0009403286Y0007226385D01*
X0009453257Y0007192666D01*
X0009504899Y0007161320D01*
X0009558134Y0007132427D01*
X0009612881Y0007106065D01*
X0009669064Y0007082314D01*
X0009726602Y0007061255D01*
X0009785418Y0007042965D01*
X0009845432Y0007027525D01*
X0009906565Y0007015014D01*
X0009968739Y0007005512D01*
X0010031874Y0006999098D01*
X0010095893Y0006995851D01*
X0010128241Y0006995577D01*
X0010160425Y0006995851D01*
X0010224133Y0006999098D01*
X0010286978Y0007005512D01*
X0010348880Y0007015014D01*
X0010409760Y0007027525D01*
X0010469538Y0007042965D01*
X0010528135Y0007061255D01*
X0010585472Y0007082314D01*
X0010641468Y0007106065D01*
X0010696045Y0007132427D01*
X0010749124Y0007161320D01*
X0010800623Y0007192666D01*
X0010850465Y0007226385D01*
X0010898570Y0007262397D01*
X0010944858Y0007300623D01*
X0010989249Y0007340984D01*
X0011031665Y0007383400D01*
X0011072026Y0007427792D01*
X0011110252Y0007474080D01*
X0011146265Y0007522184D01*
X0011179984Y0007572026D01*
X0011211329Y0007623526D01*
X0011240223Y0007676604D01*
X0011266585Y0007731181D01*
X0011290335Y0007787178D01*
X0011311395Y0007844514D01*
X0011329685Y0007903111D01*
X0011345124Y0007962890D01*
X0011357635Y0008023770D01*
X0011367138Y0008085672D01*
X0011373552Y0008148517D01*
X0011376799Y0008212225D01*
X0011377073Y0008244409D01*
X0011376799Y0008276593D01*
X0011373552Y0008340301D01*
X0011367138Y0008403146D01*
X0011357635Y0008465048D01*
X0011345124Y0008525928D01*
X0011329685Y0008585707D01*
X0011311395Y0008644304D01*
X0011290335Y0008701640D01*
X0011266585Y0008757637D01*
X0011240223Y0008812214D01*
X0011211329Y0008865292D01*
X0011179984Y0008916792D01*
X0011146265Y0008966634D01*
X0011110252Y0009014738D01*
X0011072026Y0009061026D01*
X0011031665Y0009105418D01*
X0010989249Y0009147834D01*
X0010944858Y0009188194D01*
X0010898570Y0009226421D01*
X0010850465Y0009262433D01*
X0010800623Y0009296152D01*
X0010749124Y0009327498D01*
X0010696045Y0009356391D01*
X0010641468Y0009382753D01*
X0010585472Y0009406504D01*
X0010528135Y0009427563D01*
X0010469538Y0009445853D01*
X0010409760Y0009461293D01*
X0010348880Y0009473804D01*
X0010286978Y0009483306D01*
X0010224133Y0009489720D01*
X0010160425Y0009492967D01*
X0010128241Y0009493241D01*
X0010095893Y0009492967D01*
X0026681275Y0021245689D01*
X0044546538Y0008983145D01*
X0044445710Y0008972896D01*
X0044346418Y0008957712D01*
X0044248786Y0008937718D01*
X0044152940Y0008913041D01*
X0044059006Y0008883806D01*
X0043967111Y0008850140D01*
X0043877380Y0008812168D01*
X0043789940Y0008770017D01*
X0043704915Y0008723812D01*
X0043622433Y0008673679D01*
X0043542619Y0008619744D01*
X0043465599Y0008562134D01*
X0043391499Y0008500974D01*
X0043320445Y0008436389D01*
X0043252562Y0008368507D01*
X0043187978Y0008297453D01*
X0043126818Y0008223353D01*
X0043069208Y0008146333D01*
X0043015273Y0008066519D01*
X0042965140Y0007984037D01*
X0042918935Y0007899012D01*
X0042876783Y0007811571D01*
X0042838812Y0007721841D01*
X0042805145Y0007629945D01*
X0042775911Y0007536012D01*
X0042751234Y0007440166D01*
X0042731240Y0007342534D01*
X0042716056Y0007243241D01*
X0042705807Y0007142414D01*
X0042700620Y0007040179D01*
X0042700182Y0006988521D01*
X0042700620Y0006937026D01*
X0042705807Y0006835080D01*
X0042716056Y0006734505D01*
X0042731240Y0006635428D01*
X0042751234Y0006537977D01*
X0042775911Y0006442279D01*
X0042805145Y0006348463D01*
X0042838812Y0006256657D01*
X0042876783Y0006166988D01*
X0042918935Y0006079585D01*
X0042965140Y0005994574D01*
X0043015273Y0005912085D01*
X0043069208Y0005832245D01*
X0043126818Y0005755182D01*
X0043187978Y0005681024D01*
X0043252562Y0005609899D01*
X0043320445Y0005541934D01*
X0043391499Y0005477258D01*
X0043465599Y0005415998D01*
X0043542619Y0005358282D01*
X0043622433Y0005304239D01*
X0043704915Y0005253996D01*
X0043789940Y0005207681D01*
X0043877380Y0005165422D01*
X0043967111Y0005127347D01*
X0044059006Y0005093584D01*
X0044152940Y0005064260D01*
X0044248786Y0005039504D01*
X0044346418Y0005019443D01*
X0044445710Y0005004206D01*
X0044546538Y0004993919D01*
X0044648773Y0004988712D01*
X0044700431Y0004988273D01*
X0044751924Y0004988712D01*
X0044853850Y0004993919D01*
X0044954386Y0005004206D01*
X0045053407Y0005019443D01*
X0045150786Y0005039504D01*
X0045246396Y0005064260D01*
X0045340111Y0005093584D01*
X0045431805Y0005127347D01*
X0045521350Y0005165422D01*
X0045608619Y0005207681D01*
X0045693487Y0005253996D01*
X0045775827Y0005304239D01*
X0045855512Y0005358282D01*
X0045932416Y0005415998D01*
X0046006411Y0005477258D01*
X0046077372Y0005541934D01*
X0046145171Y0005609899D01*
X0046209683Y0005681024D01*
X0046270780Y0005755182D01*
X0046328336Y0005832245D01*
X0046382224Y0005912085D01*
X0046432318Y0005994574D01*
X0046478490Y0006079585D01*
X0046520616Y0006166988D01*
X0046558567Y0006256657D01*
X0046592217Y0006348463D01*
X0046621440Y0006442279D01*
X0046646109Y0006537977D01*
X0046666098Y0006635428D01*
X0046681279Y0006734505D01*
X0046691526Y0006835080D01*
X0046696713Y0006937026D01*
X0046697151Y0006988521D01*
X0046696713Y0007040179D01*
X0046691526Y0007142414D01*
X0046681279Y0007243241D01*
X0046666098Y0007342534D01*
X0046646109Y0007440166D01*
X0046621440Y0007536012D01*
X0046592217Y0007629945D01*
X0046558567Y0007721841D01*
X0046520616Y0007811571D01*
X0046478490Y0007899012D01*
X0046432318Y0007984037D01*
X0046382224Y0008066519D01*
X0046328336Y0008146333D01*
X0046270780Y0008223353D01*
X0046209683Y0008297453D01*
X0046145171Y0008368507D01*
X0046077372Y0008436389D01*
X0046006411Y0008500974D01*
X0045932416Y0008562134D01*
X0045855512Y0008619744D01*
X0045775827Y0008673679D01*
X0045693487Y0008723812D01*
X0045608619Y0008770017D01*
X0045521350Y0008812168D01*
X0045431805Y0008850140D01*
X0045340111Y0008883806D01*
X0045246396Y0008913041D01*
X0045150786Y0008937718D01*
X0045053407Y0008957712D01*
X0044954386Y0008972896D01*
X0044853850Y0008983145D01*
X0044751924Y0008988332D01*
X0044700431Y0008988769D01*
X0044648773Y0008988332D01*
X0045108490Y0014121463D01*
X0045140317Y0014150450D01*
X0045184469Y0014194685D01*
X0045226473Y0014240977D01*
X0045266245Y0014289241D01*
X0045303706Y0014339395D01*
X0045338774Y0014391356D01*
X0045371367Y0014445040D01*
X0045401404Y0014500363D01*
X0045428803Y0014557243D01*
X0045453484Y0014615596D01*
X0045475364Y0014675339D01*
X0045494363Y0014736388D01*
X0045510399Y0014798660D01*
X0045523390Y0014862072D01*
X0045533256Y0014926541D01*
X0045539914Y0014991983D01*
X0045543284Y0015058314D01*
X0045543569Y0015091819D01*
X0045543355Y0015120873D01*
X0045540818Y0015178456D01*
X0045535798Y0015235359D01*
X0045528347Y0015291531D01*
X0045518518Y0015346918D01*
X0045506364Y0015401467D01*
X0045491939Y0015455125D01*
X0045475295Y0015507839D01*
X0045456484Y0015559557D01*
X0045435561Y0015610225D01*
X0045412578Y0015659790D01*
X0045387588Y0015708200D01*
X0045360644Y0015755401D01*
X0045331799Y0015801341D01*
X0045301106Y0015845966D01*
X0045268618Y0015889224D01*
X0045266987Y0015891217D01*
X0045363835Y0016972606D01*
X0045386712Y0017012672D01*
X0045411813Y0017061263D01*
X0045434906Y0017111017D01*
X0045455936Y0017161882D01*
X0045474850Y0017213807D01*
X0045491591Y0017266739D01*
X0045506106Y0017320627D01*
X0045518339Y0017375419D01*
X0045528235Y0017431064D01*
X0045535739Y0017487511D01*
X0045540797Y0017544706D01*
X0045543353Y0017602599D01*
X0045543569Y0017631817D01*
X0045543353Y0017660871D01*
X0045540797Y0017718453D01*
X0045535739Y0017775357D01*
X0045528235Y0017831528D01*
X0045518339Y0017886915D01*
X0045506106Y0017941464D01*
X0045491591Y0017995122D01*
X0045474850Y0018047837D01*
X0045463026Y0018080167D01*
X0046981447Y0035034640D01*
X0046991988Y0035005897D01*
X0047015002Y0034932033D01*
X0047034429Y0034856671D01*
X0047050170Y0034779911D01*
X0047062125Y0034701852D01*
X0047070194Y0034622594D01*
X0047074278Y0034542235D01*
X0047074623Y0034501634D01*
X0047074623Y0005930189D01*
X0047074275Y0005889318D01*
X0047070169Y0005808999D01*
X0047062097Y0005730438D01*
X0047050199Y0005653691D01*
X0047034613Y0005578811D01*
X0047015480Y0005505857D01*
X0046992939Y0005434882D01*
X0046967129Y0005365942D01*
X0046938190Y0005299094D01*
X0046906262Y0005234392D01*
X0046871484Y0005171892D01*
X0046833995Y0005111649D01*
X0046793936Y0005053720D01*
X0046751445Y0004998159D01*
X0046706662Y0004945023D01*
X0046659727Y0004894367D01*
X0046610779Y0004846246D01*
X0046559958Y0004800716D01*
X0046507403Y0004757832D01*
X0046453254Y0004717650D01*
X0046397650Y0004680226D01*
X0046340731Y0004645615D01*
X0046282637Y0004613873D01*
X0046223506Y0004585055D01*
X0046163479Y0004559217D01*
X0046102694Y0004536414D01*
X0046041292Y0004516702D01*
X0045979412Y0004500137D01*
X0045917194Y0004486773D01*
X0045854777Y0004476667D01*
X0045792300Y0004469874D01*
X0045729903Y0004466450D01*
X0045698791Y0004466163D01*
X0006498161Y0004466163D01*
X0006459577Y0004466462D01*
X0006383564Y0004470024D01*
X0006308995Y0004477079D01*
X0006235937Y0004487558D01*
X0006164459Y0004501392D01*
X0006094626Y0004518512D01*
X0006026506Y0004538848D01*
X0005960166Y0004562331D01*
X0005895674Y0004588893D01*
X0005833097Y0004618463D01*
X0005772501Y0004650974D01*
X0005713954Y0004686356D01*
X0005657524Y0004724540D01*
X0005603276Y0004765456D01*
X0005551280Y0004809036D01*
X0005501600Y0004855211D01*
X0005454306Y0004903911D01*
X0005409464Y0004955067D01*
X0005367141Y0005008610D01*
X0005327405Y0005064471D01*
X0005290322Y0005122581D01*
X0005255959Y0005182871D01*
X0005224385Y0005245272D01*
X0005195666Y0005309714D01*
X0005169869Y0005376128D01*
X0005147062Y0005444446D01*
X0005127311Y0005514598D01*
X0005110684Y0005586515D01*
X0005097248Y0005660128D01*
X0005087071Y0005735368D01*
X0005080218Y0005812165D01*
X0005076759Y0005890451D01*
X0005076467Y0005930189D01*
X0005076467Y0034501634D01*
X0005076812Y0034542235D01*
X0005080896Y0034622594D01*
X0005088966Y0034701852D01*
X0005100920Y0034779911D01*
X0005116661Y0034856671D01*
X0005136088Y0034932033D01*
X0005159102Y0035005897D01*
X0005185604Y0035078163D01*
X0005191025Y0035090962D01*
X0008455010Y0017829099D01*
X0008449042Y0017828490D01*
X0008399532Y0017820897D01*
X0008350842Y0017810897D01*
X0008303037Y0017798555D01*
X0008256179Y0017783932D01*
X0008210333Y0017767091D01*
X0008165560Y0017748094D01*
X0008121925Y0017727006D01*
X0008079491Y0017703887D01*
X0008038321Y0017678801D01*
X0007998479Y0017651810D01*
X0007960027Y0017622978D01*
X0007923029Y0017592366D01*
X0007887549Y0017560038D01*
X0007853649Y0017526055D01*
X0007821394Y0017490481D01*
X0007790845Y0017453379D01*
X0007762067Y0017414811D01*
X0007735123Y0017374839D01*
X0007710076Y0017333527D01*
X0007686990Y0017290936D01*
X0007665927Y0017247131D01*
X0007646952Y0017202172D01*
X0007630126Y0017156124D01*
X0007615515Y0017109048D01*
X0007603180Y0017061007D01*
X0007593186Y0017012064D01*
X0007585596Y0016962282D01*
X0007580472Y0016911723D01*
X0007577878Y0016860450D01*
X0007577660Y0016834540D01*
X0007577878Y0016808793D01*
X0007580472Y0016757830D01*
X0007585596Y0016707562D01*
X0007593186Y0016658052D01*
X0007603180Y0016609362D01*
X0007615515Y0016561557D01*
X0007630126Y0016514699D01*
X0007646952Y0016468853D01*
X0007665927Y0016424080D01*
X0007686990Y0016380445D01*
X0007710076Y0016338011D01*
X0007735123Y0016296841D01*
X0007762067Y0016256999D01*
X0007790845Y0016218547D01*
X0007821394Y0016181550D01*
X0007853649Y0016146069D01*
X0007887549Y0016112169D01*
X0007923029Y0016079914D01*
X0007960027Y0016049365D01*
X0007998479Y0016020587D01*
X0008038321Y0015993643D01*
X0008079491Y0015968596D01*
X0008121925Y0015945510D01*
X0008165560Y0015924447D01*
X0008210333Y0015905472D01*
X0008256179Y0015888647D01*
X0008303037Y0015874035D01*
X0008350842Y0015861700D01*
X0008399532Y0015851706D01*
X0008449042Y0015844116D01*
X0008499310Y0015838992D01*
X0008550273Y0015836398D01*
X0008576020Y0015836180D01*
X0008601930Y0015836398D01*
X0008653203Y0015838992D01*
X0008703762Y0015844116D01*
X0008753544Y0015851706D01*
X0008802487Y0015861700D01*
X0008825883Y0015867707D01*
X0010031874Y0009489720D01*
X0009968739Y0009483306D01*
G37*
%LPD*%
G36*
X0044346418Y0035412493D02*
G01*
X0044248786Y0035392499D01*
X0044152940Y0035367822D01*
X0044059006Y0035338587D01*
X0043967111Y0035304921D01*
X0043877380Y0035266949D01*
X0043789940Y0035224798D01*
X0043704915Y0035178593D01*
X0043622433Y0035128460D01*
X0043542619Y0035074525D01*
X0043465599Y0035016915D01*
X0043391499Y0034955754D01*
X0043320445Y0034891170D01*
X0043252562Y0034823288D01*
X0043187978Y0034752234D01*
X0043126818Y0034678134D01*
X0043069208Y0034601114D01*
X0043015273Y0034521300D01*
X0042965140Y0034438817D01*
X0042918935Y0034353793D01*
X0042876783Y0034266352D01*
X0042838812Y0034176621D01*
X0042805145Y0034084726D01*
X0042775911Y0033990793D01*
X0042751234Y0033894947D01*
X0042731240Y0033797315D01*
X0042716056Y0033698022D01*
X0042705807Y0033597195D01*
X0042700620Y0033494960D01*
X0042700182Y0033443302D01*
X0042700620Y0033391807D01*
X0042705807Y0033289861D01*
X0042716056Y0033189286D01*
X0042731240Y0033090209D01*
X0042751234Y0032992758D01*
X0042775911Y0032897060D01*
X0042805145Y0032803244D01*
X0042838812Y0032711438D01*
X0042876783Y0032621769D01*
X0042918935Y0032534366D01*
X0042965140Y0032449355D01*
X0043015273Y0032366866D01*
X0043069208Y0032287026D01*
X0043126818Y0032209963D01*
X0043187978Y0032135805D01*
X0043252562Y0032064680D01*
X0043320445Y0031996715D01*
X0043391499Y0031932039D01*
X0043465599Y0031870779D01*
X0043542619Y0031813063D01*
X0043622433Y0031759020D01*
X0043704915Y0031708777D01*
X0043789940Y0031662462D01*
X0043877380Y0031620203D01*
X0043967111Y0031582128D01*
X0044059006Y0031548365D01*
X0044152940Y0031519041D01*
X0044248786Y0031494285D01*
X0044346418Y0031474224D01*
X0044445710Y0031458987D01*
X0044546538Y0031448700D01*
X0044648773Y0031443493D01*
X0044700431Y0031443054D01*
X0044751924Y0031443493D01*
X0044853850Y0031448700D01*
X0044954386Y0031458987D01*
X0045053407Y0031474224D01*
X0045150786Y0031494285D01*
X0045246396Y0031519041D01*
X0045340111Y0031548365D01*
X0045431805Y0031582128D01*
X0045521350Y0031620203D01*
X0045608619Y0031662462D01*
X0045693487Y0031708777D01*
X0045775827Y0031759020D01*
X0045855512Y0031813063D01*
X0045932416Y0031870779D01*
X0046006411Y0031932039D01*
X0046077372Y0031996715D01*
X0046145171Y0032064680D01*
X0046209683Y0032135805D01*
X0046270780Y0032209963D01*
X0046328336Y0032287026D01*
X0046382224Y0032366866D01*
X0046432318Y0032449355D01*
X0046478490Y0032534366D01*
X0046520616Y0032621769D01*
X0046558567Y0032711438D01*
X0046592217Y0032803244D01*
X0046621440Y0032897060D01*
X0046646109Y0032992758D01*
X0046666098Y0033090209D01*
X0046681279Y0033189286D01*
X0046691526Y0033289861D01*
X0046696713Y0033391807D01*
X0046697151Y0033443302D01*
X0046696713Y0033494960D01*
X0046691526Y0033597195D01*
X0046681279Y0033698022D01*
X0046666098Y0033797315D01*
X0046646109Y0033894947D01*
X0046621440Y0033990793D01*
X0046592217Y0034084726D01*
X0046558567Y0034176621D01*
X0046520616Y0034266352D01*
X0046478490Y0034353793D01*
X0046432318Y0034438817D01*
X0046382224Y0034521300D01*
X0046328336Y0034601114D01*
X0046270780Y0034678134D01*
X0046209683Y0034752234D01*
X0046145171Y0034823288D01*
X0046077372Y0034891170D01*
X0046006411Y0034955754D01*
X0045932416Y0035016915D01*
X0045855512Y0035074525D01*
X0045775827Y0035128460D01*
X0045693487Y0035178593D01*
X0045608619Y0035224798D01*
X0045521350Y0035266949D01*
X0045431805Y0035304921D01*
X0045340111Y0035338587D01*
X0045246396Y0035367822D01*
X0045150786Y0035392499D01*
X0045053407Y0035412493D01*
X0044954386Y0035427677D01*
X0044853850Y0035437925D01*
X0044751924Y0035443113D01*
X0044700431Y0035443550D01*
X0044648773Y0035443113D01*
X0046259886Y0035879555D01*
X0046283983Y0035866451D01*
X0046348865Y0035826994D01*
X0046411651Y0035784547D01*
X0046472244Y0035739209D01*
X0046530543Y0035691080D01*
X0046586448Y0035640260D01*
X0046639861Y0035586847D01*
X0046690681Y0035530942D01*
X0046738810Y0035472643D01*
X0046784148Y0035412051D01*
X0046826595Y0035349264D01*
X0046866051Y0035284382D01*
X0046902419Y0035217505D01*
X0046935597Y0035148732D01*
X0046965487Y0035078163D01*
X0046981447Y0035034640D01*
X0045463026Y0018080167D01*
X0045455936Y0018099554D01*
X0045434906Y0018150223D01*
X0045411813Y0018199788D01*
X0045386712Y0018248198D01*
X0045359660Y0018295399D01*
X0045330710Y0018341339D01*
X0045299917Y0018385964D01*
X0045267337Y0018429221D01*
X0045233024Y0018471059D01*
X0045197033Y0018511422D01*
X0045159419Y0018550260D01*
X0045120237Y0018587518D01*
X0045079542Y0018623144D01*
X0045037388Y0018657084D01*
X0044993831Y0018689286D01*
X0044948926Y0018719697D01*
X0044902728Y0018748264D01*
X0044855290Y0018774933D01*
X0044806669Y0018799653D01*
X0044756919Y0018822369D01*
X0044706096Y0018843029D01*
X0044654253Y0018861580D01*
X0044601446Y0018877969D01*
X0044547730Y0018892144D01*
X0044520514Y0018898288D01*
X0044547730Y0018904596D01*
X0044601446Y0018919080D01*
X0044654253Y0018935760D01*
X0044706096Y0018954583D01*
X0044756919Y0018975497D01*
X0044806669Y0018998448D01*
X0044855290Y0019023386D01*
X0044902728Y0019050257D01*
X0044948926Y0019079010D01*
X0044993831Y0019109592D01*
X0045037388Y0019141950D01*
X0045079542Y0019176033D01*
X0045120237Y0019211788D01*
X0045159419Y0019249163D01*
X0045197033Y0019288105D01*
X0045233024Y0019328562D01*
X0045267337Y0019370482D01*
X0045299917Y0019413812D01*
X0045330710Y0019458501D01*
X0045359660Y0019504495D01*
X0045386712Y0019551742D01*
X0045411813Y0019600191D01*
X0045434906Y0019649789D01*
X0045455936Y0019700483D01*
X0045474850Y0019752222D01*
X0045491591Y0019804952D01*
X0045506106Y0019858622D01*
X0045518339Y0019913179D01*
X0045528235Y0019968571D01*
X0045535739Y0020024745D01*
X0045540797Y0020081650D01*
X0045543353Y0020139233D01*
X0045543569Y0020168287D01*
X0045543353Y0020197505D01*
X0045540797Y0020255397D01*
X0045535739Y0020312591D01*
X0045528235Y0020369035D01*
X0045518339Y0020424675D01*
X0045506106Y0020479459D01*
X0045491591Y0020533336D01*
X0045474850Y0020586252D01*
X0045455936Y0020638156D01*
X0045434906Y0020688994D01*
X0045411813Y0020738716D01*
X0045386712Y0020787268D01*
X0045359660Y0020834599D01*
X0045330710Y0020880655D01*
X0045299917Y0020925385D01*
X0045267337Y0020968736D01*
X0045233024Y0021010656D01*
X0045197033Y0021051092D01*
X0045159419Y0021089993D01*
X0045120237Y0021127305D01*
X0045079542Y0021162978D01*
X0045037388Y0021196957D01*
X0044993831Y0021229192D01*
X0044948926Y0021259629D01*
X0044902728Y0021288216D01*
X0044855290Y0021314901D01*
X0044806669Y0021339632D01*
X0044756919Y0021362357D01*
X0044706096Y0021383022D01*
X0044654253Y0021401576D01*
X0044601446Y0021417967D01*
X0044547730Y0021432141D01*
X0044520514Y0021438286D01*
X0044547729Y0021444594D01*
X0044601425Y0021459078D01*
X0044654193Y0021475758D01*
X0044705979Y0021494581D01*
X0044756730Y0021515494D01*
X0044806393Y0021538446D01*
X0044854913Y0021563384D01*
X0044902238Y0021590255D01*
X0044948312Y0021619008D01*
X0044993084Y0021649590D01*
X0045036498Y0021681948D01*
X0045078502Y0021716031D01*
X0045119043Y0021751786D01*
X0045158065Y0021789160D01*
X0045195516Y0021828102D01*
X0045231343Y0021868560D01*
X0045265490Y0021910479D01*
X0045297906Y0021953810D01*
X0045328536Y0021998498D01*
X0045357326Y0022044492D01*
X0045384224Y0022091740D01*
X0045409175Y0022140189D01*
X0045432126Y0022189787D01*
X0045453023Y0022240481D01*
X0045471812Y0022292219D01*
X0045488441Y0022344950D01*
X0045502854Y0022398619D01*
X0045515000Y0022453176D01*
X0045524824Y0022508568D01*
X0045532272Y0022564743D01*
X0045537291Y0022621648D01*
X0045539827Y0022679230D01*
X0045540041Y0022708284D01*
X0045539827Y0022737502D01*
X0045537291Y0022795395D01*
X0045532272Y0022852589D01*
X0045524824Y0022909032D01*
X0045515000Y0022964672D01*
X0045502854Y0023019457D01*
X0045488441Y0023073333D01*
X0045471812Y0023126249D01*
X0045453023Y0023178153D01*
X0045432126Y0023228992D01*
X0045409175Y0023278714D01*
X0045384224Y0023327266D01*
X0045357326Y0023374596D01*
X0045328536Y0023420653D01*
X0045297906Y0023465382D01*
X0045265490Y0023508733D01*
X0045231343Y0023550653D01*
X0045195516Y0023591090D01*
X0045158065Y0023629991D01*
X0045119043Y0023667303D01*
X0045078502Y0023702975D01*
X0045036498Y0023736955D01*
X0044993084Y0023769189D01*
X0044948312Y0023799626D01*
X0044902238Y0023828214D01*
X0044854913Y0023854899D01*
X0044806393Y0023879630D01*
X0044756730Y0023902354D01*
X0044705979Y0023923020D01*
X0044654193Y0023941574D01*
X0044601425Y0023957964D01*
X0044547729Y0023972139D01*
X0044520514Y0023978283D01*
X0044547729Y0023984591D01*
X0044601425Y0023999076D01*
X0044654193Y0024015756D01*
X0044705979Y0024034578D01*
X0044756730Y0024055492D01*
X0044806393Y0024078444D01*
X0044854913Y0024103381D01*
X0044902238Y0024130253D01*
X0044948312Y0024159005D01*
X0044993084Y0024189587D01*
X0045036498Y0024221946D01*
X0045078502Y0024256028D01*
X0045119043Y0024291783D01*
X0045158065Y0024329158D01*
X0045195516Y0024368100D01*
X0045231343Y0024408557D01*
X0045265490Y0024450477D01*
X0045297906Y0024493807D01*
X0045328536Y0024538496D01*
X0045357326Y0024584490D01*
X0045384224Y0024631738D01*
X0045409175Y0024680187D01*
X0045432126Y0024729784D01*
X0045453023Y0024780479D01*
X0045471812Y0024832217D01*
X0045488441Y0024884947D01*
X0045502854Y0024938617D01*
X0045515000Y0024993174D01*
X0045524824Y0025048566D01*
X0045532272Y0025104740D01*
X0045537291Y0025161645D01*
X0045539827Y0025219228D01*
X0045540041Y0025248282D01*
X0045539757Y0025281949D01*
X0045536387Y0025348571D01*
X0045529730Y0025414265D01*
X0045519867Y0025478949D01*
X0045506881Y0025542542D01*
X0045490853Y0025604962D01*
X0045471866Y0025666129D01*
X0045450001Y0025725960D01*
X0045425341Y0025784375D01*
X0045397968Y0025841292D01*
X0045367963Y0025896630D01*
X0045335409Y0025950307D01*
X0045300388Y0026002242D01*
X0045262982Y0026052353D01*
X0045223273Y0026100559D01*
X0045181342Y0026146779D01*
X0045137273Y0026190932D01*
X0045091146Y0026232935D01*
X0045043044Y0026272708D01*
X0044993050Y0026310168D01*
X0044941244Y0026345236D01*
X0044887710Y0026377829D01*
X0044832528Y0026407866D01*
X0044775782Y0026435265D01*
X0044717553Y0026459946D01*
X0044657923Y0026481826D01*
X0044596975Y0026500825D01*
X0044534790Y0026516861D01*
X0044471450Y0026529852D01*
X0044407038Y0026539718D01*
X0044341635Y0026546377D01*
X0044275323Y0026549747D01*
X0044241820Y0026550031D01*
X0044212602Y0026549817D01*
X0044154709Y0026547281D01*
X0044097515Y0026542260D01*
X0044041072Y0026534809D01*
X0043985432Y0026524980D01*
X0043930648Y0026512827D01*
X0043876771Y0026498401D01*
X0043823855Y0026481757D01*
X0043771951Y0026462947D01*
X0043721112Y0026442024D01*
X0043671390Y0026419040D01*
X0043622838Y0026394050D01*
X0043575508Y0026367106D01*
X0043529452Y0026338261D01*
X0043484722Y0026307568D01*
X0043441371Y0026275080D01*
X0043399451Y0026240849D01*
X0043359014Y0026204930D01*
X0043320114Y0026167374D01*
X0043282801Y0026128235D01*
X0043247129Y0026087565D01*
X0043213149Y0026045419D01*
X0043180915Y0026001848D01*
X0043150478Y0025956906D01*
X0043121891Y0025910645D01*
X0043095205Y0025863119D01*
X0043070474Y0025814380D01*
X0043047750Y0025764482D01*
X0043027084Y0025713478D01*
X0043008530Y0025661419D01*
X0042992140Y0025608361D01*
X0042977965Y0025554354D01*
X0042971821Y0025526976D01*
X0042965513Y0025554192D01*
X0042951029Y0025607908D01*
X0042934349Y0025660715D01*
X0042915526Y0025712558D01*
X0042894612Y0025763382D01*
X0042871661Y0025813131D01*
X0042846723Y0025861753D01*
X0042819852Y0025909190D01*
X0042791099Y0025955388D01*
X0042760517Y0026000294D01*
X0042728159Y0026043850D01*
X0042694076Y0026086004D01*
X0042658321Y0026126699D01*
X0042620946Y0026165881D01*
X0042582004Y0026203495D01*
X0042541547Y0026239486D01*
X0042499627Y0026273799D01*
X0042456297Y0026306379D01*
X0042411608Y0026337172D01*
X0042365614Y0026366122D01*
X0042318367Y0026393175D01*
X0042269918Y0026418275D01*
X0042220320Y0026441368D01*
X0042169626Y0026462398D01*
X0042117887Y0026481312D01*
X0042065157Y0026498054D01*
X0042011487Y0026512568D01*
X0041956930Y0026524801D01*
X0041901538Y0026534697D01*
X0041845364Y0026542201D01*
X0041788459Y0026547259D01*
X0041730876Y0026549815D01*
X0041701822Y0026550031D01*
X0041668155Y0026549745D01*
X0041601533Y0026546355D01*
X0041535840Y0026539659D01*
X0041471156Y0026529740D01*
X0041407563Y0026516682D01*
X0041345142Y0026500567D01*
X0041283975Y0026481479D01*
X0041224144Y0026459501D01*
X0041165729Y0026434717D01*
X0041108812Y0026407210D01*
X0041053474Y0026377063D01*
X0040999797Y0026344360D01*
X0040947862Y0026309184D01*
X0040897751Y0026271618D01*
X0040849545Y0026231746D01*
X0040803325Y0026189651D01*
X0040759173Y0026145416D01*
X0040717169Y0026099125D01*
X0040677397Y0026050860D01*
X0040639936Y0026000706D01*
X0040604868Y0025948745D01*
X0040572275Y0025895062D01*
X0040542238Y0025839738D01*
X0040514839Y0025782858D01*
X0040490158Y0025724505D01*
X0040468278Y0025664763D01*
X0040449279Y0025603713D01*
X0040433243Y0025541441D01*
X0040420252Y0025478029D01*
X0040410386Y0025413560D01*
X0040403728Y0025348119D01*
X0040400358Y0025281787D01*
X0040400073Y0025248282D01*
X0040400287Y0025219228D01*
X0040402824Y0025161645D01*
X0040407844Y0025104740D01*
X0040415295Y0025048566D01*
X0040425124Y0024993174D01*
X0040437278Y0024938617D01*
X0040451703Y0024884947D01*
X0040468347Y0024832217D01*
X0040487158Y0024780479D01*
X0040508081Y0024729784D01*
X0040531064Y0024680187D01*
X0040556054Y0024631738D01*
X0040582998Y0024584490D01*
X0040611843Y0024538496D01*
X0040642536Y0024493807D01*
X0040675025Y0024450477D01*
X0040709255Y0024408557D01*
X0040745175Y0024368100D01*
X0040782730Y0024329158D01*
X0040821869Y0024291783D01*
X0040862539Y0024256028D01*
X0040904685Y0024221946D01*
X0040948256Y0024189587D01*
X0040993199Y0024159005D01*
X0041039459Y0024130253D01*
X0041086985Y0024103381D01*
X0041135724Y0024078444D01*
X0041185622Y0024055492D01*
X0041236627Y0024034578D01*
X0041288685Y0024015756D01*
X0041341744Y0023999076D01*
X0041395750Y0023984591D01*
X0041423128Y0023978283D01*
X0041395750Y0023972137D01*
X0041341744Y0023957943D01*
X0041288685Y0023941515D01*
X0041236627Y0023922908D01*
X0041185622Y0023902175D01*
X0041135724Y0023879372D01*
X0041086985Y0023854551D01*
X0041039459Y0023827769D01*
X0040993199Y0023799078D01*
X0040948256Y0023768533D01*
X0040904685Y0023736189D01*
X0040862539Y0023702100D01*
X0040821869Y0023666319D01*
X0040782730Y0023628901D01*
X0040745175Y0023589901D01*
X0040709255Y0023549373D01*
X0040675025Y0023507370D01*
X0040642536Y0023463948D01*
X0040611843Y0023419160D01*
X0040582998Y0023373061D01*
X0040556054Y0023325704D01*
X0040531064Y0023277145D01*
X0040508081Y0023227438D01*
X0040487158Y0023176636D01*
X0040468347Y0023124794D01*
X0040451703Y0023071967D01*
X0040437278Y0023018208D01*
X0040425124Y0022963572D01*
X0040415295Y0022908113D01*
X0040407844Y0022851885D01*
X0040402824Y0022794943D01*
X0040400287Y0022737340D01*
X0040400073Y0022708284D01*
X0040400287Y0022679230D01*
X0040402824Y0022621648D01*
X0040407844Y0022564743D01*
X0040415295Y0022508568D01*
X0040425124Y0022453176D01*
X0040437278Y0022398619D01*
X0040451703Y0022344950D01*
X0040468347Y0022292219D01*
X0040487158Y0022240481D01*
X0040508081Y0022189787D01*
X0040531064Y0022140189D01*
X0040556054Y0022091740D01*
X0040582998Y0022044492D01*
X0040611843Y0021998498D01*
X0040642536Y0021953810D01*
X0040675025Y0021910479D01*
X0040709255Y0021868560D01*
X0040745175Y0021828102D01*
X0040782730Y0021789160D01*
X0040821869Y0021751786D01*
X0040862539Y0021716031D01*
X0040904685Y0021681948D01*
X0040948256Y0021649590D01*
X0040993199Y0021619008D01*
X0041039459Y0021590255D01*
X0041086985Y0021563384D01*
X0041135724Y0021538446D01*
X0041185622Y0021515494D01*
X0041236627Y0021494581D01*
X0041288685Y0021475758D01*
X0041341744Y0021459078D01*
X0041395750Y0021444594D01*
X0041423128Y0021438286D01*
X0041395912Y0021432141D01*
X0041342196Y0021417967D01*
X0041289389Y0021401576D01*
X0041237546Y0021383022D01*
X0041186723Y0021362357D01*
X0041136973Y0021339632D01*
X0041088352Y0021314901D01*
X0041040914Y0021288216D01*
X0040994716Y0021259629D01*
X0040949811Y0021229192D01*
X0040906254Y0021196957D01*
X0040864100Y0021162978D01*
X0040823405Y0021127305D01*
X0040784223Y0021089993D01*
X0040746609Y0021051092D01*
X0040710618Y0021010656D01*
X0040676305Y0020968736D01*
X0040643725Y0020925385D01*
X0040612932Y0020880655D01*
X0040583982Y0020834599D01*
X0040556930Y0020787268D01*
X0040531829Y0020738716D01*
X0040508736Y0020688994D01*
X0040487706Y0020638156D01*
X0040468792Y0020586252D01*
X0040452051Y0020533336D01*
X0040437536Y0020479459D01*
X0040425303Y0020424675D01*
X0040415407Y0020369035D01*
X0040407903Y0020312591D01*
X0040402845Y0020255397D01*
X0040400289Y0020197505D01*
X0040400073Y0020168287D01*
X0040400289Y0020139233D01*
X0040402845Y0020081650D01*
X0040407903Y0020024745D01*
X0040415407Y0019968571D01*
X0040425303Y0019913179D01*
X0040437536Y0019858622D01*
X0040452051Y0019804952D01*
X0040468792Y0019752222D01*
X0040487706Y0019700483D01*
X0040508736Y0019649789D01*
X0040531829Y0019600191D01*
X0040556930Y0019551742D01*
X0040583982Y0019504495D01*
X0040612932Y0019458501D01*
X0040643725Y0019413812D01*
X0040676305Y0019370482D01*
X0040710618Y0019328562D01*
X0040746609Y0019288105D01*
X0040784223Y0019249163D01*
X0040823405Y0019211788D01*
X0040864100Y0019176033D01*
X0040906254Y0019141950D01*
X0040949811Y0019109592D01*
X0040994716Y0019079010D01*
X0041040914Y0019050257D01*
X0041088352Y0019023386D01*
X0041136973Y0018998448D01*
X0041186723Y0018975497D01*
X0041237546Y0018954583D01*
X0041289389Y0018935760D01*
X0041342196Y0018919080D01*
X0041395912Y0018904596D01*
X0041423128Y0018898288D01*
X0041395912Y0018892144D01*
X0041342196Y0018877969D01*
X0041289389Y0018861579D01*
X0041237546Y0018843025D01*
X0041186723Y0018822359D01*
X0041136973Y0018799635D01*
X0041088352Y0018774904D01*
X0041040914Y0018748218D01*
X0040994716Y0018719631D01*
X0040949811Y0018689194D01*
X0040906254Y0018656960D01*
X0040864100Y0018622980D01*
X0040823405Y0018587308D01*
X0040784223Y0018549995D01*
X0040746609Y0018511095D01*
X0040710618Y0018470658D01*
X0040676305Y0018428738D01*
X0040643725Y0018385387D01*
X0040612932Y0018340657D01*
X0040583982Y0018294601D01*
X0040556930Y0018247271D01*
X0040531829Y0018198719D01*
X0040508736Y0018148997D01*
X0040487706Y0018098158D01*
X0040468792Y0018046254D01*
X0040452051Y0017993338D01*
X0040437536Y0017939461D01*
X0040425303Y0017884677D01*
X0040415407Y0017829037D01*
X0040407903Y0017772594D01*
X0040402845Y0017715400D01*
X0040400289Y0017657507D01*
X0040400073Y0017628289D01*
X0040400432Y0017590669D01*
X0040404669Y0017516317D01*
X0040413020Y0017443143D01*
X0040425360Y0017371271D01*
X0040441566Y0017300826D01*
X0040461513Y0017231931D01*
X0040485078Y0017164711D01*
X0040512135Y0017099288D01*
X0040527073Y0017067373D01*
X0038999547Y0018594899D01*
X0038999547Y0020051870D01*
X0039007154Y0020074360D01*
X0039019060Y0020119670D01*
X0039026997Y0020165972D01*
X0039030966Y0020213927D01*
X0039031297Y0020238842D01*
X0039030966Y0020263757D01*
X0039026997Y0020311713D01*
X0039019060Y0020358015D01*
X0039007154Y0020403325D01*
X0038999547Y0020425814D01*
X0038999547Y0020757425D01*
X0039007154Y0020779915D01*
X0039019060Y0020825225D01*
X0039026997Y0020871527D01*
X0039030966Y0020919482D01*
X0039031297Y0020944397D01*
X0039031166Y0020959910D01*
X0039029614Y0020990608D01*
X0039026547Y0021020878D01*
X0039022003Y0021050681D01*
X0039016018Y0021079982D01*
X0039008632Y0021108742D01*
X0038999880Y0021136923D01*
X0038989802Y0021164489D01*
X0038978433Y0021191402D01*
X0038965812Y0021217625D01*
X0038951975Y0021243120D01*
X0038936961Y0021267849D01*
X0038920807Y0021291775D01*
X0038903551Y0021314861D01*
X0038885229Y0021337069D01*
X0038865879Y0021358361D01*
X0038845539Y0021378701D01*
X0038824247Y0021398051D01*
X0038802039Y0021416372D01*
X0038778953Y0021433629D01*
X0038755027Y0021449783D01*
X0038730298Y0021464797D01*
X0038704803Y0021478633D01*
X0038678581Y0021491255D01*
X0038651668Y0021502624D01*
X0038624101Y0021512702D01*
X0038595920Y0021521454D01*
X0038567160Y0021528840D01*
X0038537859Y0021534824D01*
X0038508056Y0021539369D01*
X0038477786Y0021542436D01*
X0038447089Y0021543988D01*
X0038431575Y0021544119D01*
X0038416062Y0021543988D01*
X0038385364Y0021542436D01*
X0038355095Y0021539369D01*
X0038325291Y0021534824D01*
X0038295991Y0021528840D01*
X0038267231Y0021521454D01*
X0038239049Y0021512702D01*
X0038211483Y0021502624D01*
X0038184570Y0021491255D01*
X0038158347Y0021478633D01*
X0038132853Y0021464797D01*
X0038108124Y0021449783D01*
X0038084198Y0021433629D01*
X0038061112Y0021416372D01*
X0038038904Y0021398051D01*
X0038017611Y0021378701D01*
X0037997271Y0021358361D01*
X0037977922Y0021337069D01*
X0037959600Y0021314861D01*
X0037942343Y0021291775D01*
X0037926189Y0021267849D01*
X0037911175Y0021243120D01*
X0037897339Y0021217625D01*
X0037884718Y0021191402D01*
X0037873349Y0021164489D01*
X0037863270Y0021136923D01*
X0037854519Y0021108742D01*
X0037847132Y0021079982D01*
X0037841148Y0021050681D01*
X0037836604Y0021020878D01*
X0037833537Y0020990608D01*
X0037831985Y0020959910D01*
X0037831854Y0020944397D01*
X0037832295Y0020916616D01*
X0037837421Y0020861550D01*
X0037847343Y0020807971D01*
X0037861729Y0020756874D01*
X0037870659Y0020732731D01*
X0037870659Y0020450509D01*
X0037861729Y0020426366D01*
X0037847343Y0020375268D01*
X0037837421Y0020321690D01*
X0037832295Y0020266623D01*
X0037831854Y0020238842D01*
X0037832295Y0020211061D01*
X0037837421Y0020155995D01*
X0037847343Y0020102417D01*
X0037861729Y0020051319D01*
X0037870659Y0020027176D01*
X0037870659Y0018125705D01*
X0040477684Y0015515152D01*
X0040468617Y0015489934D01*
X0040452411Y0015438712D01*
X0040438521Y0015386623D01*
X0040426945Y0015333747D01*
X0040417685Y0015280169D01*
X0040410739Y0015225971D01*
X0040406109Y0015171236D01*
X0040403794Y0015116045D01*
X0040403601Y0015088291D01*
X0040403885Y0015054788D01*
X0040407255Y0014988476D01*
X0040413912Y0014923074D01*
X0040423775Y0014858661D01*
X0040436761Y0014795321D01*
X0040452789Y0014733136D01*
X0040471776Y0014672188D01*
X0040493641Y0014612558D01*
X0040518301Y0014554329D01*
X0040545674Y0014497583D01*
X0040575679Y0014442402D01*
X0040608233Y0014388867D01*
X0040643254Y0014337062D01*
X0040680660Y0014287067D01*
X0040720369Y0014238965D01*
X0040762300Y0014192839D01*
X0040806370Y0014148769D01*
X0040852496Y0014106839D01*
X0040900598Y0014067129D01*
X0040950593Y0014029723D01*
X0041002398Y0013994702D01*
X0041055933Y0013962148D01*
X0041111114Y0013932143D01*
X0041167860Y0013904770D01*
X0041226089Y0013880110D01*
X0041285719Y0013858246D01*
X0041346667Y0013839258D01*
X0041408852Y0013823231D01*
X0041472192Y0013810244D01*
X0041536604Y0013800382D01*
X0041602007Y0013793724D01*
X0041668319Y0013790355D01*
X0041701822Y0013790070D01*
X0041731040Y0013790284D01*
X0041788933Y0013792820D01*
X0041846129Y0013797839D01*
X0041902575Y0013805288D01*
X0041958220Y0013815111D01*
X0042013012Y0013827257D01*
X0042066900Y0013841671D01*
X0042119832Y0013858299D01*
X0042171757Y0013877089D01*
X0042222622Y0013897986D01*
X0042272376Y0013920937D01*
X0042320967Y0013945887D01*
X0042368344Y0013972785D01*
X0042414455Y0014001576D01*
X0042459248Y0014032205D01*
X0042502672Y0014064621D01*
X0042544674Y0014098769D01*
X0042585204Y0014134595D01*
X0042624210Y0014172046D01*
X0042661639Y0014211069D01*
X0042697440Y0014251609D01*
X0042731562Y0014293613D01*
X0042763953Y0014337028D01*
X0042794561Y0014381799D01*
X0042823334Y0014427874D01*
X0042850221Y0014475198D01*
X0042875171Y0014523718D01*
X0042898131Y0014573381D01*
X0042919049Y0014624132D01*
X0042937875Y0014675919D01*
X0042954556Y0014728687D01*
X0042969041Y0014782383D01*
X0042975349Y0014809597D01*
X0042981495Y0014782383D01*
X0042995689Y0014728687D01*
X0043012115Y0014675919D01*
X0043030720Y0014624132D01*
X0043051447Y0014573381D01*
X0043074243Y0014523718D01*
X0043099051Y0014475198D01*
X0043125818Y0014427874D01*
X0043154488Y0014381799D01*
X0043185006Y0014337028D01*
X0043217318Y0014293613D01*
X0043251369Y0014251609D01*
X0043287103Y0014211069D01*
X0043324466Y0014172046D01*
X0043363403Y0014134595D01*
X0043403859Y0014098769D01*
X0043445779Y0014064621D01*
X0043489108Y0014032205D01*
X0043533791Y0014001576D01*
X0043579774Y0013972785D01*
X0043627001Y0013945887D01*
X0043675417Y0013920937D01*
X0043724968Y0013897986D01*
X0043775599Y0013877089D01*
X0043827255Y0013858299D01*
X0043879881Y0013841671D01*
X0043933421Y0013827257D01*
X0043987822Y0013815111D01*
X0044043028Y0013805288D01*
X0044098984Y0013797839D01*
X0044155636Y0013792820D01*
X0044212928Y0013790284D01*
X0044241820Y0013790070D01*
X0044275487Y0013790356D01*
X0044342109Y0013793746D01*
X0044407802Y0013800442D01*
X0044472486Y0013810361D01*
X0044536079Y0013823420D01*
X0044598500Y0013839535D01*
X0044659667Y0013858623D01*
X0044719498Y0013880600D01*
X0044777913Y0013905384D01*
X0044834830Y0013932891D01*
X0044890168Y0013963038D01*
X0044943845Y0013995741D01*
X0044995780Y0014030917D01*
X0045045891Y0014068483D01*
X0045094097Y0014108355D01*
X0045108490Y0014121463D01*
X0044648773Y0008988332D01*
X0044546538Y0008983145D01*
X0011229998Y0031851298D01*
X0011240223Y0031870081D01*
X0011266585Y0031924659D01*
X0011290335Y0031980655D01*
X0011311395Y0032037992D01*
X0011329685Y0032096589D01*
X0011345124Y0032156367D01*
X0011357635Y0032217247D01*
X0011367138Y0032279149D01*
X0011373552Y0032341994D01*
X0011376799Y0032405702D01*
X0011377073Y0032437886D01*
X0011376799Y0032470234D01*
X0011373552Y0032534253D01*
X0011367138Y0032597388D01*
X0011357635Y0032659562D01*
X0011345124Y0032720695D01*
X0011329685Y0032780709D01*
X0011311395Y0032839525D01*
X0011290335Y0032897063D01*
X0011266585Y0032953246D01*
X0011240223Y0033007993D01*
X0011211329Y0033061228D01*
X0011179984Y0033112870D01*
X0011146265Y0033162841D01*
X0011110252Y0033211062D01*
X0011072026Y0033257455D01*
X0011031665Y0033301940D01*
X0010989249Y0033344438D01*
X0010944858Y0033384872D01*
X0010898570Y0033423161D01*
X0010850465Y0033459228D01*
X0010800623Y0033492994D01*
X0010749124Y0033524379D01*
X0010696045Y0033553305D01*
X0010641468Y0033579693D01*
X0010585472Y0033603464D01*
X0010528135Y0033624539D01*
X0010469538Y0033642840D01*
X0010409760Y0033658288D01*
X0010348880Y0033670804D01*
X0010286978Y0033680310D01*
X0010224133Y0033686725D01*
X0010160425Y0033689972D01*
X0010128241Y0033690246D01*
X0010095893Y0033689972D01*
X0010031874Y0033686725D01*
X0009968739Y0033680310D01*
X0009906565Y0033670804D01*
X0009845432Y0033658288D01*
X0009785418Y0033642840D01*
X0009726602Y0033624539D01*
X0009669064Y0033603464D01*
X0009612881Y0033579693D01*
X0009558134Y0033553305D01*
X0009504899Y0033524379D01*
X0009453257Y0033492994D01*
X0009403286Y0033459228D01*
X0009355065Y0033423161D01*
X0009308672Y0033384872D01*
X0009264187Y0033344438D01*
X0009221689Y0033301940D01*
X0009181300Y0033257504D01*
X0005627486Y0035696808D01*
X0005678846Y0035739209D01*
X0005739439Y0035784547D01*
X0005802226Y0035826994D01*
X0005867107Y0035866451D01*
X0005933984Y0035902818D01*
X0006002757Y0035935996D01*
X0006073326Y0035965886D01*
X0006145593Y0035992387D01*
X0006219456Y0036015401D01*
X0006294818Y0036034828D01*
X0006371578Y0036050569D01*
X0006443972Y0036061656D01*
X0044546538Y0035437925D01*
X0044445710Y0035427677D01*
G37*
%LPD*%
G36*
X0045541836Y0036074677D02*
G01*
X0045622194Y0036070593D01*
X0045701453Y0036062524D01*
X0045779512Y0036050569D01*
X0045856272Y0036034828D01*
X0045931634Y0036015401D01*
X0046005498Y0035992387D01*
X0046077764Y0035965886D01*
X0046148333Y0035935996D01*
X0046217106Y0035902818D01*
X0046259886Y0035879555D01*
X0044648773Y0035443113D01*
X0044546538Y0035437925D01*
X0006443972Y0036061656D01*
X0006449637Y0036062524D01*
X0006528896Y0036070593D01*
X0006609254Y0036074677D01*
X0006649855Y0036075022D01*
X0045501235Y0036075022D01*
G37*
%LPD*%
G36*
X0008399532Y0025772505D02*
G01*
X0008350842Y0025762511D01*
X0008303037Y0025750176D01*
X0008256179Y0025735565D01*
X0008210333Y0025718739D01*
X0008165560Y0025699764D01*
X0008121925Y0025678701D01*
X0008079491Y0025655615D01*
X0008038321Y0025630568D01*
X0007998479Y0025603624D01*
X0007960027Y0025574846D01*
X0007923029Y0025544297D01*
X0007887549Y0025512042D01*
X0007853649Y0025478142D01*
X0007821394Y0025442662D01*
X0007790845Y0025405664D01*
X0007762067Y0025367212D01*
X0007735123Y0025327370D01*
X0007710076Y0025286200D01*
X0007686990Y0025243766D01*
X0007665927Y0025200131D01*
X0007646952Y0025155358D01*
X0007630126Y0025109512D01*
X0007615515Y0025062654D01*
X0007603180Y0025014849D01*
X0007593186Y0024966160D01*
X0007585596Y0024916649D01*
X0007580472Y0024866381D01*
X0007577878Y0024815418D01*
X0007577660Y0024789671D01*
X0007577878Y0024763761D01*
X0007580472Y0024712488D01*
X0007585596Y0024661929D01*
X0007593186Y0024612147D01*
X0007603180Y0024563204D01*
X0007615515Y0024515163D01*
X0007630126Y0024468088D01*
X0007646952Y0024422039D01*
X0007665927Y0024377081D01*
X0007686990Y0024333275D01*
X0007710076Y0024290684D01*
X0007735123Y0024249372D01*
X0007762067Y0024209400D01*
X0007790845Y0024170832D01*
X0007821394Y0024133730D01*
X0007853649Y0024098156D01*
X0007887549Y0024064174D01*
X0007923029Y0024031845D01*
X0007960027Y0024001233D01*
X0007998479Y0023972401D01*
X0008038321Y0023945410D01*
X0008079491Y0023920324D01*
X0008121925Y0023897206D01*
X0008165560Y0023876117D01*
X0008210333Y0023857121D01*
X0008256179Y0023840280D01*
X0008303037Y0023825656D01*
X0008350842Y0023813314D01*
X0008399532Y0023803315D01*
X0008449042Y0023795721D01*
X0008499310Y0023790596D01*
X0008550273Y0023788002D01*
X0008576020Y0023787783D01*
X0008601930Y0023788002D01*
X0008653203Y0023790596D01*
X0008703762Y0023795721D01*
X0008753544Y0023803315D01*
X0008802487Y0023813314D01*
X0008850528Y0023825656D01*
X0008897604Y0023840280D01*
X0008943652Y0023857121D01*
X0008988611Y0023876117D01*
X0009032416Y0023897206D01*
X0009075007Y0023920324D01*
X0009116319Y0023945410D01*
X0009156291Y0023972401D01*
X0009194859Y0024001233D01*
X0009231961Y0024031845D01*
X0009267535Y0024064174D01*
X0009301517Y0024098156D01*
X0009333846Y0024133730D01*
X0009364458Y0024170832D01*
X0009393290Y0024209400D01*
X0009420281Y0024249372D01*
X0009445367Y0024290684D01*
X0009468485Y0024333275D01*
X0009489574Y0024377081D01*
X0009508571Y0024422039D01*
X0009525412Y0024468088D01*
X0009540035Y0024515163D01*
X0009552377Y0024563204D01*
X0009562377Y0024612147D01*
X0009569970Y0024661929D01*
X0009575095Y0024712488D01*
X0009577689Y0024763761D01*
X0009577908Y0024789671D01*
X0009577689Y0024815418D01*
X0009575095Y0024866381D01*
X0009569970Y0024916649D01*
X0009562377Y0024966160D01*
X0009552377Y0025014849D01*
X0009540035Y0025062654D01*
X0009525412Y0025109512D01*
X0009508571Y0025155358D01*
X0009489574Y0025200131D01*
X0009468485Y0025243766D01*
X0009445367Y0025286200D01*
X0009420281Y0025327370D01*
X0009393290Y0025367212D01*
X0009364458Y0025405664D01*
X0009333846Y0025442662D01*
X0009301517Y0025478142D01*
X0009267535Y0025512042D01*
X0009231961Y0025544297D01*
X0009194859Y0025574846D01*
X0009156291Y0025603624D01*
X0009116319Y0025630568D01*
X0009075007Y0025655615D01*
X0009032416Y0025678701D01*
X0008988611Y0025699764D01*
X0008943652Y0025718739D01*
X0008897604Y0025735565D01*
X0008850528Y0025750176D01*
X0008802487Y0025762511D01*
X0008753544Y0025772505D01*
X0008703762Y0025780096D01*
X0008653203Y0025785219D01*
X0008601930Y0025787813D01*
X0008576020Y0025788032D01*
X0008550273Y0025787813D01*
X0014960153Y0029290955D01*
X0026681275Y0021245689D01*
X0010095893Y0009492967D01*
X0010031874Y0009489720D01*
X0008825883Y0015867707D01*
X0008850528Y0015874035D01*
X0008897604Y0015888647D01*
X0008943652Y0015905472D01*
X0008988611Y0015924447D01*
X0009032416Y0015945510D01*
X0009075007Y0015968596D01*
X0009116319Y0015993643D01*
X0009156291Y0016020587D01*
X0009194859Y0016049365D01*
X0009231961Y0016079914D01*
X0009267535Y0016112169D01*
X0009301517Y0016146069D01*
X0009333846Y0016181550D01*
X0009364458Y0016218547D01*
X0009393290Y0016256999D01*
X0009420281Y0016296841D01*
X0009445367Y0016338011D01*
X0009468485Y0016380445D01*
X0009489574Y0016424080D01*
X0009508571Y0016468853D01*
X0009525412Y0016514699D01*
X0009540035Y0016561557D01*
X0009552377Y0016609362D01*
X0009562377Y0016658052D01*
X0009569970Y0016707562D01*
X0009575095Y0016757830D01*
X0009577689Y0016808793D01*
X0009577908Y0016834540D01*
X0009577689Y0016860450D01*
X0009575095Y0016911723D01*
X0009569970Y0016962282D01*
X0009562377Y0017012064D01*
X0009552377Y0017061007D01*
X0009540035Y0017109048D01*
X0009525412Y0017156124D01*
X0009508571Y0017202172D01*
X0009489574Y0017247131D01*
X0009468485Y0017290936D01*
X0009445367Y0017333527D01*
X0009420281Y0017374839D01*
X0009393290Y0017414811D01*
X0009364458Y0017453379D01*
X0009333846Y0017490481D01*
X0009301517Y0017526055D01*
X0009267535Y0017560038D01*
X0009231961Y0017592366D01*
X0009194859Y0017622978D01*
X0009156291Y0017651810D01*
X0009116319Y0017678801D01*
X0009075007Y0017703887D01*
X0009032416Y0017727006D01*
X0008988611Y0017748094D01*
X0008943652Y0017767091D01*
X0008897604Y0017783932D01*
X0008850528Y0017798555D01*
X0008802487Y0017810897D01*
X0008753544Y0017820897D01*
X0008703762Y0017828490D01*
X0008653203Y0017833615D01*
X0008601930Y0017836209D01*
X0008576020Y0017836428D01*
X0008550273Y0017836209D01*
X0008499310Y0017833615D01*
X0008455010Y0017829099D01*
X0005191025Y0035090962D01*
X0005215493Y0035148732D01*
X0005248671Y0035217505D01*
X0005285039Y0035284382D01*
X0005313218Y0035330719D01*
X0008499310Y0025785219D01*
X0008449042Y0025780096D01*
G37*
%LPD*%
G36*
X0009181300Y0033257504D02*
G01*
X0009181255Y0033257455D01*
X0009142965Y0033211062D01*
X0009106899Y0033162841D01*
X0009073133Y0033112870D01*
X0009041748Y0033061228D01*
X0009012822Y0033007993D01*
X0008986434Y0032953246D01*
X0008962663Y0032897063D01*
X0008941588Y0032839525D01*
X0008923287Y0032780709D01*
X0008907839Y0032720695D01*
X0008895323Y0032659562D01*
X0008885817Y0032597388D01*
X0008879402Y0032534253D01*
X0008876155Y0032470234D01*
X0008875881Y0032437886D01*
X0008876155Y0032405702D01*
X0008879402Y0032341994D01*
X0008885817Y0032279149D01*
X0008895323Y0032217247D01*
X0008907839Y0032156367D01*
X0008923287Y0032096589D01*
X0008941588Y0032037992D01*
X0008962663Y0031980655D01*
X0008986434Y0031924659D01*
X0009012822Y0031870081D01*
X0009041748Y0031817003D01*
X0009073133Y0031765504D01*
X0009106899Y0031715662D01*
X0009142965Y0031667557D01*
X0009181255Y0031621269D01*
X0009221689Y0031576878D01*
X0009264187Y0031534462D01*
X0009308672Y0031494101D01*
X0009355065Y0031455875D01*
X0009403286Y0031419862D01*
X0009453257Y0031386143D01*
X0009504899Y0031354798D01*
X0009558134Y0031325904D01*
X0009612881Y0031299542D01*
X0009669064Y0031275792D01*
X0009726602Y0031254732D01*
X0009785418Y0031236442D01*
X0009845432Y0031221003D01*
X0009906565Y0031208492D01*
X0009968739Y0031198989D01*
X0010031874Y0031192575D01*
X0010095893Y0031189328D01*
X0010128241Y0031189054D01*
X0010160425Y0031189328D01*
X0010224133Y0031192575D01*
X0010286978Y0031198989D01*
X0010348880Y0031208492D01*
X0010409760Y0031221003D01*
X0010469538Y0031236442D01*
X0010528135Y0031254732D01*
X0010585472Y0031275792D01*
X0010641468Y0031299542D01*
X0010696045Y0031325904D01*
X0010749124Y0031354798D01*
X0010800623Y0031386143D01*
X0010850465Y0031419862D01*
X0010898570Y0031455875D01*
X0010944858Y0031494101D01*
X0010989249Y0031534462D01*
X0011031665Y0031576878D01*
X0011072026Y0031621269D01*
X0011110252Y0031667557D01*
X0011146265Y0031715662D01*
X0011179984Y0031765504D01*
X0011211329Y0031817003D01*
X0011229998Y0031851298D01*
X0014960153Y0029290955D01*
X0008550273Y0025787813D01*
X0008499310Y0025785219D01*
X0005313218Y0035330719D01*
X0005324496Y0035349264D01*
X0005366943Y0035412051D01*
X0005412280Y0035472643D01*
X0005460409Y0035530942D01*
X0005511230Y0035586847D01*
X0005564642Y0035640260D01*
X0005620548Y0035691080D01*
X0005627486Y0035696808D01*
G37*
M02*
