%FSLAX46Y46*%
%MOMM*%
%LPD*%
G01*
%ADD10C,0.050000*%
D10*
%LPD*%
%LPD*%
G36*
X0006498742Y0036853472D02*
G01*
X0006438992Y0036848923D01*
X0006379660Y0036842895D01*
X0006320771Y0036835406D01*
X0006262336Y0036826474D01*
X0006204380Y0036816119D01*
X0006146915Y0036804358D01*
X0006089967Y0036791211D01*
X0006033548Y0036776694D01*
X0005977679Y0036760827D01*
X0005922381Y0036743629D01*
X0005867668Y0036725117D01*
X0005813561Y0036705309D01*
X0005760079Y0036684225D01*
X0005707240Y0036661884D01*
X0005655062Y0036638301D01*
X0005603565Y0036613498D01*
X0005552767Y0036587492D01*
X0005502685Y0036560301D01*
X0005453341Y0036531943D01*
X0005404752Y0036502439D01*
X0005356936Y0036471804D01*
X0005309912Y0036440057D01*
X0005263700Y0036407220D01*
X0005218318Y0036373308D01*
X0005173784Y0036338340D01*
X0005130117Y0036302334D01*
X0005087336Y0036265310D01*
X0005045461Y0036227287D01*
X0005004509Y0036188281D01*
X0004964498Y0036148312D01*
X0004925449Y0036107397D01*
X0004887379Y0036065557D01*
X0004850308Y0036022809D01*
X0004814254Y0035979172D01*
X0004779234Y0035934662D01*
X0004745270Y0035889301D01*
X0004712380Y0035843107D01*
X0004680580Y0035796097D01*
X0004649891Y0035748289D01*
X0004620332Y0035699703D01*
X0004591920Y0035650358D01*
X0004564674Y0035600270D01*
X0004538614Y0035549460D01*
X0004513758Y0035497944D01*
X0004490123Y0035445743D01*
X0004467730Y0035392872D01*
X0004446597Y0035339354D01*
X0004426741Y0035285203D01*
X0004408183Y0035230441D01*
X0004390940Y0035175082D01*
X0004375032Y0035119149D01*
X0004360476Y0035062657D01*
X0004347292Y0035005627D01*
X0004335497Y0034948073D01*
X0004325112Y0034890018D01*
X0004316154Y0034831477D01*
X0004308643Y0034772470D01*
X0004302596Y0034713015D01*
X0004298032Y0034653128D01*
X0004294971Y0034592830D01*
X0004293431Y0034532102D01*
X0004293302Y0034501593D01*
X0004293302Y0005930220D01*
X0004293419Y0005899714D01*
X0004294824Y0005839107D01*
X0004297615Y0005779085D01*
X0004301778Y0005719625D01*
X0004307297Y0005660742D01*
X0004314156Y0005602445D01*
X0004322339Y0005544754D01*
X0004331829Y0005487676D01*
X0004342612Y0005431228D01*
X0004354671Y0005375422D01*
X0004367991Y0005320270D01*
X0004382555Y0005265786D01*
X0004398348Y0005211985D01*
X0004415353Y0005158879D01*
X0004433556Y0005106479D01*
X0004452940Y0005054801D01*
X0004473490Y0005003857D01*
X0004495189Y0004953662D01*
X0004518023Y0004904227D01*
X0004541974Y0004855568D01*
X0004567029Y0004807692D01*
X0004593170Y0004760620D01*
X0004620382Y0004714361D01*
X0004648650Y0004668929D01*
X0004677958Y0004624336D01*
X0004708289Y0004580600D01*
X0004739630Y0004537727D01*
X0004771962Y0004495737D01*
X0004805272Y0004454639D01*
X0004839543Y0004414449D01*
X0004874761Y0004375178D01*
X0004910909Y0004336840D01*
X0004947970Y0004299452D01*
X0004985932Y0004263021D01*
X0005024776Y0004227565D01*
X0005064488Y0004193095D01*
X0005105052Y0004159627D01*
X0005146454Y0004127170D01*
X0005188676Y0004095741D01*
X0005231703Y0004065353D01*
X0005275521Y0004036019D01*
X0005320113Y0004007751D01*
X0005365463Y0003980564D01*
X0005411556Y0003954472D01*
X0005458379Y0003929486D01*
X0005505912Y0003905621D01*
X0005554141Y0003882892D01*
X0005603052Y0003861309D01*
X0005652630Y0003840888D01*
X0005702855Y0003821642D01*
X0005753717Y0003803583D01*
X0005805199Y0003786726D01*
X0005857281Y0003771085D01*
X0005909953Y0003756673D01*
X0005963198Y0003743503D01*
X0006016999Y0003731588D01*
X0006071342Y0003720943D01*
X0006126212Y0003711581D01*
X0006181591Y0003703515D01*
X0006237465Y0003696760D01*
X0006293821Y0003691328D01*
X0006350640Y0003687234D01*
X0006407907Y0003684491D01*
X0006465642Y0003683112D01*
X0006494668Y0003682997D01*
X0045698751Y0003682997D01*
X0045724472Y0003683112D01*
X0045775898Y0003684489D01*
X0045827195Y0003687227D01*
X0045878381Y0003691315D01*
X0045929432Y0003696739D01*
X0045980289Y0003703481D01*
X0046056311Y0003715892D01*
X0046156905Y0003737171D01*
X0046256410Y0003763495D01*
X0046354673Y0003794765D01*
X0046451506Y0003830874D01*
X0046546722Y0003871716D01*
X0046640130Y0003917183D01*
X0046731543Y0003967167D01*
X0046820772Y0004021562D01*
X0046907628Y0004080259D01*
X0046991923Y0004143151D01*
X0047073468Y0004210128D01*
X0047152075Y0004281083D01*
X0047227556Y0004355908D01*
X0047299723Y0004434494D01*
X0047368388Y0004516731D01*
X0047433364Y0004602514D01*
X0047494483Y0004691761D01*
X0047537521Y0004760969D01*
X0047564969Y0004808022D01*
X0047591363Y0004855907D01*
X0047616658Y0004904576D01*
X0047640832Y0004954016D01*
X0047663861Y0005004214D01*
X0047685724Y0005055159D01*
X0047706395Y0005106832D01*
X0047725853Y0005159228D01*
X0047744072Y0005212326D01*
X0047761030Y0005266115D01*
X0047776704Y0005320584D01*
X0047791071Y0005375719D01*
X0047804106Y0005431505D01*
X0047815787Y0005487930D01*
X0047826090Y0005544981D01*
X0047834992Y0005602646D01*
X0047842469Y0005660909D01*
X0047848497Y0005719760D01*
X0047853054Y0005779183D01*
X0047856116Y0005839167D01*
X0047857659Y0005899738D01*
X0047857789Y0005930222D01*
X0047857789Y0034501594D01*
X0047857660Y0034532103D01*
X0047856124Y0034592832D01*
X0047853073Y0034653131D01*
X0047848524Y0034713019D01*
X0047842495Y0034772476D01*
X0047835006Y0034831485D01*
X0047826075Y0034890025D01*
X0047815719Y0034948083D01*
X0047803958Y0035005636D01*
X0047790810Y0035062668D01*
X0047776293Y0035119160D01*
X0047760427Y0035175095D01*
X0047743228Y0035230453D01*
X0047724716Y0035285216D01*
X0047704909Y0035339367D01*
X0047683825Y0035392885D01*
X0047661483Y0035445756D01*
X0047637901Y0035497957D01*
X0047613098Y0035549474D01*
X0047587092Y0035600283D01*
X0047559901Y0035650371D01*
X0047531544Y0035699717D01*
X0047502040Y0035748301D01*
X0047471405Y0035796109D01*
X0047439660Y0035843119D01*
X0047406823Y0035889312D01*
X0047372911Y0035934673D01*
X0047337944Y0035979180D01*
X0047301939Y0036022818D01*
X0047264916Y0036065565D01*
X0047226893Y0036107405D01*
X0047187887Y0036148319D01*
X0047147920Y0036188286D01*
X0047107005Y0036227292D01*
X0047065166Y0036265315D01*
X0047022419Y0036302338D01*
X0046978781Y0036338343D01*
X0046934274Y0036373310D01*
X0046888913Y0036407222D01*
X0046842719Y0036440059D01*
X0046795710Y0036471804D01*
X0046747902Y0036502439D01*
X0046699318Y0036531943D01*
X0046649972Y0036560300D01*
X0046599883Y0036587492D01*
X0046549074Y0036613497D01*
X0046497558Y0036638301D01*
X0046445357Y0036661882D01*
X0046392486Y0036684225D01*
X0046338968Y0036705308D01*
X0046284817Y0036725115D01*
X0046230054Y0036743627D01*
X0046174695Y0036760826D01*
X0046118761Y0036776693D01*
X0046062268Y0036791209D01*
X0046005236Y0036804357D01*
X0045947684Y0036816118D01*
X0045889626Y0036826474D01*
X0045831086Y0036835405D01*
X0045772077Y0036842895D01*
X0045712620Y0036848923D01*
X0045652732Y0036853472D01*
X0045592433Y0036856523D01*
X0045531703Y0036858059D01*
X0045501194Y0036858188D01*
X0006649896Y0036858188D01*
X0045599205Y0036891504D01*
X0045654960Y0036888682D01*
X0045715736Y0036884066D01*
X0045776078Y0036877948D01*
X0045835967Y0036870347D01*
X0045895385Y0036861281D01*
X0045954313Y0036850770D01*
X0046012732Y0036838832D01*
X0046070623Y0036825486D01*
X0046127966Y0036810751D01*
X0046184744Y0036794645D01*
X0046240937Y0036777187D01*
X0046296527Y0036758396D01*
X0046351494Y0036738290D01*
X0046405820Y0036716888D01*
X0046459487Y0036694210D01*
X0046512474Y0036670273D01*
X0046564765Y0036645096D01*
X0046616339Y0036618699D01*
X0046667178Y0036591100D01*
X0046717264Y0036562318D01*
X0046766577Y0036532371D01*
X0046815100Y0036501278D01*
X0046862813Y0036469058D01*
X0046909698Y0036435730D01*
X0046955735Y0036401312D01*
X0047000908Y0036365823D01*
X0047045195Y0036329281D01*
X0047088580Y0036291706D01*
X0047131044Y0036253116D01*
X0047172566Y0036213530D01*
X0047213130Y0036172966D01*
X0047252717Y0036131443D01*
X0047291307Y0036088979D01*
X0047328882Y0036045595D01*
X0047365423Y0036001307D01*
X0047400913Y0035956135D01*
X0047435331Y0035910097D01*
X0047468659Y0035863212D01*
X0047500879Y0035815499D01*
X0047531972Y0035766977D01*
X0047561919Y0035717663D01*
X0047590701Y0035667577D01*
X0047618300Y0035616738D01*
X0047644697Y0035565164D01*
X0047669874Y0035512873D01*
X0047693810Y0035459886D01*
X0047716489Y0035406219D01*
X0047737891Y0035351893D01*
X0047757996Y0035296926D01*
X0047776788Y0035241336D01*
X0047794246Y0035185143D01*
X0047810352Y0035128365D01*
X0047825087Y0035071022D01*
X0047838433Y0035013131D01*
X0047850371Y0034954712D01*
X0047860882Y0034895784D01*
X0047869947Y0034836366D01*
X0047877548Y0034776477D01*
X0047883667Y0034716135D01*
X0047888283Y0034655360D01*
X0047891379Y0034594170D01*
X0047892936Y0034532622D01*
X0047893066Y0034501672D01*
X0047893066Y0005930151D01*
X0047892935Y0005899213D01*
X0047891371Y0005837819D01*
X0047888263Y0005776935D01*
X0047883637Y0005716613D01*
X0047877517Y0005656866D01*
X0047869925Y0005597708D01*
X0047860886Y0005539155D01*
X0047850423Y0005481219D01*
X0047838561Y0005423915D01*
X0047825321Y0005367256D01*
X0047810730Y0005311258D01*
X0047794809Y0005255933D01*
X0047777584Y0005201296D01*
X0047759077Y0005147360D01*
X0047739313Y0005094140D01*
X0047718315Y0005041649D01*
X0047696108Y0004989901D01*
X0047672715Y0004938911D01*
X0047648160Y0004888691D01*
X0047622466Y0004839255D01*
X0047595658Y0004790618D01*
X0047567741Y0004742762D01*
X0047524030Y0004672471D01*
X0047461994Y0004581885D01*
X0047396004Y0004494764D01*
X0047326269Y0004411245D01*
X0047252980Y0004331437D01*
X0047176325Y0004255449D01*
X0047096495Y0004183390D01*
X0047013678Y0004115368D01*
X0046928064Y0004051492D01*
X0046839840Y0003991870D01*
X0046749197Y0003936613D01*
X0046656322Y0003885829D01*
X0046561403Y0003839627D01*
X0046464630Y0003798117D01*
X0046366192Y0003761409D01*
X0046266276Y0003729614D01*
X0046165072Y0003702840D01*
X0046062806Y0003681207D01*
X0045985450Y0003668579D01*
X0045933615Y0003661707D01*
X0045881650Y0003656186D01*
X0045829540Y0003652024D01*
X0045777310Y0003649236D01*
X0045725024Y0003647836D01*
X0045698830Y0003647719D01*
X0006494598Y0003647719D01*
X0006465152Y0003647836D01*
X0006406642Y0003649234D01*
X0006348528Y0003652017D01*
X0006290860Y0003656173D01*
X0006233656Y0003661686D01*
X0006176931Y0003668544D01*
X0006120702Y0003676734D01*
X0006064984Y0003686240D01*
X0006009793Y0003697051D01*
X0005955147Y0003709153D01*
X0005901061Y0003722531D01*
X0005847551Y0003737173D01*
X0005794634Y0003753065D01*
X0005742325Y0003770193D01*
X0005690641Y0003788543D01*
X0005639598Y0003808102D01*
X0005589212Y0003828857D01*
X0005539499Y0003850793D01*
X0005490475Y0003873897D01*
X0005442157Y0003898156D01*
X0005394560Y0003923555D01*
X0005347701Y0003950081D01*
X0005301596Y0003977720D01*
X0005256261Y0004006459D01*
X0005211712Y0004036283D01*
X0005167965Y0004067180D01*
X0005125036Y0004099135D01*
X0005082941Y0004132134D01*
X0005041697Y0004166165D01*
X0005001319Y0004201212D01*
X0004961823Y0004237263D01*
X0004923226Y0004274303D01*
X0004885543Y0004312319D01*
X0004848791Y0004351297D01*
X0004812986Y0004391224D01*
X0004778143Y0004432084D01*
X0004744279Y0004473865D01*
X0004711409Y0004516553D01*
X0004679550Y0004560134D01*
X0004648718Y0004604594D01*
X0004618929Y0004649919D01*
X0004590198Y0004696096D01*
X0004562541Y0004743110D01*
X0004535975Y0004790948D01*
X0004510516Y0004839595D01*
X0004486179Y0004889039D01*
X0004462980Y0004939265D01*
X0004440936Y0004990258D01*
X0004420062Y0005042006D01*
X0004400374Y0005094494D01*
X0004381888Y0005147709D01*
X0004364619Y0005201636D01*
X0004348585Y0005256262D01*
X0004333799Y0005311572D01*
X0004320279Y0005367554D01*
X0004308041Y0005424192D01*
X0004297099Y0005481473D01*
X0004287470Y0005539382D01*
X0004279169Y0005597907D01*
X0004272212Y0005657033D01*
X0004266616Y0005716747D01*
X0004262395Y0005777033D01*
X0004259565Y0005837879D01*
X0004258143Y0005899237D01*
X0004258024Y0005930155D01*
X0004258024Y0034501672D01*
X0004258155Y0034532623D01*
X0004259716Y0034594172D01*
X0004262823Y0034655363D01*
X0004267454Y0034716140D01*
X0004273591Y0034776483D01*
X0004281215Y0034836373D01*
X0004290308Y0034895793D01*
X0004300849Y0034954722D01*
X0004312821Y0035013141D01*
X0004326204Y0035071033D01*
X0004340979Y0035128377D01*
X0004357128Y0035185155D01*
X0004374631Y0035241349D01*
X0004393470Y0035296939D01*
X0004413625Y0035351906D01*
X0004435077Y0035406233D01*
X0004457808Y0035459899D01*
X0004481798Y0035512887D01*
X0004507028Y0035565177D01*
X0004533480Y0035616751D01*
X0004561134Y0035667590D01*
X0004589972Y0035717676D01*
X0004619974Y0035766989D01*
X0004651122Y0035815511D01*
X0004683396Y0035863223D01*
X0004716778Y0035910108D01*
X0004751249Y0035956145D01*
X0004786789Y0036001316D01*
X0004823380Y0036045603D01*
X0004861003Y0036088988D01*
X0004899639Y0036131450D01*
X0004939268Y0036172972D01*
X0004979873Y0036213536D01*
X0005021434Y0036253121D01*
X0005063933Y0036291711D01*
X0005107350Y0036329285D01*
X0005151666Y0036365826D01*
X0005196863Y0036401314D01*
X0005242922Y0036435732D01*
X0005289823Y0036469060D01*
X0005337548Y0036501279D01*
X0005386078Y0036532371D01*
X0005435395Y0036562318D01*
X0005485478Y0036591100D01*
X0005536310Y0036618699D01*
X0005587870Y0036645096D01*
X0005640141Y0036670272D01*
X0005693104Y0036694208D01*
X0005746739Y0036716887D01*
X0005801027Y0036738288D01*
X0005855949Y0036758394D01*
X0005911487Y0036777185D01*
X0005967621Y0036794643D01*
X0006024332Y0036810750D01*
X0006081602Y0036825485D01*
X0006139410Y0036838831D01*
X0006197739Y0036850769D01*
X0006256568Y0036861280D01*
X0006269795Y0036863302D01*
X0006619469Y0036858059D01*
X0006558896Y0036856523D01*
G37*
G36*
X0045532223Y0036893335D02*
G01*
X0045593771Y0036891779D01*
X0045599205Y0036891504D01*
X0006649896Y0036858188D01*
X0006619469Y0036858059D01*
X0006269795Y0036863302D01*
X0006315879Y0036870346D01*
X0006375652Y0036877947D01*
X0006435869Y0036884065D01*
X0006496509Y0036888682D01*
X0006557555Y0036891778D01*
X0006618949Y0036893335D01*
X0006649818Y0036893466D01*
X0045501273Y0036893466D01*
G37*
%LPD*%
G36*
X0038447040Y0021243996D02*
G01*
X0038477281Y0021240925D01*
X0038506562Y0021234933D01*
X0038534730Y0021226172D01*
X0038561636Y0021214791D01*
X0038587129Y0021200943D01*
X0038611058Y0021184777D01*
X0038633273Y0021166444D01*
X0038653622Y0021146095D01*
X0038671955Y0021123880D01*
X0038688121Y0021099951D01*
X0038701969Y0021074458D01*
X0038713350Y0021047552D01*
X0038722111Y0021019383D01*
X0038728103Y0020990103D01*
X0038731174Y0020959862D01*
X0038731436Y0020944397D01*
X0038731174Y0020928933D01*
X0038728103Y0020898691D01*
X0038722111Y0020869411D01*
X0038713350Y0020841242D01*
X0038701969Y0020814336D01*
X0038688121Y0020788843D01*
X0038671955Y0020764914D01*
X0038653622Y0020742700D01*
X0038633273Y0020722351D01*
X0038611058Y0020704018D01*
X0038587129Y0020687852D01*
X0038561636Y0020674003D01*
X0038534730Y0020662623D01*
X0038506562Y0020653861D01*
X0038477281Y0020647870D01*
X0038447040Y0020644799D01*
X0038431575Y0020644536D01*
X0038416111Y0020644799D01*
X0038385869Y0020647870D01*
X0038356589Y0020653861D01*
X0038328420Y0020662623D01*
X0038301514Y0020674003D01*
X0038276021Y0020687852D01*
X0038252092Y0020704018D01*
X0038229878Y0020722351D01*
X0038209529Y0020742700D01*
X0038191196Y0020764914D01*
X0038175030Y0020788843D01*
X0038161181Y0020814336D01*
X0038149801Y0020841242D01*
X0038141039Y0020869411D01*
X0038135048Y0020898691D01*
X0038131977Y0020928933D01*
X0038131714Y0020944397D01*
X0038131977Y0020959862D01*
X0038135048Y0020990103D01*
X0038141039Y0021019383D01*
X0038149801Y0021047552D01*
X0038161181Y0021074458D01*
X0038175030Y0021099951D01*
X0038191196Y0021123880D01*
X0038209529Y0021146095D01*
X0038229878Y0021166444D01*
X0038252092Y0021184777D01*
X0038276021Y0021200943D01*
X0038301514Y0021214791D01*
X0038328420Y0021226172D01*
X0038356589Y0021234933D01*
X0038385869Y0021240925D01*
X0038416111Y0021243996D01*
X0038431575Y0021244258D01*
G37*
%LPD*%
G36*
X0038447040Y0020538441D02*
G01*
X0038477281Y0020535370D01*
X0038506562Y0020529378D01*
X0038534730Y0020520617D01*
X0038561636Y0020509236D01*
X0038587129Y0020495388D01*
X0038611058Y0020479222D01*
X0038633273Y0020460889D01*
X0038653622Y0020440540D01*
X0038671955Y0020418325D01*
X0038688121Y0020394396D01*
X0038701969Y0020368903D01*
X0038713350Y0020341997D01*
X0038722111Y0020313828D01*
X0038728103Y0020284548D01*
X0038731174Y0020254307D01*
X0038731436Y0020238842D01*
X0038731174Y0020223378D01*
X0038728103Y0020193136D01*
X0038722111Y0020163856D01*
X0038713350Y0020135687D01*
X0038701969Y0020108781D01*
X0038688121Y0020083288D01*
X0038671955Y0020059359D01*
X0038653622Y0020037145D01*
X0038633273Y0020016796D01*
X0038611058Y0019998463D01*
X0038587129Y0019982297D01*
X0038561636Y0019968448D01*
X0038534730Y0019957068D01*
X0038506562Y0019948306D01*
X0038477281Y0019942315D01*
X0038447040Y0019939244D01*
X0038431575Y0019938981D01*
X0038416111Y0019939244D01*
X0038385869Y0019942315D01*
X0038356589Y0019948306D01*
X0038328420Y0019957068D01*
X0038301514Y0019968448D01*
X0038276021Y0019982297D01*
X0038252092Y0019998463D01*
X0038229878Y0020016796D01*
X0038209529Y0020037145D01*
X0038191196Y0020059359D01*
X0038175030Y0020083288D01*
X0038161181Y0020108781D01*
X0038149801Y0020135687D01*
X0038141039Y0020163856D01*
X0038135048Y0020193136D01*
X0038131977Y0020223378D01*
X0038131714Y0020238842D01*
X0038131977Y0020254307D01*
X0038135048Y0020284548D01*
X0038141039Y0020313828D01*
X0038149801Y0020341997D01*
X0038161181Y0020368903D01*
X0038175030Y0020394396D01*
X0038191196Y0020418325D01*
X0038209529Y0020440540D01*
X0038229878Y0020460889D01*
X0038252092Y0020479222D01*
X0038276021Y0020495388D01*
X0038301514Y0020509236D01*
X0038328420Y0020520617D01*
X0038356589Y0020529378D01*
X0038385869Y0020535370D01*
X0038416111Y0020538441D01*
X0038431575Y0020538703D01*
G37*
%LPD*%
%LPD*%
G36*
X0041764185Y0025310645D02*
G01*
X0041639459Y0025185919D01*
X0036878101Y0029947278D01*
X0032925953Y0029947278D01*
X0028226958Y0025251810D01*
X0019145232Y0025251810D01*
X0019145232Y0025428199D01*
X0028153934Y0025428199D01*
X0032852930Y0030123666D01*
X0036951164Y0030123666D01*
G37*
%LPD*%
%LPD*%
G36*
X0040431823Y0026096201D02*
G01*
X0040431823Y0024103009D01*
X0041764185Y0022770647D01*
X0041639459Y0022645922D01*
X0040255435Y0024029946D01*
X0040255435Y0026023139D01*
X0037975239Y0028303335D01*
X0032911862Y0028303335D01*
X0028763199Y0024154672D01*
X0019145232Y0024154672D01*
X0019145232Y0024331061D01*
X0028690136Y0024331061D01*
X0032838799Y0028479723D01*
X0038048301Y0028479723D01*
G37*
%LPD*%
%LPD*%
G36*
X0041764219Y0020230616D02*
G01*
X0041639426Y0020105958D01*
X0038405599Y0023343284D01*
X0032813018Y0023343284D01*
X0031423075Y0021956868D01*
X0019018232Y0021956868D01*
X0019018232Y0022133257D01*
X0031350144Y0022133257D01*
X0032740087Y0023519673D01*
X0038478718Y0023519673D01*
G37*
%LPD*%
%LPD*%
G36*
X0031119752Y0016061957D02*
G01*
X0040010765Y0016061957D01*
X0041639459Y0017690652D01*
X0041764185Y0017565926D01*
X0040083827Y0015885569D01*
X0031046690Y0015885569D01*
X0027180249Y0019752009D01*
X0018891232Y0019752009D01*
X0018891232Y0019928398D01*
X0027253311Y0019928398D01*
G37*
%LPD*%
%LPD*%
G36*
X0031902918Y0013525487D02*
G01*
X0037985791Y0013525487D01*
X0040931483Y0016474707D01*
X0042911668Y0016474707D01*
X0044180771Y0017691939D01*
X0044302868Y0017564639D01*
X0042982585Y0016298318D01*
X0041004607Y0016298318D01*
X0038058916Y0013349099D01*
X0031829856Y0013349099D01*
X0026520555Y0018658399D01*
X0019229899Y0018658399D01*
X0019229899Y0018834788D01*
X0026593618Y0018834788D01*
G37*
%LPD*%
%LPD*%
G36*
X0032714293Y0011013712D02*
G01*
X0037724767Y0011013712D01*
X0040606959Y0013895904D01*
X0042924706Y0013895904D01*
X0044182985Y0015154182D01*
X0044307710Y0015029456D01*
X0042997769Y0013719515D01*
X0040680021Y0013719515D01*
X0037797829Y0010837323D01*
X0032641257Y0010837323D01*
X0025924375Y0017550678D01*
X0018922982Y0017550678D01*
X0018922982Y0017727067D01*
X0025997410Y0017727067D01*
G37*
%LPD*%
%LPD*%
G36*
X0038696158Y0021053991D02*
G01*
X0038696158Y0020238842D01*
X0038166992Y0020238842D01*
X0038166992Y0020679814D01*
X0019406287Y0020679814D01*
X0019406287Y0021208980D01*
X0038541169Y0021208980D01*
G37*
%LPD*%
G36*
X0035411690Y0034120277D02*
G01*
X0035431368Y0034116204D01*
X0035449228Y0034108515D01*
X0035464937Y0034097663D01*
X0035478167Y0034084103D01*
X0035488585Y0034068290D01*
X0035495861Y0034050679D01*
X0035499664Y0034031724D01*
X0035499995Y0034021857D01*
X0035499995Y0032829469D01*
X0035499636Y0032818996D01*
X0035495564Y0032799318D01*
X0035487875Y0032781459D01*
X0035477023Y0032765749D01*
X0035463463Y0032752520D01*
X0035447650Y0032742102D01*
X0035430039Y0032734826D01*
X0035411084Y0032731022D01*
X0035401217Y0032730692D01*
X0033376274Y0032730692D01*
X0033365801Y0032731050D01*
X0033346123Y0032735122D01*
X0033328264Y0032742812D01*
X0033312554Y0032753664D01*
X0033299325Y0032767223D01*
X0033288907Y0032783036D01*
X0033281631Y0032800648D01*
X0033277827Y0032819603D01*
X0033277497Y0032829469D01*
X0033277497Y0034021857D01*
X0033277855Y0034032330D01*
X0033281927Y0034052009D01*
X0033289617Y0034069868D01*
X0033300469Y0034085578D01*
X0033314029Y0034098807D01*
X0033329841Y0034109225D01*
X0033347453Y0034116501D01*
X0033366408Y0034120304D01*
X0033376274Y0034120635D01*
X0035401217Y0034120635D01*
G37*
%LPD*%
G36*
X0035411690Y0030768891D02*
G01*
X0035431368Y0030764819D01*
X0035449228Y0030757129D01*
X0035464937Y0030746277D01*
X0035478167Y0030732717D01*
X0035488585Y0030716904D01*
X0035495861Y0030699293D01*
X0035499664Y0030680338D01*
X0035499995Y0030670471D01*
X0035499995Y0029478084D01*
X0035499636Y0029467611D01*
X0035495564Y0029447932D01*
X0035487875Y0029430073D01*
X0035477023Y0029414363D01*
X0035463463Y0029401134D01*
X0035447650Y0029390716D01*
X0035430039Y0029383440D01*
X0035411084Y0029379637D01*
X0035401217Y0029379306D01*
X0033376274Y0029379306D01*
X0033365801Y0029379664D01*
X0033346123Y0029383736D01*
X0033328264Y0029391426D01*
X0033312554Y0029402278D01*
X0033299325Y0029415838D01*
X0033288907Y0029431651D01*
X0033281631Y0029449262D01*
X0033277827Y0029468217D01*
X0033277497Y0029478084D01*
X0033277497Y0030670471D01*
X0033277855Y0030680944D01*
X0033281927Y0030700623D01*
X0033289617Y0030718482D01*
X0033300469Y0030734192D01*
X0033314029Y0030747421D01*
X0033329841Y0030757839D01*
X0033347453Y0030765115D01*
X0033366408Y0030768918D01*
X0033376274Y0030769249D01*
X0035401217Y0030769249D01*
G37*
%LPD*%
G36*
X0035411690Y0029075559D02*
G01*
X0035431368Y0029071487D01*
X0035449228Y0029063797D01*
X0035464937Y0029052945D01*
X0035478167Y0029039386D01*
X0035488585Y0029023573D01*
X0035495861Y0029005961D01*
X0035499664Y0028987006D01*
X0035499995Y0028977140D01*
X0035499995Y0027784752D01*
X0035499636Y0027774279D01*
X0035495564Y0027754600D01*
X0035487875Y0027736741D01*
X0035477023Y0027721031D01*
X0035463463Y0027707802D01*
X0035447650Y0027697384D01*
X0035430039Y0027690108D01*
X0035411084Y0027686305D01*
X0035401217Y0027685974D01*
X0033376274Y0027685974D01*
X0033365801Y0027686332D01*
X0033346123Y0027690405D01*
X0033328264Y0027698094D01*
X0033312554Y0027708946D01*
X0033299325Y0027722506D01*
X0033288907Y0027738319D01*
X0033281631Y0027755930D01*
X0033277827Y0027774885D01*
X0033277497Y0027784752D01*
X0033277497Y0028977140D01*
X0033277855Y0028987613D01*
X0033281927Y0029007291D01*
X0033289617Y0029025150D01*
X0033300469Y0029040860D01*
X0033314029Y0029054089D01*
X0033329841Y0029064507D01*
X0033347453Y0029071783D01*
X0033366408Y0029075587D01*
X0033376274Y0029075917D01*
X0035401217Y0029075917D01*
G37*
%LPD*%
G36*
X0035411690Y0026637867D02*
G01*
X0035431368Y0026633795D01*
X0035449228Y0026626105D01*
X0035464937Y0026615253D01*
X0035478167Y0026601693D01*
X0035488585Y0026585880D01*
X0035495861Y0026568269D01*
X0035499664Y0026549314D01*
X0035499995Y0026539447D01*
X0035499995Y0025347060D01*
X0035499636Y0025336587D01*
X0035495564Y0025316908D01*
X0035487875Y0025299049D01*
X0035477023Y0025283339D01*
X0035463463Y0025270110D01*
X0035447650Y0025259692D01*
X0035430039Y0025252416D01*
X0035411084Y0025248613D01*
X0035401217Y0025248282D01*
X0033376274Y0025248282D01*
X0033365801Y0025248640D01*
X0033346123Y0025252712D01*
X0033328264Y0025260402D01*
X0033312554Y0025271254D01*
X0033299325Y0025284814D01*
X0033288907Y0025300627D01*
X0033281631Y0025318238D01*
X0033277827Y0025337193D01*
X0033277497Y0025347060D01*
X0033277497Y0026539447D01*
X0033277855Y0026549921D01*
X0033281927Y0026569599D01*
X0033289617Y0026587458D01*
X0033300469Y0026603168D01*
X0033314029Y0026616397D01*
X0033329841Y0026626815D01*
X0033347453Y0026634091D01*
X0033366408Y0026637894D01*
X0033376274Y0026638225D01*
X0035401217Y0026638225D01*
G37*
%LPD*%
G36*
X0035411690Y0024154314D02*
G01*
X0035431368Y0024150242D01*
X0035449228Y0024142552D01*
X0035464937Y0024131700D01*
X0035478167Y0024118140D01*
X0035488585Y0024102327D01*
X0035495861Y0024084716D01*
X0035499664Y0024065761D01*
X0035499995Y0024055894D01*
X0035499995Y0022863506D01*
X0035499636Y0022853033D01*
X0035495564Y0022833355D01*
X0035487875Y0022815496D01*
X0035477023Y0022799786D01*
X0035463463Y0022786557D01*
X0035447650Y0022776139D01*
X0035430039Y0022768863D01*
X0035411084Y0022765060D01*
X0035401217Y0022764729D01*
X0033376274Y0022764729D01*
X0033365801Y0022765087D01*
X0033346123Y0022769159D01*
X0033328264Y0022776849D01*
X0033312554Y0022787701D01*
X0033299325Y0022801261D01*
X0033288907Y0022817074D01*
X0033281631Y0022834685D01*
X0033277827Y0022853640D01*
X0033277497Y0022863506D01*
X0033277497Y0024055894D01*
X0033277855Y0024066367D01*
X0033281927Y0024086046D01*
X0033289617Y0024103905D01*
X0033300469Y0024119615D01*
X0033314029Y0024132844D01*
X0033329841Y0024143262D01*
X0033347453Y0024150538D01*
X0033366408Y0024154341D01*
X0033376274Y0024154672D01*
X0035401217Y0024154672D01*
G37*
%LPD*%
G36*
X0035411690Y0021639010D02*
G01*
X0035431368Y0021634938D01*
X0035449228Y0021627249D01*
X0035464937Y0021616397D01*
X0035478167Y0021602837D01*
X0035488585Y0021587024D01*
X0035495861Y0021569413D01*
X0035499664Y0021550458D01*
X0035499995Y0021540591D01*
X0035499995Y0020348203D01*
X0035499636Y0020337730D01*
X0035495564Y0020318052D01*
X0035487875Y0020300192D01*
X0035477023Y0020284483D01*
X0035463463Y0020271254D01*
X0035447650Y0020260836D01*
X0035430039Y0020253560D01*
X0035411084Y0020249756D01*
X0035401217Y0020249426D01*
X0033376274Y0020249426D01*
X0033365801Y0020249784D01*
X0033346123Y0020253856D01*
X0033328264Y0020261545D01*
X0033312554Y0020272397D01*
X0033299325Y0020285957D01*
X0033288907Y0020301770D01*
X0033281631Y0020319382D01*
X0033277827Y0020338336D01*
X0033277497Y0020348203D01*
X0033277497Y0021540591D01*
X0033277855Y0021551064D01*
X0033281927Y0021570742D01*
X0033289617Y0021588602D01*
X0033300469Y0021604311D01*
X0033314029Y0021617541D01*
X0033329841Y0021627959D01*
X0033347453Y0021635235D01*
X0033366408Y0021639038D01*
X0033376274Y0021639369D01*
X0035401217Y0021639369D01*
G37*
%LPD*%
G36*
X0035411690Y0019991540D02*
G01*
X0035431368Y0019987468D01*
X0035449228Y0019979778D01*
X0035464937Y0019968926D01*
X0035478167Y0019955366D01*
X0035488585Y0019939553D01*
X0035495861Y0019921942D01*
X0035499664Y0019902987D01*
X0035499995Y0019893120D01*
X0035499995Y0018700733D01*
X0035499636Y0018690259D01*
X0035495564Y0018670581D01*
X0035487875Y0018652722D01*
X0035477023Y0018637012D01*
X0035463463Y0018623783D01*
X0035447650Y0018613365D01*
X0035430039Y0018606089D01*
X0035411084Y0018602286D01*
X0035401217Y0018601955D01*
X0033376274Y0018601955D01*
X0033365801Y0018602313D01*
X0033346123Y0018606385D01*
X0033328264Y0018614075D01*
X0033312554Y0018624927D01*
X0033299325Y0018638487D01*
X0033288907Y0018654300D01*
X0033281631Y0018671911D01*
X0033277827Y0018690866D01*
X0033277497Y0018700733D01*
X0033277497Y0019893120D01*
X0033277855Y0019903593D01*
X0033281927Y0019923272D01*
X0033289617Y0019941131D01*
X0033300469Y0019956841D01*
X0033314029Y0019970070D01*
X0033329841Y0019980488D01*
X0033347453Y0019987764D01*
X0033366408Y0019991567D01*
X0033376274Y0019991898D01*
X0035401217Y0019991898D01*
G37*
%LPD*%
G36*
X0035411690Y0018333486D02*
G01*
X0035431368Y0018329414D01*
X0035449228Y0018321724D01*
X0035464937Y0018310872D01*
X0035478167Y0018297312D01*
X0035488585Y0018281499D01*
X0035495861Y0018263888D01*
X0035499664Y0018244933D01*
X0035499995Y0018235066D01*
X0035499995Y0017042679D01*
X0035499636Y0017032205D01*
X0035495564Y0017012527D01*
X0035487875Y0016994668D01*
X0035477023Y0016978958D01*
X0035463463Y0016965729D01*
X0035447650Y0016955311D01*
X0035430039Y0016948035D01*
X0035411084Y0016944232D01*
X0035401217Y0016943901D01*
X0033376274Y0016943901D01*
X0033365801Y0016944259D01*
X0033346123Y0016948331D01*
X0033328264Y0016956021D01*
X0033312554Y0016966873D01*
X0033299325Y0016980433D01*
X0033288907Y0016996246D01*
X0033281631Y0017013857D01*
X0033277827Y0017032812D01*
X0033277497Y0017042679D01*
X0033277497Y0018235066D01*
X0033277855Y0018245539D01*
X0033281927Y0018265218D01*
X0033289617Y0018283077D01*
X0033300469Y0018298787D01*
X0033314029Y0018312016D01*
X0033329841Y0018322434D01*
X0033347453Y0018329710D01*
X0033366408Y0018333513D01*
X0033376274Y0018333844D01*
X0035401217Y0018333844D01*
G37*
%LPD*%
G36*
X0035411690Y0016657793D02*
G01*
X0035431368Y0016653721D01*
X0035449228Y0016646031D01*
X0035464937Y0016635179D01*
X0035478167Y0016621619D01*
X0035488585Y0016605806D01*
X0035495861Y0016588195D01*
X0035499664Y0016569240D01*
X0035499995Y0016559373D01*
X0035499995Y0015366986D01*
X0035499636Y0015356513D01*
X0035495564Y0015336834D01*
X0035487875Y0015318975D01*
X0035477023Y0015303265D01*
X0035463463Y0015290036D01*
X0035447650Y0015279618D01*
X0035430039Y0015272342D01*
X0035411084Y0015268539D01*
X0035401217Y0015268208D01*
X0033376274Y0015268208D01*
X0033365801Y0015268566D01*
X0033346123Y0015272638D01*
X0033328264Y0015280328D01*
X0033312554Y0015291180D01*
X0033299325Y0015304740D01*
X0033288907Y0015320553D01*
X0033281631Y0015338164D01*
X0033277827Y0015357119D01*
X0033277497Y0015366986D01*
X0033277497Y0016559373D01*
X0033277855Y0016569847D01*
X0033281927Y0016589525D01*
X0033289617Y0016607384D01*
X0033300469Y0016623094D01*
X0033314029Y0016636323D01*
X0033329841Y0016646741D01*
X0033347453Y0016654017D01*
X0033366408Y0016657820D01*
X0033376274Y0016658151D01*
X0035401217Y0016658151D01*
G37*
%LPD*%
G36*
X0035411690Y0014142490D02*
G01*
X0035431368Y0014138418D01*
X0035449228Y0014130728D01*
X0035464937Y0014119876D01*
X0035478167Y0014106316D01*
X0035488585Y0014090503D01*
X0035495861Y0014072892D01*
X0035499664Y0014053937D01*
X0035499995Y0014044070D01*
X0035499995Y0012851682D01*
X0035499636Y0012841209D01*
X0035495564Y0012821531D01*
X0035487875Y0012803672D01*
X0035477023Y0012787962D01*
X0035463463Y0012774733D01*
X0035447650Y0012764315D01*
X0035430039Y0012757039D01*
X0035411084Y0012753236D01*
X0035401217Y0012752905D01*
X0033376274Y0012752905D01*
X0033365801Y0012753263D01*
X0033346123Y0012757335D01*
X0033328264Y0012765025D01*
X0033312554Y0012775877D01*
X0033299325Y0012789437D01*
X0033288907Y0012805250D01*
X0033281631Y0012822861D01*
X0033277827Y0012841816D01*
X0033277497Y0012851682D01*
X0033277497Y0014044070D01*
X0033277855Y0014054543D01*
X0033281927Y0014074222D01*
X0033289617Y0014092081D01*
X0033300469Y0014107791D01*
X0033314029Y0014121020D01*
X0033329841Y0014131438D01*
X0033347453Y0014138714D01*
X0033366408Y0014142517D01*
X0033376274Y0014142848D01*
X0035401217Y0014142848D01*
G37*
%LPD*%
G36*
X0035411690Y0011644825D02*
G01*
X0035431368Y0011640753D01*
X0035449228Y0011633064D01*
X0035464937Y0011622212D01*
X0035478167Y0011608652D01*
X0035488585Y0011592839D01*
X0035495861Y0011575228D01*
X0035499664Y0011556273D01*
X0035499995Y0011546406D01*
X0035499995Y0010354018D01*
X0035499636Y0010343545D01*
X0035495564Y0010323867D01*
X0035487875Y0010306007D01*
X0035477023Y0010290298D01*
X0035463463Y0010277069D01*
X0035447650Y0010266651D01*
X0035430039Y0010259375D01*
X0035411084Y0010255571D01*
X0035401217Y0010255240D01*
X0033376274Y0010255240D01*
X0033365801Y0010255599D01*
X0033346123Y0010259671D01*
X0033328264Y0010267360D01*
X0033312554Y0010278212D01*
X0033299325Y0010291772D01*
X0033288907Y0010307585D01*
X0033281631Y0010325196D01*
X0033277827Y0010344151D01*
X0033277497Y0010354018D01*
X0033277497Y0011546406D01*
X0033277855Y0011556879D01*
X0033281927Y0011576557D01*
X0033289617Y0011594417D01*
X0033300469Y0011610126D01*
X0033314029Y0011623355D01*
X0033329841Y0011633773D01*
X0033347453Y0011641049D01*
X0033366408Y0011644853D01*
X0033376274Y0011645184D01*
X0035401217Y0011645184D01*
G37*
%LPD*%
G36*
X0044267730Y0016093325D02*
G01*
X0044319003Y0016090421D01*
X0044369562Y0016085007D01*
X0044419344Y0016077144D01*
X0044468287Y0016066897D01*
X0044516328Y0016054327D01*
X0044563404Y0016039497D01*
X0044609452Y0016022470D01*
X0044654411Y0016003308D01*
X0044698216Y0015982075D01*
X0044740807Y0015958832D01*
X0044782119Y0015933643D01*
X0044822091Y0015906570D01*
X0044860659Y0015877675D01*
X0044897761Y0015847022D01*
X0044933335Y0015814673D01*
X0044967318Y0015780690D01*
X0044999646Y0015745137D01*
X0045030258Y0015708076D01*
X0045059090Y0015669570D01*
X0045086081Y0015629681D01*
X0045111167Y0015588472D01*
X0045134286Y0015546006D01*
X0045155374Y0015502345D01*
X0045174371Y0015457552D01*
X0045191212Y0015411689D01*
X0045205835Y0015364820D01*
X0045218177Y0015317007D01*
X0045228177Y0015268312D01*
X0045235770Y0015218799D01*
X0045240895Y0015168529D01*
X0045243489Y0015117566D01*
X0045243708Y0015091819D01*
X0045243489Y0015066072D01*
X0045240895Y0015015110D01*
X0045235770Y0014964842D01*
X0045228177Y0014915331D01*
X0045218177Y0014866642D01*
X0045205835Y0014818836D01*
X0045191212Y0014771979D01*
X0045174371Y0014726132D01*
X0045155374Y0014681360D01*
X0045134286Y0014637725D01*
X0045111167Y0014595291D01*
X0045086081Y0014554121D01*
X0045059090Y0014514278D01*
X0045030258Y0014475827D01*
X0044999646Y0014438829D01*
X0044967318Y0014403349D01*
X0044933335Y0014369449D01*
X0044897761Y0014337193D01*
X0044860659Y0014306645D01*
X0044822091Y0014277867D01*
X0044782119Y0014250923D01*
X0044740807Y0014225876D01*
X0044698216Y0014202789D01*
X0044654411Y0014181727D01*
X0044609452Y0014162751D01*
X0044563404Y0014145926D01*
X0044516328Y0014131314D01*
X0044468287Y0014118980D01*
X0044419344Y0014108986D01*
X0044369562Y0014101395D01*
X0044319003Y0014096271D01*
X0044267730Y0014093678D01*
X0044241820Y0014093459D01*
X0044216073Y0014093678D01*
X0044165110Y0014096271D01*
X0044114842Y0014101395D01*
X0044065332Y0014108986D01*
X0044016642Y0014118980D01*
X0043968837Y0014131314D01*
X0043921979Y0014145926D01*
X0043876133Y0014162751D01*
X0043831360Y0014181727D01*
X0043787725Y0014202789D01*
X0043745291Y0014225876D01*
X0043704121Y0014250923D01*
X0043664279Y0014277867D01*
X0043625827Y0014306645D01*
X0043588830Y0014337193D01*
X0043553349Y0014369449D01*
X0043519449Y0014403349D01*
X0043487194Y0014438829D01*
X0043456645Y0014475827D01*
X0043427867Y0014514278D01*
X0043400923Y0014554121D01*
X0043375876Y0014595291D01*
X0043352790Y0014637725D01*
X0043331727Y0014681360D01*
X0043312752Y0014726132D01*
X0043295927Y0014771979D01*
X0043281315Y0014818836D01*
X0043268980Y0014866642D01*
X0043258986Y0014915331D01*
X0043251396Y0014964842D01*
X0043246272Y0015015110D01*
X0043243678Y0015066072D01*
X0043243460Y0015091819D01*
X0043243678Y0015117730D01*
X0043246272Y0015169003D01*
X0043251396Y0015219562D01*
X0043258986Y0015269344D01*
X0043268980Y0015318287D01*
X0043281315Y0015366327D01*
X0043295927Y0015413403D01*
X0043312752Y0015459452D01*
X0043331727Y0015504410D01*
X0043352790Y0015548216D01*
X0043375876Y0015590806D01*
X0043400923Y0015632118D01*
X0043427867Y0015672090D01*
X0043456645Y0015710658D01*
X0043487194Y0015747761D01*
X0043519449Y0015783335D01*
X0043553349Y0015817317D01*
X0043588830Y0015849645D01*
X0043625827Y0015880257D01*
X0043664279Y0015909090D01*
X0043704121Y0015936080D01*
X0043745291Y0015961166D01*
X0043787725Y0015984285D01*
X0043831360Y0016005374D01*
X0043876133Y0016024370D01*
X0043921979Y0016041211D01*
X0043968837Y0016055834D01*
X0044016642Y0016068177D01*
X0044065332Y0016078176D01*
X0044114842Y0016085770D01*
X0044165110Y0016090895D01*
X0044216073Y0016093488D01*
X0044241820Y0016093707D01*
G37*
%LPD*%
G36*
X0041727733Y0016089961D02*
G01*
X0041779006Y0016087367D01*
X0041829565Y0016082242D01*
X0041879347Y0016074648D01*
X0041928289Y0016064649D01*
X0041976330Y0016052306D01*
X0042023406Y0016037683D01*
X0042069454Y0016020842D01*
X0042114413Y0016001846D01*
X0042158219Y0015980757D01*
X0042200809Y0015957638D01*
X0042242121Y0015932552D01*
X0042282093Y0015905562D01*
X0042320661Y0015876729D01*
X0042357764Y0015846118D01*
X0042393337Y0015813789D01*
X0042427320Y0015779807D01*
X0042459648Y0015744233D01*
X0042490260Y0015707131D01*
X0042519093Y0015668562D01*
X0042546083Y0015628591D01*
X0042571169Y0015587278D01*
X0042594288Y0015544688D01*
X0042615377Y0015500882D01*
X0042634373Y0015455924D01*
X0042651214Y0015409875D01*
X0042665837Y0015362799D01*
X0042678180Y0015314759D01*
X0042688179Y0015265816D01*
X0042695773Y0015216034D01*
X0042700898Y0015165475D01*
X0042703491Y0015114202D01*
X0042703710Y0015088291D01*
X0042703491Y0015062545D01*
X0042700898Y0015011582D01*
X0042695773Y0014961314D01*
X0042688179Y0014911803D01*
X0042678180Y0014863114D01*
X0042665837Y0014815309D01*
X0042651214Y0014768451D01*
X0042634373Y0014722604D01*
X0042615377Y0014677832D01*
X0042594288Y0014634197D01*
X0042571169Y0014591763D01*
X0042546083Y0014550593D01*
X0042519093Y0014510751D01*
X0042490260Y0014472299D01*
X0042459648Y0014435301D01*
X0042427320Y0014399821D01*
X0042393337Y0014365921D01*
X0042357764Y0014333665D01*
X0042320661Y0014303117D01*
X0042282093Y0014274339D01*
X0042242121Y0014247395D01*
X0042200809Y0014222348D01*
X0042158219Y0014199262D01*
X0042114413Y0014178199D01*
X0042069454Y0014159223D01*
X0042023406Y0014142398D01*
X0041976330Y0014127787D01*
X0041928289Y0014115452D01*
X0041879347Y0014105458D01*
X0041829565Y0014097867D01*
X0041779006Y0014092744D01*
X0041727733Y0014090150D01*
X0041701822Y0014089931D01*
X0041676075Y0014090150D01*
X0041625113Y0014092744D01*
X0041574845Y0014097867D01*
X0041525334Y0014105458D01*
X0041476645Y0014115452D01*
X0041428839Y0014127787D01*
X0041381982Y0014142398D01*
X0041336135Y0014159223D01*
X0041291363Y0014178199D01*
X0041247728Y0014199262D01*
X0041205294Y0014222348D01*
X0041164124Y0014247395D01*
X0041124281Y0014274339D01*
X0041085830Y0014303117D01*
X0041048832Y0014333665D01*
X0041013352Y0014365921D01*
X0040979452Y0014399821D01*
X0040947196Y0014435301D01*
X0040916648Y0014472299D01*
X0040887870Y0014510751D01*
X0040860926Y0014550593D01*
X0040835879Y0014591763D01*
X0040812792Y0014634197D01*
X0040791730Y0014677832D01*
X0040772754Y0014722604D01*
X0040755929Y0014768451D01*
X0040741317Y0014815309D01*
X0040728983Y0014863114D01*
X0040718989Y0014911803D01*
X0040711398Y0014961314D01*
X0040706274Y0015011582D01*
X0040703681Y0015062545D01*
X0040703462Y0015088291D01*
X0040703681Y0015114202D01*
X0040706274Y0015165475D01*
X0040711398Y0015216034D01*
X0040718989Y0015265816D01*
X0040728983Y0015314759D01*
X0040741317Y0015362799D01*
X0040755929Y0015409875D01*
X0040772754Y0015455924D01*
X0040791730Y0015500882D01*
X0040812792Y0015544688D01*
X0040835879Y0015587278D01*
X0040860926Y0015628591D01*
X0040887870Y0015668562D01*
X0040916648Y0015707131D01*
X0040947196Y0015744233D01*
X0040979452Y0015779807D01*
X0041013352Y0015813789D01*
X0041048832Y0015846118D01*
X0041085830Y0015876729D01*
X0041124281Y0015905562D01*
X0041164124Y0015932552D01*
X0041205294Y0015957638D01*
X0041247728Y0015980757D01*
X0041291363Y0016001846D01*
X0041336135Y0016020842D01*
X0041381982Y0016037683D01*
X0041428839Y0016052306D01*
X0041476645Y0016064649D01*
X0041525334Y0016074648D01*
X0041574845Y0016082242D01*
X0041625113Y0016087367D01*
X0041676075Y0016089961D01*
X0041701822Y0016090179D01*
G37*
%LPD*%
G36*
X0044267730Y0018626594D02*
G01*
X0044319003Y0018624311D01*
X0044369562Y0018619476D01*
X0044419344Y0018612155D01*
X0044468287Y0018602408D01*
X0044516328Y0018590301D01*
X0044563404Y0018575896D01*
X0044609452Y0018559257D01*
X0044654411Y0018540447D01*
X0044698216Y0018519529D01*
X0044740807Y0018496567D01*
X0044782119Y0018471623D01*
X0044822091Y0018444762D01*
X0044860659Y0018416046D01*
X0044897761Y0018385539D01*
X0044933335Y0018353304D01*
X0044967318Y0018319404D01*
X0044999646Y0018283903D01*
X0045030258Y0018246864D01*
X0045059090Y0018208350D01*
X0045086081Y0018168425D01*
X0045111167Y0018127152D01*
X0045134286Y0018084594D01*
X0045155374Y0018040814D01*
X0045174371Y0017995876D01*
X0045191212Y0017949843D01*
X0045205835Y0017902779D01*
X0045218177Y0017854747D01*
X0045228177Y0017805809D01*
X0045235770Y0017756030D01*
X0045240895Y0017705472D01*
X0045243489Y0017654200D01*
X0045243708Y0017628289D01*
X0045243489Y0017602379D01*
X0045240895Y0017551106D01*
X0045235770Y0017500547D01*
X0045228177Y0017450765D01*
X0045218177Y0017401822D01*
X0045205835Y0017353781D01*
X0045191212Y0017306705D01*
X0045174371Y0017260657D01*
X0045155374Y0017215698D01*
X0045134286Y0017171893D01*
X0045111167Y0017129302D01*
X0045086081Y0017087990D01*
X0045059090Y0017048018D01*
X0045030258Y0017009450D01*
X0044999646Y0016972348D01*
X0044967318Y0016936774D01*
X0044933335Y0016902791D01*
X0044897761Y0016870463D01*
X0044860659Y0016839851D01*
X0044822091Y0016811019D01*
X0044782119Y0016784028D01*
X0044740807Y0016758942D01*
X0044698216Y0016735823D01*
X0044654411Y0016714735D01*
X0044609452Y0016695738D01*
X0044563404Y0016678897D01*
X0044516328Y0016664274D01*
X0044468287Y0016651932D01*
X0044419344Y0016641932D01*
X0044369562Y0016634339D01*
X0044319003Y0016629214D01*
X0044267730Y0016626620D01*
X0044241820Y0016626401D01*
X0044216073Y0016626620D01*
X0044165110Y0016629214D01*
X0044114842Y0016634339D01*
X0044065332Y0016641932D01*
X0044016642Y0016651932D01*
X0043968837Y0016664274D01*
X0043921979Y0016678897D01*
X0043876133Y0016695738D01*
X0043831360Y0016714735D01*
X0043787725Y0016735823D01*
X0043745291Y0016758942D01*
X0043704121Y0016784028D01*
X0043664279Y0016811019D01*
X0043625827Y0016839851D01*
X0043588830Y0016870463D01*
X0043553349Y0016902791D01*
X0043519449Y0016936774D01*
X0043487194Y0016972348D01*
X0043456645Y0017009450D01*
X0043427867Y0017048018D01*
X0043400923Y0017087990D01*
X0043375876Y0017129302D01*
X0043352790Y0017171893D01*
X0043331727Y0017215698D01*
X0043312752Y0017260657D01*
X0043295927Y0017306705D01*
X0043281315Y0017353781D01*
X0043268980Y0017401822D01*
X0043258986Y0017450765D01*
X0043251396Y0017500547D01*
X0043246272Y0017551106D01*
X0043243678Y0017602379D01*
X0043243460Y0017628289D01*
X0043243678Y0017654036D01*
X0043246272Y0017704999D01*
X0043251396Y0017755267D01*
X0043258986Y0017804777D01*
X0043268980Y0017853467D01*
X0043281315Y0017901272D01*
X0043295927Y0017948130D01*
X0043312752Y0017993976D01*
X0043331727Y0018038749D01*
X0043352790Y0018082384D01*
X0043375876Y0018124818D01*
X0043400923Y0018165987D01*
X0043427867Y0018205830D01*
X0043456645Y0018244282D01*
X0043487194Y0018281279D01*
X0043519449Y0018316760D01*
X0043553349Y0018350660D01*
X0043588830Y0018382915D01*
X0043625827Y0018413464D01*
X0043664279Y0018442242D01*
X0043704121Y0018469186D01*
X0043745291Y0018494233D01*
X0043787725Y0018517319D01*
X0043831360Y0018538382D01*
X0043876133Y0018557357D01*
X0043921979Y0018574182D01*
X0043968837Y0018588794D01*
X0044016642Y0018601128D01*
X0044065332Y0018611123D01*
X0044114842Y0018618713D01*
X0044165110Y0018623837D01*
X0044216073Y0018626431D01*
X0044241820Y0018626649D01*
G37*
%LPD*%
G36*
X0044267730Y0021169956D02*
G01*
X0044319003Y0021167362D01*
X0044369562Y0021162237D01*
X0044419344Y0021154644D01*
X0044468287Y0021144644D01*
X0044516328Y0021132302D01*
X0044563404Y0021117678D01*
X0044609452Y0021100837D01*
X0044654411Y0021081841D01*
X0044698216Y0021060752D01*
X0044740807Y0021037634D01*
X0044782119Y0021012548D01*
X0044822091Y0020985557D01*
X0044860659Y0020956725D01*
X0044897761Y0020926113D01*
X0044933335Y0020893784D01*
X0044967318Y0020859802D01*
X0044999646Y0020824228D01*
X0045030258Y0020787126D01*
X0045059090Y0020748558D01*
X0045086081Y0020708586D01*
X0045111167Y0020667274D01*
X0045134286Y0020624683D01*
X0045155374Y0020580877D01*
X0045174371Y0020535919D01*
X0045191212Y0020489870D01*
X0045205835Y0020442795D01*
X0045218177Y0020394754D01*
X0045228177Y0020345811D01*
X0045235770Y0020296029D01*
X0045240895Y0020245470D01*
X0045243489Y0020194197D01*
X0045243708Y0020168287D01*
X0045243489Y0020142540D01*
X0045240895Y0020091577D01*
X0045235770Y0020041309D01*
X0045228177Y0019991799D01*
X0045218177Y0019943109D01*
X0045205835Y0019895304D01*
X0045191212Y0019848446D01*
X0045174371Y0019802600D01*
X0045155374Y0019757827D01*
X0045134286Y0019714192D01*
X0045111167Y0019671758D01*
X0045086081Y0019630588D01*
X0045059090Y0019590746D01*
X0045030258Y0019552294D01*
X0044999646Y0019515296D01*
X0044967318Y0019479816D01*
X0044933335Y0019445916D01*
X0044897761Y0019413661D01*
X0044860659Y0019383112D01*
X0044822091Y0019354334D01*
X0044782119Y0019327390D01*
X0044740807Y0019302343D01*
X0044698216Y0019279257D01*
X0044654411Y0019258194D01*
X0044609452Y0019239219D01*
X0044563404Y0019222393D01*
X0044516328Y0019207782D01*
X0044468287Y0019195447D01*
X0044419344Y0019185453D01*
X0044369562Y0019177863D01*
X0044319003Y0019172739D01*
X0044267730Y0019170145D01*
X0044241820Y0019169927D01*
X0044216073Y0019170145D01*
X0044165110Y0019172739D01*
X0044114842Y0019177863D01*
X0044065332Y0019185453D01*
X0044016642Y0019195447D01*
X0043968837Y0019207782D01*
X0043921979Y0019222393D01*
X0043876133Y0019239219D01*
X0043831360Y0019258194D01*
X0043787725Y0019279257D01*
X0043745291Y0019302343D01*
X0043704121Y0019327390D01*
X0043664279Y0019354334D01*
X0043625827Y0019383112D01*
X0043588830Y0019413661D01*
X0043553349Y0019445916D01*
X0043519449Y0019479816D01*
X0043487194Y0019515296D01*
X0043456645Y0019552294D01*
X0043427867Y0019590746D01*
X0043400923Y0019630588D01*
X0043375876Y0019671758D01*
X0043352790Y0019714192D01*
X0043331727Y0019757827D01*
X0043312752Y0019802600D01*
X0043295927Y0019848446D01*
X0043281315Y0019895304D01*
X0043268980Y0019943109D01*
X0043258986Y0019991799D01*
X0043251396Y0020041309D01*
X0043246272Y0020091577D01*
X0043243678Y0020142540D01*
X0043243460Y0020168287D01*
X0043243678Y0020194197D01*
X0043246272Y0020245470D01*
X0043251396Y0020296029D01*
X0043258986Y0020345811D01*
X0043268980Y0020394754D01*
X0043281315Y0020442795D01*
X0043295927Y0020489870D01*
X0043312752Y0020535919D01*
X0043331727Y0020580877D01*
X0043352790Y0020624683D01*
X0043375876Y0020667274D01*
X0043400923Y0020708586D01*
X0043427867Y0020748558D01*
X0043456645Y0020787126D01*
X0043487194Y0020824228D01*
X0043519449Y0020859802D01*
X0043553349Y0020893784D01*
X0043588830Y0020926113D01*
X0043625827Y0020956725D01*
X0043664279Y0020985557D01*
X0043704121Y0021012548D01*
X0043745291Y0021037634D01*
X0043787725Y0021060752D01*
X0043831360Y0021081841D01*
X0043876133Y0021100837D01*
X0043921979Y0021117678D01*
X0043968837Y0021132302D01*
X0044016642Y0021144644D01*
X0044065332Y0021154644D01*
X0044114842Y0021162237D01*
X0044165110Y0021167362D01*
X0044216073Y0021169956D01*
X0044241820Y0021170175D01*
G37*
%LPD*%
G36*
X0041727733Y0018626594D02*
G01*
X0041779006Y0018624311D01*
X0041829565Y0018619476D01*
X0041879347Y0018612155D01*
X0041928289Y0018602408D01*
X0041976330Y0018590301D01*
X0042023406Y0018575896D01*
X0042069454Y0018559257D01*
X0042114413Y0018540447D01*
X0042158219Y0018519529D01*
X0042200809Y0018496567D01*
X0042242121Y0018471623D01*
X0042282093Y0018444762D01*
X0042320661Y0018416046D01*
X0042357764Y0018385539D01*
X0042393337Y0018353304D01*
X0042427320Y0018319404D01*
X0042459648Y0018283903D01*
X0042490260Y0018246864D01*
X0042519093Y0018208350D01*
X0042546083Y0018168425D01*
X0042571169Y0018127152D01*
X0042594288Y0018084594D01*
X0042615377Y0018040814D01*
X0042634373Y0017995876D01*
X0042651214Y0017949843D01*
X0042665837Y0017902779D01*
X0042678180Y0017854747D01*
X0042688179Y0017805809D01*
X0042695773Y0017756030D01*
X0042700898Y0017705472D01*
X0042703491Y0017654200D01*
X0042703710Y0017628289D01*
X0042703491Y0017602379D01*
X0042700898Y0017551106D01*
X0042695773Y0017500547D01*
X0042688179Y0017450765D01*
X0042678180Y0017401822D01*
X0042665837Y0017353781D01*
X0042651214Y0017306705D01*
X0042634373Y0017260657D01*
X0042615377Y0017215698D01*
X0042594288Y0017171893D01*
X0042571169Y0017129302D01*
X0042546083Y0017087990D01*
X0042519093Y0017048018D01*
X0042490260Y0017009450D01*
X0042459648Y0016972348D01*
X0042427320Y0016936774D01*
X0042393337Y0016902791D01*
X0042357764Y0016870463D01*
X0042320661Y0016839851D01*
X0042282093Y0016811019D01*
X0042242121Y0016784028D01*
X0042200809Y0016758942D01*
X0042158219Y0016735823D01*
X0042114413Y0016714735D01*
X0042069454Y0016695738D01*
X0042023406Y0016678897D01*
X0041976330Y0016664274D01*
X0041928289Y0016651932D01*
X0041879347Y0016641932D01*
X0041829565Y0016634339D01*
X0041779006Y0016629214D01*
X0041727733Y0016626620D01*
X0041701822Y0016626401D01*
X0041676075Y0016626620D01*
X0041625113Y0016629214D01*
X0041574845Y0016634339D01*
X0041525334Y0016641932D01*
X0041476645Y0016651932D01*
X0041428839Y0016664274D01*
X0041381982Y0016678897D01*
X0041336135Y0016695738D01*
X0041291363Y0016714735D01*
X0041247728Y0016735823D01*
X0041205294Y0016758942D01*
X0041164124Y0016784028D01*
X0041124281Y0016811019D01*
X0041085830Y0016839851D01*
X0041048832Y0016870463D01*
X0041013352Y0016902791D01*
X0040979452Y0016936774D01*
X0040947196Y0016972348D01*
X0040916648Y0017009450D01*
X0040887870Y0017048018D01*
X0040860926Y0017087990D01*
X0040835879Y0017129302D01*
X0040812792Y0017171893D01*
X0040791730Y0017215698D01*
X0040772754Y0017260657D01*
X0040755929Y0017306705D01*
X0040741317Y0017353781D01*
X0040728983Y0017401822D01*
X0040718989Y0017450765D01*
X0040711398Y0017500547D01*
X0040706274Y0017551106D01*
X0040703681Y0017602379D01*
X0040703462Y0017628289D01*
X0040703681Y0017654036D01*
X0040706274Y0017704999D01*
X0040711398Y0017755267D01*
X0040718989Y0017804777D01*
X0040728983Y0017853467D01*
X0040741317Y0017901272D01*
X0040755929Y0017948130D01*
X0040772754Y0017993976D01*
X0040791730Y0018038749D01*
X0040812792Y0018082384D01*
X0040835879Y0018124818D01*
X0040860926Y0018165987D01*
X0040887870Y0018205830D01*
X0040916648Y0018244282D01*
X0040947196Y0018281279D01*
X0040979452Y0018316760D01*
X0041013352Y0018350660D01*
X0041048832Y0018382915D01*
X0041085830Y0018413464D01*
X0041124281Y0018442242D01*
X0041164124Y0018469186D01*
X0041205294Y0018494233D01*
X0041247728Y0018517319D01*
X0041291363Y0018538382D01*
X0041336135Y0018557357D01*
X0041381982Y0018574182D01*
X0041428839Y0018588794D01*
X0041476645Y0018601128D01*
X0041525334Y0018611123D01*
X0041574845Y0018618713D01*
X0041625113Y0018623837D01*
X0041676075Y0018626431D01*
X0041701822Y0018626649D01*
G37*
%LPD*%
G36*
X0041727733Y0021169956D02*
G01*
X0041779006Y0021167362D01*
X0041829565Y0021162237D01*
X0041879347Y0021154644D01*
X0041928289Y0021144644D01*
X0041976330Y0021132302D01*
X0042023406Y0021117678D01*
X0042069454Y0021100837D01*
X0042114413Y0021081841D01*
X0042158219Y0021060752D01*
X0042200809Y0021037634D01*
X0042242121Y0021012548D01*
X0042282093Y0020985557D01*
X0042320661Y0020956725D01*
X0042357764Y0020926113D01*
X0042393337Y0020893784D01*
X0042427320Y0020859802D01*
X0042459648Y0020824228D01*
X0042490260Y0020787126D01*
X0042519093Y0020748558D01*
X0042546083Y0020708586D01*
X0042571169Y0020667274D01*
X0042594288Y0020624683D01*
X0042615377Y0020580877D01*
X0042634373Y0020535919D01*
X0042651214Y0020489870D01*
X0042665837Y0020442795D01*
X0042678180Y0020394754D01*
X0042688179Y0020345811D01*
X0042695773Y0020296029D01*
X0042700898Y0020245470D01*
X0042703491Y0020194197D01*
X0042703710Y0020168287D01*
X0042703491Y0020142540D01*
X0042700898Y0020091577D01*
X0042695773Y0020041309D01*
X0042688179Y0019991799D01*
X0042678180Y0019943109D01*
X0042665837Y0019895304D01*
X0042651214Y0019848446D01*
X0042634373Y0019802600D01*
X0042615377Y0019757827D01*
X0042594288Y0019714192D01*
X0042571169Y0019671758D01*
X0042546083Y0019630588D01*
X0042519093Y0019590746D01*
X0042490260Y0019552294D01*
X0042459648Y0019515296D01*
X0042427320Y0019479816D01*
X0042393337Y0019445916D01*
X0042357764Y0019413661D01*
X0042320661Y0019383112D01*
X0042282093Y0019354334D01*
X0042242121Y0019327390D01*
X0042200809Y0019302343D01*
X0042158219Y0019279257D01*
X0042114413Y0019258194D01*
X0042069454Y0019239219D01*
X0042023406Y0019222393D01*
X0041976330Y0019207782D01*
X0041928289Y0019195447D01*
X0041879347Y0019185453D01*
X0041829565Y0019177863D01*
X0041779006Y0019172739D01*
X0041727733Y0019170145D01*
X0041701822Y0019169927D01*
X0041676075Y0019170145D01*
X0041625113Y0019172739D01*
X0041574845Y0019177863D01*
X0041525334Y0019185453D01*
X0041476645Y0019195447D01*
X0041428839Y0019207782D01*
X0041381982Y0019222393D01*
X0041336135Y0019239219D01*
X0041291363Y0019258194D01*
X0041247728Y0019279257D01*
X0041205294Y0019302343D01*
X0041164124Y0019327390D01*
X0041124281Y0019354334D01*
X0041085830Y0019383112D01*
X0041048832Y0019413661D01*
X0041013352Y0019445916D01*
X0040979452Y0019479816D01*
X0040947196Y0019515296D01*
X0040916648Y0019552294D01*
X0040887870Y0019590746D01*
X0040860926Y0019630588D01*
X0040835879Y0019671758D01*
X0040812792Y0019714192D01*
X0040791730Y0019757827D01*
X0040772754Y0019802600D01*
X0040755929Y0019848446D01*
X0040741317Y0019895304D01*
X0040728983Y0019943109D01*
X0040718989Y0019991799D01*
X0040711398Y0020041309D01*
X0040706274Y0020091577D01*
X0040703681Y0020142540D01*
X0040703462Y0020168287D01*
X0040703681Y0020194197D01*
X0040706274Y0020245470D01*
X0040711398Y0020296029D01*
X0040718989Y0020345811D01*
X0040728983Y0020394754D01*
X0040741317Y0020442795D01*
X0040755929Y0020489870D01*
X0040772754Y0020535919D01*
X0040791730Y0020580877D01*
X0040812792Y0020624683D01*
X0040835879Y0020667274D01*
X0040860926Y0020708586D01*
X0040887870Y0020748558D01*
X0040916648Y0020787126D01*
X0040947196Y0020824228D01*
X0040979452Y0020859802D01*
X0041013352Y0020893784D01*
X0041048832Y0020926113D01*
X0041085830Y0020956725D01*
X0041124281Y0020985557D01*
X0041164124Y0021012548D01*
X0041205294Y0021037634D01*
X0041247728Y0021060752D01*
X0041291363Y0021081841D01*
X0041336135Y0021100837D01*
X0041381982Y0021117678D01*
X0041428839Y0021132302D01*
X0041476645Y0021144644D01*
X0041525334Y0021154644D01*
X0041574845Y0021162237D01*
X0041625113Y0021167362D01*
X0041676075Y0021169956D01*
X0041701822Y0021170175D01*
G37*
%LPD*%
G36*
X0044267730Y0023706589D02*
G01*
X0044319003Y0023704306D01*
X0044369562Y0023699472D01*
X0044419344Y0023692150D01*
X0044468287Y0023682404D01*
X0044516328Y0023670296D01*
X0044563404Y0023655892D01*
X0044609452Y0023639253D01*
X0044654411Y0023620442D01*
X0044698216Y0023599524D01*
X0044740807Y0023576562D01*
X0044782119Y0023551618D01*
X0044822091Y0023524757D01*
X0044860659Y0023496041D01*
X0044897761Y0023465534D01*
X0044933335Y0023433299D01*
X0044967318Y0023399399D01*
X0044999646Y0023363898D01*
X0045030258Y0023326859D01*
X0045059090Y0023288345D01*
X0045086081Y0023248420D01*
X0045111167Y0023207147D01*
X0045134286Y0023164589D01*
X0045155374Y0023120809D01*
X0045174371Y0023075871D01*
X0045191212Y0023029839D01*
X0045205835Y0022982774D01*
X0045218177Y0022934742D01*
X0045228177Y0022885804D01*
X0045235770Y0022836025D01*
X0045240895Y0022785468D01*
X0045243489Y0022734195D01*
X0045243708Y0022708284D01*
X0045243489Y0022682374D01*
X0045240895Y0022631101D01*
X0045235770Y0022580542D01*
X0045228177Y0022530760D01*
X0045218177Y0022481817D01*
X0045205835Y0022433777D01*
X0045191212Y0022386701D01*
X0045174371Y0022340652D01*
X0045155374Y0022295694D01*
X0045134286Y0022251888D01*
X0045111167Y0022209298D01*
X0045086081Y0022167985D01*
X0045059090Y0022128013D01*
X0045030258Y0022089445D01*
X0044999646Y0022052343D01*
X0044967318Y0022016769D01*
X0044933335Y0021982787D01*
X0044897761Y0021950458D01*
X0044860659Y0021919846D01*
X0044822091Y0021891014D01*
X0044782119Y0021864023D01*
X0044740807Y0021838937D01*
X0044698216Y0021815819D01*
X0044654411Y0021794730D01*
X0044609452Y0021775734D01*
X0044563404Y0021758893D01*
X0044516328Y0021744270D01*
X0044468287Y0021731927D01*
X0044419344Y0021721928D01*
X0044369562Y0021714334D01*
X0044319003Y0021709209D01*
X0044267730Y0021706615D01*
X0044241820Y0021706396D01*
X0044216073Y0021706615D01*
X0044165110Y0021709209D01*
X0044114842Y0021714334D01*
X0044065332Y0021721928D01*
X0044016642Y0021731927D01*
X0043968837Y0021744270D01*
X0043921979Y0021758893D01*
X0043876133Y0021775734D01*
X0043831360Y0021794730D01*
X0043787725Y0021815819D01*
X0043745291Y0021838937D01*
X0043704121Y0021864023D01*
X0043664279Y0021891014D01*
X0043625827Y0021919846D01*
X0043588830Y0021950458D01*
X0043553349Y0021982787D01*
X0043519449Y0022016769D01*
X0043487194Y0022052343D01*
X0043456645Y0022089445D01*
X0043427867Y0022128013D01*
X0043400923Y0022167985D01*
X0043375876Y0022209298D01*
X0043352790Y0022251888D01*
X0043331727Y0022295694D01*
X0043312752Y0022340652D01*
X0043295927Y0022386701D01*
X0043281315Y0022433777D01*
X0043268980Y0022481817D01*
X0043258986Y0022530760D01*
X0043251396Y0022580542D01*
X0043246272Y0022631101D01*
X0043243678Y0022682374D01*
X0043243460Y0022708284D01*
X0043243678Y0022734031D01*
X0043246272Y0022784994D01*
X0043251396Y0022835262D01*
X0043258986Y0022884773D01*
X0043268980Y0022933462D01*
X0043281315Y0022981267D01*
X0043295927Y0023028125D01*
X0043312752Y0023073971D01*
X0043331727Y0023118744D01*
X0043352790Y0023162379D01*
X0043375876Y0023204813D01*
X0043400923Y0023245983D01*
X0043427867Y0023285825D01*
X0043456645Y0023324277D01*
X0043487194Y0023361275D01*
X0043519449Y0023396755D01*
X0043553349Y0023430655D01*
X0043588830Y0023462911D01*
X0043625827Y0023493459D01*
X0043664279Y0023522237D01*
X0043704121Y0023549181D01*
X0043745291Y0023574228D01*
X0043787725Y0023597314D01*
X0043831360Y0023618377D01*
X0043876133Y0023637353D01*
X0043921979Y0023654178D01*
X0043968837Y0023668789D01*
X0044016642Y0023681124D01*
X0044065332Y0023691118D01*
X0044114842Y0023698709D01*
X0044165110Y0023703832D01*
X0044216073Y0023706426D01*
X0044241820Y0023706645D01*
G37*
%LPD*%
G36*
X0044267730Y0026249951D02*
G01*
X0044319003Y0026247357D01*
X0044369562Y0026242232D01*
X0044419344Y0026234639D01*
X0044468287Y0026224639D01*
X0044516328Y0026212297D01*
X0044563404Y0026197674D01*
X0044609452Y0026180833D01*
X0044654411Y0026161837D01*
X0044698216Y0026140748D01*
X0044740807Y0026117629D01*
X0044782119Y0026092543D01*
X0044822091Y0026065552D01*
X0044860659Y0026036720D01*
X0044897761Y0026006108D01*
X0044933335Y0025973780D01*
X0044967318Y0025939797D01*
X0044999646Y0025904224D01*
X0045030258Y0025867121D01*
X0045059090Y0025828553D01*
X0045086081Y0025788581D01*
X0045111167Y0025747269D01*
X0045134286Y0025704678D01*
X0045155374Y0025660873D01*
X0045174371Y0025615914D01*
X0045191212Y0025569866D01*
X0045205835Y0025522790D01*
X0045218177Y0025474749D01*
X0045228177Y0025425807D01*
X0045235770Y0025376024D01*
X0045240895Y0025325466D01*
X0045243489Y0025274193D01*
X0045243708Y0025248282D01*
X0045243489Y0025222535D01*
X0045240895Y0025171572D01*
X0045235770Y0025121304D01*
X0045228177Y0025071794D01*
X0045218177Y0025023104D01*
X0045205835Y0024975299D01*
X0045191212Y0024928442D01*
X0045174371Y0024882595D01*
X0045155374Y0024837823D01*
X0045134286Y0024794188D01*
X0045111167Y0024751754D01*
X0045086081Y0024710584D01*
X0045059090Y0024670741D01*
X0045030258Y0024632289D01*
X0044999646Y0024595292D01*
X0044967318Y0024559811D01*
X0044933335Y0024525912D01*
X0044897761Y0024493656D01*
X0044860659Y0024463107D01*
X0044822091Y0024434329D01*
X0044782119Y0024407385D01*
X0044740807Y0024382338D01*
X0044698216Y0024359252D01*
X0044654411Y0024338189D01*
X0044609452Y0024319214D01*
X0044563404Y0024302389D01*
X0044516328Y0024287777D01*
X0044468287Y0024275443D01*
X0044419344Y0024265448D01*
X0044369562Y0024257858D01*
X0044319003Y0024252734D01*
X0044267730Y0024250141D01*
X0044241820Y0024249922D01*
X0044216073Y0024250141D01*
X0044165110Y0024252734D01*
X0044114842Y0024257858D01*
X0044065332Y0024265448D01*
X0044016642Y0024275443D01*
X0043968837Y0024287777D01*
X0043921979Y0024302389D01*
X0043876133Y0024319214D01*
X0043831360Y0024338189D01*
X0043787725Y0024359252D01*
X0043745291Y0024382338D01*
X0043704121Y0024407385D01*
X0043664279Y0024434329D01*
X0043625827Y0024463107D01*
X0043588830Y0024493656D01*
X0043553349Y0024525912D01*
X0043519449Y0024559811D01*
X0043487194Y0024595292D01*
X0043456645Y0024632289D01*
X0043427867Y0024670741D01*
X0043400923Y0024710584D01*
X0043375876Y0024751754D01*
X0043352790Y0024794188D01*
X0043331727Y0024837823D01*
X0043312752Y0024882595D01*
X0043295927Y0024928442D01*
X0043281315Y0024975299D01*
X0043268980Y0025023104D01*
X0043258986Y0025071794D01*
X0043251396Y0025121304D01*
X0043246272Y0025171572D01*
X0043243678Y0025222535D01*
X0043243460Y0025248282D01*
X0043243678Y0025274193D01*
X0043246272Y0025325466D01*
X0043251396Y0025376024D01*
X0043258986Y0025425807D01*
X0043268980Y0025474749D01*
X0043281315Y0025522790D01*
X0043295927Y0025569866D01*
X0043312752Y0025615914D01*
X0043331727Y0025660873D01*
X0043352790Y0025704678D01*
X0043375876Y0025747269D01*
X0043400923Y0025788581D01*
X0043427867Y0025828553D01*
X0043456645Y0025867121D01*
X0043487194Y0025904224D01*
X0043519449Y0025939797D01*
X0043553349Y0025973780D01*
X0043588830Y0026006108D01*
X0043625827Y0026036720D01*
X0043664279Y0026065552D01*
X0043704121Y0026092543D01*
X0043745291Y0026117629D01*
X0043787725Y0026140748D01*
X0043831360Y0026161837D01*
X0043876133Y0026180833D01*
X0043921979Y0026197674D01*
X0043968837Y0026212297D01*
X0044016642Y0026224639D01*
X0044065332Y0026234639D01*
X0044114842Y0026242232D01*
X0044165110Y0026247357D01*
X0044216073Y0026249951D01*
X0044241820Y0026250170D01*
G37*
%LPD*%
G36*
X0041724205Y0023706589D02*
G01*
X0041775478Y0023704306D01*
X0041826037Y0023699472D01*
X0041875819Y0023692150D01*
X0041924762Y0023682404D01*
X0041972802Y0023670296D01*
X0042019878Y0023655892D01*
X0042065927Y0023639253D01*
X0042110885Y0023620442D01*
X0042154691Y0023599524D01*
X0042197281Y0023576562D01*
X0042238594Y0023551618D01*
X0042278565Y0023524757D01*
X0042317134Y0023496041D01*
X0042354236Y0023465534D01*
X0042389810Y0023433299D01*
X0042423792Y0023399399D01*
X0042456121Y0023363898D01*
X0042486732Y0023326859D01*
X0042515565Y0023288345D01*
X0042542555Y0023248420D01*
X0042567641Y0023207147D01*
X0042590760Y0023164589D01*
X0042611849Y0023120809D01*
X0042630845Y0023075871D01*
X0042647686Y0023029839D01*
X0042662309Y0022982774D01*
X0042674652Y0022934742D01*
X0042684651Y0022885804D01*
X0042692245Y0022836025D01*
X0042697370Y0022785468D01*
X0042699964Y0022734195D01*
X0042700182Y0022708284D01*
X0042699964Y0022682374D01*
X0042697370Y0022631101D01*
X0042692245Y0022580542D01*
X0042684651Y0022530760D01*
X0042674652Y0022481817D01*
X0042662309Y0022433777D01*
X0042647686Y0022386701D01*
X0042630845Y0022340652D01*
X0042611849Y0022295694D01*
X0042590760Y0022251888D01*
X0042567641Y0022209298D01*
X0042542555Y0022167985D01*
X0042515565Y0022128013D01*
X0042486732Y0022089445D01*
X0042456121Y0022052343D01*
X0042423792Y0022016769D01*
X0042389810Y0021982787D01*
X0042354236Y0021950458D01*
X0042317134Y0021919846D01*
X0042278565Y0021891014D01*
X0042238594Y0021864023D01*
X0042197281Y0021838937D01*
X0042154691Y0021815819D01*
X0042110885Y0021794730D01*
X0042065927Y0021775734D01*
X0042019878Y0021758893D01*
X0041972802Y0021744270D01*
X0041924762Y0021731927D01*
X0041875819Y0021721928D01*
X0041826037Y0021714334D01*
X0041775478Y0021709209D01*
X0041724205Y0021706615D01*
X0041698294Y0021706396D01*
X0041672548Y0021706615D01*
X0041621585Y0021709209D01*
X0041571317Y0021714334D01*
X0041521806Y0021721928D01*
X0041473117Y0021731927D01*
X0041425312Y0021744270D01*
X0041378454Y0021758893D01*
X0041332607Y0021775734D01*
X0041287835Y0021794730D01*
X0041244200Y0021815819D01*
X0041201766Y0021838937D01*
X0041160596Y0021864023D01*
X0041120754Y0021891014D01*
X0041082302Y0021919846D01*
X0041045304Y0021950458D01*
X0041009824Y0021982787D01*
X0040975924Y0022016769D01*
X0040943668Y0022052343D01*
X0040913120Y0022089445D01*
X0040884342Y0022128013D01*
X0040857398Y0022167985D01*
X0040832351Y0022209298D01*
X0040809264Y0022251888D01*
X0040788202Y0022295694D01*
X0040769226Y0022340652D01*
X0040752401Y0022386701D01*
X0040737790Y0022433777D01*
X0040725455Y0022481817D01*
X0040715461Y0022530760D01*
X0040707870Y0022580542D01*
X0040702747Y0022631101D01*
X0040700153Y0022682374D01*
X0040699934Y0022708284D01*
X0040700153Y0022734031D01*
X0040702747Y0022784994D01*
X0040707870Y0022835262D01*
X0040715461Y0022884773D01*
X0040725455Y0022933462D01*
X0040737790Y0022981267D01*
X0040752401Y0023028125D01*
X0040769226Y0023073971D01*
X0040788202Y0023118744D01*
X0040809264Y0023162379D01*
X0040832351Y0023204813D01*
X0040857398Y0023245983D01*
X0040884342Y0023285825D01*
X0040913120Y0023324277D01*
X0040943668Y0023361275D01*
X0040975924Y0023396755D01*
X0041009824Y0023430655D01*
X0041045304Y0023462911D01*
X0041082302Y0023493459D01*
X0041120754Y0023522237D01*
X0041160596Y0023549181D01*
X0041201766Y0023574228D01*
X0041244200Y0023597314D01*
X0041287835Y0023618377D01*
X0041332607Y0023637353D01*
X0041378454Y0023654178D01*
X0041425312Y0023668789D01*
X0041473117Y0023681124D01*
X0041521806Y0023691118D01*
X0041571317Y0023698709D01*
X0041621585Y0023703832D01*
X0041672548Y0023706426D01*
X0041698294Y0023706645D01*
G37*
%LPD*%
G36*
X0041724205Y0026249951D02*
G01*
X0041775478Y0026247357D01*
X0041826037Y0026242232D01*
X0041875819Y0026234639D01*
X0041924762Y0026224639D01*
X0041972802Y0026212297D01*
X0042019878Y0026197674D01*
X0042065927Y0026180833D01*
X0042110885Y0026161837D01*
X0042154691Y0026140748D01*
X0042197281Y0026117629D01*
X0042238594Y0026092543D01*
X0042278565Y0026065552D01*
X0042317134Y0026036720D01*
X0042354236Y0026006108D01*
X0042389810Y0025973780D01*
X0042423792Y0025939797D01*
X0042456121Y0025904224D01*
X0042486732Y0025867121D01*
X0042515565Y0025828553D01*
X0042542555Y0025788581D01*
X0042567641Y0025747269D01*
X0042590760Y0025704678D01*
X0042611849Y0025660873D01*
X0042630845Y0025615914D01*
X0042647686Y0025569866D01*
X0042662309Y0025522790D01*
X0042674652Y0025474749D01*
X0042684651Y0025425807D01*
X0042692245Y0025376024D01*
X0042697370Y0025325466D01*
X0042699964Y0025274193D01*
X0042700182Y0025248282D01*
X0042699964Y0025222535D01*
X0042697370Y0025171572D01*
X0042692245Y0025121304D01*
X0042684651Y0025071794D01*
X0042674652Y0025023104D01*
X0042662309Y0024975299D01*
X0042647686Y0024928442D01*
X0042630845Y0024882595D01*
X0042611849Y0024837823D01*
X0042590760Y0024794188D01*
X0042567641Y0024751754D01*
X0042542555Y0024710584D01*
X0042515565Y0024670741D01*
X0042486732Y0024632289D01*
X0042456121Y0024595292D01*
X0042423792Y0024559811D01*
X0042389810Y0024525912D01*
X0042354236Y0024493656D01*
X0042317134Y0024463107D01*
X0042278565Y0024434329D01*
X0042238594Y0024407385D01*
X0042197281Y0024382338D01*
X0042154691Y0024359252D01*
X0042110885Y0024338189D01*
X0042065927Y0024319214D01*
X0042019878Y0024302389D01*
X0041972802Y0024287777D01*
X0041924762Y0024275443D01*
X0041875819Y0024265448D01*
X0041826037Y0024257858D01*
X0041775478Y0024252734D01*
X0041724205Y0024250141D01*
X0041698294Y0024249922D01*
X0041672548Y0024250141D01*
X0041621585Y0024252734D01*
X0041571317Y0024257858D01*
X0041521806Y0024265448D01*
X0041473117Y0024275443D01*
X0041425312Y0024287777D01*
X0041378454Y0024302389D01*
X0041332607Y0024319214D01*
X0041287835Y0024338189D01*
X0041244200Y0024359252D01*
X0041201766Y0024382338D01*
X0041160596Y0024407385D01*
X0041120754Y0024434329D01*
X0041082302Y0024463107D01*
X0041045304Y0024493656D01*
X0041009824Y0024525912D01*
X0040975924Y0024559811D01*
X0040943668Y0024595292D01*
X0040913120Y0024632289D01*
X0040884342Y0024670741D01*
X0040857398Y0024710584D01*
X0040832351Y0024751754D01*
X0040809264Y0024794188D01*
X0040788202Y0024837823D01*
X0040769226Y0024882595D01*
X0040752401Y0024928442D01*
X0040737790Y0024975299D01*
X0040725455Y0025023104D01*
X0040715461Y0025071794D01*
X0040707870Y0025121304D01*
X0040702747Y0025171572D01*
X0040700153Y0025222535D01*
X0040699934Y0025248282D01*
X0040700153Y0025274193D01*
X0040702747Y0025325466D01*
X0040707870Y0025376024D01*
X0040715461Y0025425807D01*
X0040725455Y0025474749D01*
X0040737790Y0025522790D01*
X0040752401Y0025569866D01*
X0040769226Y0025615914D01*
X0040788202Y0025660873D01*
X0040809264Y0025704678D01*
X0040832351Y0025747269D01*
X0040857398Y0025788581D01*
X0040884342Y0025828553D01*
X0040913120Y0025867121D01*
X0040943668Y0025904224D01*
X0040975924Y0025939797D01*
X0041009824Y0025973780D01*
X0041045304Y0026006108D01*
X0041082302Y0026036720D01*
X0041120754Y0026065552D01*
X0041160596Y0026092543D01*
X0041201766Y0026117629D01*
X0041244200Y0026140748D01*
X0041287835Y0026161837D01*
X0041332607Y0026180833D01*
X0041378454Y0026197674D01*
X0041425312Y0026212297D01*
X0041473117Y0026224639D01*
X0041521806Y0026234639D01*
X0041571317Y0026242232D01*
X0041621585Y0026247357D01*
X0041672548Y0026249951D01*
X0041698294Y0026250170D01*
G37*
%LPD*%
G36*
X0019857732Y0026786033D02*
G01*
X0019877411Y0026781961D01*
X0019895270Y0026774272D01*
X0019910980Y0026763420D01*
X0019924209Y0026749860D01*
X0019934627Y0026734047D01*
X0019941903Y0026716436D01*
X0019945706Y0026697481D01*
X0019946037Y0026687614D01*
X0019946037Y0026186670D01*
X0019945679Y0026176197D01*
X0019941607Y0026156519D01*
X0019933917Y0026138659D01*
X0019923065Y0026122950D01*
X0019909505Y0026109720D01*
X0019893692Y0026099302D01*
X0019876081Y0026092026D01*
X0019857126Y0026088223D01*
X0019847259Y0026087892D01*
X0018446733Y0026087892D01*
X0018436260Y0026088251D01*
X0018416581Y0026092323D01*
X0018398722Y0026100012D01*
X0018383012Y0026110864D01*
X0018369783Y0026124424D01*
X0018359365Y0026140237D01*
X0018352089Y0026157848D01*
X0018348286Y0026176803D01*
X0018347955Y0026186670D01*
X0018347955Y0026687614D01*
X0018348313Y0026698087D01*
X0018352386Y0026717765D01*
X0018360075Y0026735625D01*
X0018370927Y0026751334D01*
X0018384487Y0026764564D01*
X0018400300Y0026774982D01*
X0018417911Y0026782258D01*
X0018436866Y0026786061D01*
X0018446733Y0026786392D01*
X0019847259Y0026786392D01*
G37*
%LPD*%
G36*
X0019857732Y0025685368D02*
G01*
X0019877411Y0025681296D01*
X0019895270Y0025673606D01*
X0019910980Y0025662754D01*
X0019924209Y0025649194D01*
X0019934627Y0025633381D01*
X0019941903Y0025615770D01*
X0019945706Y0025596815D01*
X0019946037Y0025586948D01*
X0019946037Y0025086004D01*
X0019945679Y0025075531D01*
X0019941607Y0025055853D01*
X0019933917Y0025037994D01*
X0019923065Y0025022284D01*
X0019909505Y0025009055D01*
X0019893692Y0024998637D01*
X0019876081Y0024991361D01*
X0019857126Y0024987557D01*
X0019847259Y0024987227D01*
X0018446733Y0024987227D01*
X0018436260Y0024987585D01*
X0018416581Y0024991657D01*
X0018398722Y0024999347D01*
X0018383012Y0025010199D01*
X0018369783Y0025023758D01*
X0018359365Y0025039571D01*
X0018352089Y0025057183D01*
X0018348286Y0025076138D01*
X0018347955Y0025086004D01*
X0018347955Y0025586948D01*
X0018348313Y0025597421D01*
X0018352386Y0025617100D01*
X0018360075Y0025634959D01*
X0018370927Y0025650669D01*
X0018384487Y0025663898D01*
X0018400300Y0025674316D01*
X0018417911Y0025681592D01*
X0018436866Y0025685395D01*
X0018446733Y0025685726D01*
X0019847259Y0025685726D01*
G37*
%LPD*%
G36*
X0019857732Y0024584702D02*
G01*
X0019877411Y0024580630D01*
X0019895270Y0024572941D01*
X0019910980Y0024562089D01*
X0019924209Y0024548529D01*
X0019934627Y0024532716D01*
X0019941903Y0024515104D01*
X0019945706Y0024496149D01*
X0019946037Y0024486283D01*
X0019946037Y0023985339D01*
X0019945679Y0023974866D01*
X0019941607Y0023955187D01*
X0019933917Y0023937328D01*
X0019923065Y0023921618D01*
X0019909505Y0023908389D01*
X0019893692Y0023897971D01*
X0019876081Y0023890695D01*
X0019857126Y0023886892D01*
X0019847259Y0023886561D01*
X0018446733Y0023886561D01*
X0018436260Y0023886919D01*
X0018416581Y0023890991D01*
X0018398722Y0023898681D01*
X0018383012Y0023909533D01*
X0018369783Y0023923093D01*
X0018359365Y0023938906D01*
X0018352089Y0023956517D01*
X0018348286Y0023975472D01*
X0018347955Y0023985339D01*
X0018347955Y0024486283D01*
X0018348313Y0024496756D01*
X0018352386Y0024516434D01*
X0018360075Y0024534294D01*
X0018370927Y0024550003D01*
X0018384487Y0024563232D01*
X0018400300Y0024573650D01*
X0018417911Y0024580926D01*
X0018436866Y0024584730D01*
X0018446733Y0024585060D01*
X0019847259Y0024585060D01*
G37*
%LPD*%
G36*
X0019857732Y0023484036D02*
G01*
X0019877411Y0023479964D01*
X0019895270Y0023472275D01*
X0019910980Y0023461423D01*
X0019924209Y0023447863D01*
X0019934627Y0023432050D01*
X0019941903Y0023414439D01*
X0019945706Y0023395484D01*
X0019946037Y0023385617D01*
X0019946037Y0022884673D01*
X0019945679Y0022874200D01*
X0019941607Y0022854522D01*
X0019933917Y0022836662D01*
X0019923065Y0022820953D01*
X0019909505Y0022807724D01*
X0019893692Y0022797306D01*
X0019876081Y0022790030D01*
X0019857126Y0022786226D01*
X0019847259Y0022785895D01*
X0018446733Y0022785895D01*
X0018436260Y0022786254D01*
X0018416581Y0022790326D01*
X0018398722Y0022798015D01*
X0018383012Y0022808867D01*
X0018369783Y0022822427D01*
X0018359365Y0022838240D01*
X0018352089Y0022855851D01*
X0018348286Y0022874806D01*
X0018347955Y0022884673D01*
X0018347955Y0023385617D01*
X0018348313Y0023396090D01*
X0018352386Y0023415769D01*
X0018360075Y0023433628D01*
X0018370927Y0023449338D01*
X0018384487Y0023462567D01*
X0018400300Y0023472985D01*
X0018417911Y0023480261D01*
X0018436866Y0023484064D01*
X0018446733Y0023484395D01*
X0019847259Y0023484395D01*
G37*
%LPD*%
G36*
X0019857732Y0022383371D02*
G01*
X0019877411Y0022379299D01*
X0019895270Y0022371609D01*
X0019910980Y0022360757D01*
X0019924209Y0022347197D01*
X0019934627Y0022331384D01*
X0019941903Y0022313773D01*
X0019945706Y0022294818D01*
X0019946037Y0022284951D01*
X0019946037Y0021784007D01*
X0019945679Y0021773534D01*
X0019941607Y0021753856D01*
X0019933917Y0021735997D01*
X0019923065Y0021720287D01*
X0019909505Y0021707058D01*
X0019893692Y0021696640D01*
X0019876081Y0021689364D01*
X0019857126Y0021685561D01*
X0019847259Y0021685230D01*
X0018446733Y0021685230D01*
X0018436260Y0021685588D01*
X0018416581Y0021689660D01*
X0018398722Y0021697350D01*
X0018383012Y0021708202D01*
X0018369783Y0021721762D01*
X0018359365Y0021737575D01*
X0018352089Y0021755186D01*
X0018348286Y0021774141D01*
X0018347955Y0021784007D01*
X0018347955Y0022284951D01*
X0018348313Y0022295425D01*
X0018352386Y0022315103D01*
X0018360075Y0022332962D01*
X0018370927Y0022348672D01*
X0018384487Y0022361901D01*
X0018400300Y0022372319D01*
X0018417911Y0022379595D01*
X0018436866Y0022383398D01*
X0018446733Y0022383729D01*
X0019847259Y0022383729D01*
G37*
%LPD*%
G36*
X0019854205Y0021286233D02*
G01*
X0019873883Y0021282161D01*
X0019891742Y0021274471D01*
X0019907452Y0021263619D01*
X0019920681Y0021250059D01*
X0019931099Y0021234247D01*
X0019938375Y0021216635D01*
X0019942178Y0021197680D01*
X0019942509Y0021187814D01*
X0019942509Y0020686870D01*
X0019942151Y0020676397D01*
X0019938079Y0020656718D01*
X0019930389Y0020638859D01*
X0019919537Y0020623149D01*
X0019905977Y0020609920D01*
X0019890164Y0020599502D01*
X0019872553Y0020592226D01*
X0019853598Y0020588423D01*
X0019843731Y0020588092D01*
X0018446733Y0020588092D01*
X0018436232Y0020588423D01*
X0018416264Y0020592226D01*
X0018397909Y0020599502D01*
X0018381579Y0020609920D01*
X0018367689Y0020623149D01*
X0018356651Y0020638859D01*
X0018348878Y0020656718D01*
X0018344786Y0020676397D01*
X0018344427Y0020686870D01*
X0018344427Y0021187814D01*
X0018344786Y0021198287D01*
X0018348858Y0021217965D01*
X0018356547Y0021235824D01*
X0018367399Y0021251534D01*
X0018380959Y0021264763D01*
X0018396772Y0021275181D01*
X0018414383Y0021282457D01*
X0018433338Y0021286261D01*
X0018443205Y0021286591D01*
X0019843731Y0021286591D01*
G37*
%LPD*%
G36*
X0019857732Y0020185567D02*
G01*
X0019877411Y0020181495D01*
X0019895270Y0020173806D01*
X0019910980Y0020162954D01*
X0019924209Y0020149394D01*
X0019934627Y0020133581D01*
X0019941903Y0020115970D01*
X0019945706Y0020097015D01*
X0019946037Y0020087148D01*
X0019946037Y0019586204D01*
X0019945679Y0019575731D01*
X0019941607Y0019556052D01*
X0019933917Y0019538193D01*
X0019923065Y0019522484D01*
X0019909505Y0019509254D01*
X0019893692Y0019498836D01*
X0019876081Y0019491560D01*
X0019857126Y0019487757D01*
X0019847259Y0019487426D01*
X0018446733Y0019487426D01*
X0018436260Y0019487785D01*
X0018416581Y0019491857D01*
X0018398722Y0019499546D01*
X0018383012Y0019510398D01*
X0018369783Y0019523958D01*
X0018359365Y0019539771D01*
X0018352089Y0019557382D01*
X0018348286Y0019576337D01*
X0018347955Y0019586204D01*
X0018347955Y0020087148D01*
X0018348313Y0020097621D01*
X0018352386Y0020117299D01*
X0018360075Y0020135159D01*
X0018370927Y0020150868D01*
X0018384487Y0020164098D01*
X0018400300Y0020174515D01*
X0018417911Y0020181791D01*
X0018436866Y0020185595D01*
X0018446733Y0020185926D01*
X0019847259Y0020185926D01*
G37*
%LPD*%
G36*
X0019857732Y0019084902D02*
G01*
X0019877411Y0019080830D01*
X0019895270Y0019073140D01*
X0019910980Y0019062288D01*
X0019924209Y0019048728D01*
X0019934627Y0019032915D01*
X0019941903Y0019015304D01*
X0019945706Y0018996349D01*
X0019946037Y0018986482D01*
X0019946037Y0018485538D01*
X0019945679Y0018475065D01*
X0019941607Y0018455387D01*
X0019933917Y0018437527D01*
X0019923065Y0018421818D01*
X0019909505Y0018408589D01*
X0019893692Y0018398171D01*
X0019876081Y0018390895D01*
X0019857126Y0018387091D01*
X0019847259Y0018386761D01*
X0018446733Y0018386761D01*
X0018436260Y0018387119D01*
X0018416581Y0018391191D01*
X0018398722Y0018398880D01*
X0018383012Y0018409733D01*
X0018369783Y0018423292D01*
X0018359365Y0018439105D01*
X0018352089Y0018456717D01*
X0018348286Y0018475672D01*
X0018347955Y0018485538D01*
X0018347955Y0018986482D01*
X0018348313Y0018996955D01*
X0018352386Y0019016634D01*
X0018360075Y0019034493D01*
X0018370927Y0019050203D01*
X0018384487Y0019063432D01*
X0018400300Y0019073850D01*
X0018417911Y0019081126D01*
X0018436866Y0019084929D01*
X0018446733Y0019085260D01*
X0019847259Y0019085260D01*
G37*
%LPD*%
G36*
X0019857732Y0017984236D02*
G01*
X0019877411Y0017980164D01*
X0019895270Y0017972474D01*
X0019910980Y0017961622D01*
X0019924209Y0017948063D01*
X0019934627Y0017932250D01*
X0019941903Y0017914638D01*
X0019945706Y0017895683D01*
X0019946037Y0017885817D01*
X0019946037Y0017384873D01*
X0019945679Y0017374400D01*
X0019941607Y0017354721D01*
X0019933917Y0017336862D01*
X0019923065Y0017321152D01*
X0019909505Y0017307923D01*
X0019893692Y0017297505D01*
X0019876081Y0017290229D01*
X0019857126Y0017286426D01*
X0019847259Y0017286095D01*
X0018446733Y0017286095D01*
X0018436260Y0017286453D01*
X0018416581Y0017290525D01*
X0018398722Y0017298215D01*
X0018383012Y0017309067D01*
X0018369783Y0017322627D01*
X0018359365Y0017338440D01*
X0018352089Y0017356051D01*
X0018348286Y0017375006D01*
X0018347955Y0017384873D01*
X0018347955Y0017885817D01*
X0018348313Y0017896290D01*
X0018352386Y0017915968D01*
X0018360075Y0017933827D01*
X0018370927Y0017949537D01*
X0018384487Y0017962766D01*
X0018400300Y0017973184D01*
X0018417911Y0017980460D01*
X0018436866Y0017984264D01*
X0018446733Y0017984594D01*
X0019847259Y0017984594D01*
G37*
%LPD*%
G36*
X0019243900Y0028154810D02*
G01*
X0019263578Y0028150738D01*
X0019281437Y0028143048D01*
X0019297147Y0028132196D01*
X0019310376Y0028118636D01*
X0019320794Y0028102823D01*
X0019328070Y0028085212D01*
X0019331873Y0028066257D01*
X0019332204Y0028056391D01*
X0019332204Y0027255586D01*
X0019331846Y0027245113D01*
X0019327774Y0027225434D01*
X0019320084Y0027207575D01*
X0019309232Y0027191865D01*
X0019295672Y0027178636D01*
X0019279859Y0027168218D01*
X0019262248Y0027160942D01*
X0019243293Y0027157139D01*
X0019233427Y0027156808D01*
X0018033983Y0027156808D01*
X0018023510Y0027157166D01*
X0018003832Y0027161238D01*
X0017985972Y0027168928D01*
X0017970263Y0027179780D01*
X0017957034Y0027193340D01*
X0017946616Y0027209153D01*
X0017939340Y0027226764D01*
X0017935536Y0027245719D01*
X0017935205Y0027255586D01*
X0017935205Y0028056391D01*
X0017935564Y0028066864D01*
X0017939636Y0028086542D01*
X0017947325Y0028104401D01*
X0017958177Y0028120111D01*
X0017971737Y0028133340D01*
X0017987550Y0028143758D01*
X0018005162Y0028151034D01*
X0018024116Y0028154837D01*
X0018033983Y0028155168D01*
X0019233427Y0028155168D01*
G37*
%LPD*%
G36*
X0009941158Y0012727852D02*
G01*
X0009960837Y0012723780D01*
X0009978696Y0012716091D01*
X0009994406Y0012705238D01*
X0010007635Y0012691679D01*
X0010018053Y0012675866D01*
X0010025329Y0012658254D01*
X0010029132Y0012639299D01*
X0010029463Y0012629433D01*
X0010029463Y0011631072D01*
X0010029105Y0011620599D01*
X0010025032Y0011600921D01*
X0010017343Y0011583062D01*
X0010006491Y0011567352D01*
X0009992931Y0011554123D01*
X0009977118Y0011543705D01*
X0009959507Y0011536429D01*
X0009940552Y0011532626D01*
X0009930685Y0011532295D01*
X0007930437Y0011532295D01*
X0007919964Y0011532653D01*
X0007900286Y0011536725D01*
X0007882426Y0011544415D01*
X0007866717Y0011555267D01*
X0007853487Y0011568827D01*
X0007843069Y0011584640D01*
X0007835793Y0011602251D01*
X0007831990Y0011621206D01*
X0007831659Y0011631072D01*
X0007831659Y0012629433D01*
X0007832018Y0012639906D01*
X0007836090Y0012659584D01*
X0007843779Y0012677443D01*
X0007854631Y0012693153D01*
X0007868191Y0012706382D01*
X0007884004Y0012716800D01*
X0007901615Y0012724076D01*
X0007920570Y0012727880D01*
X0007930437Y0012728210D01*
X0009930685Y0012728210D01*
G37*
%LPD*%
G36*
X0009941158Y0028207727D02*
G01*
X0009960837Y0028203654D01*
X0009978696Y0028195965D01*
X0009994406Y0028185113D01*
X0010007635Y0028171553D01*
X0010018053Y0028155740D01*
X0010025329Y0028138129D01*
X0010029132Y0028119174D01*
X0010029463Y0028109307D01*
X0010029463Y0027110947D01*
X0010029105Y0027100474D01*
X0010025032Y0027080795D01*
X0010017343Y0027062936D01*
X0010006491Y0027047227D01*
X0009992931Y0027033997D01*
X0009977118Y0027023579D01*
X0009959507Y0027016303D01*
X0009940552Y0027012500D01*
X0009930685Y0027012169D01*
X0007930437Y0027012169D01*
X0007919964Y0027012528D01*
X0007900286Y0027016600D01*
X0007882426Y0027024289D01*
X0007866717Y0027035141D01*
X0007853487Y0027048701D01*
X0007843069Y0027064514D01*
X0007835793Y0027082125D01*
X0007831990Y0027101080D01*
X0007831659Y0027110947D01*
X0007831659Y0028109307D01*
X0007832018Y0028119780D01*
X0007836090Y0028139459D01*
X0007843779Y0028157318D01*
X0007854631Y0028173028D01*
X0007868191Y0028186257D01*
X0007884004Y0028196675D01*
X0007901615Y0028203951D01*
X0007920570Y0028207754D01*
X0007930437Y0028208085D01*
X0009930685Y0028208085D01*
G37*
%LPD*%
G36*
X0019243900Y0013824990D02*
G01*
X0019263578Y0013820918D01*
X0019281437Y0013813228D01*
X0019297147Y0013802376D01*
X0019310376Y0013788816D01*
X0019320794Y0013773003D01*
X0019328070Y0013755392D01*
X0019331873Y0013736437D01*
X0019332204Y0013726571D01*
X0019332204Y0012326044D01*
X0019331846Y0012315571D01*
X0019327774Y0012295893D01*
X0019320084Y0012278033D01*
X0019309232Y0012262324D01*
X0019295672Y0012249094D01*
X0019279859Y0012238677D01*
X0019262248Y0012231401D01*
X0019243293Y0012227597D01*
X0019233427Y0012227266D01*
X0018033983Y0012227266D01*
X0018023510Y0012227625D01*
X0018003832Y0012231697D01*
X0017985972Y0012239386D01*
X0017970263Y0012250238D01*
X0017957034Y0012263798D01*
X0017946616Y0012279611D01*
X0017939340Y0012297222D01*
X0017935536Y0012316177D01*
X0017935205Y0012326044D01*
X0017935205Y0013726571D01*
X0017935564Y0013737044D01*
X0017939636Y0013756722D01*
X0017947325Y0013774581D01*
X0017958177Y0013790291D01*
X0017971737Y0013803520D01*
X0017987550Y0013813938D01*
X0018005162Y0013821214D01*
X0018024116Y0013825017D01*
X0018033983Y0013825348D01*
X0019233427Y0013825348D01*
G37*
%LPD*%
G36*
X0037517165Y0019413012D02*
G01*
X0037536120Y0019409209D01*
X0037553731Y0019401933D01*
X0037569544Y0019391515D01*
X0037583104Y0019378286D01*
X0037593956Y0019362576D01*
X0037601646Y0019344717D01*
X0037605718Y0019325038D01*
X0037606076Y0019314565D01*
X0037606076Y0018598427D01*
X0037605745Y0018588560D01*
X0037601942Y0018569605D01*
X0037594666Y0018551994D01*
X0037584248Y0018536181D01*
X0037571019Y0018522621D01*
X0037555309Y0018511769D01*
X0037537450Y0018504080D01*
X0037517771Y0018500008D01*
X0037507298Y0018499649D01*
X0036537160Y0018499649D01*
X0036527294Y0018499980D01*
X0036508339Y0018503784D01*
X0036490727Y0018511060D01*
X0036474914Y0018521478D01*
X0036461355Y0018534707D01*
X0036450503Y0018550416D01*
X0036442813Y0018568276D01*
X0036438741Y0018587954D01*
X0036438383Y0018598427D01*
X0036438383Y0019314565D01*
X0036438713Y0019324432D01*
X0036442517Y0019343387D01*
X0036449793Y0019360998D01*
X0036460211Y0019376811D01*
X0036473440Y0019390371D01*
X0036489150Y0019401223D01*
X0036507009Y0019408913D01*
X0036526687Y0019412985D01*
X0036537160Y0019413343D01*
X0037507298Y0019413343D01*
G37*
%LPD*%
G36*
X0037517165Y0021402677D02*
G01*
X0037536120Y0021398874D01*
X0037553731Y0021391598D01*
X0037569544Y0021381180D01*
X0037583104Y0021367951D01*
X0037593956Y0021352241D01*
X0037601646Y0021334382D01*
X0037605718Y0021314703D01*
X0037606076Y0021304230D01*
X0037606076Y0020588092D01*
X0037605745Y0020578225D01*
X0037601942Y0020559270D01*
X0037594666Y0020541659D01*
X0037584248Y0020525846D01*
X0037571019Y0020512286D01*
X0037555309Y0020501434D01*
X0037537450Y0020493745D01*
X0037517771Y0020489673D01*
X0037507298Y0020489314D01*
X0036537160Y0020489314D01*
X0036527294Y0020489645D01*
X0036508339Y0020493448D01*
X0036490727Y0020500724D01*
X0036474914Y0020511142D01*
X0036461355Y0020524371D01*
X0036450503Y0020540081D01*
X0036442813Y0020557940D01*
X0036438741Y0020577619D01*
X0036438383Y0020588092D01*
X0036438383Y0021304230D01*
X0036438713Y0021314097D01*
X0036442517Y0021333052D01*
X0036449793Y0021350663D01*
X0036460211Y0021366476D01*
X0036473440Y0021380036D01*
X0036489150Y0021390888D01*
X0036507009Y0021398577D01*
X0036526687Y0021402650D01*
X0036537160Y0021403008D01*
X0037507298Y0021403008D01*
G37*
%LPD*%
%LPD*%
G36*
X0044418209Y0020168287D02*
G01*
X0044065431Y0020168287D01*
X0044065431Y0028162224D01*
X0044418209Y0028162224D01*
G37*
%LPD*%
%LPD*%
G36*
X0046062151Y0025071893D02*
G01*
X0044241820Y0025071893D01*
X0044241820Y0025424671D01*
X0046062151Y0025424671D01*
G37*
%LPD*%
%LPD*%
G36*
X0046062151Y0022531896D02*
G01*
X0044241820Y0022531896D01*
X0044241820Y0022884673D01*
X0046062151Y0022884673D01*
G37*
%LPD*%
%LPD*%
G36*
X0046136235Y0019991898D02*
G01*
X0044241820Y0019991898D01*
X0044241820Y0020344675D01*
X0046136235Y0020344675D01*
G37*
%LPD*%
%LPD*%
G36*
X0039112436Y0018866538D02*
G01*
X0036000939Y0018866538D01*
X0036000939Y0019042927D01*
X0039112436Y0019042927D01*
G37*
%LPD*%
%LPD*%
G36*
X0037108660Y0017896400D02*
G01*
X0036932271Y0017896400D01*
X0036932271Y0020044815D01*
X0037108660Y0020044815D01*
G37*
%LPD*%
%LPD*%
G36*
X0037570798Y0025766865D02*
G01*
X0032363803Y0025766865D01*
X0032363803Y0026119642D01*
X0037570798Y0026119642D01*
G37*
%LPD*%
%LPD*%
G36*
X0035926855Y0019120538D02*
G01*
X0031965165Y0019120538D01*
X0031965165Y0019473315D01*
X0035926855Y0019473315D01*
G37*
%LPD*%
%LPD*%
G36*
X0020556342Y0022958756D02*
G01*
X0016601707Y0022958756D01*
X0016601707Y0023311534D01*
X0020556342Y0023311534D01*
G37*
%LPD*%
%LPD*%
G36*
X0034565134Y0024726171D02*
G01*
X0034212357Y0024726171D01*
X0034212357Y0027216780D01*
X0034565134Y0027216780D01*
G37*
%LPD*%
%LPD*%
G36*
X0012195516Y0027435502D02*
G01*
X0006318244Y0027435502D01*
X0006318244Y0027788280D01*
X0012195516Y0027788280D01*
G37*
%LPD*%
%LPD*%
G36*
X0014834292Y0034939079D02*
G01*
X0009828380Y0034939079D01*
X0009828380Y0035291856D01*
X0014834292Y0035291856D01*
G37*
%LPD*%
%LPD*%
G36*
X0020510481Y0027477835D02*
G01*
X0016651096Y0027477835D01*
X0016651096Y0027830613D01*
X0020510481Y0027830613D01*
G37*
%LPD*%
%LPD*%
G36*
X0012816405Y0011955628D02*
G01*
X0006716883Y0011955628D01*
X0006716883Y0012308405D01*
X0012816405Y0012308405D01*
G37*
%LPD*%
%LPD*%
G36*
X0022129729Y0012851682D02*
G01*
X0016725179Y0012851682D01*
X0016725179Y0013204460D01*
X0022129729Y0013204460D01*
G37*
%LPD*%
%LPD*%
G36*
X0016404151Y0005249328D02*
G01*
X0010526879Y0005249328D01*
X0010526879Y0005602106D01*
X0016404151Y0005602106D01*
G37*
%LPD*%
%LPD*%
G36*
X0009108714Y0010682101D02*
G01*
X0008755936Y0010682101D01*
X0008755936Y0013521960D01*
X0009108714Y0013521960D01*
G37*
%LPD*%
%LPD*%
G36*
X0018810094Y0011179517D02*
G01*
X0018457316Y0011179517D01*
X0018457316Y0014294542D01*
X0018810094Y0014294542D01*
G37*
%LPD*%
%LPD*%
G36*
X0013596043Y0005644439D02*
G01*
X0013243265Y0005644439D01*
X0013243265Y0009024047D01*
X0013596043Y0009024047D01*
G37*
%LPD*%
%LPD*%
G36*
X0009133408Y0026370114D02*
G01*
X0008780631Y0026370114D01*
X0008780631Y0029432223D01*
X0009133408Y0029432223D01*
G37*
%LPD*%
%LPD*%
G36*
X0018810094Y0027654224D02*
G01*
X0018457316Y0027654224D01*
X0018457316Y0029259362D01*
X0018810094Y0029259362D01*
G37*
%LPD*%
%LPD*%
G36*
X0012407183Y0032571942D02*
G01*
X0012054405Y0032571942D01*
X0012054405Y0034681551D01*
X0012407183Y0034681551D01*
G37*
%LPD*%
G36*
X0037860076Y0028680807D02*
G01*
X0035701078Y0028680807D01*
X0035701078Y0029746194D01*
X0036794688Y0029746194D01*
G37*
%LPD*%
G36*
X0033076414Y0028680807D02*
G01*
X0032755386Y0028680807D01*
X0028606723Y0024532144D01*
X0020140065Y0024532144D01*
X0020143592Y0025050727D01*
X0028310390Y0025050727D01*
X0033009386Y0029746194D01*
X0033076414Y0029746194D01*
G37*
%LPD*%
G36*
X0031749970Y0013148016D02*
G01*
X0033076414Y0013148016D01*
X0033076414Y0012851682D01*
X0033076675Y0012836200D01*
X0033079742Y0012805931D01*
X0033085727Y0012776630D01*
X0033094478Y0012748449D01*
X0033105847Y0012721535D01*
X0033119683Y0012696041D01*
X0033135837Y0012672115D01*
X0033154159Y0012649907D01*
X0033174499Y0012629567D01*
X0033196707Y0012611245D01*
X0033220633Y0012595091D01*
X0033246127Y0012581255D01*
X0033273041Y0012569886D01*
X0033301222Y0012561135D01*
X0033330523Y0012555150D01*
X0033360792Y0012552083D01*
X0033376274Y0012551822D01*
X0035401217Y0012551822D01*
X0035416699Y0012552083D01*
X0035446969Y0012555150D01*
X0035476269Y0012561135D01*
X0035504451Y0012569886D01*
X0035531364Y0012581255D01*
X0035556859Y0012595091D01*
X0035580785Y0012611245D01*
X0035602993Y0012629567D01*
X0035623332Y0012649907D01*
X0035641654Y0012672115D01*
X0035657808Y0012696041D01*
X0035671645Y0012721535D01*
X0035683013Y0012748449D01*
X0035691765Y0012776630D01*
X0035697749Y0012805931D01*
X0035700816Y0012836200D01*
X0035701078Y0012851682D01*
X0035701078Y0013148016D01*
X0038142298Y0013148016D01*
X0040650545Y0015659791D01*
X0040633651Y0015627848D01*
X0040602976Y0015562095D01*
X0040576187Y0015494213D01*
X0040553449Y0015424326D01*
X0040534928Y0015352558D01*
X0040520789Y0015279032D01*
X0040511198Y0015203874D01*
X0040506320Y0015127207D01*
X0040505907Y0015088291D01*
X0040506313Y0015049693D01*
X0040511122Y0014973529D01*
X0040520599Y0014898733D01*
X0040534606Y0014825443D01*
X0040553003Y0014753799D01*
X0040575650Y0014683940D01*
X0040602408Y0014616006D01*
X0040633137Y0014550137D01*
X0040667699Y0014486472D01*
X0040705952Y0014425150D01*
X0040747758Y0014366311D01*
X0040792978Y0014310095D01*
X0040841471Y0014256641D01*
X0040893098Y0014206089D01*
X0040947720Y0014158577D01*
X0041005197Y0014114247D01*
X0041035073Y0014093459D01*
X0040527073Y0014093459D01*
X0037644882Y0011211267D01*
X0035701078Y0011211267D01*
X0035701078Y0011542878D01*
X0035700816Y0011558360D01*
X0035697749Y0011588630D01*
X0035691765Y0011617930D01*
X0035683013Y0011646112D01*
X0035671645Y0011673025D01*
X0035657808Y0011698520D01*
X0035641654Y0011722446D01*
X0035623332Y0011744654D01*
X0035602993Y0011764994D01*
X0035580785Y0011783315D01*
X0035556859Y0011799469D01*
X0035531364Y0011813306D01*
X0035504451Y0011824675D01*
X0035476269Y0011833426D01*
X0035446969Y0011839410D01*
X0035416699Y0011842477D01*
X0035401217Y0011842739D01*
X0033376274Y0011842739D01*
X0033360792Y0011842477D01*
X0033330523Y0011839410D01*
X0033301222Y0011833426D01*
X0033273041Y0011824675D01*
X0033246127Y0011813306D01*
X0033220633Y0011799469D01*
X0033196707Y0011783315D01*
X0033174499Y0011764994D01*
X0033154159Y0011744654D01*
X0033135837Y0011722446D01*
X0033119683Y0011698520D01*
X0033105847Y0011673025D01*
X0033094478Y0011646112D01*
X0033085727Y0011617930D01*
X0033079742Y0011588630D01*
X0033076675Y0011558360D01*
X0033076414Y0011542878D01*
X0033076414Y0011211267D01*
X0032797719Y0011211267D01*
X0026080837Y0017928150D01*
X0020143592Y0017928150D01*
X0020143592Y0018457316D01*
X0026440670Y0018457316D01*
G37*
%LPD*%
G36*
X0030963277Y0015684485D02*
G01*
X0033076414Y0015684485D01*
X0033076414Y0015363458D01*
X0033076675Y0015347976D01*
X0033079742Y0015317706D01*
X0033085727Y0015288406D01*
X0033094478Y0015260224D01*
X0033105847Y0015233311D01*
X0033119683Y0015207816D01*
X0033135837Y0015183890D01*
X0033154159Y0015161682D01*
X0033174499Y0015141342D01*
X0033196707Y0015123021D01*
X0033220633Y0015106867D01*
X0033246127Y0015093030D01*
X0033273041Y0015081661D01*
X0033301222Y0015072910D01*
X0033330523Y0015066926D01*
X0033360792Y0015063859D01*
X0033376274Y0015063597D01*
X0035401217Y0015063597D01*
X0035416699Y0015063859D01*
X0035446969Y0015066926D01*
X0035476269Y0015072910D01*
X0035504451Y0015081661D01*
X0035531364Y0015093030D01*
X0035556859Y0015106867D01*
X0035580785Y0015123021D01*
X0035602993Y0015141342D01*
X0035623332Y0015161682D01*
X0035641654Y0015183890D01*
X0035657808Y0015207816D01*
X0035671645Y0015233311D01*
X0035683013Y0015260224D01*
X0035691765Y0015288406D01*
X0035697749Y0015317706D01*
X0035700816Y0015347976D01*
X0035701078Y0015363458D01*
X0035701078Y0015684485D01*
X0039863852Y0015684485D01*
X0037902409Y0013726571D01*
X0035701078Y0013726571D01*
X0035701078Y0014044070D01*
X0035700816Y0014059552D01*
X0035697749Y0014089822D01*
X0035691765Y0014119122D01*
X0035683013Y0014147304D01*
X0035671645Y0014174217D01*
X0035657808Y0014199712D01*
X0035641654Y0014223638D01*
X0035623332Y0014245846D01*
X0035602993Y0014266186D01*
X0035580785Y0014284508D01*
X0035556859Y0014300662D01*
X0035531364Y0014314498D01*
X0035504451Y0014325867D01*
X0035476269Y0014334618D01*
X0035446969Y0014340602D01*
X0035416699Y0014343669D01*
X0035401217Y0014343931D01*
X0033376274Y0014343931D01*
X0033360792Y0014343669D01*
X0033330523Y0014340602D01*
X0033301222Y0014334618D01*
X0033273041Y0014325867D01*
X0033246127Y0014314498D01*
X0033220633Y0014300662D01*
X0033196707Y0014284508D01*
X0033174499Y0014266186D01*
X0033154159Y0014245846D01*
X0033135837Y0014223638D01*
X0033119683Y0014199712D01*
X0033105847Y0014174217D01*
X0033094478Y0014147304D01*
X0033085727Y0014119122D01*
X0033079742Y0014089822D01*
X0033076675Y0014059552D01*
X0033076414Y0014044070D01*
X0033076414Y0013726571D01*
X0031986331Y0013726571D01*
X0026677031Y0019032343D01*
X0020140065Y0019032343D01*
X0020143592Y0019550926D01*
X0027096836Y0019550926D01*
G37*
%LPD*%
G36*
X0033076414Y0016263040D02*
G01*
X0031203165Y0016263040D01*
X0027336725Y0020129481D01*
X0020143592Y0020129481D01*
X0020143592Y0020478731D01*
X0033076414Y0020478731D01*
G37*
%LPD*%
G36*
X0026442044Y0021410063D02*
G01*
X0020143592Y0021410063D01*
X0020143592Y0021755785D01*
X0025938357Y0021755785D01*
G37*
%LPD*%
G36*
X0025100592Y0022330813D02*
G01*
X0020147120Y0022330813D01*
X0020140065Y0023953589D01*
X0022736347Y0023953589D01*
G37*
%LPD*%
G36*
X0020295008Y0025629282D02*
G01*
X0020143592Y0025629282D01*
X0020143938Y0025732973D01*
G37*
%LPD*%
G36*
X0044648935Y0008988332D02*
G01*
X0044546990Y0008983145D01*
X0039614039Y0012369036D01*
X0040763434Y0013518432D01*
X0043081182Y0013518432D01*
X0043624459Y0014061709D01*
X0043641395Y0014051546D01*
X0043675938Y0014032129D01*
X0043711254Y0014013825D01*
X0043747306Y0013996661D01*
X0043784058Y0013980662D01*
X0043821475Y0013965854D01*
X0043859519Y0013952263D01*
X0043898155Y0013939915D01*
X0043937346Y0013928835D01*
X0043977057Y0013919050D01*
X0044017251Y0013910586D01*
X0044057892Y0013903467D01*
X0044098943Y0013897721D01*
X0044140370Y0013893372D01*
X0044182134Y0013890448D01*
X0044224202Y0013888972D01*
X0044245348Y0013888848D01*
X0044276374Y0013889112D01*
X0044337770Y0013892236D01*
X0044398308Y0013898407D01*
X0044457916Y0013907549D01*
X0044516517Y0013919585D01*
X0044574037Y0013934437D01*
X0044630400Y0013952029D01*
X0044685532Y0013972284D01*
X0044739358Y0013995125D01*
X0044791803Y0014020475D01*
X0044842793Y0014048257D01*
X0044892251Y0014078395D01*
X0044940103Y0014110812D01*
X0044986275Y0014145430D01*
X0045030690Y0014182173D01*
X0045073276Y0014220965D01*
X0045113955Y0014261727D01*
X0045121974Y0014270565D01*
G37*
%LPD*%
G36*
X0045253568Y0015740025D02*
G01*
X0045223812Y0015784241D01*
X0045189298Y0015830572D01*
X0045152654Y0015875151D01*
X0045113955Y0015917901D01*
X0045073276Y0015958746D01*
X0045030690Y0015997610D01*
X0044986275Y0016034416D01*
X0044940103Y0016069089D01*
X0044892251Y0016101552D01*
X0044842793Y0016131729D01*
X0044791803Y0016159544D01*
X0044739358Y0016184920D01*
X0044685532Y0016207782D01*
X0044630400Y0016228053D01*
X0044574037Y0016245656D01*
X0044516517Y0016260516D01*
X0044457916Y0016272557D01*
X0044398308Y0016281702D01*
X0044337770Y0016287875D01*
X0044276374Y0016290999D01*
X0044245348Y0016291263D01*
X0044214321Y0016290999D01*
X0044152926Y0016287875D01*
X0044092387Y0016281702D01*
X0044032779Y0016272557D01*
X0043974178Y0016260516D01*
X0043916659Y0016245656D01*
X0043860295Y0016228053D01*
X0043805163Y0016207782D01*
X0043751337Y0016184920D01*
X0043698892Y0016159544D01*
X0043647903Y0016131729D01*
X0043598445Y0016101552D01*
X0043550592Y0016069089D01*
X0043504421Y0016034416D01*
X0043460005Y0015997610D01*
X0043417420Y0015958746D01*
X0043376740Y0015917901D01*
X0043338041Y0015875151D01*
X0043301397Y0015830572D01*
X0043266884Y0015784241D01*
X0043234576Y0015736234D01*
X0043204548Y0015686626D01*
X0043176875Y0015635495D01*
X0043151632Y0015582916D01*
X0043128895Y0015528966D01*
X0043108737Y0015473721D01*
X0043091234Y0015417257D01*
X0043076461Y0015359650D01*
X0043064493Y0015300976D01*
X0043055405Y0015241313D01*
X0043049271Y0015180735D01*
X0043046166Y0015119320D01*
X0043045904Y0015088291D01*
X0043046028Y0015067152D01*
X0043047504Y0015025163D01*
X0043050429Y0014983543D01*
X0043054777Y0014942318D01*
X0043060524Y0014901514D01*
X0043067642Y0014861157D01*
X0043076107Y0014821274D01*
X0043085891Y0014781888D01*
X0043096971Y0014743028D01*
X0043109319Y0014704717D01*
X0043122910Y0014666983D01*
X0043137718Y0014629851D01*
X0043153717Y0014593347D01*
X0043170881Y0014557497D01*
X0043198618Y0014504913D01*
X0043218765Y0014470931D01*
X0042841293Y0014093459D01*
X0042375627Y0014093459D01*
X0042405186Y0014114247D01*
X0042462159Y0014158577D01*
X0042516419Y0014206089D01*
X0042567812Y0014256641D01*
X0042616181Y0014310095D01*
X0042661372Y0014366311D01*
X0042703230Y0014425150D01*
X0042741599Y0014486472D01*
X0042776326Y0014550137D01*
X0042807254Y0014616006D01*
X0042834229Y0014683940D01*
X0042857096Y0014753799D01*
X0042875700Y0014825443D01*
X0042889885Y0014898733D01*
X0042899497Y0014973529D01*
X0042904380Y0015049693D01*
X0042904793Y0015088291D01*
X0042904366Y0015127876D01*
X0042899320Y0015205935D01*
X0042889388Y0015282530D01*
X0042874730Y0015357510D01*
X0042855506Y0015430725D01*
X0042831877Y0015502026D01*
X0042804003Y0015571262D01*
X0042772044Y0015638283D01*
X0042736159Y0015702941D01*
X0042696511Y0015765084D01*
X0042653258Y0015824564D01*
X0042606560Y0015881229D01*
X0042556579Y0015934932D01*
X0042503474Y0015985520D01*
X0042447405Y0016032845D01*
X0042388532Y0016076757D01*
X0042357988Y0016097235D01*
X0043063543Y0016097235D01*
X0043603293Y0016615818D01*
X0043620876Y0016604676D01*
X0043656590Y0016583437D01*
X0043692949Y0016563470D01*
X0043729945Y0016544794D01*
X0043767565Y0016527431D01*
X0043805800Y0016511401D01*
X0043844640Y0016496724D01*
X0043884075Y0016483423D01*
X0043924093Y0016471517D01*
X0043964685Y0016461026D01*
X0044005840Y0016451973D01*
X0044047548Y0016444376D01*
X0044089798Y0016438258D01*
X0044132581Y0016433638D01*
X0044175886Y0016430537D01*
X0044219702Y0016428977D01*
X0044241820Y0016428846D01*
X0044272848Y0016429109D01*
X0044334264Y0016432234D01*
X0044394841Y0016438405D01*
X0044454505Y0016447547D01*
X0044513178Y0016459582D01*
X0044570785Y0016474434D01*
X0044627249Y0016492026D01*
X0044682495Y0016512281D01*
X0044736445Y0016535122D01*
X0044789023Y0016560472D01*
X0044840155Y0016588255D01*
X0044889762Y0016618393D01*
X0044937769Y0016650809D01*
X0044984101Y0016685428D01*
X0045028679Y0016722171D01*
X0045071429Y0016760962D01*
X0045112274Y0016801724D01*
X0045151138Y0016844381D01*
X0045187944Y0016888855D01*
X0045222617Y0016935070D01*
X0045255080Y0016982948D01*
X0045285258Y0017032413D01*
X0045313072Y0017083388D01*
X0045338449Y0017135796D01*
X0045361310Y0017189560D01*
X0045381581Y0017244603D01*
X0045391003Y0017274707D01*
G37*
%LPD*%
G36*
X0033076414Y0021446781D02*
G01*
X0033076414Y0021410063D01*
X0026442044Y0021410063D01*
X0025938357Y0021755785D01*
X0031506554Y0021755785D01*
X0031851330Y0022099686D01*
G37*
%LPD*%
G36*
X0031321375Y0022382124D02*
G01*
X0031270193Y0022330813D01*
X0025100592Y0022330813D01*
X0022736347Y0023953589D01*
X0028372745Y0023953589D01*
G37*
%LPD*%
G36*
X0025228545Y0025629282D02*
G01*
X0020295008Y0025629282D01*
X0020143938Y0025732973D01*
X0020147120Y0026687614D01*
X0020146851Y0026702779D01*
X0020143709Y0026732545D01*
X0020137591Y0026761484D01*
X0020128661Y0026789430D01*
X0020117086Y0026816219D01*
X0020103030Y0026841685D01*
X0020086659Y0026865663D01*
X0020068138Y0026887987D01*
X0020047633Y0026908493D01*
X0020025309Y0026927013D01*
X0020001331Y0026943385D01*
X0019975865Y0026957441D01*
X0019949076Y0026969016D01*
X0019921129Y0026977946D01*
X0019892190Y0026984064D01*
X0019862425Y0026987206D01*
X0019847259Y0026987475D01*
X0019371010Y0026987475D01*
X0019379884Y0026992208D01*
X0019397054Y0027002681D01*
X0019413476Y0027014308D01*
X0019429096Y0027027033D01*
X0019443854Y0027040800D01*
X0019457696Y0027055551D01*
X0019470563Y0027071229D01*
X0019482400Y0027087779D01*
X0019493149Y0027105142D01*
X0019502753Y0027123262D01*
X0019511155Y0027142083D01*
X0019518299Y0027161547D01*
X0019524129Y0027181597D01*
X0019528586Y0027202177D01*
X0019531614Y0027223230D01*
X0019533156Y0027244699D01*
X0019533287Y0027255586D01*
X0019533287Y0028052863D01*
X0019533026Y0028068345D01*
X0019529959Y0028098614D01*
X0019523974Y0028127915D01*
X0019515223Y0028156097D01*
X0019503854Y0028183010D01*
X0019490018Y0028208504D01*
X0019473864Y0028232430D01*
X0019455542Y0028254638D01*
X0019435202Y0028274978D01*
X0019412994Y0028293300D01*
X0019389068Y0028309454D01*
X0019363573Y0028323290D01*
X0019336660Y0028334659D01*
X0019308479Y0028343411D01*
X0019279178Y0028349395D01*
X0019248909Y0028352462D01*
X0019233427Y0028352724D01*
X0018033983Y0028352724D01*
X0018018501Y0028352462D01*
X0017988232Y0028349395D01*
X0017958931Y0028343411D01*
X0017930749Y0028334659D01*
X0017903836Y0028323290D01*
X0017878342Y0028309454D01*
X0017854416Y0028293300D01*
X0017832208Y0028274978D01*
X0017811868Y0028254638D01*
X0017793546Y0028232430D01*
X0017777392Y0028208504D01*
X0017763555Y0028183010D01*
X0017752187Y0028156097D01*
X0017743435Y0028127915D01*
X0017737451Y0028098614D01*
X0017734384Y0028068345D01*
X0017734122Y0028052863D01*
X0017734122Y0027387029D01*
X0011230017Y0031851333D01*
X0011240223Y0031870081D01*
X0011266585Y0031924659D01*
X0011290335Y0031980655D01*
X0011311395Y0032037992D01*
X0011329685Y0032096589D01*
X0011345124Y0032156367D01*
X0011357635Y0032217247D01*
X0011367138Y0032279149D01*
X0011373552Y0032341994D01*
X0011376799Y0032405702D01*
X0011377073Y0032437886D01*
X0011376799Y0032470070D01*
X0011373552Y0032533779D01*
X0011367138Y0032596624D01*
X0011357635Y0032658526D01*
X0011345124Y0032719406D01*
X0011329685Y0032779184D01*
X0011311395Y0032837781D01*
X0011290335Y0032895118D01*
X0011266585Y0032951114D01*
X0011240223Y0033005691D01*
X0011211329Y0033058769D01*
X0011179984Y0033110269D01*
X0011173471Y0033119896D01*
G37*
%LPD*%
G36*
X0010110196Y0033686565D02*
G01*
X0010096056Y0033686445D01*
X0010032348Y0033683198D01*
X0009969503Y0033676783D01*
X0009907601Y0033667281D01*
X0009846721Y0033654770D01*
X0009786943Y0033639330D01*
X0009728346Y0033621041D01*
X0009671009Y0033599981D01*
X0009615013Y0033576231D01*
X0009560436Y0033549869D01*
X0009507358Y0033520975D01*
X0009455858Y0033489629D01*
X0009406016Y0033455911D01*
X0009357911Y0033419898D01*
X0009311624Y0033381672D01*
X0009267232Y0033341311D01*
X0009224816Y0033298895D01*
X0009184941Y0033255038D01*
X0005628596Y0035696050D01*
X0005681020Y0035739209D01*
X0005741773Y0035784547D01*
X0005804714Y0035826994D01*
X0005869745Y0035866451D01*
X0005936764Y0035902818D01*
X0005944617Y0035906599D01*
G37*
%LPD*%
G36*
X0036262566Y0020468210D02*
G01*
X0036272038Y0020447823D01*
X0036282973Y0020428290D01*
X0036295298Y0020409681D01*
X0036308940Y0020392070D01*
X0036323828Y0020375528D01*
X0036339889Y0020360128D01*
X0036357051Y0020345943D01*
X0036375241Y0020333045D01*
X0036394387Y0020321506D01*
X0036414417Y0020311398D01*
X0036435258Y0020302793D01*
X0036456838Y0020295765D01*
X0036479085Y0020290386D01*
X0036501926Y0020286727D01*
X0036525289Y0020284862D01*
X0036537160Y0020284703D01*
X0036964600Y0020284703D01*
X0036537160Y0019610898D01*
X0036521678Y0019610637D01*
X0035701078Y0020047973D01*
X0035701078Y0020478731D01*
X0036258466Y0020478731D01*
G37*
%LPD*%
G36*
X0033076414Y0022859979D02*
G01*
X0033076675Y0022844496D01*
X0033079742Y0022814227D01*
X0033085727Y0022784926D01*
X0033094478Y0022756745D01*
X0033105847Y0022729832D01*
X0033119683Y0022704337D01*
X0033135837Y0022680411D01*
X0033154159Y0022658203D01*
X0033174499Y0022637863D01*
X0033196707Y0022619541D01*
X0033220633Y0022603387D01*
X0033246127Y0022589551D01*
X0033273041Y0022578182D01*
X0033301222Y0022569431D01*
X0033330523Y0022563447D01*
X0033360792Y0022560380D01*
X0033376274Y0022560118D01*
X0035401217Y0022560118D01*
X0035416699Y0022560380D01*
X0035446969Y0022563447D01*
X0035476269Y0022569431D01*
X0035504451Y0022578182D01*
X0035531364Y0022589551D01*
X0035556859Y0022603387D01*
X0035580785Y0022619541D01*
X0035602993Y0022637863D01*
X0035623332Y0022658203D01*
X0035641654Y0022680411D01*
X0035657808Y0022704337D01*
X0035671645Y0022729832D01*
X0035683013Y0022756745D01*
X0035691765Y0022784926D01*
X0035697749Y0022814227D01*
X0035700816Y0022844496D01*
X0035701078Y0022859979D01*
X0035701078Y0023142201D01*
X0038322214Y0023142201D01*
X0038600663Y0022863752D01*
X0037734051Y0021497648D01*
X0037720631Y0021512303D01*
X0037704569Y0021527393D01*
X0037687408Y0021541252D01*
X0037669218Y0021553820D01*
X0037650072Y0021565034D01*
X0037630042Y0021574832D01*
X0037609201Y0021583152D01*
X0037587621Y0021589932D01*
X0037565374Y0021595110D01*
X0037542533Y0021598624D01*
X0037519170Y0021600412D01*
X0037507298Y0021600563D01*
X0036537160Y0021600563D01*
X0036525289Y0021600412D01*
X0036501926Y0021598624D01*
X0036479085Y0021595110D01*
X0036456838Y0021589932D01*
X0036435258Y0021583152D01*
X0036414417Y0021574832D01*
X0036394387Y0021565034D01*
X0036375241Y0021553820D01*
X0036357051Y0021541252D01*
X0036339889Y0021527393D01*
X0036323828Y0021512303D01*
X0036308940Y0021496046D01*
X0036295298Y0021478683D01*
X0036282973Y0021460276D01*
X0036272038Y0021440887D01*
X0036262566Y0021420578D01*
X0036258466Y0021410063D01*
X0035701078Y0021410063D01*
X0035701078Y0021540591D01*
X0035700816Y0021556073D01*
X0035697749Y0021586343D01*
X0035691765Y0021615643D01*
X0035683013Y0021643825D01*
X0035671645Y0021670738D01*
X0035657808Y0021696233D01*
X0035641654Y0021720159D01*
X0035623332Y0021742367D01*
X0035602993Y0021762706D01*
X0035580785Y0021781028D01*
X0035556859Y0021797182D01*
X0035531364Y0021811019D01*
X0035504451Y0021822387D01*
X0035476269Y0021831139D01*
X0035446969Y0021837123D01*
X0035416699Y0021840190D01*
X0035401217Y0021840452D01*
X0033376274Y0021840452D01*
X0033360792Y0021840190D01*
X0033330523Y0021837123D01*
X0033301222Y0021831139D01*
X0033273041Y0021822387D01*
X0033246127Y0021811019D01*
X0033220633Y0021797182D01*
X0033196707Y0021781028D01*
X0033174499Y0021762706D01*
X0033154159Y0021742367D01*
X0033135837Y0021720159D01*
X0033119683Y0021696233D01*
X0033105847Y0021670738D01*
X0033094478Y0021643825D01*
X0033085727Y0021615643D01*
X0033079742Y0021586343D01*
X0033076675Y0021556073D01*
X0033076414Y0021540591D01*
X0033076414Y0021446781D01*
X0031851330Y0022099686D01*
X0032896497Y0023142201D01*
X0033076414Y0023142201D01*
G37*
%LPD*%
G36*
X0017958931Y0014017118D02*
G01*
X0017930749Y0014008367D01*
X0017903836Y0013996998D01*
X0017878342Y0013983162D01*
X0017854416Y0013967008D01*
X0017832208Y0013948686D01*
X0017811868Y0013928346D01*
X0017793546Y0013906138D01*
X0017777392Y0013882212D01*
X0017763555Y0013856718D01*
X0017752187Y0013829804D01*
X0017743435Y0013801623D01*
X0017737451Y0013772322D01*
X0017734384Y0013742053D01*
X0017734122Y0013726571D01*
X0017734122Y0012326044D01*
X0017734384Y0012310562D01*
X0017737451Y0012280292D01*
X0017743435Y0012250992D01*
X0017752187Y0012222810D01*
X0017763555Y0012195897D01*
X0017777392Y0012170403D01*
X0017793546Y0012146476D01*
X0017811868Y0012124268D01*
X0017832208Y0012103929D01*
X0017854416Y0012085607D01*
X0017878342Y0012069453D01*
X0017903836Y0012055616D01*
X0017930749Y0012044248D01*
X0017958931Y0012035496D01*
X0017988232Y0012029512D01*
X0018018501Y0012026445D01*
X0018033983Y0012026183D01*
X0019233427Y0012026183D01*
X0019248909Y0012026445D01*
X0019279178Y0012029512D01*
X0019308479Y0012035496D01*
X0019336660Y0012044248D01*
X0019363573Y0012055616D01*
X0019389068Y0012069453D01*
X0019412994Y0012085607D01*
X0019435202Y0012103929D01*
X0019455542Y0012124268D01*
X0019473864Y0012146476D01*
X0019490018Y0012170403D01*
X0019503854Y0012195897D01*
X0019515223Y0012222810D01*
X0019523974Y0012250992D01*
X0019529959Y0012280292D01*
X0019533026Y0012310562D01*
X0019533287Y0012326044D01*
X0019533287Y0013726571D01*
X0019533026Y0013742053D01*
X0019529959Y0013772322D01*
X0019523974Y0013801623D01*
X0019515223Y0013829804D01*
X0019503854Y0013856718D01*
X0019490018Y0013882212D01*
X0019473864Y0013906138D01*
X0019455542Y0013928346D01*
X0019435202Y0013948686D01*
X0019412994Y0013967008D01*
X0019389068Y0013983162D01*
X0019363573Y0013996998D01*
X0019336660Y0014008367D01*
X0019308479Y0014017118D01*
X0019279178Y0014023103D01*
X0019248909Y0014026170D01*
X0019233427Y0014026431D01*
X0018033983Y0014026431D01*
X0022615694Y0017349595D01*
X0025844476Y0017349595D01*
X0032557831Y0010636240D01*
X0033076414Y0010636240D01*
X0033076414Y0010354018D01*
X0033076675Y0010338529D01*
X0033079742Y0010308182D01*
X0033085727Y0010278737D01*
X0033094478Y0010250354D01*
X0033105847Y0010223192D01*
X0033119683Y0010197414D01*
X0033135837Y0010173177D01*
X0033154159Y0010150644D01*
X0033174499Y0010129973D01*
X0033196707Y0010111326D01*
X0033220633Y0010094862D01*
X0033246127Y0010080741D01*
X0033273041Y0010069125D01*
X0033301222Y0010060172D01*
X0033330523Y0010054043D01*
X0033360792Y0010050898D01*
X0033376274Y0010050630D01*
X0035401217Y0010050630D01*
X0035416699Y0010050898D01*
X0035446969Y0010054043D01*
X0035476269Y0010060172D01*
X0035504451Y0010069125D01*
X0035531364Y0010080741D01*
X0035556859Y0010094862D01*
X0035580785Y0010111326D01*
X0035602993Y0010129973D01*
X0035623332Y0010150644D01*
X0035641654Y0010173177D01*
X0035657808Y0010197414D01*
X0035671645Y0010223192D01*
X0035683013Y0010250354D01*
X0035691765Y0010278737D01*
X0035697749Y0010308182D01*
X0035700816Y0010338529D01*
X0035701078Y0010354018D01*
X0035701078Y0010636240D01*
X0037881242Y0010636240D01*
X0039614039Y0012369036D01*
X0044546990Y0008983145D01*
X0044446415Y0008972896D01*
X0044347337Y0008957712D01*
X0044249886Y0008937718D01*
X0044154189Y0008913041D01*
X0044060373Y0008883806D01*
X0043968566Y0008850140D01*
X0043878897Y0008812168D01*
X0043791494Y0008770017D01*
X0043706484Y0008723812D01*
X0043623995Y0008673679D01*
X0043544155Y0008619744D01*
X0043467092Y0008562134D01*
X0043392933Y0008500974D01*
X0043321808Y0008436389D01*
X0043253843Y0008368507D01*
X0043189167Y0008297453D01*
X0043127907Y0008223353D01*
X0043070192Y0008146333D01*
X0043016149Y0008066519D01*
X0042965906Y0007984037D01*
X0042919591Y0007899012D01*
X0042877332Y0007811571D01*
X0042839256Y0007721841D01*
X0042805493Y0007629945D01*
X0042776169Y0007536012D01*
X0042751413Y0007440166D01*
X0042731352Y0007342534D01*
X0042716115Y0007243241D01*
X0042705829Y0007142414D01*
X0042700622Y0007040179D01*
X0042700182Y0006988521D01*
X0042700622Y0006936864D01*
X0042705829Y0006834628D01*
X0042716115Y0006733801D01*
X0042731352Y0006634509D01*
X0042751413Y0006536876D01*
X0042776169Y0006441031D01*
X0042805493Y0006347097D01*
X0042839256Y0006255202D01*
X0042877332Y0006165471D01*
X0042919591Y0006078030D01*
X0042965906Y0005993006D01*
X0043016149Y0005910524D01*
X0043070192Y0005830710D01*
X0043127907Y0005753689D01*
X0043189167Y0005679589D01*
X0043253843Y0005608535D01*
X0043321808Y0005540653D01*
X0043392933Y0005476069D01*
X0043467092Y0005414909D01*
X0043544155Y0005357298D01*
X0043623995Y0005303364D01*
X0043706484Y0005253231D01*
X0043791494Y0005207026D01*
X0043878897Y0005164874D01*
X0043968566Y0005126902D01*
X0044060373Y0005093236D01*
X0044154189Y0005064002D01*
X0044249886Y0005039324D01*
X0044347337Y0005019331D01*
X0044446415Y0005004147D01*
X0044546990Y0004993898D01*
X0044648935Y0004988711D01*
X0044700431Y0004988273D01*
X0044752088Y0004988711D01*
X0044854324Y0004993898D01*
X0044955151Y0005004147D01*
X0045054443Y0005019331D01*
X0045152075Y0005039324D01*
X0045247921Y0005064002D01*
X0045341855Y0005093236D01*
X0045433750Y0005126902D01*
X0045523481Y0005164874D01*
X0045610921Y0005207026D01*
X0045695946Y0005253231D01*
X0045778428Y0005303364D01*
X0045858242Y0005357298D01*
X0045935262Y0005414909D01*
X0046009362Y0005476069D01*
X0046080417Y0005540653D01*
X0046148299Y0005608535D01*
X0046212883Y0005679589D01*
X0046274043Y0005753689D01*
X0046331654Y0005830710D01*
X0046385588Y0005910524D01*
X0046435721Y0005993006D01*
X0046481926Y0006078030D01*
X0046524078Y0006165471D01*
X0046562049Y0006255202D01*
X0046595716Y0006347097D01*
X0046624950Y0006441031D01*
X0046649627Y0006536876D01*
X0046669621Y0006634509D01*
X0046684805Y0006733801D01*
X0046695054Y0006834628D01*
X0046700241Y0006936864D01*
X0046700679Y0006988521D01*
X0046700241Y0007040179D01*
X0046695054Y0007142414D01*
X0046684805Y0007243241D01*
X0046669621Y0007342534D01*
X0046649627Y0007440166D01*
X0046624950Y0007536012D01*
X0046595716Y0007629945D01*
X0046562049Y0007721841D01*
X0046524078Y0007811571D01*
X0046481926Y0007899012D01*
X0046435721Y0007984037D01*
X0046385588Y0008066519D01*
X0046331654Y0008146333D01*
X0046274043Y0008223353D01*
X0046212883Y0008297453D01*
X0046148299Y0008368507D01*
X0046080417Y0008436389D01*
X0046009362Y0008500974D01*
X0045935262Y0008562134D01*
X0045858242Y0008619744D01*
X0045778428Y0008673679D01*
X0045695946Y0008723812D01*
X0045610921Y0008770017D01*
X0045523481Y0008812168D01*
X0045433750Y0008850140D01*
X0045341855Y0008883806D01*
X0045247921Y0008913041D01*
X0045152075Y0008937718D01*
X0045054443Y0008957712D01*
X0044955151Y0008972896D01*
X0044854324Y0008983145D01*
X0044752088Y0008988332D01*
X0044700431Y0008988769D01*
X0044648935Y0008988332D01*
X0045121974Y0014270565D01*
X0045152654Y0014304383D01*
X0045189298Y0014348857D01*
X0045223812Y0014395072D01*
X0045256120Y0014442950D01*
X0045286147Y0014492415D01*
X0045313820Y0014543390D01*
X0045339063Y0014595798D01*
X0045361800Y0014649562D01*
X0045381958Y0014704605D01*
X0045399461Y0014760851D01*
X0045414234Y0014818223D01*
X0045426202Y0014876643D01*
X0045435291Y0014936035D01*
X0045441425Y0014996322D01*
X0045444529Y0015057427D01*
X0045444791Y0015088291D01*
X0045444529Y0015119320D01*
X0045441425Y0015180735D01*
X0045435291Y0015241313D01*
X0045426202Y0015300976D01*
X0045414234Y0015359650D01*
X0045399461Y0015417257D01*
X0045381958Y0015473721D01*
X0045361800Y0015528966D01*
X0045339063Y0015582916D01*
X0045313820Y0015635495D01*
X0045286147Y0015686626D01*
X0045256120Y0015736234D01*
X0045253568Y0015740025D01*
X0045391003Y0017274707D01*
X0045399185Y0017300849D01*
X0045414045Y0017358220D01*
X0045426085Y0017416641D01*
X0045435230Y0017476033D01*
X0045441403Y0017536319D01*
X0045444527Y0017597425D01*
X0045444791Y0017628289D01*
X0045444527Y0017659316D01*
X0045441403Y0017720711D01*
X0045435834Y0017775324D01*
X0046980276Y0035021487D01*
X0046985011Y0035024922D01*
X0046991988Y0035005897D01*
X0047015002Y0034932033D01*
X0047034429Y0034856671D01*
X0047050170Y0034779911D01*
X0047062125Y0034701852D01*
X0047070194Y0034622594D01*
X0047074278Y0034542235D01*
X0047074623Y0034501634D01*
X0047074623Y0005930189D01*
X0047074277Y0005889154D01*
X0047070191Y0005808525D01*
X0047062158Y0005729674D01*
X0047050315Y0005652654D01*
X0047034802Y0005577522D01*
X0047015756Y0005504332D01*
X0046993316Y0005433138D01*
X0046967619Y0005363997D01*
X0046938804Y0005296962D01*
X0046907010Y0005232090D01*
X0046872374Y0005169433D01*
X0046835034Y0005109048D01*
X0046795130Y0005050990D01*
X0046752798Y0004995313D01*
X0046708178Y0004942072D01*
X0046661408Y0004891322D01*
X0046612626Y0004843118D01*
X0046561969Y0004797516D01*
X0046509577Y0004754569D01*
X0046455587Y0004714333D01*
X0046400139Y0004676862D01*
X0046343369Y0004642212D01*
X0046285417Y0004610437D01*
X0046226420Y0004581593D01*
X0046166516Y0004555734D01*
X0046105845Y0004532916D01*
X0046044544Y0004513192D01*
X0045982751Y0004496619D01*
X0045920605Y0004483250D01*
X0045858244Y0004473141D01*
X0045795806Y0004466347D01*
X0045733429Y0004462922D01*
X0045702318Y0004462635D01*
X0014911903Y0004462635D01*
X0014911903Y0006282966D01*
X0014911634Y0006298449D01*
X0014908492Y0006328718D01*
X0014902374Y0006358019D01*
X0014893444Y0006386200D01*
X0014881868Y0006413113D01*
X0014867812Y0006438608D01*
X0014851441Y0006462534D01*
X0014832921Y0006484742D01*
X0014812415Y0006505082D01*
X0014790091Y0006523404D01*
X0014766113Y0006539558D01*
X0014740647Y0006553394D01*
X0014713858Y0006564763D01*
X0014685912Y0006573514D01*
X0014656973Y0006579498D01*
X0014627207Y0006582565D01*
X0014612042Y0006582827D01*
X0012230794Y0006582827D01*
X0012215312Y0006582565D01*
X0012185042Y0006579498D01*
X0012155742Y0006573514D01*
X0012127560Y0006564763D01*
X0012100647Y0006553394D01*
X0012075153Y0006539558D01*
X0012051226Y0006523404D01*
X0012029019Y0006505082D01*
X0012008679Y0006484742D01*
X0011990357Y0006462534D01*
X0011974203Y0006438608D01*
X0011960366Y0006413113D01*
X0011948998Y0006386200D01*
X0011940246Y0006358019D01*
X0011934262Y0006328718D01*
X0011931195Y0006298449D01*
X0011930933Y0006282966D01*
X0011930933Y0004462635D01*
X0006498161Y0004462635D01*
X0006459739Y0004462936D01*
X0006384016Y0004466518D01*
X0006309699Y0004473612D01*
X0006236857Y0004484147D01*
X0006165559Y0004498054D01*
X0006095874Y0004515260D01*
X0006027872Y0004535697D01*
X0005961621Y0004559293D01*
X0005897191Y0004585979D01*
X0005834651Y0004615683D01*
X0005774070Y0004648336D01*
X0005715516Y0004683868D01*
X0005659060Y0004722206D01*
X0005604769Y0004763282D01*
X0005552714Y0004807025D01*
X0005502964Y0004853364D01*
X0005455587Y0004902229D01*
X0005410653Y0004953550D01*
X0005368230Y0005007256D01*
X0005328389Y0005063277D01*
X0005291197Y0005121542D01*
X0005256725Y0005181981D01*
X0005225041Y0005244524D01*
X0005196214Y0005309099D01*
X0005170314Y0005375638D01*
X0005147409Y0005444069D01*
X0005127570Y0005514322D01*
X0005110864Y0005586326D01*
X0005097360Y0005660011D01*
X0005087130Y0005735307D01*
X0005080240Y0005812144D01*
X0005076760Y0005890450D01*
X0005076467Y0005930189D01*
X0005076467Y0034501634D01*
X0005076814Y0034542235D01*
X0005080918Y0034622594D01*
X0005089026Y0034701852D01*
X0005101037Y0034779911D01*
X0005116850Y0034856671D01*
X0005136364Y0034932033D01*
X0005148887Y0034972051D01*
X0005242060Y0034820408D01*
X0008455348Y0017828779D01*
X0008452509Y0017828490D01*
X0008402943Y0017820897D01*
X0008354181Y0017810897D01*
X0008306288Y0017798555D01*
X0008259330Y0017783932D01*
X0008213370Y0017767091D01*
X0008168474Y0017748094D01*
X0008124705Y0017727006D01*
X0008082129Y0017703887D01*
X0008040810Y0017678801D01*
X0008000813Y0017651810D01*
X0007962201Y0017622978D01*
X0007925041Y0017592366D01*
X0007889396Y0017560038D01*
X0007855331Y0017526055D01*
X0007822910Y0017490481D01*
X0007792199Y0017453379D01*
X0007763261Y0017414811D01*
X0007736162Y0017374839D01*
X0007710966Y0017333527D01*
X0007687738Y0017290936D01*
X0007666541Y0017247131D01*
X0007647442Y0017202172D01*
X0007630503Y0017156124D01*
X0007615791Y0017109048D01*
X0007603369Y0017061007D01*
X0007593303Y0017012064D01*
X0007585656Y0016962282D01*
X0007580494Y0016911723D01*
X0007577880Y0016860450D01*
X0007577660Y0016834540D01*
X0007577880Y0016808793D01*
X0007580494Y0016757830D01*
X0007585656Y0016707562D01*
X0007593303Y0016658052D01*
X0007603369Y0016609362D01*
X0007615791Y0016561557D01*
X0007630503Y0016514699D01*
X0007647442Y0016468853D01*
X0007666541Y0016424080D01*
X0007687738Y0016380445D01*
X0007710966Y0016338011D01*
X0007736162Y0016296841D01*
X0007763261Y0016256999D01*
X0007792199Y0016218547D01*
X0007822910Y0016181550D01*
X0007855331Y0016146069D01*
X0007889396Y0016112169D01*
X0007925041Y0016079914D01*
X0007962201Y0016049365D01*
X0008000813Y0016020587D01*
X0008040810Y0015993643D01*
X0008082129Y0015968596D01*
X0008124705Y0015945510D01*
X0008168474Y0015924447D01*
X0008213370Y0015905472D01*
X0008259330Y0015888647D01*
X0008306288Y0015874035D01*
X0008354181Y0015861700D01*
X0008402943Y0015851706D01*
X0008452509Y0015844116D01*
X0008502816Y0015838992D01*
X0008553799Y0015836398D01*
X0008579548Y0015836180D01*
X0008605294Y0015836398D01*
X0008656257Y0015838992D01*
X0008706525Y0015844116D01*
X0008756036Y0015851706D01*
X0008804725Y0015861700D01*
X0008826290Y0015867265D01*
X0009381223Y0012932821D01*
X0007930437Y0012932821D01*
X0007914955Y0012932559D01*
X0007884685Y0012929492D01*
X0007855385Y0012923508D01*
X0007827203Y0012914757D01*
X0007800290Y0012903388D01*
X0007774796Y0012889552D01*
X0007750869Y0012873398D01*
X0007728661Y0012855076D01*
X0007708322Y0012834736D01*
X0007690000Y0012812528D01*
X0007673846Y0012788602D01*
X0007660009Y0012763107D01*
X0007648641Y0012736194D01*
X0007639889Y0012708013D01*
X0007633905Y0012678712D01*
X0007630838Y0012648443D01*
X0007630576Y0012632960D01*
X0007630576Y0011631072D01*
X0007630838Y0011615590D01*
X0007633905Y0011585321D01*
X0007639889Y0011556020D01*
X0007648641Y0011527839D01*
X0007660009Y0011500926D01*
X0007673846Y0011475431D01*
X0007690000Y0011451505D01*
X0007708322Y0011429297D01*
X0007728661Y0011408957D01*
X0007750869Y0011390635D01*
X0007774796Y0011374481D01*
X0007800290Y0011360645D01*
X0007827203Y0011349276D01*
X0007855385Y0011340525D01*
X0007884685Y0011334540D01*
X0007914955Y0011331473D01*
X0007930437Y0011331212D01*
X0009684104Y0011331212D01*
X0010032348Y0009489720D01*
X0009969503Y0009483306D01*
X0009907601Y0009473804D01*
X0009846721Y0009461293D01*
X0009786943Y0009445853D01*
X0009728346Y0009427563D01*
X0009671009Y0009406504D01*
X0009615013Y0009382753D01*
X0009560436Y0009356391D01*
X0009507358Y0009327498D01*
X0009455858Y0009296152D01*
X0009406016Y0009262433D01*
X0009357911Y0009226421D01*
X0009311624Y0009188194D01*
X0009267232Y0009147834D01*
X0009224816Y0009105418D01*
X0009184455Y0009061026D01*
X0009146229Y0009014738D01*
X0009110216Y0008966634D01*
X0009076498Y0008916792D01*
X0009045152Y0008865292D01*
X0009016258Y0008812214D01*
X0008989896Y0008757637D01*
X0008966146Y0008701640D01*
X0008945086Y0008644304D01*
X0008926797Y0008585707D01*
X0008911357Y0008525928D01*
X0008898846Y0008465048D01*
X0008889343Y0008403146D01*
X0008882929Y0008340301D01*
X0008879682Y0008276593D01*
X0008879408Y0008244409D01*
X0008879682Y0008212061D01*
X0008882929Y0008148043D01*
X0008889343Y0008084907D01*
X0008898846Y0008022733D01*
X0008911357Y0007961600D01*
X0008926797Y0007901586D01*
X0008945086Y0007842771D01*
X0008966146Y0007785232D01*
X0008989896Y0007729050D01*
X0009016258Y0007674302D01*
X0009045152Y0007621068D01*
X0009076498Y0007569425D01*
X0009110216Y0007519454D01*
X0009146229Y0007471233D01*
X0009184455Y0007424841D01*
X0009224816Y0007380356D01*
X0009267232Y0007337857D01*
X0009311624Y0007297424D01*
X0009357911Y0007259134D01*
X0009406016Y0007223067D01*
X0009455858Y0007189302D01*
X0009507358Y0007157917D01*
X0009560436Y0007128991D01*
X0009615013Y0007102603D01*
X0009671009Y0007078832D01*
X0009728346Y0007057756D01*
X0009786943Y0007039455D01*
X0009846721Y0007024007D01*
X0009907601Y0007011491D01*
X0009969503Y0007001986D01*
X0010032348Y0006995570D01*
X0010096056Y0006992323D01*
X0010128241Y0006992049D01*
X0010160425Y0006992323D01*
X0010224133Y0006995570D01*
X0010286978Y0007001986D01*
X0010348880Y0007011491D01*
X0010409760Y0007024007D01*
X0010469538Y0007039455D01*
X0010528135Y0007057756D01*
X0010585472Y0007078832D01*
X0010641468Y0007102603D01*
X0010696045Y0007128991D01*
X0010749124Y0007157917D01*
X0010800623Y0007189302D01*
X0010850465Y0007223067D01*
X0010898570Y0007259134D01*
X0010944858Y0007297424D01*
X0010989249Y0007337857D01*
X0011031665Y0007380356D01*
X0011072026Y0007424841D01*
X0011110252Y0007471233D01*
X0011146265Y0007519454D01*
X0011179984Y0007569425D01*
X0011211329Y0007621068D01*
X0011240223Y0007674302D01*
X0011266585Y0007729050D01*
X0011290335Y0007785232D01*
X0011311395Y0007842771D01*
X0011329685Y0007901586D01*
X0011345124Y0007961600D01*
X0011357635Y0008022733D01*
X0011367138Y0008084907D01*
X0011373552Y0008148043D01*
X0011376799Y0008212061D01*
X0011377073Y0008244409D01*
X0011376799Y0008276593D01*
X0011373552Y0008340301D01*
X0011367138Y0008403146D01*
X0011357635Y0008465048D01*
X0011345124Y0008525928D01*
X0011329685Y0008585707D01*
X0011311395Y0008644304D01*
X0011290335Y0008701640D01*
X0011266585Y0008757637D01*
X0011240223Y0008812214D01*
X0011211329Y0008865292D01*
X0011179984Y0008916792D01*
X0011146265Y0008966634D01*
X0011110252Y0009014738D01*
X0011072026Y0009061026D01*
X0011031665Y0009105418D01*
X0010989249Y0009147834D01*
X0010944858Y0009188194D01*
X0010898570Y0009226421D01*
X0010850465Y0009262433D01*
X0010800623Y0009296152D01*
X0010749124Y0009327498D01*
X0010696045Y0009356391D01*
X0010641468Y0009382753D01*
X0010585472Y0009406504D01*
X0010528135Y0009427563D01*
X0010469538Y0009445853D01*
X0010409760Y0009461293D01*
X0010348880Y0009473804D01*
X0010286978Y0009483306D01*
X0010224133Y0009489720D01*
X0010160425Y0009492967D01*
X0010128241Y0009493241D01*
X0010096056Y0009492967D01*
X0017555920Y0014779041D01*
X0018018501Y0014026170D01*
X0017988232Y0014023103D01*
G37*
%LPD*%
G36*
X0018033983Y0014026431D02*
G01*
X0018018501Y0014026170D01*
X0017555920Y0014779041D01*
X0021183562Y0017349595D01*
X0022615694Y0017349595D01*
G37*
%LPD*%
G36*
X0005242060Y0034820408D02*
G01*
X0005148887Y0034972051D01*
X0005159479Y0035005897D01*
X0005186094Y0035078163D01*
X0005191093Y0035089918D01*
G37*
%LPD*%
G36*
X0046985011Y0035024922D02*
G01*
X0046980276Y0035021487D01*
X0046981452Y0035034626D01*
G37*
%LPD*%
G36*
X0008402943Y0025772500D02*
G01*
X0008354181Y0025762501D01*
X0008306288Y0025750158D01*
X0008259330Y0025735535D01*
X0008213370Y0025718694D01*
X0008168474Y0025699698D01*
X0008124705Y0025678609D01*
X0008082129Y0025655491D01*
X0008040810Y0025630405D01*
X0008000813Y0025603414D01*
X0007962201Y0025574581D01*
X0007925041Y0025543970D01*
X0007889396Y0025511641D01*
X0007855331Y0025477659D01*
X0007822910Y0025442085D01*
X0007792199Y0025404983D01*
X0007763261Y0025366414D01*
X0007736162Y0025326443D01*
X0007710966Y0025285130D01*
X0007687738Y0025242540D01*
X0007666541Y0025198734D01*
X0007647442Y0025153776D01*
X0007630503Y0025107727D01*
X0007615791Y0025060651D01*
X0007603369Y0025012611D01*
X0007593303Y0024963668D01*
X0007585656Y0024913886D01*
X0007580494Y0024863327D01*
X0007577880Y0024812054D01*
X0007577660Y0024786144D01*
X0007577880Y0024760397D01*
X0007580494Y0024709434D01*
X0007585656Y0024659166D01*
X0007593303Y0024609655D01*
X0007603369Y0024560966D01*
X0007615791Y0024513161D01*
X0007630503Y0024466303D01*
X0007647442Y0024420456D01*
X0007666541Y0024375684D01*
X0007687738Y0024332049D01*
X0007710966Y0024289615D01*
X0007736162Y0024248445D01*
X0007763261Y0024208603D01*
X0007792199Y0024170151D01*
X0007822910Y0024133153D01*
X0007855331Y0024097673D01*
X0007889396Y0024063773D01*
X0007925041Y0024031517D01*
X0007962201Y0024000969D01*
X0008000813Y0023972191D01*
X0008040810Y0023945247D01*
X0008082129Y0023920200D01*
X0008124705Y0023897114D01*
X0008168474Y0023876051D01*
X0008213370Y0023857075D01*
X0008259330Y0023840250D01*
X0008306288Y0023825639D01*
X0008354181Y0023813304D01*
X0008402943Y0023803310D01*
X0008452509Y0023795719D01*
X0008502816Y0023790596D01*
X0008553799Y0023788002D01*
X0008579548Y0023787783D01*
X0008605294Y0023788002D01*
X0008656257Y0023790596D01*
X0008706525Y0023795719D01*
X0008756036Y0023803310D01*
X0008804725Y0023813304D01*
X0008852530Y0023825639D01*
X0008899388Y0023840250D01*
X0008945235Y0023857075D01*
X0008990007Y0023876051D01*
X0009033642Y0023897114D01*
X0009076076Y0023920200D01*
X0009117246Y0023945247D01*
X0009157088Y0023972191D01*
X0009195540Y0024000969D01*
X0009232538Y0024031517D01*
X0009268018Y0024063773D01*
X0009301918Y0024097673D01*
X0009334174Y0024133153D01*
X0009364722Y0024170151D01*
X0009393500Y0024208603D01*
X0009420444Y0024248445D01*
X0009445491Y0024289615D01*
X0009468578Y0024332049D01*
X0009489640Y0024375684D01*
X0009508616Y0024420456D01*
X0009525441Y0024466303D01*
X0009540052Y0024513161D01*
X0009552387Y0024560966D01*
X0009562381Y0024609655D01*
X0009569972Y0024659166D01*
X0009575095Y0024709434D01*
X0009577689Y0024760397D01*
X0009577908Y0024786144D01*
X0009577689Y0024812054D01*
X0009575095Y0024863327D01*
X0009569972Y0024913886D01*
X0009562381Y0024963668D01*
X0009552387Y0025012611D01*
X0009540052Y0025060651D01*
X0009525441Y0025107727D01*
X0009508616Y0025153776D01*
X0009489640Y0025198734D01*
X0009468578Y0025242540D01*
X0009445491Y0025285130D01*
X0009420444Y0025326443D01*
X0009393500Y0025366414D01*
X0009364722Y0025404983D01*
X0009334174Y0025442085D01*
X0009301918Y0025477659D01*
X0009268018Y0025511641D01*
X0009232538Y0025543970D01*
X0009195540Y0025574581D01*
X0009157088Y0025603414D01*
X0009117246Y0025630405D01*
X0009076076Y0025655491D01*
X0009033642Y0025678609D01*
X0008990007Y0025699698D01*
X0008945235Y0025718694D01*
X0008899388Y0025735535D01*
X0008852530Y0025750158D01*
X0008804725Y0025762501D01*
X0008756036Y0025772500D01*
X0008706525Y0025780094D01*
X0008656257Y0025785219D01*
X0008605294Y0025787813D01*
X0008579548Y0025788032D01*
X0008553799Y0025787813D01*
X0009858138Y0026811086D01*
X0009930685Y0026811086D01*
X0009946167Y0026811348D01*
X0009976437Y0026814415D01*
X0010005737Y0026820399D01*
X0010033919Y0026829150D01*
X0010060832Y0026840519D01*
X0010086327Y0026854356D01*
X0010110253Y0026870510D01*
X0010132461Y0026888832D01*
X0010152801Y0026909171D01*
X0010171122Y0026931379D01*
X0010187277Y0026955305D01*
X0010201113Y0026980800D01*
X0010212482Y0027007713D01*
X0010221233Y0027035895D01*
X0010227217Y0027065195D01*
X0010230284Y0027095465D01*
X0010230414Y0027103142D01*
X0013924962Y0030001570D01*
X0017734122Y0027387029D01*
X0017734122Y0027255586D01*
X0017734384Y0027240097D01*
X0017737451Y0027209750D01*
X0017743435Y0027180304D01*
X0017752187Y0027151921D01*
X0017763555Y0027124760D01*
X0017777392Y0027098981D01*
X0017793546Y0027074745D01*
X0017811868Y0027052212D01*
X0017832208Y0027031541D01*
X0017854416Y0027012894D01*
X0017878342Y0026996429D01*
X0017903836Y0026982309D01*
X0017930749Y0026970692D01*
X0017958931Y0026961739D01*
X0017988232Y0026955610D01*
X0018018501Y0026952466D01*
X0018033983Y0026952197D01*
X0018309150Y0026952197D01*
X0018300275Y0026947464D01*
X0018283106Y0026936994D01*
X0018266683Y0026925377D01*
X0018251064Y0026912675D01*
X0018236305Y0026898950D01*
X0018222463Y0026884263D01*
X0018209596Y0026868678D01*
X0018197759Y0026852255D01*
X0018187011Y0026835057D01*
X0018177407Y0026817146D01*
X0018169004Y0026798584D01*
X0018161860Y0026779433D01*
X0018156031Y0026759754D01*
X0018151574Y0026739611D01*
X0018148545Y0026719064D01*
X0018147003Y0026698177D01*
X0018146872Y0026687614D01*
X0018146872Y0017384873D01*
X0018147134Y0017369707D01*
X0018150201Y0017339942D01*
X0018156185Y0017311003D01*
X0018164936Y0017283056D01*
X0018176305Y0017256267D01*
X0018190141Y0017230801D01*
X0018206295Y0017206823D01*
X0018224617Y0017184499D01*
X0018244957Y0017163994D01*
X0018267165Y0017145473D01*
X0018291091Y0017129102D01*
X0018316586Y0017115046D01*
X0018343499Y0017103471D01*
X0018371681Y0017094541D01*
X0018400981Y0017088422D01*
X0018431251Y0017085281D01*
X0018446733Y0017085012D01*
X0019847259Y0017085012D01*
X0019861432Y0017085239D01*
X0019889234Y0017087906D01*
X0019916271Y0017093115D01*
X0019942420Y0017100742D01*
X0019967555Y0017110664D01*
X0019991554Y0017122756D01*
X0020014291Y0017136895D01*
X0020035644Y0017152956D01*
X0020055488Y0017170815D01*
X0020073698Y0017190349D01*
X0020090152Y0017211433D01*
X0020104725Y0017233943D01*
X0020117292Y0017257756D01*
X0020127731Y0017282746D01*
X0020135917Y0017308791D01*
X0020141725Y0017335766D01*
X0020143592Y0017349595D01*
X0021183562Y0017349595D01*
X0010096056Y0009492967D01*
X0010032348Y0009489720D01*
X0009684104Y0011331212D01*
X0009930685Y0011331212D01*
X0009946167Y0011331473D01*
X0009976437Y0011334540D01*
X0010005737Y0011340525D01*
X0010033919Y0011349276D01*
X0010060832Y0011360645D01*
X0010086327Y0011374481D01*
X0010110253Y0011390635D01*
X0010132461Y0011408957D01*
X0010152801Y0011429297D01*
X0010171122Y0011451505D01*
X0010187277Y0011475431D01*
X0010201113Y0011500926D01*
X0010212482Y0011527839D01*
X0010221233Y0011556020D01*
X0010227217Y0011585321D01*
X0010230284Y0011615590D01*
X0010230546Y0011631072D01*
X0010230546Y0012632960D01*
X0010230284Y0012648443D01*
X0010227217Y0012678712D01*
X0010221233Y0012708013D01*
X0010212482Y0012736194D01*
X0010201113Y0012763107D01*
X0010187277Y0012788602D01*
X0010171122Y0012812528D01*
X0010152801Y0012834736D01*
X0010132461Y0012855076D01*
X0010110253Y0012873398D01*
X0010086327Y0012889552D01*
X0010060832Y0012903388D01*
X0010033919Y0012914757D01*
X0010005737Y0012923508D01*
X0009976437Y0012929492D01*
X0009946167Y0012932559D01*
X0009930685Y0012932821D01*
X0009381223Y0012932821D01*
X0008826290Y0015867265D01*
X0008852530Y0015874035D01*
X0008899388Y0015888647D01*
X0008945235Y0015905472D01*
X0008990007Y0015924447D01*
X0009033642Y0015945510D01*
X0009076076Y0015968596D01*
X0009117246Y0015993643D01*
X0009157088Y0016020587D01*
X0009195540Y0016049365D01*
X0009232538Y0016079914D01*
X0009268018Y0016112169D01*
X0009301918Y0016146069D01*
X0009334174Y0016181550D01*
X0009364722Y0016218547D01*
X0009393500Y0016256999D01*
X0009420444Y0016296841D01*
X0009445491Y0016338011D01*
X0009468578Y0016380445D01*
X0009489640Y0016424080D01*
X0009508616Y0016468853D01*
X0009525441Y0016514699D01*
X0009540052Y0016561557D01*
X0009552387Y0016609362D01*
X0009562381Y0016658052D01*
X0009569972Y0016707562D01*
X0009575095Y0016757830D01*
X0009577689Y0016808793D01*
X0009577908Y0016834540D01*
X0009577689Y0016860450D01*
X0009575095Y0016911723D01*
X0009569972Y0016962282D01*
X0009562381Y0017012064D01*
X0009552387Y0017061007D01*
X0009540052Y0017109048D01*
X0009525441Y0017156124D01*
X0009508616Y0017202172D01*
X0009489640Y0017247131D01*
X0009468578Y0017290936D01*
X0009445491Y0017333527D01*
X0009420444Y0017374839D01*
X0009393500Y0017414811D01*
X0009364722Y0017453379D01*
X0009334174Y0017490481D01*
X0009301918Y0017526055D01*
X0009268018Y0017560038D01*
X0009232538Y0017592366D01*
X0009195540Y0017622978D01*
X0009157088Y0017651810D01*
X0009117246Y0017678801D01*
X0009076076Y0017703887D01*
X0009033642Y0017727006D01*
X0008990007Y0017748094D01*
X0008945235Y0017767091D01*
X0008899388Y0017783932D01*
X0008852530Y0017798555D01*
X0008804725Y0017810897D01*
X0008756036Y0017820897D01*
X0008706525Y0017828490D01*
X0008656257Y0017833615D01*
X0008605294Y0017836209D01*
X0008579548Y0017836428D01*
X0008553799Y0017836209D01*
X0008502816Y0017833615D01*
X0008455348Y0017828779D01*
X0005191093Y0035089918D01*
X0005216107Y0035148732D01*
X0005249419Y0035217505D01*
X0005285929Y0035284382D01*
X0005313539Y0035329613D01*
X0007674089Y0028265310D01*
X0007673846Y0028264949D01*
X0007660009Y0028239454D01*
X0007648641Y0028212541D01*
X0007639889Y0028184359D01*
X0007633905Y0028155059D01*
X0007630838Y0028124789D01*
X0007630576Y0028109307D01*
X0007630576Y0027110947D01*
X0007630838Y0027095465D01*
X0007633905Y0027065195D01*
X0007639889Y0027035895D01*
X0007648641Y0027007713D01*
X0007660009Y0026980800D01*
X0007673846Y0026955305D01*
X0007690000Y0026931379D01*
X0007708322Y0026909171D01*
X0007728661Y0026888832D01*
X0007750869Y0026870510D01*
X0007774796Y0026854356D01*
X0007800290Y0026840519D01*
X0007827203Y0026829150D01*
X0007855385Y0026820399D01*
X0007884685Y0026814415D01*
X0007914955Y0026811348D01*
X0007930437Y0026811086D01*
X0008160021Y0026811086D01*
X0008502816Y0025785219D01*
X0008452509Y0025780094D01*
G37*
%LPD*%
G36*
X0008553799Y0025787813D02*
G01*
X0008502816Y0025785219D01*
X0008160021Y0026811086D01*
X0009858138Y0026811086D01*
G37*
%LPD*%
G36*
X0009184941Y0033255038D02*
G01*
X0009184455Y0033254503D01*
X0009146229Y0033208216D01*
X0009110216Y0033160111D01*
X0009076498Y0033110269D01*
X0009045152Y0033058769D01*
X0009016258Y0033005691D01*
X0008989896Y0032951114D01*
X0008966146Y0032895118D01*
X0008945086Y0032837781D01*
X0008926797Y0032779184D01*
X0008911357Y0032719406D01*
X0008898846Y0032658526D01*
X0008889343Y0032596624D01*
X0008882929Y0032533779D01*
X0008879682Y0032470070D01*
X0008879408Y0032437886D01*
X0008879682Y0032405702D01*
X0008882929Y0032341994D01*
X0008889343Y0032279149D01*
X0008898846Y0032217247D01*
X0008911357Y0032156367D01*
X0008926797Y0032096589D01*
X0008945086Y0032037992D01*
X0008966146Y0031980655D01*
X0008989896Y0031924659D01*
X0009016258Y0031870081D01*
X0009045152Y0031817003D01*
X0009076498Y0031765504D01*
X0009110216Y0031715662D01*
X0009146229Y0031667557D01*
X0009184455Y0031621269D01*
X0009224816Y0031576878D01*
X0009267232Y0031534462D01*
X0009311624Y0031494101D01*
X0009357911Y0031455875D01*
X0009406016Y0031419862D01*
X0009455858Y0031386143D01*
X0009507358Y0031354798D01*
X0009560436Y0031325904D01*
X0009615013Y0031299542D01*
X0009671009Y0031275792D01*
X0009728346Y0031254732D01*
X0009786943Y0031236442D01*
X0009846721Y0031221003D01*
X0009907601Y0031208492D01*
X0009969503Y0031198989D01*
X0010032348Y0031192575D01*
X0010096056Y0031189328D01*
X0010128241Y0031189054D01*
X0010160425Y0031189328D01*
X0010224133Y0031192575D01*
X0010286978Y0031198989D01*
X0010348880Y0031208492D01*
X0010409760Y0031221003D01*
X0010469538Y0031236442D01*
X0010528135Y0031254732D01*
X0010585472Y0031275792D01*
X0010641468Y0031299542D01*
X0010696045Y0031325904D01*
X0010749124Y0031354798D01*
X0010800623Y0031386143D01*
X0010850465Y0031419862D01*
X0010898570Y0031455875D01*
X0010944858Y0031494101D01*
X0010989249Y0031534462D01*
X0011031665Y0031576878D01*
X0011072026Y0031621269D01*
X0011110252Y0031667557D01*
X0011146265Y0031715662D01*
X0011179984Y0031765504D01*
X0011211329Y0031817003D01*
X0011230017Y0031851333D01*
X0013924962Y0030001570D01*
X0010230414Y0027103142D01*
X0010230546Y0027110947D01*
X0010230546Y0028109307D01*
X0010230284Y0028124789D01*
X0010227217Y0028155059D01*
X0010221233Y0028184359D01*
X0010212482Y0028212541D01*
X0010201113Y0028239454D01*
X0010187277Y0028264949D01*
X0010171122Y0028288875D01*
X0010152801Y0028311083D01*
X0010132461Y0028331423D01*
X0010110253Y0028349744D01*
X0010086327Y0028365898D01*
X0010060832Y0028379735D01*
X0010033919Y0028391104D01*
X0010005737Y0028399855D01*
X0009976437Y0028405839D01*
X0009946167Y0028408906D01*
X0009930685Y0028409168D01*
X0007930437Y0028409168D01*
X0007914955Y0028408906D01*
X0007884685Y0028405839D01*
X0007855385Y0028399855D01*
X0007827203Y0028391104D01*
X0007800290Y0028379735D01*
X0007774796Y0028365898D01*
X0007750869Y0028349744D01*
X0007728661Y0028331423D01*
X0007708322Y0028311083D01*
X0007690000Y0028288875D01*
X0007674089Y0028265310D01*
X0005313539Y0035329613D01*
X0005325535Y0035349264D01*
X0005368137Y0035412051D01*
X0005413634Y0035472643D01*
X0005461925Y0035530942D01*
X0005512911Y0035586847D01*
X0005566489Y0035640260D01*
X0005622559Y0035691080D01*
X0005628596Y0035696050D01*
G37*
%LPD*%
G36*
X0044030171Y0021352552D02*
G01*
X0043971751Y0021340512D01*
X0043914380Y0021325651D01*
X0043858134Y0021308048D01*
X0043803090Y0021287777D01*
X0043749326Y0021264916D01*
X0043696918Y0021239539D01*
X0043645943Y0021211724D01*
X0043596478Y0021181547D01*
X0043548600Y0021149084D01*
X0043502386Y0021114411D01*
X0043457912Y0021077605D01*
X0043415255Y0021038741D01*
X0043374493Y0020997896D01*
X0043335702Y0020955146D01*
X0043298958Y0020910567D01*
X0043264340Y0020864236D01*
X0043231924Y0020816229D01*
X0043201786Y0020766622D01*
X0043174003Y0020715490D01*
X0043148653Y0020662912D01*
X0043125812Y0020608961D01*
X0043105557Y0020553716D01*
X0043087965Y0020497252D01*
X0043073113Y0020439645D01*
X0043061078Y0020380972D01*
X0043051936Y0020321308D01*
X0043045764Y0020260730D01*
X0043042640Y0020199315D01*
X0043042377Y0020168287D01*
X0043042640Y0020137422D01*
X0043045764Y0020076317D01*
X0043051936Y0020016030D01*
X0043061078Y0019956638D01*
X0043073113Y0019898218D01*
X0043087965Y0019840847D01*
X0043105557Y0019784601D01*
X0043125812Y0019729557D01*
X0043148653Y0019675793D01*
X0043174003Y0019623385D01*
X0043201786Y0019572410D01*
X0043231924Y0019522945D01*
X0043264340Y0019475067D01*
X0043298958Y0019428853D01*
X0043335702Y0019384379D01*
X0043374493Y0019341722D01*
X0043415255Y0019300960D01*
X0043457912Y0019262169D01*
X0043502386Y0019225425D01*
X0043548600Y0019190807D01*
X0043596478Y0019158390D01*
X0043645943Y0019128252D01*
X0043696918Y0019100470D01*
X0043749326Y0019075120D01*
X0043803090Y0019052279D01*
X0043858134Y0019032024D01*
X0043914380Y0019014432D01*
X0043971751Y0018999580D01*
X0044030171Y0018987544D01*
X0044089563Y0018978403D01*
X0044149850Y0018972231D01*
X0044210955Y0018969107D01*
X0044241820Y0018968843D01*
X0044272848Y0018969107D01*
X0044334264Y0018972231D01*
X0044394841Y0018978403D01*
X0044454505Y0018987544D01*
X0044513178Y0018999580D01*
X0044570785Y0019014432D01*
X0044627249Y0019032024D01*
X0044682495Y0019052279D01*
X0044736445Y0019075120D01*
X0044789023Y0019100470D01*
X0044840155Y0019128252D01*
X0044889762Y0019158390D01*
X0044937769Y0019190807D01*
X0044984101Y0019225425D01*
X0045028679Y0019262169D01*
X0045071429Y0019300960D01*
X0045112274Y0019341722D01*
X0045151138Y0019384379D01*
X0045187944Y0019428853D01*
X0045222617Y0019475067D01*
X0045255080Y0019522945D01*
X0045285258Y0019572410D01*
X0045313072Y0019623385D01*
X0045338449Y0019675793D01*
X0045361310Y0019729557D01*
X0045381581Y0019784601D01*
X0045399185Y0019840847D01*
X0045414045Y0019898218D01*
X0045426085Y0019956638D01*
X0045435230Y0020016030D01*
X0045441403Y0020076317D01*
X0045444527Y0020137422D01*
X0045444791Y0020168287D01*
X0045444527Y0020199315D01*
X0045441403Y0020260730D01*
X0045435230Y0020321308D01*
X0045426085Y0020380972D01*
X0045414045Y0020439645D01*
X0045399185Y0020497252D01*
X0045381581Y0020553716D01*
X0045361310Y0020608961D01*
X0045338449Y0020662912D01*
X0045313072Y0020715490D01*
X0045285258Y0020766622D01*
X0045255080Y0020816229D01*
X0045222617Y0020864236D01*
X0045187944Y0020910567D01*
X0045151138Y0020955146D01*
X0045112274Y0020997896D01*
X0045071429Y0021038741D01*
X0045028679Y0021077605D01*
X0044984101Y0021114411D01*
X0044937769Y0021149084D01*
X0044889762Y0021181547D01*
X0044840155Y0021211724D01*
X0044789023Y0021239539D01*
X0044736445Y0021264916D01*
X0044682495Y0021287777D01*
X0044627249Y0021308048D01*
X0044570785Y0021325651D01*
X0044513178Y0021340512D01*
X0044454505Y0021352552D01*
X0044394841Y0021361697D01*
X0044334264Y0021367870D01*
X0044272848Y0021370994D01*
X0044241820Y0021371258D01*
X0044210955Y0021370994D01*
X0044237866Y0021508875D01*
X0044241820Y0021508841D01*
X0044272846Y0021509105D01*
X0044334242Y0021512229D01*
X0044394781Y0021518400D01*
X0044454388Y0021527542D01*
X0044512989Y0021539578D01*
X0044570509Y0021554430D01*
X0044626872Y0021572022D01*
X0044682004Y0021592276D01*
X0044735831Y0021615117D01*
X0044788276Y0021640468D01*
X0044839265Y0021668250D01*
X0044888723Y0021698388D01*
X0044936575Y0021730805D01*
X0044982747Y0021765423D01*
X0045027163Y0021802166D01*
X0045069748Y0021840957D01*
X0045110428Y0021881720D01*
X0045149127Y0021924376D01*
X0045185770Y0021968850D01*
X0045220284Y0022015065D01*
X0045252592Y0022062943D01*
X0045282620Y0022112408D01*
X0045310292Y0022163383D01*
X0045335535Y0022215791D01*
X0045358273Y0022269555D01*
X0045378430Y0022324598D01*
X0045395933Y0022380844D01*
X0045410706Y0022438216D01*
X0045422674Y0022496636D01*
X0045431763Y0022556028D01*
X0045437897Y0022616315D01*
X0045441001Y0022677420D01*
X0045441263Y0022708284D01*
X0045441001Y0022739311D01*
X0045437897Y0022800706D01*
X0045431763Y0022861245D01*
X0045422674Y0022920853D01*
X0045410706Y0022979454D01*
X0045395933Y0023036973D01*
X0045378430Y0023093337D01*
X0045358273Y0023148469D01*
X0045335535Y0023202295D01*
X0045310292Y0023254740D01*
X0045282620Y0023305729D01*
X0045252592Y0023355187D01*
X0045220284Y0023403040D01*
X0045185770Y0023449211D01*
X0045149127Y0023493627D01*
X0045110428Y0023536212D01*
X0045069748Y0023576892D01*
X0045027163Y0023615591D01*
X0044982747Y0023652235D01*
X0044936575Y0023686748D01*
X0044888723Y0023719056D01*
X0044839265Y0023749084D01*
X0044788276Y0023776757D01*
X0044735831Y0023802000D01*
X0044689258Y0023821673D01*
X0044756265Y0024164992D01*
X0044788276Y0024180465D01*
X0044839265Y0024208248D01*
X0044888723Y0024238386D01*
X0044936575Y0024270802D01*
X0044982747Y0024305421D01*
X0045027163Y0024342164D01*
X0045069748Y0024380955D01*
X0045110428Y0024421717D01*
X0045149127Y0024464374D01*
X0045185770Y0024508848D01*
X0045220284Y0024555062D01*
X0045252592Y0024602941D01*
X0045282620Y0024652406D01*
X0045310292Y0024703380D01*
X0045335535Y0024755788D01*
X0045358273Y0024809553D01*
X0045378430Y0024864596D01*
X0045395933Y0024920842D01*
X0045410706Y0024978213D01*
X0045422674Y0025036633D01*
X0045431763Y0025096025D01*
X0045437897Y0025156312D01*
X0045441001Y0025217417D01*
X0045441263Y0025248282D01*
X0045441001Y0025279309D01*
X0045437897Y0025340704D01*
X0045431763Y0025401243D01*
X0045422674Y0025460850D01*
X0045410706Y0025519451D01*
X0045395933Y0025576971D01*
X0045378430Y0025633334D01*
X0045358273Y0025688467D01*
X0045335535Y0025742293D01*
X0045310292Y0025794738D01*
X0045282620Y0025845727D01*
X0045252592Y0025895185D01*
X0045220284Y0025943037D01*
X0045185770Y0025989209D01*
X0045149127Y0026033625D01*
X0045125947Y0026059132D01*
X0046345015Y0032305264D01*
X0046385588Y0032365305D01*
X0046435721Y0032447787D01*
X0046481926Y0032532811D01*
X0046524078Y0032620252D01*
X0046562049Y0032709983D01*
X0046595716Y0032801878D01*
X0046624950Y0032895811D01*
X0046649627Y0032991657D01*
X0046669621Y0033089289D01*
X0046684805Y0033188582D01*
X0046695054Y0033289409D01*
X0046700241Y0033391645D01*
X0046700679Y0033443302D01*
X0046700241Y0033494798D01*
X0046695054Y0033596743D01*
X0046684805Y0033697318D01*
X0046669621Y0033796395D01*
X0046652412Y0033880272D01*
X0046910239Y0035201295D01*
X0046935597Y0035148732D01*
X0046965487Y0035078163D01*
X0046981452Y0035034626D01*
X0045435834Y0017775324D01*
X0045435230Y0017781250D01*
X0045426085Y0017840857D01*
X0045414045Y0017899458D01*
X0045399185Y0017956978D01*
X0045381581Y0018013341D01*
X0045361310Y0018068474D01*
X0045338449Y0018122300D01*
X0045313072Y0018174745D01*
X0045285258Y0018225734D01*
X0045255080Y0018275192D01*
X0045222617Y0018323045D01*
X0045187944Y0018369216D01*
X0045151138Y0018413632D01*
X0045112274Y0018456217D01*
X0045071429Y0018496897D01*
X0045028679Y0018535596D01*
X0044984101Y0018572240D01*
X0044937769Y0018606753D01*
X0044889762Y0018639061D01*
X0044840155Y0018669089D01*
X0044789023Y0018696762D01*
X0044736445Y0018722004D01*
X0044682495Y0018744742D01*
X0044627249Y0018764900D01*
X0044570785Y0018782402D01*
X0044513178Y0018797175D01*
X0044454505Y0018809144D01*
X0044394841Y0018818232D01*
X0044334264Y0018824366D01*
X0044272848Y0018827471D01*
X0044241820Y0018827732D01*
X0044210955Y0018827471D01*
X0044149850Y0018824366D01*
X0044089563Y0018818232D01*
X0044030171Y0018809144D01*
X0043971751Y0018797175D01*
X0043914380Y0018782402D01*
X0043858134Y0018764900D01*
X0043803090Y0018744742D01*
X0043749326Y0018722004D01*
X0043696918Y0018696762D01*
X0043645943Y0018669089D01*
X0043596478Y0018639061D01*
X0043548600Y0018606753D01*
X0043502386Y0018572240D01*
X0043457912Y0018535596D01*
X0043415255Y0018496897D01*
X0043374493Y0018456217D01*
X0043335702Y0018413632D01*
X0043298958Y0018369216D01*
X0043264340Y0018323045D01*
X0043231924Y0018275192D01*
X0043201786Y0018225734D01*
X0043174003Y0018174745D01*
X0043148653Y0018122300D01*
X0043125812Y0018068474D01*
X0043105557Y0018013341D01*
X0043087965Y0017956978D01*
X0043073113Y0017899458D01*
X0043061078Y0017840857D01*
X0043051936Y0017781250D01*
X0043045764Y0017720711D01*
X0043042640Y0017659316D01*
X0043042377Y0017628289D01*
X0043042494Y0017608128D01*
X0043043886Y0017567963D01*
X0043046646Y0017528017D01*
X0043050746Y0017488327D01*
X0043059195Y0017429307D01*
X0043075132Y0017351896D01*
X0043095968Y0017276159D01*
X0043121497Y0017202386D01*
X0043151510Y0017130866D01*
X0043185803Y0017061888D01*
X0043204654Y0017028567D01*
X0042834238Y0016672262D01*
X0042425016Y0016672262D01*
X0042452260Y0016693022D01*
X0042504621Y0016737025D01*
X0042554323Y0016783885D01*
X0042601248Y0016833468D01*
X0042645276Y0016885641D01*
X0042686289Y0016940268D01*
X0042724168Y0016997215D01*
X0042758794Y0017056349D01*
X0042790048Y0017117534D01*
X0042817811Y0017180636D01*
X0042841964Y0017245520D01*
X0042862389Y0017312054D01*
X0042878967Y0017380101D01*
X0042891579Y0017449528D01*
X0042900105Y0017520201D01*
X0042904428Y0017591985D01*
X0042904793Y0017628289D01*
X0042904530Y0017659316D01*
X0042901405Y0017720711D01*
X0042895233Y0017781250D01*
X0042886088Y0017840857D01*
X0042874047Y0017899458D01*
X0042859187Y0017956978D01*
X0042841583Y0018013341D01*
X0042821313Y0018068474D01*
X0042798451Y0018122300D01*
X0042773075Y0018174745D01*
X0042745260Y0018225734D01*
X0042715083Y0018275192D01*
X0042682620Y0018323045D01*
X0042647947Y0018369216D01*
X0042611140Y0018413632D01*
X0042572276Y0018456217D01*
X0042531431Y0018496897D01*
X0042488682Y0018535596D01*
X0042444103Y0018572240D01*
X0042397772Y0018606753D01*
X0042349764Y0018639061D01*
X0042300157Y0018669089D01*
X0042249026Y0018696762D01*
X0042196447Y0018722004D01*
X0042142497Y0018744742D01*
X0042087252Y0018764900D01*
X0042030787Y0018782402D01*
X0041973181Y0018797175D01*
X0041914507Y0018809144D01*
X0041854844Y0018818232D01*
X0041794266Y0018824366D01*
X0041732850Y0018827471D01*
X0041701822Y0018827732D01*
X0041670958Y0018827471D01*
X0041609853Y0018824366D01*
X0041549566Y0018818232D01*
X0041490174Y0018809144D01*
X0041431753Y0018797175D01*
X0041374382Y0018782402D01*
X0041318136Y0018764900D01*
X0041263093Y0018744742D01*
X0041209329Y0018722004D01*
X0041156921Y0018696762D01*
X0041105946Y0018669089D01*
X0041056481Y0018639061D01*
X0041008603Y0018606753D01*
X0040962388Y0018572240D01*
X0040917914Y0018535596D01*
X0040875258Y0018496897D01*
X0040834495Y0018456217D01*
X0040795704Y0018413632D01*
X0040758961Y0018369216D01*
X0040724343Y0018323045D01*
X0040691926Y0018275192D01*
X0040661788Y0018225734D01*
X0040634005Y0018174745D01*
X0040608655Y0018122300D01*
X0040585814Y0018068474D01*
X0040565559Y0018013341D01*
X0040547967Y0017956978D01*
X0040533115Y0017899458D01*
X0040521080Y0017840857D01*
X0040511938Y0017781250D01*
X0040505767Y0017720711D01*
X0040502642Y0017659316D01*
X0040502379Y0017628289D01*
X0040502503Y0017607150D01*
X0040503978Y0017565160D01*
X0040506903Y0017523540D01*
X0040511252Y0017482315D01*
X0040516998Y0017441512D01*
X0040524117Y0017401155D01*
X0040532581Y0017361271D01*
X0040542366Y0017321886D01*
X0040553446Y0017283025D01*
X0040565794Y0017244715D01*
X0040579384Y0017206981D01*
X0040594192Y0017169849D01*
X0040610191Y0017133345D01*
X0040627356Y0017097494D01*
X0040655093Y0017044911D01*
X0040675240Y0017010929D01*
X0039927352Y0016263040D01*
X0035701078Y0016263040D01*
X0035701078Y0020047973D01*
X0036521678Y0019610637D01*
X0036491409Y0019607570D01*
X0036462108Y0019601585D01*
X0036433926Y0019592834D01*
X0036407013Y0019581465D01*
X0036381519Y0019567629D01*
X0036357593Y0019551475D01*
X0036335385Y0019533153D01*
X0036315045Y0019512813D01*
X0036296723Y0019490605D01*
X0036280569Y0019466679D01*
X0036266733Y0019441185D01*
X0036255364Y0019414271D01*
X0036246612Y0019386090D01*
X0036240628Y0019356789D01*
X0036237561Y0019326520D01*
X0036237300Y0019311038D01*
X0036237300Y0018594899D01*
X0036237561Y0018579417D01*
X0036240628Y0018549148D01*
X0036246612Y0018519847D01*
X0036255364Y0018491665D01*
X0036266733Y0018464752D01*
X0036280569Y0018439258D01*
X0036296723Y0018415332D01*
X0036315045Y0018393124D01*
X0036335385Y0018372784D01*
X0036357593Y0018354462D01*
X0036381519Y0018338308D01*
X0036407013Y0018324472D01*
X0036433926Y0018313103D01*
X0036462108Y0018304351D01*
X0036491409Y0018298367D01*
X0036521678Y0018295300D01*
X0036537160Y0018295038D01*
X0037507298Y0018295038D01*
X0037522781Y0018295300D01*
X0037553050Y0018298367D01*
X0037582351Y0018304351D01*
X0037610532Y0018313103D01*
X0037637445Y0018324472D01*
X0037662940Y0018338308D01*
X0037686866Y0018354462D01*
X0037709074Y0018372784D01*
X0037729414Y0018393124D01*
X0037747736Y0018415332D01*
X0037763890Y0018439258D01*
X0037777726Y0018464752D01*
X0037789095Y0018491665D01*
X0037797846Y0018519847D01*
X0037803830Y0018549148D01*
X0037806897Y0018579417D01*
X0037807159Y0018594899D01*
X0037807159Y0019311038D01*
X0037806897Y0019326520D01*
X0037803830Y0019356789D01*
X0037797846Y0019386090D01*
X0037789095Y0019414271D01*
X0037777726Y0019441185D01*
X0037763890Y0019466679D01*
X0037747736Y0019490605D01*
X0037729414Y0019512813D01*
X0037709074Y0019533153D01*
X0037686866Y0019551475D01*
X0037662940Y0019567629D01*
X0037637445Y0019581465D01*
X0037610532Y0019592834D01*
X0037582351Y0019601585D01*
X0037553050Y0019607570D01*
X0037522781Y0019610637D01*
X0037507298Y0019610898D01*
X0036537160Y0019610898D01*
X0036964600Y0020284703D01*
X0037507298Y0020284703D01*
X0037519170Y0020284862D01*
X0037542533Y0020286727D01*
X0037565374Y0020290386D01*
X0037587621Y0020295765D01*
X0037609201Y0020302793D01*
X0037630042Y0020311398D01*
X0037650072Y0020321506D01*
X0037669218Y0020333045D01*
X0037687408Y0020345943D01*
X0037704569Y0020360128D01*
X0037720631Y0020375528D01*
X0037735518Y0020392070D01*
X0037749161Y0020409681D01*
X0037761486Y0020428290D01*
X0037772421Y0020447823D01*
X0037781893Y0020468210D01*
X0037785993Y0020478731D01*
X0037969437Y0020478731D01*
X0037969437Y0020422287D01*
X0037961720Y0020400899D01*
X0037948821Y0020356251D01*
X0037939561Y0020309949D01*
X0037934600Y0020262655D01*
X0037934159Y0020238842D01*
X0037934600Y0020215030D01*
X0037939561Y0020167736D01*
X0037948821Y0020121433D01*
X0037961720Y0020076785D01*
X0037969437Y0020055398D01*
X0037969437Y0020037759D01*
X0037976492Y0020037759D01*
X0037983961Y0020021326D01*
X0038000777Y0019989545D01*
X0038019752Y0019959159D01*
X0038040785Y0019930272D01*
X0038063770Y0019902987D01*
X0038088606Y0019877407D01*
X0038115188Y0019853636D01*
X0038143414Y0019831777D01*
X0038173180Y0019811933D01*
X0038204382Y0019794208D01*
X0038236917Y0019778705D01*
X0038270683Y0019765528D01*
X0038305574Y0019754779D01*
X0038341490Y0019746563D01*
X0038378324Y0019740982D01*
X0038415976Y0019738139D01*
X0038435103Y0019737898D01*
X0038454223Y0019738139D01*
X0038491797Y0019740982D01*
X0038528487Y0019746563D01*
X0038564201Y0019754779D01*
X0038598845Y0019765528D01*
X0038632326Y0019778705D01*
X0038664551Y0019794208D01*
X0038695428Y0019811933D01*
X0038724863Y0019831777D01*
X0038752763Y0019853636D01*
X0038779035Y0019877407D01*
X0038803587Y0019902987D01*
X0038826324Y0019930272D01*
X0038847155Y0019959159D01*
X0038865986Y0019989545D01*
X0038882724Y0020021326D01*
X0038890186Y0020037759D01*
X0038897242Y0020037759D01*
X0038897242Y0020055398D01*
X0038904959Y0020076785D01*
X0038917857Y0020121433D01*
X0038927117Y0020167736D01*
X0038932078Y0020215030D01*
X0038932519Y0020238842D01*
X0038932078Y0020262655D01*
X0038927117Y0020309949D01*
X0038917857Y0020356251D01*
X0038904959Y0020400899D01*
X0038897242Y0020422287D01*
X0038897242Y0020760953D01*
X0038904959Y0020782340D01*
X0038917857Y0020826988D01*
X0038927117Y0020873290D01*
X0038932078Y0020920585D01*
X0038932519Y0020944397D01*
X0038932085Y0020970091D01*
X0038927000Y0021020320D01*
X0038917078Y0021068937D01*
X0038902568Y0021115694D01*
X0038883716Y0021160342D01*
X0038860772Y0021202634D01*
X0038833983Y0021242322D01*
X0038803597Y0021279157D01*
X0038769863Y0021312891D01*
X0038733028Y0021343277D01*
X0038693340Y0021370066D01*
X0038651048Y0021393010D01*
X0038606400Y0021411862D01*
X0038559643Y0021426372D01*
X0038511026Y0021436294D01*
X0038460797Y0021441379D01*
X0038435103Y0021441813D01*
X0038412613Y0021441483D01*
X0038367965Y0021437514D01*
X0038324309Y0021429576D01*
X0038282306Y0021417670D01*
X0038262242Y0021410063D01*
X0037785993Y0021410063D01*
X0037781893Y0021420578D01*
X0037772421Y0021440887D01*
X0037761486Y0021460276D01*
X0037749161Y0021478683D01*
X0037735518Y0021496046D01*
X0037734051Y0021497648D01*
X0038600663Y0022863752D01*
X0040675240Y0020789175D01*
X0040665077Y0020772239D01*
X0040645659Y0020737696D01*
X0040627356Y0020702380D01*
X0040610191Y0020666328D01*
X0040594192Y0020629576D01*
X0040579384Y0020592160D01*
X0040565794Y0020554116D01*
X0040553446Y0020515480D01*
X0040542366Y0020476288D01*
X0040532581Y0020436578D01*
X0040524117Y0020396384D01*
X0040516998Y0020355743D01*
X0040511252Y0020314691D01*
X0040506903Y0020273265D01*
X0040503978Y0020231500D01*
X0040502503Y0020189433D01*
X0040502379Y0020168287D01*
X0040502642Y0020137422D01*
X0040505767Y0020076317D01*
X0040511938Y0020016030D01*
X0040521080Y0019956638D01*
X0040533115Y0019898218D01*
X0040547967Y0019840847D01*
X0040565559Y0019784601D01*
X0040585814Y0019729557D01*
X0040608655Y0019675793D01*
X0040634005Y0019623385D01*
X0040661788Y0019572410D01*
X0040691926Y0019522945D01*
X0040724343Y0019475067D01*
X0040758961Y0019428853D01*
X0040795704Y0019384379D01*
X0040834495Y0019341722D01*
X0040875258Y0019300960D01*
X0040917914Y0019262169D01*
X0040962388Y0019225425D01*
X0041008603Y0019190807D01*
X0041056481Y0019158390D01*
X0041105946Y0019128252D01*
X0041156921Y0019100470D01*
X0041209329Y0019075120D01*
X0041263093Y0019052279D01*
X0041318136Y0019032024D01*
X0041374382Y0019014432D01*
X0041431753Y0018999580D01*
X0041490174Y0018987544D01*
X0041549566Y0018978403D01*
X0041609853Y0018972231D01*
X0041670958Y0018969107D01*
X0041701822Y0018968843D01*
X0041732850Y0018969107D01*
X0041794266Y0018972231D01*
X0041854844Y0018978403D01*
X0041914507Y0018987544D01*
X0041973181Y0018999580D01*
X0042030787Y0019014432D01*
X0042087252Y0019032024D01*
X0042142497Y0019052279D01*
X0042196447Y0019075120D01*
X0042249026Y0019100470D01*
X0042300157Y0019128252D01*
X0042349764Y0019158390D01*
X0042397772Y0019190807D01*
X0042444103Y0019225425D01*
X0042488682Y0019262169D01*
X0042531431Y0019300960D01*
X0042572276Y0019341722D01*
X0042611140Y0019384379D01*
X0042647947Y0019428853D01*
X0042682620Y0019475067D01*
X0042715083Y0019522945D01*
X0042745260Y0019572410D01*
X0042773075Y0019623385D01*
X0042798451Y0019675793D01*
X0042821313Y0019729557D01*
X0042841583Y0019784601D01*
X0042859187Y0019840847D01*
X0042874047Y0019898218D01*
X0042886088Y0019956638D01*
X0042895233Y0020016030D01*
X0042901405Y0020076317D01*
X0042904530Y0020137422D01*
X0042904793Y0020168287D01*
X0042904530Y0020199313D01*
X0042901405Y0020260709D01*
X0042895233Y0020321248D01*
X0042886088Y0020380855D01*
X0042874047Y0020439456D01*
X0042859187Y0020496976D01*
X0042841583Y0020553339D01*
X0042821313Y0020608471D01*
X0042798451Y0020662297D01*
X0042773075Y0020714743D01*
X0042745260Y0020765732D01*
X0042715083Y0020815190D01*
X0042682620Y0020863042D01*
X0042647947Y0020909214D01*
X0042611140Y0020953630D01*
X0042572276Y0020996215D01*
X0042531431Y0021036894D01*
X0042488682Y0021075594D01*
X0042444103Y0021112237D01*
X0042397772Y0021146751D01*
X0042349764Y0021179059D01*
X0042300157Y0021209087D01*
X0042249026Y0021236759D01*
X0042196447Y0021262002D01*
X0042142497Y0021284740D01*
X0042087252Y0021304897D01*
X0042030787Y0021322400D01*
X0041973181Y0021337173D01*
X0041914507Y0021349141D01*
X0041854844Y0021358230D01*
X0041794266Y0021364364D01*
X0041732850Y0021367468D01*
X0041701822Y0021367730D01*
X0041680683Y0021367606D01*
X0041638693Y0021366131D01*
X0041597073Y0021363206D01*
X0041555848Y0021358857D01*
X0041515045Y0021353111D01*
X0041474688Y0021345992D01*
X0041434804Y0021337528D01*
X0041395419Y0021327743D01*
X0041356559Y0021316663D01*
X0041318248Y0021304315D01*
X0041280514Y0021290725D01*
X0041243382Y0021275917D01*
X0041206878Y0021259918D01*
X0041171027Y0021242753D01*
X0041118444Y0021215016D01*
X0041084462Y0021194869D01*
X0038918142Y0023364219D01*
X0040054352Y0025155312D01*
X0040054352Y0023946533D01*
X0040671712Y0023325645D01*
X0040651565Y0023291663D01*
X0040623828Y0023239079D01*
X0040606664Y0023203229D01*
X0040590665Y0023166725D01*
X0040575857Y0023129592D01*
X0040562266Y0023091858D01*
X0040549918Y0023053548D01*
X0040538838Y0023014687D01*
X0040529053Y0022975302D01*
X0040520589Y0022935418D01*
X0040513470Y0022895062D01*
X0040507724Y0022854258D01*
X0040503375Y0022813033D01*
X0040500451Y0022771413D01*
X0040498975Y0022729423D01*
X0040498851Y0022708284D01*
X0040499113Y0022677258D01*
X0040502217Y0022615862D01*
X0040508351Y0022555324D01*
X0040517440Y0022495716D01*
X0040529408Y0022437115D01*
X0040544181Y0022379595D01*
X0040561684Y0022323232D01*
X0040581842Y0022268100D01*
X0040604579Y0022214274D01*
X0040629822Y0022161829D01*
X0040657495Y0022110840D01*
X0040687522Y0022061381D01*
X0040719831Y0022013529D01*
X0040754344Y0021967357D01*
X0040790988Y0021922942D01*
X0040829687Y0021880356D01*
X0040870366Y0021839677D01*
X0040912952Y0021800978D01*
X0040957368Y0021764334D01*
X0041003539Y0021729820D01*
X0041051391Y0021697512D01*
X0041100850Y0021667485D01*
X0041151839Y0021639812D01*
X0041204284Y0021614569D01*
X0041258110Y0021591832D01*
X0041313242Y0021571674D01*
X0041369606Y0021554171D01*
X0041427125Y0021539398D01*
X0041485726Y0021527430D01*
X0041545334Y0021518341D01*
X0041605873Y0021512207D01*
X0041667268Y0021509103D01*
X0041698294Y0021508841D01*
X0041729321Y0021509103D01*
X0041790716Y0021512207D01*
X0041851255Y0021518341D01*
X0041910863Y0021527430D01*
X0041969464Y0021539398D01*
X0042026983Y0021554171D01*
X0042083347Y0021571674D01*
X0042138479Y0021591832D01*
X0042192305Y0021614569D01*
X0042244750Y0021639812D01*
X0042295739Y0021667485D01*
X0042345198Y0021697512D01*
X0042393050Y0021729820D01*
X0042439221Y0021764334D01*
X0042483637Y0021800978D01*
X0042526222Y0021839677D01*
X0042566902Y0021880356D01*
X0042605601Y0021922942D01*
X0042642245Y0021967357D01*
X0042676758Y0022013529D01*
X0042709066Y0022061381D01*
X0042739094Y0022110840D01*
X0042766767Y0022161829D01*
X0042792010Y0022214274D01*
X0042814747Y0022268100D01*
X0042834905Y0022323232D01*
X0042852408Y0022379595D01*
X0042867181Y0022437115D01*
X0042879149Y0022495716D01*
X0042888238Y0022555324D01*
X0042894372Y0022615862D01*
X0042897476Y0022677258D01*
X0042897738Y0022708284D01*
X0042897476Y0022739149D01*
X0042894372Y0022800254D01*
X0042888238Y0022860541D01*
X0042879149Y0022919933D01*
X0042867181Y0022978353D01*
X0042852408Y0023035725D01*
X0042834905Y0023091970D01*
X0042814747Y0023147014D01*
X0042792010Y0023200778D01*
X0042766767Y0023253186D01*
X0042739094Y0023304161D01*
X0042709066Y0023353626D01*
X0042676758Y0023401504D01*
X0042642245Y0023447718D01*
X0042605601Y0023492192D01*
X0042566902Y0023534849D01*
X0042526222Y0023575611D01*
X0042483637Y0023614403D01*
X0042439221Y0023651146D01*
X0042393050Y0023685764D01*
X0042345198Y0023718181D01*
X0042295739Y0023748319D01*
X0042244750Y0023776101D01*
X0042192305Y0023801451D01*
X0042138479Y0023824292D01*
X0042083347Y0023844547D01*
X0042026983Y0023862139D01*
X0041969464Y0023876991D01*
X0041910863Y0023889027D01*
X0041851255Y0023898169D01*
X0041790716Y0023904340D01*
X0041729321Y0023907464D01*
X0041698294Y0023907728D01*
X0041677155Y0023907604D01*
X0041635166Y0023906128D01*
X0041593546Y0023903203D01*
X0041552321Y0023898855D01*
X0041511517Y0023893108D01*
X0041471160Y0023885990D01*
X0041431277Y0023877525D01*
X0041391891Y0023867741D01*
X0041353031Y0023856661D01*
X0041314720Y0023844313D01*
X0041276986Y0023830722D01*
X0041239854Y0023815914D01*
X0041203350Y0023799915D01*
X0041167500Y0023782751D01*
X0041114916Y0023755014D01*
X0041080934Y0023734867D01*
X0040629379Y0024182894D01*
X0040629379Y0024705005D01*
X0040638741Y0024686711D01*
X0040658468Y0024650757D01*
X0040679373Y0024615585D01*
X0040701431Y0024581220D01*
X0040724613Y0024547687D01*
X0040748892Y0024515012D01*
X0040774242Y0024483219D01*
X0040800635Y0024452334D01*
X0040828044Y0024422383D01*
X0040856442Y0024393389D01*
X0040885802Y0024365379D01*
X0040916097Y0024338378D01*
X0040947299Y0024312411D01*
X0040979382Y0024287503D01*
X0041012318Y0024263678D01*
X0041046080Y0024240964D01*
X0041080641Y0024219384D01*
X0041115974Y0024198963D01*
X0041152052Y0024179728D01*
X0041188848Y0024161703D01*
X0041226334Y0024144913D01*
X0041264483Y0024129384D01*
X0041303269Y0024115141D01*
X0041342664Y0024102209D01*
X0041382640Y0024090613D01*
X0041423172Y0024080378D01*
X0041464232Y0024071529D01*
X0041505792Y0024064093D01*
X0041547825Y0024058093D01*
X0041590305Y0024053556D01*
X0041633204Y0024050506D01*
X0041676496Y0024048968D01*
X0041698294Y0024048839D01*
X0041729321Y0024049101D01*
X0041790716Y0024052205D01*
X0041851255Y0024058339D01*
X0041910863Y0024067428D01*
X0041969464Y0024079396D01*
X0042026983Y0024094169D01*
X0042083347Y0024111672D01*
X0042138479Y0024131829D01*
X0042192305Y0024154567D01*
X0042244750Y0024179809D01*
X0042295739Y0024207482D01*
X0042345198Y0024237510D01*
X0042393050Y0024269818D01*
X0042413801Y0024285330D01*
X0043112254Y0023111567D01*
X0043105557Y0023093337D01*
X0043087965Y0023036973D01*
X0043073113Y0022979454D01*
X0043061078Y0022920853D01*
X0043051936Y0022861245D01*
X0043045764Y0022800706D01*
X0043042640Y0022739311D01*
X0043042377Y0022708284D01*
X0043042640Y0022677420D01*
X0043045764Y0022616315D01*
X0043051936Y0022556028D01*
X0043061078Y0022496636D01*
X0043073113Y0022438216D01*
X0043087965Y0022380844D01*
X0043105557Y0022324598D01*
X0043125812Y0022269555D01*
X0043148653Y0022215791D01*
X0043174003Y0022163383D01*
X0043201786Y0022112408D01*
X0043231924Y0022062943D01*
X0043264340Y0022015065D01*
X0043298958Y0021968850D01*
X0043335702Y0021924376D01*
X0043374493Y0021881720D01*
X0043415255Y0021840957D01*
X0043457912Y0021802166D01*
X0043502386Y0021765423D01*
X0043548600Y0021730805D01*
X0043596478Y0021698388D01*
X0043645943Y0021668250D01*
X0043696918Y0021640468D01*
X0043749326Y0021615117D01*
X0043803090Y0021592276D01*
X0043858134Y0021572022D01*
X0043914380Y0021554430D01*
X0043971751Y0021539578D01*
X0044030171Y0021527542D01*
X0044057323Y0021523363D01*
X0044149850Y0021367870D01*
X0044089563Y0021361697D01*
G37*
%LPD*%
G36*
X0041193902Y0026335389D02*
G01*
X0041167500Y0026322749D01*
X0041114916Y0026295011D01*
X0041080934Y0026274864D01*
X0040887423Y0026468544D01*
X0041004678Y0026653383D01*
G37*
%LPD*%
G36*
X0044089563Y0021518400D02*
G01*
X0044149850Y0021512229D01*
X0044210955Y0021509105D01*
X0044237866Y0021508875D01*
X0044210955Y0021370994D01*
X0044149850Y0021367870D01*
X0044057323Y0021523363D01*
G37*
%LPD*%
G36*
X0045125947Y0026059132D02*
G01*
X0045110428Y0026076210D01*
X0045069748Y0026116890D01*
X0045027163Y0026155589D01*
X0044982747Y0026192233D01*
X0044936575Y0026226746D01*
X0044888723Y0026259054D01*
X0044839265Y0026289082D01*
X0044788276Y0026316755D01*
X0044735831Y0026341997D01*
X0044682004Y0026364735D01*
X0044626872Y0026384892D01*
X0044570509Y0026402395D01*
X0044512989Y0026417168D01*
X0044454388Y0026429136D01*
X0044394781Y0026438225D01*
X0044334242Y0026444359D01*
X0044272846Y0026447464D01*
X0044241820Y0026447725D01*
X0044210955Y0026447464D01*
X0044149850Y0026444359D01*
X0044089563Y0026438225D01*
X0044030171Y0026429136D01*
X0043971751Y0026417168D01*
X0043914380Y0026402395D01*
X0043858134Y0026384892D01*
X0043803090Y0026364735D01*
X0043749326Y0026341997D01*
X0043696918Y0026316755D01*
X0043645943Y0026289082D01*
X0043596478Y0026259054D01*
X0043548600Y0026226746D01*
X0043502386Y0026192233D01*
X0043457912Y0026155589D01*
X0043415255Y0026116890D01*
X0043374493Y0026076210D01*
X0043335702Y0026033625D01*
X0043298958Y0025989209D01*
X0043264340Y0025943037D01*
X0043231924Y0025895185D01*
X0043201786Y0025845727D01*
X0043174003Y0025794738D01*
X0043148653Y0025742293D01*
X0043125812Y0025688467D01*
X0043105557Y0025633334D01*
X0043087965Y0025576971D01*
X0043073113Y0025519451D01*
X0043061078Y0025460850D01*
X0043051936Y0025401243D01*
X0043045764Y0025340704D01*
X0043042640Y0025279309D01*
X0043042377Y0025248282D01*
X0043042640Y0025217417D01*
X0043045764Y0025156312D01*
X0043051936Y0025096025D01*
X0043061078Y0025036633D01*
X0043073113Y0024978213D01*
X0043087965Y0024920842D01*
X0043105557Y0024864596D01*
X0043125812Y0024809553D01*
X0043148653Y0024755788D01*
X0043174003Y0024703380D01*
X0043201786Y0024652406D01*
X0043231924Y0024602941D01*
X0043264340Y0024555062D01*
X0043298958Y0024508848D01*
X0043335702Y0024464374D01*
X0043374493Y0024421717D01*
X0043415255Y0024380955D01*
X0043457912Y0024342164D01*
X0043502386Y0024305421D01*
X0043548600Y0024270802D01*
X0043596478Y0024238386D01*
X0043645943Y0024208248D01*
X0043696918Y0024180465D01*
X0043749326Y0024155115D01*
X0043803090Y0024132274D01*
X0043858134Y0024112019D01*
X0043914380Y0024094427D01*
X0043971751Y0024079575D01*
X0044030171Y0024067540D01*
X0044089563Y0024058398D01*
X0044149850Y0024052226D01*
X0044210955Y0024049102D01*
X0044241820Y0024048839D01*
X0044272846Y0024049102D01*
X0044334242Y0024052226D01*
X0044394781Y0024058398D01*
X0044454388Y0024067540D01*
X0044512989Y0024079575D01*
X0044570509Y0024094427D01*
X0044626872Y0024112019D01*
X0044682004Y0024132274D01*
X0044735831Y0024155115D01*
X0044756265Y0024164992D01*
X0044689258Y0023821673D01*
X0044682004Y0023824737D01*
X0044626872Y0023844895D01*
X0044570509Y0023862398D01*
X0044512989Y0023877171D01*
X0044454388Y0023889139D01*
X0044394781Y0023898227D01*
X0044334242Y0023904361D01*
X0044272846Y0023907466D01*
X0044241820Y0023907728D01*
X0044210955Y0023907466D01*
X0044149850Y0023904361D01*
X0044089563Y0023898227D01*
X0044030171Y0023889139D01*
X0043971751Y0023877171D01*
X0043914380Y0023862398D01*
X0043858134Y0023844895D01*
X0043803090Y0023824737D01*
X0043749326Y0023802000D01*
X0043696918Y0023776757D01*
X0043645943Y0023749084D01*
X0043596478Y0023719056D01*
X0043548600Y0023686748D01*
X0043502386Y0023652235D01*
X0043457912Y0023615591D01*
X0043415255Y0023576892D01*
X0043374493Y0023536212D01*
X0043335702Y0023493627D01*
X0043298958Y0023449211D01*
X0043264340Y0023403040D01*
X0043231924Y0023355187D01*
X0043201786Y0023305729D01*
X0043174003Y0023254740D01*
X0043148653Y0023202295D01*
X0043125812Y0023148469D01*
X0043112254Y0023111567D01*
X0042413801Y0024285330D01*
X0042439221Y0024304331D01*
X0042483637Y0024340975D01*
X0042526222Y0024379674D01*
X0042566902Y0024420354D01*
X0042605601Y0024462939D01*
X0042642245Y0024507355D01*
X0042676758Y0024553527D01*
X0042709066Y0024601379D01*
X0042739094Y0024650837D01*
X0042766767Y0024701826D01*
X0042792010Y0024754271D01*
X0042814747Y0024808097D01*
X0042834905Y0024863230D01*
X0042852408Y0024919593D01*
X0042867181Y0024977113D01*
X0042879149Y0025035714D01*
X0042888238Y0025095321D01*
X0042894372Y0025155860D01*
X0042897476Y0025217256D01*
X0042897738Y0025248282D01*
X0042897476Y0025279147D01*
X0042894372Y0025340252D01*
X0042888238Y0025400539D01*
X0042879149Y0025459931D01*
X0042867181Y0025518351D01*
X0042852408Y0025575722D01*
X0042834905Y0025631968D01*
X0042814747Y0025687011D01*
X0042792010Y0025740776D01*
X0042766767Y0025793184D01*
X0042739094Y0025844158D01*
X0042709066Y0025893623D01*
X0042676758Y0025941502D01*
X0042642245Y0025987716D01*
X0042605601Y0026032190D01*
X0042566902Y0026074847D01*
X0042526222Y0026115609D01*
X0042483637Y0026154400D01*
X0042439221Y0026191143D01*
X0042393050Y0026225762D01*
X0042345198Y0026258178D01*
X0042295739Y0026288316D01*
X0042244750Y0026316099D01*
X0042192305Y0026341449D01*
X0042138479Y0026364290D01*
X0042083347Y0026384545D01*
X0042026983Y0026402137D01*
X0041969464Y0026416989D01*
X0041910863Y0026429024D01*
X0041851255Y0026438166D01*
X0041790716Y0026444338D01*
X0041729321Y0026447462D01*
X0041698294Y0026447725D01*
X0041677155Y0026447601D01*
X0041635166Y0026446126D01*
X0041593546Y0026443201D01*
X0041552321Y0026438852D01*
X0041511517Y0026433106D01*
X0041471160Y0026425988D01*
X0041431277Y0026417523D01*
X0041391891Y0026407738D01*
X0041353031Y0026396659D01*
X0041314720Y0026384311D01*
X0041276986Y0026370720D01*
X0041239854Y0026355912D01*
X0041203350Y0026339913D01*
X0041193902Y0026335389D01*
X0041004678Y0026653383D01*
X0044101534Y0031535190D01*
X0044154189Y0031518782D01*
X0044249886Y0031494105D01*
X0044347337Y0031474112D01*
X0044446415Y0031458928D01*
X0044546990Y0031448679D01*
X0044648935Y0031443492D01*
X0044700431Y0031443054D01*
X0044752088Y0031443492D01*
X0044854324Y0031448679D01*
X0044955151Y0031458928D01*
X0045054443Y0031474112D01*
X0045152075Y0031494105D01*
X0045247921Y0031518782D01*
X0045341855Y0031548017D01*
X0045433750Y0031581683D01*
X0045523481Y0031619655D01*
X0045610921Y0031661807D01*
X0045695946Y0031708012D01*
X0045778428Y0031758145D01*
X0045858242Y0031812079D01*
X0045935262Y0031869690D01*
X0046009362Y0031930850D01*
X0046080417Y0031995434D01*
X0046148299Y0032063316D01*
X0046212883Y0032134370D01*
X0046274043Y0032208470D01*
X0046331654Y0032285490D01*
X0046345015Y0032305264D01*
G37*
%LPD*%
G36*
X0046690681Y0035530942D02*
G01*
X0046738810Y0035472643D01*
X0046784148Y0035412051D01*
X0046826595Y0035349264D01*
X0046866051Y0035284382D01*
X0046902419Y0035217505D01*
X0046910239Y0035201295D01*
X0046652412Y0033880272D01*
X0046649627Y0033893847D01*
X0046624950Y0033989544D01*
X0046595716Y0034083360D01*
X0046562049Y0034175166D01*
X0046524078Y0034264835D01*
X0046481926Y0034352239D01*
X0046435721Y0034437249D01*
X0046385588Y0034519738D01*
X0046331654Y0034599578D01*
X0046274043Y0034676641D01*
X0046212883Y0034750799D01*
X0046170806Y0034797138D01*
X0046658655Y0035566172D01*
G37*
%LPD*%
G36*
X0033301222Y0026826468D02*
G01*
X0033273041Y0026817716D01*
X0033246127Y0026806347D01*
X0033220633Y0026792511D01*
X0033196707Y0026776357D01*
X0033174499Y0026758035D01*
X0033154159Y0026737695D01*
X0033135837Y0026715487D01*
X0033119683Y0026691561D01*
X0033105847Y0026666067D01*
X0033094478Y0026639154D01*
X0033085727Y0026610972D01*
X0033079742Y0026581671D01*
X0033076675Y0026551402D01*
X0033076414Y0026535920D01*
X0033076414Y0025347060D01*
X0033076675Y0025331571D01*
X0033079742Y0025301224D01*
X0033085727Y0025271778D01*
X0033094478Y0025243395D01*
X0033105847Y0025216234D01*
X0033119683Y0025190455D01*
X0033135837Y0025166219D01*
X0033154159Y0025143686D01*
X0033174499Y0025123015D01*
X0033196707Y0025104368D01*
X0033220633Y0025087903D01*
X0033246127Y0025073783D01*
X0033273041Y0025062166D01*
X0033301222Y0025053213D01*
X0033330523Y0025047084D01*
X0033360792Y0025043940D01*
X0033376274Y0025043671D01*
X0035401217Y0025043671D01*
X0035416699Y0025043940D01*
X0035446969Y0025047084D01*
X0035476269Y0025053213D01*
X0035504451Y0025062166D01*
X0035531364Y0025073783D01*
X0035556859Y0025087903D01*
X0035580785Y0025104368D01*
X0035602993Y0025123015D01*
X0035623332Y0025143686D01*
X0035641654Y0025166219D01*
X0035657808Y0025190455D01*
X0035671645Y0025216234D01*
X0035683013Y0025243395D01*
X0035691765Y0025271778D01*
X0035697749Y0025301224D01*
X0035700816Y0025331571D01*
X0035701078Y0025347060D01*
X0035701078Y0026535920D01*
X0035700816Y0026551402D01*
X0035697749Y0026581671D01*
X0035691765Y0026610972D01*
X0035683013Y0026639154D01*
X0035671645Y0026666067D01*
X0035657808Y0026691561D01*
X0035641654Y0026715487D01*
X0035623332Y0026737695D01*
X0035602993Y0026758035D01*
X0035580785Y0026776357D01*
X0035556859Y0026792511D01*
X0035531364Y0026806347D01*
X0035504451Y0026817716D01*
X0035476269Y0026826468D01*
X0035446969Y0026832452D01*
X0035416699Y0026835519D01*
X0035401217Y0026835781D01*
X0033376274Y0026835781D01*
X0038234405Y0027759672D01*
X0040054352Y0025939726D01*
X0040054352Y0025155312D01*
X0038918142Y0023364219D01*
X0038562103Y0023720756D01*
X0035701078Y0023720756D01*
X0035701078Y0024052366D01*
X0035700816Y0024067849D01*
X0035697749Y0024098118D01*
X0035691765Y0024127419D01*
X0035683013Y0024155600D01*
X0035671645Y0024182513D01*
X0035657808Y0024208008D01*
X0035641654Y0024231934D01*
X0035623332Y0024254142D01*
X0035602993Y0024274482D01*
X0035580785Y0024292804D01*
X0035556859Y0024308958D01*
X0035531364Y0024322794D01*
X0035504451Y0024334163D01*
X0035476269Y0024342914D01*
X0035446969Y0024348898D01*
X0035416699Y0024351965D01*
X0035401217Y0024352227D01*
X0033376274Y0024352227D01*
X0033360792Y0024351965D01*
X0033330523Y0024348898D01*
X0033301222Y0024342914D01*
X0033273041Y0024334163D01*
X0033246127Y0024322794D01*
X0033220633Y0024308958D01*
X0033196707Y0024292804D01*
X0033174499Y0024274482D01*
X0033154159Y0024254142D01*
X0033135837Y0024231934D01*
X0033119683Y0024208008D01*
X0033105847Y0024182513D01*
X0033094478Y0024155600D01*
X0033085727Y0024127419D01*
X0033079742Y0024098118D01*
X0033076675Y0024067849D01*
X0033076414Y0024052366D01*
X0033076414Y0023720756D01*
X0032656608Y0023720756D01*
X0031321375Y0022382124D01*
X0028372745Y0023953589D01*
X0028843084Y0023953589D01*
X0032054854Y0027168090D01*
X0033360792Y0026835519D01*
X0033330523Y0026832452D01*
G37*
%LPD*%
G36*
X0033072886Y0027784752D02*
G01*
X0033073148Y0027769270D01*
X0033076215Y0027739000D01*
X0033082199Y0027709700D01*
X0033090950Y0027681518D01*
X0033102319Y0027654605D01*
X0033116155Y0027629110D01*
X0033132309Y0027605184D01*
X0033150631Y0027582976D01*
X0033170971Y0027562636D01*
X0033193179Y0027544315D01*
X0033217105Y0027528161D01*
X0033242600Y0027514324D01*
X0033269513Y0027502955D01*
X0033297694Y0027494204D01*
X0033326995Y0027488220D01*
X0033357264Y0027485153D01*
X0033372747Y0027484891D01*
X0035397689Y0027484891D01*
X0035413171Y0027485153D01*
X0035443441Y0027488220D01*
X0035472741Y0027494204D01*
X0035500923Y0027502955D01*
X0035527836Y0027514324D01*
X0035553331Y0027528161D01*
X0035577257Y0027544315D01*
X0035599465Y0027562636D01*
X0035619805Y0027582976D01*
X0035638127Y0027605184D01*
X0035654281Y0027629110D01*
X0035668117Y0027654605D01*
X0035679486Y0027681518D01*
X0035688237Y0027709700D01*
X0035694221Y0027739000D01*
X0035697288Y0027769270D01*
X0035697550Y0027784752D01*
X0035697550Y0028105779D01*
X0037888298Y0028105779D01*
X0038234405Y0027759672D01*
X0033376274Y0026835781D01*
X0033360792Y0026835519D01*
X0032054854Y0027168090D01*
X0032991747Y0028105779D01*
X0033072886Y0028105779D01*
G37*
%LPD*%
G36*
X0033301222Y0034308877D02*
G01*
X0033273041Y0034300126D01*
X0033246127Y0034288757D01*
X0033220633Y0034274921D01*
X0033196707Y0034258767D01*
X0033174499Y0034240445D01*
X0033154159Y0034220105D01*
X0033135837Y0034197897D01*
X0033119683Y0034173971D01*
X0033105847Y0034148476D01*
X0033094478Y0034121563D01*
X0033085727Y0034093382D01*
X0033079742Y0034064081D01*
X0033076675Y0034033812D01*
X0033076414Y0034018329D01*
X0033076414Y0032825942D01*
X0033076675Y0032810459D01*
X0033079742Y0032780190D01*
X0033085727Y0032750889D01*
X0033094478Y0032722708D01*
X0033105847Y0032695795D01*
X0033119683Y0032670300D01*
X0033135837Y0032646374D01*
X0033154159Y0032624166D01*
X0033174499Y0032603826D01*
X0033196707Y0032585504D01*
X0033220633Y0032569350D01*
X0033246127Y0032555514D01*
X0033273041Y0032544145D01*
X0033301222Y0032535394D01*
X0033330523Y0032529410D01*
X0033360792Y0032526343D01*
X0033376274Y0032526081D01*
X0035401217Y0032526081D01*
X0035416699Y0032526343D01*
X0035446969Y0032529410D01*
X0035476269Y0032535394D01*
X0035504451Y0032544145D01*
X0035531364Y0032555514D01*
X0035556859Y0032569350D01*
X0035580785Y0032585504D01*
X0035602993Y0032603826D01*
X0035623332Y0032624166D01*
X0035641654Y0032646374D01*
X0035657808Y0032670300D01*
X0035671645Y0032695795D01*
X0035683013Y0032722708D01*
X0035691765Y0032750889D01*
X0035697749Y0032780190D01*
X0035700816Y0032810459D01*
X0035701078Y0032825942D01*
X0035701078Y0034018329D01*
X0035700816Y0034033812D01*
X0035697749Y0034064081D01*
X0035691765Y0034093382D01*
X0035683013Y0034121563D01*
X0035671645Y0034148476D01*
X0035657808Y0034173971D01*
X0035641654Y0034197897D01*
X0035623332Y0034220105D01*
X0035602993Y0034240445D01*
X0035580785Y0034258767D01*
X0035556859Y0034274921D01*
X0035531364Y0034288757D01*
X0035504451Y0034300126D01*
X0035476269Y0034308877D01*
X0035446969Y0034314861D01*
X0035416699Y0034317928D01*
X0035401217Y0034318190D01*
X0033376274Y0034318190D01*
X0046013027Y0035989626D01*
X0046077764Y0035965886D01*
X0046148333Y0035935996D01*
X0046217106Y0035902818D01*
X0046283983Y0035866451D01*
X0046348865Y0035826994D01*
X0046411651Y0035784547D01*
X0046472244Y0035739209D01*
X0046530543Y0035691080D01*
X0046586448Y0035640260D01*
X0046639861Y0035586847D01*
X0046658655Y0035566172D01*
X0046170806Y0034797138D01*
X0046148299Y0034821925D01*
X0046080417Y0034889890D01*
X0046009362Y0034954566D01*
X0045935262Y0035015826D01*
X0045858242Y0035073541D01*
X0045778428Y0035127584D01*
X0045695946Y0035177827D01*
X0045610921Y0035224142D01*
X0045523481Y0035266401D01*
X0045433750Y0035304476D01*
X0045341855Y0035338240D01*
X0045247921Y0035367563D01*
X0045152075Y0035392320D01*
X0045054443Y0035412380D01*
X0044955151Y0035427618D01*
X0044854324Y0035437904D01*
X0044752088Y0035443111D01*
X0044700431Y0035443550D01*
X0044648935Y0035443111D01*
X0044546990Y0035437904D01*
X0044446415Y0035427618D01*
X0044347337Y0035412380D01*
X0044249886Y0035392320D01*
X0044154189Y0035367563D01*
X0044060373Y0035338240D01*
X0043968566Y0035304476D01*
X0043878897Y0035266401D01*
X0043791494Y0035224142D01*
X0043706484Y0035177827D01*
X0043623995Y0035127584D01*
X0043544155Y0035073541D01*
X0043467092Y0035015826D01*
X0043392933Y0034954566D01*
X0043321808Y0034889890D01*
X0043253843Y0034821925D01*
X0043189167Y0034750799D01*
X0043127907Y0034676641D01*
X0043070192Y0034599578D01*
X0043016149Y0034519738D01*
X0042965906Y0034437249D01*
X0042919591Y0034352239D01*
X0042877332Y0034264835D01*
X0042839256Y0034175166D01*
X0042805493Y0034083360D01*
X0042776169Y0033989544D01*
X0042751413Y0033893847D01*
X0042731352Y0033796395D01*
X0042716115Y0033697318D01*
X0042705829Y0033596743D01*
X0042700622Y0033494798D01*
X0042700182Y0033443302D01*
X0042700622Y0033391645D01*
X0042705829Y0033289409D01*
X0042716115Y0033188582D01*
X0042731352Y0033089289D01*
X0042751413Y0032991657D01*
X0042776169Y0032895811D01*
X0042805493Y0032801878D01*
X0042839256Y0032709983D01*
X0042877332Y0032620252D01*
X0042919591Y0032532811D01*
X0042965906Y0032447787D01*
X0043016149Y0032365305D01*
X0043070192Y0032285490D01*
X0043127907Y0032208470D01*
X0043189167Y0032134370D01*
X0043253843Y0032063316D01*
X0043321808Y0031995434D01*
X0043392933Y0031930850D01*
X0043467092Y0031869690D01*
X0043544155Y0031812079D01*
X0043623995Y0031758145D01*
X0043706484Y0031708012D01*
X0043791494Y0031661807D01*
X0043878897Y0031619655D01*
X0043968566Y0031581683D01*
X0044060373Y0031548017D01*
X0044101534Y0031535190D01*
X0040887423Y0026468544D01*
X0037034577Y0030324749D01*
X0035701078Y0030324749D01*
X0035701078Y0030666944D01*
X0035700816Y0030682426D01*
X0035697749Y0030712695D01*
X0035691765Y0030741996D01*
X0035683013Y0030770178D01*
X0035671645Y0030797091D01*
X0035657808Y0030822585D01*
X0035641654Y0030846511D01*
X0035623332Y0030868719D01*
X0035602993Y0030889059D01*
X0035580785Y0030907381D01*
X0035556859Y0030923535D01*
X0035531364Y0030937371D01*
X0035504451Y0030948740D01*
X0035476269Y0030957492D01*
X0035446969Y0030963476D01*
X0035416699Y0030966543D01*
X0035401217Y0030966804D01*
X0033376274Y0030966804D01*
X0033360792Y0030966543D01*
X0033330523Y0030963476D01*
X0033301222Y0030957492D01*
X0033273041Y0030948740D01*
X0033246127Y0030937371D01*
X0033220633Y0030923535D01*
X0033196707Y0030907381D01*
X0033174499Y0030889059D01*
X0033154159Y0030868719D01*
X0033135837Y0030846511D01*
X0033119683Y0030822585D01*
X0033105847Y0030797091D01*
X0033094478Y0030770178D01*
X0033085727Y0030741996D01*
X0033079742Y0030712695D01*
X0033076675Y0030682426D01*
X0033076414Y0030666944D01*
X0033076414Y0030324749D01*
X0032769497Y0030324749D01*
X0028074029Y0025629282D01*
X0025228545Y0025629282D01*
X0011173471Y0033119896D01*
X0011146265Y0033160111D01*
X0011110252Y0033208216D01*
X0011072026Y0033254503D01*
X0011031665Y0033298895D01*
X0010989249Y0033341311D01*
X0010944858Y0033381672D01*
X0010898570Y0033419898D01*
X0010850465Y0033455911D01*
X0010800623Y0033489629D01*
X0010749124Y0033520975D01*
X0010696045Y0033549869D01*
X0010641468Y0033576231D01*
X0010585472Y0033599981D01*
X0010528135Y0033621041D01*
X0010469538Y0033639330D01*
X0010409760Y0033654770D01*
X0010348880Y0033667281D01*
X0010286978Y0033676783D01*
X0010224133Y0033683198D01*
X0010160425Y0033686445D01*
X0010128241Y0033686719D01*
X0010110196Y0033686565D01*
X0005944617Y0035906599D01*
X0006005671Y0035935996D01*
X0006076364Y0035965886D01*
X0006148743Y0035992387D01*
X0006222708Y0036015401D01*
X0006298157Y0036034828D01*
X0006363353Y0036048185D01*
X0010742073Y0035767555D01*
X0010742073Y0034251163D01*
X0010742335Y0034235997D01*
X0010745402Y0034206232D01*
X0010751386Y0034177293D01*
X0010760138Y0034149346D01*
X0010771506Y0034122557D01*
X0010785343Y0034097091D01*
X0010801497Y0034073113D01*
X0010819819Y0034050789D01*
X0010840159Y0034030284D01*
X0010862366Y0034011763D01*
X0010886293Y0033995392D01*
X0010911787Y0033981336D01*
X0010938700Y0033969760D01*
X0010966882Y0033960831D01*
X0010996182Y0033954712D01*
X0011026452Y0033951570D01*
X0011041934Y0033951302D01*
X0013419654Y0033951302D01*
X0013435136Y0033951570D01*
X0013465406Y0033954712D01*
X0013494706Y0033960831D01*
X0013522888Y0033969760D01*
X0013549801Y0033981336D01*
X0013575296Y0033995392D01*
X0013599222Y0034011763D01*
X0013621430Y0034030284D01*
X0013641770Y0034050789D01*
X0013660091Y0034073113D01*
X0013676245Y0034097091D01*
X0013690082Y0034122557D01*
X0013701451Y0034149346D01*
X0013710202Y0034177293D01*
X0013716186Y0034206232D01*
X0013719253Y0034235997D01*
X0013719515Y0034251163D01*
X0013719515Y0035576731D01*
X0033360792Y0034317928D01*
X0033330523Y0034314861D01*
G37*
%LPD*%
G36*
X0045541836Y0036074677D02*
G01*
X0045622194Y0036070593D01*
X0045701453Y0036062524D01*
X0045779512Y0036050569D01*
X0045856272Y0036034828D01*
X0045931634Y0036015401D01*
X0046005498Y0035992387D01*
X0046013027Y0035989626D01*
X0033376274Y0034318190D01*
X0033360792Y0034317928D01*
X0013719515Y0035576731D01*
X0013719515Y0036075022D01*
X0045501235Y0036075022D01*
G37*
%LPD*%
G36*
X0010742073Y0035767555D02*
G01*
X0006363353Y0036048185D01*
X0006374989Y0036050569D01*
X0006453104Y0036062524D01*
X0006532402Y0036070593D01*
X0006612781Y0036074677D01*
X0006653383Y0036075022D01*
X0010742073Y0036075022D01*
G37*
%LPD*%
G36*
X0014621909Y0006381386D02*
G01*
X0014640864Y0006377314D01*
X0014658475Y0006369624D01*
X0014674288Y0006358772D01*
X0014687848Y0006345212D01*
X0014698700Y0006329399D01*
X0014706389Y0006311788D01*
X0014710461Y0006292833D01*
X0014710820Y0006282966D01*
X0014710820Y0004561412D01*
X0014710461Y0004550939D01*
X0014706389Y0004531261D01*
X0014698700Y0004513402D01*
X0014687848Y0004497692D01*
X0014674288Y0004484463D01*
X0014658475Y0004474045D01*
X0014640864Y0004466769D01*
X0014621909Y0004462965D01*
X0014612042Y0004462635D01*
X0012230794Y0004462635D01*
X0012220927Y0004462965D01*
X0012201973Y0004466769D01*
X0012184361Y0004474045D01*
X0012168548Y0004484463D01*
X0012154988Y0004497692D01*
X0012144136Y0004513402D01*
X0012136447Y0004531261D01*
X0012132375Y0004550939D01*
X0012132016Y0004561412D01*
X0012132016Y0006282966D01*
X0012132375Y0006292833D01*
X0012136447Y0006311788D01*
X0012144136Y0006329399D01*
X0012154988Y0006345212D01*
X0012168548Y0006358772D01*
X0012184361Y0006369624D01*
X0012201973Y0006377314D01*
X0012220927Y0006381386D01*
X0012230794Y0006381744D01*
X0014612042Y0006381744D01*
G37*
%LPD*%
G36*
X0013430127Y0036074664D02*
G01*
X0013449806Y0036070571D01*
X0013467665Y0036062799D01*
X0013483375Y0036051761D01*
X0013496604Y0036037870D01*
X0013507022Y0036021540D01*
X0013514298Y0036003185D01*
X0013518101Y0035983217D01*
X0013518432Y0035972716D01*
X0013518432Y0034254690D01*
X0013518101Y0034244190D01*
X0013514298Y0034224222D01*
X0013507022Y0034205866D01*
X0013496604Y0034189537D01*
X0013483375Y0034175646D01*
X0013467665Y0034164608D01*
X0013449806Y0034156836D01*
X0013430127Y0034152743D01*
X0013419654Y0034152385D01*
X0011041934Y0034152385D01*
X0011031434Y0034152743D01*
X0011011466Y0034156836D01*
X0010993110Y0034164608D01*
X0010976781Y0034175646D01*
X0010962890Y0034189537D01*
X0010951852Y0034205866D01*
X0010944080Y0034224222D01*
X0010939987Y0034244190D01*
X0010939629Y0034254690D01*
X0010939629Y0035972716D01*
X0010939987Y0035983217D01*
X0010944080Y0036003185D01*
X0010951852Y0036021540D01*
X0010962890Y0036037870D01*
X0010976781Y0036051761D01*
X0010993110Y0036062799D01*
X0011011466Y0036070571D01*
X0011031434Y0036074664D01*
X0011041934Y0036075022D01*
X0013419654Y0036075022D01*
G37*
M02*
